G04 #@! TF.GenerationSoftware,KiCad,Pcbnew,(5.1.6)-1*
G04 #@! TF.CreationDate,2020-05-23T11:28:19-07:00*
G04 #@! TF.ProjectId,NanoDemo,4e616e6f-4465-46d6-9f2e-6b696361645f,rev?*
G04 #@! TF.SameCoordinates,Original*
G04 #@! TF.FileFunction,Soldermask,Top*
G04 #@! TF.FilePolarity,Negative*
%FSLAX46Y46*%
G04 Gerber Fmt 4.6, Leading zero omitted, Abs format (unit mm)*
G04 Created by KiCad (PCBNEW (5.1.6)-1) date 2020-05-23 11:28:19*
%MOMM*%
%LPD*%
G01*
G04 APERTURE LIST*
%ADD10C,1.650000*%
%ADD11R,1.650000X1.650000*%
%ADD12O,1.700000X1.700000*%
%ADD13R,1.700000X1.700000*%
%ADD14O,1.800000X1.800000*%
%ADD15R,1.800000X1.800000*%
%ADD16C,1.700000*%
%ADD17C,1.600000*%
%ADD18R,1.600000X1.600000*%
%ADD19C,1.900000*%
%ADD20R,1.900000X1.900000*%
%ADD21R,2.100000X2.100000*%
%ADD22C,2.100000*%
%ADD23R,3.300000X2.100000*%
%ADD24R,1.600000X1.100000*%
G04 APERTURE END LIST*
D10*
G04 #@! TO.C,RV3*
X55038000Y-173268000D03*
D11*
X50038000Y-175768000D03*
D10*
X50038000Y-170768000D03*
G04 #@! TD*
G04 #@! TO.C,RV2*
X55038000Y-163616000D03*
D11*
X50038000Y-166116000D03*
D10*
X50038000Y-161116000D03*
G04 #@! TD*
G04 #@! TO.C,RV1*
X55038000Y-154726000D03*
D11*
X50038000Y-157226000D03*
D10*
X50038000Y-152226000D03*
G04 #@! TD*
D12*
G04 #@! TO.C,U1*
X140970000Y-151130000D03*
X133350000Y-166370000D03*
X140970000Y-153670000D03*
X133350000Y-163830000D03*
X140970000Y-156210000D03*
X133350000Y-161290000D03*
X140970000Y-158750000D03*
X133350000Y-158750000D03*
X140970000Y-161290000D03*
X133350000Y-156210000D03*
X140970000Y-163830000D03*
X133350000Y-153670000D03*
X140970000Y-166370000D03*
D13*
X133350000Y-151130000D03*
G04 #@! TD*
D14*
G04 #@! TO.C,J5*
X161290000Y-118110000D03*
X163830000Y-118110000D03*
X166370000Y-118110000D03*
D15*
X168910000Y-118110000D03*
G04 #@! TD*
D12*
G04 #@! TO.C,U6*
X172085000Y-156845000D03*
X189865000Y-164465000D03*
X174625000Y-156845000D03*
X187325000Y-164465000D03*
X177165000Y-156845000D03*
X184785000Y-164465000D03*
X179705000Y-156845000D03*
X182245000Y-164465000D03*
X182245000Y-156845000D03*
X179705000Y-164465000D03*
X184785000Y-156845000D03*
X177165000Y-164465000D03*
X187325000Y-156845000D03*
X174625000Y-164465000D03*
X189865000Y-156845000D03*
D13*
X172085000Y-164465000D03*
G04 #@! TD*
D12*
G04 #@! TO.C,R43*
X124460000Y-171450000D03*
D16*
X124460000Y-161290000D03*
G04 #@! TD*
D12*
G04 #@! TO.C,R42*
X119380000Y-171450000D03*
D16*
X119380000Y-161290000D03*
G04 #@! TD*
D12*
G04 #@! TO.C,R41*
X119380000Y-128270000D03*
D16*
X119380000Y-138430000D03*
G04 #@! TD*
D12*
G04 #@! TO.C,R40*
X114300000Y-171450000D03*
D16*
X114300000Y-161290000D03*
G04 #@! TD*
D12*
G04 #@! TO.C,R39*
X116840000Y-171450000D03*
D16*
X116840000Y-161290000D03*
G04 #@! TD*
D12*
G04 #@! TO.C,R38*
X121920000Y-171450000D03*
D16*
X121920000Y-161290000D03*
G04 #@! TD*
D12*
G04 #@! TO.C,R37*
X124460000Y-128270000D03*
D16*
X124460000Y-138430000D03*
G04 #@! TD*
D12*
G04 #@! TO.C,R36*
X121920000Y-128270000D03*
D16*
X121920000Y-138430000D03*
G04 #@! TD*
D12*
G04 #@! TO.C,R35*
X111760000Y-171450000D03*
D16*
X111760000Y-161290000D03*
G04 #@! TD*
D12*
G04 #@! TO.C,R34*
X106680000Y-128270000D03*
D16*
X106680000Y-138430000D03*
G04 #@! TD*
D12*
G04 #@! TO.C,R33*
X104140000Y-128270000D03*
D16*
X104140000Y-138430000D03*
G04 #@! TD*
D12*
G04 #@! TO.C,R32*
X104140000Y-171450000D03*
D16*
X104140000Y-161290000D03*
G04 #@! TD*
D12*
G04 #@! TO.C,R31*
X106680000Y-171450000D03*
D16*
X106680000Y-161290000D03*
G04 #@! TD*
D12*
G04 #@! TO.C,R30*
X109220000Y-171450000D03*
D16*
X109220000Y-161290000D03*
G04 #@! TD*
D12*
G04 #@! TO.C,R29*
X111760000Y-128270000D03*
D16*
X111760000Y-138430000D03*
G04 #@! TD*
D12*
G04 #@! TO.C,R28*
X109220000Y-128270000D03*
D16*
X109220000Y-138430000D03*
G04 #@! TD*
D14*
G04 #@! TO.C,J4*
X54610000Y-181630000D03*
X52070000Y-181630000D03*
X49530000Y-181630000D03*
D15*
X46990000Y-181630000D03*
G04 #@! TD*
D14*
G04 #@! TO.C,J3*
X54610000Y-186280000D03*
X52070000Y-186280000D03*
X49530000Y-186280000D03*
D15*
X46990000Y-186280000D03*
G04 #@! TD*
D14*
G04 #@! TO.C,J2*
X54610000Y-190930000D03*
X52070000Y-190930000D03*
X49530000Y-190930000D03*
D15*
X46990000Y-190930000D03*
G04 #@! TD*
D14*
G04 #@! TO.C,J1*
X54610000Y-195580000D03*
X52070000Y-195580000D03*
X49530000Y-195580000D03*
D15*
X46990000Y-195580000D03*
G04 #@! TD*
D12*
G04 #@! TO.C,U5*
X85090000Y-158750000D03*
X64770000Y-151130000D03*
X82550000Y-158750000D03*
X67310000Y-151130000D03*
X80010000Y-158750000D03*
X69850000Y-151130000D03*
X77470000Y-158750000D03*
X72390000Y-151130000D03*
X74930000Y-158750000D03*
X74930000Y-151130000D03*
X72390000Y-158750000D03*
X77470000Y-151130000D03*
X69850000Y-158750000D03*
X80010000Y-151130000D03*
X67310000Y-158750000D03*
X82550000Y-151130000D03*
X64770000Y-158750000D03*
D13*
X85090000Y-151130000D03*
G04 #@! TD*
D12*
G04 #@! TO.C,R27*
X87630000Y-176530000D03*
D16*
X87630000Y-166370000D03*
G04 #@! TD*
D12*
G04 #@! TO.C,R26*
X83820000Y-176530000D03*
D16*
X83820000Y-166370000D03*
G04 #@! TD*
D12*
G04 #@! TO.C,R25*
X80010000Y-176530000D03*
D16*
X80010000Y-166370000D03*
G04 #@! TD*
D12*
G04 #@! TO.C,R24*
X76200000Y-176530000D03*
D16*
X76200000Y-166370000D03*
G04 #@! TD*
D12*
G04 #@! TO.C,R23*
X72390000Y-176530000D03*
D16*
X72390000Y-166370000D03*
G04 #@! TD*
D12*
G04 #@! TO.C,R22*
X68580000Y-176530000D03*
D16*
X68580000Y-166370000D03*
G04 #@! TD*
D12*
G04 #@! TO.C,R21*
X64770000Y-176530000D03*
D16*
X64770000Y-166370000D03*
G04 #@! TD*
D12*
G04 #@! TO.C,R20*
X60960000Y-176530000D03*
D16*
X60960000Y-166370000D03*
G04 #@! TD*
D12*
G04 #@! TO.C,R19*
X24130000Y-133350000D03*
D16*
X24130000Y-143510000D03*
G04 #@! TD*
D12*
G04 #@! TO.C,R18*
X95250000Y-133350000D03*
D16*
X95250000Y-143510000D03*
G04 #@! TD*
D12*
G04 #@! TO.C,R17*
X85090000Y-133350000D03*
D16*
X85090000Y-143510000D03*
G04 #@! TD*
D12*
G04 #@! TO.C,R16*
X74930000Y-133350000D03*
D16*
X74930000Y-143510000D03*
G04 #@! TD*
D12*
G04 #@! TO.C,R15*
X64770000Y-133350000D03*
D16*
X64770000Y-143510000D03*
G04 #@! TD*
D12*
G04 #@! TO.C,R14*
X54610000Y-133350000D03*
D16*
X54610000Y-143510000D03*
G04 #@! TD*
D12*
G04 #@! TO.C,R13*
X44450000Y-133350000D03*
D16*
X44450000Y-143510000D03*
G04 #@! TD*
D12*
G04 #@! TO.C,R12*
X34290000Y-133350000D03*
D16*
X34290000Y-143510000D03*
G04 #@! TD*
D17*
G04 #@! TO.C,DS1*
X104140000Y-142240000D03*
X106680000Y-142240000D03*
X109220000Y-142240000D03*
X111760000Y-142240000D03*
X114300000Y-142240000D03*
X116840000Y-142240000D03*
X119380000Y-142240000D03*
X121920000Y-142240000D03*
X124460000Y-142240000D03*
X124460000Y-157480000D03*
X121920000Y-157480000D03*
X119380000Y-157480000D03*
X116840000Y-157480000D03*
X114300000Y-157480000D03*
X111760000Y-157480000D03*
X109220000Y-157480000D03*
X106680000Y-157480000D03*
D18*
X104140000Y-157480000D03*
G04 #@! TD*
D19*
G04 #@! TO.C,D16*
X95250000Y-127000000D03*
D20*
X95250000Y-129540000D03*
G04 #@! TD*
D19*
G04 #@! TO.C,D15*
X85090000Y-127000000D03*
D20*
X85090000Y-129540000D03*
G04 #@! TD*
D19*
G04 #@! TO.C,D14*
X74930000Y-127000000D03*
D20*
X74930000Y-129540000D03*
G04 #@! TD*
D19*
G04 #@! TO.C,D13*
X64770000Y-127000000D03*
D20*
X64770000Y-129540000D03*
G04 #@! TD*
D19*
G04 #@! TO.C,D12*
X54610000Y-127000000D03*
D20*
X54610000Y-129540000D03*
G04 #@! TD*
D19*
G04 #@! TO.C,D11*
X44450000Y-127000000D03*
D20*
X44450000Y-129540000D03*
G04 #@! TD*
D19*
G04 #@! TO.C,D10*
X34290000Y-127000000D03*
D20*
X34290000Y-129540000D03*
G04 #@! TD*
D21*
G04 #@! TO.C,SW4*
X105410000Y-182880000D03*
D22*
X105410000Y-185380000D03*
X105410000Y-187880000D03*
D23*
X112910000Y-179780000D03*
X112910000Y-190980000D03*
D17*
X119910000Y-182880000D03*
X119910000Y-187880000D03*
G04 #@! TD*
D19*
G04 #@! TO.C,D9*
X24130000Y-127000000D03*
D20*
X24130000Y-129540000D03*
G04 #@! TD*
D12*
G04 #@! TO.C,U4*
X165735000Y-164465000D03*
X147955000Y-156845000D03*
X163195000Y-164465000D03*
X150495000Y-156845000D03*
X160655000Y-164465000D03*
X153035000Y-156845000D03*
X158115000Y-164465000D03*
X155575000Y-156845000D03*
X155575000Y-164465000D03*
X158115000Y-156845000D03*
X153035000Y-164465000D03*
X160655000Y-156845000D03*
X150495000Y-164465000D03*
X163195000Y-156845000D03*
X147955000Y-164465000D03*
D13*
X165735000Y-156845000D03*
G04 #@! TD*
D12*
G04 #@! TO.C,U2*
X82550000Y-193040000D03*
X64770000Y-185420000D03*
X80010000Y-193040000D03*
X67310000Y-185420000D03*
X77470000Y-193040000D03*
X69850000Y-185420000D03*
X74930000Y-193040000D03*
X72390000Y-185420000D03*
X72390000Y-193040000D03*
X74930000Y-185420000D03*
X69850000Y-193040000D03*
X77470000Y-185420000D03*
X67310000Y-193040000D03*
X80010000Y-185420000D03*
X64770000Y-193040000D03*
D13*
X82550000Y-185420000D03*
G04 #@! TD*
D22*
G04 #@! TO.C,SW1*
X188110000Y-180340000D03*
X188110000Y-184840000D03*
X181610000Y-180340000D03*
X181610000Y-184840000D03*
G04 #@! TD*
G04 #@! TO.C,SW5*
X198270000Y-189230000D03*
X198270000Y-193730000D03*
X191770000Y-189230000D03*
X191770000Y-193730000D03*
G04 #@! TD*
G04 #@! TO.C,SW3*
X198270000Y-171450000D03*
X198270000Y-175950000D03*
X191770000Y-171450000D03*
X191770000Y-175950000D03*
G04 #@! TD*
G04 #@! TO.C,SW2*
X208430000Y-180340000D03*
X208430000Y-184840000D03*
X201930000Y-180340000D03*
X201930000Y-184840000D03*
G04 #@! TD*
D12*
G04 #@! TO.C,R11*
X146050000Y-181610000D03*
D16*
X146050000Y-191770000D03*
G04 #@! TD*
D12*
G04 #@! TO.C,R10*
X127000000Y-182880000D03*
D16*
X137160000Y-182880000D03*
G04 #@! TD*
D12*
G04 #@! TO.C,R9*
X149860000Y-191770000D03*
D16*
X149860000Y-181610000D03*
G04 #@! TD*
D12*
G04 #@! TO.C,R8*
X127000000Y-193040000D03*
D16*
X137160000Y-193040000D03*
G04 #@! TD*
D12*
G04 #@! TO.C,R7*
X161290000Y-181610000D03*
D16*
X161290000Y-191770000D03*
G04 #@! TD*
D12*
G04 #@! TO.C,R6*
X165100000Y-191770000D03*
D16*
X165100000Y-181610000D03*
G04 #@! TD*
D12*
G04 #@! TO.C,R5*
X127000000Y-179070000D03*
D16*
X137160000Y-179070000D03*
G04 #@! TD*
D12*
G04 #@! TO.C,R4*
X153670000Y-181610000D03*
D16*
X153670000Y-191770000D03*
G04 #@! TD*
D12*
G04 #@! TO.C,R3*
X157480000Y-191770000D03*
D16*
X157480000Y-181610000D03*
G04 #@! TD*
D12*
G04 #@! TO.C,R2*
X168910000Y-181610000D03*
D16*
X168910000Y-191770000D03*
G04 #@! TD*
D12*
G04 #@! TO.C,R1*
X172720000Y-191770000D03*
D16*
X172720000Y-181610000D03*
G04 #@! TD*
G04 #@! TO.C,C7*
X146050000Y-175300000D03*
X146050000Y-177800000D03*
G04 #@! TD*
G04 #@! TO.C,C6*
X132080000Y-186730000D03*
X132080000Y-189230000D03*
G04 #@! TD*
G04 #@! TO.C,C5*
X127000000Y-186730000D03*
X127000000Y-189230000D03*
G04 #@! TD*
G04 #@! TO.C,C4*
X161290000Y-175300000D03*
X161290000Y-177800000D03*
G04 #@! TD*
G04 #@! TO.C,C3*
X137160000Y-186730000D03*
X137160000Y-189230000D03*
G04 #@! TD*
G04 #@! TO.C,C2*
X153670000Y-175300000D03*
X153670000Y-177800000D03*
G04 #@! TD*
G04 #@! TO.C,C1*
X168910000Y-175300000D03*
X168910000Y-177800000D03*
G04 #@! TD*
D24*
G04 #@! TO.C,D8*
X92800000Y-117780000D03*
X92800000Y-120980000D03*
X97700000Y-117780000D03*
X97700000Y-120980000D03*
G04 #@! TD*
G04 #@! TO.C,D7*
X82640000Y-117780000D03*
X82640000Y-120980000D03*
X87540000Y-117780000D03*
X87540000Y-120980000D03*
G04 #@! TD*
G04 #@! TO.C,D6*
X72480000Y-117780000D03*
X72480000Y-120980000D03*
X77380000Y-117780000D03*
X77380000Y-120980000D03*
G04 #@! TD*
G04 #@! TO.C,D5*
X62320000Y-117780000D03*
X62320000Y-120980000D03*
X67220000Y-117780000D03*
X67220000Y-120980000D03*
G04 #@! TD*
G04 #@! TO.C,D4*
X52160000Y-117780000D03*
X52160000Y-120980000D03*
X57060000Y-117780000D03*
X57060000Y-120980000D03*
G04 #@! TD*
G04 #@! TO.C,D3*
X42000000Y-117780000D03*
X42000000Y-120980000D03*
X46900000Y-117780000D03*
X46900000Y-120980000D03*
G04 #@! TD*
G04 #@! TO.C,D2*
X31840000Y-117780000D03*
X31840000Y-120980000D03*
X36740000Y-117780000D03*
X36740000Y-120980000D03*
G04 #@! TD*
G04 #@! TO.C,D1*
X21680000Y-117780000D03*
X21680000Y-120980000D03*
X26580000Y-117780000D03*
X26580000Y-120980000D03*
G04 #@! TD*
D12*
G04 #@! TO.C,A1*
X39370000Y-190500000D03*
X24130000Y-190500000D03*
X39370000Y-154940000D03*
X24130000Y-187960000D03*
X39370000Y-157480000D03*
X24130000Y-185420000D03*
X39370000Y-160020000D03*
X24130000Y-182880000D03*
X39370000Y-162560000D03*
X24130000Y-180340000D03*
X39370000Y-165100000D03*
X24130000Y-177800000D03*
X39370000Y-167640000D03*
X24130000Y-175260000D03*
X39370000Y-170180000D03*
X24130000Y-172720000D03*
X39370000Y-172720000D03*
X24130000Y-170180000D03*
X39370000Y-175260000D03*
X24130000Y-167640000D03*
X39370000Y-177800000D03*
X24130000Y-165100000D03*
X39370000Y-180340000D03*
X24130000Y-162560000D03*
X39370000Y-182880000D03*
X24130000Y-160020000D03*
X39370000Y-185420000D03*
X24130000Y-157480000D03*
X39370000Y-187960000D03*
D13*
X24130000Y-154940000D03*
G04 #@! TD*
M02*
