G04 #@! TF.GenerationSoftware,KiCad,Pcbnew,(5.1.6)-1*
G04 #@! TF.CreationDate,2020-05-23T11:28:19-07:00*
G04 #@! TF.ProjectId,NanoDemo,4e616e6f-4465-46d6-9f2e-6b696361645f,rev?*
G04 #@! TF.SameCoordinates,Original*
G04 #@! TF.FileFunction,Legend,Top*
G04 #@! TF.FilePolarity,Positive*
%FSLAX46Y46*%
G04 Gerber Fmt 4.6, Leading zero omitted, Abs format (unit mm)*
G04 Created by KiCad (PCBNEW (5.1.6)-1) date 2020-05-23 11:28:19*
%MOMM*%
%LPD*%
G01*
G04 APERTURE LIST*
%ADD10C,0.300000*%
%ADD11C,0.150000*%
%ADD12C,0.120000*%
G04 APERTURE END LIST*
D10*
X46335714Y-177994571D02*
X46835714Y-179494571D01*
X47335714Y-177994571D01*
X48978571Y-179494571D02*
X48978571Y-177994571D01*
X49335714Y-177994571D01*
X49550000Y-178066000D01*
X49692857Y-178208857D01*
X49764285Y-178351714D01*
X49835714Y-178637428D01*
X49835714Y-178851714D01*
X49764285Y-179137428D01*
X49692857Y-179280285D01*
X49550000Y-179423142D01*
X49335714Y-179494571D01*
X48978571Y-179494571D01*
X52478571Y-179351714D02*
X52407142Y-179423142D01*
X52192857Y-179494571D01*
X52050000Y-179494571D01*
X51835714Y-179423142D01*
X51692857Y-179280285D01*
X51621428Y-179137428D01*
X51550000Y-178851714D01*
X51550000Y-178637428D01*
X51621428Y-178351714D01*
X51692857Y-178208857D01*
X51835714Y-178066000D01*
X52050000Y-177994571D01*
X52192857Y-177994571D01*
X52407142Y-178066000D01*
X52478571Y-178137428D01*
X55050000Y-178066000D02*
X54907142Y-177994571D01*
X54692857Y-177994571D01*
X54478571Y-178066000D01*
X54335714Y-178208857D01*
X54264285Y-178351714D01*
X54192857Y-178637428D01*
X54192857Y-178851714D01*
X54264285Y-179137428D01*
X54335714Y-179280285D01*
X54478571Y-179423142D01*
X54692857Y-179494571D01*
X54835714Y-179494571D01*
X55050000Y-179423142D01*
X55121428Y-179351714D01*
X55121428Y-178851714D01*
X54835714Y-178851714D01*
D11*
X205812380Y-127523333D02*
X204812380Y-127523333D01*
X205812380Y-126951904D01*
X204812380Y-126951904D01*
X205812380Y-126047142D02*
X205288571Y-126047142D01*
X205193333Y-126094761D01*
X205145714Y-126190000D01*
X205145714Y-126380476D01*
X205193333Y-126475714D01*
X205764761Y-126047142D02*
X205812380Y-126142380D01*
X205812380Y-126380476D01*
X205764761Y-126475714D01*
X205669523Y-126523333D01*
X205574285Y-126523333D01*
X205479047Y-126475714D01*
X205431428Y-126380476D01*
X205431428Y-126142380D01*
X205383809Y-126047142D01*
X205145714Y-125570952D02*
X205812380Y-125570952D01*
X205240952Y-125570952D02*
X205193333Y-125523333D01*
X205145714Y-125428095D01*
X205145714Y-125285238D01*
X205193333Y-125190000D01*
X205288571Y-125142380D01*
X205812380Y-125142380D01*
X205812380Y-124523333D02*
X205764761Y-124618571D01*
X205717142Y-124666190D01*
X205621904Y-124713809D01*
X205336190Y-124713809D01*
X205240952Y-124666190D01*
X205193333Y-124618571D01*
X205145714Y-124523333D01*
X205145714Y-124380476D01*
X205193333Y-124285238D01*
X205240952Y-124237619D01*
X205336190Y-124190000D01*
X205621904Y-124190000D01*
X205717142Y-124237619D01*
X205764761Y-124285238D01*
X205812380Y-124380476D01*
X205812380Y-124523333D01*
X205764761Y-123047142D02*
X205812380Y-122904285D01*
X205812380Y-122666190D01*
X205764761Y-122570952D01*
X205717142Y-122523333D01*
X205621904Y-122475714D01*
X205526666Y-122475714D01*
X205431428Y-122523333D01*
X205383809Y-122570952D01*
X205336190Y-122666190D01*
X205288571Y-122856666D01*
X205240952Y-122951904D01*
X205193333Y-122999523D01*
X205098095Y-123047142D01*
X205002857Y-123047142D01*
X204907619Y-122999523D01*
X204860000Y-122951904D01*
X204812380Y-122856666D01*
X204812380Y-122618571D01*
X204860000Y-122475714D01*
X205812380Y-122047142D02*
X204812380Y-122047142D01*
X205812380Y-121618571D02*
X205288571Y-121618571D01*
X205193333Y-121666190D01*
X205145714Y-121761428D01*
X205145714Y-121904285D01*
X205193333Y-121999523D01*
X205240952Y-122047142D01*
X205812380Y-121142380D02*
X205145714Y-121142380D01*
X204812380Y-121142380D02*
X204860000Y-121190000D01*
X204907619Y-121142380D01*
X204860000Y-121094761D01*
X204812380Y-121142380D01*
X204907619Y-121142380D01*
X205764761Y-120285238D02*
X205812380Y-120380476D01*
X205812380Y-120570952D01*
X205764761Y-120666190D01*
X205669523Y-120713809D01*
X205288571Y-120713809D01*
X205193333Y-120666190D01*
X205145714Y-120570952D01*
X205145714Y-120380476D01*
X205193333Y-120285238D01*
X205288571Y-120237619D01*
X205383809Y-120237619D01*
X205479047Y-120713809D01*
X205812380Y-119666190D02*
X205764761Y-119761428D01*
X205669523Y-119809047D01*
X204812380Y-119809047D01*
X205812380Y-118856666D02*
X204812380Y-118856666D01*
X205764761Y-118856666D02*
X205812380Y-118951904D01*
X205812380Y-119142380D01*
X205764761Y-119237619D01*
X205717142Y-119285238D01*
X205621904Y-119332857D01*
X205336190Y-119332857D01*
X205240952Y-119285238D01*
X205193333Y-119237619D01*
X205145714Y-119142380D01*
X205145714Y-118951904D01*
X205193333Y-118856666D01*
X207462380Y-125261428D02*
X206986190Y-125594761D01*
X207462380Y-125832857D02*
X206462380Y-125832857D01*
X206462380Y-125451904D01*
X206510000Y-125356666D01*
X206557619Y-125309047D01*
X206652857Y-125261428D01*
X206795714Y-125261428D01*
X206890952Y-125309047D01*
X206938571Y-125356666D01*
X206986190Y-125451904D01*
X206986190Y-125832857D01*
X207414761Y-124451904D02*
X207462380Y-124547142D01*
X207462380Y-124737619D01*
X207414761Y-124832857D01*
X207319523Y-124880476D01*
X206938571Y-124880476D01*
X206843333Y-124832857D01*
X206795714Y-124737619D01*
X206795714Y-124547142D01*
X206843333Y-124451904D01*
X206938571Y-124404285D01*
X207033809Y-124404285D01*
X207129047Y-124880476D01*
X206795714Y-124070952D02*
X207462380Y-123832857D01*
X206795714Y-123594761D01*
X207367142Y-123213809D02*
X207414761Y-123166190D01*
X207462380Y-123213809D01*
X207414761Y-123261428D01*
X207367142Y-123213809D01*
X207462380Y-123213809D01*
X206462380Y-121785238D02*
X206462380Y-121690000D01*
X206510000Y-121594761D01*
X206557619Y-121547142D01*
X206652857Y-121499523D01*
X206843333Y-121451904D01*
X207081428Y-121451904D01*
X207271904Y-121499523D01*
X207367142Y-121547142D01*
X207414761Y-121594761D01*
X207462380Y-121690000D01*
X207462380Y-121785238D01*
X207414761Y-121880476D01*
X207367142Y-121928095D01*
X207271904Y-121975714D01*
X207081428Y-122023333D01*
X206843333Y-122023333D01*
X206652857Y-121975714D01*
X206557619Y-121928095D01*
X206510000Y-121880476D01*
X206462380Y-121785238D01*
X207462380Y-120499523D02*
X207462380Y-121070952D01*
X207462380Y-120785238D02*
X206462380Y-120785238D01*
X206605238Y-120880476D01*
X206700476Y-120975714D01*
X206748095Y-121070952D01*
X208112380Y-127951904D02*
X208112380Y-127285238D01*
X209112380Y-127951904D01*
X209112380Y-127285238D01*
X209112380Y-126475714D02*
X208588571Y-126475714D01*
X208493333Y-126523333D01*
X208445714Y-126618571D01*
X208445714Y-126809047D01*
X208493333Y-126904285D01*
X209064761Y-126475714D02*
X209112380Y-126570952D01*
X209112380Y-126809047D01*
X209064761Y-126904285D01*
X208969523Y-126951904D01*
X208874285Y-126951904D01*
X208779047Y-126904285D01*
X208731428Y-126809047D01*
X208731428Y-126570952D01*
X208683809Y-126475714D01*
X209064761Y-125570952D02*
X209112380Y-125666190D01*
X209112380Y-125856666D01*
X209064761Y-125951904D01*
X209017142Y-125999523D01*
X208921904Y-126047142D01*
X208636190Y-126047142D01*
X208540952Y-125999523D01*
X208493333Y-125951904D01*
X208445714Y-125856666D01*
X208445714Y-125666190D01*
X208493333Y-125570952D01*
X209112380Y-125142380D02*
X208112380Y-125142380D01*
X209112380Y-124713809D02*
X208588571Y-124713809D01*
X208493333Y-124761428D01*
X208445714Y-124856666D01*
X208445714Y-124999523D01*
X208493333Y-125094761D01*
X208540952Y-125142380D01*
X208588571Y-123475714D02*
X208588571Y-123142380D01*
X209112380Y-122999523D02*
X209112380Y-123475714D01*
X208112380Y-123475714D01*
X208112380Y-122999523D01*
X208445714Y-122570952D02*
X209112380Y-122570952D01*
X208540952Y-122570952D02*
X208493333Y-122523333D01*
X208445714Y-122428095D01*
X208445714Y-122285238D01*
X208493333Y-122190000D01*
X208588571Y-122142380D01*
X209112380Y-122142380D01*
X208445714Y-121237619D02*
X209255238Y-121237619D01*
X209350476Y-121285238D01*
X209398095Y-121332857D01*
X209445714Y-121428095D01*
X209445714Y-121570952D01*
X209398095Y-121666190D01*
X209064761Y-121237619D02*
X209112380Y-121332857D01*
X209112380Y-121523333D01*
X209064761Y-121618571D01*
X209017142Y-121666190D01*
X208921904Y-121713809D01*
X208636190Y-121713809D01*
X208540952Y-121666190D01*
X208493333Y-121618571D01*
X208445714Y-121523333D01*
X208445714Y-121332857D01*
X208493333Y-121237619D01*
X209112380Y-120618571D02*
X209064761Y-120713809D01*
X208969523Y-120761428D01*
X208112380Y-120761428D01*
X209112380Y-120237619D02*
X208445714Y-120237619D01*
X208112380Y-120237619D02*
X208160000Y-120285238D01*
X208207619Y-120237619D01*
X208160000Y-120190000D01*
X208112380Y-120237619D01*
X208207619Y-120237619D01*
X209064761Y-119809047D02*
X209112380Y-119713809D01*
X209112380Y-119523333D01*
X209064761Y-119428095D01*
X208969523Y-119380476D01*
X208921904Y-119380476D01*
X208826666Y-119428095D01*
X208779047Y-119523333D01*
X208779047Y-119666190D01*
X208731428Y-119761428D01*
X208636190Y-119809047D01*
X208588571Y-119809047D01*
X208493333Y-119761428D01*
X208445714Y-119666190D01*
X208445714Y-119523333D01*
X208493333Y-119428095D01*
X209112380Y-118951904D02*
X208112380Y-118951904D01*
X209112380Y-118523333D02*
X208588571Y-118523333D01*
X208493333Y-118570952D01*
X208445714Y-118666190D01*
X208445714Y-118809047D01*
X208493333Y-118904285D01*
X208540952Y-118951904D01*
D12*
G04 #@! TO.C,RV3*
X48628000Y-176478000D02*
X48628000Y-175058000D01*
X48828000Y-175058000D02*
X48828000Y-171478000D01*
X48828000Y-171478000D02*
X48628000Y-171478000D01*
X48628000Y-171478000D02*
X48628000Y-170058000D01*
X48628000Y-170058000D02*
X48828000Y-170058000D01*
X55848000Y-173778000D02*
X55848000Y-175268000D01*
X54538000Y-176578000D02*
X50998000Y-176578000D01*
X50558000Y-169958000D02*
X54538000Y-169958000D01*
X55848000Y-171268000D02*
X55848000Y-172758000D01*
X48828000Y-175058000D02*
X48628000Y-175058000D01*
X48628000Y-176478000D02*
X48828000Y-176478000D01*
X48828000Y-176478000D02*
X48828000Y-176578000D01*
X48828000Y-176578000D02*
X49078000Y-176578000D01*
X48828000Y-170058000D02*
X48828000Y-169958000D01*
X48828000Y-169958000D02*
X49518000Y-169958000D01*
X55848000Y-175268000D02*
G75*
G02*
X54538000Y-176578000I-1310000J0D01*
G01*
X54538000Y-169958000D02*
G75*
G02*
X55848000Y-171268000I0J-1310000D01*
G01*
G04 #@! TO.C,RV2*
X48628000Y-166826000D02*
X48628000Y-165406000D01*
X48828000Y-165406000D02*
X48828000Y-161826000D01*
X48828000Y-161826000D02*
X48628000Y-161826000D01*
X48628000Y-161826000D02*
X48628000Y-160406000D01*
X48628000Y-160406000D02*
X48828000Y-160406000D01*
X55848000Y-164126000D02*
X55848000Y-165616000D01*
X54538000Y-166926000D02*
X50998000Y-166926000D01*
X50558000Y-160306000D02*
X54538000Y-160306000D01*
X55848000Y-161616000D02*
X55848000Y-163106000D01*
X48828000Y-165406000D02*
X48628000Y-165406000D01*
X48628000Y-166826000D02*
X48828000Y-166826000D01*
X48828000Y-166826000D02*
X48828000Y-166926000D01*
X48828000Y-166926000D02*
X49078000Y-166926000D01*
X48828000Y-160406000D02*
X48828000Y-160306000D01*
X48828000Y-160306000D02*
X49518000Y-160306000D01*
X55848000Y-165616000D02*
G75*
G02*
X54538000Y-166926000I-1310000J0D01*
G01*
X54538000Y-160306000D02*
G75*
G02*
X55848000Y-161616000I0J-1310000D01*
G01*
G04 #@! TO.C,RV1*
X48628000Y-157936000D02*
X48628000Y-156516000D01*
X48828000Y-156516000D02*
X48828000Y-152936000D01*
X48828000Y-152936000D02*
X48628000Y-152936000D01*
X48628000Y-152936000D02*
X48628000Y-151516000D01*
X48628000Y-151516000D02*
X48828000Y-151516000D01*
X55848000Y-155236000D02*
X55848000Y-156726000D01*
X54538000Y-158036000D02*
X50998000Y-158036000D01*
X50558000Y-151416000D02*
X54538000Y-151416000D01*
X55848000Y-152726000D02*
X55848000Y-154216000D01*
X48828000Y-156516000D02*
X48628000Y-156516000D01*
X48628000Y-157936000D02*
X48828000Y-157936000D01*
X48828000Y-157936000D02*
X48828000Y-158036000D01*
X48828000Y-158036000D02*
X49078000Y-158036000D01*
X48828000Y-151516000D02*
X48828000Y-151416000D01*
X48828000Y-151416000D02*
X49518000Y-151416000D01*
X55848000Y-156726000D02*
G75*
G02*
X54538000Y-158036000I-1310000J0D01*
G01*
X54538000Y-151416000D02*
G75*
G02*
X55848000Y-152726000I0J-1310000D01*
G01*
G04 #@! TO.C,U1*
X136160000Y-149800000D02*
X134510000Y-149800000D01*
X134510000Y-149800000D02*
X134510000Y-167700000D01*
X134510000Y-167700000D02*
X139810000Y-167700000D01*
X139810000Y-167700000D02*
X139810000Y-149800000D01*
X139810000Y-149800000D02*
X138160000Y-149800000D01*
X138160000Y-149800000D02*
G75*
G02*
X136160000Y-149800000I-1000000J0D01*
G01*
G04 #@! TO.C,J5*
X159960000Y-116780000D02*
X159960000Y-119440000D01*
X167640000Y-116780000D02*
X159960000Y-116780000D01*
X167640000Y-119440000D02*
X159960000Y-119440000D01*
X167640000Y-116780000D02*
X167640000Y-119440000D01*
X168910000Y-116780000D02*
X170240000Y-116780000D01*
X170240000Y-116780000D02*
X170240000Y-118110000D01*
G04 #@! TO.C,U6*
X170755000Y-158005000D02*
X170755000Y-159655000D01*
X191195000Y-158005000D02*
X170755000Y-158005000D01*
X191195000Y-163305000D02*
X191195000Y-158005000D01*
X170755000Y-163305000D02*
X191195000Y-163305000D01*
X170755000Y-161655000D02*
X170755000Y-163305000D01*
X170755000Y-159655000D02*
G75*
G02*
X170755000Y-161655000I0J-1000000D01*
G01*
G04 #@! TO.C,R43*
X124460000Y-170410000D02*
X124460000Y-169640000D01*
X124460000Y-162330000D02*
X124460000Y-163100000D01*
X125830000Y-169640000D02*
X125830000Y-163100000D01*
X123090000Y-169640000D02*
X125830000Y-169640000D01*
X123090000Y-163100000D02*
X123090000Y-169640000D01*
X125830000Y-163100000D02*
X123090000Y-163100000D01*
G04 #@! TO.C,R42*
X119380000Y-170410000D02*
X119380000Y-169640000D01*
X119380000Y-162330000D02*
X119380000Y-163100000D01*
X120750000Y-169640000D02*
X120750000Y-163100000D01*
X118010000Y-169640000D02*
X120750000Y-169640000D01*
X118010000Y-163100000D02*
X118010000Y-169640000D01*
X120750000Y-163100000D02*
X118010000Y-163100000D01*
G04 #@! TO.C,R41*
X119380000Y-129310000D02*
X119380000Y-130080000D01*
X119380000Y-137390000D02*
X119380000Y-136620000D01*
X118010000Y-130080000D02*
X118010000Y-136620000D01*
X120750000Y-130080000D02*
X118010000Y-130080000D01*
X120750000Y-136620000D02*
X120750000Y-130080000D01*
X118010000Y-136620000D02*
X120750000Y-136620000D01*
G04 #@! TO.C,R40*
X114300000Y-170410000D02*
X114300000Y-169640000D01*
X114300000Y-162330000D02*
X114300000Y-163100000D01*
X115670000Y-169640000D02*
X115670000Y-163100000D01*
X112930000Y-169640000D02*
X115670000Y-169640000D01*
X112930000Y-163100000D02*
X112930000Y-169640000D01*
X115670000Y-163100000D02*
X112930000Y-163100000D01*
G04 #@! TO.C,R39*
X116840000Y-170410000D02*
X116840000Y-169640000D01*
X116840000Y-162330000D02*
X116840000Y-163100000D01*
X118210000Y-169640000D02*
X118210000Y-163100000D01*
X115470000Y-169640000D02*
X118210000Y-169640000D01*
X115470000Y-163100000D02*
X115470000Y-169640000D01*
X118210000Y-163100000D02*
X115470000Y-163100000D01*
G04 #@! TO.C,R38*
X121920000Y-170410000D02*
X121920000Y-169640000D01*
X121920000Y-162330000D02*
X121920000Y-163100000D01*
X123290000Y-169640000D02*
X123290000Y-163100000D01*
X120550000Y-169640000D02*
X123290000Y-169640000D01*
X120550000Y-163100000D02*
X120550000Y-169640000D01*
X123290000Y-163100000D02*
X120550000Y-163100000D01*
G04 #@! TO.C,R37*
X124460000Y-129310000D02*
X124460000Y-130080000D01*
X124460000Y-137390000D02*
X124460000Y-136620000D01*
X123090000Y-130080000D02*
X123090000Y-136620000D01*
X125830000Y-130080000D02*
X123090000Y-130080000D01*
X125830000Y-136620000D02*
X125830000Y-130080000D01*
X123090000Y-136620000D02*
X125830000Y-136620000D01*
G04 #@! TO.C,R36*
X121920000Y-129310000D02*
X121920000Y-130080000D01*
X121920000Y-137390000D02*
X121920000Y-136620000D01*
X120550000Y-130080000D02*
X120550000Y-136620000D01*
X123290000Y-130080000D02*
X120550000Y-130080000D01*
X123290000Y-136620000D02*
X123290000Y-130080000D01*
X120550000Y-136620000D02*
X123290000Y-136620000D01*
G04 #@! TO.C,R35*
X111760000Y-170410000D02*
X111760000Y-169640000D01*
X111760000Y-162330000D02*
X111760000Y-163100000D01*
X113130000Y-169640000D02*
X113130000Y-163100000D01*
X110390000Y-169640000D02*
X113130000Y-169640000D01*
X110390000Y-163100000D02*
X110390000Y-169640000D01*
X113130000Y-163100000D02*
X110390000Y-163100000D01*
G04 #@! TO.C,R34*
X106680000Y-129310000D02*
X106680000Y-130080000D01*
X106680000Y-137390000D02*
X106680000Y-136620000D01*
X105310000Y-130080000D02*
X105310000Y-136620000D01*
X108050000Y-130080000D02*
X105310000Y-130080000D01*
X108050000Y-136620000D02*
X108050000Y-130080000D01*
X105310000Y-136620000D02*
X108050000Y-136620000D01*
G04 #@! TO.C,R33*
X104140000Y-129310000D02*
X104140000Y-130080000D01*
X104140000Y-137390000D02*
X104140000Y-136620000D01*
X102770000Y-130080000D02*
X102770000Y-136620000D01*
X105510000Y-130080000D02*
X102770000Y-130080000D01*
X105510000Y-136620000D02*
X105510000Y-130080000D01*
X102770000Y-136620000D02*
X105510000Y-136620000D01*
G04 #@! TO.C,R32*
X104140000Y-170410000D02*
X104140000Y-169640000D01*
X104140000Y-162330000D02*
X104140000Y-163100000D01*
X105510000Y-169640000D02*
X105510000Y-163100000D01*
X102770000Y-169640000D02*
X105510000Y-169640000D01*
X102770000Y-163100000D02*
X102770000Y-169640000D01*
X105510000Y-163100000D02*
X102770000Y-163100000D01*
G04 #@! TO.C,R31*
X106680000Y-170410000D02*
X106680000Y-169640000D01*
X106680000Y-162330000D02*
X106680000Y-163100000D01*
X108050000Y-169640000D02*
X108050000Y-163100000D01*
X105310000Y-169640000D02*
X108050000Y-169640000D01*
X105310000Y-163100000D02*
X105310000Y-169640000D01*
X108050000Y-163100000D02*
X105310000Y-163100000D01*
G04 #@! TO.C,R30*
X109220000Y-170410000D02*
X109220000Y-169640000D01*
X109220000Y-162330000D02*
X109220000Y-163100000D01*
X110590000Y-169640000D02*
X110590000Y-163100000D01*
X107850000Y-169640000D02*
X110590000Y-169640000D01*
X107850000Y-163100000D02*
X107850000Y-169640000D01*
X110590000Y-163100000D02*
X107850000Y-163100000D01*
G04 #@! TO.C,R29*
X111760000Y-129310000D02*
X111760000Y-130080000D01*
X111760000Y-137390000D02*
X111760000Y-136620000D01*
X110390000Y-130080000D02*
X110390000Y-136620000D01*
X113130000Y-130080000D02*
X110390000Y-130080000D01*
X113130000Y-136620000D02*
X113130000Y-130080000D01*
X110390000Y-136620000D02*
X113130000Y-136620000D01*
G04 #@! TO.C,R28*
X109220000Y-129310000D02*
X109220000Y-130080000D01*
X109220000Y-137390000D02*
X109220000Y-136620000D01*
X107850000Y-130080000D02*
X107850000Y-136620000D01*
X110590000Y-130080000D02*
X107850000Y-130080000D01*
X110590000Y-136620000D02*
X110590000Y-130080000D01*
X107850000Y-136620000D02*
X110590000Y-136620000D01*
G04 #@! TO.C,J4*
X55940000Y-182960000D02*
X55940000Y-180300000D01*
X48260000Y-182960000D02*
X55940000Y-182960000D01*
X48260000Y-180300000D02*
X55940000Y-180300000D01*
X48260000Y-182960000D02*
X48260000Y-180300000D01*
X46990000Y-182960000D02*
X45660000Y-182960000D01*
X45660000Y-182960000D02*
X45660000Y-181630000D01*
G04 #@! TO.C,J3*
X55940000Y-187610000D02*
X55940000Y-184950000D01*
X48260000Y-187610000D02*
X55940000Y-187610000D01*
X48260000Y-184950000D02*
X55940000Y-184950000D01*
X48260000Y-187610000D02*
X48260000Y-184950000D01*
X46990000Y-187610000D02*
X45660000Y-187610000D01*
X45660000Y-187610000D02*
X45660000Y-186280000D01*
G04 #@! TO.C,J2*
X55940000Y-192260000D02*
X55940000Y-189600000D01*
X48260000Y-192260000D02*
X55940000Y-192260000D01*
X48260000Y-189600000D02*
X55940000Y-189600000D01*
X48260000Y-192260000D02*
X48260000Y-189600000D01*
X46990000Y-192260000D02*
X45660000Y-192260000D01*
X45660000Y-192260000D02*
X45660000Y-190930000D01*
G04 #@! TO.C,J1*
X55940000Y-196910000D02*
X55940000Y-194250000D01*
X48260000Y-196910000D02*
X55940000Y-196910000D01*
X48260000Y-194250000D02*
X55940000Y-194250000D01*
X48260000Y-196910000D02*
X48260000Y-194250000D01*
X46990000Y-196910000D02*
X45660000Y-196910000D01*
X45660000Y-196910000D02*
X45660000Y-195580000D01*
G04 #@! TO.C,U5*
X86420000Y-157590000D02*
X86420000Y-155940000D01*
X63440000Y-157590000D02*
X86420000Y-157590000D01*
X63440000Y-152290000D02*
X63440000Y-157590000D01*
X86420000Y-152290000D02*
X63440000Y-152290000D01*
X86420000Y-153940000D02*
X86420000Y-152290000D01*
X86420000Y-155940000D02*
G75*
G02*
X86420000Y-153940000I0J1000000D01*
G01*
G04 #@! TO.C,R27*
X87630000Y-175490000D02*
X87630000Y-174720000D01*
X87630000Y-167410000D02*
X87630000Y-168180000D01*
X89000000Y-174720000D02*
X89000000Y-168180000D01*
X86260000Y-174720000D02*
X89000000Y-174720000D01*
X86260000Y-168180000D02*
X86260000Y-174720000D01*
X89000000Y-168180000D02*
X86260000Y-168180000D01*
G04 #@! TO.C,R26*
X83820000Y-175490000D02*
X83820000Y-174720000D01*
X83820000Y-167410000D02*
X83820000Y-168180000D01*
X85190000Y-174720000D02*
X85190000Y-168180000D01*
X82450000Y-174720000D02*
X85190000Y-174720000D01*
X82450000Y-168180000D02*
X82450000Y-174720000D01*
X85190000Y-168180000D02*
X82450000Y-168180000D01*
G04 #@! TO.C,R25*
X80010000Y-175490000D02*
X80010000Y-174720000D01*
X80010000Y-167410000D02*
X80010000Y-168180000D01*
X81380000Y-174720000D02*
X81380000Y-168180000D01*
X78640000Y-174720000D02*
X81380000Y-174720000D01*
X78640000Y-168180000D02*
X78640000Y-174720000D01*
X81380000Y-168180000D02*
X78640000Y-168180000D01*
G04 #@! TO.C,R24*
X76200000Y-175490000D02*
X76200000Y-174720000D01*
X76200000Y-167410000D02*
X76200000Y-168180000D01*
X77570000Y-174720000D02*
X77570000Y-168180000D01*
X74830000Y-174720000D02*
X77570000Y-174720000D01*
X74830000Y-168180000D02*
X74830000Y-174720000D01*
X77570000Y-168180000D02*
X74830000Y-168180000D01*
G04 #@! TO.C,R23*
X72390000Y-175490000D02*
X72390000Y-174720000D01*
X72390000Y-167410000D02*
X72390000Y-168180000D01*
X73760000Y-174720000D02*
X73760000Y-168180000D01*
X71020000Y-174720000D02*
X73760000Y-174720000D01*
X71020000Y-168180000D02*
X71020000Y-174720000D01*
X73760000Y-168180000D02*
X71020000Y-168180000D01*
G04 #@! TO.C,R22*
X68580000Y-175490000D02*
X68580000Y-174720000D01*
X68580000Y-167410000D02*
X68580000Y-168180000D01*
X69950000Y-174720000D02*
X69950000Y-168180000D01*
X67210000Y-174720000D02*
X69950000Y-174720000D01*
X67210000Y-168180000D02*
X67210000Y-174720000D01*
X69950000Y-168180000D02*
X67210000Y-168180000D01*
G04 #@! TO.C,R21*
X64770000Y-175490000D02*
X64770000Y-174720000D01*
X64770000Y-167410000D02*
X64770000Y-168180000D01*
X66140000Y-174720000D02*
X66140000Y-168180000D01*
X63400000Y-174720000D02*
X66140000Y-174720000D01*
X63400000Y-168180000D02*
X63400000Y-174720000D01*
X66140000Y-168180000D02*
X63400000Y-168180000D01*
G04 #@! TO.C,R20*
X60960000Y-175490000D02*
X60960000Y-174720000D01*
X60960000Y-167410000D02*
X60960000Y-168180000D01*
X62330000Y-174720000D02*
X62330000Y-168180000D01*
X59590000Y-174720000D02*
X62330000Y-174720000D01*
X59590000Y-168180000D02*
X59590000Y-174720000D01*
X62330000Y-168180000D02*
X59590000Y-168180000D01*
G04 #@! TO.C,R19*
X24130000Y-134390000D02*
X24130000Y-135160000D01*
X24130000Y-142470000D02*
X24130000Y-141700000D01*
X22760000Y-135160000D02*
X22760000Y-141700000D01*
X25500000Y-135160000D02*
X22760000Y-135160000D01*
X25500000Y-141700000D02*
X25500000Y-135160000D01*
X22760000Y-141700000D02*
X25500000Y-141700000D01*
G04 #@! TO.C,R18*
X95250000Y-134390000D02*
X95250000Y-135160000D01*
X95250000Y-142470000D02*
X95250000Y-141700000D01*
X93880000Y-135160000D02*
X93880000Y-141700000D01*
X96620000Y-135160000D02*
X93880000Y-135160000D01*
X96620000Y-141700000D02*
X96620000Y-135160000D01*
X93880000Y-141700000D02*
X96620000Y-141700000D01*
G04 #@! TO.C,R17*
X85090000Y-134390000D02*
X85090000Y-135160000D01*
X85090000Y-142470000D02*
X85090000Y-141700000D01*
X83720000Y-135160000D02*
X83720000Y-141700000D01*
X86460000Y-135160000D02*
X83720000Y-135160000D01*
X86460000Y-141700000D02*
X86460000Y-135160000D01*
X83720000Y-141700000D02*
X86460000Y-141700000D01*
G04 #@! TO.C,R16*
X74930000Y-134390000D02*
X74930000Y-135160000D01*
X74930000Y-142470000D02*
X74930000Y-141700000D01*
X73560000Y-135160000D02*
X73560000Y-141700000D01*
X76300000Y-135160000D02*
X73560000Y-135160000D01*
X76300000Y-141700000D02*
X76300000Y-135160000D01*
X73560000Y-141700000D02*
X76300000Y-141700000D01*
G04 #@! TO.C,R15*
X64770000Y-134390000D02*
X64770000Y-135160000D01*
X64770000Y-142470000D02*
X64770000Y-141700000D01*
X63400000Y-135160000D02*
X63400000Y-141700000D01*
X66140000Y-135160000D02*
X63400000Y-135160000D01*
X66140000Y-141700000D02*
X66140000Y-135160000D01*
X63400000Y-141700000D02*
X66140000Y-141700000D01*
G04 #@! TO.C,R14*
X54610000Y-134390000D02*
X54610000Y-135160000D01*
X54610000Y-142470000D02*
X54610000Y-141700000D01*
X53240000Y-135160000D02*
X53240000Y-141700000D01*
X55980000Y-135160000D02*
X53240000Y-135160000D01*
X55980000Y-141700000D02*
X55980000Y-135160000D01*
X53240000Y-141700000D02*
X55980000Y-141700000D01*
G04 #@! TO.C,R13*
X44450000Y-134390000D02*
X44450000Y-135160000D01*
X44450000Y-142470000D02*
X44450000Y-141700000D01*
X43080000Y-135160000D02*
X43080000Y-141700000D01*
X45820000Y-135160000D02*
X43080000Y-135160000D01*
X45820000Y-141700000D02*
X45820000Y-135160000D01*
X43080000Y-141700000D02*
X45820000Y-141700000D01*
G04 #@! TO.C,R12*
X34290000Y-134390000D02*
X34290000Y-135160000D01*
X34290000Y-142470000D02*
X34290000Y-141700000D01*
X32920000Y-135160000D02*
X32920000Y-141700000D01*
X35660000Y-135160000D02*
X32920000Y-135160000D01*
X35660000Y-141700000D02*
X35660000Y-135160000D01*
X32920000Y-141700000D02*
X35660000Y-141700000D01*
G04 #@! TO.C,DS1*
X126930000Y-159505000D02*
X101680000Y-159505000D01*
X126930000Y-140215000D02*
X126930000Y-159505000D01*
X101680000Y-140215000D02*
X126930000Y-140215000D01*
X101680000Y-159505000D02*
X101680000Y-140215000D01*
X101430000Y-159760000D02*
X104140000Y-159760000D01*
X101430000Y-159760000D02*
X101430000Y-157480000D01*
G04 #@! TO.C,D16*
X96330000Y-129830000D02*
X96486000Y-129830000D01*
X94014000Y-129830000D02*
X94170000Y-129830000D01*
X96329837Y-127228870D02*
G75*
G02*
X96330000Y-129310961I-1079837J-1041130D01*
G01*
X94170163Y-127228870D02*
G75*
G03*
X94170000Y-129310961I1079837J-1041130D01*
G01*
X96328608Y-126597665D02*
G75*
G02*
X96485516Y-129830000I-1078608J-1672335D01*
G01*
X94171392Y-126597665D02*
G75*
G03*
X94014484Y-129830000I1078608J-1672335D01*
G01*
G04 #@! TO.C,D15*
X86170000Y-129830000D02*
X86326000Y-129830000D01*
X83854000Y-129830000D02*
X84010000Y-129830000D01*
X86169837Y-127228870D02*
G75*
G02*
X86170000Y-129310961I-1079837J-1041130D01*
G01*
X84010163Y-127228870D02*
G75*
G03*
X84010000Y-129310961I1079837J-1041130D01*
G01*
X86168608Y-126597665D02*
G75*
G02*
X86325516Y-129830000I-1078608J-1672335D01*
G01*
X84011392Y-126597665D02*
G75*
G03*
X83854484Y-129830000I1078608J-1672335D01*
G01*
G04 #@! TO.C,D14*
X76010000Y-129830000D02*
X76166000Y-129830000D01*
X73694000Y-129830000D02*
X73850000Y-129830000D01*
X76009837Y-127228870D02*
G75*
G02*
X76010000Y-129310961I-1079837J-1041130D01*
G01*
X73850163Y-127228870D02*
G75*
G03*
X73850000Y-129310961I1079837J-1041130D01*
G01*
X76008608Y-126597665D02*
G75*
G02*
X76165516Y-129830000I-1078608J-1672335D01*
G01*
X73851392Y-126597665D02*
G75*
G03*
X73694484Y-129830000I1078608J-1672335D01*
G01*
G04 #@! TO.C,D13*
X65850000Y-129830000D02*
X66006000Y-129830000D01*
X63534000Y-129830000D02*
X63690000Y-129830000D01*
X65849837Y-127228870D02*
G75*
G02*
X65850000Y-129310961I-1079837J-1041130D01*
G01*
X63690163Y-127228870D02*
G75*
G03*
X63690000Y-129310961I1079837J-1041130D01*
G01*
X65848608Y-126597665D02*
G75*
G02*
X66005516Y-129830000I-1078608J-1672335D01*
G01*
X63691392Y-126597665D02*
G75*
G03*
X63534484Y-129830000I1078608J-1672335D01*
G01*
G04 #@! TO.C,D12*
X55690000Y-129830000D02*
X55846000Y-129830000D01*
X53374000Y-129830000D02*
X53530000Y-129830000D01*
X55689837Y-127228870D02*
G75*
G02*
X55690000Y-129310961I-1079837J-1041130D01*
G01*
X53530163Y-127228870D02*
G75*
G03*
X53530000Y-129310961I1079837J-1041130D01*
G01*
X55688608Y-126597665D02*
G75*
G02*
X55845516Y-129830000I-1078608J-1672335D01*
G01*
X53531392Y-126597665D02*
G75*
G03*
X53374484Y-129830000I1078608J-1672335D01*
G01*
G04 #@! TO.C,D11*
X45530000Y-129830000D02*
X45686000Y-129830000D01*
X43214000Y-129830000D02*
X43370000Y-129830000D01*
X45529837Y-127228870D02*
G75*
G02*
X45530000Y-129310961I-1079837J-1041130D01*
G01*
X43370163Y-127228870D02*
G75*
G03*
X43370000Y-129310961I1079837J-1041130D01*
G01*
X45528608Y-126597665D02*
G75*
G02*
X45685516Y-129830000I-1078608J-1672335D01*
G01*
X43371392Y-126597665D02*
G75*
G03*
X43214484Y-129830000I1078608J-1672335D01*
G01*
G04 #@! TO.C,D10*
X35370000Y-129830000D02*
X35526000Y-129830000D01*
X33054000Y-129830000D02*
X33210000Y-129830000D01*
X35369837Y-127228870D02*
G75*
G02*
X35370000Y-129310961I-1079837J-1041130D01*
G01*
X33210163Y-127228870D02*
G75*
G03*
X33210000Y-129310961I1079837J-1041130D01*
G01*
X35368608Y-126597665D02*
G75*
G02*
X35525516Y-129830000I-1078608J-1672335D01*
G01*
X33211392Y-126597665D02*
G75*
G03*
X33054484Y-129830000I1078608J-1672335D01*
G01*
G04 #@! TO.C,SW4*
X112410000Y-185380000D02*
X113410000Y-185380000D01*
X112910000Y-184880000D02*
X112910000Y-185880000D01*
X119010000Y-188680000D02*
X119010000Y-191280000D01*
X119010000Y-184080000D02*
X119010000Y-186680000D01*
X119010000Y-179480000D02*
X119010000Y-182080000D01*
X105710000Y-181280000D02*
X105410000Y-181580000D01*
X105110000Y-181280000D02*
X105710000Y-181280000D01*
X105410000Y-181580000D02*
X105110000Y-181280000D01*
X106810000Y-179580000D02*
X106810000Y-191280000D01*
X110910000Y-179580000D02*
X106810000Y-179580000D01*
X110910000Y-191280000D02*
X106810000Y-191280000D01*
X119010000Y-191280000D02*
X114910000Y-191280000D01*
X114910000Y-179480000D02*
X119010000Y-179480000D01*
X115910000Y-185380000D02*
G75*
G03*
X115910000Y-185380000I-3000000J0D01*
G01*
G04 #@! TO.C,D9*
X25210000Y-129830000D02*
X25366000Y-129830000D01*
X22894000Y-129830000D02*
X23050000Y-129830000D01*
X25209837Y-127228870D02*
G75*
G02*
X25210000Y-129310961I-1079837J-1041130D01*
G01*
X23050163Y-127228870D02*
G75*
G03*
X23050000Y-129310961I1079837J-1041130D01*
G01*
X25208608Y-126597665D02*
G75*
G02*
X25365516Y-129830000I-1078608J-1672335D01*
G01*
X23051392Y-126597665D02*
G75*
G03*
X22894484Y-129830000I1078608J-1672335D01*
G01*
G04 #@! TO.C,U4*
X167065000Y-163305000D02*
X167065000Y-161655000D01*
X146625000Y-163305000D02*
X167065000Y-163305000D01*
X146625000Y-158005000D02*
X146625000Y-163305000D01*
X167065000Y-158005000D02*
X146625000Y-158005000D01*
X167065000Y-159655000D02*
X167065000Y-158005000D01*
X167065000Y-161655000D02*
G75*
G02*
X167065000Y-159655000I0J1000000D01*
G01*
G04 #@! TO.C,U2*
X83880000Y-191880000D02*
X83880000Y-190230000D01*
X63440000Y-191880000D02*
X83880000Y-191880000D01*
X63440000Y-186580000D02*
X63440000Y-191880000D01*
X83880000Y-186580000D02*
X63440000Y-186580000D01*
X83880000Y-188230000D02*
X83880000Y-186580000D01*
X83880000Y-190230000D02*
G75*
G02*
X83880000Y-188230000I0J1000000D01*
G01*
G04 #@! TO.C,SW1*
X182610000Y-185840000D02*
X187110000Y-185840000D01*
X181360000Y-181840000D02*
X181360000Y-183340000D01*
X187110000Y-179340000D02*
X182610000Y-179340000D01*
X188360000Y-183340000D02*
X188360000Y-181840000D01*
G04 #@! TO.C,SW5*
X192770000Y-194730000D02*
X197270000Y-194730000D01*
X191520000Y-190730000D02*
X191520000Y-192230000D01*
X197270000Y-188230000D02*
X192770000Y-188230000D01*
X198520000Y-192230000D02*
X198520000Y-190730000D01*
G04 #@! TO.C,SW3*
X192770000Y-176950000D02*
X197270000Y-176950000D01*
X191520000Y-172950000D02*
X191520000Y-174450000D01*
X197270000Y-170450000D02*
X192770000Y-170450000D01*
X198520000Y-174450000D02*
X198520000Y-172950000D01*
G04 #@! TO.C,SW2*
X202930000Y-185840000D02*
X207430000Y-185840000D01*
X201680000Y-181840000D02*
X201680000Y-183340000D01*
X207430000Y-179340000D02*
X202930000Y-179340000D01*
X208680000Y-183340000D02*
X208680000Y-181840000D01*
G04 #@! TO.C,R11*
X144680000Y-189960000D02*
X147420000Y-189960000D01*
X147420000Y-189960000D02*
X147420000Y-183420000D01*
X147420000Y-183420000D02*
X144680000Y-183420000D01*
X144680000Y-183420000D02*
X144680000Y-189960000D01*
X146050000Y-190730000D02*
X146050000Y-189960000D01*
X146050000Y-182650000D02*
X146050000Y-183420000D01*
G04 #@! TO.C,R10*
X135350000Y-184250000D02*
X135350000Y-181510000D01*
X135350000Y-181510000D02*
X128810000Y-181510000D01*
X128810000Y-181510000D02*
X128810000Y-184250000D01*
X128810000Y-184250000D02*
X135350000Y-184250000D01*
X136120000Y-182880000D02*
X135350000Y-182880000D01*
X128040000Y-182880000D02*
X128810000Y-182880000D01*
G04 #@! TO.C,R9*
X151230000Y-183420000D02*
X148490000Y-183420000D01*
X148490000Y-183420000D02*
X148490000Y-189960000D01*
X148490000Y-189960000D02*
X151230000Y-189960000D01*
X151230000Y-189960000D02*
X151230000Y-183420000D01*
X149860000Y-182650000D02*
X149860000Y-183420000D01*
X149860000Y-190730000D02*
X149860000Y-189960000D01*
G04 #@! TO.C,R8*
X135350000Y-194410000D02*
X135350000Y-191670000D01*
X135350000Y-191670000D02*
X128810000Y-191670000D01*
X128810000Y-191670000D02*
X128810000Y-194410000D01*
X128810000Y-194410000D02*
X135350000Y-194410000D01*
X136120000Y-193040000D02*
X135350000Y-193040000D01*
X128040000Y-193040000D02*
X128810000Y-193040000D01*
G04 #@! TO.C,R7*
X159920000Y-189960000D02*
X162660000Y-189960000D01*
X162660000Y-189960000D02*
X162660000Y-183420000D01*
X162660000Y-183420000D02*
X159920000Y-183420000D01*
X159920000Y-183420000D02*
X159920000Y-189960000D01*
X161290000Y-190730000D02*
X161290000Y-189960000D01*
X161290000Y-182650000D02*
X161290000Y-183420000D01*
G04 #@! TO.C,R6*
X166470000Y-183420000D02*
X163730000Y-183420000D01*
X163730000Y-183420000D02*
X163730000Y-189960000D01*
X163730000Y-189960000D02*
X166470000Y-189960000D01*
X166470000Y-189960000D02*
X166470000Y-183420000D01*
X165100000Y-182650000D02*
X165100000Y-183420000D01*
X165100000Y-190730000D02*
X165100000Y-189960000D01*
G04 #@! TO.C,R5*
X135350000Y-180440000D02*
X135350000Y-177700000D01*
X135350000Y-177700000D02*
X128810000Y-177700000D01*
X128810000Y-177700000D02*
X128810000Y-180440000D01*
X128810000Y-180440000D02*
X135350000Y-180440000D01*
X136120000Y-179070000D02*
X135350000Y-179070000D01*
X128040000Y-179070000D02*
X128810000Y-179070000D01*
G04 #@! TO.C,R4*
X152300000Y-189960000D02*
X155040000Y-189960000D01*
X155040000Y-189960000D02*
X155040000Y-183420000D01*
X155040000Y-183420000D02*
X152300000Y-183420000D01*
X152300000Y-183420000D02*
X152300000Y-189960000D01*
X153670000Y-190730000D02*
X153670000Y-189960000D01*
X153670000Y-182650000D02*
X153670000Y-183420000D01*
G04 #@! TO.C,R3*
X158850000Y-183420000D02*
X156110000Y-183420000D01*
X156110000Y-183420000D02*
X156110000Y-189960000D01*
X156110000Y-189960000D02*
X158850000Y-189960000D01*
X158850000Y-189960000D02*
X158850000Y-183420000D01*
X157480000Y-182650000D02*
X157480000Y-183420000D01*
X157480000Y-190730000D02*
X157480000Y-189960000D01*
G04 #@! TO.C,R2*
X167540000Y-189960000D02*
X170280000Y-189960000D01*
X170280000Y-189960000D02*
X170280000Y-183420000D01*
X170280000Y-183420000D02*
X167540000Y-183420000D01*
X167540000Y-183420000D02*
X167540000Y-189960000D01*
X168910000Y-190730000D02*
X168910000Y-189960000D01*
X168910000Y-182650000D02*
X168910000Y-183420000D01*
G04 #@! TO.C,R1*
X174090000Y-183420000D02*
X171350000Y-183420000D01*
X171350000Y-183420000D02*
X171350000Y-189960000D01*
X171350000Y-189960000D02*
X174090000Y-189960000D01*
X174090000Y-189960000D02*
X174090000Y-183420000D01*
X172720000Y-182650000D02*
X172720000Y-183420000D01*
X172720000Y-190730000D02*
X172720000Y-189960000D01*
G04 #@! TO.C,C7*
X144930000Y-178170000D02*
X144930000Y-174930000D01*
X147170000Y-178170000D02*
X147170000Y-174930000D01*
X144930000Y-178170000D02*
X144995000Y-178170000D01*
X147105000Y-178170000D02*
X147170000Y-178170000D01*
X144930000Y-174930000D02*
X144995000Y-174930000D01*
X147105000Y-174930000D02*
X147170000Y-174930000D01*
G04 #@! TO.C,C6*
X130960000Y-189600000D02*
X130960000Y-186360000D01*
X133200000Y-189600000D02*
X133200000Y-186360000D01*
X130960000Y-189600000D02*
X131025000Y-189600000D01*
X133135000Y-189600000D02*
X133200000Y-189600000D01*
X130960000Y-186360000D02*
X131025000Y-186360000D01*
X133135000Y-186360000D02*
X133200000Y-186360000D01*
G04 #@! TO.C,C5*
X125880000Y-189600000D02*
X125880000Y-186360000D01*
X128120000Y-189600000D02*
X128120000Y-186360000D01*
X125880000Y-189600000D02*
X125945000Y-189600000D01*
X128055000Y-189600000D02*
X128120000Y-189600000D01*
X125880000Y-186360000D02*
X125945000Y-186360000D01*
X128055000Y-186360000D02*
X128120000Y-186360000D01*
G04 #@! TO.C,C4*
X160170000Y-178170000D02*
X160170000Y-174930000D01*
X162410000Y-178170000D02*
X162410000Y-174930000D01*
X160170000Y-178170000D02*
X160235000Y-178170000D01*
X162345000Y-178170000D02*
X162410000Y-178170000D01*
X160170000Y-174930000D02*
X160235000Y-174930000D01*
X162345000Y-174930000D02*
X162410000Y-174930000D01*
G04 #@! TO.C,C3*
X136040000Y-189600000D02*
X136040000Y-186360000D01*
X138280000Y-189600000D02*
X138280000Y-186360000D01*
X136040000Y-189600000D02*
X136105000Y-189600000D01*
X138215000Y-189600000D02*
X138280000Y-189600000D01*
X136040000Y-186360000D02*
X136105000Y-186360000D01*
X138215000Y-186360000D02*
X138280000Y-186360000D01*
G04 #@! TO.C,C2*
X152550000Y-178170000D02*
X152550000Y-174930000D01*
X154790000Y-178170000D02*
X154790000Y-174930000D01*
X152550000Y-178170000D02*
X152615000Y-178170000D01*
X154725000Y-178170000D02*
X154790000Y-178170000D01*
X152550000Y-174930000D02*
X152615000Y-174930000D01*
X154725000Y-174930000D02*
X154790000Y-174930000D01*
G04 #@! TO.C,C1*
X167790000Y-178170000D02*
X167790000Y-174930000D01*
X170030000Y-178170000D02*
X170030000Y-174930000D01*
X167790000Y-178170000D02*
X167855000Y-178170000D01*
X169965000Y-178170000D02*
X170030000Y-178170000D01*
X167790000Y-174930000D02*
X167855000Y-174930000D01*
X169965000Y-174930000D02*
X170030000Y-174930000D01*
G04 #@! TO.C,D8*
X92630000Y-116760000D02*
X97750000Y-116760000D01*
X92750000Y-122000000D02*
X97750000Y-122000000D01*
X92630000Y-117080000D02*
X92630000Y-116760000D01*
G04 #@! TO.C,D7*
X82470000Y-116760000D02*
X87590000Y-116760000D01*
X82590000Y-122000000D02*
X87590000Y-122000000D01*
X82470000Y-117080000D02*
X82470000Y-116760000D01*
G04 #@! TO.C,D6*
X72310000Y-116760000D02*
X77430000Y-116760000D01*
X72430000Y-122000000D02*
X77430000Y-122000000D01*
X72310000Y-117080000D02*
X72310000Y-116760000D01*
G04 #@! TO.C,D5*
X62150000Y-116760000D02*
X67270000Y-116760000D01*
X62270000Y-122000000D02*
X67270000Y-122000000D01*
X62150000Y-117080000D02*
X62150000Y-116760000D01*
G04 #@! TO.C,D4*
X51990000Y-116760000D02*
X57110000Y-116760000D01*
X52110000Y-122000000D02*
X57110000Y-122000000D01*
X51990000Y-117080000D02*
X51990000Y-116760000D01*
G04 #@! TO.C,D3*
X41830000Y-116760000D02*
X46950000Y-116760000D01*
X41950000Y-122000000D02*
X46950000Y-122000000D01*
X41830000Y-117080000D02*
X41830000Y-116760000D01*
G04 #@! TO.C,D2*
X31670000Y-116760000D02*
X36790000Y-116760000D01*
X31790000Y-122000000D02*
X36790000Y-122000000D01*
X31670000Y-117080000D02*
X31670000Y-116760000D01*
G04 #@! TO.C,D1*
X21510000Y-116760000D02*
X26630000Y-116760000D01*
X21630000Y-122000000D02*
X26630000Y-122000000D01*
X21510000Y-117080000D02*
X21510000Y-116760000D01*
G04 #@! TO.C,A1*
X25400000Y-156210000D02*
X25400000Y-153670000D01*
X25400000Y-153670000D02*
X22730000Y-153670000D01*
X22730000Y-156210000D02*
X22730000Y-194440000D01*
X22730000Y-151000000D02*
X22730000Y-153670000D01*
X38100000Y-153670000D02*
X40770000Y-153670000D01*
X38100000Y-153670000D02*
X38100000Y-191770000D01*
X38100000Y-191770000D02*
X40770000Y-191770000D01*
X25400000Y-156210000D02*
X22730000Y-156210000D01*
X25400000Y-156210000D02*
X25400000Y-191770000D01*
X25400000Y-191770000D02*
X22730000Y-191770000D01*
X22730000Y-194440000D02*
X40770000Y-194440000D01*
X40770000Y-194440000D02*
X40770000Y-151000000D01*
X40770000Y-151000000D02*
X22730000Y-151000000D01*
G04 #@! TO.C,RV3*
D11*
X47990380Y-173763238D02*
X47514190Y-174096571D01*
X47990380Y-174334666D02*
X46990380Y-174334666D01*
X46990380Y-173953714D01*
X47038000Y-173858476D01*
X47085619Y-173810857D01*
X47180857Y-173763238D01*
X47323714Y-173763238D01*
X47418952Y-173810857D01*
X47466571Y-173858476D01*
X47514190Y-173953714D01*
X47514190Y-174334666D01*
X46990380Y-173477523D02*
X47990380Y-173144190D01*
X46990380Y-172810857D01*
X46990380Y-172572761D02*
X46990380Y-171953714D01*
X47371333Y-172287047D01*
X47371333Y-172144190D01*
X47418952Y-172048952D01*
X47466571Y-172001333D01*
X47561809Y-171953714D01*
X47799904Y-171953714D01*
X47895142Y-172001333D01*
X47942761Y-172048952D01*
X47990380Y-172144190D01*
X47990380Y-172429904D01*
X47942761Y-172525142D01*
X47895142Y-172572761D01*
G04 #@! TO.C,RV2*
X47990380Y-164111238D02*
X47514190Y-164444571D01*
X47990380Y-164682666D02*
X46990380Y-164682666D01*
X46990380Y-164301714D01*
X47038000Y-164206476D01*
X47085619Y-164158857D01*
X47180857Y-164111238D01*
X47323714Y-164111238D01*
X47418952Y-164158857D01*
X47466571Y-164206476D01*
X47514190Y-164301714D01*
X47514190Y-164682666D01*
X46990380Y-163825523D02*
X47990380Y-163492190D01*
X46990380Y-163158857D01*
X47085619Y-162873142D02*
X47038000Y-162825523D01*
X46990380Y-162730285D01*
X46990380Y-162492190D01*
X47038000Y-162396952D01*
X47085619Y-162349333D01*
X47180857Y-162301714D01*
X47276095Y-162301714D01*
X47418952Y-162349333D01*
X47990380Y-162920761D01*
X47990380Y-162301714D01*
G04 #@! TO.C,RV1*
X47950380Y-155535238D02*
X47474190Y-155868571D01*
X47950380Y-156106666D02*
X46950380Y-156106666D01*
X46950380Y-155725714D01*
X46998000Y-155630476D01*
X47045619Y-155582857D01*
X47140857Y-155535238D01*
X47283714Y-155535238D01*
X47378952Y-155582857D01*
X47426571Y-155630476D01*
X47474190Y-155725714D01*
X47474190Y-156106666D01*
X46950380Y-155249523D02*
X47950380Y-154916190D01*
X46950380Y-154582857D01*
X47950380Y-153725714D02*
X47950380Y-154297142D01*
X47950380Y-154011428D02*
X46950380Y-154011428D01*
X47093238Y-154106666D01*
X47188476Y-154201904D01*
X47236095Y-154297142D01*
G04 #@! TO.C,U1*
X136398095Y-148252380D02*
X136398095Y-149061904D01*
X136445714Y-149157142D01*
X136493333Y-149204761D01*
X136588571Y-149252380D01*
X136779047Y-149252380D01*
X136874285Y-149204761D01*
X136921904Y-149157142D01*
X136969523Y-149061904D01*
X136969523Y-148252380D01*
X137969523Y-149252380D02*
X137398095Y-149252380D01*
X137683809Y-149252380D02*
X137683809Y-148252380D01*
X137588571Y-148395238D01*
X137493333Y-148490476D01*
X137398095Y-148538095D01*
G04 #@! TO.C,J5*
X171156380Y-118443333D02*
X171870666Y-118443333D01*
X172013523Y-118490952D01*
X172108761Y-118586190D01*
X172156380Y-118729047D01*
X172156380Y-118824285D01*
X171156380Y-117490952D02*
X171156380Y-117967142D01*
X171632571Y-118014761D01*
X171584952Y-117967142D01*
X171537333Y-117871904D01*
X171537333Y-117633809D01*
X171584952Y-117538571D01*
X171632571Y-117490952D01*
X171727809Y-117443333D01*
X171965904Y-117443333D01*
X172061142Y-117490952D01*
X172108761Y-117538571D01*
X172156380Y-117633809D01*
X172156380Y-117871904D01*
X172108761Y-117967142D01*
X172061142Y-118014761D01*
G04 #@! TO.C,U6*
X169207380Y-161416904D02*
X170016904Y-161416904D01*
X170112142Y-161369285D01*
X170159761Y-161321666D01*
X170207380Y-161226428D01*
X170207380Y-161035952D01*
X170159761Y-160940714D01*
X170112142Y-160893095D01*
X170016904Y-160845476D01*
X169207380Y-160845476D01*
X169207380Y-159940714D02*
X169207380Y-160131190D01*
X169255000Y-160226428D01*
X169302619Y-160274047D01*
X169445476Y-160369285D01*
X169635952Y-160416904D01*
X170016904Y-160416904D01*
X170112142Y-160369285D01*
X170159761Y-160321666D01*
X170207380Y-160226428D01*
X170207380Y-160035952D01*
X170159761Y-159940714D01*
X170112142Y-159893095D01*
X170016904Y-159845476D01*
X169778809Y-159845476D01*
X169683571Y-159893095D01*
X169635952Y-159940714D01*
X169588333Y-160035952D01*
X169588333Y-160226428D01*
X169635952Y-160321666D01*
X169683571Y-160369285D01*
X169778809Y-160416904D01*
G04 #@! TO.C,R43*
X124912380Y-174632857D02*
X124436190Y-174966190D01*
X124912380Y-175204285D02*
X123912380Y-175204285D01*
X123912380Y-174823333D01*
X123960000Y-174728095D01*
X124007619Y-174680476D01*
X124102857Y-174632857D01*
X124245714Y-174632857D01*
X124340952Y-174680476D01*
X124388571Y-174728095D01*
X124436190Y-174823333D01*
X124436190Y-175204285D01*
X124245714Y-173775714D02*
X124912380Y-173775714D01*
X123864761Y-174013809D02*
X124579047Y-174251904D01*
X124579047Y-173632857D01*
X123912380Y-173347142D02*
X123912380Y-172728095D01*
X124293333Y-173061428D01*
X124293333Y-172918571D01*
X124340952Y-172823333D01*
X124388571Y-172775714D01*
X124483809Y-172728095D01*
X124721904Y-172728095D01*
X124817142Y-172775714D01*
X124864761Y-172823333D01*
X124912380Y-172918571D01*
X124912380Y-173204285D01*
X124864761Y-173299523D01*
X124817142Y-173347142D01*
G04 #@! TO.C,R42*
X119832380Y-174632857D02*
X119356190Y-174966190D01*
X119832380Y-175204285D02*
X118832380Y-175204285D01*
X118832380Y-174823333D01*
X118880000Y-174728095D01*
X118927619Y-174680476D01*
X119022857Y-174632857D01*
X119165714Y-174632857D01*
X119260952Y-174680476D01*
X119308571Y-174728095D01*
X119356190Y-174823333D01*
X119356190Y-175204285D01*
X119165714Y-173775714D02*
X119832380Y-173775714D01*
X118784761Y-174013809D02*
X119499047Y-174251904D01*
X119499047Y-173632857D01*
X118927619Y-173299523D02*
X118880000Y-173251904D01*
X118832380Y-173156666D01*
X118832380Y-172918571D01*
X118880000Y-172823333D01*
X118927619Y-172775714D01*
X119022857Y-172728095D01*
X119118095Y-172728095D01*
X119260952Y-172775714D01*
X119832380Y-173347142D01*
X119832380Y-172728095D01*
G04 #@! TO.C,R41*
X119832380Y-126372857D02*
X119356190Y-126706190D01*
X119832380Y-126944285D02*
X118832380Y-126944285D01*
X118832380Y-126563333D01*
X118880000Y-126468095D01*
X118927619Y-126420476D01*
X119022857Y-126372857D01*
X119165714Y-126372857D01*
X119260952Y-126420476D01*
X119308571Y-126468095D01*
X119356190Y-126563333D01*
X119356190Y-126944285D01*
X119165714Y-125515714D02*
X119832380Y-125515714D01*
X118784761Y-125753809D02*
X119499047Y-125991904D01*
X119499047Y-125372857D01*
X119832380Y-124468095D02*
X119832380Y-125039523D01*
X119832380Y-124753809D02*
X118832380Y-124753809D01*
X118975238Y-124849047D01*
X119070476Y-124944285D01*
X119118095Y-125039523D01*
G04 #@! TO.C,R40*
X114752380Y-174632857D02*
X114276190Y-174966190D01*
X114752380Y-175204285D02*
X113752380Y-175204285D01*
X113752380Y-174823333D01*
X113800000Y-174728095D01*
X113847619Y-174680476D01*
X113942857Y-174632857D01*
X114085714Y-174632857D01*
X114180952Y-174680476D01*
X114228571Y-174728095D01*
X114276190Y-174823333D01*
X114276190Y-175204285D01*
X114085714Y-173775714D02*
X114752380Y-173775714D01*
X113704761Y-174013809D02*
X114419047Y-174251904D01*
X114419047Y-173632857D01*
X113752380Y-173061428D02*
X113752380Y-172966190D01*
X113800000Y-172870952D01*
X113847619Y-172823333D01*
X113942857Y-172775714D01*
X114133333Y-172728095D01*
X114371428Y-172728095D01*
X114561904Y-172775714D01*
X114657142Y-172823333D01*
X114704761Y-172870952D01*
X114752380Y-172966190D01*
X114752380Y-173061428D01*
X114704761Y-173156666D01*
X114657142Y-173204285D01*
X114561904Y-173251904D01*
X114371428Y-173299523D01*
X114133333Y-173299523D01*
X113942857Y-173251904D01*
X113847619Y-173204285D01*
X113800000Y-173156666D01*
X113752380Y-173061428D01*
G04 #@! TO.C,R39*
X117292380Y-174632857D02*
X116816190Y-174966190D01*
X117292380Y-175204285D02*
X116292380Y-175204285D01*
X116292380Y-174823333D01*
X116340000Y-174728095D01*
X116387619Y-174680476D01*
X116482857Y-174632857D01*
X116625714Y-174632857D01*
X116720952Y-174680476D01*
X116768571Y-174728095D01*
X116816190Y-174823333D01*
X116816190Y-175204285D01*
X116292380Y-174299523D02*
X116292380Y-173680476D01*
X116673333Y-174013809D01*
X116673333Y-173870952D01*
X116720952Y-173775714D01*
X116768571Y-173728095D01*
X116863809Y-173680476D01*
X117101904Y-173680476D01*
X117197142Y-173728095D01*
X117244761Y-173775714D01*
X117292380Y-173870952D01*
X117292380Y-174156666D01*
X117244761Y-174251904D01*
X117197142Y-174299523D01*
X117292380Y-173204285D02*
X117292380Y-173013809D01*
X117244761Y-172918571D01*
X117197142Y-172870952D01*
X117054285Y-172775714D01*
X116863809Y-172728095D01*
X116482857Y-172728095D01*
X116387619Y-172775714D01*
X116340000Y-172823333D01*
X116292380Y-172918571D01*
X116292380Y-173109047D01*
X116340000Y-173204285D01*
X116387619Y-173251904D01*
X116482857Y-173299523D01*
X116720952Y-173299523D01*
X116816190Y-173251904D01*
X116863809Y-173204285D01*
X116911428Y-173109047D01*
X116911428Y-172918571D01*
X116863809Y-172823333D01*
X116816190Y-172775714D01*
X116720952Y-172728095D01*
G04 #@! TO.C,R38*
X122372380Y-174632857D02*
X121896190Y-174966190D01*
X122372380Y-175204285D02*
X121372380Y-175204285D01*
X121372380Y-174823333D01*
X121420000Y-174728095D01*
X121467619Y-174680476D01*
X121562857Y-174632857D01*
X121705714Y-174632857D01*
X121800952Y-174680476D01*
X121848571Y-174728095D01*
X121896190Y-174823333D01*
X121896190Y-175204285D01*
X121372380Y-174299523D02*
X121372380Y-173680476D01*
X121753333Y-174013809D01*
X121753333Y-173870952D01*
X121800952Y-173775714D01*
X121848571Y-173728095D01*
X121943809Y-173680476D01*
X122181904Y-173680476D01*
X122277142Y-173728095D01*
X122324761Y-173775714D01*
X122372380Y-173870952D01*
X122372380Y-174156666D01*
X122324761Y-174251904D01*
X122277142Y-174299523D01*
X121800952Y-173109047D02*
X121753333Y-173204285D01*
X121705714Y-173251904D01*
X121610476Y-173299523D01*
X121562857Y-173299523D01*
X121467619Y-173251904D01*
X121420000Y-173204285D01*
X121372380Y-173109047D01*
X121372380Y-172918571D01*
X121420000Y-172823333D01*
X121467619Y-172775714D01*
X121562857Y-172728095D01*
X121610476Y-172728095D01*
X121705714Y-172775714D01*
X121753333Y-172823333D01*
X121800952Y-172918571D01*
X121800952Y-173109047D01*
X121848571Y-173204285D01*
X121896190Y-173251904D01*
X121991428Y-173299523D01*
X122181904Y-173299523D01*
X122277142Y-173251904D01*
X122324761Y-173204285D01*
X122372380Y-173109047D01*
X122372380Y-172918571D01*
X122324761Y-172823333D01*
X122277142Y-172775714D01*
X122181904Y-172728095D01*
X121991428Y-172728095D01*
X121896190Y-172775714D01*
X121848571Y-172823333D01*
X121800952Y-172918571D01*
G04 #@! TO.C,R37*
X124912380Y-126372857D02*
X124436190Y-126706190D01*
X124912380Y-126944285D02*
X123912380Y-126944285D01*
X123912380Y-126563333D01*
X123960000Y-126468095D01*
X124007619Y-126420476D01*
X124102857Y-126372857D01*
X124245714Y-126372857D01*
X124340952Y-126420476D01*
X124388571Y-126468095D01*
X124436190Y-126563333D01*
X124436190Y-126944285D01*
X123912380Y-126039523D02*
X123912380Y-125420476D01*
X124293333Y-125753809D01*
X124293333Y-125610952D01*
X124340952Y-125515714D01*
X124388571Y-125468095D01*
X124483809Y-125420476D01*
X124721904Y-125420476D01*
X124817142Y-125468095D01*
X124864761Y-125515714D01*
X124912380Y-125610952D01*
X124912380Y-125896666D01*
X124864761Y-125991904D01*
X124817142Y-126039523D01*
X123912380Y-125087142D02*
X123912380Y-124420476D01*
X124912380Y-124849047D01*
G04 #@! TO.C,R36*
X122372380Y-126372857D02*
X121896190Y-126706190D01*
X122372380Y-126944285D02*
X121372380Y-126944285D01*
X121372380Y-126563333D01*
X121420000Y-126468095D01*
X121467619Y-126420476D01*
X121562857Y-126372857D01*
X121705714Y-126372857D01*
X121800952Y-126420476D01*
X121848571Y-126468095D01*
X121896190Y-126563333D01*
X121896190Y-126944285D01*
X121372380Y-126039523D02*
X121372380Y-125420476D01*
X121753333Y-125753809D01*
X121753333Y-125610952D01*
X121800952Y-125515714D01*
X121848571Y-125468095D01*
X121943809Y-125420476D01*
X122181904Y-125420476D01*
X122277142Y-125468095D01*
X122324761Y-125515714D01*
X122372380Y-125610952D01*
X122372380Y-125896666D01*
X122324761Y-125991904D01*
X122277142Y-126039523D01*
X121372380Y-124563333D02*
X121372380Y-124753809D01*
X121420000Y-124849047D01*
X121467619Y-124896666D01*
X121610476Y-124991904D01*
X121800952Y-125039523D01*
X122181904Y-125039523D01*
X122277142Y-124991904D01*
X122324761Y-124944285D01*
X122372380Y-124849047D01*
X122372380Y-124658571D01*
X122324761Y-124563333D01*
X122277142Y-124515714D01*
X122181904Y-124468095D01*
X121943809Y-124468095D01*
X121848571Y-124515714D01*
X121800952Y-124563333D01*
X121753333Y-124658571D01*
X121753333Y-124849047D01*
X121800952Y-124944285D01*
X121848571Y-124991904D01*
X121943809Y-125039523D01*
G04 #@! TO.C,R35*
X112212380Y-174632857D02*
X111736190Y-174966190D01*
X112212380Y-175204285D02*
X111212380Y-175204285D01*
X111212380Y-174823333D01*
X111260000Y-174728095D01*
X111307619Y-174680476D01*
X111402857Y-174632857D01*
X111545714Y-174632857D01*
X111640952Y-174680476D01*
X111688571Y-174728095D01*
X111736190Y-174823333D01*
X111736190Y-175204285D01*
X111212380Y-174299523D02*
X111212380Y-173680476D01*
X111593333Y-174013809D01*
X111593333Y-173870952D01*
X111640952Y-173775714D01*
X111688571Y-173728095D01*
X111783809Y-173680476D01*
X112021904Y-173680476D01*
X112117142Y-173728095D01*
X112164761Y-173775714D01*
X112212380Y-173870952D01*
X112212380Y-174156666D01*
X112164761Y-174251904D01*
X112117142Y-174299523D01*
X111212380Y-172775714D02*
X111212380Y-173251904D01*
X111688571Y-173299523D01*
X111640952Y-173251904D01*
X111593333Y-173156666D01*
X111593333Y-172918571D01*
X111640952Y-172823333D01*
X111688571Y-172775714D01*
X111783809Y-172728095D01*
X112021904Y-172728095D01*
X112117142Y-172775714D01*
X112164761Y-172823333D01*
X112212380Y-172918571D01*
X112212380Y-173156666D01*
X112164761Y-173251904D01*
X112117142Y-173299523D01*
G04 #@! TO.C,R34*
X107132380Y-126372857D02*
X106656190Y-126706190D01*
X107132380Y-126944285D02*
X106132380Y-126944285D01*
X106132380Y-126563333D01*
X106180000Y-126468095D01*
X106227619Y-126420476D01*
X106322857Y-126372857D01*
X106465714Y-126372857D01*
X106560952Y-126420476D01*
X106608571Y-126468095D01*
X106656190Y-126563333D01*
X106656190Y-126944285D01*
X106132380Y-126039523D02*
X106132380Y-125420476D01*
X106513333Y-125753809D01*
X106513333Y-125610952D01*
X106560952Y-125515714D01*
X106608571Y-125468095D01*
X106703809Y-125420476D01*
X106941904Y-125420476D01*
X107037142Y-125468095D01*
X107084761Y-125515714D01*
X107132380Y-125610952D01*
X107132380Y-125896666D01*
X107084761Y-125991904D01*
X107037142Y-126039523D01*
X106465714Y-124563333D02*
X107132380Y-124563333D01*
X106084761Y-124801428D02*
X106799047Y-125039523D01*
X106799047Y-124420476D01*
G04 #@! TO.C,R33*
X104592380Y-126372857D02*
X104116190Y-126706190D01*
X104592380Y-126944285D02*
X103592380Y-126944285D01*
X103592380Y-126563333D01*
X103640000Y-126468095D01*
X103687619Y-126420476D01*
X103782857Y-126372857D01*
X103925714Y-126372857D01*
X104020952Y-126420476D01*
X104068571Y-126468095D01*
X104116190Y-126563333D01*
X104116190Y-126944285D01*
X103592380Y-126039523D02*
X103592380Y-125420476D01*
X103973333Y-125753809D01*
X103973333Y-125610952D01*
X104020952Y-125515714D01*
X104068571Y-125468095D01*
X104163809Y-125420476D01*
X104401904Y-125420476D01*
X104497142Y-125468095D01*
X104544761Y-125515714D01*
X104592380Y-125610952D01*
X104592380Y-125896666D01*
X104544761Y-125991904D01*
X104497142Y-126039523D01*
X103592380Y-125087142D02*
X103592380Y-124468095D01*
X103973333Y-124801428D01*
X103973333Y-124658571D01*
X104020952Y-124563333D01*
X104068571Y-124515714D01*
X104163809Y-124468095D01*
X104401904Y-124468095D01*
X104497142Y-124515714D01*
X104544761Y-124563333D01*
X104592380Y-124658571D01*
X104592380Y-124944285D01*
X104544761Y-125039523D01*
X104497142Y-125087142D01*
G04 #@! TO.C,R32*
X104592380Y-174632857D02*
X104116190Y-174966190D01*
X104592380Y-175204285D02*
X103592380Y-175204285D01*
X103592380Y-174823333D01*
X103640000Y-174728095D01*
X103687619Y-174680476D01*
X103782857Y-174632857D01*
X103925714Y-174632857D01*
X104020952Y-174680476D01*
X104068571Y-174728095D01*
X104116190Y-174823333D01*
X104116190Y-175204285D01*
X103592380Y-174299523D02*
X103592380Y-173680476D01*
X103973333Y-174013809D01*
X103973333Y-173870952D01*
X104020952Y-173775714D01*
X104068571Y-173728095D01*
X104163809Y-173680476D01*
X104401904Y-173680476D01*
X104497142Y-173728095D01*
X104544761Y-173775714D01*
X104592380Y-173870952D01*
X104592380Y-174156666D01*
X104544761Y-174251904D01*
X104497142Y-174299523D01*
X103687619Y-173299523D02*
X103640000Y-173251904D01*
X103592380Y-173156666D01*
X103592380Y-172918571D01*
X103640000Y-172823333D01*
X103687619Y-172775714D01*
X103782857Y-172728095D01*
X103878095Y-172728095D01*
X104020952Y-172775714D01*
X104592380Y-173347142D01*
X104592380Y-172728095D01*
G04 #@! TO.C,R31*
X107132380Y-174632857D02*
X106656190Y-174966190D01*
X107132380Y-175204285D02*
X106132380Y-175204285D01*
X106132380Y-174823333D01*
X106180000Y-174728095D01*
X106227619Y-174680476D01*
X106322857Y-174632857D01*
X106465714Y-174632857D01*
X106560952Y-174680476D01*
X106608571Y-174728095D01*
X106656190Y-174823333D01*
X106656190Y-175204285D01*
X106132380Y-174299523D02*
X106132380Y-173680476D01*
X106513333Y-174013809D01*
X106513333Y-173870952D01*
X106560952Y-173775714D01*
X106608571Y-173728095D01*
X106703809Y-173680476D01*
X106941904Y-173680476D01*
X107037142Y-173728095D01*
X107084761Y-173775714D01*
X107132380Y-173870952D01*
X107132380Y-174156666D01*
X107084761Y-174251904D01*
X107037142Y-174299523D01*
X107132380Y-172728095D02*
X107132380Y-173299523D01*
X107132380Y-173013809D02*
X106132380Y-173013809D01*
X106275238Y-173109047D01*
X106370476Y-173204285D01*
X106418095Y-173299523D01*
G04 #@! TO.C,R30*
X109672380Y-174632857D02*
X109196190Y-174966190D01*
X109672380Y-175204285D02*
X108672380Y-175204285D01*
X108672380Y-174823333D01*
X108720000Y-174728095D01*
X108767619Y-174680476D01*
X108862857Y-174632857D01*
X109005714Y-174632857D01*
X109100952Y-174680476D01*
X109148571Y-174728095D01*
X109196190Y-174823333D01*
X109196190Y-175204285D01*
X108672380Y-174299523D02*
X108672380Y-173680476D01*
X109053333Y-174013809D01*
X109053333Y-173870952D01*
X109100952Y-173775714D01*
X109148571Y-173728095D01*
X109243809Y-173680476D01*
X109481904Y-173680476D01*
X109577142Y-173728095D01*
X109624761Y-173775714D01*
X109672380Y-173870952D01*
X109672380Y-174156666D01*
X109624761Y-174251904D01*
X109577142Y-174299523D01*
X108672380Y-173061428D02*
X108672380Y-172966190D01*
X108720000Y-172870952D01*
X108767619Y-172823333D01*
X108862857Y-172775714D01*
X109053333Y-172728095D01*
X109291428Y-172728095D01*
X109481904Y-172775714D01*
X109577142Y-172823333D01*
X109624761Y-172870952D01*
X109672380Y-172966190D01*
X109672380Y-173061428D01*
X109624761Y-173156666D01*
X109577142Y-173204285D01*
X109481904Y-173251904D01*
X109291428Y-173299523D01*
X109053333Y-173299523D01*
X108862857Y-173251904D01*
X108767619Y-173204285D01*
X108720000Y-173156666D01*
X108672380Y-173061428D01*
G04 #@! TO.C,R29*
X112212380Y-126372857D02*
X111736190Y-126706190D01*
X112212380Y-126944285D02*
X111212380Y-126944285D01*
X111212380Y-126563333D01*
X111260000Y-126468095D01*
X111307619Y-126420476D01*
X111402857Y-126372857D01*
X111545714Y-126372857D01*
X111640952Y-126420476D01*
X111688571Y-126468095D01*
X111736190Y-126563333D01*
X111736190Y-126944285D01*
X111307619Y-125991904D02*
X111260000Y-125944285D01*
X111212380Y-125849047D01*
X111212380Y-125610952D01*
X111260000Y-125515714D01*
X111307619Y-125468095D01*
X111402857Y-125420476D01*
X111498095Y-125420476D01*
X111640952Y-125468095D01*
X112212380Y-126039523D01*
X112212380Y-125420476D01*
X112212380Y-124944285D02*
X112212380Y-124753809D01*
X112164761Y-124658571D01*
X112117142Y-124610952D01*
X111974285Y-124515714D01*
X111783809Y-124468095D01*
X111402857Y-124468095D01*
X111307619Y-124515714D01*
X111260000Y-124563333D01*
X111212380Y-124658571D01*
X111212380Y-124849047D01*
X111260000Y-124944285D01*
X111307619Y-124991904D01*
X111402857Y-125039523D01*
X111640952Y-125039523D01*
X111736190Y-124991904D01*
X111783809Y-124944285D01*
X111831428Y-124849047D01*
X111831428Y-124658571D01*
X111783809Y-124563333D01*
X111736190Y-124515714D01*
X111640952Y-124468095D01*
G04 #@! TO.C,R28*
X109672380Y-126372857D02*
X109196190Y-126706190D01*
X109672380Y-126944285D02*
X108672380Y-126944285D01*
X108672380Y-126563333D01*
X108720000Y-126468095D01*
X108767619Y-126420476D01*
X108862857Y-126372857D01*
X109005714Y-126372857D01*
X109100952Y-126420476D01*
X109148571Y-126468095D01*
X109196190Y-126563333D01*
X109196190Y-126944285D01*
X108767619Y-125991904D02*
X108720000Y-125944285D01*
X108672380Y-125849047D01*
X108672380Y-125610952D01*
X108720000Y-125515714D01*
X108767619Y-125468095D01*
X108862857Y-125420476D01*
X108958095Y-125420476D01*
X109100952Y-125468095D01*
X109672380Y-126039523D01*
X109672380Y-125420476D01*
X109100952Y-124849047D02*
X109053333Y-124944285D01*
X109005714Y-124991904D01*
X108910476Y-125039523D01*
X108862857Y-125039523D01*
X108767619Y-124991904D01*
X108720000Y-124944285D01*
X108672380Y-124849047D01*
X108672380Y-124658571D01*
X108720000Y-124563333D01*
X108767619Y-124515714D01*
X108862857Y-124468095D01*
X108910476Y-124468095D01*
X109005714Y-124515714D01*
X109053333Y-124563333D01*
X109100952Y-124658571D01*
X109100952Y-124849047D01*
X109148571Y-124944285D01*
X109196190Y-124991904D01*
X109291428Y-125039523D01*
X109481904Y-125039523D01*
X109577142Y-124991904D01*
X109624761Y-124944285D01*
X109672380Y-124849047D01*
X109672380Y-124658571D01*
X109624761Y-124563333D01*
X109577142Y-124515714D01*
X109481904Y-124468095D01*
X109291428Y-124468095D01*
X109196190Y-124515714D01*
X109148571Y-124563333D01*
X109100952Y-124658571D01*
G04 #@! TO.C,J4*
X43648380Y-181943333D02*
X44362666Y-181943333D01*
X44505523Y-181990952D01*
X44600761Y-182086190D01*
X44648380Y-182229047D01*
X44648380Y-182324285D01*
X43981714Y-181038571D02*
X44648380Y-181038571D01*
X43600761Y-181276666D02*
X44315047Y-181514761D01*
X44315047Y-180895714D01*
G04 #@! TO.C,J3*
X43648380Y-186613333D02*
X44362666Y-186613333D01*
X44505523Y-186660952D01*
X44600761Y-186756190D01*
X44648380Y-186899047D01*
X44648380Y-186994285D01*
X43648380Y-186232380D02*
X43648380Y-185613333D01*
X44029333Y-185946666D01*
X44029333Y-185803809D01*
X44076952Y-185708571D01*
X44124571Y-185660952D01*
X44219809Y-185613333D01*
X44457904Y-185613333D01*
X44553142Y-185660952D01*
X44600761Y-185708571D01*
X44648380Y-185803809D01*
X44648380Y-186089523D01*
X44600761Y-186184761D01*
X44553142Y-186232380D01*
G04 #@! TO.C,J2*
X43648380Y-191263333D02*
X44362666Y-191263333D01*
X44505523Y-191310952D01*
X44600761Y-191406190D01*
X44648380Y-191549047D01*
X44648380Y-191644285D01*
X43743619Y-190834761D02*
X43696000Y-190787142D01*
X43648380Y-190691904D01*
X43648380Y-190453809D01*
X43696000Y-190358571D01*
X43743619Y-190310952D01*
X43838857Y-190263333D01*
X43934095Y-190263333D01*
X44076952Y-190310952D01*
X44648380Y-190882380D01*
X44648380Y-190263333D01*
G04 #@! TO.C,J1*
X43648380Y-195913333D02*
X44362666Y-195913333D01*
X44505523Y-195960952D01*
X44600761Y-196056190D01*
X44648380Y-196199047D01*
X44648380Y-196294285D01*
X44648380Y-194913333D02*
X44648380Y-195484761D01*
X44648380Y-195199047D02*
X43648380Y-195199047D01*
X43791238Y-195294285D01*
X43886476Y-195389523D01*
X43934095Y-195484761D01*
G04 #@! TO.C,U5*
X86872380Y-155701904D02*
X87681904Y-155701904D01*
X87777142Y-155654285D01*
X87824761Y-155606666D01*
X87872380Y-155511428D01*
X87872380Y-155320952D01*
X87824761Y-155225714D01*
X87777142Y-155178095D01*
X87681904Y-155130476D01*
X86872380Y-155130476D01*
X86872380Y-154178095D02*
X86872380Y-154654285D01*
X87348571Y-154701904D01*
X87300952Y-154654285D01*
X87253333Y-154559047D01*
X87253333Y-154320952D01*
X87300952Y-154225714D01*
X87348571Y-154178095D01*
X87443809Y-154130476D01*
X87681904Y-154130476D01*
X87777142Y-154178095D01*
X87824761Y-154225714D01*
X87872380Y-154320952D01*
X87872380Y-154559047D01*
X87824761Y-154654285D01*
X87777142Y-154701904D01*
G04 #@! TO.C,R27*
X88082380Y-179712857D02*
X87606190Y-180046190D01*
X88082380Y-180284285D02*
X87082380Y-180284285D01*
X87082380Y-179903333D01*
X87130000Y-179808095D01*
X87177619Y-179760476D01*
X87272857Y-179712857D01*
X87415714Y-179712857D01*
X87510952Y-179760476D01*
X87558571Y-179808095D01*
X87606190Y-179903333D01*
X87606190Y-180284285D01*
X87177619Y-179331904D02*
X87130000Y-179284285D01*
X87082380Y-179189047D01*
X87082380Y-178950952D01*
X87130000Y-178855714D01*
X87177619Y-178808095D01*
X87272857Y-178760476D01*
X87368095Y-178760476D01*
X87510952Y-178808095D01*
X88082380Y-179379523D01*
X88082380Y-178760476D01*
X87082380Y-178427142D02*
X87082380Y-177760476D01*
X88082380Y-178189047D01*
G04 #@! TO.C,R26*
X84272380Y-179712857D02*
X83796190Y-180046190D01*
X84272380Y-180284285D02*
X83272380Y-180284285D01*
X83272380Y-179903333D01*
X83320000Y-179808095D01*
X83367619Y-179760476D01*
X83462857Y-179712857D01*
X83605714Y-179712857D01*
X83700952Y-179760476D01*
X83748571Y-179808095D01*
X83796190Y-179903333D01*
X83796190Y-180284285D01*
X83367619Y-179331904D02*
X83320000Y-179284285D01*
X83272380Y-179189047D01*
X83272380Y-178950952D01*
X83320000Y-178855714D01*
X83367619Y-178808095D01*
X83462857Y-178760476D01*
X83558095Y-178760476D01*
X83700952Y-178808095D01*
X84272380Y-179379523D01*
X84272380Y-178760476D01*
X83272380Y-177903333D02*
X83272380Y-178093809D01*
X83320000Y-178189047D01*
X83367619Y-178236666D01*
X83510476Y-178331904D01*
X83700952Y-178379523D01*
X84081904Y-178379523D01*
X84177142Y-178331904D01*
X84224761Y-178284285D01*
X84272380Y-178189047D01*
X84272380Y-177998571D01*
X84224761Y-177903333D01*
X84177142Y-177855714D01*
X84081904Y-177808095D01*
X83843809Y-177808095D01*
X83748571Y-177855714D01*
X83700952Y-177903333D01*
X83653333Y-177998571D01*
X83653333Y-178189047D01*
X83700952Y-178284285D01*
X83748571Y-178331904D01*
X83843809Y-178379523D01*
G04 #@! TO.C,R25*
X80462380Y-179712857D02*
X79986190Y-180046190D01*
X80462380Y-180284285D02*
X79462380Y-180284285D01*
X79462380Y-179903333D01*
X79510000Y-179808095D01*
X79557619Y-179760476D01*
X79652857Y-179712857D01*
X79795714Y-179712857D01*
X79890952Y-179760476D01*
X79938571Y-179808095D01*
X79986190Y-179903333D01*
X79986190Y-180284285D01*
X79557619Y-179331904D02*
X79510000Y-179284285D01*
X79462380Y-179189047D01*
X79462380Y-178950952D01*
X79510000Y-178855714D01*
X79557619Y-178808095D01*
X79652857Y-178760476D01*
X79748095Y-178760476D01*
X79890952Y-178808095D01*
X80462380Y-179379523D01*
X80462380Y-178760476D01*
X79462380Y-177855714D02*
X79462380Y-178331904D01*
X79938571Y-178379523D01*
X79890952Y-178331904D01*
X79843333Y-178236666D01*
X79843333Y-177998571D01*
X79890952Y-177903333D01*
X79938571Y-177855714D01*
X80033809Y-177808095D01*
X80271904Y-177808095D01*
X80367142Y-177855714D01*
X80414761Y-177903333D01*
X80462380Y-177998571D01*
X80462380Y-178236666D01*
X80414761Y-178331904D01*
X80367142Y-178379523D01*
G04 #@! TO.C,R24*
X76652380Y-179712857D02*
X76176190Y-180046190D01*
X76652380Y-180284285D02*
X75652380Y-180284285D01*
X75652380Y-179903333D01*
X75700000Y-179808095D01*
X75747619Y-179760476D01*
X75842857Y-179712857D01*
X75985714Y-179712857D01*
X76080952Y-179760476D01*
X76128571Y-179808095D01*
X76176190Y-179903333D01*
X76176190Y-180284285D01*
X75747619Y-179331904D02*
X75700000Y-179284285D01*
X75652380Y-179189047D01*
X75652380Y-178950952D01*
X75700000Y-178855714D01*
X75747619Y-178808095D01*
X75842857Y-178760476D01*
X75938095Y-178760476D01*
X76080952Y-178808095D01*
X76652380Y-179379523D01*
X76652380Y-178760476D01*
X75985714Y-177903333D02*
X76652380Y-177903333D01*
X75604761Y-178141428D02*
X76319047Y-178379523D01*
X76319047Y-177760476D01*
G04 #@! TO.C,R23*
X72842380Y-179712857D02*
X72366190Y-180046190D01*
X72842380Y-180284285D02*
X71842380Y-180284285D01*
X71842380Y-179903333D01*
X71890000Y-179808095D01*
X71937619Y-179760476D01*
X72032857Y-179712857D01*
X72175714Y-179712857D01*
X72270952Y-179760476D01*
X72318571Y-179808095D01*
X72366190Y-179903333D01*
X72366190Y-180284285D01*
X71937619Y-179331904D02*
X71890000Y-179284285D01*
X71842380Y-179189047D01*
X71842380Y-178950952D01*
X71890000Y-178855714D01*
X71937619Y-178808095D01*
X72032857Y-178760476D01*
X72128095Y-178760476D01*
X72270952Y-178808095D01*
X72842380Y-179379523D01*
X72842380Y-178760476D01*
X71842380Y-178427142D02*
X71842380Y-177808095D01*
X72223333Y-178141428D01*
X72223333Y-177998571D01*
X72270952Y-177903333D01*
X72318571Y-177855714D01*
X72413809Y-177808095D01*
X72651904Y-177808095D01*
X72747142Y-177855714D01*
X72794761Y-177903333D01*
X72842380Y-177998571D01*
X72842380Y-178284285D01*
X72794761Y-178379523D01*
X72747142Y-178427142D01*
G04 #@! TO.C,R22*
X69032380Y-179712857D02*
X68556190Y-180046190D01*
X69032380Y-180284285D02*
X68032380Y-180284285D01*
X68032380Y-179903333D01*
X68080000Y-179808095D01*
X68127619Y-179760476D01*
X68222857Y-179712857D01*
X68365714Y-179712857D01*
X68460952Y-179760476D01*
X68508571Y-179808095D01*
X68556190Y-179903333D01*
X68556190Y-180284285D01*
X68127619Y-179331904D02*
X68080000Y-179284285D01*
X68032380Y-179189047D01*
X68032380Y-178950952D01*
X68080000Y-178855714D01*
X68127619Y-178808095D01*
X68222857Y-178760476D01*
X68318095Y-178760476D01*
X68460952Y-178808095D01*
X69032380Y-179379523D01*
X69032380Y-178760476D01*
X68127619Y-178379523D02*
X68080000Y-178331904D01*
X68032380Y-178236666D01*
X68032380Y-177998571D01*
X68080000Y-177903333D01*
X68127619Y-177855714D01*
X68222857Y-177808095D01*
X68318095Y-177808095D01*
X68460952Y-177855714D01*
X69032380Y-178427142D01*
X69032380Y-177808095D01*
G04 #@! TO.C,R21*
X65222380Y-179712857D02*
X64746190Y-180046190D01*
X65222380Y-180284285D02*
X64222380Y-180284285D01*
X64222380Y-179903333D01*
X64270000Y-179808095D01*
X64317619Y-179760476D01*
X64412857Y-179712857D01*
X64555714Y-179712857D01*
X64650952Y-179760476D01*
X64698571Y-179808095D01*
X64746190Y-179903333D01*
X64746190Y-180284285D01*
X64317619Y-179331904D02*
X64270000Y-179284285D01*
X64222380Y-179189047D01*
X64222380Y-178950952D01*
X64270000Y-178855714D01*
X64317619Y-178808095D01*
X64412857Y-178760476D01*
X64508095Y-178760476D01*
X64650952Y-178808095D01*
X65222380Y-179379523D01*
X65222380Y-178760476D01*
X65222380Y-177808095D02*
X65222380Y-178379523D01*
X65222380Y-178093809D02*
X64222380Y-178093809D01*
X64365238Y-178189047D01*
X64460476Y-178284285D01*
X64508095Y-178379523D01*
G04 #@! TO.C,R20*
X61412380Y-179712857D02*
X60936190Y-180046190D01*
X61412380Y-180284285D02*
X60412380Y-180284285D01*
X60412380Y-179903333D01*
X60460000Y-179808095D01*
X60507619Y-179760476D01*
X60602857Y-179712857D01*
X60745714Y-179712857D01*
X60840952Y-179760476D01*
X60888571Y-179808095D01*
X60936190Y-179903333D01*
X60936190Y-180284285D01*
X60507619Y-179331904D02*
X60460000Y-179284285D01*
X60412380Y-179189047D01*
X60412380Y-178950952D01*
X60460000Y-178855714D01*
X60507619Y-178808095D01*
X60602857Y-178760476D01*
X60698095Y-178760476D01*
X60840952Y-178808095D01*
X61412380Y-179379523D01*
X61412380Y-178760476D01*
X60412380Y-178141428D02*
X60412380Y-178046190D01*
X60460000Y-177950952D01*
X60507619Y-177903333D01*
X60602857Y-177855714D01*
X60793333Y-177808095D01*
X61031428Y-177808095D01*
X61221904Y-177855714D01*
X61317142Y-177903333D01*
X61364761Y-177950952D01*
X61412380Y-178046190D01*
X61412380Y-178141428D01*
X61364761Y-178236666D01*
X61317142Y-178284285D01*
X61221904Y-178331904D01*
X61031428Y-178379523D01*
X60793333Y-178379523D01*
X60602857Y-178331904D01*
X60507619Y-178284285D01*
X60460000Y-178236666D01*
X60412380Y-178141428D01*
G04 #@! TO.C,R19*
X22212380Y-139072857D02*
X21736190Y-139406190D01*
X22212380Y-139644285D02*
X21212380Y-139644285D01*
X21212380Y-139263333D01*
X21260000Y-139168095D01*
X21307619Y-139120476D01*
X21402857Y-139072857D01*
X21545714Y-139072857D01*
X21640952Y-139120476D01*
X21688571Y-139168095D01*
X21736190Y-139263333D01*
X21736190Y-139644285D01*
X22212380Y-138120476D02*
X22212380Y-138691904D01*
X22212380Y-138406190D02*
X21212380Y-138406190D01*
X21355238Y-138501428D01*
X21450476Y-138596666D01*
X21498095Y-138691904D01*
X22212380Y-137644285D02*
X22212380Y-137453809D01*
X22164761Y-137358571D01*
X22117142Y-137310952D01*
X21974285Y-137215714D01*
X21783809Y-137168095D01*
X21402857Y-137168095D01*
X21307619Y-137215714D01*
X21260000Y-137263333D01*
X21212380Y-137358571D01*
X21212380Y-137549047D01*
X21260000Y-137644285D01*
X21307619Y-137691904D01*
X21402857Y-137739523D01*
X21640952Y-137739523D01*
X21736190Y-137691904D01*
X21783809Y-137644285D01*
X21831428Y-137549047D01*
X21831428Y-137358571D01*
X21783809Y-137263333D01*
X21736190Y-137215714D01*
X21640952Y-137168095D01*
G04 #@! TO.C,R18*
X93332380Y-139072857D02*
X92856190Y-139406190D01*
X93332380Y-139644285D02*
X92332380Y-139644285D01*
X92332380Y-139263333D01*
X92380000Y-139168095D01*
X92427619Y-139120476D01*
X92522857Y-139072857D01*
X92665714Y-139072857D01*
X92760952Y-139120476D01*
X92808571Y-139168095D01*
X92856190Y-139263333D01*
X92856190Y-139644285D01*
X93332380Y-138120476D02*
X93332380Y-138691904D01*
X93332380Y-138406190D02*
X92332380Y-138406190D01*
X92475238Y-138501428D01*
X92570476Y-138596666D01*
X92618095Y-138691904D01*
X92760952Y-137549047D02*
X92713333Y-137644285D01*
X92665714Y-137691904D01*
X92570476Y-137739523D01*
X92522857Y-137739523D01*
X92427619Y-137691904D01*
X92380000Y-137644285D01*
X92332380Y-137549047D01*
X92332380Y-137358571D01*
X92380000Y-137263333D01*
X92427619Y-137215714D01*
X92522857Y-137168095D01*
X92570476Y-137168095D01*
X92665714Y-137215714D01*
X92713333Y-137263333D01*
X92760952Y-137358571D01*
X92760952Y-137549047D01*
X92808571Y-137644285D01*
X92856190Y-137691904D01*
X92951428Y-137739523D01*
X93141904Y-137739523D01*
X93237142Y-137691904D01*
X93284761Y-137644285D01*
X93332380Y-137549047D01*
X93332380Y-137358571D01*
X93284761Y-137263333D01*
X93237142Y-137215714D01*
X93141904Y-137168095D01*
X92951428Y-137168095D01*
X92856190Y-137215714D01*
X92808571Y-137263333D01*
X92760952Y-137358571D01*
G04 #@! TO.C,R17*
X83172380Y-139072857D02*
X82696190Y-139406190D01*
X83172380Y-139644285D02*
X82172380Y-139644285D01*
X82172380Y-139263333D01*
X82220000Y-139168095D01*
X82267619Y-139120476D01*
X82362857Y-139072857D01*
X82505714Y-139072857D01*
X82600952Y-139120476D01*
X82648571Y-139168095D01*
X82696190Y-139263333D01*
X82696190Y-139644285D01*
X83172380Y-138120476D02*
X83172380Y-138691904D01*
X83172380Y-138406190D02*
X82172380Y-138406190D01*
X82315238Y-138501428D01*
X82410476Y-138596666D01*
X82458095Y-138691904D01*
X82172380Y-137787142D02*
X82172380Y-137120476D01*
X83172380Y-137549047D01*
G04 #@! TO.C,R16*
X73012380Y-139072857D02*
X72536190Y-139406190D01*
X73012380Y-139644285D02*
X72012380Y-139644285D01*
X72012380Y-139263333D01*
X72060000Y-139168095D01*
X72107619Y-139120476D01*
X72202857Y-139072857D01*
X72345714Y-139072857D01*
X72440952Y-139120476D01*
X72488571Y-139168095D01*
X72536190Y-139263333D01*
X72536190Y-139644285D01*
X73012380Y-138120476D02*
X73012380Y-138691904D01*
X73012380Y-138406190D02*
X72012380Y-138406190D01*
X72155238Y-138501428D01*
X72250476Y-138596666D01*
X72298095Y-138691904D01*
X72012380Y-137263333D02*
X72012380Y-137453809D01*
X72060000Y-137549047D01*
X72107619Y-137596666D01*
X72250476Y-137691904D01*
X72440952Y-137739523D01*
X72821904Y-137739523D01*
X72917142Y-137691904D01*
X72964761Y-137644285D01*
X73012380Y-137549047D01*
X73012380Y-137358571D01*
X72964761Y-137263333D01*
X72917142Y-137215714D01*
X72821904Y-137168095D01*
X72583809Y-137168095D01*
X72488571Y-137215714D01*
X72440952Y-137263333D01*
X72393333Y-137358571D01*
X72393333Y-137549047D01*
X72440952Y-137644285D01*
X72488571Y-137691904D01*
X72583809Y-137739523D01*
G04 #@! TO.C,R15*
X62852380Y-139072857D02*
X62376190Y-139406190D01*
X62852380Y-139644285D02*
X61852380Y-139644285D01*
X61852380Y-139263333D01*
X61900000Y-139168095D01*
X61947619Y-139120476D01*
X62042857Y-139072857D01*
X62185714Y-139072857D01*
X62280952Y-139120476D01*
X62328571Y-139168095D01*
X62376190Y-139263333D01*
X62376190Y-139644285D01*
X62852380Y-138120476D02*
X62852380Y-138691904D01*
X62852380Y-138406190D02*
X61852380Y-138406190D01*
X61995238Y-138501428D01*
X62090476Y-138596666D01*
X62138095Y-138691904D01*
X61852380Y-137215714D02*
X61852380Y-137691904D01*
X62328571Y-137739523D01*
X62280952Y-137691904D01*
X62233333Y-137596666D01*
X62233333Y-137358571D01*
X62280952Y-137263333D01*
X62328571Y-137215714D01*
X62423809Y-137168095D01*
X62661904Y-137168095D01*
X62757142Y-137215714D01*
X62804761Y-137263333D01*
X62852380Y-137358571D01*
X62852380Y-137596666D01*
X62804761Y-137691904D01*
X62757142Y-137739523D01*
G04 #@! TO.C,R14*
X52692380Y-139072857D02*
X52216190Y-139406190D01*
X52692380Y-139644285D02*
X51692380Y-139644285D01*
X51692380Y-139263333D01*
X51740000Y-139168095D01*
X51787619Y-139120476D01*
X51882857Y-139072857D01*
X52025714Y-139072857D01*
X52120952Y-139120476D01*
X52168571Y-139168095D01*
X52216190Y-139263333D01*
X52216190Y-139644285D01*
X52692380Y-138120476D02*
X52692380Y-138691904D01*
X52692380Y-138406190D02*
X51692380Y-138406190D01*
X51835238Y-138501428D01*
X51930476Y-138596666D01*
X51978095Y-138691904D01*
X52025714Y-137263333D02*
X52692380Y-137263333D01*
X51644761Y-137501428D02*
X52359047Y-137739523D01*
X52359047Y-137120476D01*
G04 #@! TO.C,R13*
X42532380Y-139072857D02*
X42056190Y-139406190D01*
X42532380Y-139644285D02*
X41532380Y-139644285D01*
X41532380Y-139263333D01*
X41580000Y-139168095D01*
X41627619Y-139120476D01*
X41722857Y-139072857D01*
X41865714Y-139072857D01*
X41960952Y-139120476D01*
X42008571Y-139168095D01*
X42056190Y-139263333D01*
X42056190Y-139644285D01*
X42532380Y-138120476D02*
X42532380Y-138691904D01*
X42532380Y-138406190D02*
X41532380Y-138406190D01*
X41675238Y-138501428D01*
X41770476Y-138596666D01*
X41818095Y-138691904D01*
X41532380Y-137787142D02*
X41532380Y-137168095D01*
X41913333Y-137501428D01*
X41913333Y-137358571D01*
X41960952Y-137263333D01*
X42008571Y-137215714D01*
X42103809Y-137168095D01*
X42341904Y-137168095D01*
X42437142Y-137215714D01*
X42484761Y-137263333D01*
X42532380Y-137358571D01*
X42532380Y-137644285D01*
X42484761Y-137739523D01*
X42437142Y-137787142D01*
G04 #@! TO.C,R12*
X32372380Y-139072857D02*
X31896190Y-139406190D01*
X32372380Y-139644285D02*
X31372380Y-139644285D01*
X31372380Y-139263333D01*
X31420000Y-139168095D01*
X31467619Y-139120476D01*
X31562857Y-139072857D01*
X31705714Y-139072857D01*
X31800952Y-139120476D01*
X31848571Y-139168095D01*
X31896190Y-139263333D01*
X31896190Y-139644285D01*
X32372380Y-138120476D02*
X32372380Y-138691904D01*
X32372380Y-138406190D02*
X31372380Y-138406190D01*
X31515238Y-138501428D01*
X31610476Y-138596666D01*
X31658095Y-138691904D01*
X31467619Y-137739523D02*
X31420000Y-137691904D01*
X31372380Y-137596666D01*
X31372380Y-137358571D01*
X31420000Y-137263333D01*
X31467619Y-137215714D01*
X31562857Y-137168095D01*
X31658095Y-137168095D01*
X31800952Y-137215714D01*
X32372380Y-137787142D01*
X32372380Y-137168095D01*
G04 #@! TO.C,DS1*
X101182380Y-158454285D02*
X100182380Y-158454285D01*
X100182380Y-158216190D01*
X100230000Y-158073333D01*
X100325238Y-157978095D01*
X100420476Y-157930476D01*
X100610952Y-157882857D01*
X100753809Y-157882857D01*
X100944285Y-157930476D01*
X101039523Y-157978095D01*
X101134761Y-158073333D01*
X101182380Y-158216190D01*
X101182380Y-158454285D01*
X101134761Y-157501904D02*
X101182380Y-157359047D01*
X101182380Y-157120952D01*
X101134761Y-157025714D01*
X101087142Y-156978095D01*
X100991904Y-156930476D01*
X100896666Y-156930476D01*
X100801428Y-156978095D01*
X100753809Y-157025714D01*
X100706190Y-157120952D01*
X100658571Y-157311428D01*
X100610952Y-157406666D01*
X100563333Y-157454285D01*
X100468095Y-157501904D01*
X100372857Y-157501904D01*
X100277619Y-157454285D01*
X100230000Y-157406666D01*
X100182380Y-157311428D01*
X100182380Y-157073333D01*
X100230000Y-156930476D01*
X101182380Y-155978095D02*
X101182380Y-156549523D01*
X101182380Y-156263809D02*
X100182380Y-156263809D01*
X100325238Y-156359047D01*
X100420476Y-156454285D01*
X100468095Y-156549523D01*
G04 #@! TO.C,D16*
X92742380Y-129484285D02*
X91742380Y-129484285D01*
X91742380Y-129246190D01*
X91790000Y-129103333D01*
X91885238Y-129008095D01*
X91980476Y-128960476D01*
X92170952Y-128912857D01*
X92313809Y-128912857D01*
X92504285Y-128960476D01*
X92599523Y-129008095D01*
X92694761Y-129103333D01*
X92742380Y-129246190D01*
X92742380Y-129484285D01*
X92742380Y-127960476D02*
X92742380Y-128531904D01*
X92742380Y-128246190D02*
X91742380Y-128246190D01*
X91885238Y-128341428D01*
X91980476Y-128436666D01*
X92028095Y-128531904D01*
X91742380Y-127103333D02*
X91742380Y-127293809D01*
X91790000Y-127389047D01*
X91837619Y-127436666D01*
X91980476Y-127531904D01*
X92170952Y-127579523D01*
X92551904Y-127579523D01*
X92647142Y-127531904D01*
X92694761Y-127484285D01*
X92742380Y-127389047D01*
X92742380Y-127198571D01*
X92694761Y-127103333D01*
X92647142Y-127055714D01*
X92551904Y-127008095D01*
X92313809Y-127008095D01*
X92218571Y-127055714D01*
X92170952Y-127103333D01*
X92123333Y-127198571D01*
X92123333Y-127389047D01*
X92170952Y-127484285D01*
X92218571Y-127531904D01*
X92313809Y-127579523D01*
G04 #@! TO.C,D15*
X82582380Y-129484285D02*
X81582380Y-129484285D01*
X81582380Y-129246190D01*
X81630000Y-129103333D01*
X81725238Y-129008095D01*
X81820476Y-128960476D01*
X82010952Y-128912857D01*
X82153809Y-128912857D01*
X82344285Y-128960476D01*
X82439523Y-129008095D01*
X82534761Y-129103333D01*
X82582380Y-129246190D01*
X82582380Y-129484285D01*
X82582380Y-127960476D02*
X82582380Y-128531904D01*
X82582380Y-128246190D02*
X81582380Y-128246190D01*
X81725238Y-128341428D01*
X81820476Y-128436666D01*
X81868095Y-128531904D01*
X81582380Y-127055714D02*
X81582380Y-127531904D01*
X82058571Y-127579523D01*
X82010952Y-127531904D01*
X81963333Y-127436666D01*
X81963333Y-127198571D01*
X82010952Y-127103333D01*
X82058571Y-127055714D01*
X82153809Y-127008095D01*
X82391904Y-127008095D01*
X82487142Y-127055714D01*
X82534761Y-127103333D01*
X82582380Y-127198571D01*
X82582380Y-127436666D01*
X82534761Y-127531904D01*
X82487142Y-127579523D01*
G04 #@! TO.C,D14*
X72422380Y-129484285D02*
X71422380Y-129484285D01*
X71422380Y-129246190D01*
X71470000Y-129103333D01*
X71565238Y-129008095D01*
X71660476Y-128960476D01*
X71850952Y-128912857D01*
X71993809Y-128912857D01*
X72184285Y-128960476D01*
X72279523Y-129008095D01*
X72374761Y-129103333D01*
X72422380Y-129246190D01*
X72422380Y-129484285D01*
X72422380Y-127960476D02*
X72422380Y-128531904D01*
X72422380Y-128246190D02*
X71422380Y-128246190D01*
X71565238Y-128341428D01*
X71660476Y-128436666D01*
X71708095Y-128531904D01*
X71755714Y-127103333D02*
X72422380Y-127103333D01*
X71374761Y-127341428D02*
X72089047Y-127579523D01*
X72089047Y-126960476D01*
G04 #@! TO.C,D13*
X62262380Y-129484285D02*
X61262380Y-129484285D01*
X61262380Y-129246190D01*
X61310000Y-129103333D01*
X61405238Y-129008095D01*
X61500476Y-128960476D01*
X61690952Y-128912857D01*
X61833809Y-128912857D01*
X62024285Y-128960476D01*
X62119523Y-129008095D01*
X62214761Y-129103333D01*
X62262380Y-129246190D01*
X62262380Y-129484285D01*
X62262380Y-127960476D02*
X62262380Y-128531904D01*
X62262380Y-128246190D02*
X61262380Y-128246190D01*
X61405238Y-128341428D01*
X61500476Y-128436666D01*
X61548095Y-128531904D01*
X61262380Y-127627142D02*
X61262380Y-127008095D01*
X61643333Y-127341428D01*
X61643333Y-127198571D01*
X61690952Y-127103333D01*
X61738571Y-127055714D01*
X61833809Y-127008095D01*
X62071904Y-127008095D01*
X62167142Y-127055714D01*
X62214761Y-127103333D01*
X62262380Y-127198571D01*
X62262380Y-127484285D01*
X62214761Y-127579523D01*
X62167142Y-127627142D01*
G04 #@! TO.C,D12*
X52102380Y-129484285D02*
X51102380Y-129484285D01*
X51102380Y-129246190D01*
X51150000Y-129103333D01*
X51245238Y-129008095D01*
X51340476Y-128960476D01*
X51530952Y-128912857D01*
X51673809Y-128912857D01*
X51864285Y-128960476D01*
X51959523Y-129008095D01*
X52054761Y-129103333D01*
X52102380Y-129246190D01*
X52102380Y-129484285D01*
X52102380Y-127960476D02*
X52102380Y-128531904D01*
X52102380Y-128246190D02*
X51102380Y-128246190D01*
X51245238Y-128341428D01*
X51340476Y-128436666D01*
X51388095Y-128531904D01*
X51197619Y-127579523D02*
X51150000Y-127531904D01*
X51102380Y-127436666D01*
X51102380Y-127198571D01*
X51150000Y-127103333D01*
X51197619Y-127055714D01*
X51292857Y-127008095D01*
X51388095Y-127008095D01*
X51530952Y-127055714D01*
X52102380Y-127627142D01*
X52102380Y-127008095D01*
G04 #@! TO.C,D11*
X41942380Y-129484285D02*
X40942380Y-129484285D01*
X40942380Y-129246190D01*
X40990000Y-129103333D01*
X41085238Y-129008095D01*
X41180476Y-128960476D01*
X41370952Y-128912857D01*
X41513809Y-128912857D01*
X41704285Y-128960476D01*
X41799523Y-129008095D01*
X41894761Y-129103333D01*
X41942380Y-129246190D01*
X41942380Y-129484285D01*
X41942380Y-127960476D02*
X41942380Y-128531904D01*
X41942380Y-128246190D02*
X40942380Y-128246190D01*
X41085238Y-128341428D01*
X41180476Y-128436666D01*
X41228095Y-128531904D01*
X41942380Y-127008095D02*
X41942380Y-127579523D01*
X41942380Y-127293809D02*
X40942380Y-127293809D01*
X41085238Y-127389047D01*
X41180476Y-127484285D01*
X41228095Y-127579523D01*
G04 #@! TO.C,D10*
X31782380Y-129484285D02*
X30782380Y-129484285D01*
X30782380Y-129246190D01*
X30830000Y-129103333D01*
X30925238Y-129008095D01*
X31020476Y-128960476D01*
X31210952Y-128912857D01*
X31353809Y-128912857D01*
X31544285Y-128960476D01*
X31639523Y-129008095D01*
X31734761Y-129103333D01*
X31782380Y-129246190D01*
X31782380Y-129484285D01*
X31782380Y-127960476D02*
X31782380Y-128531904D01*
X31782380Y-128246190D02*
X30782380Y-128246190D01*
X30925238Y-128341428D01*
X31020476Y-128436666D01*
X31068095Y-128531904D01*
X30782380Y-127341428D02*
X30782380Y-127246190D01*
X30830000Y-127150952D01*
X30877619Y-127103333D01*
X30972857Y-127055714D01*
X31163333Y-127008095D01*
X31401428Y-127008095D01*
X31591904Y-127055714D01*
X31687142Y-127103333D01*
X31734761Y-127150952D01*
X31782380Y-127246190D01*
X31782380Y-127341428D01*
X31734761Y-127436666D01*
X31687142Y-127484285D01*
X31591904Y-127531904D01*
X31401428Y-127579523D01*
X31163333Y-127579523D01*
X30972857Y-127531904D01*
X30877619Y-127484285D01*
X30830000Y-127436666D01*
X30782380Y-127341428D01*
G04 #@! TO.C,SW4*
X106876666Y-178584761D02*
X107019523Y-178632380D01*
X107257619Y-178632380D01*
X107352857Y-178584761D01*
X107400476Y-178537142D01*
X107448095Y-178441904D01*
X107448095Y-178346666D01*
X107400476Y-178251428D01*
X107352857Y-178203809D01*
X107257619Y-178156190D01*
X107067142Y-178108571D01*
X106971904Y-178060952D01*
X106924285Y-178013333D01*
X106876666Y-177918095D01*
X106876666Y-177822857D01*
X106924285Y-177727619D01*
X106971904Y-177680000D01*
X107067142Y-177632380D01*
X107305238Y-177632380D01*
X107448095Y-177680000D01*
X107781428Y-177632380D02*
X108019523Y-178632380D01*
X108210000Y-177918095D01*
X108400476Y-178632380D01*
X108638571Y-177632380D01*
X109448095Y-177965714D02*
X109448095Y-178632380D01*
X109210000Y-177584761D02*
X108971904Y-178299047D01*
X109590952Y-178299047D01*
G04 #@! TO.C,D9*
X21622380Y-129008095D02*
X20622380Y-129008095D01*
X20622380Y-128770000D01*
X20670000Y-128627142D01*
X20765238Y-128531904D01*
X20860476Y-128484285D01*
X21050952Y-128436666D01*
X21193809Y-128436666D01*
X21384285Y-128484285D01*
X21479523Y-128531904D01*
X21574761Y-128627142D01*
X21622380Y-128770000D01*
X21622380Y-129008095D01*
X21622380Y-127960476D02*
X21622380Y-127770000D01*
X21574761Y-127674761D01*
X21527142Y-127627142D01*
X21384285Y-127531904D01*
X21193809Y-127484285D01*
X20812857Y-127484285D01*
X20717619Y-127531904D01*
X20670000Y-127579523D01*
X20622380Y-127674761D01*
X20622380Y-127865238D01*
X20670000Y-127960476D01*
X20717619Y-128008095D01*
X20812857Y-128055714D01*
X21050952Y-128055714D01*
X21146190Y-128008095D01*
X21193809Y-127960476D01*
X21241428Y-127865238D01*
X21241428Y-127674761D01*
X21193809Y-127579523D01*
X21146190Y-127531904D01*
X21050952Y-127484285D01*
G04 #@! TO.C,U4*
X167517380Y-161416904D02*
X168326904Y-161416904D01*
X168422142Y-161369285D01*
X168469761Y-161321666D01*
X168517380Y-161226428D01*
X168517380Y-161035952D01*
X168469761Y-160940714D01*
X168422142Y-160893095D01*
X168326904Y-160845476D01*
X167517380Y-160845476D01*
X167850714Y-159940714D02*
X168517380Y-159940714D01*
X167469761Y-160178809D02*
X168184047Y-160416904D01*
X168184047Y-159797857D01*
G04 #@! TO.C,U2*
X84332380Y-189991904D02*
X85141904Y-189991904D01*
X85237142Y-189944285D01*
X85284761Y-189896666D01*
X85332380Y-189801428D01*
X85332380Y-189610952D01*
X85284761Y-189515714D01*
X85237142Y-189468095D01*
X85141904Y-189420476D01*
X84332380Y-189420476D01*
X84427619Y-188991904D02*
X84380000Y-188944285D01*
X84332380Y-188849047D01*
X84332380Y-188610952D01*
X84380000Y-188515714D01*
X84427619Y-188468095D01*
X84522857Y-188420476D01*
X84618095Y-188420476D01*
X84760952Y-188468095D01*
X85332380Y-189039523D01*
X85332380Y-188420476D01*
G04 #@! TO.C,SW1*
X183526666Y-178744761D02*
X183669523Y-178792380D01*
X183907619Y-178792380D01*
X184002857Y-178744761D01*
X184050476Y-178697142D01*
X184098095Y-178601904D01*
X184098095Y-178506666D01*
X184050476Y-178411428D01*
X184002857Y-178363809D01*
X183907619Y-178316190D01*
X183717142Y-178268571D01*
X183621904Y-178220952D01*
X183574285Y-178173333D01*
X183526666Y-178078095D01*
X183526666Y-177982857D01*
X183574285Y-177887619D01*
X183621904Y-177840000D01*
X183717142Y-177792380D01*
X183955238Y-177792380D01*
X184098095Y-177840000D01*
X184431428Y-177792380D02*
X184669523Y-178792380D01*
X184860000Y-178078095D01*
X185050476Y-178792380D01*
X185288571Y-177792380D01*
X186193333Y-178792380D02*
X185621904Y-178792380D01*
X185907619Y-178792380D02*
X185907619Y-177792380D01*
X185812380Y-177935238D01*
X185717142Y-178030476D01*
X185621904Y-178078095D01*
G04 #@! TO.C,SW5*
X193686666Y-187634761D02*
X193829523Y-187682380D01*
X194067619Y-187682380D01*
X194162857Y-187634761D01*
X194210476Y-187587142D01*
X194258095Y-187491904D01*
X194258095Y-187396666D01*
X194210476Y-187301428D01*
X194162857Y-187253809D01*
X194067619Y-187206190D01*
X193877142Y-187158571D01*
X193781904Y-187110952D01*
X193734285Y-187063333D01*
X193686666Y-186968095D01*
X193686666Y-186872857D01*
X193734285Y-186777619D01*
X193781904Y-186730000D01*
X193877142Y-186682380D01*
X194115238Y-186682380D01*
X194258095Y-186730000D01*
X194591428Y-186682380D02*
X194829523Y-187682380D01*
X195020000Y-186968095D01*
X195210476Y-187682380D01*
X195448571Y-186682380D01*
X196305714Y-186682380D02*
X195829523Y-186682380D01*
X195781904Y-187158571D01*
X195829523Y-187110952D01*
X195924761Y-187063333D01*
X196162857Y-187063333D01*
X196258095Y-187110952D01*
X196305714Y-187158571D01*
X196353333Y-187253809D01*
X196353333Y-187491904D01*
X196305714Y-187587142D01*
X196258095Y-187634761D01*
X196162857Y-187682380D01*
X195924761Y-187682380D01*
X195829523Y-187634761D01*
X195781904Y-187587142D01*
G04 #@! TO.C,SW3*
X193686666Y-169854761D02*
X193829523Y-169902380D01*
X194067619Y-169902380D01*
X194162857Y-169854761D01*
X194210476Y-169807142D01*
X194258095Y-169711904D01*
X194258095Y-169616666D01*
X194210476Y-169521428D01*
X194162857Y-169473809D01*
X194067619Y-169426190D01*
X193877142Y-169378571D01*
X193781904Y-169330952D01*
X193734285Y-169283333D01*
X193686666Y-169188095D01*
X193686666Y-169092857D01*
X193734285Y-168997619D01*
X193781904Y-168950000D01*
X193877142Y-168902380D01*
X194115238Y-168902380D01*
X194258095Y-168950000D01*
X194591428Y-168902380D02*
X194829523Y-169902380D01*
X195020000Y-169188095D01*
X195210476Y-169902380D01*
X195448571Y-168902380D01*
X195734285Y-168902380D02*
X196353333Y-168902380D01*
X196020000Y-169283333D01*
X196162857Y-169283333D01*
X196258095Y-169330952D01*
X196305714Y-169378571D01*
X196353333Y-169473809D01*
X196353333Y-169711904D01*
X196305714Y-169807142D01*
X196258095Y-169854761D01*
X196162857Y-169902380D01*
X195877142Y-169902380D01*
X195781904Y-169854761D01*
X195734285Y-169807142D01*
G04 #@! TO.C,SW2*
X203846666Y-178744761D02*
X203989523Y-178792380D01*
X204227619Y-178792380D01*
X204322857Y-178744761D01*
X204370476Y-178697142D01*
X204418095Y-178601904D01*
X204418095Y-178506666D01*
X204370476Y-178411428D01*
X204322857Y-178363809D01*
X204227619Y-178316190D01*
X204037142Y-178268571D01*
X203941904Y-178220952D01*
X203894285Y-178173333D01*
X203846666Y-178078095D01*
X203846666Y-177982857D01*
X203894285Y-177887619D01*
X203941904Y-177840000D01*
X204037142Y-177792380D01*
X204275238Y-177792380D01*
X204418095Y-177840000D01*
X204751428Y-177792380D02*
X204989523Y-178792380D01*
X205180000Y-178078095D01*
X205370476Y-178792380D01*
X205608571Y-177792380D01*
X205941904Y-177887619D02*
X205989523Y-177840000D01*
X206084761Y-177792380D01*
X206322857Y-177792380D01*
X206418095Y-177840000D01*
X206465714Y-177887619D01*
X206513333Y-177982857D01*
X206513333Y-178078095D01*
X206465714Y-178220952D01*
X205894285Y-178792380D01*
X206513333Y-178792380D01*
G04 #@! TO.C,R11*
X146502380Y-195206857D02*
X146026190Y-195540190D01*
X146502380Y-195778285D02*
X145502380Y-195778285D01*
X145502380Y-195397333D01*
X145550000Y-195302095D01*
X145597619Y-195254476D01*
X145692857Y-195206857D01*
X145835714Y-195206857D01*
X145930952Y-195254476D01*
X145978571Y-195302095D01*
X146026190Y-195397333D01*
X146026190Y-195778285D01*
X146502380Y-194254476D02*
X146502380Y-194825904D01*
X146502380Y-194540190D02*
X145502380Y-194540190D01*
X145645238Y-194635428D01*
X145740476Y-194730666D01*
X145788095Y-194825904D01*
X146502380Y-193302095D02*
X146502380Y-193873523D01*
X146502380Y-193587809D02*
X145502380Y-193587809D01*
X145645238Y-193683047D01*
X145740476Y-193778285D01*
X145788095Y-193873523D01*
G04 #@! TO.C,R10*
X139057142Y-183332380D02*
X138723809Y-182856190D01*
X138485714Y-183332380D02*
X138485714Y-182332380D01*
X138866666Y-182332380D01*
X138961904Y-182380000D01*
X139009523Y-182427619D01*
X139057142Y-182522857D01*
X139057142Y-182665714D01*
X139009523Y-182760952D01*
X138961904Y-182808571D01*
X138866666Y-182856190D01*
X138485714Y-182856190D01*
X140009523Y-183332380D02*
X139438095Y-183332380D01*
X139723809Y-183332380D02*
X139723809Y-182332380D01*
X139628571Y-182475238D01*
X139533333Y-182570476D01*
X139438095Y-182618095D01*
X140628571Y-182332380D02*
X140723809Y-182332380D01*
X140819047Y-182380000D01*
X140866666Y-182427619D01*
X140914285Y-182522857D01*
X140961904Y-182713333D01*
X140961904Y-182951428D01*
X140914285Y-183141904D01*
X140866666Y-183237142D01*
X140819047Y-183284761D01*
X140723809Y-183332380D01*
X140628571Y-183332380D01*
X140533333Y-183284761D01*
X140485714Y-183237142D01*
X140438095Y-183141904D01*
X140390476Y-182951428D01*
X140390476Y-182713333D01*
X140438095Y-182522857D01*
X140485714Y-182427619D01*
X140533333Y-182380000D01*
X140628571Y-182332380D01*
G04 #@! TO.C,R9*
X150312380Y-195238666D02*
X149836190Y-195572000D01*
X150312380Y-195810095D02*
X149312380Y-195810095D01*
X149312380Y-195429142D01*
X149360000Y-195333904D01*
X149407619Y-195286285D01*
X149502857Y-195238666D01*
X149645714Y-195238666D01*
X149740952Y-195286285D01*
X149788571Y-195333904D01*
X149836190Y-195429142D01*
X149836190Y-195810095D01*
X150312380Y-194762476D02*
X150312380Y-194572000D01*
X150264761Y-194476761D01*
X150217142Y-194429142D01*
X150074285Y-194333904D01*
X149883809Y-194286285D01*
X149502857Y-194286285D01*
X149407619Y-194333904D01*
X149360000Y-194381523D01*
X149312380Y-194476761D01*
X149312380Y-194667238D01*
X149360000Y-194762476D01*
X149407619Y-194810095D01*
X149502857Y-194857714D01*
X149740952Y-194857714D01*
X149836190Y-194810095D01*
X149883809Y-194762476D01*
X149931428Y-194667238D01*
X149931428Y-194476761D01*
X149883809Y-194381523D01*
X149836190Y-194333904D01*
X149740952Y-194286285D01*
G04 #@! TO.C,R8*
X139533333Y-193492380D02*
X139200000Y-193016190D01*
X138961904Y-193492380D02*
X138961904Y-192492380D01*
X139342857Y-192492380D01*
X139438095Y-192540000D01*
X139485714Y-192587619D01*
X139533333Y-192682857D01*
X139533333Y-192825714D01*
X139485714Y-192920952D01*
X139438095Y-192968571D01*
X139342857Y-193016190D01*
X138961904Y-193016190D01*
X140104761Y-192920952D02*
X140009523Y-192873333D01*
X139961904Y-192825714D01*
X139914285Y-192730476D01*
X139914285Y-192682857D01*
X139961904Y-192587619D01*
X140009523Y-192540000D01*
X140104761Y-192492380D01*
X140295238Y-192492380D01*
X140390476Y-192540000D01*
X140438095Y-192587619D01*
X140485714Y-192682857D01*
X140485714Y-192730476D01*
X140438095Y-192825714D01*
X140390476Y-192873333D01*
X140295238Y-192920952D01*
X140104761Y-192920952D01*
X140009523Y-192968571D01*
X139961904Y-193016190D01*
X139914285Y-193111428D01*
X139914285Y-193301904D01*
X139961904Y-193397142D01*
X140009523Y-193444761D01*
X140104761Y-193492380D01*
X140295238Y-193492380D01*
X140390476Y-193444761D01*
X140438095Y-193397142D01*
X140485714Y-193301904D01*
X140485714Y-193111428D01*
X140438095Y-193016190D01*
X140390476Y-192968571D01*
X140295238Y-192920952D01*
G04 #@! TO.C,R7*
X161742380Y-195238666D02*
X161266190Y-195572000D01*
X161742380Y-195810095D02*
X160742380Y-195810095D01*
X160742380Y-195429142D01*
X160790000Y-195333904D01*
X160837619Y-195286285D01*
X160932857Y-195238666D01*
X161075714Y-195238666D01*
X161170952Y-195286285D01*
X161218571Y-195333904D01*
X161266190Y-195429142D01*
X161266190Y-195810095D01*
X160742380Y-194905333D02*
X160742380Y-194238666D01*
X161742380Y-194667238D01*
G04 #@! TO.C,R6*
X165552380Y-195238666D02*
X165076190Y-195572000D01*
X165552380Y-195810095D02*
X164552380Y-195810095D01*
X164552380Y-195429142D01*
X164600000Y-195333904D01*
X164647619Y-195286285D01*
X164742857Y-195238666D01*
X164885714Y-195238666D01*
X164980952Y-195286285D01*
X165028571Y-195333904D01*
X165076190Y-195429142D01*
X165076190Y-195810095D01*
X164552380Y-194381523D02*
X164552380Y-194572000D01*
X164600000Y-194667238D01*
X164647619Y-194714857D01*
X164790476Y-194810095D01*
X164980952Y-194857714D01*
X165361904Y-194857714D01*
X165457142Y-194810095D01*
X165504761Y-194762476D01*
X165552380Y-194667238D01*
X165552380Y-194476761D01*
X165504761Y-194381523D01*
X165457142Y-194333904D01*
X165361904Y-194286285D01*
X165123809Y-194286285D01*
X165028571Y-194333904D01*
X164980952Y-194381523D01*
X164933333Y-194476761D01*
X164933333Y-194667238D01*
X164980952Y-194762476D01*
X165028571Y-194810095D01*
X165123809Y-194857714D01*
G04 #@! TO.C,R5*
X139533333Y-179522380D02*
X139200000Y-179046190D01*
X138961904Y-179522380D02*
X138961904Y-178522380D01*
X139342857Y-178522380D01*
X139438095Y-178570000D01*
X139485714Y-178617619D01*
X139533333Y-178712857D01*
X139533333Y-178855714D01*
X139485714Y-178950952D01*
X139438095Y-178998571D01*
X139342857Y-179046190D01*
X138961904Y-179046190D01*
X140438095Y-178522380D02*
X139961904Y-178522380D01*
X139914285Y-178998571D01*
X139961904Y-178950952D01*
X140057142Y-178903333D01*
X140295238Y-178903333D01*
X140390476Y-178950952D01*
X140438095Y-178998571D01*
X140485714Y-179093809D01*
X140485714Y-179331904D01*
X140438095Y-179427142D01*
X140390476Y-179474761D01*
X140295238Y-179522380D01*
X140057142Y-179522380D01*
X139961904Y-179474761D01*
X139914285Y-179427142D01*
G04 #@! TO.C,R4*
X154122380Y-195238666D02*
X153646190Y-195572000D01*
X154122380Y-195810095D02*
X153122380Y-195810095D01*
X153122380Y-195429142D01*
X153170000Y-195333904D01*
X153217619Y-195286285D01*
X153312857Y-195238666D01*
X153455714Y-195238666D01*
X153550952Y-195286285D01*
X153598571Y-195333904D01*
X153646190Y-195429142D01*
X153646190Y-195810095D01*
X153455714Y-194381523D02*
X154122380Y-194381523D01*
X153074761Y-194619619D02*
X153789047Y-194857714D01*
X153789047Y-194238666D01*
G04 #@! TO.C,R3*
X157932380Y-195238666D02*
X157456190Y-195572000D01*
X157932380Y-195810095D02*
X156932380Y-195810095D01*
X156932380Y-195429142D01*
X156980000Y-195333904D01*
X157027619Y-195286285D01*
X157122857Y-195238666D01*
X157265714Y-195238666D01*
X157360952Y-195286285D01*
X157408571Y-195333904D01*
X157456190Y-195429142D01*
X157456190Y-195810095D01*
X156932380Y-194905333D02*
X156932380Y-194286285D01*
X157313333Y-194619619D01*
X157313333Y-194476761D01*
X157360952Y-194381523D01*
X157408571Y-194333904D01*
X157503809Y-194286285D01*
X157741904Y-194286285D01*
X157837142Y-194333904D01*
X157884761Y-194381523D01*
X157932380Y-194476761D01*
X157932380Y-194762476D01*
X157884761Y-194857714D01*
X157837142Y-194905333D01*
G04 #@! TO.C,R2*
X169362380Y-195238666D02*
X168886190Y-195572000D01*
X169362380Y-195810095D02*
X168362380Y-195810095D01*
X168362380Y-195429142D01*
X168410000Y-195333904D01*
X168457619Y-195286285D01*
X168552857Y-195238666D01*
X168695714Y-195238666D01*
X168790952Y-195286285D01*
X168838571Y-195333904D01*
X168886190Y-195429142D01*
X168886190Y-195810095D01*
X168457619Y-194857714D02*
X168410000Y-194810095D01*
X168362380Y-194714857D01*
X168362380Y-194476761D01*
X168410000Y-194381523D01*
X168457619Y-194333904D01*
X168552857Y-194286285D01*
X168648095Y-194286285D01*
X168790952Y-194333904D01*
X169362380Y-194905333D01*
X169362380Y-194286285D01*
G04 #@! TO.C,R1*
X173172380Y-195238666D02*
X172696190Y-195572000D01*
X173172380Y-195810095D02*
X172172380Y-195810095D01*
X172172380Y-195429142D01*
X172220000Y-195333904D01*
X172267619Y-195286285D01*
X172362857Y-195238666D01*
X172505714Y-195238666D01*
X172600952Y-195286285D01*
X172648571Y-195333904D01*
X172696190Y-195429142D01*
X172696190Y-195810095D01*
X173172380Y-194286285D02*
X173172380Y-194857714D01*
X173172380Y-194572000D02*
X172172380Y-194572000D01*
X172315238Y-194667238D01*
X172410476Y-194762476D01*
X172458095Y-194857714D01*
G04 #@! TO.C,C7*
X144157142Y-176716666D02*
X144204761Y-176764285D01*
X144252380Y-176907142D01*
X144252380Y-177002380D01*
X144204761Y-177145238D01*
X144109523Y-177240476D01*
X144014285Y-177288095D01*
X143823809Y-177335714D01*
X143680952Y-177335714D01*
X143490476Y-177288095D01*
X143395238Y-177240476D01*
X143300000Y-177145238D01*
X143252380Y-177002380D01*
X143252380Y-176907142D01*
X143300000Y-176764285D01*
X143347619Y-176716666D01*
X143252380Y-176383333D02*
X143252380Y-175716666D01*
X144252380Y-176145238D01*
G04 #@! TO.C,C6*
X130643333Y-190857142D02*
X130595714Y-190904761D01*
X130452857Y-190952380D01*
X130357619Y-190952380D01*
X130214761Y-190904761D01*
X130119523Y-190809523D01*
X130071904Y-190714285D01*
X130024285Y-190523809D01*
X130024285Y-190380952D01*
X130071904Y-190190476D01*
X130119523Y-190095238D01*
X130214761Y-190000000D01*
X130357619Y-189952380D01*
X130452857Y-189952380D01*
X130595714Y-190000000D01*
X130643333Y-190047619D01*
X131500476Y-189952380D02*
X131310000Y-189952380D01*
X131214761Y-190000000D01*
X131167142Y-190047619D01*
X131071904Y-190190476D01*
X131024285Y-190380952D01*
X131024285Y-190761904D01*
X131071904Y-190857142D01*
X131119523Y-190904761D01*
X131214761Y-190952380D01*
X131405238Y-190952380D01*
X131500476Y-190904761D01*
X131548095Y-190857142D01*
X131595714Y-190761904D01*
X131595714Y-190523809D01*
X131548095Y-190428571D01*
X131500476Y-190380952D01*
X131405238Y-190333333D01*
X131214761Y-190333333D01*
X131119523Y-190380952D01*
X131071904Y-190428571D01*
X131024285Y-190523809D01*
G04 #@! TO.C,C5*
X124293333Y-190857142D02*
X124245714Y-190904761D01*
X124102857Y-190952380D01*
X124007619Y-190952380D01*
X123864761Y-190904761D01*
X123769523Y-190809523D01*
X123721904Y-190714285D01*
X123674285Y-190523809D01*
X123674285Y-190380952D01*
X123721904Y-190190476D01*
X123769523Y-190095238D01*
X123864761Y-190000000D01*
X124007619Y-189952380D01*
X124102857Y-189952380D01*
X124245714Y-190000000D01*
X124293333Y-190047619D01*
X125198095Y-189952380D02*
X124721904Y-189952380D01*
X124674285Y-190428571D01*
X124721904Y-190380952D01*
X124817142Y-190333333D01*
X125055238Y-190333333D01*
X125150476Y-190380952D01*
X125198095Y-190428571D01*
X125245714Y-190523809D01*
X125245714Y-190761904D01*
X125198095Y-190857142D01*
X125150476Y-190904761D01*
X125055238Y-190952380D01*
X124817142Y-190952380D01*
X124721904Y-190904761D01*
X124674285Y-190857142D01*
G04 #@! TO.C,C4*
X159397142Y-176716666D02*
X159444761Y-176764285D01*
X159492380Y-176907142D01*
X159492380Y-177002380D01*
X159444761Y-177145238D01*
X159349523Y-177240476D01*
X159254285Y-177288095D01*
X159063809Y-177335714D01*
X158920952Y-177335714D01*
X158730476Y-177288095D01*
X158635238Y-177240476D01*
X158540000Y-177145238D01*
X158492380Y-177002380D01*
X158492380Y-176907142D01*
X158540000Y-176764285D01*
X158587619Y-176716666D01*
X158825714Y-175859523D02*
X159492380Y-175859523D01*
X158444761Y-176097619D02*
X159159047Y-176335714D01*
X159159047Y-175716666D01*
G04 #@! TO.C,C3*
X139533333Y-190857142D02*
X139485714Y-190904761D01*
X139342857Y-190952380D01*
X139247619Y-190952380D01*
X139104761Y-190904761D01*
X139009523Y-190809523D01*
X138961904Y-190714285D01*
X138914285Y-190523809D01*
X138914285Y-190380952D01*
X138961904Y-190190476D01*
X139009523Y-190095238D01*
X139104761Y-190000000D01*
X139247619Y-189952380D01*
X139342857Y-189952380D01*
X139485714Y-190000000D01*
X139533333Y-190047619D01*
X139866666Y-189952380D02*
X140485714Y-189952380D01*
X140152380Y-190333333D01*
X140295238Y-190333333D01*
X140390476Y-190380952D01*
X140438095Y-190428571D01*
X140485714Y-190523809D01*
X140485714Y-190761904D01*
X140438095Y-190857142D01*
X140390476Y-190904761D01*
X140295238Y-190952380D01*
X140009523Y-190952380D01*
X139914285Y-190904761D01*
X139866666Y-190857142D01*
G04 #@! TO.C,C2*
X151777142Y-176716666D02*
X151824761Y-176764285D01*
X151872380Y-176907142D01*
X151872380Y-177002380D01*
X151824761Y-177145238D01*
X151729523Y-177240476D01*
X151634285Y-177288095D01*
X151443809Y-177335714D01*
X151300952Y-177335714D01*
X151110476Y-177288095D01*
X151015238Y-177240476D01*
X150920000Y-177145238D01*
X150872380Y-177002380D01*
X150872380Y-176907142D01*
X150920000Y-176764285D01*
X150967619Y-176716666D01*
X150967619Y-176335714D02*
X150920000Y-176288095D01*
X150872380Y-176192857D01*
X150872380Y-175954761D01*
X150920000Y-175859523D01*
X150967619Y-175811904D01*
X151062857Y-175764285D01*
X151158095Y-175764285D01*
X151300952Y-175811904D01*
X151872380Y-176383333D01*
X151872380Y-175764285D01*
G04 #@! TO.C,C1*
X167017142Y-176716666D02*
X167064761Y-176764285D01*
X167112380Y-176907142D01*
X167112380Y-177002380D01*
X167064761Y-177145238D01*
X166969523Y-177240476D01*
X166874285Y-177288095D01*
X166683809Y-177335714D01*
X166540952Y-177335714D01*
X166350476Y-177288095D01*
X166255238Y-177240476D01*
X166160000Y-177145238D01*
X166112380Y-177002380D01*
X166112380Y-176907142D01*
X166160000Y-176764285D01*
X166207619Y-176716666D01*
X167112380Y-175764285D02*
X167112380Y-176335714D01*
X167112380Y-176050000D02*
X166112380Y-176050000D01*
X166255238Y-176145238D01*
X166350476Y-176240476D01*
X166398095Y-176335714D01*
G04 #@! TO.C,D8*
X94511904Y-116332380D02*
X94511904Y-115332380D01*
X94750000Y-115332380D01*
X94892857Y-115380000D01*
X94988095Y-115475238D01*
X95035714Y-115570476D01*
X95083333Y-115760952D01*
X95083333Y-115903809D01*
X95035714Y-116094285D01*
X94988095Y-116189523D01*
X94892857Y-116284761D01*
X94750000Y-116332380D01*
X94511904Y-116332380D01*
X95654761Y-115760952D02*
X95559523Y-115713333D01*
X95511904Y-115665714D01*
X95464285Y-115570476D01*
X95464285Y-115522857D01*
X95511904Y-115427619D01*
X95559523Y-115380000D01*
X95654761Y-115332380D01*
X95845238Y-115332380D01*
X95940476Y-115380000D01*
X95988095Y-115427619D01*
X96035714Y-115522857D01*
X96035714Y-115570476D01*
X95988095Y-115665714D01*
X95940476Y-115713333D01*
X95845238Y-115760952D01*
X95654761Y-115760952D01*
X95559523Y-115808571D01*
X95511904Y-115856190D01*
X95464285Y-115951428D01*
X95464285Y-116141904D01*
X95511904Y-116237142D01*
X95559523Y-116284761D01*
X95654761Y-116332380D01*
X95845238Y-116332380D01*
X95940476Y-116284761D01*
X95988095Y-116237142D01*
X96035714Y-116141904D01*
X96035714Y-115951428D01*
X95988095Y-115856190D01*
X95940476Y-115808571D01*
X95845238Y-115760952D01*
G04 #@! TO.C,D7*
X84351904Y-116332380D02*
X84351904Y-115332380D01*
X84590000Y-115332380D01*
X84732857Y-115380000D01*
X84828095Y-115475238D01*
X84875714Y-115570476D01*
X84923333Y-115760952D01*
X84923333Y-115903809D01*
X84875714Y-116094285D01*
X84828095Y-116189523D01*
X84732857Y-116284761D01*
X84590000Y-116332380D01*
X84351904Y-116332380D01*
X85256666Y-115332380D02*
X85923333Y-115332380D01*
X85494761Y-116332380D01*
G04 #@! TO.C,D6*
X74191904Y-116332380D02*
X74191904Y-115332380D01*
X74430000Y-115332380D01*
X74572857Y-115380000D01*
X74668095Y-115475238D01*
X74715714Y-115570476D01*
X74763333Y-115760952D01*
X74763333Y-115903809D01*
X74715714Y-116094285D01*
X74668095Y-116189523D01*
X74572857Y-116284761D01*
X74430000Y-116332380D01*
X74191904Y-116332380D01*
X75620476Y-115332380D02*
X75430000Y-115332380D01*
X75334761Y-115380000D01*
X75287142Y-115427619D01*
X75191904Y-115570476D01*
X75144285Y-115760952D01*
X75144285Y-116141904D01*
X75191904Y-116237142D01*
X75239523Y-116284761D01*
X75334761Y-116332380D01*
X75525238Y-116332380D01*
X75620476Y-116284761D01*
X75668095Y-116237142D01*
X75715714Y-116141904D01*
X75715714Y-115903809D01*
X75668095Y-115808571D01*
X75620476Y-115760952D01*
X75525238Y-115713333D01*
X75334761Y-115713333D01*
X75239523Y-115760952D01*
X75191904Y-115808571D01*
X75144285Y-115903809D01*
G04 #@! TO.C,D5*
X64031904Y-116332380D02*
X64031904Y-115332380D01*
X64270000Y-115332380D01*
X64412857Y-115380000D01*
X64508095Y-115475238D01*
X64555714Y-115570476D01*
X64603333Y-115760952D01*
X64603333Y-115903809D01*
X64555714Y-116094285D01*
X64508095Y-116189523D01*
X64412857Y-116284761D01*
X64270000Y-116332380D01*
X64031904Y-116332380D01*
X65508095Y-115332380D02*
X65031904Y-115332380D01*
X64984285Y-115808571D01*
X65031904Y-115760952D01*
X65127142Y-115713333D01*
X65365238Y-115713333D01*
X65460476Y-115760952D01*
X65508095Y-115808571D01*
X65555714Y-115903809D01*
X65555714Y-116141904D01*
X65508095Y-116237142D01*
X65460476Y-116284761D01*
X65365238Y-116332380D01*
X65127142Y-116332380D01*
X65031904Y-116284761D01*
X64984285Y-116237142D01*
G04 #@! TO.C,D4*
X53871904Y-116332380D02*
X53871904Y-115332380D01*
X54110000Y-115332380D01*
X54252857Y-115380000D01*
X54348095Y-115475238D01*
X54395714Y-115570476D01*
X54443333Y-115760952D01*
X54443333Y-115903809D01*
X54395714Y-116094285D01*
X54348095Y-116189523D01*
X54252857Y-116284761D01*
X54110000Y-116332380D01*
X53871904Y-116332380D01*
X55300476Y-115665714D02*
X55300476Y-116332380D01*
X55062380Y-115284761D02*
X54824285Y-115999047D01*
X55443333Y-115999047D01*
G04 #@! TO.C,D3*
X43711904Y-116332380D02*
X43711904Y-115332380D01*
X43950000Y-115332380D01*
X44092857Y-115380000D01*
X44188095Y-115475238D01*
X44235714Y-115570476D01*
X44283333Y-115760952D01*
X44283333Y-115903809D01*
X44235714Y-116094285D01*
X44188095Y-116189523D01*
X44092857Y-116284761D01*
X43950000Y-116332380D01*
X43711904Y-116332380D01*
X44616666Y-115332380D02*
X45235714Y-115332380D01*
X44902380Y-115713333D01*
X45045238Y-115713333D01*
X45140476Y-115760952D01*
X45188095Y-115808571D01*
X45235714Y-115903809D01*
X45235714Y-116141904D01*
X45188095Y-116237142D01*
X45140476Y-116284761D01*
X45045238Y-116332380D01*
X44759523Y-116332380D01*
X44664285Y-116284761D01*
X44616666Y-116237142D01*
G04 #@! TO.C,D2*
X33551904Y-116332380D02*
X33551904Y-115332380D01*
X33790000Y-115332380D01*
X33932857Y-115380000D01*
X34028095Y-115475238D01*
X34075714Y-115570476D01*
X34123333Y-115760952D01*
X34123333Y-115903809D01*
X34075714Y-116094285D01*
X34028095Y-116189523D01*
X33932857Y-116284761D01*
X33790000Y-116332380D01*
X33551904Y-116332380D01*
X34504285Y-115427619D02*
X34551904Y-115380000D01*
X34647142Y-115332380D01*
X34885238Y-115332380D01*
X34980476Y-115380000D01*
X35028095Y-115427619D01*
X35075714Y-115522857D01*
X35075714Y-115618095D01*
X35028095Y-115760952D01*
X34456666Y-116332380D01*
X35075714Y-116332380D01*
G04 #@! TO.C,D1*
X23391904Y-116332380D02*
X23391904Y-115332380D01*
X23630000Y-115332380D01*
X23772857Y-115380000D01*
X23868095Y-115475238D01*
X23915714Y-115570476D01*
X23963333Y-115760952D01*
X23963333Y-115903809D01*
X23915714Y-116094285D01*
X23868095Y-116189523D01*
X23772857Y-116284761D01*
X23630000Y-116332380D01*
X23391904Y-116332380D01*
X24915714Y-116332380D02*
X24344285Y-116332380D01*
X24630000Y-116332380D02*
X24630000Y-115332380D01*
X24534761Y-115475238D01*
X24439523Y-115570476D01*
X24344285Y-115618095D01*
G04 #@! TO.C,A1*
X31035714Y-150026666D02*
X31511904Y-150026666D01*
X30940476Y-150312380D02*
X31273809Y-149312380D01*
X31607142Y-150312380D01*
X32464285Y-150312380D02*
X31892857Y-150312380D01*
X32178571Y-150312380D02*
X32178571Y-149312380D01*
X32083333Y-149455238D01*
X31988095Y-149550476D01*
X31892857Y-149598095D01*
G04 #@! TD*
M02*
