M48
; DRILL file {KiCad (5.1.6)-1} date 05/23/20 11:28:28
; FORMAT={3:3/ absolute / metric / suppress leading zeros}
; #@! TF.CreationDate,2020-05-23T11:28:28-07:00
; #@! TF.GenerationSoftware,Kicad,Pcbnew,(5.1.6)-1
FMAT,2
METRIC,TZ
T1C0.400
T2C0.800
T3C0.900
T4C1.000
T5C1.100
T6C1.500
%
G90
G05
T1
X21590Y-123825
X26162Y-121158
X26924Y-120904
X36322Y-121158
X37084Y-120904
X37338Y-156972
X41402Y-175514
X41656Y-167640
X46482Y-121158
X47244Y-120904
X51435Y-146685
X54610Y-188214
X54610Y-192786
X56642Y-121158
X57404Y-120904
X59055Y-160655
X59813Y-150228
X60325Y-191135
X60325Y-195580
X60520Y-150935
X65460Y-153802
X66802Y-121158
X67564Y-120904
X69342Y-187452
X69850Y-191135
X70739Y-188849
X72009Y-190119
X72390Y-194945
X76962Y-121158
X77724Y-120904
X85090Y-160655
X87122Y-121158
X87884Y-120904
X93269Y-152721
X93345Y-184150
X94615Y-182880
X97282Y-121158
X98044Y-120904
X98555Y-179965
X99785Y-177165
X100330Y-146685
X100330Y-147955
X100330Y-175895
X100330Y-180340
X108420Y-178475
X108585Y-187960
X128270Y-153670
X128982Y-168185
X128995Y-161290
X139120Y-179278
X139700Y-189865
X141192Y-179410
X143764Y-159512
X143764Y-164846
X147828Y-152654
X149237Y-171597
X151765Y-189865
X153035Y-179705
X154305Y-154305
X154596Y-130990
X155575Y-194310
X156300Y-172085
X156845Y-160655
X157152Y-130795
X159290Y-172275
X159385Y-195580
X161290Y-171540
X163361Y-130345
X166460Y-147955
X166824Y-129895
X167640Y-161925
X168910Y-146685
X170180Y-150495
X172085Y-127635
X174625Y-127000
X177165Y-164465
X177237Y-169635
X179705Y-170815
X182245Y-128270
X184785Y-168910
T2
X161290Y-175300
X161290Y-177800
X64770Y-185420
X64770Y-193040
X67310Y-185420
X67310Y-193040
X69850Y-185420
X69850Y-193040
X72390Y-185420
X72390Y-193040
X74930Y-185420
X74930Y-193040
X77470Y-185420
X77470Y-193040
X80010Y-185420
X80010Y-193040
X82550Y-185420
X82550Y-193040
X109220Y-161290
X109220Y-171450
X127000Y-186730
X127000Y-189230
X147955Y-156845
X147955Y-164465
X150495Y-156845
X150495Y-164465
X153035Y-156845
X153035Y-164465
X155575Y-156845
X155575Y-164465
X158115Y-156845
X158115Y-164465
X160655Y-156845
X160655Y-164465
X163195Y-156845
X163195Y-164465
X165735Y-156845
X165735Y-164465
X76200Y-166370
X76200Y-176530
X106680Y-128270
X106680Y-138430
X95250Y-133350
X95250Y-143510
X114300Y-161290
X114300Y-171450
X127000Y-182880
X137160Y-182880
X172720Y-181610
X172720Y-191770
X106680Y-161290
X106680Y-171450
X161290Y-181610
X161290Y-191770
X80010Y-166370
X80010Y-176530
X64770Y-133350
X64770Y-143510
X124460Y-161290
X124460Y-171450
X104140Y-161290
X104140Y-171450
X146050Y-181610
X146050Y-191770
X74930Y-133350
X74930Y-143510
X44450Y-133350
X44450Y-143510
X119380Y-128270
X119380Y-138430
X172085Y-156845
X172085Y-164465
X174625Y-156845
X174625Y-164465
X177165Y-156845
X177165Y-164465
X179705Y-156845
X179705Y-164465
X182245Y-156845
X182245Y-164465
X184785Y-156845
X184785Y-164465
X187325Y-156845
X187325Y-164465
X189865Y-156845
X189865Y-164465
X168910Y-175300
X168910Y-177800
X157480Y-181610
X157480Y-191770
X111760Y-161290
X111760Y-171450
X153670Y-175300
X153670Y-177800
X127000Y-193040
X137160Y-193040
X64770Y-151130
X64770Y-158750
X67310Y-151130
X67310Y-158750
X69850Y-151130
X69850Y-158750
X72390Y-151130
X72390Y-158750
X74930Y-151130
X74930Y-158750
X77470Y-151130
X77470Y-158750
X80010Y-151130
X80010Y-158750
X82550Y-151130
X82550Y-158750
X85090Y-151130
X85090Y-158750
X85090Y-133350
X85090Y-143510
X119380Y-161290
X119380Y-171450
X133350Y-151130
X133350Y-153670
X133350Y-156210
X133350Y-158750
X133350Y-161290
X133350Y-163830
X133350Y-166370
X140970Y-151130
X140970Y-153670
X140970Y-156210
X140970Y-158750
X140970Y-161290
X140970Y-163830
X140970Y-166370
X124460Y-128270
X124460Y-138430
X168910Y-181610
X168910Y-191770
X83820Y-166370
X83820Y-176530
X153670Y-181610
X153670Y-191770
X149860Y-181610
X149860Y-191770
X34290Y-133350
X34290Y-143510
X60960Y-166370
X60960Y-176530
X64770Y-166370
X64770Y-176530
X146050Y-175300
X146050Y-177800
X111760Y-128270
X111760Y-138430
X127000Y-179070
X137160Y-179070
X109220Y-128270
X109220Y-138430
X87630Y-166370
X87630Y-176530
X68580Y-166370
X68580Y-176530
X54610Y-133350
X54610Y-143510
X121920Y-128270
X121920Y-138430
X116840Y-161290
X116840Y-171450
X137160Y-186730
X137160Y-189230
X165100Y-181610
X165100Y-191770
X104140Y-128270
X104140Y-138430
X132080Y-186730
X132080Y-189230
X72390Y-166370
X72390Y-176530
X24130Y-133350
X24130Y-143510
X121920Y-161290
X121920Y-171450
T3
X34290Y-127000
X34290Y-129540
X44450Y-127000
X44450Y-129540
X74930Y-127000
X74930Y-129540
X54610Y-127000
X54610Y-129540
X85090Y-127000
X85090Y-129540
X24130Y-127000
X24130Y-129540
X64770Y-127000
X64770Y-129540
X95250Y-127000
X95250Y-129540
T4
X46990Y-190930
X49530Y-190930
X52070Y-190930
X54610Y-190930
X46990Y-195580
X49530Y-195580
X52070Y-195580
X54610Y-195580
X161290Y-118110
X163830Y-118110
X166370Y-118110
X168910Y-118110
X105410Y-182880
X105410Y-185380
X105410Y-187880
X119910Y-182880
X119910Y-187880
X50038Y-152226
X50038Y-157226
X55038Y-154726
X46990Y-181630
X49530Y-181630
X52070Y-181630
X54610Y-181630
X50038Y-161116
X50038Y-166116
X55038Y-163616
X104140Y-142240
X104140Y-157480
X106680Y-142240
X106680Y-157480
X109220Y-142240
X109220Y-157480
X111760Y-142240
X111760Y-157480
X114300Y-142240
X114300Y-157480
X116840Y-142240
X116840Y-157480
X119380Y-142240
X119380Y-157480
X121920Y-142240
X121920Y-157480
X124460Y-142240
X124460Y-157480
X50038Y-170768
X50038Y-175768
X55038Y-173268
X24130Y-154940
X24130Y-157480
X24130Y-160020
X24130Y-162560
X24130Y-165100
X24130Y-167640
X24130Y-170180
X24130Y-172720
X24130Y-175260
X24130Y-177800
X24130Y-180340
X24130Y-182880
X24130Y-185420
X24130Y-187960
X24130Y-190500
X39370Y-154940
X39370Y-157480
X39370Y-160020
X39370Y-162560
X39370Y-165100
X39370Y-167640
X39370Y-170180
X39370Y-172720
X39370Y-175260
X39370Y-177800
X39370Y-180340
X39370Y-182880
X39370Y-185420
X39370Y-187960
X39370Y-190500
X46990Y-186280
X49530Y-186280
X52070Y-186280
X54610Y-186280
T5
X191770Y-189230
X191770Y-193730
X198270Y-189230
X198270Y-193730
X191770Y-171450
X191770Y-175950
X198270Y-171450
X198270Y-175950
X201930Y-180340
X201930Y-184840
X208430Y-180340
X208430Y-184840
X181610Y-180340
X181610Y-184840
X188110Y-180340
X188110Y-184840
T6
G00X112260Y-179780
M15
G01X113560Y-179780
M16
G05
G00X112260Y-190980
M15
G01X113560Y-190980
M16
G05
T0
M30
