G04 #@! TF.GenerationSoftware,KiCad,Pcbnew,(5.1.6)-1*
G04 #@! TF.CreationDate,2020-07-02T20:23:52-07:00*
G04 #@! TF.ProjectId,NanoDemo,4e616e6f-4465-46d6-9f2e-6b696361645f,rev?*
G04 #@! TF.SameCoordinates,Original*
G04 #@! TF.FileFunction,Soldermask,Bot*
G04 #@! TF.FilePolarity,Negative*
%FSLAX46Y46*%
G04 Gerber Fmt 4.6, Leading zero omitted, Abs format (unit mm)*
G04 Created by KiCad (PCBNEW (5.1.6)-1) date 2020-07-02 20:23:52*
%MOMM*%
%LPD*%
G01*
G04 APERTURE LIST*
%ADD10R,1.800000X1.800000*%
%ADD11O,1.800000X1.800000*%
%ADD12C,1.900000*%
%ADD13O,1.700000X1.700000*%
%ADD14R,1.700000X1.700000*%
%ADD15R,1.150000X1.600000*%
%ADD16O,1.150000X1.600000*%
%ADD17C,2.100000*%
%ADD18C,1.650000*%
%ADD19R,1.650000X1.650000*%
%ADD20R,2.100000X2.100000*%
%ADD21R,3.300000X2.100000*%
%ADD22C,1.600000*%
%ADD23C,1.700000*%
%ADD24R,1.600000X1.600000*%
%ADD25R,1.900000X1.900000*%
G04 APERTURE END LIST*
D10*
G04 #@! TO.C,Accl. Int.*
X43434000Y-81534000D03*
G04 #@! TD*
D11*
G04 #@! TO.C,Support*
X97790000Y-47752000D03*
X100330000Y-47752000D03*
X102870000Y-47752000D03*
D10*
X105410000Y-47752000D03*
G04 #@! TD*
D11*
G04 #@! TO.C,J6*
X20066000Y-66040000D03*
D10*
X20066000Y-68580000D03*
G04 #@! TD*
D11*
G04 #@! TO.C,J5*
X102870000Y-27051000D03*
D10*
X105410000Y-27051000D03*
D11*
X97790000Y-27051000D03*
X100330000Y-27051000D03*
G04 #@! TD*
D12*
G04 #@! TO.C,U6*
X83820000Y-20320000D03*
X86360000Y-20320000D03*
G36*
G01*
X89850000Y-19634100D02*
X89850000Y-21005900D01*
G75*
G02*
X89585900Y-21270000I-264100J0D01*
G01*
X88214100Y-21270000D01*
G75*
G02*
X87950000Y-21005900I0J264100D01*
G01*
X87950000Y-19634100D01*
G75*
G02*
X88214100Y-19370000I264100J0D01*
G01*
X89585900Y-19370000D01*
G75*
G02*
X89850000Y-19634100I0J-264100D01*
G01*
G37*
G04 #@! TD*
D13*
G04 #@! TO.C,U5*
X62484000Y-54102000D03*
X80264000Y-61722000D03*
X65024000Y-54102000D03*
X77724000Y-61722000D03*
X67564000Y-54102000D03*
X75184000Y-61722000D03*
X70104000Y-54102000D03*
X72644000Y-61722000D03*
X72644000Y-54102000D03*
X70104000Y-61722000D03*
X75184000Y-54102000D03*
X67564000Y-61722000D03*
X77724000Y-54102000D03*
X65024000Y-61722000D03*
X80264000Y-54102000D03*
D14*
X62484000Y-61722000D03*
G04 #@! TD*
D13*
G04 #@! TO.C,U4*
X62484000Y-67564000D03*
X80264000Y-75184000D03*
X65024000Y-67564000D03*
X77724000Y-75184000D03*
X67564000Y-67564000D03*
X75184000Y-75184000D03*
X70104000Y-67564000D03*
X72644000Y-75184000D03*
X72644000Y-67564000D03*
X70104000Y-75184000D03*
X75184000Y-67564000D03*
X67564000Y-75184000D03*
X77724000Y-67564000D03*
X65024000Y-75184000D03*
X80264000Y-67564000D03*
D14*
X62484000Y-75184000D03*
G04 #@! TD*
D13*
G04 #@! TO.C,U3*
X36576000Y-38862000D03*
X54356000Y-46482000D03*
X39116000Y-38862000D03*
X51816000Y-46482000D03*
X41656000Y-38862000D03*
X49276000Y-46482000D03*
X44196000Y-38862000D03*
X46736000Y-46482000D03*
X46736000Y-38862000D03*
X44196000Y-46482000D03*
X49276000Y-38862000D03*
X41656000Y-46482000D03*
X51816000Y-38862000D03*
X39116000Y-46482000D03*
X54356000Y-38862000D03*
D14*
X36576000Y-46482000D03*
G04 #@! TD*
D15*
G04 #@! TO.C,U2*
X102870000Y-20066000D03*
D16*
X105410000Y-20066000D03*
X104140000Y-20066000D03*
G04 #@! TD*
D13*
G04 #@! TO.C,U1*
X67056000Y-82550000D03*
X82296000Y-90170000D03*
X69596000Y-82550000D03*
X79756000Y-90170000D03*
X72136000Y-82550000D03*
X77216000Y-90170000D03*
X74676000Y-82550000D03*
X74676000Y-90170000D03*
X77216000Y-82550000D03*
X72136000Y-90170000D03*
X79756000Y-82550000D03*
X69596000Y-90170000D03*
X82296000Y-82550000D03*
D14*
X67056000Y-90170000D03*
G04 #@! TD*
D17*
G04 #@! TO.C,SW4*
X97640000Y-114554000D03*
X97640000Y-110054000D03*
X104140000Y-114554000D03*
X104140000Y-110054000D03*
G04 #@! TD*
G04 #@! TO.C,SW3*
X97640000Y-98298000D03*
X97640000Y-93798000D03*
X104140000Y-98298000D03*
X104140000Y-93798000D03*
G04 #@! TD*
G04 #@! TO.C,SW2*
X107800000Y-106426000D03*
X107800000Y-101926000D03*
X114300000Y-106426000D03*
X114300000Y-101926000D03*
G04 #@! TD*
G04 #@! TO.C,SW1*
X87480000Y-106426000D03*
X87480000Y-101926000D03*
X93980000Y-106426000D03*
X93980000Y-101926000D03*
G04 #@! TD*
D18*
G04 #@! TO.C,RV3*
X60492000Y-108792000D03*
D19*
X62992000Y-113792000D03*
D18*
X57992000Y-113792000D03*
G04 #@! TD*
G04 #@! TO.C,RV2*
X53126000Y-108792000D03*
D19*
X55626000Y-113792000D03*
D18*
X50626000Y-113792000D03*
G04 #@! TD*
G04 #@! TO.C,RV1*
X45760000Y-108792000D03*
D19*
X48260000Y-113792000D03*
D18*
X43260000Y-113792000D03*
G04 #@! TD*
D20*
G04 #@! TO.C,Rot_Enc1*
X67564000Y-106680000D03*
D17*
X67564000Y-109180000D03*
X67564000Y-111680000D03*
D21*
X75064000Y-103580000D03*
X75064000Y-114780000D03*
D22*
X82064000Y-106680000D03*
X82064000Y-111680000D03*
G04 #@! TD*
D23*
G04 #@! TO.C,R31*
X97028000Y-19812000D03*
X94488000Y-19812000D03*
G04 #@! TD*
D11*
G04 #@! TO.C,J8*
X43434000Y-86614000D03*
X45974000Y-86614000D03*
X43434000Y-89154000D03*
X45974000Y-89154000D03*
X43434000Y-91694000D03*
X45974000Y-91694000D03*
X43434000Y-94234000D03*
X45974000Y-94234000D03*
X43434000Y-96774000D03*
X45974000Y-96774000D03*
X43434000Y-99314000D03*
X45974000Y-99314000D03*
X43434000Y-101854000D03*
X45974000Y-101854000D03*
X43434000Y-104394000D03*
D10*
X45974000Y-104394000D03*
G04 #@! TD*
D11*
G04 #@! TO.C,J7*
X20828000Y-114554000D03*
X18288000Y-114554000D03*
X20828000Y-112014000D03*
X18288000Y-112014000D03*
X20828000Y-109474000D03*
X18288000Y-109474000D03*
X20828000Y-106934000D03*
X18288000Y-106934000D03*
X20828000Y-104394000D03*
X18288000Y-104394000D03*
X20828000Y-101854000D03*
X18288000Y-101854000D03*
X20828000Y-99314000D03*
X18288000Y-99314000D03*
X20828000Y-96774000D03*
X18288000Y-96774000D03*
X20828000Y-94234000D03*
X18288000Y-94234000D03*
X20828000Y-91694000D03*
X18288000Y-91694000D03*
X20828000Y-89154000D03*
X18288000Y-89154000D03*
X20828000Y-86614000D03*
D10*
X18288000Y-86614000D03*
G04 #@! TD*
D11*
G04 #@! TO.C,J4*
X61468000Y-104140000D03*
X61468000Y-101600000D03*
X61468000Y-99060000D03*
D10*
X61468000Y-96520000D03*
G04 #@! TD*
D11*
G04 #@! TO.C,J3*
X57912000Y-104140000D03*
X57912000Y-101600000D03*
X57912000Y-99060000D03*
D10*
X57912000Y-96520000D03*
G04 #@! TD*
D11*
G04 #@! TO.C,J2*
X54356000Y-104140000D03*
X54356000Y-101600000D03*
X54356000Y-99060000D03*
D10*
X54356000Y-96520000D03*
G04 #@! TD*
D11*
G04 #@! TO.C,J1*
X50800000Y-104140000D03*
X50800000Y-101600000D03*
X50800000Y-99060000D03*
D10*
X50800000Y-96520000D03*
G04 #@! TD*
D22*
G04 #@! TO.C,DS1*
X91440000Y-60198000D03*
X93980000Y-60198000D03*
X96520000Y-60198000D03*
X99060000Y-60198000D03*
X101600000Y-60198000D03*
X104140000Y-60198000D03*
X106680000Y-60198000D03*
X109220000Y-60198000D03*
X111760000Y-60198000D03*
X111760000Y-75438000D03*
X109220000Y-75438000D03*
X106680000Y-75438000D03*
X104140000Y-75438000D03*
X101600000Y-75438000D03*
X99060000Y-75438000D03*
X96520000Y-75438000D03*
X93980000Y-75438000D03*
D24*
X91440000Y-75438000D03*
G04 #@! TD*
D25*
G04 #@! TO.C,D17*
X110998000Y-20574000D03*
D12*
X113538000Y-20574000D03*
G04 #@! TD*
G04 #@! TO.C,D16*
X71882000Y-28956000D03*
D25*
X71882000Y-26416000D03*
G04 #@! TD*
D12*
G04 #@! TO.C,D15*
X64516000Y-28956000D03*
D25*
X64516000Y-26416000D03*
G04 #@! TD*
D12*
G04 #@! TO.C,D14*
X57150000Y-28956000D03*
D25*
X57150000Y-26416000D03*
G04 #@! TD*
D12*
G04 #@! TO.C,D13*
X49784000Y-28956000D03*
D25*
X49784000Y-26416000D03*
G04 #@! TD*
D12*
G04 #@! TO.C,D12*
X42418000Y-28956000D03*
D25*
X42418000Y-26416000D03*
G04 #@! TD*
D12*
G04 #@! TO.C,D11*
X35052000Y-28956000D03*
D25*
X35052000Y-26416000D03*
G04 #@! TD*
D12*
G04 #@! TO.C,D10*
X27686000Y-28956000D03*
D25*
X27686000Y-26416000D03*
G04 #@! TD*
D12*
G04 #@! TO.C,D9*
X20320000Y-28956000D03*
D25*
X20320000Y-26416000D03*
G04 #@! TD*
D13*
G04 #@! TO.C,A1*
X39624000Y-112014000D03*
X24384000Y-112014000D03*
X39624000Y-76454000D03*
X24384000Y-109474000D03*
X39624000Y-78994000D03*
X24384000Y-106934000D03*
X39624000Y-81534000D03*
X24384000Y-104394000D03*
X39624000Y-84074000D03*
X24384000Y-101854000D03*
X39624000Y-86614000D03*
X24384000Y-99314000D03*
X39624000Y-89154000D03*
X24384000Y-96774000D03*
X39624000Y-91694000D03*
X24384000Y-94234000D03*
X39624000Y-94234000D03*
X24384000Y-91694000D03*
X39624000Y-96774000D03*
X24384000Y-89154000D03*
X39624000Y-99314000D03*
X24384000Y-86614000D03*
X39624000Y-101854000D03*
X24384000Y-84074000D03*
X39624000Y-104394000D03*
X24384000Y-81534000D03*
X39624000Y-106934000D03*
X24384000Y-78994000D03*
X39624000Y-109474000D03*
D14*
X24384000Y-76454000D03*
G04 #@! TD*
M02*
