G04 #@! TF.GenerationSoftware,KiCad,Pcbnew,(5.1.6)-1*
G04 #@! TF.CreationDate,2020-05-30T01:19:27-07:00*
G04 #@! TF.ProjectId,NanoDemo,4e616e6f-4465-46d6-9f2e-6b696361645f,rev?*
G04 #@! TF.SameCoordinates,Original*
G04 #@! TF.FileFunction,Soldermask,Bot*
G04 #@! TF.FilePolarity,Negative*
%FSLAX46Y46*%
G04 Gerber Fmt 4.6, Leading zero omitted, Abs format (unit mm)*
G04 Created by KiCad (PCBNEW (5.1.6)-1) date 2020-05-30 01:19:27*
%MOMM*%
%LPD*%
G01*
G04 APERTURE LIST*
%ADD10O,1.800000X1.800000*%
%ADD11R,1.800000X1.800000*%
%ADD12O,1.700000X1.700000*%
%ADD13R,1.700000X1.700000*%
%ADD14C,2.100000*%
%ADD15R,2.100000X2.100000*%
%ADD16R,2.100000X3.300000*%
%ADD17C,1.600000*%
%ADD18C,1.650000*%
%ADD19R,1.650000X1.650000*%
%ADD20C,1.700000*%
%ADD21R,1.600000X1.600000*%
%ADD22C,1.900000*%
%ADD23R,1.900000X1.900000*%
G04 APERTURE END LIST*
D10*
G04 #@! TO.C,J5*
X114554000Y-88646000D03*
X117094000Y-88646000D03*
X119634000Y-88646000D03*
D11*
X122174000Y-88646000D03*
G04 #@! TD*
D12*
G04 #@! TO.C,U6*
X130048000Y-115316000D03*
X122428000Y-133096000D03*
X130048000Y-117856000D03*
X122428000Y-130556000D03*
X130048000Y-120396000D03*
X122428000Y-128016000D03*
X130048000Y-122936000D03*
X122428000Y-125476000D03*
X130048000Y-125476000D03*
X122428000Y-122936000D03*
X130048000Y-128016000D03*
X122428000Y-120396000D03*
X130048000Y-130556000D03*
X122428000Y-117856000D03*
X130048000Y-133096000D03*
D13*
X122428000Y-115316000D03*
G04 #@! TD*
D12*
G04 #@! TO.C,U5*
X114046000Y-146812000D03*
X93726000Y-139192000D03*
X111506000Y-146812000D03*
X96266000Y-139192000D03*
X108966000Y-146812000D03*
X98806000Y-139192000D03*
X106426000Y-146812000D03*
X101346000Y-139192000D03*
X103886000Y-146812000D03*
X103886000Y-139192000D03*
X101346000Y-146812000D03*
X106426000Y-139192000D03*
X98806000Y-146812000D03*
X108966000Y-139192000D03*
X96266000Y-146812000D03*
X111506000Y-139192000D03*
X93726000Y-146812000D03*
D13*
X114046000Y-139192000D03*
G04 #@! TD*
D12*
G04 #@! TO.C,U4*
X144526000Y-118872000D03*
X162306000Y-126492000D03*
X147066000Y-118872000D03*
X159766000Y-126492000D03*
X149606000Y-118872000D03*
X157226000Y-126492000D03*
X152146000Y-118872000D03*
X154686000Y-126492000D03*
X154686000Y-118872000D03*
X152146000Y-126492000D03*
X157226000Y-118872000D03*
X149606000Y-126492000D03*
X159766000Y-118872000D03*
X147066000Y-126492000D03*
X162306000Y-118872000D03*
D13*
X144526000Y-126492000D03*
G04 #@! TD*
D12*
G04 #@! TO.C,U2*
X114046000Y-122428000D03*
X96266000Y-114808000D03*
X111506000Y-122428000D03*
X98806000Y-114808000D03*
X108966000Y-122428000D03*
X101346000Y-114808000D03*
X106426000Y-122428000D03*
X103886000Y-114808000D03*
X103886000Y-122428000D03*
X106426000Y-114808000D03*
X101346000Y-122428000D03*
X108966000Y-114808000D03*
X98806000Y-122428000D03*
X111506000Y-114808000D03*
X96266000Y-122428000D03*
D13*
X114046000Y-114808000D03*
G04 #@! TD*
D12*
G04 #@! TO.C,U1*
X88900000Y-102870000D03*
X81280000Y-118110000D03*
X88900000Y-105410000D03*
X81280000Y-115570000D03*
X88900000Y-107950000D03*
X81280000Y-113030000D03*
X88900000Y-110490000D03*
X81280000Y-110490000D03*
X88900000Y-113030000D03*
X81280000Y-107950000D03*
X88900000Y-115570000D03*
X81280000Y-105410000D03*
X88900000Y-118110000D03*
D13*
X81280000Y-102870000D03*
G04 #@! TD*
D14*
G04 #@! TO.C,SW5*
X154582000Y-162560000D03*
X154582000Y-167060000D03*
X148082000Y-162560000D03*
X148082000Y-167060000D03*
G04 #@! TD*
D15*
G04 #@! TO.C,SW4*
X114554000Y-152400000D03*
D14*
X112054000Y-152400000D03*
X109554000Y-152400000D03*
D16*
X117654000Y-159900000D03*
X106454000Y-159900000D03*
D17*
X114554000Y-166900000D03*
X109554000Y-166900000D03*
G04 #@! TD*
D14*
G04 #@! TO.C,SW3*
X154582000Y-147066000D03*
X154582000Y-151566000D03*
X148082000Y-147066000D03*
X148082000Y-151566000D03*
G04 #@! TD*
G04 #@! TO.C,SW2*
X164234000Y-154940000D03*
X164234000Y-159440000D03*
X157734000Y-154940000D03*
X157734000Y-159440000D03*
G04 #@! TD*
G04 #@! TO.C,SW1*
X144930000Y-154940000D03*
X144930000Y-159440000D03*
X138430000Y-154940000D03*
X138430000Y-159440000D03*
G04 #@! TD*
D18*
G04 #@! TO.C,RV3*
X71334000Y-122602000D03*
D19*
X68834000Y-117602000D03*
D18*
X73834000Y-117602000D03*
G04 #@! TD*
G04 #@! TO.C,RV2*
X71334000Y-112950000D03*
D19*
X68834000Y-107950000D03*
D18*
X73834000Y-107950000D03*
G04 #@! TD*
G04 #@! TO.C,RV1*
X71080000Y-103806000D03*
D19*
X68580000Y-98806000D03*
D18*
X73580000Y-98806000D03*
G04 #@! TD*
D12*
G04 #@! TO.C,R43*
X163322000Y-114046000D03*
D20*
X163322000Y-103886000D03*
G04 #@! TD*
D12*
G04 #@! TO.C,R42*
X158242000Y-114046000D03*
D20*
X158242000Y-103886000D03*
G04 #@! TD*
D12*
G04 #@! TO.C,R41*
X158242000Y-70866000D03*
D20*
X158242000Y-81026000D03*
G04 #@! TD*
D12*
G04 #@! TO.C,R40*
X153162000Y-114046000D03*
D20*
X153162000Y-103886000D03*
G04 #@! TD*
D12*
G04 #@! TO.C,R39*
X155702000Y-114046000D03*
D20*
X155702000Y-103886000D03*
G04 #@! TD*
D12*
G04 #@! TO.C,R38*
X160782000Y-114046000D03*
D20*
X160782000Y-103886000D03*
G04 #@! TD*
D12*
G04 #@! TO.C,R37*
X163322000Y-70866000D03*
D20*
X163322000Y-81026000D03*
G04 #@! TD*
D12*
G04 #@! TO.C,R36*
X160782000Y-70866000D03*
D20*
X160782000Y-81026000D03*
G04 #@! TD*
D12*
G04 #@! TO.C,R35*
X150622000Y-114046000D03*
D20*
X150622000Y-103886000D03*
G04 #@! TD*
D12*
G04 #@! TO.C,R34*
X145542000Y-70866000D03*
D20*
X145542000Y-81026000D03*
G04 #@! TD*
D12*
G04 #@! TO.C,R33*
X143002000Y-70866000D03*
D20*
X143002000Y-81026000D03*
G04 #@! TD*
D12*
G04 #@! TO.C,R32*
X143002000Y-114046000D03*
D20*
X143002000Y-103886000D03*
G04 #@! TD*
D12*
G04 #@! TO.C,R31*
X145542000Y-114046000D03*
D20*
X145542000Y-103886000D03*
G04 #@! TD*
D12*
G04 #@! TO.C,R30*
X148082000Y-114046000D03*
D20*
X148082000Y-103886000D03*
G04 #@! TD*
D12*
G04 #@! TO.C,R29*
X150622000Y-70866000D03*
D20*
X150622000Y-81026000D03*
G04 #@! TD*
D12*
G04 #@! TO.C,R28*
X148082000Y-70866000D03*
D20*
X148082000Y-81026000D03*
G04 #@! TD*
D12*
G04 #@! TO.C,R27*
X114046000Y-135890000D03*
D20*
X114046000Y-125730000D03*
G04 #@! TD*
D12*
G04 #@! TO.C,R26*
X111506000Y-135890000D03*
D20*
X111506000Y-125730000D03*
G04 #@! TD*
D12*
G04 #@! TO.C,R25*
X108966000Y-135890000D03*
D20*
X108966000Y-125730000D03*
G04 #@! TD*
D12*
G04 #@! TO.C,R24*
X106426000Y-135890000D03*
D20*
X106426000Y-125730000D03*
G04 #@! TD*
D12*
G04 #@! TO.C,R23*
X103886000Y-135890000D03*
D20*
X103886000Y-125730000D03*
G04 #@! TD*
D12*
G04 #@! TO.C,R22*
X101346000Y-135890000D03*
D20*
X101346000Y-125730000D03*
G04 #@! TD*
D12*
G04 #@! TO.C,R21*
X98806000Y-135890000D03*
D20*
X98806000Y-125730000D03*
G04 #@! TD*
D12*
G04 #@! TO.C,R20*
X96266000Y-135890000D03*
D20*
X96266000Y-125730000D03*
G04 #@! TD*
D12*
G04 #@! TO.C,R19*
X68834000Y-84328000D03*
D20*
X68834000Y-94488000D03*
G04 #@! TD*
D12*
G04 #@! TO.C,R18*
X93726000Y-84328000D03*
D20*
X93726000Y-94488000D03*
G04 #@! TD*
D12*
G04 #@! TO.C,R17*
X90170000Y-84328000D03*
D20*
X90170000Y-94488000D03*
G04 #@! TD*
D12*
G04 #@! TO.C,R16*
X86614000Y-84328000D03*
D20*
X86614000Y-94488000D03*
G04 #@! TD*
D12*
G04 #@! TO.C,R15*
X83058000Y-84328000D03*
D20*
X83058000Y-94488000D03*
G04 #@! TD*
D12*
G04 #@! TO.C,R14*
X79502000Y-84328000D03*
D20*
X79502000Y-94488000D03*
G04 #@! TD*
D12*
G04 #@! TO.C,R13*
X75946000Y-84328000D03*
D20*
X75946000Y-94488000D03*
G04 #@! TD*
D12*
G04 #@! TO.C,R12*
X72390000Y-84328000D03*
D20*
X72390000Y-94488000D03*
G04 #@! TD*
D12*
G04 #@! TO.C,R11*
X146812000Y-132842000D03*
D20*
X146812000Y-143002000D03*
G04 #@! TD*
D12*
G04 #@! TO.C,R10*
X121158000Y-156718000D03*
D20*
X121158000Y-166878000D03*
G04 #@! TD*
D12*
G04 #@! TO.C,R9*
X149860000Y-143002000D03*
D20*
X149860000Y-132842000D03*
G04 #@! TD*
D12*
G04 #@! TO.C,R8*
X124460000Y-156718000D03*
D20*
X124460000Y-166878000D03*
G04 #@! TD*
D12*
G04 #@! TO.C,R7*
X155956000Y-132842000D03*
D20*
X155956000Y-143002000D03*
G04 #@! TD*
D12*
G04 #@! TO.C,R6*
X152908000Y-143002000D03*
D20*
X152908000Y-132842000D03*
G04 #@! TD*
D12*
G04 #@! TO.C,R5*
X127762000Y-156718000D03*
D20*
X127762000Y-166878000D03*
G04 #@! TD*
D12*
G04 #@! TO.C,R4*
X138176000Y-132842000D03*
D20*
X138176000Y-143002000D03*
G04 #@! TD*
D12*
G04 #@! TO.C,R3*
X141224000Y-143002000D03*
D20*
X141224000Y-132842000D03*
G04 #@! TD*
D12*
G04 #@! TO.C,R2*
X161544000Y-132842000D03*
D20*
X161544000Y-143002000D03*
G04 #@! TD*
D12*
G04 #@! TO.C,R1*
X164338000Y-143002000D03*
D20*
X164338000Y-132842000D03*
G04 #@! TD*
D10*
G04 #@! TO.C,J4*
X100584000Y-166116000D03*
X100584000Y-163576000D03*
X100584000Y-161036000D03*
D11*
X100584000Y-158496000D03*
G04 #@! TD*
D10*
G04 #@! TO.C,J3*
X96774000Y-166116000D03*
X96774000Y-163576000D03*
X96774000Y-161036000D03*
D11*
X96774000Y-158496000D03*
G04 #@! TD*
D10*
G04 #@! TO.C,J2*
X92964000Y-166116000D03*
X92964000Y-163576000D03*
X92964000Y-161036000D03*
D11*
X92964000Y-158496000D03*
G04 #@! TD*
D10*
G04 #@! TO.C,J1*
X89154000Y-166116000D03*
X89154000Y-163576000D03*
X89154000Y-161036000D03*
D11*
X89154000Y-158496000D03*
G04 #@! TD*
D17*
G04 #@! TO.C,DS1*
X143002000Y-84836000D03*
X145542000Y-84836000D03*
X148082000Y-84836000D03*
X150622000Y-84836000D03*
X153162000Y-84836000D03*
X155702000Y-84836000D03*
X158242000Y-84836000D03*
X160782000Y-84836000D03*
X163322000Y-84836000D03*
X163322000Y-100076000D03*
X160782000Y-100076000D03*
X158242000Y-100076000D03*
X155702000Y-100076000D03*
X153162000Y-100076000D03*
X150622000Y-100076000D03*
X148082000Y-100076000D03*
X145542000Y-100076000D03*
D21*
X143002000Y-100076000D03*
G04 #@! TD*
D22*
G04 #@! TO.C,D16*
X112268000Y-80010000D03*
D23*
X109728000Y-80010000D03*
G04 #@! TD*
D22*
G04 #@! TO.C,D15*
X106426000Y-80010000D03*
D23*
X103886000Y-80010000D03*
G04 #@! TD*
D22*
G04 #@! TO.C,D14*
X100584000Y-80010000D03*
D23*
X98044000Y-80010000D03*
G04 #@! TD*
D22*
G04 #@! TO.C,D13*
X94742000Y-80010000D03*
D23*
X92202000Y-80010000D03*
G04 #@! TD*
D22*
G04 #@! TO.C,D12*
X88900000Y-80010000D03*
D23*
X86360000Y-80010000D03*
G04 #@! TD*
D22*
G04 #@! TO.C,D11*
X83058000Y-80010000D03*
D23*
X80518000Y-80010000D03*
G04 #@! TD*
D22*
G04 #@! TO.C,D10*
X77216000Y-80010000D03*
D23*
X74676000Y-80010000D03*
G04 #@! TD*
D22*
G04 #@! TO.C,D9*
X71374000Y-80010000D03*
D23*
X68834000Y-80010000D03*
G04 #@! TD*
D20*
G04 #@! TO.C,C7*
X144018000Y-135342000D03*
X144018000Y-132842000D03*
G04 #@! TD*
G04 #@! TO.C,C6*
X121158000Y-151932000D03*
X121158000Y-154432000D03*
G04 #@! TD*
G04 #@! TO.C,C5*
X124460000Y-151932000D03*
X124460000Y-154432000D03*
G04 #@! TD*
G04 #@! TO.C,C4*
X158750000Y-135342000D03*
X158750000Y-132842000D03*
G04 #@! TD*
G04 #@! TO.C,C3*
X127762000Y-151678000D03*
X127762000Y-154178000D03*
G04 #@! TD*
G04 #@! TO.C,C2*
X144018000Y-140502000D03*
X144018000Y-143002000D03*
G04 #@! TD*
G04 #@! TO.C,C1*
X158750000Y-142962000D03*
X158750000Y-140462000D03*
G04 #@! TD*
D12*
G04 #@! TO.C,A1*
X84328000Y-166878000D03*
X69088000Y-166878000D03*
X84328000Y-131318000D03*
X69088000Y-164338000D03*
X84328000Y-133858000D03*
X69088000Y-161798000D03*
X84328000Y-136398000D03*
X69088000Y-159258000D03*
X84328000Y-138938000D03*
X69088000Y-156718000D03*
X84328000Y-141478000D03*
X69088000Y-154178000D03*
X84328000Y-144018000D03*
X69088000Y-151638000D03*
X84328000Y-146558000D03*
X69088000Y-149098000D03*
X84328000Y-149098000D03*
X69088000Y-146558000D03*
X84328000Y-151638000D03*
X69088000Y-144018000D03*
X84328000Y-154178000D03*
X69088000Y-141478000D03*
X84328000Y-156718000D03*
X69088000Y-138938000D03*
X84328000Y-159258000D03*
X69088000Y-136398000D03*
X84328000Y-161798000D03*
X69088000Y-133858000D03*
X84328000Y-164338000D03*
D13*
X69088000Y-131318000D03*
G04 #@! TD*
M02*
