G04 #@! TF.GenerationSoftware,KiCad,Pcbnew,(5.1.6)-1*
G04 #@! TF.CreationDate,2020-05-30T01:19:27-07:00*
G04 #@! TF.ProjectId,NanoDemo,4e616e6f-4465-46d6-9f2e-6b696361645f,rev?*
G04 #@! TF.SameCoordinates,Original*
G04 #@! TF.FileFunction,Legend,Top*
G04 #@! TF.FilePolarity,Positive*
%FSLAX46Y46*%
G04 Gerber Fmt 4.6, Leading zero omitted, Abs format (unit mm)*
G04 Created by KiCad (PCBNEW (5.1.6)-1) date 2020-05-30 01:19:27*
%MOMM*%
%LPD*%
G01*
G04 APERTURE LIST*
%ADD10C,0.150000*%
%ADD11C,0.120000*%
G04 APERTURE END LIST*
D10*
X103878000Y-166377904D02*
X103925619Y-166282666D01*
X103925619Y-166139809D01*
X103878000Y-165996952D01*
X103782761Y-165901714D01*
X103687523Y-165854095D01*
X103497047Y-165806476D01*
X103354190Y-165806476D01*
X103163714Y-165854095D01*
X103068476Y-165901714D01*
X102973238Y-165996952D01*
X102925619Y-166139809D01*
X102925619Y-166235047D01*
X102973238Y-166377904D01*
X103020857Y-166425523D01*
X103354190Y-166425523D01*
X103354190Y-166235047D01*
X103020857Y-163885523D02*
X102973238Y-163837904D01*
X102925619Y-163695047D01*
X102925619Y-163599809D01*
X102973238Y-163456952D01*
X103068476Y-163361714D01*
X103163714Y-163314095D01*
X103354190Y-163266476D01*
X103497047Y-163266476D01*
X103687523Y-163314095D01*
X103782761Y-163361714D01*
X103878000Y-163456952D01*
X103925619Y-163599809D01*
X103925619Y-163695047D01*
X103878000Y-163837904D01*
X103830380Y-163885523D01*
X102925619Y-160774095D02*
X103925619Y-160774095D01*
X103925619Y-161012190D01*
X103878000Y-161155047D01*
X103782761Y-161250285D01*
X103687523Y-161297904D01*
X103497047Y-161345523D01*
X103354190Y-161345523D01*
X103163714Y-161297904D01*
X103068476Y-161250285D01*
X102973238Y-161155047D01*
X102925619Y-161012190D01*
X102925619Y-160774095D01*
X103925619Y-158162666D02*
X102925619Y-158496000D01*
X103925619Y-158829333D01*
X122158666Y-140534380D02*
X122158666Y-139534380D01*
X122730095Y-140534380D01*
X122730095Y-139534380D01*
X123634857Y-140534380D02*
X123634857Y-140010571D01*
X123587238Y-139915333D01*
X123492000Y-139867714D01*
X123301523Y-139867714D01*
X123206285Y-139915333D01*
X123634857Y-140486761D02*
X123539619Y-140534380D01*
X123301523Y-140534380D01*
X123206285Y-140486761D01*
X123158666Y-140391523D01*
X123158666Y-140296285D01*
X123206285Y-140201047D01*
X123301523Y-140153428D01*
X123539619Y-140153428D01*
X123634857Y-140105809D01*
X124111047Y-139867714D02*
X124111047Y-140534380D01*
X124111047Y-139962952D02*
X124158666Y-139915333D01*
X124253904Y-139867714D01*
X124396761Y-139867714D01*
X124492000Y-139915333D01*
X124539619Y-140010571D01*
X124539619Y-140534380D01*
X125158666Y-140534380D02*
X125063428Y-140486761D01*
X125015809Y-140439142D01*
X124968190Y-140343904D01*
X124968190Y-140058190D01*
X125015809Y-139962952D01*
X125063428Y-139915333D01*
X125158666Y-139867714D01*
X125301523Y-139867714D01*
X125396761Y-139915333D01*
X125444380Y-139962952D01*
X125492000Y-140058190D01*
X125492000Y-140343904D01*
X125444380Y-140439142D01*
X125396761Y-140486761D01*
X125301523Y-140534380D01*
X125158666Y-140534380D01*
X126634857Y-140486761D02*
X126777714Y-140534380D01*
X127015809Y-140534380D01*
X127111047Y-140486761D01*
X127158666Y-140439142D01*
X127206285Y-140343904D01*
X127206285Y-140248666D01*
X127158666Y-140153428D01*
X127111047Y-140105809D01*
X127015809Y-140058190D01*
X126825333Y-140010571D01*
X126730095Y-139962952D01*
X126682476Y-139915333D01*
X126634857Y-139820095D01*
X126634857Y-139724857D01*
X126682476Y-139629619D01*
X126730095Y-139582000D01*
X126825333Y-139534380D01*
X127063428Y-139534380D01*
X127206285Y-139582000D01*
X127634857Y-140534380D02*
X127634857Y-139534380D01*
X128063428Y-140534380D02*
X128063428Y-140010571D01*
X128015809Y-139915333D01*
X127920571Y-139867714D01*
X127777714Y-139867714D01*
X127682476Y-139915333D01*
X127634857Y-139962952D01*
X128539619Y-140534380D02*
X128539619Y-139867714D01*
X128539619Y-139534380D02*
X128492000Y-139582000D01*
X128539619Y-139629619D01*
X128587238Y-139582000D01*
X128539619Y-139534380D01*
X128539619Y-139629619D01*
X129396761Y-140486761D02*
X129301523Y-140534380D01*
X129111047Y-140534380D01*
X129015809Y-140486761D01*
X128968190Y-140391523D01*
X128968190Y-140010571D01*
X129015809Y-139915333D01*
X129111047Y-139867714D01*
X129301523Y-139867714D01*
X129396761Y-139915333D01*
X129444380Y-140010571D01*
X129444380Y-140105809D01*
X128968190Y-140201047D01*
X130015809Y-140534380D02*
X129920571Y-140486761D01*
X129872952Y-140391523D01*
X129872952Y-139534380D01*
X130825333Y-140534380D02*
X130825333Y-139534380D01*
X130825333Y-140486761D02*
X130730095Y-140534380D01*
X130539619Y-140534380D01*
X130444380Y-140486761D01*
X130396761Y-140439142D01*
X130349142Y-140343904D01*
X130349142Y-140058190D01*
X130396761Y-139962952D01*
X130444380Y-139915333D01*
X130539619Y-139867714D01*
X130730095Y-139867714D01*
X130825333Y-139915333D01*
X124420571Y-142184380D02*
X124087238Y-141708190D01*
X123849142Y-142184380D02*
X123849142Y-141184380D01*
X124230095Y-141184380D01*
X124325333Y-141232000D01*
X124372952Y-141279619D01*
X124420571Y-141374857D01*
X124420571Y-141517714D01*
X124372952Y-141612952D01*
X124325333Y-141660571D01*
X124230095Y-141708190D01*
X123849142Y-141708190D01*
X125230095Y-142136761D02*
X125134857Y-142184380D01*
X124944380Y-142184380D01*
X124849142Y-142136761D01*
X124801523Y-142041523D01*
X124801523Y-141660571D01*
X124849142Y-141565333D01*
X124944380Y-141517714D01*
X125134857Y-141517714D01*
X125230095Y-141565333D01*
X125277714Y-141660571D01*
X125277714Y-141755809D01*
X124801523Y-141851047D01*
X125611047Y-141517714D02*
X125849142Y-142184380D01*
X126087238Y-141517714D01*
X126468190Y-142089142D02*
X126515809Y-142136761D01*
X126468190Y-142184380D01*
X126420571Y-142136761D01*
X126468190Y-142089142D01*
X126468190Y-142184380D01*
X127896761Y-141184380D02*
X127991999Y-141184380D01*
X128087238Y-141232000D01*
X128134857Y-141279619D01*
X128182476Y-141374857D01*
X128230095Y-141565333D01*
X128230095Y-141803428D01*
X128182476Y-141993904D01*
X128134857Y-142089142D01*
X128087238Y-142136761D01*
X127991999Y-142184380D01*
X127896761Y-142184380D01*
X127801523Y-142136761D01*
X127753904Y-142089142D01*
X127706285Y-141993904D01*
X127658666Y-141803428D01*
X127658666Y-141565333D01*
X127706285Y-141374857D01*
X127753904Y-141279619D01*
X127801523Y-141232000D01*
X127896761Y-141184380D01*
X128611047Y-141279619D02*
X128658666Y-141232000D01*
X128753904Y-141184380D01*
X128992000Y-141184380D01*
X129087238Y-141232000D01*
X129134857Y-141279619D01*
X129182476Y-141374857D01*
X129182476Y-141470095D01*
X129134857Y-141612952D01*
X128563428Y-142184380D01*
X129182476Y-142184380D01*
X121730095Y-142834380D02*
X122396761Y-142834380D01*
X121730095Y-143834380D01*
X122396761Y-143834380D01*
X123206285Y-143834380D02*
X123206285Y-143310571D01*
X123158666Y-143215333D01*
X123063428Y-143167714D01*
X122872952Y-143167714D01*
X122777714Y-143215333D01*
X123206285Y-143786761D02*
X123111047Y-143834380D01*
X122872952Y-143834380D01*
X122777714Y-143786761D01*
X122730095Y-143691523D01*
X122730095Y-143596285D01*
X122777714Y-143501047D01*
X122872952Y-143453428D01*
X123111047Y-143453428D01*
X123206285Y-143405809D01*
X124111047Y-143786761D02*
X124015809Y-143834380D01*
X123825333Y-143834380D01*
X123730095Y-143786761D01*
X123682476Y-143739142D01*
X123634857Y-143643904D01*
X123634857Y-143358190D01*
X123682476Y-143262952D01*
X123730095Y-143215333D01*
X123825333Y-143167714D01*
X124015809Y-143167714D01*
X124111047Y-143215333D01*
X124539619Y-143834380D02*
X124539619Y-142834380D01*
X124968190Y-143834380D02*
X124968190Y-143310571D01*
X124920571Y-143215333D01*
X124825333Y-143167714D01*
X124682476Y-143167714D01*
X124587238Y-143215333D01*
X124539619Y-143262952D01*
X126206285Y-143310571D02*
X126539619Y-143310571D01*
X126682476Y-143834380D02*
X126206285Y-143834380D01*
X126206285Y-142834380D01*
X126682476Y-142834380D01*
X127111047Y-143167714D02*
X127111047Y-143834380D01*
X127111047Y-143262952D02*
X127158666Y-143215333D01*
X127253904Y-143167714D01*
X127396761Y-143167714D01*
X127492000Y-143215333D01*
X127539619Y-143310571D01*
X127539619Y-143834380D01*
X128444380Y-143167714D02*
X128444380Y-143977238D01*
X128396761Y-144072476D01*
X128349142Y-144120095D01*
X128253904Y-144167714D01*
X128111047Y-144167714D01*
X128015809Y-144120095D01*
X128444380Y-143786761D02*
X128349142Y-143834380D01*
X128158666Y-143834380D01*
X128063428Y-143786761D01*
X128015809Y-143739142D01*
X127968190Y-143643904D01*
X127968190Y-143358190D01*
X128015809Y-143262952D01*
X128063428Y-143215333D01*
X128158666Y-143167714D01*
X128349142Y-143167714D01*
X128444380Y-143215333D01*
X129063428Y-143834380D02*
X128968190Y-143786761D01*
X128920571Y-143691523D01*
X128920571Y-142834380D01*
X129444380Y-143834380D02*
X129444380Y-143167714D01*
X129444380Y-142834380D02*
X129396761Y-142882000D01*
X129444380Y-142929619D01*
X129492000Y-142882000D01*
X129444380Y-142834380D01*
X129444380Y-142929619D01*
X129872952Y-143786761D02*
X129968190Y-143834380D01*
X130158666Y-143834380D01*
X130253904Y-143786761D01*
X130301523Y-143691523D01*
X130301523Y-143643904D01*
X130253904Y-143548666D01*
X130158666Y-143501047D01*
X130015809Y-143501047D01*
X129920571Y-143453428D01*
X129872952Y-143358190D01*
X129872952Y-143310571D01*
X129920571Y-143215333D01*
X130015809Y-143167714D01*
X130158666Y-143167714D01*
X130253904Y-143215333D01*
X130730095Y-143834380D02*
X130730095Y-142834380D01*
X131158666Y-143834380D02*
X131158666Y-143310571D01*
X131111047Y-143215333D01*
X131015809Y-143167714D01*
X130872952Y-143167714D01*
X130777714Y-143215333D01*
X130730095Y-143262952D01*
D11*
G04 #@! TO.C,J5*
X113224000Y-87316000D02*
X113224000Y-89976000D01*
X120904000Y-87316000D02*
X113224000Y-87316000D01*
X120904000Y-89976000D02*
X113224000Y-89976000D01*
X120904000Y-87316000D02*
X120904000Y-89976000D01*
X122174000Y-87316000D02*
X123504000Y-87316000D01*
X123504000Y-87316000D02*
X123504000Y-88646000D01*
X133174000Y-84646000D02*
X103174000Y-84646000D01*
X103174000Y-84646000D02*
X103174000Y-109646000D01*
X103174000Y-109646000D02*
X133174000Y-109646000D01*
X133174000Y-109646000D02*
X133174000Y-84646000D01*
G04 #@! TO.C,U6*
X127238000Y-113986000D02*
G75*
G02*
X125238000Y-113986000I-1000000J0D01*
G01*
X125238000Y-113986000D02*
X123588000Y-113986000D01*
X123588000Y-113986000D02*
X123588000Y-134426000D01*
X123588000Y-134426000D02*
X128888000Y-134426000D01*
X128888000Y-134426000D02*
X128888000Y-113986000D01*
X128888000Y-113986000D02*
X127238000Y-113986000D01*
G04 #@! TO.C,U5*
X115376000Y-144002000D02*
G75*
G02*
X115376000Y-142002000I0J1000000D01*
G01*
X115376000Y-142002000D02*
X115376000Y-140352000D01*
X115376000Y-140352000D02*
X92396000Y-140352000D01*
X92396000Y-140352000D02*
X92396000Y-145652000D01*
X92396000Y-145652000D02*
X115376000Y-145652000D01*
X115376000Y-145652000D02*
X115376000Y-144002000D01*
G04 #@! TO.C,U4*
X143196000Y-121682000D02*
G75*
G02*
X143196000Y-123682000I0J-1000000D01*
G01*
X143196000Y-123682000D02*
X143196000Y-125332000D01*
X143196000Y-125332000D02*
X163636000Y-125332000D01*
X163636000Y-125332000D02*
X163636000Y-120032000D01*
X163636000Y-120032000D02*
X143196000Y-120032000D01*
X143196000Y-120032000D02*
X143196000Y-121682000D01*
G04 #@! TO.C,U2*
X115376000Y-119618000D02*
G75*
G02*
X115376000Y-117618000I0J1000000D01*
G01*
X115376000Y-117618000D02*
X115376000Y-115968000D01*
X115376000Y-115968000D02*
X94936000Y-115968000D01*
X94936000Y-115968000D02*
X94936000Y-121268000D01*
X94936000Y-121268000D02*
X115376000Y-121268000D01*
X115376000Y-121268000D02*
X115376000Y-119618000D01*
G04 #@! TO.C,U1*
X86090000Y-101540000D02*
G75*
G02*
X84090000Y-101540000I-1000000J0D01*
G01*
X84090000Y-101540000D02*
X82440000Y-101540000D01*
X82440000Y-101540000D02*
X82440000Y-119440000D01*
X82440000Y-119440000D02*
X87740000Y-119440000D01*
X87740000Y-119440000D02*
X87740000Y-101540000D01*
X87740000Y-101540000D02*
X86090000Y-101540000D01*
G04 #@! TO.C,SW5*
X149082000Y-168060000D02*
X153582000Y-168060000D01*
X147832000Y-164060000D02*
X147832000Y-165560000D01*
X153582000Y-161560000D02*
X149082000Y-161560000D01*
X154832000Y-165560000D02*
X154832000Y-164060000D01*
G04 #@! TO.C,SW4*
X112054000Y-159400000D02*
X112054000Y-160400000D01*
X112554000Y-159900000D02*
X111554000Y-159900000D01*
X108754000Y-166000000D02*
X106154000Y-166000000D01*
X113354000Y-166000000D02*
X110754000Y-166000000D01*
X117954000Y-166000000D02*
X115354000Y-166000000D01*
X116154000Y-152700000D02*
X115854000Y-152400000D01*
X116154000Y-152100000D02*
X116154000Y-152700000D01*
X115854000Y-152400000D02*
X116154000Y-152100000D01*
X117854000Y-153800000D02*
X106154000Y-153800000D01*
X117854000Y-157900000D02*
X117854000Y-153800000D01*
X106154000Y-157900000D02*
X106154000Y-153800000D01*
X106154000Y-166000000D02*
X106154000Y-161900000D01*
X117954000Y-161900000D02*
X117954000Y-166000000D01*
X115054000Y-159900000D02*
G75*
G03*
X115054000Y-159900000I-3000000J0D01*
G01*
G04 #@! TO.C,SW3*
X149082000Y-152566000D02*
X153582000Y-152566000D01*
X147832000Y-148566000D02*
X147832000Y-150066000D01*
X153582000Y-146066000D02*
X149082000Y-146066000D01*
X154832000Y-150066000D02*
X154832000Y-148566000D01*
G04 #@! TO.C,SW2*
X158734000Y-160440000D02*
X163234000Y-160440000D01*
X157484000Y-156440000D02*
X157484000Y-157940000D01*
X163234000Y-153940000D02*
X158734000Y-153940000D01*
X164484000Y-157940000D02*
X164484000Y-156440000D01*
G04 #@! TO.C,SW1*
X139430000Y-160440000D02*
X143930000Y-160440000D01*
X138180000Y-156440000D02*
X138180000Y-157940000D01*
X143930000Y-153940000D02*
X139430000Y-153940000D01*
X145180000Y-157940000D02*
X145180000Y-156440000D01*
G04 #@! TO.C,RV3*
X69334000Y-123412000D02*
G75*
G02*
X68024000Y-122102000I0J1310000D01*
G01*
X74644000Y-122102000D02*
G75*
G02*
X73334000Y-123412000I-1310000J0D01*
G01*
X74644000Y-116392000D02*
X74644000Y-117082000D01*
X74544000Y-116392000D02*
X74644000Y-116392000D01*
X68024000Y-116392000D02*
X68024000Y-116642000D01*
X68124000Y-116392000D02*
X68024000Y-116392000D01*
X68124000Y-116192000D02*
X68124000Y-116392000D01*
X69544000Y-116392000D02*
X69544000Y-116192000D01*
X73334000Y-123412000D02*
X71844000Y-123412000D01*
X74644000Y-118122000D02*
X74644000Y-122102000D01*
X68024000Y-122102000D02*
X68024000Y-118562000D01*
X70824000Y-123412000D02*
X69334000Y-123412000D01*
X74544000Y-116192000D02*
X74544000Y-116392000D01*
X73124000Y-116192000D02*
X74544000Y-116192000D01*
X73124000Y-116392000D02*
X73124000Y-116192000D01*
X69544000Y-116392000D02*
X73124000Y-116392000D01*
X68124000Y-116192000D02*
X69544000Y-116192000D01*
G04 #@! TO.C,RV2*
X69334000Y-113760000D02*
G75*
G02*
X68024000Y-112450000I0J1310000D01*
G01*
X74644000Y-112450000D02*
G75*
G02*
X73334000Y-113760000I-1310000J0D01*
G01*
X74644000Y-106740000D02*
X74644000Y-107430000D01*
X74544000Y-106740000D02*
X74644000Y-106740000D01*
X68024000Y-106740000D02*
X68024000Y-106990000D01*
X68124000Y-106740000D02*
X68024000Y-106740000D01*
X68124000Y-106540000D02*
X68124000Y-106740000D01*
X69544000Y-106740000D02*
X69544000Y-106540000D01*
X73334000Y-113760000D02*
X71844000Y-113760000D01*
X74644000Y-108470000D02*
X74644000Y-112450000D01*
X68024000Y-112450000D02*
X68024000Y-108910000D01*
X70824000Y-113760000D02*
X69334000Y-113760000D01*
X74544000Y-106540000D02*
X74544000Y-106740000D01*
X73124000Y-106540000D02*
X74544000Y-106540000D01*
X73124000Y-106740000D02*
X73124000Y-106540000D01*
X69544000Y-106740000D02*
X73124000Y-106740000D01*
X68124000Y-106540000D02*
X69544000Y-106540000D01*
G04 #@! TO.C,RV1*
X69080000Y-104616000D02*
G75*
G02*
X67770000Y-103306000I0J1310000D01*
G01*
X74390000Y-103306000D02*
G75*
G02*
X73080000Y-104616000I-1310000J0D01*
G01*
X74390000Y-97596000D02*
X74390000Y-98286000D01*
X74290000Y-97596000D02*
X74390000Y-97596000D01*
X67770000Y-97596000D02*
X67770000Y-97846000D01*
X67870000Y-97596000D02*
X67770000Y-97596000D01*
X67870000Y-97396000D02*
X67870000Y-97596000D01*
X69290000Y-97596000D02*
X69290000Y-97396000D01*
X73080000Y-104616000D02*
X71590000Y-104616000D01*
X74390000Y-99326000D02*
X74390000Y-103306000D01*
X67770000Y-103306000D02*
X67770000Y-99766000D01*
X70570000Y-104616000D02*
X69080000Y-104616000D01*
X74290000Y-97396000D02*
X74290000Y-97596000D01*
X72870000Y-97396000D02*
X74290000Y-97396000D01*
X72870000Y-97596000D02*
X72870000Y-97396000D01*
X69290000Y-97596000D02*
X72870000Y-97596000D01*
X67870000Y-97396000D02*
X69290000Y-97396000D01*
G04 #@! TO.C,R43*
X164692000Y-105696000D02*
X161952000Y-105696000D01*
X161952000Y-105696000D02*
X161952000Y-112236000D01*
X161952000Y-112236000D02*
X164692000Y-112236000D01*
X164692000Y-112236000D02*
X164692000Y-105696000D01*
X163322000Y-104926000D02*
X163322000Y-105696000D01*
X163322000Y-113006000D02*
X163322000Y-112236000D01*
G04 #@! TO.C,R42*
X159612000Y-105696000D02*
X156872000Y-105696000D01*
X156872000Y-105696000D02*
X156872000Y-112236000D01*
X156872000Y-112236000D02*
X159612000Y-112236000D01*
X159612000Y-112236000D02*
X159612000Y-105696000D01*
X158242000Y-104926000D02*
X158242000Y-105696000D01*
X158242000Y-113006000D02*
X158242000Y-112236000D01*
G04 #@! TO.C,R41*
X156872000Y-79216000D02*
X159612000Y-79216000D01*
X159612000Y-79216000D02*
X159612000Y-72676000D01*
X159612000Y-72676000D02*
X156872000Y-72676000D01*
X156872000Y-72676000D02*
X156872000Y-79216000D01*
X158242000Y-79986000D02*
X158242000Y-79216000D01*
X158242000Y-71906000D02*
X158242000Y-72676000D01*
G04 #@! TO.C,R40*
X154532000Y-105696000D02*
X151792000Y-105696000D01*
X151792000Y-105696000D02*
X151792000Y-112236000D01*
X151792000Y-112236000D02*
X154532000Y-112236000D01*
X154532000Y-112236000D02*
X154532000Y-105696000D01*
X153162000Y-104926000D02*
X153162000Y-105696000D01*
X153162000Y-113006000D02*
X153162000Y-112236000D01*
G04 #@! TO.C,R39*
X157072000Y-105696000D02*
X154332000Y-105696000D01*
X154332000Y-105696000D02*
X154332000Y-112236000D01*
X154332000Y-112236000D02*
X157072000Y-112236000D01*
X157072000Y-112236000D02*
X157072000Y-105696000D01*
X155702000Y-104926000D02*
X155702000Y-105696000D01*
X155702000Y-113006000D02*
X155702000Y-112236000D01*
G04 #@! TO.C,R38*
X162152000Y-105696000D02*
X159412000Y-105696000D01*
X159412000Y-105696000D02*
X159412000Y-112236000D01*
X159412000Y-112236000D02*
X162152000Y-112236000D01*
X162152000Y-112236000D02*
X162152000Y-105696000D01*
X160782000Y-104926000D02*
X160782000Y-105696000D01*
X160782000Y-113006000D02*
X160782000Y-112236000D01*
G04 #@! TO.C,R37*
X161952000Y-79216000D02*
X164692000Y-79216000D01*
X164692000Y-79216000D02*
X164692000Y-72676000D01*
X164692000Y-72676000D02*
X161952000Y-72676000D01*
X161952000Y-72676000D02*
X161952000Y-79216000D01*
X163322000Y-79986000D02*
X163322000Y-79216000D01*
X163322000Y-71906000D02*
X163322000Y-72676000D01*
G04 #@! TO.C,R36*
X159412000Y-79216000D02*
X162152000Y-79216000D01*
X162152000Y-79216000D02*
X162152000Y-72676000D01*
X162152000Y-72676000D02*
X159412000Y-72676000D01*
X159412000Y-72676000D02*
X159412000Y-79216000D01*
X160782000Y-79986000D02*
X160782000Y-79216000D01*
X160782000Y-71906000D02*
X160782000Y-72676000D01*
G04 #@! TO.C,R35*
X151992000Y-105696000D02*
X149252000Y-105696000D01*
X149252000Y-105696000D02*
X149252000Y-112236000D01*
X149252000Y-112236000D02*
X151992000Y-112236000D01*
X151992000Y-112236000D02*
X151992000Y-105696000D01*
X150622000Y-104926000D02*
X150622000Y-105696000D01*
X150622000Y-113006000D02*
X150622000Y-112236000D01*
G04 #@! TO.C,R34*
X144172000Y-79216000D02*
X146912000Y-79216000D01*
X146912000Y-79216000D02*
X146912000Y-72676000D01*
X146912000Y-72676000D02*
X144172000Y-72676000D01*
X144172000Y-72676000D02*
X144172000Y-79216000D01*
X145542000Y-79986000D02*
X145542000Y-79216000D01*
X145542000Y-71906000D02*
X145542000Y-72676000D01*
G04 #@! TO.C,R33*
X141632000Y-79216000D02*
X144372000Y-79216000D01*
X144372000Y-79216000D02*
X144372000Y-72676000D01*
X144372000Y-72676000D02*
X141632000Y-72676000D01*
X141632000Y-72676000D02*
X141632000Y-79216000D01*
X143002000Y-79986000D02*
X143002000Y-79216000D01*
X143002000Y-71906000D02*
X143002000Y-72676000D01*
G04 #@! TO.C,R32*
X144372000Y-105696000D02*
X141632000Y-105696000D01*
X141632000Y-105696000D02*
X141632000Y-112236000D01*
X141632000Y-112236000D02*
X144372000Y-112236000D01*
X144372000Y-112236000D02*
X144372000Y-105696000D01*
X143002000Y-104926000D02*
X143002000Y-105696000D01*
X143002000Y-113006000D02*
X143002000Y-112236000D01*
G04 #@! TO.C,R31*
X146912000Y-105696000D02*
X144172000Y-105696000D01*
X144172000Y-105696000D02*
X144172000Y-112236000D01*
X144172000Y-112236000D02*
X146912000Y-112236000D01*
X146912000Y-112236000D02*
X146912000Y-105696000D01*
X145542000Y-104926000D02*
X145542000Y-105696000D01*
X145542000Y-113006000D02*
X145542000Y-112236000D01*
G04 #@! TO.C,R30*
X149452000Y-105696000D02*
X146712000Y-105696000D01*
X146712000Y-105696000D02*
X146712000Y-112236000D01*
X146712000Y-112236000D02*
X149452000Y-112236000D01*
X149452000Y-112236000D02*
X149452000Y-105696000D01*
X148082000Y-104926000D02*
X148082000Y-105696000D01*
X148082000Y-113006000D02*
X148082000Y-112236000D01*
G04 #@! TO.C,R29*
X149252000Y-79216000D02*
X151992000Y-79216000D01*
X151992000Y-79216000D02*
X151992000Y-72676000D01*
X151992000Y-72676000D02*
X149252000Y-72676000D01*
X149252000Y-72676000D02*
X149252000Y-79216000D01*
X150622000Y-79986000D02*
X150622000Y-79216000D01*
X150622000Y-71906000D02*
X150622000Y-72676000D01*
G04 #@! TO.C,R28*
X146712000Y-79216000D02*
X149452000Y-79216000D01*
X149452000Y-79216000D02*
X149452000Y-72676000D01*
X149452000Y-72676000D02*
X146712000Y-72676000D01*
X146712000Y-72676000D02*
X146712000Y-79216000D01*
X148082000Y-79986000D02*
X148082000Y-79216000D01*
X148082000Y-71906000D02*
X148082000Y-72676000D01*
G04 #@! TO.C,R27*
X115416000Y-127540000D02*
X112676000Y-127540000D01*
X112676000Y-127540000D02*
X112676000Y-134080000D01*
X112676000Y-134080000D02*
X115416000Y-134080000D01*
X115416000Y-134080000D02*
X115416000Y-127540000D01*
X114046000Y-126770000D02*
X114046000Y-127540000D01*
X114046000Y-134850000D02*
X114046000Y-134080000D01*
G04 #@! TO.C,R26*
X112876000Y-127540000D02*
X110136000Y-127540000D01*
X110136000Y-127540000D02*
X110136000Y-134080000D01*
X110136000Y-134080000D02*
X112876000Y-134080000D01*
X112876000Y-134080000D02*
X112876000Y-127540000D01*
X111506000Y-126770000D02*
X111506000Y-127540000D01*
X111506000Y-134850000D02*
X111506000Y-134080000D01*
G04 #@! TO.C,R25*
X110336000Y-127540000D02*
X107596000Y-127540000D01*
X107596000Y-127540000D02*
X107596000Y-134080000D01*
X107596000Y-134080000D02*
X110336000Y-134080000D01*
X110336000Y-134080000D02*
X110336000Y-127540000D01*
X108966000Y-126770000D02*
X108966000Y-127540000D01*
X108966000Y-134850000D02*
X108966000Y-134080000D01*
G04 #@! TO.C,R24*
X107796000Y-127540000D02*
X105056000Y-127540000D01*
X105056000Y-127540000D02*
X105056000Y-134080000D01*
X105056000Y-134080000D02*
X107796000Y-134080000D01*
X107796000Y-134080000D02*
X107796000Y-127540000D01*
X106426000Y-126770000D02*
X106426000Y-127540000D01*
X106426000Y-134850000D02*
X106426000Y-134080000D01*
G04 #@! TO.C,R23*
X105256000Y-127540000D02*
X102516000Y-127540000D01*
X102516000Y-127540000D02*
X102516000Y-134080000D01*
X102516000Y-134080000D02*
X105256000Y-134080000D01*
X105256000Y-134080000D02*
X105256000Y-127540000D01*
X103886000Y-126770000D02*
X103886000Y-127540000D01*
X103886000Y-134850000D02*
X103886000Y-134080000D01*
G04 #@! TO.C,R22*
X102716000Y-127540000D02*
X99976000Y-127540000D01*
X99976000Y-127540000D02*
X99976000Y-134080000D01*
X99976000Y-134080000D02*
X102716000Y-134080000D01*
X102716000Y-134080000D02*
X102716000Y-127540000D01*
X101346000Y-126770000D02*
X101346000Y-127540000D01*
X101346000Y-134850000D02*
X101346000Y-134080000D01*
G04 #@! TO.C,R21*
X100176000Y-127540000D02*
X97436000Y-127540000D01*
X97436000Y-127540000D02*
X97436000Y-134080000D01*
X97436000Y-134080000D02*
X100176000Y-134080000D01*
X100176000Y-134080000D02*
X100176000Y-127540000D01*
X98806000Y-126770000D02*
X98806000Y-127540000D01*
X98806000Y-134850000D02*
X98806000Y-134080000D01*
G04 #@! TO.C,R20*
X97636000Y-127540000D02*
X94896000Y-127540000D01*
X94896000Y-127540000D02*
X94896000Y-134080000D01*
X94896000Y-134080000D02*
X97636000Y-134080000D01*
X97636000Y-134080000D02*
X97636000Y-127540000D01*
X96266000Y-126770000D02*
X96266000Y-127540000D01*
X96266000Y-134850000D02*
X96266000Y-134080000D01*
G04 #@! TO.C,R19*
X67464000Y-92678000D02*
X70204000Y-92678000D01*
X70204000Y-92678000D02*
X70204000Y-86138000D01*
X70204000Y-86138000D02*
X67464000Y-86138000D01*
X67464000Y-86138000D02*
X67464000Y-92678000D01*
X68834000Y-93448000D02*
X68834000Y-92678000D01*
X68834000Y-85368000D02*
X68834000Y-86138000D01*
G04 #@! TO.C,R18*
X92356000Y-92678000D02*
X95096000Y-92678000D01*
X95096000Y-92678000D02*
X95096000Y-86138000D01*
X95096000Y-86138000D02*
X92356000Y-86138000D01*
X92356000Y-86138000D02*
X92356000Y-92678000D01*
X93726000Y-93448000D02*
X93726000Y-92678000D01*
X93726000Y-85368000D02*
X93726000Y-86138000D01*
G04 #@! TO.C,R17*
X88800000Y-92678000D02*
X91540000Y-92678000D01*
X91540000Y-92678000D02*
X91540000Y-86138000D01*
X91540000Y-86138000D02*
X88800000Y-86138000D01*
X88800000Y-86138000D02*
X88800000Y-92678000D01*
X90170000Y-93448000D02*
X90170000Y-92678000D01*
X90170000Y-85368000D02*
X90170000Y-86138000D01*
G04 #@! TO.C,R16*
X85244000Y-92678000D02*
X87984000Y-92678000D01*
X87984000Y-92678000D02*
X87984000Y-86138000D01*
X87984000Y-86138000D02*
X85244000Y-86138000D01*
X85244000Y-86138000D02*
X85244000Y-92678000D01*
X86614000Y-93448000D02*
X86614000Y-92678000D01*
X86614000Y-85368000D02*
X86614000Y-86138000D01*
G04 #@! TO.C,R15*
X81688000Y-92678000D02*
X84428000Y-92678000D01*
X84428000Y-92678000D02*
X84428000Y-86138000D01*
X84428000Y-86138000D02*
X81688000Y-86138000D01*
X81688000Y-86138000D02*
X81688000Y-92678000D01*
X83058000Y-93448000D02*
X83058000Y-92678000D01*
X83058000Y-85368000D02*
X83058000Y-86138000D01*
G04 #@! TO.C,R14*
X78132000Y-92678000D02*
X80872000Y-92678000D01*
X80872000Y-92678000D02*
X80872000Y-86138000D01*
X80872000Y-86138000D02*
X78132000Y-86138000D01*
X78132000Y-86138000D02*
X78132000Y-92678000D01*
X79502000Y-93448000D02*
X79502000Y-92678000D01*
X79502000Y-85368000D02*
X79502000Y-86138000D01*
G04 #@! TO.C,R13*
X74576000Y-92678000D02*
X77316000Y-92678000D01*
X77316000Y-92678000D02*
X77316000Y-86138000D01*
X77316000Y-86138000D02*
X74576000Y-86138000D01*
X74576000Y-86138000D02*
X74576000Y-92678000D01*
X75946000Y-93448000D02*
X75946000Y-92678000D01*
X75946000Y-85368000D02*
X75946000Y-86138000D01*
G04 #@! TO.C,R12*
X71020000Y-92678000D02*
X73760000Y-92678000D01*
X73760000Y-92678000D02*
X73760000Y-86138000D01*
X73760000Y-86138000D02*
X71020000Y-86138000D01*
X71020000Y-86138000D02*
X71020000Y-92678000D01*
X72390000Y-93448000D02*
X72390000Y-92678000D01*
X72390000Y-85368000D02*
X72390000Y-86138000D01*
G04 #@! TO.C,R11*
X145442000Y-141192000D02*
X148182000Y-141192000D01*
X148182000Y-141192000D02*
X148182000Y-134652000D01*
X148182000Y-134652000D02*
X145442000Y-134652000D01*
X145442000Y-134652000D02*
X145442000Y-141192000D01*
X146812000Y-141962000D02*
X146812000Y-141192000D01*
X146812000Y-133882000D02*
X146812000Y-134652000D01*
G04 #@! TO.C,R10*
X119788000Y-165068000D02*
X122528000Y-165068000D01*
X122528000Y-165068000D02*
X122528000Y-158528000D01*
X122528000Y-158528000D02*
X119788000Y-158528000D01*
X119788000Y-158528000D02*
X119788000Y-165068000D01*
X121158000Y-165838000D02*
X121158000Y-165068000D01*
X121158000Y-157758000D02*
X121158000Y-158528000D01*
G04 #@! TO.C,R9*
X151230000Y-134652000D02*
X148490000Y-134652000D01*
X148490000Y-134652000D02*
X148490000Y-141192000D01*
X148490000Y-141192000D02*
X151230000Y-141192000D01*
X151230000Y-141192000D02*
X151230000Y-134652000D01*
X149860000Y-133882000D02*
X149860000Y-134652000D01*
X149860000Y-141962000D02*
X149860000Y-141192000D01*
G04 #@! TO.C,R8*
X123090000Y-165068000D02*
X125830000Y-165068000D01*
X125830000Y-165068000D02*
X125830000Y-158528000D01*
X125830000Y-158528000D02*
X123090000Y-158528000D01*
X123090000Y-158528000D02*
X123090000Y-165068000D01*
X124460000Y-165838000D02*
X124460000Y-165068000D01*
X124460000Y-157758000D02*
X124460000Y-158528000D01*
G04 #@! TO.C,R7*
X154586000Y-141192000D02*
X157326000Y-141192000D01*
X157326000Y-141192000D02*
X157326000Y-134652000D01*
X157326000Y-134652000D02*
X154586000Y-134652000D01*
X154586000Y-134652000D02*
X154586000Y-141192000D01*
X155956000Y-141962000D02*
X155956000Y-141192000D01*
X155956000Y-133882000D02*
X155956000Y-134652000D01*
G04 #@! TO.C,R6*
X154278000Y-134652000D02*
X151538000Y-134652000D01*
X151538000Y-134652000D02*
X151538000Y-141192000D01*
X151538000Y-141192000D02*
X154278000Y-141192000D01*
X154278000Y-141192000D02*
X154278000Y-134652000D01*
X152908000Y-133882000D02*
X152908000Y-134652000D01*
X152908000Y-141962000D02*
X152908000Y-141192000D01*
G04 #@! TO.C,R5*
X126392000Y-165068000D02*
X129132000Y-165068000D01*
X129132000Y-165068000D02*
X129132000Y-158528000D01*
X129132000Y-158528000D02*
X126392000Y-158528000D01*
X126392000Y-158528000D02*
X126392000Y-165068000D01*
X127762000Y-165838000D02*
X127762000Y-165068000D01*
X127762000Y-157758000D02*
X127762000Y-158528000D01*
G04 #@! TO.C,R4*
X136806000Y-141192000D02*
X139546000Y-141192000D01*
X139546000Y-141192000D02*
X139546000Y-134652000D01*
X139546000Y-134652000D02*
X136806000Y-134652000D01*
X136806000Y-134652000D02*
X136806000Y-141192000D01*
X138176000Y-141962000D02*
X138176000Y-141192000D01*
X138176000Y-133882000D02*
X138176000Y-134652000D01*
G04 #@! TO.C,R3*
X142594000Y-134652000D02*
X139854000Y-134652000D01*
X139854000Y-134652000D02*
X139854000Y-141192000D01*
X139854000Y-141192000D02*
X142594000Y-141192000D01*
X142594000Y-141192000D02*
X142594000Y-134652000D01*
X141224000Y-133882000D02*
X141224000Y-134652000D01*
X141224000Y-141962000D02*
X141224000Y-141192000D01*
G04 #@! TO.C,R2*
X160174000Y-141192000D02*
X162914000Y-141192000D01*
X162914000Y-141192000D02*
X162914000Y-134652000D01*
X162914000Y-134652000D02*
X160174000Y-134652000D01*
X160174000Y-134652000D02*
X160174000Y-141192000D01*
X161544000Y-141962000D02*
X161544000Y-141192000D01*
X161544000Y-133882000D02*
X161544000Y-134652000D01*
G04 #@! TO.C,R1*
X165708000Y-134652000D02*
X162968000Y-134652000D01*
X162968000Y-134652000D02*
X162968000Y-141192000D01*
X162968000Y-141192000D02*
X165708000Y-141192000D01*
X165708000Y-141192000D02*
X165708000Y-134652000D01*
X164338000Y-133882000D02*
X164338000Y-134652000D01*
X164338000Y-141962000D02*
X164338000Y-141192000D01*
G04 #@! TO.C,J4*
X99254000Y-167446000D02*
X101914000Y-167446000D01*
X99254000Y-159766000D02*
X99254000Y-167446000D01*
X101914000Y-159766000D02*
X101914000Y-167446000D01*
X99254000Y-159766000D02*
X101914000Y-159766000D01*
X99254000Y-158496000D02*
X99254000Y-157166000D01*
X99254000Y-157166000D02*
X100584000Y-157166000D01*
G04 #@! TO.C,J3*
X95444000Y-167446000D02*
X98104000Y-167446000D01*
X95444000Y-159766000D02*
X95444000Y-167446000D01*
X98104000Y-159766000D02*
X98104000Y-167446000D01*
X95444000Y-159766000D02*
X98104000Y-159766000D01*
X95444000Y-158496000D02*
X95444000Y-157166000D01*
X95444000Y-157166000D02*
X96774000Y-157166000D01*
G04 #@! TO.C,J2*
X91634000Y-167446000D02*
X94294000Y-167446000D01*
X91634000Y-159766000D02*
X91634000Y-167446000D01*
X94294000Y-159766000D02*
X94294000Y-167446000D01*
X91634000Y-159766000D02*
X94294000Y-159766000D01*
X91634000Y-158496000D02*
X91634000Y-157166000D01*
X91634000Y-157166000D02*
X92964000Y-157166000D01*
G04 #@! TO.C,J1*
X87824000Y-167446000D02*
X90484000Y-167446000D01*
X87824000Y-159766000D02*
X87824000Y-167446000D01*
X90484000Y-159766000D02*
X90484000Y-167446000D01*
X87824000Y-159766000D02*
X90484000Y-159766000D01*
X87824000Y-158496000D02*
X87824000Y-157166000D01*
X87824000Y-157166000D02*
X89154000Y-157166000D01*
G04 #@! TO.C,DS1*
X140292000Y-102356000D02*
X140292000Y-100076000D01*
X140292000Y-102356000D02*
X143002000Y-102356000D01*
X140542000Y-102101000D02*
X140542000Y-82811000D01*
X140542000Y-82811000D02*
X165792000Y-82811000D01*
X165792000Y-82811000D02*
X165792000Y-102101000D01*
X165792000Y-102101000D02*
X140542000Y-102101000D01*
G04 #@! TO.C,D16*
X112039130Y-81089837D02*
G75*
G02*
X109957039Y-81090000I-1041130J1079837D01*
G01*
X112039130Y-78930163D02*
G75*
G03*
X109957039Y-78930000I-1041130J-1079837D01*
G01*
X112670335Y-81088608D02*
G75*
G02*
X109438000Y-81245516I-1672335J1078608D01*
G01*
X112670335Y-78931392D02*
G75*
G03*
X109438000Y-78774484I-1672335J-1078608D01*
G01*
X109438000Y-78774000D02*
X109438000Y-78930000D01*
X109438000Y-81090000D02*
X109438000Y-81246000D01*
G04 #@! TO.C,D15*
X106197130Y-81089837D02*
G75*
G02*
X104115039Y-81090000I-1041130J1079837D01*
G01*
X106197130Y-78930163D02*
G75*
G03*
X104115039Y-78930000I-1041130J-1079837D01*
G01*
X106828335Y-81088608D02*
G75*
G02*
X103596000Y-81245516I-1672335J1078608D01*
G01*
X106828335Y-78931392D02*
G75*
G03*
X103596000Y-78774484I-1672335J-1078608D01*
G01*
X103596000Y-78774000D02*
X103596000Y-78930000D01*
X103596000Y-81090000D02*
X103596000Y-81246000D01*
G04 #@! TO.C,D14*
X100355130Y-81089837D02*
G75*
G02*
X98273039Y-81090000I-1041130J1079837D01*
G01*
X100355130Y-78930163D02*
G75*
G03*
X98273039Y-78930000I-1041130J-1079837D01*
G01*
X100986335Y-81088608D02*
G75*
G02*
X97754000Y-81245516I-1672335J1078608D01*
G01*
X100986335Y-78931392D02*
G75*
G03*
X97754000Y-78774484I-1672335J-1078608D01*
G01*
X97754000Y-78774000D02*
X97754000Y-78930000D01*
X97754000Y-81090000D02*
X97754000Y-81246000D01*
G04 #@! TO.C,D13*
X94513130Y-81089837D02*
G75*
G02*
X92431039Y-81090000I-1041130J1079837D01*
G01*
X94513130Y-78930163D02*
G75*
G03*
X92431039Y-78930000I-1041130J-1079837D01*
G01*
X95144335Y-81088608D02*
G75*
G02*
X91912000Y-81245516I-1672335J1078608D01*
G01*
X95144335Y-78931392D02*
G75*
G03*
X91912000Y-78774484I-1672335J-1078608D01*
G01*
X91912000Y-78774000D02*
X91912000Y-78930000D01*
X91912000Y-81090000D02*
X91912000Y-81246000D01*
G04 #@! TO.C,D12*
X88671130Y-81089837D02*
G75*
G02*
X86589039Y-81090000I-1041130J1079837D01*
G01*
X88671130Y-78930163D02*
G75*
G03*
X86589039Y-78930000I-1041130J-1079837D01*
G01*
X89302335Y-81088608D02*
G75*
G02*
X86070000Y-81245516I-1672335J1078608D01*
G01*
X89302335Y-78931392D02*
G75*
G03*
X86070000Y-78774484I-1672335J-1078608D01*
G01*
X86070000Y-78774000D02*
X86070000Y-78930000D01*
X86070000Y-81090000D02*
X86070000Y-81246000D01*
G04 #@! TO.C,D11*
X82829130Y-81089837D02*
G75*
G02*
X80747039Y-81090000I-1041130J1079837D01*
G01*
X82829130Y-78930163D02*
G75*
G03*
X80747039Y-78930000I-1041130J-1079837D01*
G01*
X83460335Y-81088608D02*
G75*
G02*
X80228000Y-81245516I-1672335J1078608D01*
G01*
X83460335Y-78931392D02*
G75*
G03*
X80228000Y-78774484I-1672335J-1078608D01*
G01*
X80228000Y-78774000D02*
X80228000Y-78930000D01*
X80228000Y-81090000D02*
X80228000Y-81246000D01*
G04 #@! TO.C,D10*
X76987130Y-81089837D02*
G75*
G02*
X74905039Y-81090000I-1041130J1079837D01*
G01*
X76987130Y-78930163D02*
G75*
G03*
X74905039Y-78930000I-1041130J-1079837D01*
G01*
X77618335Y-81088608D02*
G75*
G02*
X74386000Y-81245516I-1672335J1078608D01*
G01*
X77618335Y-78931392D02*
G75*
G03*
X74386000Y-78774484I-1672335J-1078608D01*
G01*
X74386000Y-78774000D02*
X74386000Y-78930000D01*
X74386000Y-81090000D02*
X74386000Y-81246000D01*
G04 #@! TO.C,D9*
X71145130Y-81089837D02*
G75*
G02*
X69063039Y-81090000I-1041130J1079837D01*
G01*
X71145130Y-78930163D02*
G75*
G03*
X69063039Y-78930000I-1041130J-1079837D01*
G01*
X71776335Y-81088608D02*
G75*
G02*
X68544000Y-81245516I-1672335J1078608D01*
G01*
X71776335Y-78931392D02*
G75*
G03*
X68544000Y-78774484I-1672335J-1078608D01*
G01*
X68544000Y-78774000D02*
X68544000Y-78930000D01*
X68544000Y-81090000D02*
X68544000Y-81246000D01*
G04 #@! TO.C,D8*
X125396000Y-70532000D02*
X130516000Y-70532000D01*
X125516000Y-75772000D02*
X130516000Y-75772000D01*
X125396000Y-70852000D02*
X125396000Y-70532000D01*
G04 #@! TO.C,D7*
X117268000Y-70532000D02*
X122388000Y-70532000D01*
X117388000Y-75772000D02*
X122388000Y-75772000D01*
X117268000Y-70852000D02*
X117268000Y-70532000D01*
G04 #@! TO.C,D6*
X109140000Y-70532000D02*
X114260000Y-70532000D01*
X109260000Y-75772000D02*
X114260000Y-75772000D01*
X109140000Y-70852000D02*
X109140000Y-70532000D01*
G04 #@! TO.C,D5*
X101012000Y-70532000D02*
X106132000Y-70532000D01*
X101132000Y-75772000D02*
X106132000Y-75772000D01*
X101012000Y-70852000D02*
X101012000Y-70532000D01*
G04 #@! TO.C,D4*
X92884000Y-70532000D02*
X98004000Y-70532000D01*
X93004000Y-75772000D02*
X98004000Y-75772000D01*
X92884000Y-70852000D02*
X92884000Y-70532000D01*
G04 #@! TO.C,D3*
X84756000Y-70532000D02*
X89876000Y-70532000D01*
X84876000Y-75772000D02*
X89876000Y-75772000D01*
X84756000Y-70852000D02*
X84756000Y-70532000D01*
G04 #@! TO.C,D2*
X76628000Y-70532000D02*
X81748000Y-70532000D01*
X76748000Y-75772000D02*
X81748000Y-75772000D01*
X76628000Y-70852000D02*
X76628000Y-70532000D01*
G04 #@! TO.C,D1*
X68500000Y-70532000D02*
X73620000Y-70532000D01*
X68620000Y-75772000D02*
X73620000Y-75772000D01*
X68500000Y-70852000D02*
X68500000Y-70532000D01*
G04 #@! TO.C,C7*
X145138000Y-132472000D02*
X145138000Y-135712000D01*
X142898000Y-132472000D02*
X142898000Y-135712000D01*
X145138000Y-132472000D02*
X145073000Y-132472000D01*
X142963000Y-132472000D02*
X142898000Y-132472000D01*
X145138000Y-135712000D02*
X145073000Y-135712000D01*
X142963000Y-135712000D02*
X142898000Y-135712000D01*
G04 #@! TO.C,C6*
X120038000Y-154802000D02*
X120038000Y-151562000D01*
X122278000Y-154802000D02*
X122278000Y-151562000D01*
X120038000Y-154802000D02*
X120103000Y-154802000D01*
X122213000Y-154802000D02*
X122278000Y-154802000D01*
X120038000Y-151562000D02*
X120103000Y-151562000D01*
X122213000Y-151562000D02*
X122278000Y-151562000D01*
G04 #@! TO.C,C5*
X123340000Y-154802000D02*
X123340000Y-151562000D01*
X125580000Y-154802000D02*
X125580000Y-151562000D01*
X123340000Y-154802000D02*
X123405000Y-154802000D01*
X125515000Y-154802000D02*
X125580000Y-154802000D01*
X123340000Y-151562000D02*
X123405000Y-151562000D01*
X125515000Y-151562000D02*
X125580000Y-151562000D01*
G04 #@! TO.C,C4*
X159870000Y-132472000D02*
X159870000Y-135712000D01*
X157630000Y-132472000D02*
X157630000Y-135712000D01*
X159870000Y-132472000D02*
X159805000Y-132472000D01*
X157695000Y-132472000D02*
X157630000Y-132472000D01*
X159870000Y-135712000D02*
X159805000Y-135712000D01*
X157695000Y-135712000D02*
X157630000Y-135712000D01*
G04 #@! TO.C,C3*
X126642000Y-154548000D02*
X126642000Y-151308000D01*
X128882000Y-154548000D02*
X128882000Y-151308000D01*
X126642000Y-154548000D02*
X126707000Y-154548000D01*
X128817000Y-154548000D02*
X128882000Y-154548000D01*
X126642000Y-151308000D02*
X126707000Y-151308000D01*
X128817000Y-151308000D02*
X128882000Y-151308000D01*
G04 #@! TO.C,C2*
X142898000Y-143372000D02*
X142898000Y-140132000D01*
X145138000Y-143372000D02*
X145138000Y-140132000D01*
X142898000Y-143372000D02*
X142963000Y-143372000D01*
X145073000Y-143372000D02*
X145138000Y-143372000D01*
X142898000Y-140132000D02*
X142963000Y-140132000D01*
X145073000Y-140132000D02*
X145138000Y-140132000D01*
G04 #@! TO.C,C1*
X159870000Y-140092000D02*
X159870000Y-143332000D01*
X157630000Y-140092000D02*
X157630000Y-143332000D01*
X159870000Y-140092000D02*
X159805000Y-140092000D01*
X157695000Y-140092000D02*
X157630000Y-140092000D01*
X159870000Y-143332000D02*
X159805000Y-143332000D01*
X157695000Y-143332000D02*
X157630000Y-143332000D01*
G04 #@! TO.C,A1*
X70358000Y-132588000D02*
X70358000Y-130048000D01*
X70358000Y-130048000D02*
X67688000Y-130048000D01*
X67688000Y-132588000D02*
X67688000Y-170818000D01*
X67688000Y-127378000D02*
X67688000Y-130048000D01*
X83058000Y-130048000D02*
X85728000Y-130048000D01*
X83058000Y-130048000D02*
X83058000Y-168148000D01*
X83058000Y-168148000D02*
X85728000Y-168148000D01*
X70358000Y-132588000D02*
X67688000Y-132588000D01*
X70358000Y-132588000D02*
X70358000Y-168148000D01*
X70358000Y-168148000D02*
X67688000Y-168148000D01*
X67688000Y-170818000D02*
X85728000Y-170818000D01*
X85728000Y-170818000D02*
X85728000Y-127378000D01*
X85728000Y-127378000D02*
X67688000Y-127378000D01*
G04 #@! TO.C,J5*
D10*
X123956380Y-88979333D02*
X124670666Y-88979333D01*
X124813523Y-89026952D01*
X124908761Y-89122190D01*
X124956380Y-89265047D01*
X124956380Y-89360285D01*
X123956380Y-88026952D02*
X123956380Y-88503142D01*
X124432571Y-88550761D01*
X124384952Y-88503142D01*
X124337333Y-88407904D01*
X124337333Y-88169809D01*
X124384952Y-88074571D01*
X124432571Y-88026952D01*
X124527809Y-87979333D01*
X124765904Y-87979333D01*
X124861142Y-88026952D01*
X124908761Y-88074571D01*
X124956380Y-88169809D01*
X124956380Y-88407904D01*
X124908761Y-88503142D01*
X124861142Y-88550761D01*
G04 #@! TO.C,U6*
X125476095Y-112438380D02*
X125476095Y-113247904D01*
X125523714Y-113343142D01*
X125571333Y-113390761D01*
X125666571Y-113438380D01*
X125857047Y-113438380D01*
X125952285Y-113390761D01*
X125999904Y-113343142D01*
X126047523Y-113247904D01*
X126047523Y-112438380D01*
X126952285Y-112438380D02*
X126761809Y-112438380D01*
X126666571Y-112486000D01*
X126618952Y-112533619D01*
X126523714Y-112676476D01*
X126476095Y-112866952D01*
X126476095Y-113247904D01*
X126523714Y-113343142D01*
X126571333Y-113390761D01*
X126666571Y-113438380D01*
X126857047Y-113438380D01*
X126952285Y-113390761D01*
X126999904Y-113343142D01*
X127047523Y-113247904D01*
X127047523Y-113009809D01*
X126999904Y-112914571D01*
X126952285Y-112866952D01*
X126857047Y-112819333D01*
X126666571Y-112819333D01*
X126571333Y-112866952D01*
X126523714Y-112914571D01*
X126476095Y-113009809D01*
G04 #@! TO.C,U5*
X115828380Y-143763904D02*
X116637904Y-143763904D01*
X116733142Y-143716285D01*
X116780761Y-143668666D01*
X116828380Y-143573428D01*
X116828380Y-143382952D01*
X116780761Y-143287714D01*
X116733142Y-143240095D01*
X116637904Y-143192476D01*
X115828380Y-143192476D01*
X115828380Y-142240095D02*
X115828380Y-142716285D01*
X116304571Y-142763904D01*
X116256952Y-142716285D01*
X116209333Y-142621047D01*
X116209333Y-142382952D01*
X116256952Y-142287714D01*
X116304571Y-142240095D01*
X116399809Y-142192476D01*
X116637904Y-142192476D01*
X116733142Y-142240095D01*
X116780761Y-142287714D01*
X116828380Y-142382952D01*
X116828380Y-142621047D01*
X116780761Y-142716285D01*
X116733142Y-142763904D01*
G04 #@! TO.C,U4*
X141648380Y-123443904D02*
X142457904Y-123443904D01*
X142553142Y-123396285D01*
X142600761Y-123348666D01*
X142648380Y-123253428D01*
X142648380Y-123062952D01*
X142600761Y-122967714D01*
X142553142Y-122920095D01*
X142457904Y-122872476D01*
X141648380Y-122872476D01*
X141981714Y-121967714D02*
X142648380Y-121967714D01*
X141600761Y-122205809D02*
X142315047Y-122443904D01*
X142315047Y-121824857D01*
G04 #@! TO.C,U2*
X115828380Y-119379904D02*
X116637904Y-119379904D01*
X116733142Y-119332285D01*
X116780761Y-119284666D01*
X116828380Y-119189428D01*
X116828380Y-118998952D01*
X116780761Y-118903714D01*
X116733142Y-118856095D01*
X116637904Y-118808476D01*
X115828380Y-118808476D01*
X115923619Y-118379904D02*
X115876000Y-118332285D01*
X115828380Y-118237047D01*
X115828380Y-117998952D01*
X115876000Y-117903714D01*
X115923619Y-117856095D01*
X116018857Y-117808476D01*
X116114095Y-117808476D01*
X116256952Y-117856095D01*
X116828380Y-118427523D01*
X116828380Y-117808476D01*
G04 #@! TO.C,U1*
X84328095Y-99992380D02*
X84328095Y-100801904D01*
X84375714Y-100897142D01*
X84423333Y-100944761D01*
X84518571Y-100992380D01*
X84709047Y-100992380D01*
X84804285Y-100944761D01*
X84851904Y-100897142D01*
X84899523Y-100801904D01*
X84899523Y-99992380D01*
X85899523Y-100992380D02*
X85328095Y-100992380D01*
X85613809Y-100992380D02*
X85613809Y-99992380D01*
X85518571Y-100135238D01*
X85423333Y-100230476D01*
X85328095Y-100278095D01*
G04 #@! TO.C,SW5*
X149998666Y-160964761D02*
X150141523Y-161012380D01*
X150379619Y-161012380D01*
X150474857Y-160964761D01*
X150522476Y-160917142D01*
X150570095Y-160821904D01*
X150570095Y-160726666D01*
X150522476Y-160631428D01*
X150474857Y-160583809D01*
X150379619Y-160536190D01*
X150189142Y-160488571D01*
X150093904Y-160440952D01*
X150046285Y-160393333D01*
X149998666Y-160298095D01*
X149998666Y-160202857D01*
X150046285Y-160107619D01*
X150093904Y-160060000D01*
X150189142Y-160012380D01*
X150427238Y-160012380D01*
X150570095Y-160060000D01*
X150903428Y-160012380D02*
X151141523Y-161012380D01*
X151332000Y-160298095D01*
X151522476Y-161012380D01*
X151760571Y-160012380D01*
X152617714Y-160012380D02*
X152141523Y-160012380D01*
X152093904Y-160488571D01*
X152141523Y-160440952D01*
X152236761Y-160393333D01*
X152474857Y-160393333D01*
X152570095Y-160440952D01*
X152617714Y-160488571D01*
X152665333Y-160583809D01*
X152665333Y-160821904D01*
X152617714Y-160917142D01*
X152570095Y-160964761D01*
X152474857Y-161012380D01*
X152236761Y-161012380D01*
X152141523Y-160964761D01*
X152093904Y-160917142D01*
G04 #@! TO.C,SW4*
X102044666Y-153058761D02*
X102187523Y-153106380D01*
X102425619Y-153106380D01*
X102520857Y-153058761D01*
X102568476Y-153011142D01*
X102616095Y-152915904D01*
X102616095Y-152820666D01*
X102568476Y-152725428D01*
X102520857Y-152677809D01*
X102425619Y-152630190D01*
X102235142Y-152582571D01*
X102139904Y-152534952D01*
X102092285Y-152487333D01*
X102044666Y-152392095D01*
X102044666Y-152296857D01*
X102092285Y-152201619D01*
X102139904Y-152154000D01*
X102235142Y-152106380D01*
X102473238Y-152106380D01*
X102616095Y-152154000D01*
X102949428Y-152106380D02*
X103187523Y-153106380D01*
X103378000Y-152392095D01*
X103568476Y-153106380D01*
X103806571Y-152106380D01*
X104616095Y-152439714D02*
X104616095Y-153106380D01*
X104378000Y-152058761D02*
X104139904Y-152773047D01*
X104758952Y-152773047D01*
G04 #@! TO.C,SW3*
X149998666Y-145470761D02*
X150141523Y-145518380D01*
X150379619Y-145518380D01*
X150474857Y-145470761D01*
X150522476Y-145423142D01*
X150570095Y-145327904D01*
X150570095Y-145232666D01*
X150522476Y-145137428D01*
X150474857Y-145089809D01*
X150379619Y-145042190D01*
X150189142Y-144994571D01*
X150093904Y-144946952D01*
X150046285Y-144899333D01*
X149998666Y-144804095D01*
X149998666Y-144708857D01*
X150046285Y-144613619D01*
X150093904Y-144566000D01*
X150189142Y-144518380D01*
X150427238Y-144518380D01*
X150570095Y-144566000D01*
X150903428Y-144518380D02*
X151141523Y-145518380D01*
X151332000Y-144804095D01*
X151522476Y-145518380D01*
X151760571Y-144518380D01*
X152046285Y-144518380D02*
X152665333Y-144518380D01*
X152332000Y-144899333D01*
X152474857Y-144899333D01*
X152570095Y-144946952D01*
X152617714Y-144994571D01*
X152665333Y-145089809D01*
X152665333Y-145327904D01*
X152617714Y-145423142D01*
X152570095Y-145470761D01*
X152474857Y-145518380D01*
X152189142Y-145518380D01*
X152093904Y-145470761D01*
X152046285Y-145423142D01*
G04 #@! TO.C,SW2*
X159650666Y-153344761D02*
X159793523Y-153392380D01*
X160031619Y-153392380D01*
X160126857Y-153344761D01*
X160174476Y-153297142D01*
X160222095Y-153201904D01*
X160222095Y-153106666D01*
X160174476Y-153011428D01*
X160126857Y-152963809D01*
X160031619Y-152916190D01*
X159841142Y-152868571D01*
X159745904Y-152820952D01*
X159698285Y-152773333D01*
X159650666Y-152678095D01*
X159650666Y-152582857D01*
X159698285Y-152487619D01*
X159745904Y-152440000D01*
X159841142Y-152392380D01*
X160079238Y-152392380D01*
X160222095Y-152440000D01*
X160555428Y-152392380D02*
X160793523Y-153392380D01*
X160984000Y-152678095D01*
X161174476Y-153392380D01*
X161412571Y-152392380D01*
X161745904Y-152487619D02*
X161793523Y-152440000D01*
X161888761Y-152392380D01*
X162126857Y-152392380D01*
X162222095Y-152440000D01*
X162269714Y-152487619D01*
X162317333Y-152582857D01*
X162317333Y-152678095D01*
X162269714Y-152820952D01*
X161698285Y-153392380D01*
X162317333Y-153392380D01*
G04 #@! TO.C,SW1*
X140346666Y-153344761D02*
X140489523Y-153392380D01*
X140727619Y-153392380D01*
X140822857Y-153344761D01*
X140870476Y-153297142D01*
X140918095Y-153201904D01*
X140918095Y-153106666D01*
X140870476Y-153011428D01*
X140822857Y-152963809D01*
X140727619Y-152916190D01*
X140537142Y-152868571D01*
X140441904Y-152820952D01*
X140394285Y-152773333D01*
X140346666Y-152678095D01*
X140346666Y-152582857D01*
X140394285Y-152487619D01*
X140441904Y-152440000D01*
X140537142Y-152392380D01*
X140775238Y-152392380D01*
X140918095Y-152440000D01*
X141251428Y-152392380D02*
X141489523Y-153392380D01*
X141680000Y-152678095D01*
X141870476Y-153392380D01*
X142108571Y-152392380D01*
X143013333Y-153392380D02*
X142441904Y-153392380D01*
X142727619Y-153392380D02*
X142727619Y-152392380D01*
X142632380Y-152535238D01*
X142537142Y-152630476D01*
X142441904Y-152678095D01*
G04 #@! TO.C,RV3*
X75858761Y-117292380D02*
X75525428Y-116816190D01*
X75287333Y-117292380D02*
X75287333Y-116292380D01*
X75668285Y-116292380D01*
X75763523Y-116340000D01*
X75811142Y-116387619D01*
X75858761Y-116482857D01*
X75858761Y-116625714D01*
X75811142Y-116720952D01*
X75763523Y-116768571D01*
X75668285Y-116816190D01*
X75287333Y-116816190D01*
X76144476Y-116292380D02*
X76477809Y-117292380D01*
X76811142Y-116292380D01*
X77049238Y-116292380D02*
X77668285Y-116292380D01*
X77334952Y-116673333D01*
X77477809Y-116673333D01*
X77573047Y-116720952D01*
X77620666Y-116768571D01*
X77668285Y-116863809D01*
X77668285Y-117101904D01*
X77620666Y-117197142D01*
X77573047Y-117244761D01*
X77477809Y-117292380D01*
X77192095Y-117292380D01*
X77096857Y-117244761D01*
X77049238Y-117197142D01*
G04 #@! TO.C,RV2*
X75858761Y-107640380D02*
X75525428Y-107164190D01*
X75287333Y-107640380D02*
X75287333Y-106640380D01*
X75668285Y-106640380D01*
X75763523Y-106688000D01*
X75811142Y-106735619D01*
X75858761Y-106830857D01*
X75858761Y-106973714D01*
X75811142Y-107068952D01*
X75763523Y-107116571D01*
X75668285Y-107164190D01*
X75287333Y-107164190D01*
X76144476Y-106640380D02*
X76477809Y-107640380D01*
X76811142Y-106640380D01*
X77096857Y-106735619D02*
X77144476Y-106688000D01*
X77239714Y-106640380D01*
X77477809Y-106640380D01*
X77573047Y-106688000D01*
X77620666Y-106735619D01*
X77668285Y-106830857D01*
X77668285Y-106926095D01*
X77620666Y-107068952D01*
X77049238Y-107640380D01*
X77668285Y-107640380D01*
G04 #@! TO.C,RV1*
X75858761Y-98750380D02*
X75525428Y-98274190D01*
X75287333Y-98750380D02*
X75287333Y-97750380D01*
X75668285Y-97750380D01*
X75763523Y-97798000D01*
X75811142Y-97845619D01*
X75858761Y-97940857D01*
X75858761Y-98083714D01*
X75811142Y-98178952D01*
X75763523Y-98226571D01*
X75668285Y-98274190D01*
X75287333Y-98274190D01*
X76144476Y-97750380D02*
X76477809Y-98750380D01*
X76811142Y-97750380D01*
X77668285Y-98750380D02*
X77096857Y-98750380D01*
X77382571Y-98750380D02*
X77382571Y-97750380D01*
X77287333Y-97893238D01*
X77192095Y-97988476D01*
X77096857Y-98036095D01*
G04 #@! TO.C,R43*
X163774380Y-109608857D02*
X163298190Y-109942190D01*
X163774380Y-110180285D02*
X162774380Y-110180285D01*
X162774380Y-109799333D01*
X162822000Y-109704095D01*
X162869619Y-109656476D01*
X162964857Y-109608857D01*
X163107714Y-109608857D01*
X163202952Y-109656476D01*
X163250571Y-109704095D01*
X163298190Y-109799333D01*
X163298190Y-110180285D01*
X163107714Y-108751714D02*
X163774380Y-108751714D01*
X162726761Y-108989809D02*
X163441047Y-109227904D01*
X163441047Y-108608857D01*
X162774380Y-108323142D02*
X162774380Y-107704095D01*
X163155333Y-108037428D01*
X163155333Y-107894571D01*
X163202952Y-107799333D01*
X163250571Y-107751714D01*
X163345809Y-107704095D01*
X163583904Y-107704095D01*
X163679142Y-107751714D01*
X163726761Y-107799333D01*
X163774380Y-107894571D01*
X163774380Y-108180285D01*
X163726761Y-108275523D01*
X163679142Y-108323142D01*
G04 #@! TO.C,R42*
X158694380Y-109608857D02*
X158218190Y-109942190D01*
X158694380Y-110180285D02*
X157694380Y-110180285D01*
X157694380Y-109799333D01*
X157742000Y-109704095D01*
X157789619Y-109656476D01*
X157884857Y-109608857D01*
X158027714Y-109608857D01*
X158122952Y-109656476D01*
X158170571Y-109704095D01*
X158218190Y-109799333D01*
X158218190Y-110180285D01*
X158027714Y-108751714D02*
X158694380Y-108751714D01*
X157646761Y-108989809D02*
X158361047Y-109227904D01*
X158361047Y-108608857D01*
X157789619Y-108275523D02*
X157742000Y-108227904D01*
X157694380Y-108132666D01*
X157694380Y-107894571D01*
X157742000Y-107799333D01*
X157789619Y-107751714D01*
X157884857Y-107704095D01*
X157980095Y-107704095D01*
X158122952Y-107751714D01*
X158694380Y-108323142D01*
X158694380Y-107704095D01*
G04 #@! TO.C,R41*
X158694380Y-76588857D02*
X158218190Y-76922190D01*
X158694380Y-77160285D02*
X157694380Y-77160285D01*
X157694380Y-76779333D01*
X157742000Y-76684095D01*
X157789619Y-76636476D01*
X157884857Y-76588857D01*
X158027714Y-76588857D01*
X158122952Y-76636476D01*
X158170571Y-76684095D01*
X158218190Y-76779333D01*
X158218190Y-77160285D01*
X158027714Y-75731714D02*
X158694380Y-75731714D01*
X157646761Y-75969809D02*
X158361047Y-76207904D01*
X158361047Y-75588857D01*
X158694380Y-74684095D02*
X158694380Y-75255523D01*
X158694380Y-74969809D02*
X157694380Y-74969809D01*
X157837238Y-75065047D01*
X157932476Y-75160285D01*
X157980095Y-75255523D01*
G04 #@! TO.C,R40*
X153614380Y-109608857D02*
X153138190Y-109942190D01*
X153614380Y-110180285D02*
X152614380Y-110180285D01*
X152614380Y-109799333D01*
X152662000Y-109704095D01*
X152709619Y-109656476D01*
X152804857Y-109608857D01*
X152947714Y-109608857D01*
X153042952Y-109656476D01*
X153090571Y-109704095D01*
X153138190Y-109799333D01*
X153138190Y-110180285D01*
X152947714Y-108751714D02*
X153614380Y-108751714D01*
X152566761Y-108989809D02*
X153281047Y-109227904D01*
X153281047Y-108608857D01*
X152614380Y-108037428D02*
X152614380Y-107942190D01*
X152662000Y-107846952D01*
X152709619Y-107799333D01*
X152804857Y-107751714D01*
X152995333Y-107704095D01*
X153233428Y-107704095D01*
X153423904Y-107751714D01*
X153519142Y-107799333D01*
X153566761Y-107846952D01*
X153614380Y-107942190D01*
X153614380Y-108037428D01*
X153566761Y-108132666D01*
X153519142Y-108180285D01*
X153423904Y-108227904D01*
X153233428Y-108275523D01*
X152995333Y-108275523D01*
X152804857Y-108227904D01*
X152709619Y-108180285D01*
X152662000Y-108132666D01*
X152614380Y-108037428D01*
G04 #@! TO.C,R39*
X156154380Y-109608857D02*
X155678190Y-109942190D01*
X156154380Y-110180285D02*
X155154380Y-110180285D01*
X155154380Y-109799333D01*
X155202000Y-109704095D01*
X155249619Y-109656476D01*
X155344857Y-109608857D01*
X155487714Y-109608857D01*
X155582952Y-109656476D01*
X155630571Y-109704095D01*
X155678190Y-109799333D01*
X155678190Y-110180285D01*
X155154380Y-109275523D02*
X155154380Y-108656476D01*
X155535333Y-108989809D01*
X155535333Y-108846952D01*
X155582952Y-108751714D01*
X155630571Y-108704095D01*
X155725809Y-108656476D01*
X155963904Y-108656476D01*
X156059142Y-108704095D01*
X156106761Y-108751714D01*
X156154380Y-108846952D01*
X156154380Y-109132666D01*
X156106761Y-109227904D01*
X156059142Y-109275523D01*
X156154380Y-108180285D02*
X156154380Y-107989809D01*
X156106761Y-107894571D01*
X156059142Y-107846952D01*
X155916285Y-107751714D01*
X155725809Y-107704095D01*
X155344857Y-107704095D01*
X155249619Y-107751714D01*
X155202000Y-107799333D01*
X155154380Y-107894571D01*
X155154380Y-108085047D01*
X155202000Y-108180285D01*
X155249619Y-108227904D01*
X155344857Y-108275523D01*
X155582952Y-108275523D01*
X155678190Y-108227904D01*
X155725809Y-108180285D01*
X155773428Y-108085047D01*
X155773428Y-107894571D01*
X155725809Y-107799333D01*
X155678190Y-107751714D01*
X155582952Y-107704095D01*
G04 #@! TO.C,R38*
X161234380Y-109608857D02*
X160758190Y-109942190D01*
X161234380Y-110180285D02*
X160234380Y-110180285D01*
X160234380Y-109799333D01*
X160282000Y-109704095D01*
X160329619Y-109656476D01*
X160424857Y-109608857D01*
X160567714Y-109608857D01*
X160662952Y-109656476D01*
X160710571Y-109704095D01*
X160758190Y-109799333D01*
X160758190Y-110180285D01*
X160234380Y-109275523D02*
X160234380Y-108656476D01*
X160615333Y-108989809D01*
X160615333Y-108846952D01*
X160662952Y-108751714D01*
X160710571Y-108704095D01*
X160805809Y-108656476D01*
X161043904Y-108656476D01*
X161139142Y-108704095D01*
X161186761Y-108751714D01*
X161234380Y-108846952D01*
X161234380Y-109132666D01*
X161186761Y-109227904D01*
X161139142Y-109275523D01*
X160662952Y-108085047D02*
X160615333Y-108180285D01*
X160567714Y-108227904D01*
X160472476Y-108275523D01*
X160424857Y-108275523D01*
X160329619Y-108227904D01*
X160282000Y-108180285D01*
X160234380Y-108085047D01*
X160234380Y-107894571D01*
X160282000Y-107799333D01*
X160329619Y-107751714D01*
X160424857Y-107704095D01*
X160472476Y-107704095D01*
X160567714Y-107751714D01*
X160615333Y-107799333D01*
X160662952Y-107894571D01*
X160662952Y-108085047D01*
X160710571Y-108180285D01*
X160758190Y-108227904D01*
X160853428Y-108275523D01*
X161043904Y-108275523D01*
X161139142Y-108227904D01*
X161186761Y-108180285D01*
X161234380Y-108085047D01*
X161234380Y-107894571D01*
X161186761Y-107799333D01*
X161139142Y-107751714D01*
X161043904Y-107704095D01*
X160853428Y-107704095D01*
X160758190Y-107751714D01*
X160710571Y-107799333D01*
X160662952Y-107894571D01*
G04 #@! TO.C,R37*
X163774380Y-76588857D02*
X163298190Y-76922190D01*
X163774380Y-77160285D02*
X162774380Y-77160285D01*
X162774380Y-76779333D01*
X162822000Y-76684095D01*
X162869619Y-76636476D01*
X162964857Y-76588857D01*
X163107714Y-76588857D01*
X163202952Y-76636476D01*
X163250571Y-76684095D01*
X163298190Y-76779333D01*
X163298190Y-77160285D01*
X162774380Y-76255523D02*
X162774380Y-75636476D01*
X163155333Y-75969809D01*
X163155333Y-75826952D01*
X163202952Y-75731714D01*
X163250571Y-75684095D01*
X163345809Y-75636476D01*
X163583904Y-75636476D01*
X163679142Y-75684095D01*
X163726761Y-75731714D01*
X163774380Y-75826952D01*
X163774380Y-76112666D01*
X163726761Y-76207904D01*
X163679142Y-76255523D01*
X162774380Y-75303142D02*
X162774380Y-74636476D01*
X163774380Y-75065047D01*
G04 #@! TO.C,R36*
X161234380Y-76588857D02*
X160758190Y-76922190D01*
X161234380Y-77160285D02*
X160234380Y-77160285D01*
X160234380Y-76779333D01*
X160282000Y-76684095D01*
X160329619Y-76636476D01*
X160424857Y-76588857D01*
X160567714Y-76588857D01*
X160662952Y-76636476D01*
X160710571Y-76684095D01*
X160758190Y-76779333D01*
X160758190Y-77160285D01*
X160234380Y-76255523D02*
X160234380Y-75636476D01*
X160615333Y-75969809D01*
X160615333Y-75826952D01*
X160662952Y-75731714D01*
X160710571Y-75684095D01*
X160805809Y-75636476D01*
X161043904Y-75636476D01*
X161139142Y-75684095D01*
X161186761Y-75731714D01*
X161234380Y-75826952D01*
X161234380Y-76112666D01*
X161186761Y-76207904D01*
X161139142Y-76255523D01*
X160234380Y-74779333D02*
X160234380Y-74969809D01*
X160282000Y-75065047D01*
X160329619Y-75112666D01*
X160472476Y-75207904D01*
X160662952Y-75255523D01*
X161043904Y-75255523D01*
X161139142Y-75207904D01*
X161186761Y-75160285D01*
X161234380Y-75065047D01*
X161234380Y-74874571D01*
X161186761Y-74779333D01*
X161139142Y-74731714D01*
X161043904Y-74684095D01*
X160805809Y-74684095D01*
X160710571Y-74731714D01*
X160662952Y-74779333D01*
X160615333Y-74874571D01*
X160615333Y-75065047D01*
X160662952Y-75160285D01*
X160710571Y-75207904D01*
X160805809Y-75255523D01*
G04 #@! TO.C,R35*
X151074380Y-109608857D02*
X150598190Y-109942190D01*
X151074380Y-110180285D02*
X150074380Y-110180285D01*
X150074380Y-109799333D01*
X150122000Y-109704095D01*
X150169619Y-109656476D01*
X150264857Y-109608857D01*
X150407714Y-109608857D01*
X150502952Y-109656476D01*
X150550571Y-109704095D01*
X150598190Y-109799333D01*
X150598190Y-110180285D01*
X150074380Y-109275523D02*
X150074380Y-108656476D01*
X150455333Y-108989809D01*
X150455333Y-108846952D01*
X150502952Y-108751714D01*
X150550571Y-108704095D01*
X150645809Y-108656476D01*
X150883904Y-108656476D01*
X150979142Y-108704095D01*
X151026761Y-108751714D01*
X151074380Y-108846952D01*
X151074380Y-109132666D01*
X151026761Y-109227904D01*
X150979142Y-109275523D01*
X150074380Y-107751714D02*
X150074380Y-108227904D01*
X150550571Y-108275523D01*
X150502952Y-108227904D01*
X150455333Y-108132666D01*
X150455333Y-107894571D01*
X150502952Y-107799333D01*
X150550571Y-107751714D01*
X150645809Y-107704095D01*
X150883904Y-107704095D01*
X150979142Y-107751714D01*
X151026761Y-107799333D01*
X151074380Y-107894571D01*
X151074380Y-108132666D01*
X151026761Y-108227904D01*
X150979142Y-108275523D01*
G04 #@! TO.C,R34*
X145994380Y-76588857D02*
X145518190Y-76922190D01*
X145994380Y-77160285D02*
X144994380Y-77160285D01*
X144994380Y-76779333D01*
X145042000Y-76684095D01*
X145089619Y-76636476D01*
X145184857Y-76588857D01*
X145327714Y-76588857D01*
X145422952Y-76636476D01*
X145470571Y-76684095D01*
X145518190Y-76779333D01*
X145518190Y-77160285D01*
X144994380Y-76255523D02*
X144994380Y-75636476D01*
X145375333Y-75969809D01*
X145375333Y-75826952D01*
X145422952Y-75731714D01*
X145470571Y-75684095D01*
X145565809Y-75636476D01*
X145803904Y-75636476D01*
X145899142Y-75684095D01*
X145946761Y-75731714D01*
X145994380Y-75826952D01*
X145994380Y-76112666D01*
X145946761Y-76207904D01*
X145899142Y-76255523D01*
X145327714Y-74779333D02*
X145994380Y-74779333D01*
X144946761Y-75017428D02*
X145661047Y-75255523D01*
X145661047Y-74636476D01*
G04 #@! TO.C,R33*
X143454380Y-76588857D02*
X142978190Y-76922190D01*
X143454380Y-77160285D02*
X142454380Y-77160285D01*
X142454380Y-76779333D01*
X142502000Y-76684095D01*
X142549619Y-76636476D01*
X142644857Y-76588857D01*
X142787714Y-76588857D01*
X142882952Y-76636476D01*
X142930571Y-76684095D01*
X142978190Y-76779333D01*
X142978190Y-77160285D01*
X142454380Y-76255523D02*
X142454380Y-75636476D01*
X142835333Y-75969809D01*
X142835333Y-75826952D01*
X142882952Y-75731714D01*
X142930571Y-75684095D01*
X143025809Y-75636476D01*
X143263904Y-75636476D01*
X143359142Y-75684095D01*
X143406761Y-75731714D01*
X143454380Y-75826952D01*
X143454380Y-76112666D01*
X143406761Y-76207904D01*
X143359142Y-76255523D01*
X142454380Y-75303142D02*
X142454380Y-74684095D01*
X142835333Y-75017428D01*
X142835333Y-74874571D01*
X142882952Y-74779333D01*
X142930571Y-74731714D01*
X143025809Y-74684095D01*
X143263904Y-74684095D01*
X143359142Y-74731714D01*
X143406761Y-74779333D01*
X143454380Y-74874571D01*
X143454380Y-75160285D01*
X143406761Y-75255523D01*
X143359142Y-75303142D01*
G04 #@! TO.C,R32*
X143454380Y-109608857D02*
X142978190Y-109942190D01*
X143454380Y-110180285D02*
X142454380Y-110180285D01*
X142454380Y-109799333D01*
X142502000Y-109704095D01*
X142549619Y-109656476D01*
X142644857Y-109608857D01*
X142787714Y-109608857D01*
X142882952Y-109656476D01*
X142930571Y-109704095D01*
X142978190Y-109799333D01*
X142978190Y-110180285D01*
X142454380Y-109275523D02*
X142454380Y-108656476D01*
X142835333Y-108989809D01*
X142835333Y-108846952D01*
X142882952Y-108751714D01*
X142930571Y-108704095D01*
X143025809Y-108656476D01*
X143263904Y-108656476D01*
X143359142Y-108704095D01*
X143406761Y-108751714D01*
X143454380Y-108846952D01*
X143454380Y-109132666D01*
X143406761Y-109227904D01*
X143359142Y-109275523D01*
X142549619Y-108275523D02*
X142502000Y-108227904D01*
X142454380Y-108132666D01*
X142454380Y-107894571D01*
X142502000Y-107799333D01*
X142549619Y-107751714D01*
X142644857Y-107704095D01*
X142740095Y-107704095D01*
X142882952Y-107751714D01*
X143454380Y-108323142D01*
X143454380Y-107704095D01*
G04 #@! TO.C,R31*
X145994380Y-109608857D02*
X145518190Y-109942190D01*
X145994380Y-110180285D02*
X144994380Y-110180285D01*
X144994380Y-109799333D01*
X145042000Y-109704095D01*
X145089619Y-109656476D01*
X145184857Y-109608857D01*
X145327714Y-109608857D01*
X145422952Y-109656476D01*
X145470571Y-109704095D01*
X145518190Y-109799333D01*
X145518190Y-110180285D01*
X144994380Y-109275523D02*
X144994380Y-108656476D01*
X145375333Y-108989809D01*
X145375333Y-108846952D01*
X145422952Y-108751714D01*
X145470571Y-108704095D01*
X145565809Y-108656476D01*
X145803904Y-108656476D01*
X145899142Y-108704095D01*
X145946761Y-108751714D01*
X145994380Y-108846952D01*
X145994380Y-109132666D01*
X145946761Y-109227904D01*
X145899142Y-109275523D01*
X145994380Y-107704095D02*
X145994380Y-108275523D01*
X145994380Y-107989809D02*
X144994380Y-107989809D01*
X145137238Y-108085047D01*
X145232476Y-108180285D01*
X145280095Y-108275523D01*
G04 #@! TO.C,R30*
X148534380Y-109608857D02*
X148058190Y-109942190D01*
X148534380Y-110180285D02*
X147534380Y-110180285D01*
X147534380Y-109799333D01*
X147582000Y-109704095D01*
X147629619Y-109656476D01*
X147724857Y-109608857D01*
X147867714Y-109608857D01*
X147962952Y-109656476D01*
X148010571Y-109704095D01*
X148058190Y-109799333D01*
X148058190Y-110180285D01*
X147534380Y-109275523D02*
X147534380Y-108656476D01*
X147915333Y-108989809D01*
X147915333Y-108846952D01*
X147962952Y-108751714D01*
X148010571Y-108704095D01*
X148105809Y-108656476D01*
X148343904Y-108656476D01*
X148439142Y-108704095D01*
X148486761Y-108751714D01*
X148534380Y-108846952D01*
X148534380Y-109132666D01*
X148486761Y-109227904D01*
X148439142Y-109275523D01*
X147534380Y-108037428D02*
X147534380Y-107942190D01*
X147582000Y-107846952D01*
X147629619Y-107799333D01*
X147724857Y-107751714D01*
X147915333Y-107704095D01*
X148153428Y-107704095D01*
X148343904Y-107751714D01*
X148439142Y-107799333D01*
X148486761Y-107846952D01*
X148534380Y-107942190D01*
X148534380Y-108037428D01*
X148486761Y-108132666D01*
X148439142Y-108180285D01*
X148343904Y-108227904D01*
X148153428Y-108275523D01*
X147915333Y-108275523D01*
X147724857Y-108227904D01*
X147629619Y-108180285D01*
X147582000Y-108132666D01*
X147534380Y-108037428D01*
G04 #@! TO.C,R29*
X151074380Y-76588857D02*
X150598190Y-76922190D01*
X151074380Y-77160285D02*
X150074380Y-77160285D01*
X150074380Y-76779333D01*
X150122000Y-76684095D01*
X150169619Y-76636476D01*
X150264857Y-76588857D01*
X150407714Y-76588857D01*
X150502952Y-76636476D01*
X150550571Y-76684095D01*
X150598190Y-76779333D01*
X150598190Y-77160285D01*
X150169619Y-76207904D02*
X150122000Y-76160285D01*
X150074380Y-76065047D01*
X150074380Y-75826952D01*
X150122000Y-75731714D01*
X150169619Y-75684095D01*
X150264857Y-75636476D01*
X150360095Y-75636476D01*
X150502952Y-75684095D01*
X151074380Y-76255523D01*
X151074380Y-75636476D01*
X151074380Y-75160285D02*
X151074380Y-74969809D01*
X151026761Y-74874571D01*
X150979142Y-74826952D01*
X150836285Y-74731714D01*
X150645809Y-74684095D01*
X150264857Y-74684095D01*
X150169619Y-74731714D01*
X150122000Y-74779333D01*
X150074380Y-74874571D01*
X150074380Y-75065047D01*
X150122000Y-75160285D01*
X150169619Y-75207904D01*
X150264857Y-75255523D01*
X150502952Y-75255523D01*
X150598190Y-75207904D01*
X150645809Y-75160285D01*
X150693428Y-75065047D01*
X150693428Y-74874571D01*
X150645809Y-74779333D01*
X150598190Y-74731714D01*
X150502952Y-74684095D01*
G04 #@! TO.C,R28*
X148534380Y-76588857D02*
X148058190Y-76922190D01*
X148534380Y-77160285D02*
X147534380Y-77160285D01*
X147534380Y-76779333D01*
X147582000Y-76684095D01*
X147629619Y-76636476D01*
X147724857Y-76588857D01*
X147867714Y-76588857D01*
X147962952Y-76636476D01*
X148010571Y-76684095D01*
X148058190Y-76779333D01*
X148058190Y-77160285D01*
X147629619Y-76207904D02*
X147582000Y-76160285D01*
X147534380Y-76065047D01*
X147534380Y-75826952D01*
X147582000Y-75731714D01*
X147629619Y-75684095D01*
X147724857Y-75636476D01*
X147820095Y-75636476D01*
X147962952Y-75684095D01*
X148534380Y-76255523D01*
X148534380Y-75636476D01*
X147962952Y-75065047D02*
X147915333Y-75160285D01*
X147867714Y-75207904D01*
X147772476Y-75255523D01*
X147724857Y-75255523D01*
X147629619Y-75207904D01*
X147582000Y-75160285D01*
X147534380Y-75065047D01*
X147534380Y-74874571D01*
X147582000Y-74779333D01*
X147629619Y-74731714D01*
X147724857Y-74684095D01*
X147772476Y-74684095D01*
X147867714Y-74731714D01*
X147915333Y-74779333D01*
X147962952Y-74874571D01*
X147962952Y-75065047D01*
X148010571Y-75160285D01*
X148058190Y-75207904D01*
X148153428Y-75255523D01*
X148343904Y-75255523D01*
X148439142Y-75207904D01*
X148486761Y-75160285D01*
X148534380Y-75065047D01*
X148534380Y-74874571D01*
X148486761Y-74779333D01*
X148439142Y-74731714D01*
X148343904Y-74684095D01*
X148153428Y-74684095D01*
X148058190Y-74731714D01*
X148010571Y-74779333D01*
X147962952Y-74874571D01*
G04 #@! TO.C,R27*
X114582380Y-131452857D02*
X114106190Y-131786190D01*
X114582380Y-132024285D02*
X113582380Y-132024285D01*
X113582380Y-131643333D01*
X113630000Y-131548095D01*
X113677619Y-131500476D01*
X113772857Y-131452857D01*
X113915714Y-131452857D01*
X114010952Y-131500476D01*
X114058571Y-131548095D01*
X114106190Y-131643333D01*
X114106190Y-132024285D01*
X113677619Y-131071904D02*
X113630000Y-131024285D01*
X113582380Y-130929047D01*
X113582380Y-130690952D01*
X113630000Y-130595714D01*
X113677619Y-130548095D01*
X113772857Y-130500476D01*
X113868095Y-130500476D01*
X114010952Y-130548095D01*
X114582380Y-131119523D01*
X114582380Y-130500476D01*
X113582380Y-130167142D02*
X113582380Y-129500476D01*
X114582380Y-129929047D01*
G04 #@! TO.C,R26*
X111958380Y-131452857D02*
X111482190Y-131786190D01*
X111958380Y-132024285D02*
X110958380Y-132024285D01*
X110958380Y-131643333D01*
X111006000Y-131548095D01*
X111053619Y-131500476D01*
X111148857Y-131452857D01*
X111291714Y-131452857D01*
X111386952Y-131500476D01*
X111434571Y-131548095D01*
X111482190Y-131643333D01*
X111482190Y-132024285D01*
X111053619Y-131071904D02*
X111006000Y-131024285D01*
X110958380Y-130929047D01*
X110958380Y-130690952D01*
X111006000Y-130595714D01*
X111053619Y-130548095D01*
X111148857Y-130500476D01*
X111244095Y-130500476D01*
X111386952Y-130548095D01*
X111958380Y-131119523D01*
X111958380Y-130500476D01*
X110958380Y-129643333D02*
X110958380Y-129833809D01*
X111006000Y-129929047D01*
X111053619Y-129976666D01*
X111196476Y-130071904D01*
X111386952Y-130119523D01*
X111767904Y-130119523D01*
X111863142Y-130071904D01*
X111910761Y-130024285D01*
X111958380Y-129929047D01*
X111958380Y-129738571D01*
X111910761Y-129643333D01*
X111863142Y-129595714D01*
X111767904Y-129548095D01*
X111529809Y-129548095D01*
X111434571Y-129595714D01*
X111386952Y-129643333D01*
X111339333Y-129738571D01*
X111339333Y-129929047D01*
X111386952Y-130024285D01*
X111434571Y-130071904D01*
X111529809Y-130119523D01*
G04 #@! TO.C,R25*
X109418380Y-131452857D02*
X108942190Y-131786190D01*
X109418380Y-132024285D02*
X108418380Y-132024285D01*
X108418380Y-131643333D01*
X108466000Y-131548095D01*
X108513619Y-131500476D01*
X108608857Y-131452857D01*
X108751714Y-131452857D01*
X108846952Y-131500476D01*
X108894571Y-131548095D01*
X108942190Y-131643333D01*
X108942190Y-132024285D01*
X108513619Y-131071904D02*
X108466000Y-131024285D01*
X108418380Y-130929047D01*
X108418380Y-130690952D01*
X108466000Y-130595714D01*
X108513619Y-130548095D01*
X108608857Y-130500476D01*
X108704095Y-130500476D01*
X108846952Y-130548095D01*
X109418380Y-131119523D01*
X109418380Y-130500476D01*
X108418380Y-129595714D02*
X108418380Y-130071904D01*
X108894571Y-130119523D01*
X108846952Y-130071904D01*
X108799333Y-129976666D01*
X108799333Y-129738571D01*
X108846952Y-129643333D01*
X108894571Y-129595714D01*
X108989809Y-129548095D01*
X109227904Y-129548095D01*
X109323142Y-129595714D01*
X109370761Y-129643333D01*
X109418380Y-129738571D01*
X109418380Y-129976666D01*
X109370761Y-130071904D01*
X109323142Y-130119523D01*
G04 #@! TO.C,R24*
X106878380Y-131452857D02*
X106402190Y-131786190D01*
X106878380Y-132024285D02*
X105878380Y-132024285D01*
X105878380Y-131643333D01*
X105926000Y-131548095D01*
X105973619Y-131500476D01*
X106068857Y-131452857D01*
X106211714Y-131452857D01*
X106306952Y-131500476D01*
X106354571Y-131548095D01*
X106402190Y-131643333D01*
X106402190Y-132024285D01*
X105973619Y-131071904D02*
X105926000Y-131024285D01*
X105878380Y-130929047D01*
X105878380Y-130690952D01*
X105926000Y-130595714D01*
X105973619Y-130548095D01*
X106068857Y-130500476D01*
X106164095Y-130500476D01*
X106306952Y-130548095D01*
X106878380Y-131119523D01*
X106878380Y-130500476D01*
X106211714Y-129643333D02*
X106878380Y-129643333D01*
X105830761Y-129881428D02*
X106545047Y-130119523D01*
X106545047Y-129500476D01*
G04 #@! TO.C,R23*
X104422380Y-131452857D02*
X103946190Y-131786190D01*
X104422380Y-132024285D02*
X103422380Y-132024285D01*
X103422380Y-131643333D01*
X103470000Y-131548095D01*
X103517619Y-131500476D01*
X103612857Y-131452857D01*
X103755714Y-131452857D01*
X103850952Y-131500476D01*
X103898571Y-131548095D01*
X103946190Y-131643333D01*
X103946190Y-132024285D01*
X103517619Y-131071904D02*
X103470000Y-131024285D01*
X103422380Y-130929047D01*
X103422380Y-130690952D01*
X103470000Y-130595714D01*
X103517619Y-130548095D01*
X103612857Y-130500476D01*
X103708095Y-130500476D01*
X103850952Y-130548095D01*
X104422380Y-131119523D01*
X104422380Y-130500476D01*
X103422380Y-130167142D02*
X103422380Y-129548095D01*
X103803333Y-129881428D01*
X103803333Y-129738571D01*
X103850952Y-129643333D01*
X103898571Y-129595714D01*
X103993809Y-129548095D01*
X104231904Y-129548095D01*
X104327142Y-129595714D01*
X104374761Y-129643333D01*
X104422380Y-129738571D01*
X104422380Y-130024285D01*
X104374761Y-130119523D01*
X104327142Y-130167142D01*
G04 #@! TO.C,R22*
X101798380Y-131452857D02*
X101322190Y-131786190D01*
X101798380Y-132024285D02*
X100798380Y-132024285D01*
X100798380Y-131643333D01*
X100846000Y-131548095D01*
X100893619Y-131500476D01*
X100988857Y-131452857D01*
X101131714Y-131452857D01*
X101226952Y-131500476D01*
X101274571Y-131548095D01*
X101322190Y-131643333D01*
X101322190Y-132024285D01*
X100893619Y-131071904D02*
X100846000Y-131024285D01*
X100798380Y-130929047D01*
X100798380Y-130690952D01*
X100846000Y-130595714D01*
X100893619Y-130548095D01*
X100988857Y-130500476D01*
X101084095Y-130500476D01*
X101226952Y-130548095D01*
X101798380Y-131119523D01*
X101798380Y-130500476D01*
X100893619Y-130119523D02*
X100846000Y-130071904D01*
X100798380Y-129976666D01*
X100798380Y-129738571D01*
X100846000Y-129643333D01*
X100893619Y-129595714D01*
X100988857Y-129548095D01*
X101084095Y-129548095D01*
X101226952Y-129595714D01*
X101798380Y-130167142D01*
X101798380Y-129548095D01*
G04 #@! TO.C,R21*
X99258380Y-131452857D02*
X98782190Y-131786190D01*
X99258380Y-132024285D02*
X98258380Y-132024285D01*
X98258380Y-131643333D01*
X98306000Y-131548095D01*
X98353619Y-131500476D01*
X98448857Y-131452857D01*
X98591714Y-131452857D01*
X98686952Y-131500476D01*
X98734571Y-131548095D01*
X98782190Y-131643333D01*
X98782190Y-132024285D01*
X98353619Y-131071904D02*
X98306000Y-131024285D01*
X98258380Y-130929047D01*
X98258380Y-130690952D01*
X98306000Y-130595714D01*
X98353619Y-130548095D01*
X98448857Y-130500476D01*
X98544095Y-130500476D01*
X98686952Y-130548095D01*
X99258380Y-131119523D01*
X99258380Y-130500476D01*
X99258380Y-129548095D02*
X99258380Y-130119523D01*
X99258380Y-129833809D02*
X98258380Y-129833809D01*
X98401238Y-129929047D01*
X98496476Y-130024285D01*
X98544095Y-130119523D01*
G04 #@! TO.C,R20*
X96718380Y-131452857D02*
X96242190Y-131786190D01*
X96718380Y-132024285D02*
X95718380Y-132024285D01*
X95718380Y-131643333D01*
X95766000Y-131548095D01*
X95813619Y-131500476D01*
X95908857Y-131452857D01*
X96051714Y-131452857D01*
X96146952Y-131500476D01*
X96194571Y-131548095D01*
X96242190Y-131643333D01*
X96242190Y-132024285D01*
X95813619Y-131071904D02*
X95766000Y-131024285D01*
X95718380Y-130929047D01*
X95718380Y-130690952D01*
X95766000Y-130595714D01*
X95813619Y-130548095D01*
X95908857Y-130500476D01*
X96004095Y-130500476D01*
X96146952Y-130548095D01*
X96718380Y-131119523D01*
X96718380Y-130500476D01*
X95718380Y-129881428D02*
X95718380Y-129786190D01*
X95766000Y-129690952D01*
X95813619Y-129643333D01*
X95908857Y-129595714D01*
X96099333Y-129548095D01*
X96337428Y-129548095D01*
X96527904Y-129595714D01*
X96623142Y-129643333D01*
X96670761Y-129690952D01*
X96718380Y-129786190D01*
X96718380Y-129881428D01*
X96670761Y-129976666D01*
X96623142Y-130024285D01*
X96527904Y-130071904D01*
X96337428Y-130119523D01*
X96099333Y-130119523D01*
X95908857Y-130071904D01*
X95813619Y-130024285D01*
X95766000Y-129976666D01*
X95718380Y-129881428D01*
G04 #@! TO.C,R19*
X69286380Y-90050857D02*
X68810190Y-90384190D01*
X69286380Y-90622285D02*
X68286380Y-90622285D01*
X68286380Y-90241333D01*
X68334000Y-90146095D01*
X68381619Y-90098476D01*
X68476857Y-90050857D01*
X68619714Y-90050857D01*
X68714952Y-90098476D01*
X68762571Y-90146095D01*
X68810190Y-90241333D01*
X68810190Y-90622285D01*
X69286380Y-89098476D02*
X69286380Y-89669904D01*
X69286380Y-89384190D02*
X68286380Y-89384190D01*
X68429238Y-89479428D01*
X68524476Y-89574666D01*
X68572095Y-89669904D01*
X69286380Y-88622285D02*
X69286380Y-88431809D01*
X69238761Y-88336571D01*
X69191142Y-88288952D01*
X69048285Y-88193714D01*
X68857809Y-88146095D01*
X68476857Y-88146095D01*
X68381619Y-88193714D01*
X68334000Y-88241333D01*
X68286380Y-88336571D01*
X68286380Y-88527047D01*
X68334000Y-88622285D01*
X68381619Y-88669904D01*
X68476857Y-88717523D01*
X68714952Y-88717523D01*
X68810190Y-88669904D01*
X68857809Y-88622285D01*
X68905428Y-88527047D01*
X68905428Y-88336571D01*
X68857809Y-88241333D01*
X68810190Y-88193714D01*
X68714952Y-88146095D01*
G04 #@! TO.C,R18*
X94178380Y-90050857D02*
X93702190Y-90384190D01*
X94178380Y-90622285D02*
X93178380Y-90622285D01*
X93178380Y-90241333D01*
X93226000Y-90146095D01*
X93273619Y-90098476D01*
X93368857Y-90050857D01*
X93511714Y-90050857D01*
X93606952Y-90098476D01*
X93654571Y-90146095D01*
X93702190Y-90241333D01*
X93702190Y-90622285D01*
X94178380Y-89098476D02*
X94178380Y-89669904D01*
X94178380Y-89384190D02*
X93178380Y-89384190D01*
X93321238Y-89479428D01*
X93416476Y-89574666D01*
X93464095Y-89669904D01*
X93606952Y-88527047D02*
X93559333Y-88622285D01*
X93511714Y-88669904D01*
X93416476Y-88717523D01*
X93368857Y-88717523D01*
X93273619Y-88669904D01*
X93226000Y-88622285D01*
X93178380Y-88527047D01*
X93178380Y-88336571D01*
X93226000Y-88241333D01*
X93273619Y-88193714D01*
X93368857Y-88146095D01*
X93416476Y-88146095D01*
X93511714Y-88193714D01*
X93559333Y-88241333D01*
X93606952Y-88336571D01*
X93606952Y-88527047D01*
X93654571Y-88622285D01*
X93702190Y-88669904D01*
X93797428Y-88717523D01*
X93987904Y-88717523D01*
X94083142Y-88669904D01*
X94130761Y-88622285D01*
X94178380Y-88527047D01*
X94178380Y-88336571D01*
X94130761Y-88241333D01*
X94083142Y-88193714D01*
X93987904Y-88146095D01*
X93797428Y-88146095D01*
X93702190Y-88193714D01*
X93654571Y-88241333D01*
X93606952Y-88336571D01*
G04 #@! TO.C,R17*
X90622380Y-90050857D02*
X90146190Y-90384190D01*
X90622380Y-90622285D02*
X89622380Y-90622285D01*
X89622380Y-90241333D01*
X89670000Y-90146095D01*
X89717619Y-90098476D01*
X89812857Y-90050857D01*
X89955714Y-90050857D01*
X90050952Y-90098476D01*
X90098571Y-90146095D01*
X90146190Y-90241333D01*
X90146190Y-90622285D01*
X90622380Y-89098476D02*
X90622380Y-89669904D01*
X90622380Y-89384190D02*
X89622380Y-89384190D01*
X89765238Y-89479428D01*
X89860476Y-89574666D01*
X89908095Y-89669904D01*
X89622380Y-88765142D02*
X89622380Y-88098476D01*
X90622380Y-88527047D01*
G04 #@! TO.C,R16*
X87066380Y-90050857D02*
X86590190Y-90384190D01*
X87066380Y-90622285D02*
X86066380Y-90622285D01*
X86066380Y-90241333D01*
X86114000Y-90146095D01*
X86161619Y-90098476D01*
X86256857Y-90050857D01*
X86399714Y-90050857D01*
X86494952Y-90098476D01*
X86542571Y-90146095D01*
X86590190Y-90241333D01*
X86590190Y-90622285D01*
X87066380Y-89098476D02*
X87066380Y-89669904D01*
X87066380Y-89384190D02*
X86066380Y-89384190D01*
X86209238Y-89479428D01*
X86304476Y-89574666D01*
X86352095Y-89669904D01*
X86066380Y-88241333D02*
X86066380Y-88431809D01*
X86114000Y-88527047D01*
X86161619Y-88574666D01*
X86304476Y-88669904D01*
X86494952Y-88717523D01*
X86875904Y-88717523D01*
X86971142Y-88669904D01*
X87018761Y-88622285D01*
X87066380Y-88527047D01*
X87066380Y-88336571D01*
X87018761Y-88241333D01*
X86971142Y-88193714D01*
X86875904Y-88146095D01*
X86637809Y-88146095D01*
X86542571Y-88193714D01*
X86494952Y-88241333D01*
X86447333Y-88336571D01*
X86447333Y-88527047D01*
X86494952Y-88622285D01*
X86542571Y-88669904D01*
X86637809Y-88717523D01*
G04 #@! TO.C,R15*
X83510380Y-90050857D02*
X83034190Y-90384190D01*
X83510380Y-90622285D02*
X82510380Y-90622285D01*
X82510380Y-90241333D01*
X82558000Y-90146095D01*
X82605619Y-90098476D01*
X82700857Y-90050857D01*
X82843714Y-90050857D01*
X82938952Y-90098476D01*
X82986571Y-90146095D01*
X83034190Y-90241333D01*
X83034190Y-90622285D01*
X83510380Y-89098476D02*
X83510380Y-89669904D01*
X83510380Y-89384190D02*
X82510380Y-89384190D01*
X82653238Y-89479428D01*
X82748476Y-89574666D01*
X82796095Y-89669904D01*
X82510380Y-88193714D02*
X82510380Y-88669904D01*
X82986571Y-88717523D01*
X82938952Y-88669904D01*
X82891333Y-88574666D01*
X82891333Y-88336571D01*
X82938952Y-88241333D01*
X82986571Y-88193714D01*
X83081809Y-88146095D01*
X83319904Y-88146095D01*
X83415142Y-88193714D01*
X83462761Y-88241333D01*
X83510380Y-88336571D01*
X83510380Y-88574666D01*
X83462761Y-88669904D01*
X83415142Y-88717523D01*
G04 #@! TO.C,R14*
X79954380Y-90050857D02*
X79478190Y-90384190D01*
X79954380Y-90622285D02*
X78954380Y-90622285D01*
X78954380Y-90241333D01*
X79002000Y-90146095D01*
X79049619Y-90098476D01*
X79144857Y-90050857D01*
X79287714Y-90050857D01*
X79382952Y-90098476D01*
X79430571Y-90146095D01*
X79478190Y-90241333D01*
X79478190Y-90622285D01*
X79954380Y-89098476D02*
X79954380Y-89669904D01*
X79954380Y-89384190D02*
X78954380Y-89384190D01*
X79097238Y-89479428D01*
X79192476Y-89574666D01*
X79240095Y-89669904D01*
X79287714Y-88241333D02*
X79954380Y-88241333D01*
X78906761Y-88479428D02*
X79621047Y-88717523D01*
X79621047Y-88098476D01*
G04 #@! TO.C,R13*
X76398380Y-90050857D02*
X75922190Y-90384190D01*
X76398380Y-90622285D02*
X75398380Y-90622285D01*
X75398380Y-90241333D01*
X75446000Y-90146095D01*
X75493619Y-90098476D01*
X75588857Y-90050857D01*
X75731714Y-90050857D01*
X75826952Y-90098476D01*
X75874571Y-90146095D01*
X75922190Y-90241333D01*
X75922190Y-90622285D01*
X76398380Y-89098476D02*
X76398380Y-89669904D01*
X76398380Y-89384190D02*
X75398380Y-89384190D01*
X75541238Y-89479428D01*
X75636476Y-89574666D01*
X75684095Y-89669904D01*
X75398380Y-88765142D02*
X75398380Y-88146095D01*
X75779333Y-88479428D01*
X75779333Y-88336571D01*
X75826952Y-88241333D01*
X75874571Y-88193714D01*
X75969809Y-88146095D01*
X76207904Y-88146095D01*
X76303142Y-88193714D01*
X76350761Y-88241333D01*
X76398380Y-88336571D01*
X76398380Y-88622285D01*
X76350761Y-88717523D01*
X76303142Y-88765142D01*
G04 #@! TO.C,R12*
X72842380Y-90050857D02*
X72366190Y-90384190D01*
X72842380Y-90622285D02*
X71842380Y-90622285D01*
X71842380Y-90241333D01*
X71890000Y-90146095D01*
X71937619Y-90098476D01*
X72032857Y-90050857D01*
X72175714Y-90050857D01*
X72270952Y-90098476D01*
X72318571Y-90146095D01*
X72366190Y-90241333D01*
X72366190Y-90622285D01*
X72842380Y-89098476D02*
X72842380Y-89669904D01*
X72842380Y-89384190D02*
X71842380Y-89384190D01*
X71985238Y-89479428D01*
X72080476Y-89574666D01*
X72128095Y-89669904D01*
X71937619Y-88717523D02*
X71890000Y-88669904D01*
X71842380Y-88574666D01*
X71842380Y-88336571D01*
X71890000Y-88241333D01*
X71937619Y-88193714D01*
X72032857Y-88146095D01*
X72128095Y-88146095D01*
X72270952Y-88193714D01*
X72842380Y-88765142D01*
X72842380Y-88146095D01*
G04 #@! TO.C,R11*
X147264380Y-138564857D02*
X146788190Y-138898190D01*
X147264380Y-139136285D02*
X146264380Y-139136285D01*
X146264380Y-138755333D01*
X146312000Y-138660095D01*
X146359619Y-138612476D01*
X146454857Y-138564857D01*
X146597714Y-138564857D01*
X146692952Y-138612476D01*
X146740571Y-138660095D01*
X146788190Y-138755333D01*
X146788190Y-139136285D01*
X147264380Y-137612476D02*
X147264380Y-138183904D01*
X147264380Y-137898190D02*
X146264380Y-137898190D01*
X146407238Y-137993428D01*
X146502476Y-138088666D01*
X146550095Y-138183904D01*
X147264380Y-136660095D02*
X147264380Y-137231523D01*
X147264380Y-136945809D02*
X146264380Y-136945809D01*
X146407238Y-137041047D01*
X146502476Y-137136285D01*
X146550095Y-137231523D01*
G04 #@! TO.C,R10*
X121610380Y-162440857D02*
X121134190Y-162774190D01*
X121610380Y-163012285D02*
X120610380Y-163012285D01*
X120610380Y-162631333D01*
X120658000Y-162536095D01*
X120705619Y-162488476D01*
X120800857Y-162440857D01*
X120943714Y-162440857D01*
X121038952Y-162488476D01*
X121086571Y-162536095D01*
X121134190Y-162631333D01*
X121134190Y-163012285D01*
X121610380Y-161488476D02*
X121610380Y-162059904D01*
X121610380Y-161774190D02*
X120610380Y-161774190D01*
X120753238Y-161869428D01*
X120848476Y-161964666D01*
X120896095Y-162059904D01*
X120610380Y-160869428D02*
X120610380Y-160774190D01*
X120658000Y-160678952D01*
X120705619Y-160631333D01*
X120800857Y-160583714D01*
X120991333Y-160536095D01*
X121229428Y-160536095D01*
X121419904Y-160583714D01*
X121515142Y-160631333D01*
X121562761Y-160678952D01*
X121610380Y-160774190D01*
X121610380Y-160869428D01*
X121562761Y-160964666D01*
X121515142Y-161012285D01*
X121419904Y-161059904D01*
X121229428Y-161107523D01*
X120991333Y-161107523D01*
X120800857Y-161059904D01*
X120705619Y-161012285D01*
X120658000Y-160964666D01*
X120610380Y-160869428D01*
G04 #@! TO.C,R9*
X150312380Y-138088666D02*
X149836190Y-138422000D01*
X150312380Y-138660095D02*
X149312380Y-138660095D01*
X149312380Y-138279142D01*
X149360000Y-138183904D01*
X149407619Y-138136285D01*
X149502857Y-138088666D01*
X149645714Y-138088666D01*
X149740952Y-138136285D01*
X149788571Y-138183904D01*
X149836190Y-138279142D01*
X149836190Y-138660095D01*
X150312380Y-137612476D02*
X150312380Y-137422000D01*
X150264761Y-137326761D01*
X150217142Y-137279142D01*
X150074285Y-137183904D01*
X149883809Y-137136285D01*
X149502857Y-137136285D01*
X149407619Y-137183904D01*
X149360000Y-137231523D01*
X149312380Y-137326761D01*
X149312380Y-137517238D01*
X149360000Y-137612476D01*
X149407619Y-137660095D01*
X149502857Y-137707714D01*
X149740952Y-137707714D01*
X149836190Y-137660095D01*
X149883809Y-137612476D01*
X149931428Y-137517238D01*
X149931428Y-137326761D01*
X149883809Y-137231523D01*
X149836190Y-137183904D01*
X149740952Y-137136285D01*
G04 #@! TO.C,R8*
X124912380Y-161964666D02*
X124436190Y-162298000D01*
X124912380Y-162536095D02*
X123912380Y-162536095D01*
X123912380Y-162155142D01*
X123960000Y-162059904D01*
X124007619Y-162012285D01*
X124102857Y-161964666D01*
X124245714Y-161964666D01*
X124340952Y-162012285D01*
X124388571Y-162059904D01*
X124436190Y-162155142D01*
X124436190Y-162536095D01*
X124340952Y-161393238D02*
X124293333Y-161488476D01*
X124245714Y-161536095D01*
X124150476Y-161583714D01*
X124102857Y-161583714D01*
X124007619Y-161536095D01*
X123960000Y-161488476D01*
X123912380Y-161393238D01*
X123912380Y-161202761D01*
X123960000Y-161107523D01*
X124007619Y-161059904D01*
X124102857Y-161012285D01*
X124150476Y-161012285D01*
X124245714Y-161059904D01*
X124293333Y-161107523D01*
X124340952Y-161202761D01*
X124340952Y-161393238D01*
X124388571Y-161488476D01*
X124436190Y-161536095D01*
X124531428Y-161583714D01*
X124721904Y-161583714D01*
X124817142Y-161536095D01*
X124864761Y-161488476D01*
X124912380Y-161393238D01*
X124912380Y-161202761D01*
X124864761Y-161107523D01*
X124817142Y-161059904D01*
X124721904Y-161012285D01*
X124531428Y-161012285D01*
X124436190Y-161059904D01*
X124388571Y-161107523D01*
X124340952Y-161202761D01*
G04 #@! TO.C,R7*
X156408380Y-138088666D02*
X155932190Y-138422000D01*
X156408380Y-138660095D02*
X155408380Y-138660095D01*
X155408380Y-138279142D01*
X155456000Y-138183904D01*
X155503619Y-138136285D01*
X155598857Y-138088666D01*
X155741714Y-138088666D01*
X155836952Y-138136285D01*
X155884571Y-138183904D01*
X155932190Y-138279142D01*
X155932190Y-138660095D01*
X155408380Y-137755333D02*
X155408380Y-137088666D01*
X156408380Y-137517238D01*
G04 #@! TO.C,R6*
X153360380Y-138088666D02*
X152884190Y-138422000D01*
X153360380Y-138660095D02*
X152360380Y-138660095D01*
X152360380Y-138279142D01*
X152408000Y-138183904D01*
X152455619Y-138136285D01*
X152550857Y-138088666D01*
X152693714Y-138088666D01*
X152788952Y-138136285D01*
X152836571Y-138183904D01*
X152884190Y-138279142D01*
X152884190Y-138660095D01*
X152360380Y-137231523D02*
X152360380Y-137422000D01*
X152408000Y-137517238D01*
X152455619Y-137564857D01*
X152598476Y-137660095D01*
X152788952Y-137707714D01*
X153169904Y-137707714D01*
X153265142Y-137660095D01*
X153312761Y-137612476D01*
X153360380Y-137517238D01*
X153360380Y-137326761D01*
X153312761Y-137231523D01*
X153265142Y-137183904D01*
X153169904Y-137136285D01*
X152931809Y-137136285D01*
X152836571Y-137183904D01*
X152788952Y-137231523D01*
X152741333Y-137326761D01*
X152741333Y-137517238D01*
X152788952Y-137612476D01*
X152836571Y-137660095D01*
X152931809Y-137707714D01*
G04 #@! TO.C,R5*
X128214380Y-161964666D02*
X127738190Y-162298000D01*
X128214380Y-162536095D02*
X127214380Y-162536095D01*
X127214380Y-162155142D01*
X127262000Y-162059904D01*
X127309619Y-162012285D01*
X127404857Y-161964666D01*
X127547714Y-161964666D01*
X127642952Y-162012285D01*
X127690571Y-162059904D01*
X127738190Y-162155142D01*
X127738190Y-162536095D01*
X127214380Y-161059904D02*
X127214380Y-161536095D01*
X127690571Y-161583714D01*
X127642952Y-161536095D01*
X127595333Y-161440857D01*
X127595333Y-161202761D01*
X127642952Y-161107523D01*
X127690571Y-161059904D01*
X127785809Y-161012285D01*
X128023904Y-161012285D01*
X128119142Y-161059904D01*
X128166761Y-161107523D01*
X128214380Y-161202761D01*
X128214380Y-161440857D01*
X128166761Y-161536095D01*
X128119142Y-161583714D01*
G04 #@! TO.C,R4*
X138628380Y-138088666D02*
X138152190Y-138422000D01*
X138628380Y-138660095D02*
X137628380Y-138660095D01*
X137628380Y-138279142D01*
X137676000Y-138183904D01*
X137723619Y-138136285D01*
X137818857Y-138088666D01*
X137961714Y-138088666D01*
X138056952Y-138136285D01*
X138104571Y-138183904D01*
X138152190Y-138279142D01*
X138152190Y-138660095D01*
X137961714Y-137231523D02*
X138628380Y-137231523D01*
X137580761Y-137469619D02*
X138295047Y-137707714D01*
X138295047Y-137088666D01*
G04 #@! TO.C,R3*
X141930380Y-138088666D02*
X141454190Y-138422000D01*
X141930380Y-138660095D02*
X140930380Y-138660095D01*
X140930380Y-138279142D01*
X140978000Y-138183904D01*
X141025619Y-138136285D01*
X141120857Y-138088666D01*
X141263714Y-138088666D01*
X141358952Y-138136285D01*
X141406571Y-138183904D01*
X141454190Y-138279142D01*
X141454190Y-138660095D01*
X140930380Y-137755333D02*
X140930380Y-137136285D01*
X141311333Y-137469619D01*
X141311333Y-137326761D01*
X141358952Y-137231523D01*
X141406571Y-137183904D01*
X141501809Y-137136285D01*
X141739904Y-137136285D01*
X141835142Y-137183904D01*
X141882761Y-137231523D01*
X141930380Y-137326761D01*
X141930380Y-137612476D01*
X141882761Y-137707714D01*
X141835142Y-137755333D01*
G04 #@! TO.C,R2*
X161996380Y-138088666D02*
X161520190Y-138422000D01*
X161996380Y-138660095D02*
X160996380Y-138660095D01*
X160996380Y-138279142D01*
X161044000Y-138183904D01*
X161091619Y-138136285D01*
X161186857Y-138088666D01*
X161329714Y-138088666D01*
X161424952Y-138136285D01*
X161472571Y-138183904D01*
X161520190Y-138279142D01*
X161520190Y-138660095D01*
X161091619Y-137707714D02*
X161044000Y-137660095D01*
X160996380Y-137564857D01*
X160996380Y-137326761D01*
X161044000Y-137231523D01*
X161091619Y-137183904D01*
X161186857Y-137136285D01*
X161282095Y-137136285D01*
X161424952Y-137183904D01*
X161996380Y-137755333D01*
X161996380Y-137136285D01*
G04 #@! TO.C,R1*
X164790380Y-138088666D02*
X164314190Y-138422000D01*
X164790380Y-138660095D02*
X163790380Y-138660095D01*
X163790380Y-138279142D01*
X163838000Y-138183904D01*
X163885619Y-138136285D01*
X163980857Y-138088666D01*
X164123714Y-138088666D01*
X164218952Y-138136285D01*
X164266571Y-138183904D01*
X164314190Y-138279142D01*
X164314190Y-138660095D01*
X164790380Y-137136285D02*
X164790380Y-137707714D01*
X164790380Y-137422000D02*
X163790380Y-137422000D01*
X163933238Y-137517238D01*
X164028476Y-137612476D01*
X164076095Y-137707714D01*
G04 #@! TO.C,J4*
X100250666Y-155618380D02*
X100250666Y-156332666D01*
X100203047Y-156475523D01*
X100107809Y-156570761D01*
X99964952Y-156618380D01*
X99869714Y-156618380D01*
X101155428Y-155951714D02*
X101155428Y-156618380D01*
X100917333Y-155570761D02*
X100679238Y-156285047D01*
X101298285Y-156285047D01*
G04 #@! TO.C,J3*
X96440666Y-155618380D02*
X96440666Y-156332666D01*
X96393047Y-156475523D01*
X96297809Y-156570761D01*
X96154952Y-156618380D01*
X96059714Y-156618380D01*
X96821619Y-155618380D02*
X97440666Y-155618380D01*
X97107333Y-155999333D01*
X97250190Y-155999333D01*
X97345428Y-156046952D01*
X97393047Y-156094571D01*
X97440666Y-156189809D01*
X97440666Y-156427904D01*
X97393047Y-156523142D01*
X97345428Y-156570761D01*
X97250190Y-156618380D01*
X96964476Y-156618380D01*
X96869238Y-156570761D01*
X96821619Y-156523142D01*
G04 #@! TO.C,J2*
X92630666Y-155618380D02*
X92630666Y-156332666D01*
X92583047Y-156475523D01*
X92487809Y-156570761D01*
X92344952Y-156618380D01*
X92249714Y-156618380D01*
X93059238Y-155713619D02*
X93106857Y-155666000D01*
X93202095Y-155618380D01*
X93440190Y-155618380D01*
X93535428Y-155666000D01*
X93583047Y-155713619D01*
X93630666Y-155808857D01*
X93630666Y-155904095D01*
X93583047Y-156046952D01*
X93011619Y-156618380D01*
X93630666Y-156618380D01*
G04 #@! TO.C,J1*
X88820666Y-155618380D02*
X88820666Y-156332666D01*
X88773047Y-156475523D01*
X88677809Y-156570761D01*
X88534952Y-156618380D01*
X88439714Y-156618380D01*
X89820666Y-156618380D02*
X89249238Y-156618380D01*
X89534952Y-156618380D02*
X89534952Y-155618380D01*
X89439714Y-155761238D01*
X89344476Y-155856476D01*
X89249238Y-155904095D01*
G04 #@! TO.C,DS1*
X140044380Y-101050285D02*
X139044380Y-101050285D01*
X139044380Y-100812190D01*
X139092000Y-100669333D01*
X139187238Y-100574095D01*
X139282476Y-100526476D01*
X139472952Y-100478857D01*
X139615809Y-100478857D01*
X139806285Y-100526476D01*
X139901523Y-100574095D01*
X139996761Y-100669333D01*
X140044380Y-100812190D01*
X140044380Y-101050285D01*
X139996761Y-100097904D02*
X140044380Y-99955047D01*
X140044380Y-99716952D01*
X139996761Y-99621714D01*
X139949142Y-99574095D01*
X139853904Y-99526476D01*
X139758666Y-99526476D01*
X139663428Y-99574095D01*
X139615809Y-99621714D01*
X139568190Y-99716952D01*
X139520571Y-99907428D01*
X139472952Y-100002666D01*
X139425333Y-100050285D01*
X139330095Y-100097904D01*
X139234857Y-100097904D01*
X139139619Y-100050285D01*
X139092000Y-100002666D01*
X139044380Y-99907428D01*
X139044380Y-99669333D01*
X139092000Y-99526476D01*
X140044380Y-98574095D02*
X140044380Y-99145523D01*
X140044380Y-98859809D02*
X139044380Y-98859809D01*
X139187238Y-98955047D01*
X139282476Y-99050285D01*
X139330095Y-99145523D01*
G04 #@! TO.C,D16*
X107751714Y-82748380D02*
X107751714Y-81748380D01*
X107989809Y-81748380D01*
X108132666Y-81796000D01*
X108227904Y-81891238D01*
X108275523Y-81986476D01*
X108323142Y-82176952D01*
X108323142Y-82319809D01*
X108275523Y-82510285D01*
X108227904Y-82605523D01*
X108132666Y-82700761D01*
X107989809Y-82748380D01*
X107751714Y-82748380D01*
X109275523Y-82748380D02*
X108704095Y-82748380D01*
X108989809Y-82748380D02*
X108989809Y-81748380D01*
X108894571Y-81891238D01*
X108799333Y-81986476D01*
X108704095Y-82034095D01*
X110132666Y-81748380D02*
X109942190Y-81748380D01*
X109846952Y-81796000D01*
X109799333Y-81843619D01*
X109704095Y-81986476D01*
X109656476Y-82176952D01*
X109656476Y-82557904D01*
X109704095Y-82653142D01*
X109751714Y-82700761D01*
X109846952Y-82748380D01*
X110037428Y-82748380D01*
X110132666Y-82700761D01*
X110180285Y-82653142D01*
X110227904Y-82557904D01*
X110227904Y-82319809D01*
X110180285Y-82224571D01*
X110132666Y-82176952D01*
X110037428Y-82129333D01*
X109846952Y-82129333D01*
X109751714Y-82176952D01*
X109704095Y-82224571D01*
X109656476Y-82319809D01*
G04 #@! TO.C,D15*
X101909714Y-82748380D02*
X101909714Y-81748380D01*
X102147809Y-81748380D01*
X102290666Y-81796000D01*
X102385904Y-81891238D01*
X102433523Y-81986476D01*
X102481142Y-82176952D01*
X102481142Y-82319809D01*
X102433523Y-82510285D01*
X102385904Y-82605523D01*
X102290666Y-82700761D01*
X102147809Y-82748380D01*
X101909714Y-82748380D01*
X103433523Y-82748380D02*
X102862095Y-82748380D01*
X103147809Y-82748380D02*
X103147809Y-81748380D01*
X103052571Y-81891238D01*
X102957333Y-81986476D01*
X102862095Y-82034095D01*
X104338285Y-81748380D02*
X103862095Y-81748380D01*
X103814476Y-82224571D01*
X103862095Y-82176952D01*
X103957333Y-82129333D01*
X104195428Y-82129333D01*
X104290666Y-82176952D01*
X104338285Y-82224571D01*
X104385904Y-82319809D01*
X104385904Y-82557904D01*
X104338285Y-82653142D01*
X104290666Y-82700761D01*
X104195428Y-82748380D01*
X103957333Y-82748380D01*
X103862095Y-82700761D01*
X103814476Y-82653142D01*
G04 #@! TO.C,D14*
X96067714Y-82748380D02*
X96067714Y-81748380D01*
X96305809Y-81748380D01*
X96448666Y-81796000D01*
X96543904Y-81891238D01*
X96591523Y-81986476D01*
X96639142Y-82176952D01*
X96639142Y-82319809D01*
X96591523Y-82510285D01*
X96543904Y-82605523D01*
X96448666Y-82700761D01*
X96305809Y-82748380D01*
X96067714Y-82748380D01*
X97591523Y-82748380D02*
X97020095Y-82748380D01*
X97305809Y-82748380D02*
X97305809Y-81748380D01*
X97210571Y-81891238D01*
X97115333Y-81986476D01*
X97020095Y-82034095D01*
X98448666Y-82081714D02*
X98448666Y-82748380D01*
X98210571Y-81700761D02*
X97972476Y-82415047D01*
X98591523Y-82415047D01*
G04 #@! TO.C,D13*
X89971714Y-82748380D02*
X89971714Y-81748380D01*
X90209809Y-81748380D01*
X90352666Y-81796000D01*
X90447904Y-81891238D01*
X90495523Y-81986476D01*
X90543142Y-82176952D01*
X90543142Y-82319809D01*
X90495523Y-82510285D01*
X90447904Y-82605523D01*
X90352666Y-82700761D01*
X90209809Y-82748380D01*
X89971714Y-82748380D01*
X91495523Y-82748380D02*
X90924095Y-82748380D01*
X91209809Y-82748380D02*
X91209809Y-81748380D01*
X91114571Y-81891238D01*
X91019333Y-81986476D01*
X90924095Y-82034095D01*
X91828857Y-81748380D02*
X92447904Y-81748380D01*
X92114571Y-82129333D01*
X92257428Y-82129333D01*
X92352666Y-82176952D01*
X92400285Y-82224571D01*
X92447904Y-82319809D01*
X92447904Y-82557904D01*
X92400285Y-82653142D01*
X92352666Y-82700761D01*
X92257428Y-82748380D01*
X91971714Y-82748380D01*
X91876476Y-82700761D01*
X91828857Y-82653142D01*
G04 #@! TO.C,D12*
X84383714Y-83002380D02*
X84383714Y-82002380D01*
X84621809Y-82002380D01*
X84764666Y-82050000D01*
X84859904Y-82145238D01*
X84907523Y-82240476D01*
X84955142Y-82430952D01*
X84955142Y-82573809D01*
X84907523Y-82764285D01*
X84859904Y-82859523D01*
X84764666Y-82954761D01*
X84621809Y-83002380D01*
X84383714Y-83002380D01*
X85907523Y-83002380D02*
X85336095Y-83002380D01*
X85621809Y-83002380D02*
X85621809Y-82002380D01*
X85526571Y-82145238D01*
X85431333Y-82240476D01*
X85336095Y-82288095D01*
X86288476Y-82097619D02*
X86336095Y-82050000D01*
X86431333Y-82002380D01*
X86669428Y-82002380D01*
X86764666Y-82050000D01*
X86812285Y-82097619D01*
X86859904Y-82192857D01*
X86859904Y-82288095D01*
X86812285Y-82430952D01*
X86240857Y-83002380D01*
X86859904Y-83002380D01*
G04 #@! TO.C,D11*
X78795714Y-83002380D02*
X78795714Y-82002380D01*
X79033809Y-82002380D01*
X79176666Y-82050000D01*
X79271904Y-82145238D01*
X79319523Y-82240476D01*
X79367142Y-82430952D01*
X79367142Y-82573809D01*
X79319523Y-82764285D01*
X79271904Y-82859523D01*
X79176666Y-82954761D01*
X79033809Y-83002380D01*
X78795714Y-83002380D01*
X80319523Y-83002380D02*
X79748095Y-83002380D01*
X80033809Y-83002380D02*
X80033809Y-82002380D01*
X79938571Y-82145238D01*
X79843333Y-82240476D01*
X79748095Y-82288095D01*
X81271904Y-83002380D02*
X80700476Y-83002380D01*
X80986190Y-83002380D02*
X80986190Y-82002380D01*
X80890952Y-82145238D01*
X80795714Y-82240476D01*
X80700476Y-82288095D01*
G04 #@! TO.C,D10*
X72953714Y-83002380D02*
X72953714Y-82002380D01*
X73191809Y-82002380D01*
X73334666Y-82050000D01*
X73429904Y-82145238D01*
X73477523Y-82240476D01*
X73525142Y-82430952D01*
X73525142Y-82573809D01*
X73477523Y-82764285D01*
X73429904Y-82859523D01*
X73334666Y-82954761D01*
X73191809Y-83002380D01*
X72953714Y-83002380D01*
X74477523Y-83002380D02*
X73906095Y-83002380D01*
X74191809Y-83002380D02*
X74191809Y-82002380D01*
X74096571Y-82145238D01*
X74001333Y-82240476D01*
X73906095Y-82288095D01*
X75096571Y-82002380D02*
X75191809Y-82002380D01*
X75287047Y-82050000D01*
X75334666Y-82097619D01*
X75382285Y-82192857D01*
X75429904Y-82383333D01*
X75429904Y-82621428D01*
X75382285Y-82811904D01*
X75334666Y-82907142D01*
X75287047Y-82954761D01*
X75191809Y-83002380D01*
X75096571Y-83002380D01*
X75001333Y-82954761D01*
X74953714Y-82907142D01*
X74906095Y-82811904D01*
X74858476Y-82621428D01*
X74858476Y-82383333D01*
X74906095Y-82192857D01*
X74953714Y-82097619D01*
X75001333Y-82050000D01*
X75096571Y-82002380D01*
G04 #@! TO.C,D9*
X67333904Y-83002380D02*
X67333904Y-82002380D01*
X67572000Y-82002380D01*
X67714857Y-82050000D01*
X67810095Y-82145238D01*
X67857714Y-82240476D01*
X67905333Y-82430952D01*
X67905333Y-82573809D01*
X67857714Y-82764285D01*
X67810095Y-82859523D01*
X67714857Y-82954761D01*
X67572000Y-83002380D01*
X67333904Y-83002380D01*
X68381523Y-83002380D02*
X68572000Y-83002380D01*
X68667238Y-82954761D01*
X68714857Y-82907142D01*
X68810095Y-82764285D01*
X68857714Y-82573809D01*
X68857714Y-82192857D01*
X68810095Y-82097619D01*
X68762476Y-82050000D01*
X68667238Y-82002380D01*
X68476761Y-82002380D01*
X68381523Y-82050000D01*
X68333904Y-82097619D01*
X68286285Y-82192857D01*
X68286285Y-82430952D01*
X68333904Y-82526190D01*
X68381523Y-82573809D01*
X68476761Y-82621428D01*
X68667238Y-82621428D01*
X68762476Y-82573809D01*
X68810095Y-82526190D01*
X68857714Y-82430952D01*
G04 #@! TO.C,D8*
X127277904Y-77160380D02*
X127277904Y-76160380D01*
X127516000Y-76160380D01*
X127658857Y-76208000D01*
X127754095Y-76303238D01*
X127801714Y-76398476D01*
X127849333Y-76588952D01*
X127849333Y-76731809D01*
X127801714Y-76922285D01*
X127754095Y-77017523D01*
X127658857Y-77112761D01*
X127516000Y-77160380D01*
X127277904Y-77160380D01*
X128420761Y-76588952D02*
X128325523Y-76541333D01*
X128277904Y-76493714D01*
X128230285Y-76398476D01*
X128230285Y-76350857D01*
X128277904Y-76255619D01*
X128325523Y-76208000D01*
X128420761Y-76160380D01*
X128611238Y-76160380D01*
X128706476Y-76208000D01*
X128754095Y-76255619D01*
X128801714Y-76350857D01*
X128801714Y-76398476D01*
X128754095Y-76493714D01*
X128706476Y-76541333D01*
X128611238Y-76588952D01*
X128420761Y-76588952D01*
X128325523Y-76636571D01*
X128277904Y-76684190D01*
X128230285Y-76779428D01*
X128230285Y-76969904D01*
X128277904Y-77065142D01*
X128325523Y-77112761D01*
X128420761Y-77160380D01*
X128611238Y-77160380D01*
X128706476Y-77112761D01*
X128754095Y-77065142D01*
X128801714Y-76969904D01*
X128801714Y-76779428D01*
X128754095Y-76684190D01*
X128706476Y-76636571D01*
X128611238Y-76588952D01*
G04 #@! TO.C,D7*
X119149904Y-77160380D02*
X119149904Y-76160380D01*
X119388000Y-76160380D01*
X119530857Y-76208000D01*
X119626095Y-76303238D01*
X119673714Y-76398476D01*
X119721333Y-76588952D01*
X119721333Y-76731809D01*
X119673714Y-76922285D01*
X119626095Y-77017523D01*
X119530857Y-77112761D01*
X119388000Y-77160380D01*
X119149904Y-77160380D01*
X120054666Y-76160380D02*
X120721333Y-76160380D01*
X120292761Y-77160380D01*
G04 #@! TO.C,D6*
X111021904Y-77160380D02*
X111021904Y-76160380D01*
X111260000Y-76160380D01*
X111402857Y-76208000D01*
X111498095Y-76303238D01*
X111545714Y-76398476D01*
X111593333Y-76588952D01*
X111593333Y-76731809D01*
X111545714Y-76922285D01*
X111498095Y-77017523D01*
X111402857Y-77112761D01*
X111260000Y-77160380D01*
X111021904Y-77160380D01*
X112450476Y-76160380D02*
X112260000Y-76160380D01*
X112164761Y-76208000D01*
X112117142Y-76255619D01*
X112021904Y-76398476D01*
X111974285Y-76588952D01*
X111974285Y-76969904D01*
X112021904Y-77065142D01*
X112069523Y-77112761D01*
X112164761Y-77160380D01*
X112355238Y-77160380D01*
X112450476Y-77112761D01*
X112498095Y-77065142D01*
X112545714Y-76969904D01*
X112545714Y-76731809D01*
X112498095Y-76636571D01*
X112450476Y-76588952D01*
X112355238Y-76541333D01*
X112164761Y-76541333D01*
X112069523Y-76588952D01*
X112021904Y-76636571D01*
X111974285Y-76731809D01*
G04 #@! TO.C,D5*
X102893904Y-77160380D02*
X102893904Y-76160380D01*
X103132000Y-76160380D01*
X103274857Y-76208000D01*
X103370095Y-76303238D01*
X103417714Y-76398476D01*
X103465333Y-76588952D01*
X103465333Y-76731809D01*
X103417714Y-76922285D01*
X103370095Y-77017523D01*
X103274857Y-77112761D01*
X103132000Y-77160380D01*
X102893904Y-77160380D01*
X104370095Y-76160380D02*
X103893904Y-76160380D01*
X103846285Y-76636571D01*
X103893904Y-76588952D01*
X103989142Y-76541333D01*
X104227238Y-76541333D01*
X104322476Y-76588952D01*
X104370095Y-76636571D01*
X104417714Y-76731809D01*
X104417714Y-76969904D01*
X104370095Y-77065142D01*
X104322476Y-77112761D01*
X104227238Y-77160380D01*
X103989142Y-77160380D01*
X103893904Y-77112761D01*
X103846285Y-77065142D01*
G04 #@! TO.C,D4*
X94765904Y-77160380D02*
X94765904Y-76160380D01*
X95004000Y-76160380D01*
X95146857Y-76208000D01*
X95242095Y-76303238D01*
X95289714Y-76398476D01*
X95337333Y-76588952D01*
X95337333Y-76731809D01*
X95289714Y-76922285D01*
X95242095Y-77017523D01*
X95146857Y-77112761D01*
X95004000Y-77160380D01*
X94765904Y-77160380D01*
X96194476Y-76493714D02*
X96194476Y-77160380D01*
X95956380Y-76112761D02*
X95718285Y-76827047D01*
X96337333Y-76827047D01*
G04 #@! TO.C,D3*
X86637904Y-77160380D02*
X86637904Y-76160380D01*
X86876000Y-76160380D01*
X87018857Y-76208000D01*
X87114095Y-76303238D01*
X87161714Y-76398476D01*
X87209333Y-76588952D01*
X87209333Y-76731809D01*
X87161714Y-76922285D01*
X87114095Y-77017523D01*
X87018857Y-77112761D01*
X86876000Y-77160380D01*
X86637904Y-77160380D01*
X87542666Y-76160380D02*
X88161714Y-76160380D01*
X87828380Y-76541333D01*
X87971238Y-76541333D01*
X88066476Y-76588952D01*
X88114095Y-76636571D01*
X88161714Y-76731809D01*
X88161714Y-76969904D01*
X88114095Y-77065142D01*
X88066476Y-77112761D01*
X87971238Y-77160380D01*
X87685523Y-77160380D01*
X87590285Y-77112761D01*
X87542666Y-77065142D01*
G04 #@! TO.C,D2*
X78255904Y-77160380D02*
X78255904Y-76160380D01*
X78494000Y-76160380D01*
X78636857Y-76208000D01*
X78732095Y-76303238D01*
X78779714Y-76398476D01*
X78827333Y-76588952D01*
X78827333Y-76731809D01*
X78779714Y-76922285D01*
X78732095Y-77017523D01*
X78636857Y-77112761D01*
X78494000Y-77160380D01*
X78255904Y-77160380D01*
X79208285Y-76255619D02*
X79255904Y-76208000D01*
X79351142Y-76160380D01*
X79589238Y-76160380D01*
X79684476Y-76208000D01*
X79732095Y-76255619D01*
X79779714Y-76350857D01*
X79779714Y-76446095D01*
X79732095Y-76588952D01*
X79160666Y-77160380D01*
X79779714Y-77160380D01*
G04 #@! TO.C,D1*
X70381904Y-77160380D02*
X70381904Y-76160380D01*
X70620000Y-76160380D01*
X70762857Y-76208000D01*
X70858095Y-76303238D01*
X70905714Y-76398476D01*
X70953333Y-76588952D01*
X70953333Y-76731809D01*
X70905714Y-76922285D01*
X70858095Y-77017523D01*
X70762857Y-77112761D01*
X70620000Y-77160380D01*
X70381904Y-77160380D01*
X71905714Y-77160380D02*
X71334285Y-77160380D01*
X71620000Y-77160380D02*
X71620000Y-76160380D01*
X71524761Y-76303238D01*
X71429523Y-76398476D01*
X71334285Y-76446095D01*
G04 #@! TO.C,C7*
X144375142Y-130468666D02*
X144422761Y-130516285D01*
X144470380Y-130659142D01*
X144470380Y-130754380D01*
X144422761Y-130897238D01*
X144327523Y-130992476D01*
X144232285Y-131040095D01*
X144041809Y-131087714D01*
X143898952Y-131087714D01*
X143708476Y-131040095D01*
X143613238Y-130992476D01*
X143518000Y-130897238D01*
X143470380Y-130754380D01*
X143470380Y-130659142D01*
X143518000Y-130516285D01*
X143565619Y-130468666D01*
X143470380Y-130135333D02*
X143470380Y-129468666D01*
X144470380Y-129897238D01*
G04 #@! TO.C,C6*
X121515142Y-149518666D02*
X121562761Y-149566285D01*
X121610380Y-149709142D01*
X121610380Y-149804380D01*
X121562761Y-149947238D01*
X121467523Y-150042476D01*
X121372285Y-150090095D01*
X121181809Y-150137714D01*
X121038952Y-150137714D01*
X120848476Y-150090095D01*
X120753238Y-150042476D01*
X120658000Y-149947238D01*
X120610380Y-149804380D01*
X120610380Y-149709142D01*
X120658000Y-149566285D01*
X120705619Y-149518666D01*
X120610380Y-148661523D02*
X120610380Y-148852000D01*
X120658000Y-148947238D01*
X120705619Y-148994857D01*
X120848476Y-149090095D01*
X121038952Y-149137714D01*
X121419904Y-149137714D01*
X121515142Y-149090095D01*
X121562761Y-149042476D01*
X121610380Y-148947238D01*
X121610380Y-148756761D01*
X121562761Y-148661523D01*
X121515142Y-148613904D01*
X121419904Y-148566285D01*
X121181809Y-148566285D01*
X121086571Y-148613904D01*
X121038952Y-148661523D01*
X120991333Y-148756761D01*
X120991333Y-148947238D01*
X121038952Y-149042476D01*
X121086571Y-149090095D01*
X121181809Y-149137714D01*
G04 #@! TO.C,C5*
X124817142Y-149518666D02*
X124864761Y-149566285D01*
X124912380Y-149709142D01*
X124912380Y-149804380D01*
X124864761Y-149947238D01*
X124769523Y-150042476D01*
X124674285Y-150090095D01*
X124483809Y-150137714D01*
X124340952Y-150137714D01*
X124150476Y-150090095D01*
X124055238Y-150042476D01*
X123960000Y-149947238D01*
X123912380Y-149804380D01*
X123912380Y-149709142D01*
X123960000Y-149566285D01*
X124007619Y-149518666D01*
X123912380Y-148613904D02*
X123912380Y-149090095D01*
X124388571Y-149137714D01*
X124340952Y-149090095D01*
X124293333Y-148994857D01*
X124293333Y-148756761D01*
X124340952Y-148661523D01*
X124388571Y-148613904D01*
X124483809Y-148566285D01*
X124721904Y-148566285D01*
X124817142Y-148613904D01*
X124864761Y-148661523D01*
X124912380Y-148756761D01*
X124912380Y-148994857D01*
X124864761Y-149090095D01*
X124817142Y-149137714D01*
G04 #@! TO.C,C4*
X159107142Y-130468666D02*
X159154761Y-130516285D01*
X159202380Y-130659142D01*
X159202380Y-130754380D01*
X159154761Y-130897238D01*
X159059523Y-130992476D01*
X158964285Y-131040095D01*
X158773809Y-131087714D01*
X158630952Y-131087714D01*
X158440476Y-131040095D01*
X158345238Y-130992476D01*
X158250000Y-130897238D01*
X158202380Y-130754380D01*
X158202380Y-130659142D01*
X158250000Y-130516285D01*
X158297619Y-130468666D01*
X158535714Y-129611523D02*
X159202380Y-129611523D01*
X158154761Y-129849619D02*
X158869047Y-130087714D01*
X158869047Y-129468666D01*
G04 #@! TO.C,C3*
X128119142Y-149518666D02*
X128166761Y-149566285D01*
X128214380Y-149709142D01*
X128214380Y-149804380D01*
X128166761Y-149947238D01*
X128071523Y-150042476D01*
X127976285Y-150090095D01*
X127785809Y-150137714D01*
X127642952Y-150137714D01*
X127452476Y-150090095D01*
X127357238Y-150042476D01*
X127262000Y-149947238D01*
X127214380Y-149804380D01*
X127214380Y-149709142D01*
X127262000Y-149566285D01*
X127309619Y-149518666D01*
X127214380Y-149185333D02*
X127214380Y-148566285D01*
X127595333Y-148899619D01*
X127595333Y-148756761D01*
X127642952Y-148661523D01*
X127690571Y-148613904D01*
X127785809Y-148566285D01*
X128023904Y-148566285D01*
X128119142Y-148613904D01*
X128166761Y-148661523D01*
X128214380Y-148756761D01*
X128214380Y-149042476D01*
X128166761Y-149137714D01*
X128119142Y-149185333D01*
G04 #@! TO.C,C2*
X144375142Y-145708666D02*
X144422761Y-145756285D01*
X144470380Y-145899142D01*
X144470380Y-145994380D01*
X144422761Y-146137238D01*
X144327523Y-146232476D01*
X144232285Y-146280095D01*
X144041809Y-146327714D01*
X143898952Y-146327714D01*
X143708476Y-146280095D01*
X143613238Y-146232476D01*
X143518000Y-146137238D01*
X143470380Y-145994380D01*
X143470380Y-145899142D01*
X143518000Y-145756285D01*
X143565619Y-145708666D01*
X143565619Y-145327714D02*
X143518000Y-145280095D01*
X143470380Y-145184857D01*
X143470380Y-144946761D01*
X143518000Y-144851523D01*
X143565619Y-144803904D01*
X143660857Y-144756285D01*
X143756095Y-144756285D01*
X143898952Y-144803904D01*
X144470380Y-145375333D01*
X144470380Y-144756285D01*
G04 #@! TO.C,C1*
X159361142Y-145708666D02*
X159408761Y-145756285D01*
X159456380Y-145899142D01*
X159456380Y-145994380D01*
X159408761Y-146137238D01*
X159313523Y-146232476D01*
X159218285Y-146280095D01*
X159027809Y-146327714D01*
X158884952Y-146327714D01*
X158694476Y-146280095D01*
X158599238Y-146232476D01*
X158504000Y-146137238D01*
X158456380Y-145994380D01*
X158456380Y-145899142D01*
X158504000Y-145756285D01*
X158551619Y-145708666D01*
X159456380Y-144756285D02*
X159456380Y-145327714D01*
X159456380Y-145042000D02*
X158456380Y-145042000D01*
X158599238Y-145137238D01*
X158694476Y-145232476D01*
X158742095Y-145327714D01*
G04 #@! TO.C,A1*
X75993714Y-126404666D02*
X76469904Y-126404666D01*
X75898476Y-126690380D02*
X76231809Y-125690380D01*
X76565142Y-126690380D01*
X77422285Y-126690380D02*
X76850857Y-126690380D01*
X77136571Y-126690380D02*
X77136571Y-125690380D01*
X77041333Y-125833238D01*
X76946095Y-125928476D01*
X76850857Y-125976095D01*
G04 #@! TD*
M02*
