M48
; DRILL file {KiCad (5.1.6)-1} date 05/30/20 01:20:08
; FORMAT={3:3/ absolute / metric / suppress leading zeros}
; #@! TF.CreationDate,2020-05-30T01:20:08-07:00
; #@! TF.GenerationSoftware,Kicad,Pcbnew,(5.1.6)-1
FMAT,2
METRIC,TZ
T1C0.400
T2C0.800
T3C0.900
T4C1.000
T5C1.100
T6C1.500
%
G90
G05
T1
X71374Y-154178
X72644Y-156718
X73152Y-74676
X73914Y-74930
X75184Y-159258
X75475Y-143937
X76139Y-123891
X76200Y-146558
X76925Y-140687
X77663Y-122367
X77978Y-149098
X78370Y-121660
X79187Y-120843
X81280Y-74676
X82042Y-74930
X82804Y-108712
X86178Y-130038
X86360Y-151384
X87050Y-113030
X87122Y-134112
X87376Y-107950
X87884Y-135382
X87884Y-151384
X88900Y-152908
X89408Y-74676
X90170Y-74930
X90170Y-154940
X90895Y-124714
X90895Y-145542
X91186Y-97282
X91186Y-146558
X91948Y-98298
X91948Y-149098
X92710Y-123698
X93472Y-122428
X94234Y-121158
X97536Y-74676
X98298Y-74930
X102616Y-165100
X105156Y-133096
X105664Y-74422
X106426Y-74930
X113792Y-74676
X114554Y-74930
X115570Y-96774
X117094Y-96520
X117856Y-95504
X118618Y-94488
X119634Y-97282
X119634Y-116840
X120396Y-110490
X121920Y-74676
X122174Y-98298
X122428Y-105664
X122682Y-74930
X122682Y-109982
X123407Y-112421
X123698Y-108204
X124278Y-113032
X125730Y-110744
X127000Y-109220
X127508Y-119634
X127762Y-165100
X128460Y-119940
X128524Y-106934
X130048Y-74676
X130048Y-162052
X130810Y-74930
X131318Y-157988
X134874Y-130302
X140245Y-104851
X140970Y-72136
X143002Y-70866
X143002Y-122936
X145288Y-168148
X145796Y-123952
X149606Y-123952
X150876Y-124714
X151421Y-123755
X156718Y-145288
X156972Y-108204
X158496Y-120396
X159512Y-106934
X161544Y-157734
X162306Y-105664
T2
X124460Y-151932
X124460Y-154432
X155956Y-132842
X155956Y-143002
X144018Y-140502
X144018Y-143002
X90170Y-84328
X90170Y-94488
X98806Y-125730
X98806Y-135890
X86614Y-84328
X86614Y-94488
X150622Y-103886
X150622Y-114046
X145542Y-103886
X145542Y-114046
X158750Y-132842
X158750Y-135342
X152908Y-132842
X152908Y-143002
X81280Y-102870
X81280Y-105410
X81280Y-107950
X81280Y-110490
X81280Y-113030
X81280Y-115570
X81280Y-118110
X88900Y-102870
X88900Y-105410
X88900Y-107950
X88900Y-110490
X88900Y-113030
X88900Y-115570
X88900Y-118110
X122428Y-115316
X122428Y-117856
X122428Y-120396
X122428Y-122936
X122428Y-125476
X122428Y-128016
X122428Y-130556
X122428Y-133096
X130048Y-115316
X130048Y-117856
X130048Y-120396
X130048Y-122936
X130048Y-125476
X130048Y-128016
X130048Y-130556
X130048Y-133096
X83058Y-84328
X83058Y-94488
X75946Y-84328
X75946Y-94488
X163322Y-70866
X163322Y-81026
X103886Y-125730
X103886Y-135890
X124460Y-156718
X124460Y-166878
X158750Y-140462
X158750Y-142962
X127762Y-156718
X127762Y-166878
X163322Y-103886
X163322Y-114046
X93726Y-139192
X93726Y-146812
X96266Y-139192
X96266Y-146812
X98806Y-139192
X98806Y-146812
X101346Y-139192
X101346Y-146812
X103886Y-139192
X103886Y-146812
X106426Y-139192
X106426Y-146812
X108966Y-139192
X108966Y-146812
X111506Y-139192
X111506Y-146812
X114046Y-139192
X114046Y-146812
X149860Y-132842
X149860Y-143002
X146812Y-132842
X146812Y-143002
X155702Y-103886
X155702Y-114046
X96266Y-125730
X96266Y-135890
X72390Y-84328
X72390Y-94488
X141224Y-132842
X141224Y-143002
X161544Y-132842
X161544Y-143002
X96266Y-114808
X96266Y-122428
X98806Y-114808
X98806Y-122428
X101346Y-114808
X101346Y-122428
X103886Y-114808
X103886Y-122428
X106426Y-114808
X106426Y-122428
X108966Y-114808
X108966Y-122428
X111506Y-114808
X111506Y-122428
X114046Y-114808
X114046Y-122428
X138176Y-132842
X138176Y-143002
X121158Y-156718
X121158Y-166878
X145542Y-70866
X145542Y-81026
X143002Y-103886
X143002Y-114046
X150622Y-70866
X150622Y-81026
X144526Y-118872
X144526Y-126492
X147066Y-118872
X147066Y-126492
X149606Y-118872
X149606Y-126492
X152146Y-118872
X152146Y-126492
X154686Y-118872
X154686Y-126492
X157226Y-118872
X157226Y-126492
X159766Y-118872
X159766Y-126492
X162306Y-118872
X162306Y-126492
X158242Y-70866
X158242Y-81026
X164338Y-132842
X164338Y-143002
X68834Y-84328
X68834Y-94488
X93726Y-84328
X93726Y-94488
X148082Y-103886
X148082Y-114046
X108966Y-125730
X108966Y-135890
X127762Y-151678
X127762Y-154178
X160782Y-103886
X160782Y-114046
X143002Y-70866
X143002Y-81026
X148082Y-70866
X148082Y-81026
X111506Y-125730
X111506Y-135890
X153162Y-103886
X153162Y-114046
X121158Y-151932
X121158Y-154432
X158242Y-103886
X158242Y-114046
X144018Y-132842
X144018Y-135342
X101346Y-125730
X101346Y-135890
X114046Y-125730
X114046Y-135890
X160782Y-70866
X160782Y-81026
X106426Y-125730
X106426Y-135890
X79502Y-84328
X79502Y-94488
T3
X86360Y-80010
X88900Y-80010
X68834Y-80010
X71374Y-80010
X92202Y-80010
X94742Y-80010
X74676Y-80010
X77216Y-80010
X98044Y-80010
X100584Y-80010
X80518Y-80010
X83058Y-80010
X103886Y-80010
X106426Y-80010
X109728Y-80010
X112268Y-80010
T4
X109554Y-152400
X109554Y-166900
X112054Y-152400
X114554Y-152400
X114554Y-166900
X89154Y-158496
X89154Y-161036
X89154Y-163576
X89154Y-166116
X68580Y-98806
X71080Y-103806
X73580Y-98806
X96774Y-158496
X96774Y-161036
X96774Y-163576
X96774Y-166116
X69088Y-131318
X69088Y-133858
X69088Y-136398
X69088Y-138938
X69088Y-141478
X69088Y-144018
X69088Y-146558
X69088Y-149098
X69088Y-151638
X69088Y-154178
X69088Y-156718
X69088Y-159258
X69088Y-161798
X69088Y-164338
X69088Y-166878
X84328Y-131318
X84328Y-133858
X84328Y-136398
X84328Y-138938
X84328Y-141478
X84328Y-144018
X84328Y-146558
X84328Y-149098
X84328Y-151638
X84328Y-154178
X84328Y-156718
X84328Y-159258
X84328Y-161798
X84328Y-164338
X84328Y-166878
X92964Y-158496
X92964Y-161036
X92964Y-163576
X92964Y-166116
X68834Y-117602
X71334Y-122602
X73834Y-117602
X68834Y-107950
X71334Y-112950
X73834Y-107950
X114554Y-88646
X117094Y-88646
X119634Y-88646
X122174Y-88646
X100584Y-158496
X100584Y-161036
X100584Y-163576
X100584Y-166116
X143002Y-84836
X143002Y-100076
X145542Y-84836
X145542Y-100076
X148082Y-84836
X148082Y-100076
X150622Y-84836
X150622Y-100076
X153162Y-84836
X153162Y-100076
X155702Y-84836
X155702Y-100076
X158242Y-84836
X158242Y-100076
X160782Y-84836
X160782Y-100076
X163322Y-84836
X163322Y-100076
T5
X148082Y-162560
X148082Y-167060
X154582Y-162560
X154582Y-167060
X148082Y-147066
X148082Y-151566
X154582Y-147066
X154582Y-151566
X157734Y-154940
X157734Y-159440
X164234Y-154940
X164234Y-159440
X138430Y-154940
X138430Y-159440
X144930Y-154940
X144930Y-159440
T6
G00X106454Y-159250
M15
G01X106454Y-160550
M16
G05
G00X117654Y-159250
M15
G01X117654Y-160550
M16
G05
T0
M30
