G04 #@! TF.GenerationSoftware,KiCad,Pcbnew,(5.1.6)-1*
G04 #@! TF.CreationDate,2020-06-28T06:58:36-07:00*
G04 #@! TF.ProjectId,NanoDemo,4e616e6f-4465-46d6-9f2e-6b696361645f,rev?*
G04 #@! TF.SameCoordinates,Original*
G04 #@! TF.FileFunction,Legend,Top*
G04 #@! TF.FilePolarity,Positive*
%FSLAX46Y46*%
G04 Gerber Fmt 4.6, Leading zero omitted, Abs format (unit mm)*
G04 Created by KiCad (PCBNEW (5.1.6)-1) date 2020-06-28 06:58:36*
%MOMM*%
%LPD*%
G01*
G04 APERTURE LIST*
%ADD10C,0.120000*%
%ADD11C,0.150000*%
G04 APERTURE END LIST*
D10*
X62484000Y-91694000D02*
X63246000Y-94234000D01*
X57912000Y-91694000D02*
X55372000Y-92710000D01*
D11*
X58769428Y-91225714D02*
X58769428Y-91892380D01*
X58531333Y-90844761D02*
X58293238Y-91559047D01*
X58912285Y-91559047D01*
X59198000Y-91892380D02*
X59721809Y-91225714D01*
X59198000Y-91225714D02*
X59721809Y-91892380D01*
X60102761Y-91892380D02*
X60102761Y-90892380D01*
X60531333Y-90987619D02*
X60578952Y-90940000D01*
X60674190Y-90892380D01*
X60912285Y-90892380D01*
X61007523Y-90940000D01*
X61055142Y-90987619D01*
X61102761Y-91082857D01*
X61102761Y-91178095D01*
X61055142Y-91320952D01*
X60483714Y-91892380D01*
X61102761Y-91892380D01*
X62102761Y-91797142D02*
X62055142Y-91844761D01*
X61912285Y-91892380D01*
X61817047Y-91892380D01*
X61674190Y-91844761D01*
X61578952Y-91749523D01*
X61531333Y-91654285D01*
X61483714Y-91463809D01*
X61483714Y-91320952D01*
X61531333Y-91130476D01*
X61578952Y-91035238D01*
X61674190Y-90940000D01*
X61817047Y-90892380D01*
X61912285Y-90892380D01*
X62055142Y-90940000D01*
X62102761Y-90987619D01*
X31575809Y-65730380D02*
X31004380Y-65730380D01*
X31290095Y-65730380D02*
X31290095Y-64730380D01*
X31194857Y-64873238D01*
X31099619Y-64968476D01*
X31004380Y-65016095D01*
X32194857Y-64730380D02*
X32290095Y-64730380D01*
X32385333Y-64778000D01*
X32432952Y-64825619D01*
X32480571Y-64920857D01*
X32528190Y-65111333D01*
X32528190Y-65349428D01*
X32480571Y-65539904D01*
X32432952Y-65635142D01*
X32385333Y-65682761D01*
X32290095Y-65730380D01*
X32194857Y-65730380D01*
X32099619Y-65682761D01*
X32052000Y-65635142D01*
X32004380Y-65539904D01*
X31956761Y-65349428D01*
X31956761Y-65111333D01*
X32004380Y-64920857D01*
X32052000Y-64825619D01*
X32099619Y-64778000D01*
X32194857Y-64730380D01*
X33147238Y-64730380D02*
X33242476Y-64730380D01*
X33337714Y-64778000D01*
X33385333Y-64825619D01*
X33432952Y-64920857D01*
X33480571Y-65111333D01*
X33480571Y-65349428D01*
X33432952Y-65539904D01*
X33385333Y-65635142D01*
X33337714Y-65682761D01*
X33242476Y-65730380D01*
X33147238Y-65730380D01*
X33052000Y-65682761D01*
X33004380Y-65635142D01*
X32956761Y-65539904D01*
X32909142Y-65349428D01*
X32909142Y-65111333D01*
X32956761Y-64920857D01*
X33004380Y-64825619D01*
X33052000Y-64778000D01*
X33147238Y-64730380D01*
X34337714Y-65063714D02*
X34337714Y-65730380D01*
X33909142Y-65063714D02*
X33909142Y-65587523D01*
X33956761Y-65682761D01*
X34052000Y-65730380D01*
X34194857Y-65730380D01*
X34290095Y-65682761D01*
X34337714Y-65635142D01*
X35575809Y-65349428D02*
X36337714Y-65349428D01*
X38147238Y-65635142D02*
X38099619Y-65682761D01*
X37956761Y-65730380D01*
X37861523Y-65730380D01*
X37718666Y-65682761D01*
X37623428Y-65587523D01*
X37575809Y-65492285D01*
X37528190Y-65301809D01*
X37528190Y-65158952D01*
X37575809Y-64968476D01*
X37623428Y-64873238D01*
X37718666Y-64778000D01*
X37861523Y-64730380D01*
X37956761Y-64730380D01*
X38099619Y-64778000D01*
X38147238Y-64825619D01*
X39004380Y-64730380D02*
X38813904Y-64730380D01*
X38718666Y-64778000D01*
X38671047Y-64825619D01*
X38575809Y-64968476D01*
X38528190Y-65158952D01*
X38528190Y-65539904D01*
X38575809Y-65635142D01*
X38623428Y-65682761D01*
X38718666Y-65730380D01*
X38909142Y-65730380D01*
X39004380Y-65682761D01*
X39052000Y-65635142D01*
X39099619Y-65539904D01*
X39099619Y-65301809D01*
X39052000Y-65206571D01*
X39004380Y-65158952D01*
X38909142Y-65111333D01*
X38718666Y-65111333D01*
X38623428Y-65158952D01*
X38575809Y-65206571D01*
X38528190Y-65301809D01*
X33456952Y-55157714D02*
X33456952Y-55824380D01*
X33218857Y-54776761D02*
X32980761Y-55491047D01*
X33599809Y-55491047D01*
X33885523Y-54824380D02*
X34552190Y-54824380D01*
X34123619Y-55824380D01*
X35695047Y-55443428D02*
X36456952Y-55443428D01*
X38266476Y-55824380D02*
X37933142Y-55348190D01*
X37695047Y-55824380D02*
X37695047Y-54824380D01*
X38076000Y-54824380D01*
X38171238Y-54872000D01*
X38218857Y-54919619D01*
X38266476Y-55014857D01*
X38266476Y-55157714D01*
X38218857Y-55252952D01*
X38171238Y-55300571D01*
X38076000Y-55348190D01*
X37695047Y-55348190D01*
X39123619Y-55157714D02*
X39123619Y-55824380D01*
X38885523Y-54776761D02*
X38647428Y-55491047D01*
X39266476Y-55491047D01*
X39599809Y-54919619D02*
X39647428Y-54872000D01*
X39742666Y-54824380D01*
X39980761Y-54824380D01*
X40076000Y-54872000D01*
X40123619Y-54919619D01*
X40171238Y-55014857D01*
X40171238Y-55110095D01*
X40123619Y-55252952D01*
X39552190Y-55824380D01*
X40171238Y-55824380D01*
X31917142Y-58380380D02*
X32536190Y-58380380D01*
X32202857Y-58761333D01*
X32345714Y-58761333D01*
X32440952Y-58808952D01*
X32488571Y-58856571D01*
X32536190Y-58951809D01*
X32536190Y-59189904D01*
X32488571Y-59285142D01*
X32440952Y-59332761D01*
X32345714Y-59380380D01*
X32060000Y-59380380D01*
X31964761Y-59332761D01*
X31917142Y-59285142D01*
X32869523Y-58380380D02*
X33488571Y-58380380D01*
X33155238Y-58761333D01*
X33298095Y-58761333D01*
X33393333Y-58808952D01*
X33440952Y-58856571D01*
X33488571Y-58951809D01*
X33488571Y-59189904D01*
X33440952Y-59285142D01*
X33393333Y-59332761D01*
X33298095Y-59380380D01*
X33012380Y-59380380D01*
X32917142Y-59332761D01*
X32869523Y-59285142D01*
X34107619Y-58380380D02*
X34202857Y-58380380D01*
X34298095Y-58428000D01*
X34345714Y-58475619D01*
X34393333Y-58570857D01*
X34440952Y-58761333D01*
X34440952Y-58999428D01*
X34393333Y-59189904D01*
X34345714Y-59285142D01*
X34298095Y-59332761D01*
X34202857Y-59380380D01*
X34107619Y-59380380D01*
X34012380Y-59332761D01*
X33964761Y-59285142D01*
X33917142Y-59189904D01*
X33869523Y-58999428D01*
X33869523Y-58761333D01*
X33917142Y-58570857D01*
X33964761Y-58475619D01*
X34012380Y-58428000D01*
X34107619Y-58380380D01*
X35631428Y-58999428D02*
X36393333Y-58999428D01*
X38202857Y-59380380D02*
X37869523Y-58904190D01*
X37631428Y-59380380D02*
X37631428Y-58380380D01*
X38012380Y-58380380D01*
X38107619Y-58428000D01*
X38155238Y-58475619D01*
X38202857Y-58570857D01*
X38202857Y-58713714D01*
X38155238Y-58808952D01*
X38107619Y-58856571D01*
X38012380Y-58904190D01*
X37631428Y-58904190D01*
X38536190Y-58380380D02*
X39202857Y-58380380D01*
X38774285Y-59380380D01*
X32417523Y-63857142D02*
X32465142Y-63904761D01*
X32417523Y-63952380D01*
X32369904Y-63904761D01*
X32417523Y-63857142D01*
X32417523Y-63952380D01*
X33417523Y-63952380D02*
X32846095Y-63952380D01*
X33131809Y-63952380D02*
X33131809Y-62952380D01*
X33036571Y-63095238D01*
X32941333Y-63190476D01*
X32846095Y-63238095D01*
X34274666Y-63285714D02*
X34274666Y-63952380D01*
X33846095Y-63285714D02*
X33846095Y-63809523D01*
X33893714Y-63904761D01*
X33988952Y-63952380D01*
X34131809Y-63952380D01*
X34227047Y-63904761D01*
X34274666Y-63857142D01*
X35512761Y-63571428D02*
X36274666Y-63571428D01*
X38084190Y-63857142D02*
X38036571Y-63904761D01*
X37893714Y-63952380D01*
X37798476Y-63952380D01*
X37655619Y-63904761D01*
X37560380Y-63809523D01*
X37512761Y-63714285D01*
X37465142Y-63523809D01*
X37465142Y-63380952D01*
X37512761Y-63190476D01*
X37560380Y-63095238D01*
X37655619Y-63000000D01*
X37798476Y-62952380D01*
X37893714Y-62952380D01*
X38036571Y-63000000D01*
X38084190Y-63047619D01*
X39036571Y-63952380D02*
X38465142Y-63952380D01*
X38750857Y-63952380D02*
X38750857Y-62952380D01*
X38655619Y-63095238D01*
X38560380Y-63190476D01*
X38465142Y-63238095D01*
X39465142Y-63571428D02*
X40227047Y-63571428D01*
X41179428Y-62952380D02*
X40703238Y-62952380D01*
X40655619Y-63428571D01*
X40703238Y-63380952D01*
X40798476Y-63333333D01*
X41036571Y-63333333D01*
X41131809Y-63380952D01*
X41179428Y-63428571D01*
X41227047Y-63523809D01*
X41227047Y-63761904D01*
X41179428Y-63857142D01*
X41131809Y-63904761D01*
X41036571Y-63952380D01*
X40798476Y-63952380D01*
X40703238Y-63904761D01*
X40655619Y-63857142D01*
X41703238Y-63904761D02*
X41703238Y-63952380D01*
X41655619Y-64047619D01*
X41608000Y-64095238D01*
X42036571Y-62952380D02*
X42703238Y-62952380D01*
X42274666Y-63952380D01*
X43084190Y-63571428D02*
X43846095Y-63571428D01*
X44465142Y-63380952D02*
X44369904Y-63333333D01*
X44322285Y-63285714D01*
X44274666Y-63190476D01*
X44274666Y-63142857D01*
X44322285Y-63047619D01*
X44369904Y-63000000D01*
X44465142Y-62952380D01*
X44655619Y-62952380D01*
X44750857Y-63000000D01*
X44798476Y-63047619D01*
X44846095Y-63142857D01*
X44846095Y-63190476D01*
X44798476Y-63285714D01*
X44750857Y-63333333D01*
X44655619Y-63380952D01*
X44465142Y-63380952D01*
X44369904Y-63428571D01*
X44322285Y-63476190D01*
X44274666Y-63571428D01*
X44274666Y-63761904D01*
X44322285Y-63857142D01*
X44369904Y-63904761D01*
X44465142Y-63952380D01*
X44655619Y-63952380D01*
X44750857Y-63904761D01*
X44798476Y-63857142D01*
X44846095Y-63761904D01*
X44846095Y-63571428D01*
X44798476Y-63476190D01*
X44750857Y-63428571D01*
X44655619Y-63380952D01*
X32608190Y-61158380D02*
X32036761Y-61158380D01*
X32322476Y-61158380D02*
X32322476Y-60158380D01*
X32227238Y-60301238D01*
X32132000Y-60396476D01*
X32036761Y-60444095D01*
X33227238Y-60158380D02*
X33322476Y-60158380D01*
X33417714Y-60206000D01*
X33465333Y-60253619D01*
X33512952Y-60348857D01*
X33560571Y-60539333D01*
X33560571Y-60777428D01*
X33512952Y-60967904D01*
X33465333Y-61063142D01*
X33417714Y-61110761D01*
X33322476Y-61158380D01*
X33227238Y-61158380D01*
X33132000Y-61110761D01*
X33084380Y-61063142D01*
X33036761Y-60967904D01*
X32989142Y-60777428D01*
X32989142Y-60539333D01*
X33036761Y-60348857D01*
X33084380Y-60253619D01*
X33132000Y-60206000D01*
X33227238Y-60158380D01*
X33989142Y-61158380D02*
X33989142Y-60158380D01*
X34084380Y-60777428D02*
X34370095Y-61158380D01*
X34370095Y-60491714D02*
X33989142Y-60872666D01*
X35560571Y-60777428D02*
X36322476Y-60777428D01*
X38132000Y-61158380D02*
X37798666Y-60682190D01*
X37560571Y-61158380D02*
X37560571Y-60158380D01*
X37941523Y-60158380D01*
X38036761Y-60206000D01*
X38084380Y-60253619D01*
X38132000Y-60348857D01*
X38132000Y-60491714D01*
X38084380Y-60586952D01*
X38036761Y-60634571D01*
X37941523Y-60682190D01*
X37560571Y-60682190D01*
X39084380Y-61158380D02*
X38512952Y-61158380D01*
X38798666Y-61158380D02*
X38798666Y-60158380D01*
X38703428Y-60301238D01*
X38608190Y-60396476D01*
X38512952Y-60444095D01*
X39512952Y-60777428D02*
X40274857Y-60777428D01*
X41179619Y-60158380D02*
X40989142Y-60158380D01*
X40893904Y-60206000D01*
X40846285Y-60253619D01*
X40751047Y-60396476D01*
X40703428Y-60586952D01*
X40703428Y-60967904D01*
X40751047Y-61063142D01*
X40798666Y-61110761D01*
X40893904Y-61158380D01*
X41084380Y-61158380D01*
X41179619Y-61110761D01*
X41227238Y-61063142D01*
X41274857Y-60967904D01*
X41274857Y-60729809D01*
X41227238Y-60634571D01*
X41179619Y-60586952D01*
X41084380Y-60539333D01*
X40893904Y-60539333D01*
X40798666Y-60586952D01*
X40751047Y-60634571D01*
X40703428Y-60729809D01*
X41751047Y-61110761D02*
X41751047Y-61158380D01*
X41703428Y-61253619D01*
X41655809Y-61301238D01*
X42322476Y-60586952D02*
X42227238Y-60539333D01*
X42179619Y-60491714D01*
X42132000Y-60396476D01*
X42132000Y-60348857D01*
X42179619Y-60253619D01*
X42227238Y-60206000D01*
X42322476Y-60158380D01*
X42512952Y-60158380D01*
X42608190Y-60206000D01*
X42655809Y-60253619D01*
X42703428Y-60348857D01*
X42703428Y-60396476D01*
X42655809Y-60491714D01*
X42608190Y-60539333D01*
X42512952Y-60586952D01*
X42322476Y-60586952D01*
X42227238Y-60634571D01*
X42179619Y-60682190D01*
X42132000Y-60777428D01*
X42132000Y-60967904D01*
X42179619Y-61063142D01*
X42227238Y-61110761D01*
X42322476Y-61158380D01*
X42512952Y-61158380D01*
X42608190Y-61110761D01*
X42655809Y-61063142D01*
X42703428Y-60967904D01*
X42703428Y-60777428D01*
X42655809Y-60682190D01*
X42608190Y-60634571D01*
X42512952Y-60586952D01*
X43132000Y-60777428D02*
X43893904Y-60777428D01*
X44893904Y-61158380D02*
X44322476Y-61158380D01*
X44608190Y-61158380D02*
X44608190Y-60158380D01*
X44512952Y-60301238D01*
X44417714Y-60396476D01*
X44322476Y-60444095D01*
X45798666Y-60158380D02*
X45322476Y-60158380D01*
X45274857Y-60634571D01*
X45322476Y-60586952D01*
X45417714Y-60539333D01*
X45655809Y-60539333D01*
X45751047Y-60586952D01*
X45798666Y-60634571D01*
X45846285Y-60729809D01*
X45846285Y-60967904D01*
X45798666Y-61063142D01*
X45751047Y-61110761D01*
X45655809Y-61158380D01*
X45417714Y-61158380D01*
X45322476Y-61110761D01*
X45274857Y-61063142D01*
X46322476Y-61110761D02*
X46322476Y-61158380D01*
X46274857Y-61253619D01*
X46227238Y-61301238D01*
X46655809Y-60158380D02*
X47274857Y-60158380D01*
X46941523Y-60539333D01*
X47084380Y-60539333D01*
X47179619Y-60586952D01*
X47227238Y-60634571D01*
X47274857Y-60729809D01*
X47274857Y-60967904D01*
X47227238Y-61063142D01*
X47179619Y-61110761D01*
X47084380Y-61158380D01*
X46798666Y-61158380D01*
X46703428Y-61110761D01*
X46655809Y-61063142D01*
X47655809Y-60253619D02*
X47703428Y-60206000D01*
X47798666Y-60158380D01*
X48036761Y-60158380D01*
X48131999Y-60206000D01*
X48179619Y-60253619D01*
X48227238Y-60348857D01*
X48227238Y-60444095D01*
X48179619Y-60586952D01*
X47608190Y-61158380D01*
X48227238Y-61158380D01*
X31981238Y-56697619D02*
X32028857Y-56650000D01*
X32124095Y-56602380D01*
X32362190Y-56602380D01*
X32457428Y-56650000D01*
X32505047Y-56697619D01*
X32552666Y-56792857D01*
X32552666Y-56888095D01*
X32505047Y-57030952D01*
X31933619Y-57602380D01*
X32552666Y-57602380D01*
X32933619Y-56697619D02*
X32981238Y-56650000D01*
X33076476Y-56602380D01*
X33314571Y-56602380D01*
X33409809Y-56650000D01*
X33457428Y-56697619D01*
X33505047Y-56792857D01*
X33505047Y-56888095D01*
X33457428Y-57030952D01*
X32886000Y-57602380D01*
X33505047Y-57602380D01*
X34124095Y-56602380D02*
X34219333Y-56602380D01*
X34314571Y-56650000D01*
X34362190Y-56697619D01*
X34409809Y-56792857D01*
X34457428Y-56983333D01*
X34457428Y-57221428D01*
X34409809Y-57411904D01*
X34362190Y-57507142D01*
X34314571Y-57554761D01*
X34219333Y-57602380D01*
X34124095Y-57602380D01*
X34028857Y-57554761D01*
X33981238Y-57507142D01*
X33933619Y-57411904D01*
X33886000Y-57221428D01*
X33886000Y-56983333D01*
X33933619Y-56792857D01*
X33981238Y-56697619D01*
X34028857Y-56650000D01*
X34124095Y-56602380D01*
X35647904Y-57221428D02*
X36409809Y-57221428D01*
X38219333Y-57602380D02*
X37886000Y-57126190D01*
X37647904Y-57602380D02*
X37647904Y-56602380D01*
X38028857Y-56602380D01*
X38124095Y-56650000D01*
X38171714Y-56697619D01*
X38219333Y-56792857D01*
X38219333Y-56935714D01*
X38171714Y-57030952D01*
X38124095Y-57078571D01*
X38028857Y-57126190D01*
X37647904Y-57126190D01*
X39171714Y-57602380D02*
X38600285Y-57602380D01*
X38886000Y-57602380D02*
X38886000Y-56602380D01*
X38790761Y-56745238D01*
X38695523Y-56840476D01*
X38600285Y-56888095D01*
X40028857Y-56602380D02*
X39838380Y-56602380D01*
X39743142Y-56650000D01*
X39695523Y-56697619D01*
X39600285Y-56840476D01*
X39552666Y-57030952D01*
X39552666Y-57411904D01*
X39600285Y-57507142D01*
X39647904Y-57554761D01*
X39743142Y-57602380D01*
X39933619Y-57602380D01*
X40028857Y-57554761D01*
X40076476Y-57507142D01*
X40124095Y-57411904D01*
X40124095Y-57173809D01*
X40076476Y-57078571D01*
X40028857Y-57030952D01*
X39933619Y-56983333D01*
X39743142Y-56983333D01*
X39647904Y-57030952D01*
X39600285Y-57078571D01*
X39552666Y-57173809D01*
X40552666Y-57221428D02*
X41314571Y-57221428D01*
X41695523Y-56602380D02*
X42314571Y-56602380D01*
X41981238Y-56983333D01*
X42124095Y-56983333D01*
X42219333Y-57030952D01*
X42266952Y-57078571D01*
X42314571Y-57173809D01*
X42314571Y-57411904D01*
X42266952Y-57507142D01*
X42219333Y-57554761D01*
X42124095Y-57602380D01*
X41838380Y-57602380D01*
X41743142Y-57554761D01*
X41695523Y-57507142D01*
X42933619Y-56602380D02*
X43028857Y-56602380D01*
X43124095Y-56650000D01*
X43171714Y-56697619D01*
X43219333Y-56792857D01*
X43266952Y-56983333D01*
X43266952Y-57221428D01*
X43219333Y-57411904D01*
X43171714Y-57507142D01*
X43124095Y-57554761D01*
X43028857Y-57602380D01*
X42933619Y-57602380D01*
X42838380Y-57554761D01*
X42790761Y-57507142D01*
X42743142Y-57411904D01*
X42695523Y-57221428D01*
X42695523Y-56983333D01*
X42743142Y-56792857D01*
X42790761Y-56697619D01*
X42838380Y-56650000D01*
X42933619Y-56602380D01*
X43743142Y-57554761D02*
X43743142Y-57602380D01*
X43695523Y-57697619D01*
X43647904Y-57745238D01*
X44076476Y-56602380D02*
X44695523Y-56602380D01*
X44362190Y-56983333D01*
X44505047Y-56983333D01*
X44600285Y-57030952D01*
X44647904Y-57078571D01*
X44695523Y-57173809D01*
X44695523Y-57411904D01*
X44647904Y-57507142D01*
X44600285Y-57554761D01*
X44505047Y-57602380D01*
X44219333Y-57602380D01*
X44124095Y-57554761D01*
X44076476Y-57507142D01*
X45028857Y-56602380D02*
X45647904Y-56602380D01*
X45314571Y-56983333D01*
X45457428Y-56983333D01*
X45552666Y-57030952D01*
X45600285Y-57078571D01*
X45647904Y-57173809D01*
X45647904Y-57411904D01*
X45600285Y-57507142D01*
X45552666Y-57554761D01*
X45457428Y-57602380D01*
X45171714Y-57602380D01*
X45076476Y-57554761D01*
X45028857Y-57507142D01*
X46076476Y-57221428D02*
X46838380Y-57221428D01*
X47743142Y-56935714D02*
X47743142Y-57602380D01*
X47505047Y-56554761D02*
X47266952Y-57269047D01*
X47885999Y-57269047D01*
X48790761Y-57602380D02*
X48219333Y-57602380D01*
X48505047Y-57602380D02*
X48505047Y-56602380D01*
X48409809Y-56745238D01*
X48314571Y-56840476D01*
X48219333Y-56888095D01*
X20558666Y-43506380D02*
X20558666Y-42506380D01*
X21130095Y-43506380D01*
X21130095Y-42506380D01*
X22034857Y-43506380D02*
X22034857Y-42982571D01*
X21987238Y-42887333D01*
X21892000Y-42839714D01*
X21701523Y-42839714D01*
X21606285Y-42887333D01*
X22034857Y-43458761D02*
X21939619Y-43506380D01*
X21701523Y-43506380D01*
X21606285Y-43458761D01*
X21558666Y-43363523D01*
X21558666Y-43268285D01*
X21606285Y-43173047D01*
X21701523Y-43125428D01*
X21939619Y-43125428D01*
X22034857Y-43077809D01*
X22511047Y-42839714D02*
X22511047Y-43506380D01*
X22511047Y-42934952D02*
X22558666Y-42887333D01*
X22653904Y-42839714D01*
X22796761Y-42839714D01*
X22892000Y-42887333D01*
X22939619Y-42982571D01*
X22939619Y-43506380D01*
X23558666Y-43506380D02*
X23463428Y-43458761D01*
X23415809Y-43411142D01*
X23368190Y-43315904D01*
X23368190Y-43030190D01*
X23415809Y-42934952D01*
X23463428Y-42887333D01*
X23558666Y-42839714D01*
X23701523Y-42839714D01*
X23796761Y-42887333D01*
X23844380Y-42934952D01*
X23892000Y-43030190D01*
X23892000Y-43315904D01*
X23844380Y-43411142D01*
X23796761Y-43458761D01*
X23701523Y-43506380D01*
X23558666Y-43506380D01*
X25034857Y-43458761D02*
X25177714Y-43506380D01*
X25415809Y-43506380D01*
X25511047Y-43458761D01*
X25558666Y-43411142D01*
X25606285Y-43315904D01*
X25606285Y-43220666D01*
X25558666Y-43125428D01*
X25511047Y-43077809D01*
X25415809Y-43030190D01*
X25225333Y-42982571D01*
X25130095Y-42934952D01*
X25082476Y-42887333D01*
X25034857Y-42792095D01*
X25034857Y-42696857D01*
X25082476Y-42601619D01*
X25130095Y-42554000D01*
X25225333Y-42506380D01*
X25463428Y-42506380D01*
X25606285Y-42554000D01*
X26034857Y-43506380D02*
X26034857Y-42506380D01*
X26463428Y-43506380D02*
X26463428Y-42982571D01*
X26415809Y-42887333D01*
X26320571Y-42839714D01*
X26177714Y-42839714D01*
X26082476Y-42887333D01*
X26034857Y-42934952D01*
X26939619Y-43506380D02*
X26939619Y-42839714D01*
X26939619Y-42506380D02*
X26892000Y-42554000D01*
X26939619Y-42601619D01*
X26987238Y-42554000D01*
X26939619Y-42506380D01*
X26939619Y-42601619D01*
X27796761Y-43458761D02*
X27701523Y-43506380D01*
X27511047Y-43506380D01*
X27415809Y-43458761D01*
X27368190Y-43363523D01*
X27368190Y-42982571D01*
X27415809Y-42887333D01*
X27511047Y-42839714D01*
X27701523Y-42839714D01*
X27796761Y-42887333D01*
X27844380Y-42982571D01*
X27844380Y-43077809D01*
X27368190Y-43173047D01*
X28415809Y-43506380D02*
X28320571Y-43458761D01*
X28272952Y-43363523D01*
X28272952Y-42506380D01*
X29225333Y-43506380D02*
X29225333Y-42506380D01*
X29225333Y-43458761D02*
X29130095Y-43506380D01*
X28939619Y-43506380D01*
X28844380Y-43458761D01*
X28796761Y-43411142D01*
X28749142Y-43315904D01*
X28749142Y-43030190D01*
X28796761Y-42934952D01*
X28844380Y-42887333D01*
X28939619Y-42839714D01*
X29130095Y-42839714D01*
X29225333Y-42887333D01*
X22820571Y-45156380D02*
X22487238Y-44680190D01*
X22249142Y-45156380D02*
X22249142Y-44156380D01*
X22630095Y-44156380D01*
X22725333Y-44204000D01*
X22772952Y-44251619D01*
X22820571Y-44346857D01*
X22820571Y-44489714D01*
X22772952Y-44584952D01*
X22725333Y-44632571D01*
X22630095Y-44680190D01*
X22249142Y-44680190D01*
X23630095Y-45108761D02*
X23534857Y-45156380D01*
X23344380Y-45156380D01*
X23249142Y-45108761D01*
X23201523Y-45013523D01*
X23201523Y-44632571D01*
X23249142Y-44537333D01*
X23344380Y-44489714D01*
X23534857Y-44489714D01*
X23630095Y-44537333D01*
X23677714Y-44632571D01*
X23677714Y-44727809D01*
X23201523Y-44823047D01*
X24011047Y-44489714D02*
X24249142Y-45156380D01*
X24487238Y-44489714D01*
X24868190Y-45061142D02*
X24915809Y-45108761D01*
X24868190Y-45156380D01*
X24820571Y-45108761D01*
X24868190Y-45061142D01*
X24868190Y-45156380D01*
X26296761Y-44156380D02*
X26392000Y-44156380D01*
X26487238Y-44204000D01*
X26534857Y-44251619D01*
X26582476Y-44346857D01*
X26630095Y-44537333D01*
X26630095Y-44775428D01*
X26582476Y-44965904D01*
X26534857Y-45061142D01*
X26487238Y-45108761D01*
X26392000Y-45156380D01*
X26296761Y-45156380D01*
X26201523Y-45108761D01*
X26153904Y-45061142D01*
X26106285Y-44965904D01*
X26058666Y-44775428D01*
X26058666Y-44537333D01*
X26106285Y-44346857D01*
X26153904Y-44251619D01*
X26201523Y-44204000D01*
X26296761Y-44156380D01*
X27011047Y-44251619D02*
X27058666Y-44204000D01*
X27153904Y-44156380D01*
X27392000Y-44156380D01*
X27487238Y-44204000D01*
X27534857Y-44251619D01*
X27582476Y-44346857D01*
X27582476Y-44442095D01*
X27534857Y-44584952D01*
X26963428Y-45156380D01*
X27582476Y-45156380D01*
X20130095Y-45806380D02*
X20796761Y-45806380D01*
X20130095Y-46806380D01*
X20796761Y-46806380D01*
X21606285Y-46806380D02*
X21606285Y-46282571D01*
X21558666Y-46187333D01*
X21463428Y-46139714D01*
X21272952Y-46139714D01*
X21177714Y-46187333D01*
X21606285Y-46758761D02*
X21511047Y-46806380D01*
X21272952Y-46806380D01*
X21177714Y-46758761D01*
X21130095Y-46663523D01*
X21130095Y-46568285D01*
X21177714Y-46473047D01*
X21272952Y-46425428D01*
X21511047Y-46425428D01*
X21606285Y-46377809D01*
X22511047Y-46758761D02*
X22415809Y-46806380D01*
X22225333Y-46806380D01*
X22130095Y-46758761D01*
X22082476Y-46711142D01*
X22034857Y-46615904D01*
X22034857Y-46330190D01*
X22082476Y-46234952D01*
X22130095Y-46187333D01*
X22225333Y-46139714D01*
X22415809Y-46139714D01*
X22511047Y-46187333D01*
X22939619Y-46806380D02*
X22939619Y-45806380D01*
X23368190Y-46806380D02*
X23368190Y-46282571D01*
X23320571Y-46187333D01*
X23225333Y-46139714D01*
X23082476Y-46139714D01*
X22987238Y-46187333D01*
X22939619Y-46234952D01*
X24606285Y-46282571D02*
X24939619Y-46282571D01*
X25082476Y-46806380D02*
X24606285Y-46806380D01*
X24606285Y-45806380D01*
X25082476Y-45806380D01*
X25511047Y-46139714D02*
X25511047Y-46806380D01*
X25511047Y-46234952D02*
X25558666Y-46187333D01*
X25653904Y-46139714D01*
X25796761Y-46139714D01*
X25892000Y-46187333D01*
X25939619Y-46282571D01*
X25939619Y-46806380D01*
X26844380Y-46139714D02*
X26844380Y-46949238D01*
X26796761Y-47044476D01*
X26749142Y-47092095D01*
X26653904Y-47139714D01*
X26511047Y-47139714D01*
X26415809Y-47092095D01*
X26844380Y-46758761D02*
X26749142Y-46806380D01*
X26558666Y-46806380D01*
X26463428Y-46758761D01*
X26415809Y-46711142D01*
X26368190Y-46615904D01*
X26368190Y-46330190D01*
X26415809Y-46234952D01*
X26463428Y-46187333D01*
X26558666Y-46139714D01*
X26749142Y-46139714D01*
X26844380Y-46187333D01*
X27463428Y-46806380D02*
X27368190Y-46758761D01*
X27320571Y-46663523D01*
X27320571Y-45806380D01*
X27844380Y-46806380D02*
X27844380Y-46139714D01*
X27844380Y-45806380D02*
X27796761Y-45854000D01*
X27844380Y-45901619D01*
X27892000Y-45854000D01*
X27844380Y-45806380D01*
X27844380Y-45901619D01*
X28272952Y-46758761D02*
X28368190Y-46806380D01*
X28558666Y-46806380D01*
X28653904Y-46758761D01*
X28701523Y-46663523D01*
X28701523Y-46615904D01*
X28653904Y-46520666D01*
X28558666Y-46473047D01*
X28415809Y-46473047D01*
X28320571Y-46425428D01*
X28272952Y-46330190D01*
X28272952Y-46282571D01*
X28320571Y-46187333D01*
X28415809Y-46139714D01*
X28558666Y-46139714D01*
X28653904Y-46187333D01*
X29130095Y-46806380D02*
X29130095Y-45806380D01*
X29558666Y-46806380D02*
X29558666Y-46282571D01*
X29511047Y-46187333D01*
X29415809Y-46139714D01*
X29272952Y-46139714D01*
X29177714Y-46187333D01*
X29130095Y-46234952D01*
X33718761Y-104846380D02*
X33718761Y-103846380D01*
X34099714Y-103846380D01*
X34194952Y-103894000D01*
X34242571Y-103941619D01*
X34290190Y-104036857D01*
X34290190Y-104179714D01*
X34242571Y-104274952D01*
X34194952Y-104322571D01*
X34099714Y-104370190D01*
X33718761Y-104370190D01*
X34861619Y-104846380D02*
X34766380Y-104798761D01*
X34718761Y-104751142D01*
X34671142Y-104655904D01*
X34671142Y-104370190D01*
X34718761Y-104274952D01*
X34766380Y-104227333D01*
X34861619Y-104179714D01*
X35004476Y-104179714D01*
X35099714Y-104227333D01*
X35147333Y-104274952D01*
X35194952Y-104370190D01*
X35194952Y-104655904D01*
X35147333Y-104751142D01*
X35099714Y-104798761D01*
X35004476Y-104846380D01*
X34861619Y-104846380D01*
X35480666Y-104179714D02*
X35861619Y-104179714D01*
X35623523Y-103846380D02*
X35623523Y-104703523D01*
X35671142Y-104798761D01*
X35766380Y-104846380D01*
X35861619Y-104846380D01*
X36194952Y-104751142D02*
X36242571Y-104798761D01*
X36194952Y-104846380D01*
X36147333Y-104798761D01*
X36194952Y-104751142D01*
X36194952Y-104846380D01*
X37956857Y-104846380D02*
X37385428Y-104846380D01*
X37671142Y-104846380D02*
X37671142Y-103846380D01*
X37575904Y-103989238D01*
X37480666Y-104084476D01*
X37385428Y-104132095D01*
X33718761Y-102306380D02*
X33718761Y-101306380D01*
X34099714Y-101306380D01*
X34194952Y-101354000D01*
X34242571Y-101401619D01*
X34290190Y-101496857D01*
X34290190Y-101639714D01*
X34242571Y-101734952D01*
X34194952Y-101782571D01*
X34099714Y-101830190D01*
X33718761Y-101830190D01*
X34861619Y-102306380D02*
X34766380Y-102258761D01*
X34718761Y-102211142D01*
X34671142Y-102115904D01*
X34671142Y-101830190D01*
X34718761Y-101734952D01*
X34766380Y-101687333D01*
X34861619Y-101639714D01*
X35004476Y-101639714D01*
X35099714Y-101687333D01*
X35147333Y-101734952D01*
X35194952Y-101830190D01*
X35194952Y-102115904D01*
X35147333Y-102211142D01*
X35099714Y-102258761D01*
X35004476Y-102306380D01*
X34861619Y-102306380D01*
X35480666Y-101639714D02*
X35861619Y-101639714D01*
X35623523Y-101306380D02*
X35623523Y-102163523D01*
X35671142Y-102258761D01*
X35766380Y-102306380D01*
X35861619Y-102306380D01*
X36194952Y-102211142D02*
X36242571Y-102258761D01*
X36194952Y-102306380D01*
X36147333Y-102258761D01*
X36194952Y-102211142D01*
X36194952Y-102306380D01*
X37385428Y-101401619D02*
X37433047Y-101354000D01*
X37528285Y-101306380D01*
X37766380Y-101306380D01*
X37861619Y-101354000D01*
X37909238Y-101401619D01*
X37956857Y-101496857D01*
X37956857Y-101592095D01*
X37909238Y-101734952D01*
X37337809Y-102306380D01*
X37956857Y-102306380D01*
X33718761Y-99766380D02*
X33718761Y-98766380D01*
X34099714Y-98766380D01*
X34194952Y-98814000D01*
X34242571Y-98861619D01*
X34290190Y-98956857D01*
X34290190Y-99099714D01*
X34242571Y-99194952D01*
X34194952Y-99242571D01*
X34099714Y-99290190D01*
X33718761Y-99290190D01*
X34861619Y-99766380D02*
X34766380Y-99718761D01*
X34718761Y-99671142D01*
X34671142Y-99575904D01*
X34671142Y-99290190D01*
X34718761Y-99194952D01*
X34766380Y-99147333D01*
X34861619Y-99099714D01*
X35004476Y-99099714D01*
X35099714Y-99147333D01*
X35147333Y-99194952D01*
X35194952Y-99290190D01*
X35194952Y-99575904D01*
X35147333Y-99671142D01*
X35099714Y-99718761D01*
X35004476Y-99766380D01*
X34861619Y-99766380D01*
X35480666Y-99099714D02*
X35861619Y-99099714D01*
X35623523Y-98766380D02*
X35623523Y-99623523D01*
X35671142Y-99718761D01*
X35766380Y-99766380D01*
X35861619Y-99766380D01*
X36194952Y-99671142D02*
X36242571Y-99718761D01*
X36194952Y-99766380D01*
X36147333Y-99718761D01*
X36194952Y-99671142D01*
X36194952Y-99766380D01*
X37337809Y-98766380D02*
X37956857Y-98766380D01*
X37623523Y-99147333D01*
X37766380Y-99147333D01*
X37861619Y-99194952D01*
X37909238Y-99242571D01*
X37956857Y-99337809D01*
X37956857Y-99575904D01*
X37909238Y-99671142D01*
X37861619Y-99718761D01*
X37766380Y-99766380D01*
X37480666Y-99766380D01*
X37385428Y-99718761D01*
X37337809Y-99671142D01*
X34163238Y-97226380D02*
X34163238Y-96226380D01*
X34544190Y-96226380D01*
X34639428Y-96274000D01*
X34687047Y-96321619D01*
X34734666Y-96416857D01*
X34734666Y-96559714D01*
X34687047Y-96654952D01*
X34639428Y-96702571D01*
X34544190Y-96750190D01*
X34163238Y-96750190D01*
X35163238Y-97226380D02*
X35163238Y-96226380D01*
X35591809Y-97226380D02*
X35591809Y-96702571D01*
X35544190Y-96607333D01*
X35448952Y-96559714D01*
X35306095Y-96559714D01*
X35210857Y-96607333D01*
X35163238Y-96654952D01*
X36210857Y-97226380D02*
X36115619Y-97178761D01*
X36068000Y-97131142D01*
X36020380Y-97035904D01*
X36020380Y-96750190D01*
X36068000Y-96654952D01*
X36115619Y-96607333D01*
X36210857Y-96559714D01*
X36353714Y-96559714D01*
X36448952Y-96607333D01*
X36496571Y-96654952D01*
X36544190Y-96750190D01*
X36544190Y-97035904D01*
X36496571Y-97131142D01*
X36448952Y-97178761D01*
X36353714Y-97226380D01*
X36210857Y-97226380D01*
X36829904Y-96559714D02*
X37210857Y-96559714D01*
X36972761Y-96226380D02*
X36972761Y-97083523D01*
X37020380Y-97178761D01*
X37115619Y-97226380D01*
X37210857Y-97226380D01*
X37687047Y-97226380D02*
X37591809Y-97178761D01*
X37544190Y-97131142D01*
X37496571Y-97035904D01*
X37496571Y-96750190D01*
X37544190Y-96654952D01*
X37591809Y-96607333D01*
X37687047Y-96559714D01*
X37829904Y-96559714D01*
X37925142Y-96607333D01*
X37972761Y-96654952D01*
X38020380Y-96750190D01*
X38020380Y-97035904D01*
X37972761Y-97131142D01*
X37925142Y-97178761D01*
X37829904Y-97226380D01*
X37687047Y-97226380D01*
X34210857Y-94686380D02*
X34210857Y-93686380D01*
X34639428Y-93781619D02*
X34687047Y-93734000D01*
X34782285Y-93686380D01*
X35020380Y-93686380D01*
X35115619Y-93734000D01*
X35163238Y-93781619D01*
X35210857Y-93876857D01*
X35210857Y-93972095D01*
X35163238Y-94114952D01*
X34591809Y-94686380D01*
X35210857Y-94686380D01*
X36210857Y-94591142D02*
X36163238Y-94638761D01*
X36020380Y-94686380D01*
X35925142Y-94686380D01*
X35782285Y-94638761D01*
X35687047Y-94543523D01*
X35639428Y-94448285D01*
X35591809Y-94257809D01*
X35591809Y-94114952D01*
X35639428Y-93924476D01*
X35687047Y-93829238D01*
X35782285Y-93734000D01*
X35925142Y-93686380D01*
X36020380Y-93686380D01*
X36163238Y-93734000D01*
X36210857Y-93781619D01*
X37401333Y-94686380D02*
X37401333Y-93686380D01*
X37639428Y-93686380D01*
X37782285Y-93734000D01*
X37877523Y-93829238D01*
X37925142Y-93924476D01*
X37972761Y-94114952D01*
X37972761Y-94257809D01*
X37925142Y-94448285D01*
X37877523Y-94543523D01*
X37782285Y-94638761D01*
X37639428Y-94686380D01*
X37401333Y-94686380D01*
X34210857Y-92146380D02*
X34210857Y-91146380D01*
X34639428Y-91241619D02*
X34687047Y-91194000D01*
X34782285Y-91146380D01*
X35020380Y-91146380D01*
X35115619Y-91194000D01*
X35163238Y-91241619D01*
X35210857Y-91336857D01*
X35210857Y-91432095D01*
X35163238Y-91574952D01*
X34591809Y-92146380D01*
X35210857Y-92146380D01*
X36210857Y-92051142D02*
X36163238Y-92098761D01*
X36020380Y-92146380D01*
X35925142Y-92146380D01*
X35782285Y-92098761D01*
X35687047Y-92003523D01*
X35639428Y-91908285D01*
X35591809Y-91717809D01*
X35591809Y-91574952D01*
X35639428Y-91384476D01*
X35687047Y-91289238D01*
X35782285Y-91194000D01*
X35925142Y-91146380D01*
X36020380Y-91146380D01*
X36163238Y-91194000D01*
X36210857Y-91241619D01*
X37972761Y-92051142D02*
X37925142Y-92098761D01*
X37782285Y-92146380D01*
X37687047Y-92146380D01*
X37544190Y-92098761D01*
X37448952Y-92003523D01*
X37401333Y-91908285D01*
X37353714Y-91717809D01*
X37353714Y-91574952D01*
X37401333Y-91384476D01*
X37448952Y-91289238D01*
X37544190Y-91194000D01*
X37687047Y-91146380D01*
X37782285Y-91146380D01*
X37925142Y-91194000D01*
X37972761Y-91241619D01*
X34401333Y-89606380D02*
X34401333Y-88606380D01*
X35448952Y-89606380D02*
X35115619Y-89130190D01*
X34877523Y-89606380D02*
X34877523Y-88606380D01*
X35258476Y-88606380D01*
X35353714Y-88654000D01*
X35401333Y-88701619D01*
X35448952Y-88796857D01*
X35448952Y-88939714D01*
X35401333Y-89034952D01*
X35353714Y-89082571D01*
X35258476Y-89130190D01*
X34877523Y-89130190D01*
X36496571Y-88606380D02*
X37068000Y-88606380D01*
X36782285Y-89606380D02*
X36782285Y-88606380D01*
X37306095Y-89606380D02*
X37829904Y-88939714D01*
X37306095Y-88939714D02*
X37829904Y-89606380D01*
X34282285Y-87066380D02*
X34282285Y-86066380D01*
X35329904Y-87066380D02*
X34996571Y-86590190D01*
X34758476Y-87066380D02*
X34758476Y-86066380D01*
X35139428Y-86066380D01*
X35234666Y-86114000D01*
X35282285Y-86161619D01*
X35329904Y-86256857D01*
X35329904Y-86399714D01*
X35282285Y-86494952D01*
X35234666Y-86542571D01*
X35139428Y-86590190D01*
X34758476Y-86590190D01*
X37091809Y-87066380D02*
X36758476Y-86590190D01*
X36520380Y-87066380D02*
X36520380Y-86066380D01*
X36901333Y-86066380D01*
X36996571Y-86114000D01*
X37044190Y-86161619D01*
X37091809Y-86256857D01*
X37091809Y-86399714D01*
X37044190Y-86494952D01*
X36996571Y-86542571D01*
X36901333Y-86590190D01*
X36520380Y-86590190D01*
X37425142Y-87066380D02*
X37948952Y-86399714D01*
X37425142Y-86399714D02*
X37948952Y-87066380D01*
X25924380Y-114958761D02*
X26067238Y-115006380D01*
X26305333Y-115006380D01*
X26400571Y-114958761D01*
X26448190Y-114911142D01*
X26495809Y-114815904D01*
X26495809Y-114720666D01*
X26448190Y-114625428D01*
X26400571Y-114577809D01*
X26305333Y-114530190D01*
X26114857Y-114482571D01*
X26019619Y-114434952D01*
X25972000Y-114387333D01*
X25924380Y-114292095D01*
X25924380Y-114196857D01*
X25972000Y-114101619D01*
X26019619Y-114054000D01*
X26114857Y-114006380D01*
X26352952Y-114006380D01*
X26495809Y-114054000D01*
X27305333Y-114958761D02*
X27210095Y-115006380D01*
X27019619Y-115006380D01*
X26924380Y-114958761D01*
X26876761Y-114863523D01*
X26876761Y-114482571D01*
X26924380Y-114387333D01*
X27019619Y-114339714D01*
X27210095Y-114339714D01*
X27305333Y-114387333D01*
X27352952Y-114482571D01*
X27352952Y-114577809D01*
X26876761Y-114673047D01*
X27781523Y-115006380D02*
X27781523Y-114339714D01*
X27781523Y-114530190D02*
X27829142Y-114434952D01*
X27876761Y-114387333D01*
X27972000Y-114339714D01*
X28067238Y-114339714D01*
X28400571Y-115006380D02*
X28400571Y-114339714D01*
X28400571Y-114006380D02*
X28352952Y-114054000D01*
X28400571Y-114101619D01*
X28448190Y-114054000D01*
X28400571Y-114006380D01*
X28400571Y-114101619D01*
X29305333Y-115006380D02*
X29305333Y-114482571D01*
X29257714Y-114387333D01*
X29162476Y-114339714D01*
X28972000Y-114339714D01*
X28876761Y-114387333D01*
X29305333Y-114958761D02*
X29210095Y-115006380D01*
X28972000Y-115006380D01*
X28876761Y-114958761D01*
X28829142Y-114863523D01*
X28829142Y-114768285D01*
X28876761Y-114673047D01*
X28972000Y-114625428D01*
X29210095Y-114625428D01*
X29305333Y-114577809D01*
X29924380Y-115006380D02*
X29829142Y-114958761D01*
X29781523Y-114863523D01*
X29781523Y-114006380D01*
X31067238Y-115006380D02*
X31067238Y-114006380D01*
X31305333Y-114006380D01*
X31448190Y-114054000D01*
X31543428Y-114149238D01*
X31591047Y-114244476D01*
X31638666Y-114434952D01*
X31638666Y-114577809D01*
X31591047Y-114768285D01*
X31543428Y-114863523D01*
X31448190Y-114958761D01*
X31305333Y-115006380D01*
X31067238Y-115006380D01*
X32495809Y-115006380D02*
X32495809Y-114482571D01*
X32448190Y-114387333D01*
X32352952Y-114339714D01*
X32162476Y-114339714D01*
X32067238Y-114387333D01*
X32495809Y-114958761D02*
X32400571Y-115006380D01*
X32162476Y-115006380D01*
X32067238Y-114958761D01*
X32019619Y-114863523D01*
X32019619Y-114768285D01*
X32067238Y-114673047D01*
X32162476Y-114625428D01*
X32400571Y-114625428D01*
X32495809Y-114577809D01*
X32829142Y-114339714D02*
X33210095Y-114339714D01*
X32972000Y-114006380D02*
X32972000Y-114863523D01*
X33019619Y-114958761D01*
X33114857Y-115006380D01*
X33210095Y-115006380D01*
X33972000Y-115006380D02*
X33972000Y-114482571D01*
X33924380Y-114387333D01*
X33829142Y-114339714D01*
X33638666Y-114339714D01*
X33543428Y-114387333D01*
X33972000Y-114958761D02*
X33876761Y-115006380D01*
X33638666Y-115006380D01*
X33543428Y-114958761D01*
X33495809Y-114863523D01*
X33495809Y-114768285D01*
X33543428Y-114673047D01*
X33638666Y-114625428D01*
X33876761Y-114625428D01*
X33972000Y-114577809D01*
X26781428Y-112466380D02*
X26448095Y-111990190D01*
X26210000Y-112466380D02*
X26210000Y-111466380D01*
X26590952Y-111466380D01*
X26686190Y-111514000D01*
X26733809Y-111561619D01*
X26781428Y-111656857D01*
X26781428Y-111799714D01*
X26733809Y-111894952D01*
X26686190Y-111942571D01*
X26590952Y-111990190D01*
X26210000Y-111990190D01*
X27733809Y-111514000D02*
X27638571Y-111466380D01*
X27495714Y-111466380D01*
X27352857Y-111514000D01*
X27257619Y-111609238D01*
X27210000Y-111704476D01*
X27162380Y-111894952D01*
X27162380Y-112037809D01*
X27210000Y-112228285D01*
X27257619Y-112323523D01*
X27352857Y-112418761D01*
X27495714Y-112466380D01*
X27590952Y-112466380D01*
X27733809Y-112418761D01*
X27781428Y-112371142D01*
X27781428Y-112037809D01*
X27590952Y-112037809D01*
X28543333Y-111942571D02*
X28686190Y-111990190D01*
X28733809Y-112037809D01*
X28781428Y-112133047D01*
X28781428Y-112275904D01*
X28733809Y-112371142D01*
X28686190Y-112418761D01*
X28590952Y-112466380D01*
X28210000Y-112466380D01*
X28210000Y-111466380D01*
X28543333Y-111466380D01*
X28638571Y-111514000D01*
X28686190Y-111561619D01*
X28733809Y-111656857D01*
X28733809Y-111752095D01*
X28686190Y-111847333D01*
X28638571Y-111894952D01*
X28543333Y-111942571D01*
X28210000Y-111942571D01*
X30448095Y-112466380D02*
X29971904Y-112466380D01*
X29971904Y-111466380D01*
X30781428Y-111942571D02*
X31114761Y-111942571D01*
X31257619Y-112466380D02*
X30781428Y-112466380D01*
X30781428Y-111466380D01*
X31257619Y-111466380D01*
X31686190Y-112466380D02*
X31686190Y-111466380D01*
X31924285Y-111466380D01*
X32067142Y-111514000D01*
X32162380Y-111609238D01*
X32210000Y-111704476D01*
X32257619Y-111894952D01*
X32257619Y-112037809D01*
X32210000Y-112228285D01*
X32162380Y-112323523D01*
X32067142Y-112418761D01*
X31924285Y-112466380D01*
X31686190Y-112466380D01*
X26257523Y-109878761D02*
X26400380Y-109926380D01*
X26638476Y-109926380D01*
X26733714Y-109878761D01*
X26781333Y-109831142D01*
X26828952Y-109735904D01*
X26828952Y-109640666D01*
X26781333Y-109545428D01*
X26733714Y-109497809D01*
X26638476Y-109450190D01*
X26448000Y-109402571D01*
X26352761Y-109354952D01*
X26305142Y-109307333D01*
X26257523Y-109212095D01*
X26257523Y-109116857D01*
X26305142Y-109021619D01*
X26352761Y-108974000D01*
X26448000Y-108926380D01*
X26686095Y-108926380D01*
X26828952Y-108974000D01*
X27828952Y-109926380D02*
X27495619Y-109450190D01*
X27257523Y-109926380D02*
X27257523Y-108926380D01*
X27638476Y-108926380D01*
X27733714Y-108974000D01*
X27781333Y-109021619D01*
X27828952Y-109116857D01*
X27828952Y-109259714D01*
X27781333Y-109354952D01*
X27733714Y-109402571D01*
X27638476Y-109450190D01*
X27257523Y-109450190D01*
X28828952Y-109831142D02*
X28781333Y-109878761D01*
X28638476Y-109926380D01*
X28543238Y-109926380D01*
X28400380Y-109878761D01*
X28305142Y-109783523D01*
X28257523Y-109688285D01*
X28209904Y-109497809D01*
X28209904Y-109354952D01*
X28257523Y-109164476D01*
X28305142Y-109069238D01*
X28400380Y-108974000D01*
X28543238Y-108926380D01*
X28638476Y-108926380D01*
X28781333Y-108974000D01*
X28828952Y-109021619D01*
X29733714Y-109926380D02*
X29257523Y-109926380D01*
X29257523Y-108926380D01*
X30067047Y-109926380D02*
X30067047Y-108926380D01*
X30638476Y-109926380D02*
X30209904Y-109354952D01*
X30638476Y-108926380D02*
X30067047Y-109497809D01*
X26844761Y-107386380D02*
X26511428Y-106910190D01*
X26273333Y-107386380D02*
X26273333Y-106386380D01*
X26654285Y-106386380D01*
X26749523Y-106434000D01*
X26797142Y-106481619D01*
X26844761Y-106576857D01*
X26844761Y-106719714D01*
X26797142Y-106814952D01*
X26749523Y-106862571D01*
X26654285Y-106910190D01*
X26273333Y-106910190D01*
X27844761Y-107291142D02*
X27797142Y-107338761D01*
X27654285Y-107386380D01*
X27559047Y-107386380D01*
X27416190Y-107338761D01*
X27320952Y-107243523D01*
X27273333Y-107148285D01*
X27225714Y-106957809D01*
X27225714Y-106814952D01*
X27273333Y-106624476D01*
X27320952Y-106529238D01*
X27416190Y-106434000D01*
X27559047Y-106386380D01*
X27654285Y-106386380D01*
X27797142Y-106434000D01*
X27844761Y-106481619D01*
X28749523Y-107386380D02*
X28273333Y-107386380D01*
X28273333Y-106386380D01*
X29082857Y-107386380D02*
X29082857Y-106386380D01*
X29654285Y-107386380D02*
X29225714Y-106814952D01*
X29654285Y-106386380D02*
X29082857Y-106957809D01*
X26122571Y-103846380D02*
X26694000Y-103846380D01*
X26408285Y-104846380D02*
X26408285Y-103846380D01*
X27408285Y-104798761D02*
X27313047Y-104846380D01*
X27122571Y-104846380D01*
X27027333Y-104798761D01*
X26979714Y-104703523D01*
X26979714Y-104322571D01*
X27027333Y-104227333D01*
X27122571Y-104179714D01*
X27313047Y-104179714D01*
X27408285Y-104227333D01*
X27455904Y-104322571D01*
X27455904Y-104417809D01*
X26979714Y-104513047D01*
X27884476Y-104846380D02*
X27884476Y-104179714D01*
X27884476Y-104274952D02*
X27932095Y-104227333D01*
X28027333Y-104179714D01*
X28170190Y-104179714D01*
X28265428Y-104227333D01*
X28313047Y-104322571D01*
X28313047Y-104846380D01*
X28313047Y-104322571D02*
X28360666Y-104227333D01*
X28455904Y-104179714D01*
X28598761Y-104179714D01*
X28694000Y-104227333D01*
X28741619Y-104322571D01*
X28741619Y-104846380D01*
X29217809Y-104179714D02*
X29217809Y-105179714D01*
X29217809Y-104227333D02*
X29313047Y-104179714D01*
X29503523Y-104179714D01*
X29598761Y-104227333D01*
X29646380Y-104274952D01*
X29694000Y-104370190D01*
X29694000Y-104655904D01*
X29646380Y-104751142D01*
X29598761Y-104798761D01*
X29503523Y-104846380D01*
X29313047Y-104846380D01*
X29217809Y-104798761D01*
X30122571Y-104751142D02*
X30170190Y-104798761D01*
X30122571Y-104846380D01*
X30074952Y-104798761D01*
X30122571Y-104751142D01*
X30122571Y-104846380D01*
X26241714Y-101782571D02*
X26575047Y-101782571D01*
X26717904Y-102306380D02*
X26241714Y-102306380D01*
X26241714Y-101306380D01*
X26717904Y-101306380D01*
X27146476Y-101639714D02*
X27146476Y-102306380D01*
X27146476Y-101734952D02*
X27194095Y-101687333D01*
X27289333Y-101639714D01*
X27432190Y-101639714D01*
X27527428Y-101687333D01*
X27575047Y-101782571D01*
X27575047Y-102306380D01*
X28479809Y-102258761D02*
X28384571Y-102306380D01*
X28194095Y-102306380D01*
X28098857Y-102258761D01*
X28051238Y-102211142D01*
X28003619Y-102115904D01*
X28003619Y-101830190D01*
X28051238Y-101734952D01*
X28098857Y-101687333D01*
X28194095Y-101639714D01*
X28384571Y-101639714D01*
X28479809Y-101687333D01*
X28908380Y-102211142D02*
X28956000Y-102258761D01*
X28908380Y-102306380D01*
X28860761Y-102258761D01*
X28908380Y-102211142D01*
X28908380Y-102306380D01*
X30098857Y-102258761D02*
X30241714Y-102306380D01*
X30479809Y-102306380D01*
X30575047Y-102258761D01*
X30622666Y-102211142D01*
X30670285Y-102115904D01*
X30670285Y-102020666D01*
X30622666Y-101925428D01*
X30575047Y-101877809D01*
X30479809Y-101830190D01*
X30289333Y-101782571D01*
X30194095Y-101734952D01*
X30146476Y-101687333D01*
X30098857Y-101592095D01*
X30098857Y-101496857D01*
X30146476Y-101401619D01*
X30194095Y-101354000D01*
X30289333Y-101306380D01*
X30527428Y-101306380D01*
X30670285Y-101354000D01*
X31003619Y-101639714D02*
X31194095Y-102306380D01*
X31384571Y-101830190D01*
X31575047Y-102306380D01*
X31765523Y-101639714D01*
X26233714Y-99242571D02*
X26567047Y-99242571D01*
X26709904Y-99766380D02*
X26233714Y-99766380D01*
X26233714Y-98766380D01*
X26709904Y-98766380D01*
X27138476Y-99099714D02*
X27138476Y-99766380D01*
X27138476Y-99194952D02*
X27186095Y-99147333D01*
X27281333Y-99099714D01*
X27424190Y-99099714D01*
X27519428Y-99147333D01*
X27567047Y-99242571D01*
X27567047Y-99766380D01*
X28471809Y-99718761D02*
X28376571Y-99766380D01*
X28186095Y-99766380D01*
X28090857Y-99718761D01*
X28043238Y-99671142D01*
X27995619Y-99575904D01*
X27995619Y-99290190D01*
X28043238Y-99194952D01*
X28090857Y-99147333D01*
X28186095Y-99099714D01*
X28376571Y-99099714D01*
X28471809Y-99147333D01*
X28900380Y-99671142D02*
X28948000Y-99718761D01*
X28900380Y-99766380D01*
X28852761Y-99718761D01*
X28900380Y-99671142D01*
X28900380Y-99766380D01*
X30471809Y-99242571D02*
X30614666Y-99290190D01*
X30662285Y-99337809D01*
X30709904Y-99433047D01*
X30709904Y-99575904D01*
X30662285Y-99671142D01*
X30614666Y-99718761D01*
X30519428Y-99766380D01*
X30138476Y-99766380D01*
X30138476Y-98766380D01*
X30471809Y-98766380D01*
X30567047Y-98814000D01*
X30614666Y-98861619D01*
X30662285Y-98956857D01*
X30662285Y-99052095D01*
X30614666Y-99147333D01*
X30567047Y-99194952D01*
X30471809Y-99242571D01*
X30138476Y-99242571D01*
X26710000Y-97226380D02*
X26376666Y-96750190D01*
X26138571Y-97226380D02*
X26138571Y-96226380D01*
X26519523Y-96226380D01*
X26614761Y-96274000D01*
X26662380Y-96321619D01*
X26710000Y-96416857D01*
X26710000Y-96559714D01*
X26662380Y-96654952D01*
X26614761Y-96702571D01*
X26519523Y-96750190D01*
X26138571Y-96750190D01*
X27138571Y-97226380D02*
X27138571Y-96559714D01*
X27138571Y-96226380D02*
X27090952Y-96274000D01*
X27138571Y-96321619D01*
X27186190Y-96274000D01*
X27138571Y-96226380D01*
X27138571Y-96321619D01*
X28043333Y-96559714D02*
X28043333Y-97369238D01*
X27995714Y-97464476D01*
X27948095Y-97512095D01*
X27852857Y-97559714D01*
X27710000Y-97559714D01*
X27614761Y-97512095D01*
X28043333Y-97178761D02*
X27948095Y-97226380D01*
X27757619Y-97226380D01*
X27662380Y-97178761D01*
X27614761Y-97131142D01*
X27567142Y-97035904D01*
X27567142Y-96750190D01*
X27614761Y-96654952D01*
X27662380Y-96607333D01*
X27757619Y-96559714D01*
X27948095Y-96559714D01*
X28043333Y-96607333D01*
X28519523Y-97226380D02*
X28519523Y-96226380D01*
X28948095Y-97226380D02*
X28948095Y-96702571D01*
X28900476Y-96607333D01*
X28805238Y-96559714D01*
X28662380Y-96559714D01*
X28567142Y-96607333D01*
X28519523Y-96654952D01*
X29281428Y-96559714D02*
X29662380Y-96559714D01*
X29424285Y-96226380D02*
X29424285Y-97083523D01*
X29471904Y-97178761D01*
X29567142Y-97226380D01*
X29662380Y-97226380D01*
X30710000Y-97178761D02*
X30852857Y-97226380D01*
X31090952Y-97226380D01*
X31186190Y-97178761D01*
X31233809Y-97131142D01*
X31281428Y-97035904D01*
X31281428Y-96940666D01*
X31233809Y-96845428D01*
X31186190Y-96797809D01*
X31090952Y-96750190D01*
X30900476Y-96702571D01*
X30805238Y-96654952D01*
X30757619Y-96607333D01*
X30710000Y-96512095D01*
X30710000Y-96416857D01*
X30757619Y-96321619D01*
X30805238Y-96274000D01*
X30900476Y-96226380D01*
X31138571Y-96226380D01*
X31281428Y-96274000D01*
X31614761Y-96559714D02*
X31805238Y-97226380D01*
X31995714Y-96750190D01*
X32186190Y-97226380D01*
X32376666Y-96559714D01*
X26630571Y-94686380D02*
X26154380Y-94686380D01*
X26154380Y-93686380D01*
X27344857Y-94638761D02*
X27249619Y-94686380D01*
X27059142Y-94686380D01*
X26963904Y-94638761D01*
X26916285Y-94543523D01*
X26916285Y-94162571D01*
X26963904Y-94067333D01*
X27059142Y-94019714D01*
X27249619Y-94019714D01*
X27344857Y-94067333D01*
X27392476Y-94162571D01*
X27392476Y-94257809D01*
X26916285Y-94353047D01*
X27678190Y-94019714D02*
X28059142Y-94019714D01*
X27821047Y-94686380D02*
X27821047Y-93829238D01*
X27868666Y-93734000D01*
X27963904Y-93686380D01*
X28059142Y-93686380D01*
X28249619Y-94019714D02*
X28630571Y-94019714D01*
X28392476Y-93686380D02*
X28392476Y-94543523D01*
X28440095Y-94638761D01*
X28535333Y-94686380D01*
X28630571Y-94686380D01*
X29678190Y-94638761D02*
X29821047Y-94686380D01*
X30059142Y-94686380D01*
X30154380Y-94638761D01*
X30202000Y-94591142D01*
X30249619Y-94495904D01*
X30249619Y-94400666D01*
X30202000Y-94305428D01*
X30154380Y-94257809D01*
X30059142Y-94210190D01*
X29868666Y-94162571D01*
X29773428Y-94114952D01*
X29725809Y-94067333D01*
X29678190Y-93972095D01*
X29678190Y-93876857D01*
X29725809Y-93781619D01*
X29773428Y-93734000D01*
X29868666Y-93686380D01*
X30106761Y-93686380D01*
X30249619Y-93734000D01*
X30582952Y-94019714D02*
X30773428Y-94686380D01*
X30963904Y-94210190D01*
X31154380Y-94686380D01*
X31344857Y-94019714D01*
X26138571Y-92146380D02*
X26138571Y-91146380D01*
X26376666Y-91146380D01*
X26519523Y-91194000D01*
X26614761Y-91289238D01*
X26662380Y-91384476D01*
X26710000Y-91574952D01*
X26710000Y-91717809D01*
X26662380Y-91908285D01*
X26614761Y-92003523D01*
X26519523Y-92098761D01*
X26376666Y-92146380D01*
X26138571Y-92146380D01*
X27281428Y-92146380D02*
X27186190Y-92098761D01*
X27138571Y-92051142D01*
X27090952Y-91955904D01*
X27090952Y-91670190D01*
X27138571Y-91574952D01*
X27186190Y-91527333D01*
X27281428Y-91479714D01*
X27424285Y-91479714D01*
X27519523Y-91527333D01*
X27567142Y-91574952D01*
X27614761Y-91670190D01*
X27614761Y-91955904D01*
X27567142Y-92051142D01*
X27519523Y-92098761D01*
X27424285Y-92146380D01*
X27281428Y-92146380D01*
X27948095Y-91479714D02*
X28138571Y-92146380D01*
X28329047Y-91670190D01*
X28519523Y-92146380D01*
X28710000Y-91479714D01*
X29090952Y-91479714D02*
X29090952Y-92146380D01*
X29090952Y-91574952D02*
X29138571Y-91527333D01*
X29233809Y-91479714D01*
X29376666Y-91479714D01*
X29471904Y-91527333D01*
X29519523Y-91622571D01*
X29519523Y-92146380D01*
X30710000Y-92098761D02*
X30852857Y-92146380D01*
X31090952Y-92146380D01*
X31186190Y-92098761D01*
X31233809Y-92051142D01*
X31281428Y-91955904D01*
X31281428Y-91860666D01*
X31233809Y-91765428D01*
X31186190Y-91717809D01*
X31090952Y-91670190D01*
X30900476Y-91622571D01*
X30805238Y-91574952D01*
X30757619Y-91527333D01*
X30710000Y-91432095D01*
X30710000Y-91336857D01*
X30757619Y-91241619D01*
X30805238Y-91194000D01*
X30900476Y-91146380D01*
X31138571Y-91146380D01*
X31281428Y-91194000D01*
X31614761Y-91479714D02*
X31805238Y-92146380D01*
X31995714Y-91670190D01*
X32186190Y-92146380D01*
X32376666Y-91479714D01*
X26074952Y-88606380D02*
X26074952Y-89415904D01*
X26122571Y-89511142D01*
X26170190Y-89558761D01*
X26265428Y-89606380D01*
X26455904Y-89606380D01*
X26551142Y-89558761D01*
X26598761Y-89511142D01*
X26646380Y-89415904D01*
X26646380Y-88606380D01*
X27122571Y-88939714D02*
X27122571Y-89939714D01*
X27122571Y-88987333D02*
X27217809Y-88939714D01*
X27408285Y-88939714D01*
X27503523Y-88987333D01*
X27551142Y-89034952D01*
X27598761Y-89130190D01*
X27598761Y-89415904D01*
X27551142Y-89511142D01*
X27503523Y-89558761D01*
X27408285Y-89606380D01*
X27217809Y-89606380D01*
X27122571Y-89558761D01*
X28741619Y-89558761D02*
X28884476Y-89606380D01*
X29122571Y-89606380D01*
X29217809Y-89558761D01*
X29265428Y-89511142D01*
X29313047Y-89415904D01*
X29313047Y-89320666D01*
X29265428Y-89225428D01*
X29217809Y-89177809D01*
X29122571Y-89130190D01*
X28932095Y-89082571D01*
X28836857Y-89034952D01*
X28789238Y-88987333D01*
X28741619Y-88892095D01*
X28741619Y-88796857D01*
X28789238Y-88701619D01*
X28836857Y-88654000D01*
X28932095Y-88606380D01*
X29170190Y-88606380D01*
X29313047Y-88654000D01*
X29646380Y-88939714D02*
X29836857Y-89606380D01*
X30027333Y-89130190D01*
X30217809Y-89606380D01*
X30408285Y-88939714D01*
X26051142Y-86542571D02*
X26384476Y-86542571D01*
X26527333Y-87066380D02*
X26051142Y-87066380D01*
X26051142Y-86066380D01*
X26527333Y-86066380D01*
X26955904Y-86399714D02*
X26955904Y-87066380D01*
X26955904Y-86494952D02*
X27003523Y-86447333D01*
X27098761Y-86399714D01*
X27241619Y-86399714D01*
X27336857Y-86447333D01*
X27384476Y-86542571D01*
X27384476Y-87066380D01*
X28289238Y-87018761D02*
X28194000Y-87066380D01*
X28003523Y-87066380D01*
X27908285Y-87018761D01*
X27860666Y-86971142D01*
X27813047Y-86875904D01*
X27813047Y-86590190D01*
X27860666Y-86494952D01*
X27908285Y-86447333D01*
X28003523Y-86399714D01*
X28194000Y-86399714D01*
X28289238Y-86447333D01*
X28717809Y-86971142D02*
X28765428Y-87018761D01*
X28717809Y-87066380D01*
X28670190Y-87018761D01*
X28717809Y-86971142D01*
X28717809Y-87066380D01*
X29908285Y-86780666D02*
X30384476Y-86780666D01*
X29813047Y-87066380D02*
X30146380Y-86066380D01*
X30479714Y-87066380D01*
X22867904Y-65540000D02*
X22772666Y-65492380D01*
X22629809Y-65492380D01*
X22486952Y-65540000D01*
X22391714Y-65635238D01*
X22344095Y-65730476D01*
X22296476Y-65920952D01*
X22296476Y-66063809D01*
X22344095Y-66254285D01*
X22391714Y-66349523D01*
X22486952Y-66444761D01*
X22629809Y-66492380D01*
X22725047Y-66492380D01*
X22867904Y-66444761D01*
X22915523Y-66397142D01*
X22915523Y-66063809D01*
X22725047Y-66063809D01*
X22272666Y-68286380D02*
X22606000Y-69286380D01*
X22939333Y-68286380D01*
X63492095Y-96972380D02*
X63492095Y-95972380D01*
X63730190Y-95972380D01*
X63873047Y-96020000D01*
X63968285Y-96115238D01*
X64015904Y-96210476D01*
X64063523Y-96400952D01*
X64063523Y-96543809D01*
X64015904Y-96734285D01*
X63968285Y-96829523D01*
X63873047Y-96924761D01*
X63730190Y-96972380D01*
X63492095Y-96972380D01*
X64063523Y-99417142D02*
X64015904Y-99464761D01*
X63873047Y-99512380D01*
X63777809Y-99512380D01*
X63634952Y-99464761D01*
X63539714Y-99369523D01*
X63492095Y-99274285D01*
X63444476Y-99083809D01*
X63444476Y-98940952D01*
X63492095Y-98750476D01*
X63539714Y-98655238D01*
X63634952Y-98560000D01*
X63777809Y-98512380D01*
X63873047Y-98512380D01*
X64015904Y-98560000D01*
X64063523Y-98607619D01*
X63420666Y-101052380D02*
X63754000Y-102052380D01*
X64087333Y-101052380D01*
X64015904Y-103640000D02*
X63920666Y-103592380D01*
X63777809Y-103592380D01*
X63634952Y-103640000D01*
X63539714Y-103735238D01*
X63492095Y-103830476D01*
X63444476Y-104020952D01*
X63444476Y-104163809D01*
X63492095Y-104354285D01*
X63539714Y-104449523D01*
X63634952Y-104544761D01*
X63777809Y-104592380D01*
X63873047Y-104592380D01*
X64015904Y-104544761D01*
X64063523Y-104497142D01*
X64063523Y-104163809D01*
X63873047Y-104163809D01*
D10*
G04 #@! TO.C,D1*
X23970000Y-22562000D02*
X16670000Y-22562000D01*
X23970000Y-17062000D02*
X16670000Y-17062000D01*
X16670000Y-17062000D02*
X16670000Y-18212000D01*
G04 #@! TO.C,D8*
X79088000Y-22562000D02*
X71788000Y-22562000D01*
X79088000Y-17062000D02*
X71788000Y-17062000D01*
X71788000Y-17062000D02*
X71788000Y-18212000D01*
G04 #@! TO.C,D7*
X71214000Y-22562000D02*
X63914000Y-22562000D01*
X71214000Y-17062000D02*
X63914000Y-17062000D01*
X63914000Y-17062000D02*
X63914000Y-18212000D01*
G04 #@! TO.C,D6*
X63340000Y-22562000D02*
X56040000Y-22562000D01*
X63340000Y-17062000D02*
X56040000Y-17062000D01*
X56040000Y-17062000D02*
X56040000Y-18212000D01*
G04 #@! TO.C,D5*
X55466000Y-22562000D02*
X48166000Y-22562000D01*
X55466000Y-17062000D02*
X48166000Y-17062000D01*
X48166000Y-17062000D02*
X48166000Y-18212000D01*
G04 #@! TO.C,D4*
X47592000Y-22562000D02*
X40292000Y-22562000D01*
X47592000Y-17062000D02*
X40292000Y-17062000D01*
X40292000Y-17062000D02*
X40292000Y-18212000D01*
G04 #@! TO.C,D3*
X39718000Y-22562000D02*
X32418000Y-22562000D01*
X39718000Y-17062000D02*
X32418000Y-17062000D01*
X32418000Y-17062000D02*
X32418000Y-18212000D01*
G04 #@! TO.C,D2*
X31844000Y-22562000D02*
X24544000Y-22562000D01*
X31844000Y-17062000D02*
X24544000Y-17062000D01*
X24544000Y-17062000D02*
X24544000Y-18212000D01*
G04 #@! TO.C,Ext. Power*
X21396000Y-67310000D02*
X18736000Y-67310000D01*
X21396000Y-67310000D02*
X21396000Y-64710000D01*
X21396000Y-64710000D02*
X18736000Y-64710000D01*
X18736000Y-67310000D02*
X18736000Y-64710000D01*
X18736000Y-69910000D02*
X18736000Y-68580000D01*
X20066000Y-69910000D02*
X18736000Y-69910000D01*
G04 #@! TO.C,J5 - OLED Display*
X106740000Y-28381000D02*
X105410000Y-28381000D01*
X106740000Y-27051000D02*
X106740000Y-28381000D01*
X104140000Y-25721000D02*
X96460000Y-25721000D01*
X96460000Y-25721000D02*
X96460000Y-28381000D01*
X104140000Y-25721000D02*
X104140000Y-28381000D01*
X104140000Y-28381000D02*
X96460000Y-28381000D01*
G04 #@! TO.C,IR Rx*
X83760000Y-18820000D02*
X88850000Y-18820000D01*
X83760000Y-19160000D02*
X83760000Y-18820000D01*
X83760000Y-21830000D02*
X86360000Y-21830000D01*
X83760000Y-21480000D02*
X83760000Y-21830000D01*
X88459917Y-18818264D02*
G75*
G03*
X84260000Y-18820000I-2099917J-101736D01*
G01*
G04 #@! TO.C,U5 - 74HC595*
X61154000Y-55262000D02*
X61154000Y-56912000D01*
X81594000Y-55262000D02*
X61154000Y-55262000D01*
X81594000Y-60562000D02*
X81594000Y-55262000D01*
X61154000Y-60562000D02*
X81594000Y-60562000D01*
X61154000Y-58912000D02*
X61154000Y-60562000D01*
X61154000Y-56912000D02*
G75*
G02*
X61154000Y-58912000I0J-1000000D01*
G01*
G04 #@! TO.C,U4 - 74HC595*
X61154000Y-68724000D02*
X61154000Y-70374000D01*
X81594000Y-68724000D02*
X61154000Y-68724000D01*
X81594000Y-74024000D02*
X81594000Y-68724000D01*
X61154000Y-74024000D02*
X81594000Y-74024000D01*
X61154000Y-72374000D02*
X61154000Y-74024000D01*
X61154000Y-70374000D02*
G75*
G02*
X61154000Y-72374000I0J-1000000D01*
G01*
G04 #@! TO.C,U3 - 74HC595*
X35246000Y-40022000D02*
X35246000Y-41672000D01*
X55686000Y-40022000D02*
X35246000Y-40022000D01*
X55686000Y-45322000D02*
X55686000Y-40022000D01*
X35246000Y-45322000D02*
X55686000Y-45322000D01*
X35246000Y-43672000D02*
X35246000Y-45322000D01*
X35246000Y-41672000D02*
G75*
G02*
X35246000Y-43672000I0J-1000000D01*
G01*
G04 #@! TO.C,Temperature*
X102340000Y-21916000D02*
X105940000Y-21916000D01*
X105978478Y-21904478D02*
G75*
G03*
X104140000Y-17466000I-1838478J1838478D01*
G01*
X102301522Y-21904478D02*
G75*
G02*
X104140000Y-17466000I1838478J1838478D01*
G01*
G04 #@! TO.C,U1 - 74HC14*
X65726000Y-83710000D02*
X65726000Y-85360000D01*
X83626000Y-83710000D02*
X65726000Y-83710000D01*
X83626000Y-89010000D02*
X83626000Y-83710000D01*
X65726000Y-89010000D02*
X83626000Y-89010000D01*
X65726000Y-87360000D02*
X65726000Y-89010000D01*
X65726000Y-85360000D02*
G75*
G02*
X65726000Y-87360000I0J-1000000D01*
G01*
G04 #@! TO.C,SW4*
X97390000Y-111554000D02*
X97390000Y-113054000D01*
X98640000Y-115554000D02*
X103140000Y-115554000D01*
X104390000Y-113054000D02*
X104390000Y-111554000D01*
X103140000Y-109054000D02*
X98640000Y-109054000D01*
G04 #@! TO.C,SW3*
X97390000Y-95298000D02*
X97390000Y-96798000D01*
X98640000Y-99298000D02*
X103140000Y-99298000D01*
X104390000Y-96798000D02*
X104390000Y-95298000D01*
X103140000Y-92798000D02*
X98640000Y-92798000D01*
G04 #@! TO.C,SW2*
X107550000Y-103426000D02*
X107550000Y-104926000D01*
X108800000Y-107426000D02*
X113300000Y-107426000D01*
X114550000Y-104926000D02*
X114550000Y-103426000D01*
X113300000Y-100926000D02*
X108800000Y-100926000D01*
G04 #@! TO.C,SW1*
X87230000Y-103426000D02*
X87230000Y-104926000D01*
X88480000Y-107426000D02*
X92980000Y-107426000D01*
X94230000Y-104926000D02*
X94230000Y-103426000D01*
X92980000Y-100926000D02*
X88480000Y-100926000D01*
G04 #@! TO.C,RV3*
X63702000Y-115202000D02*
X62282000Y-115202000D01*
X62282000Y-115002000D02*
X58702000Y-115002000D01*
X58702000Y-115002000D02*
X58702000Y-115202000D01*
X58702000Y-115202000D02*
X57282000Y-115202000D01*
X57282000Y-115202000D02*
X57282000Y-115002000D01*
X61002000Y-107982000D02*
X62492000Y-107982000D01*
X63802000Y-109292000D02*
X63802000Y-112832000D01*
X57182000Y-113272000D02*
X57182000Y-109292000D01*
X58492000Y-107982000D02*
X59982000Y-107982000D01*
X62282000Y-115002000D02*
X62282000Y-115202000D01*
X63702000Y-115202000D02*
X63702000Y-115002000D01*
X63702000Y-115002000D02*
X63802000Y-115002000D01*
X63802000Y-115002000D02*
X63802000Y-114752000D01*
X57282000Y-115002000D02*
X57182000Y-115002000D01*
X57182000Y-115002000D02*
X57182000Y-114312000D01*
X62492000Y-107982000D02*
G75*
G02*
X63802000Y-109292000I0J-1310000D01*
G01*
X57182000Y-109292000D02*
G75*
G02*
X58492000Y-107982000I1310000J0D01*
G01*
G04 #@! TO.C,RV2*
X56336000Y-115202000D02*
X54916000Y-115202000D01*
X54916000Y-115002000D02*
X51336000Y-115002000D01*
X51336000Y-115002000D02*
X51336000Y-115202000D01*
X51336000Y-115202000D02*
X49916000Y-115202000D01*
X49916000Y-115202000D02*
X49916000Y-115002000D01*
X53636000Y-107982000D02*
X55126000Y-107982000D01*
X56436000Y-109292000D02*
X56436000Y-112832000D01*
X49816000Y-113272000D02*
X49816000Y-109292000D01*
X51126000Y-107982000D02*
X52616000Y-107982000D01*
X54916000Y-115002000D02*
X54916000Y-115202000D01*
X56336000Y-115202000D02*
X56336000Y-115002000D01*
X56336000Y-115002000D02*
X56436000Y-115002000D01*
X56436000Y-115002000D02*
X56436000Y-114752000D01*
X49916000Y-115002000D02*
X49816000Y-115002000D01*
X49816000Y-115002000D02*
X49816000Y-114312000D01*
X55126000Y-107982000D02*
G75*
G02*
X56436000Y-109292000I0J-1310000D01*
G01*
X49816000Y-109292000D02*
G75*
G02*
X51126000Y-107982000I1310000J0D01*
G01*
G04 #@! TO.C,RV1*
X48970000Y-115202000D02*
X47550000Y-115202000D01*
X47550000Y-115002000D02*
X43970000Y-115002000D01*
X43970000Y-115002000D02*
X43970000Y-115202000D01*
X43970000Y-115202000D02*
X42550000Y-115202000D01*
X42550000Y-115202000D02*
X42550000Y-115002000D01*
X46270000Y-107982000D02*
X47760000Y-107982000D01*
X49070000Y-109292000D02*
X49070000Y-112832000D01*
X42450000Y-113272000D02*
X42450000Y-109292000D01*
X43760000Y-107982000D02*
X45250000Y-107982000D01*
X47550000Y-115002000D02*
X47550000Y-115202000D01*
X48970000Y-115202000D02*
X48970000Y-115002000D01*
X48970000Y-115002000D02*
X49070000Y-115002000D01*
X49070000Y-115002000D02*
X49070000Y-114752000D01*
X42550000Y-115002000D02*
X42450000Y-115002000D01*
X42450000Y-115002000D02*
X42450000Y-114312000D01*
X47760000Y-107982000D02*
G75*
G02*
X49070000Y-109292000I0J-1310000D01*
G01*
X42450000Y-109292000D02*
G75*
G02*
X43760000Y-107982000I1310000J0D01*
G01*
G04 #@! TO.C,Rot. Enc.*
X78064000Y-109180000D02*
G75*
G03*
X78064000Y-109180000I-3000000J0D01*
G01*
X77064000Y-103280000D02*
X81164000Y-103280000D01*
X81164000Y-115080000D02*
X77064000Y-115080000D01*
X73064000Y-115080000D02*
X68964000Y-115080000D01*
X73064000Y-103380000D02*
X68964000Y-103380000D01*
X68964000Y-103380000D02*
X68964000Y-115080000D01*
X67564000Y-105380000D02*
X67264000Y-105080000D01*
X67264000Y-105080000D02*
X67864000Y-105080000D01*
X67864000Y-105080000D02*
X67564000Y-105380000D01*
X81164000Y-103280000D02*
X81164000Y-105880000D01*
X81164000Y-107880000D02*
X81164000Y-110480000D01*
X81164000Y-112480000D02*
X81164000Y-115080000D01*
X75064000Y-108680000D02*
X75064000Y-109680000D01*
X74564000Y-109180000D02*
X75564000Y-109180000D01*
G04 #@! TO.C,R42*
X51148064Y-88244000D02*
X49943936Y-88244000D01*
X51148064Y-90064000D02*
X49943936Y-90064000D01*
G04 #@! TO.C,R41*
X110850000Y-80169936D02*
X110850000Y-81374064D01*
X112670000Y-80169936D02*
X112670000Y-81374064D01*
G04 #@! TO.C,R40*
X105770000Y-80169936D02*
X105770000Y-81374064D01*
X107590000Y-80169936D02*
X107590000Y-81374064D01*
G04 #@! TO.C,R39*
X107590000Y-55720064D02*
X107590000Y-54515936D01*
X105770000Y-55720064D02*
X105770000Y-54515936D01*
G04 #@! TO.C,R38*
X100690000Y-80169936D02*
X100690000Y-81374064D01*
X102510000Y-80169936D02*
X102510000Y-81374064D01*
G04 #@! TO.C,R37*
X103230000Y-80169936D02*
X103230000Y-81374064D01*
X105050000Y-80169936D02*
X105050000Y-81374064D01*
G04 #@! TO.C,R36*
X108310000Y-80169936D02*
X108310000Y-81374064D01*
X110130000Y-80169936D02*
X110130000Y-81374064D01*
G04 #@! TO.C,R35*
X70972000Y-33433936D02*
X70972000Y-34638064D01*
X72792000Y-33433936D02*
X72792000Y-34638064D01*
G04 #@! TO.C,R34*
X112670000Y-55720064D02*
X112670000Y-54515936D01*
X110850000Y-55720064D02*
X110850000Y-54515936D01*
G04 #@! TO.C,R33*
X110130000Y-55720064D02*
X110130000Y-54515936D01*
X108310000Y-55720064D02*
X108310000Y-54515936D01*
G04 #@! TO.C,R32*
X51148064Y-90784000D02*
X49943936Y-90784000D01*
X51148064Y-92604000D02*
X49943936Y-92604000D01*
G04 #@! TO.C,Photocell*
X94438000Y-17662000D02*
X97088000Y-17662000D01*
X94438000Y-21962000D02*
X97088000Y-21962000D01*
X97116027Y-21944144D02*
G75*
G03*
X97088000Y-17662000I-1378027J2132144D01*
G01*
X94412524Y-17677612D02*
G75*
G03*
X94438000Y-21962000I1325476J-2134388D01*
G01*
G04 #@! TO.C,R30*
X63606000Y-33433936D02*
X63606000Y-34638064D01*
X65426000Y-33433936D02*
X65426000Y-34638064D01*
G04 #@! TO.C,R29*
X98150000Y-80169936D02*
X98150000Y-81374064D01*
X99970000Y-80169936D02*
X99970000Y-81374064D01*
G04 #@! TO.C,R28*
X56240000Y-33433936D02*
X56240000Y-34638064D01*
X58060000Y-33433936D02*
X58060000Y-34638064D01*
G04 #@! TO.C,R27*
X94890000Y-55720064D02*
X94890000Y-54515936D01*
X93070000Y-55720064D02*
X93070000Y-54515936D01*
G04 #@! TO.C,R26*
X92350000Y-55720064D02*
X92350000Y-54515936D01*
X90530000Y-55720064D02*
X90530000Y-54515936D01*
G04 #@! TO.C,R25*
X48874000Y-33433936D02*
X48874000Y-34638064D01*
X50694000Y-33433936D02*
X50694000Y-34638064D01*
G04 #@! TO.C,R24*
X90530000Y-80169936D02*
X90530000Y-81374064D01*
X92350000Y-80169936D02*
X92350000Y-81374064D01*
G04 #@! TO.C,R23*
X93070000Y-80169936D02*
X93070000Y-81374064D01*
X94890000Y-80169936D02*
X94890000Y-81374064D01*
G04 #@! TO.C,R22*
X41508000Y-33433936D02*
X41508000Y-34638064D01*
X43328000Y-33433936D02*
X43328000Y-34638064D01*
G04 #@! TO.C,R21*
X95610000Y-80169936D02*
X95610000Y-81374064D01*
X97430000Y-80169936D02*
X97430000Y-81374064D01*
G04 #@! TO.C,R20*
X99970000Y-55720064D02*
X99970000Y-54515936D01*
X98150000Y-55720064D02*
X98150000Y-54515936D01*
G04 #@! TO.C,R19*
X34142000Y-33433936D02*
X34142000Y-34638064D01*
X35962000Y-33433936D02*
X35962000Y-34638064D01*
G04 #@! TO.C,R18*
X97430000Y-55720064D02*
X97430000Y-54515936D01*
X95610000Y-55720064D02*
X95610000Y-54515936D01*
G04 #@! TO.C,R17*
X26776000Y-33433936D02*
X26776000Y-34638064D01*
X28596000Y-33433936D02*
X28596000Y-34638064D01*
G04 #@! TO.C,R16*
X19410000Y-33433936D02*
X19410000Y-34638064D01*
X21230000Y-33433936D02*
X21230000Y-34638064D01*
G04 #@! TO.C,R15*
X99928000Y-104807936D02*
X99928000Y-106012064D01*
X101748000Y-104807936D02*
X101748000Y-106012064D01*
G04 #@! TO.C,R14*
X99928000Y-88421936D02*
X99928000Y-89626064D01*
X101748000Y-88421936D02*
X101748000Y-89626064D01*
G04 #@! TO.C,R13*
X103484000Y-104807936D02*
X103484000Y-106012064D01*
X105304000Y-104807936D02*
X105304000Y-106012064D01*
G04 #@! TO.C,R12*
X103484000Y-88551936D02*
X103484000Y-89756064D01*
X105304000Y-88551936D02*
X105304000Y-89756064D01*
G04 #@! TO.C,R11*
X66950000Y-99154064D02*
X66950000Y-97949936D01*
X65130000Y-99154064D02*
X65130000Y-97949936D01*
G04 #@! TO.C,R10*
X67924000Y-97949936D02*
X67924000Y-99154064D01*
X69744000Y-97949936D02*
X69744000Y-99154064D01*
G04 #@! TO.C,R9*
X78338000Y-97949936D02*
X78338000Y-99154064D01*
X80158000Y-97949936D02*
X80158000Y-99154064D01*
G04 #@! TO.C,R8*
X88244000Y-112303936D02*
X88244000Y-113508064D01*
X90064000Y-112303936D02*
X90064000Y-113508064D01*
G04 #@! TO.C,R7*
X18394000Y-77629936D02*
X18394000Y-78834064D01*
X20214000Y-77629936D02*
X20214000Y-78834064D01*
G04 #@! TO.C,R6*
X110088000Y-96679936D02*
X110088000Y-97884064D01*
X111908000Y-96679936D02*
X111908000Y-97884064D01*
G04 #@! TO.C,R5*
X89768000Y-96679936D02*
X89768000Y-97884064D01*
X91588000Y-96679936D02*
X91588000Y-97884064D01*
G04 #@! TO.C,R4*
X75544000Y-97949936D02*
X75544000Y-99154064D01*
X77364000Y-97949936D02*
X77364000Y-99154064D01*
G04 #@! TO.C,R3*
X93112000Y-113378064D02*
X93112000Y-112173936D01*
X91292000Y-113378064D02*
X91292000Y-112173936D01*
G04 #@! TO.C,R2*
X113644000Y-96679936D02*
X113644000Y-97884064D01*
X115464000Y-96679936D02*
X115464000Y-97884064D01*
G04 #@! TO.C,R1*
X93324000Y-96679936D02*
X93324000Y-97884064D01*
X95144000Y-96679936D02*
X95144000Y-97884064D01*
G04 #@! TO.C,Analog*
X47304000Y-105724000D02*
X45974000Y-105724000D01*
X47304000Y-104394000D02*
X47304000Y-105724000D01*
X44704000Y-105724000D02*
X42104000Y-105724000D01*
X44704000Y-103124000D02*
X44704000Y-105724000D01*
X47304000Y-103124000D02*
X44704000Y-103124000D01*
X42104000Y-105724000D02*
X42104000Y-85284000D01*
X47304000Y-103124000D02*
X47304000Y-85284000D01*
X47304000Y-85284000D02*
X42104000Y-85284000D01*
G04 #@! TO.C,Digital*
X16958000Y-85284000D02*
X18288000Y-85284000D01*
X16958000Y-86614000D02*
X16958000Y-85284000D01*
X19558000Y-85284000D02*
X22158000Y-85284000D01*
X19558000Y-87884000D02*
X19558000Y-85284000D01*
X16958000Y-87884000D02*
X19558000Y-87884000D01*
X22158000Y-85284000D02*
X22158000Y-115884000D01*
X16958000Y-87884000D02*
X16958000Y-115884000D01*
X16958000Y-115884000D02*
X22158000Y-115884000D01*
G04 #@! TO.C,J4*
X61468000Y-95190000D02*
X62798000Y-95190000D01*
X62798000Y-95190000D02*
X62798000Y-96520000D01*
X62798000Y-97790000D02*
X62798000Y-105470000D01*
X60138000Y-105470000D02*
X62798000Y-105470000D01*
X60138000Y-97790000D02*
X60138000Y-105470000D01*
X60138000Y-97790000D02*
X62798000Y-97790000D01*
G04 #@! TO.C,J3*
X57912000Y-95190000D02*
X59242000Y-95190000D01*
X59242000Y-95190000D02*
X59242000Y-96520000D01*
X59242000Y-97790000D02*
X59242000Y-105470000D01*
X56582000Y-105470000D02*
X59242000Y-105470000D01*
X56582000Y-97790000D02*
X56582000Y-105470000D01*
X56582000Y-97790000D02*
X59242000Y-97790000D01*
G04 #@! TO.C,J2*
X54356000Y-95190000D02*
X55686000Y-95190000D01*
X55686000Y-95190000D02*
X55686000Y-96520000D01*
X55686000Y-97790000D02*
X55686000Y-105470000D01*
X53026000Y-105470000D02*
X55686000Y-105470000D01*
X53026000Y-97790000D02*
X53026000Y-105470000D01*
X53026000Y-97790000D02*
X55686000Y-97790000D01*
G04 #@! TO.C,J1*
X50800000Y-95190000D02*
X52130000Y-95190000D01*
X52130000Y-95190000D02*
X52130000Y-96520000D01*
X52130000Y-97790000D02*
X52130000Y-105470000D01*
X49470000Y-105470000D02*
X52130000Y-105470000D01*
X49470000Y-97790000D02*
X49470000Y-105470000D01*
X49470000Y-97790000D02*
X52130000Y-97790000D01*
G04 #@! TO.C,2 x 7 Segment *
X114230000Y-77463000D02*
X88980000Y-77463000D01*
X114230000Y-58173000D02*
X114230000Y-77463000D01*
X88980000Y-58173000D02*
X114230000Y-58173000D01*
X88980000Y-77463000D02*
X88980000Y-58173000D01*
X88730000Y-77718000D02*
X91440000Y-77718000D01*
X88730000Y-77718000D02*
X88730000Y-75438000D01*
G04 #@! TO.C,IR LED*
X109708000Y-19029000D02*
X109708000Y-22119000D01*
X114768000Y-20574000D02*
G75*
G03*
X114768000Y-20574000I-2500000J0D01*
G01*
X115258000Y-20573538D02*
G75*
G02*
X109708000Y-22118830I-2990000J-462D01*
G01*
X115258000Y-20574462D02*
G75*
G03*
X109708000Y-19029170I-2990000J462D01*
G01*
G04 #@! TO.C,D16*
X73427000Y-25126000D02*
X70337000Y-25126000D01*
X74382000Y-27686000D02*
G75*
G03*
X74382000Y-27686000I-2500000J0D01*
G01*
X71882462Y-30676000D02*
G75*
G02*
X70337170Y-25126000I-462J2990000D01*
G01*
X71881538Y-30676000D02*
G75*
G03*
X73426830Y-25126000I462J2990000D01*
G01*
G04 #@! TO.C,D15*
X66061000Y-25126000D02*
X62971000Y-25126000D01*
X67016000Y-27686000D02*
G75*
G03*
X67016000Y-27686000I-2500000J0D01*
G01*
X64516462Y-30676000D02*
G75*
G02*
X62971170Y-25126000I-462J2990000D01*
G01*
X64515538Y-30676000D02*
G75*
G03*
X66060830Y-25126000I462J2990000D01*
G01*
G04 #@! TO.C,D14*
X58695000Y-25126000D02*
X55605000Y-25126000D01*
X59650000Y-27686000D02*
G75*
G03*
X59650000Y-27686000I-2500000J0D01*
G01*
X57150462Y-30676000D02*
G75*
G02*
X55605170Y-25126000I-462J2990000D01*
G01*
X57149538Y-30676000D02*
G75*
G03*
X58694830Y-25126000I462J2990000D01*
G01*
G04 #@! TO.C,D13*
X51329000Y-25126000D02*
X48239000Y-25126000D01*
X52284000Y-27686000D02*
G75*
G03*
X52284000Y-27686000I-2500000J0D01*
G01*
X49784462Y-30676000D02*
G75*
G02*
X48239170Y-25126000I-462J2990000D01*
G01*
X49783538Y-30676000D02*
G75*
G03*
X51328830Y-25126000I462J2990000D01*
G01*
G04 #@! TO.C,D12*
X43963000Y-25126000D02*
X40873000Y-25126000D01*
X44918000Y-27686000D02*
G75*
G03*
X44918000Y-27686000I-2500000J0D01*
G01*
X42418462Y-30676000D02*
G75*
G02*
X40873170Y-25126000I-462J2990000D01*
G01*
X42417538Y-30676000D02*
G75*
G03*
X43962830Y-25126000I462J2990000D01*
G01*
G04 #@! TO.C,D11*
X36597000Y-25126000D02*
X33507000Y-25126000D01*
X37552000Y-27686000D02*
G75*
G03*
X37552000Y-27686000I-2500000J0D01*
G01*
X35052462Y-30676000D02*
G75*
G02*
X33507170Y-25126000I-462J2990000D01*
G01*
X35051538Y-30676000D02*
G75*
G03*
X36596830Y-25126000I462J2990000D01*
G01*
G04 #@! TO.C,D10*
X29231000Y-25126000D02*
X26141000Y-25126000D01*
X30186000Y-27686000D02*
G75*
G03*
X30186000Y-27686000I-2500000J0D01*
G01*
X27686462Y-30676000D02*
G75*
G02*
X26141170Y-25126000I-462J2990000D01*
G01*
X27685538Y-30676000D02*
G75*
G03*
X29230830Y-25126000I462J2990000D01*
G01*
G04 #@! TO.C,D9*
X21865000Y-25126000D02*
X18775000Y-25126000D01*
X22820000Y-27686000D02*
G75*
G03*
X22820000Y-27686000I-2500000J0D01*
G01*
X20320462Y-30676000D02*
G75*
G02*
X18775170Y-25126000I-462J2990000D01*
G01*
X20319538Y-30676000D02*
G75*
G03*
X21864830Y-25126000I462J2990000D01*
G01*
G04 #@! TO.C,C8*
X96372000Y-104807936D02*
X96372000Y-106012064D01*
X98192000Y-104807936D02*
X98192000Y-106012064D01*
G04 #@! TO.C,C7*
X96372000Y-88551936D02*
X96372000Y-89756064D01*
X98192000Y-88551936D02*
X98192000Y-89756064D01*
G04 #@! TO.C,C6*
X80370000Y-26321936D02*
X80370000Y-27526064D01*
X82190000Y-26321936D02*
X82190000Y-27526064D01*
G04 #@! TO.C,C5*
X70718000Y-97949936D02*
X70718000Y-99154064D01*
X72538000Y-97949936D02*
X72538000Y-99154064D01*
G04 #@! TO.C,C4*
X106532000Y-96679936D02*
X106532000Y-97884064D01*
X108352000Y-96679936D02*
X108352000Y-97884064D01*
G04 #@! TO.C,C3*
X86212000Y-96803936D02*
X86212000Y-98008064D01*
X88032000Y-96803936D02*
X88032000Y-98008064D01*
G04 #@! TO.C,C2*
X82952000Y-99154064D02*
X82952000Y-97949936D01*
X81132000Y-99154064D02*
X81132000Y-97949936D01*
G04 #@! TO.C,C1*
X85196000Y-112173936D02*
X85196000Y-113378064D01*
X87016000Y-112173936D02*
X87016000Y-113378064D01*
G04 #@! TO.C,Arduino Nano*
X41024000Y-72514000D02*
X22984000Y-72514000D01*
X41024000Y-115954000D02*
X41024000Y-72514000D01*
X22984000Y-115954000D02*
X41024000Y-115954000D01*
X25654000Y-113284000D02*
X22984000Y-113284000D01*
X25654000Y-77724000D02*
X25654000Y-113284000D01*
X25654000Y-77724000D02*
X22984000Y-77724000D01*
X38354000Y-113284000D02*
X41024000Y-113284000D01*
X38354000Y-75184000D02*
X38354000Y-113284000D01*
X38354000Y-75184000D02*
X41024000Y-75184000D01*
X22984000Y-72514000D02*
X22984000Y-75184000D01*
X22984000Y-77724000D02*
X22984000Y-115954000D01*
X25654000Y-75184000D02*
X22984000Y-75184000D01*
X25654000Y-77724000D02*
X25654000Y-75184000D01*
G04 #@! TO.C,D1*
D11*
X17295904Y-23820380D02*
X17295904Y-22820380D01*
X17534000Y-22820380D01*
X17676857Y-22868000D01*
X17772095Y-22963238D01*
X17819714Y-23058476D01*
X17867333Y-23248952D01*
X17867333Y-23391809D01*
X17819714Y-23582285D01*
X17772095Y-23677523D01*
X17676857Y-23772761D01*
X17534000Y-23820380D01*
X17295904Y-23820380D01*
X18819714Y-23820380D02*
X18248285Y-23820380D01*
X18534000Y-23820380D02*
X18534000Y-22820380D01*
X18438761Y-22963238D01*
X18343523Y-23058476D01*
X18248285Y-23106095D01*
G04 #@! TO.C,D8*
X72413904Y-23764380D02*
X72413904Y-22764380D01*
X72652000Y-22764380D01*
X72794857Y-22812000D01*
X72890095Y-22907238D01*
X72937714Y-23002476D01*
X72985333Y-23192952D01*
X72985333Y-23335809D01*
X72937714Y-23526285D01*
X72890095Y-23621523D01*
X72794857Y-23716761D01*
X72652000Y-23764380D01*
X72413904Y-23764380D01*
X73556761Y-23192952D02*
X73461523Y-23145333D01*
X73413904Y-23097714D01*
X73366285Y-23002476D01*
X73366285Y-22954857D01*
X73413904Y-22859619D01*
X73461523Y-22812000D01*
X73556761Y-22764380D01*
X73747238Y-22764380D01*
X73842476Y-22812000D01*
X73890095Y-22859619D01*
X73937714Y-22954857D01*
X73937714Y-23002476D01*
X73890095Y-23097714D01*
X73842476Y-23145333D01*
X73747238Y-23192952D01*
X73556761Y-23192952D01*
X73461523Y-23240571D01*
X73413904Y-23288190D01*
X73366285Y-23383428D01*
X73366285Y-23573904D01*
X73413904Y-23669142D01*
X73461523Y-23716761D01*
X73556761Y-23764380D01*
X73747238Y-23764380D01*
X73842476Y-23716761D01*
X73890095Y-23669142D01*
X73937714Y-23573904D01*
X73937714Y-23383428D01*
X73890095Y-23288190D01*
X73842476Y-23240571D01*
X73747238Y-23192952D01*
G04 #@! TO.C,D7*
X64539904Y-23820380D02*
X64539904Y-22820380D01*
X64778000Y-22820380D01*
X64920857Y-22868000D01*
X65016095Y-22963238D01*
X65063714Y-23058476D01*
X65111333Y-23248952D01*
X65111333Y-23391809D01*
X65063714Y-23582285D01*
X65016095Y-23677523D01*
X64920857Y-23772761D01*
X64778000Y-23820380D01*
X64539904Y-23820380D01*
X65444666Y-22820380D02*
X66111333Y-22820380D01*
X65682761Y-23820380D01*
G04 #@! TO.C,D6*
X56665904Y-23764380D02*
X56665904Y-22764380D01*
X56904000Y-22764380D01*
X57046857Y-22812000D01*
X57142095Y-22907238D01*
X57189714Y-23002476D01*
X57237333Y-23192952D01*
X57237333Y-23335809D01*
X57189714Y-23526285D01*
X57142095Y-23621523D01*
X57046857Y-23716761D01*
X56904000Y-23764380D01*
X56665904Y-23764380D01*
X58094476Y-22764380D02*
X57904000Y-22764380D01*
X57808761Y-22812000D01*
X57761142Y-22859619D01*
X57665904Y-23002476D01*
X57618285Y-23192952D01*
X57618285Y-23573904D01*
X57665904Y-23669142D01*
X57713523Y-23716761D01*
X57808761Y-23764380D01*
X57999238Y-23764380D01*
X58094476Y-23716761D01*
X58142095Y-23669142D01*
X58189714Y-23573904D01*
X58189714Y-23335809D01*
X58142095Y-23240571D01*
X58094476Y-23192952D01*
X57999238Y-23145333D01*
X57808761Y-23145333D01*
X57713523Y-23192952D01*
X57665904Y-23240571D01*
X57618285Y-23335809D01*
G04 #@! TO.C,D5*
X48791904Y-23764380D02*
X48791904Y-22764380D01*
X49030000Y-22764380D01*
X49172857Y-22812000D01*
X49268095Y-22907238D01*
X49315714Y-23002476D01*
X49363333Y-23192952D01*
X49363333Y-23335809D01*
X49315714Y-23526285D01*
X49268095Y-23621523D01*
X49172857Y-23716761D01*
X49030000Y-23764380D01*
X48791904Y-23764380D01*
X50268095Y-22764380D02*
X49791904Y-22764380D01*
X49744285Y-23240571D01*
X49791904Y-23192952D01*
X49887142Y-23145333D01*
X50125238Y-23145333D01*
X50220476Y-23192952D01*
X50268095Y-23240571D01*
X50315714Y-23335809D01*
X50315714Y-23573904D01*
X50268095Y-23669142D01*
X50220476Y-23716761D01*
X50125238Y-23764380D01*
X49887142Y-23764380D01*
X49791904Y-23716761D01*
X49744285Y-23669142D01*
G04 #@! TO.C,D4*
X40917904Y-23764380D02*
X40917904Y-22764380D01*
X41156000Y-22764380D01*
X41298857Y-22812000D01*
X41394095Y-22907238D01*
X41441714Y-23002476D01*
X41489333Y-23192952D01*
X41489333Y-23335809D01*
X41441714Y-23526285D01*
X41394095Y-23621523D01*
X41298857Y-23716761D01*
X41156000Y-23764380D01*
X40917904Y-23764380D01*
X42346476Y-23097714D02*
X42346476Y-23764380D01*
X42108380Y-22716761D02*
X41870285Y-23431047D01*
X42489333Y-23431047D01*
G04 #@! TO.C,D3*
X33043904Y-23820380D02*
X33043904Y-22820380D01*
X33282000Y-22820380D01*
X33424857Y-22868000D01*
X33520095Y-22963238D01*
X33567714Y-23058476D01*
X33615333Y-23248952D01*
X33615333Y-23391809D01*
X33567714Y-23582285D01*
X33520095Y-23677523D01*
X33424857Y-23772761D01*
X33282000Y-23820380D01*
X33043904Y-23820380D01*
X33948666Y-22820380D02*
X34567714Y-22820380D01*
X34234380Y-23201333D01*
X34377238Y-23201333D01*
X34472476Y-23248952D01*
X34520095Y-23296571D01*
X34567714Y-23391809D01*
X34567714Y-23629904D01*
X34520095Y-23725142D01*
X34472476Y-23772761D01*
X34377238Y-23820380D01*
X34091523Y-23820380D01*
X33996285Y-23772761D01*
X33948666Y-23725142D01*
G04 #@! TO.C,D2*
X25169904Y-23764380D02*
X25169904Y-22764380D01*
X25408000Y-22764380D01*
X25550857Y-22812000D01*
X25646095Y-22907238D01*
X25693714Y-23002476D01*
X25741333Y-23192952D01*
X25741333Y-23335809D01*
X25693714Y-23526285D01*
X25646095Y-23621523D01*
X25550857Y-23716761D01*
X25408000Y-23764380D01*
X25169904Y-23764380D01*
X26122285Y-22859619D02*
X26169904Y-22812000D01*
X26265142Y-22764380D01*
X26503238Y-22764380D01*
X26598476Y-22812000D01*
X26646095Y-22859619D01*
X26693714Y-22954857D01*
X26693714Y-23050095D01*
X26646095Y-23192952D01*
X26074666Y-23764380D01*
X26693714Y-23764380D01*
G04 #@! TO.C,Ext. Power*
X18613904Y-63174571D02*
X18947238Y-63174571D01*
X19090095Y-63698380D02*
X18613904Y-63698380D01*
X18613904Y-62698380D01*
X19090095Y-62698380D01*
X19423428Y-63698380D02*
X19947238Y-63031714D01*
X19423428Y-63031714D02*
X19947238Y-63698380D01*
X20185333Y-63031714D02*
X20566285Y-63031714D01*
X20328190Y-62698380D02*
X20328190Y-63555523D01*
X20375809Y-63650761D01*
X20471047Y-63698380D01*
X20566285Y-63698380D01*
X20899619Y-63603142D02*
X20947238Y-63650761D01*
X20899619Y-63698380D01*
X20852000Y-63650761D01*
X20899619Y-63603142D01*
X20899619Y-63698380D01*
X22137714Y-63698380D02*
X22137714Y-62698380D01*
X22518666Y-62698380D01*
X22613904Y-62746000D01*
X22661523Y-62793619D01*
X22709142Y-62888857D01*
X22709142Y-63031714D01*
X22661523Y-63126952D01*
X22613904Y-63174571D01*
X22518666Y-63222190D01*
X22137714Y-63222190D01*
X23280571Y-63698380D02*
X23185333Y-63650761D01*
X23137714Y-63603142D01*
X23090095Y-63507904D01*
X23090095Y-63222190D01*
X23137714Y-63126952D01*
X23185333Y-63079333D01*
X23280571Y-63031714D01*
X23423428Y-63031714D01*
X23518666Y-63079333D01*
X23566285Y-63126952D01*
X23613904Y-63222190D01*
X23613904Y-63507904D01*
X23566285Y-63603142D01*
X23518666Y-63650761D01*
X23423428Y-63698380D01*
X23280571Y-63698380D01*
X23947238Y-63031714D02*
X24137714Y-63698380D01*
X24328190Y-63222190D01*
X24518666Y-63698380D01*
X24709142Y-63031714D01*
X25471047Y-63650761D02*
X25375809Y-63698380D01*
X25185333Y-63698380D01*
X25090095Y-63650761D01*
X25042476Y-63555523D01*
X25042476Y-63174571D01*
X25090095Y-63079333D01*
X25185333Y-63031714D01*
X25375809Y-63031714D01*
X25471047Y-63079333D01*
X25518666Y-63174571D01*
X25518666Y-63269809D01*
X25042476Y-63365047D01*
X25947238Y-63698380D02*
X25947238Y-63031714D01*
X25947238Y-63222190D02*
X25994857Y-63126952D01*
X26042476Y-63079333D01*
X26137714Y-63031714D01*
X26232952Y-63031714D01*
G04 #@! TO.C,J5 - OLED Display*
X94933333Y-29424380D02*
X94933333Y-30138666D01*
X94885714Y-30281523D01*
X94790476Y-30376761D01*
X94647619Y-30424380D01*
X94552380Y-30424380D01*
X95885714Y-29424380D02*
X95409523Y-29424380D01*
X95361904Y-29900571D01*
X95409523Y-29852952D01*
X95504761Y-29805333D01*
X95742857Y-29805333D01*
X95838095Y-29852952D01*
X95885714Y-29900571D01*
X95933333Y-29995809D01*
X95933333Y-30233904D01*
X95885714Y-30329142D01*
X95838095Y-30376761D01*
X95742857Y-30424380D01*
X95504761Y-30424380D01*
X95409523Y-30376761D01*
X95361904Y-30329142D01*
X97123809Y-30043428D02*
X97885714Y-30043428D01*
X99314285Y-29424380D02*
X99504761Y-29424380D01*
X99600000Y-29472000D01*
X99695238Y-29567238D01*
X99742857Y-29757714D01*
X99742857Y-30091047D01*
X99695238Y-30281523D01*
X99600000Y-30376761D01*
X99504761Y-30424380D01*
X99314285Y-30424380D01*
X99219047Y-30376761D01*
X99123809Y-30281523D01*
X99076190Y-30091047D01*
X99076190Y-29757714D01*
X99123809Y-29567238D01*
X99219047Y-29472000D01*
X99314285Y-29424380D01*
X100647619Y-30424380D02*
X100171428Y-30424380D01*
X100171428Y-29424380D01*
X100980952Y-29900571D02*
X101314285Y-29900571D01*
X101457142Y-30424380D02*
X100980952Y-30424380D01*
X100980952Y-29424380D01*
X101457142Y-29424380D01*
X101885714Y-30424380D02*
X101885714Y-29424380D01*
X102123809Y-29424380D01*
X102266666Y-29472000D01*
X102361904Y-29567238D01*
X102409523Y-29662476D01*
X102457142Y-29852952D01*
X102457142Y-29995809D01*
X102409523Y-30186285D01*
X102361904Y-30281523D01*
X102266666Y-30376761D01*
X102123809Y-30424380D01*
X101885714Y-30424380D01*
X103647619Y-30424380D02*
X103647619Y-29424380D01*
X103885714Y-29424380D01*
X104028571Y-29472000D01*
X104123809Y-29567238D01*
X104171428Y-29662476D01*
X104219047Y-29852952D01*
X104219047Y-29995809D01*
X104171428Y-30186285D01*
X104123809Y-30281523D01*
X104028571Y-30376761D01*
X103885714Y-30424380D01*
X103647619Y-30424380D01*
X104647619Y-30424380D02*
X104647619Y-29757714D01*
X104647619Y-29424380D02*
X104600000Y-29472000D01*
X104647619Y-29519619D01*
X104695238Y-29472000D01*
X104647619Y-29424380D01*
X104647619Y-29519619D01*
X105076190Y-30376761D02*
X105171428Y-30424380D01*
X105361904Y-30424380D01*
X105457142Y-30376761D01*
X105504761Y-30281523D01*
X105504761Y-30233904D01*
X105457142Y-30138666D01*
X105361904Y-30091047D01*
X105219047Y-30091047D01*
X105123809Y-30043428D01*
X105076190Y-29948190D01*
X105076190Y-29900571D01*
X105123809Y-29805333D01*
X105219047Y-29757714D01*
X105361904Y-29757714D01*
X105457142Y-29805333D01*
X105933333Y-29757714D02*
X105933333Y-30757714D01*
X105933333Y-29805333D02*
X106028571Y-29757714D01*
X106219047Y-29757714D01*
X106314285Y-29805333D01*
X106361904Y-29852952D01*
X106409523Y-29948190D01*
X106409523Y-30233904D01*
X106361904Y-30329142D01*
X106314285Y-30376761D01*
X106219047Y-30424380D01*
X106028571Y-30424380D01*
X105933333Y-30376761D01*
X106980952Y-30424380D02*
X106885714Y-30376761D01*
X106838095Y-30281523D01*
X106838095Y-29424380D01*
X107790476Y-30424380D02*
X107790476Y-29900571D01*
X107742857Y-29805333D01*
X107647619Y-29757714D01*
X107457142Y-29757714D01*
X107361904Y-29805333D01*
X107790476Y-30376761D02*
X107695238Y-30424380D01*
X107457142Y-30424380D01*
X107361904Y-30376761D01*
X107314285Y-30281523D01*
X107314285Y-30186285D01*
X107361904Y-30091047D01*
X107457142Y-30043428D01*
X107695238Y-30043428D01*
X107790476Y-29995809D01*
X108171428Y-29757714D02*
X108409523Y-30424380D01*
X108647619Y-29757714D02*
X108409523Y-30424380D01*
X108314285Y-30662476D01*
X108266666Y-30710095D01*
X108171428Y-30757714D01*
G04 #@! TO.C,IR Rx*
X84614285Y-23172380D02*
X84614285Y-22172380D01*
X85661904Y-23172380D02*
X85328571Y-22696190D01*
X85090476Y-23172380D02*
X85090476Y-22172380D01*
X85471428Y-22172380D01*
X85566666Y-22220000D01*
X85614285Y-22267619D01*
X85661904Y-22362857D01*
X85661904Y-22505714D01*
X85614285Y-22600952D01*
X85566666Y-22648571D01*
X85471428Y-22696190D01*
X85090476Y-22696190D01*
X87423809Y-23172380D02*
X87090476Y-22696190D01*
X86852380Y-23172380D02*
X86852380Y-22172380D01*
X87233333Y-22172380D01*
X87328571Y-22220000D01*
X87376190Y-22267619D01*
X87423809Y-22362857D01*
X87423809Y-22505714D01*
X87376190Y-22600952D01*
X87328571Y-22648571D01*
X87233333Y-22696190D01*
X86852380Y-22696190D01*
X87757142Y-23172380D02*
X88280952Y-22505714D01*
X87757142Y-22505714D02*
X88280952Y-23172380D01*
G04 #@! TO.C,U5 - 74HC595*
X65318380Y-51776380D02*
X65318380Y-52585904D01*
X65366000Y-52681142D01*
X65413619Y-52728761D01*
X65508857Y-52776380D01*
X65699333Y-52776380D01*
X65794571Y-52728761D01*
X65842190Y-52681142D01*
X65889809Y-52585904D01*
X65889809Y-51776380D01*
X66842190Y-51776380D02*
X66366000Y-51776380D01*
X66318380Y-52252571D01*
X66366000Y-52204952D01*
X66461238Y-52157333D01*
X66699333Y-52157333D01*
X66794571Y-52204952D01*
X66842190Y-52252571D01*
X66889809Y-52347809D01*
X66889809Y-52585904D01*
X66842190Y-52681142D01*
X66794571Y-52728761D01*
X66699333Y-52776380D01*
X66461238Y-52776380D01*
X66366000Y-52728761D01*
X66318380Y-52681142D01*
X68080285Y-52395428D02*
X68842190Y-52395428D01*
X69985047Y-51776380D02*
X70651714Y-51776380D01*
X70223142Y-52776380D01*
X71461238Y-52109714D02*
X71461238Y-52776380D01*
X71223142Y-51728761D02*
X70985047Y-52443047D01*
X71604095Y-52443047D01*
X71985047Y-52776380D02*
X71985047Y-51776380D01*
X71985047Y-52252571D02*
X72556476Y-52252571D01*
X72556476Y-52776380D02*
X72556476Y-51776380D01*
X73604095Y-52681142D02*
X73556476Y-52728761D01*
X73413619Y-52776380D01*
X73318380Y-52776380D01*
X73175523Y-52728761D01*
X73080285Y-52633523D01*
X73032666Y-52538285D01*
X72985047Y-52347809D01*
X72985047Y-52204952D01*
X73032666Y-52014476D01*
X73080285Y-51919238D01*
X73175523Y-51824000D01*
X73318380Y-51776380D01*
X73413619Y-51776380D01*
X73556476Y-51824000D01*
X73604095Y-51871619D01*
X74508857Y-51776380D02*
X74032666Y-51776380D01*
X73985047Y-52252571D01*
X74032666Y-52204952D01*
X74127904Y-52157333D01*
X74366000Y-52157333D01*
X74461238Y-52204952D01*
X74508857Y-52252571D01*
X74556476Y-52347809D01*
X74556476Y-52585904D01*
X74508857Y-52681142D01*
X74461238Y-52728761D01*
X74366000Y-52776380D01*
X74127904Y-52776380D01*
X74032666Y-52728761D01*
X73985047Y-52681142D01*
X75032666Y-52776380D02*
X75223142Y-52776380D01*
X75318380Y-52728761D01*
X75366000Y-52681142D01*
X75461238Y-52538285D01*
X75508857Y-52347809D01*
X75508857Y-51966857D01*
X75461238Y-51871619D01*
X75413619Y-51824000D01*
X75318380Y-51776380D01*
X75127904Y-51776380D01*
X75032666Y-51824000D01*
X74985047Y-51871619D01*
X74937428Y-51966857D01*
X74937428Y-52204952D01*
X74985047Y-52300190D01*
X75032666Y-52347809D01*
X75127904Y-52395428D01*
X75318380Y-52395428D01*
X75413619Y-52347809D01*
X75461238Y-52300190D01*
X75508857Y-52204952D01*
X76413619Y-51776380D02*
X75937428Y-51776380D01*
X75889809Y-52252571D01*
X75937428Y-52204952D01*
X76032666Y-52157333D01*
X76270761Y-52157333D01*
X76366000Y-52204952D01*
X76413619Y-52252571D01*
X76461238Y-52347809D01*
X76461238Y-52585904D01*
X76413619Y-52681142D01*
X76366000Y-52728761D01*
X76270761Y-52776380D01*
X76032666Y-52776380D01*
X75937428Y-52728761D01*
X75889809Y-52681142D01*
G04 #@! TO.C,U4 - 74HC595*
X66080380Y-64984380D02*
X66080380Y-65793904D01*
X66128000Y-65889142D01*
X66175619Y-65936761D01*
X66270857Y-65984380D01*
X66461333Y-65984380D01*
X66556571Y-65936761D01*
X66604190Y-65889142D01*
X66651809Y-65793904D01*
X66651809Y-64984380D01*
X67556571Y-65317714D02*
X67556571Y-65984380D01*
X67318476Y-64936761D02*
X67080380Y-65651047D01*
X67699428Y-65651047D01*
X68842285Y-65603428D02*
X69604190Y-65603428D01*
X70747047Y-64984380D02*
X71413714Y-64984380D01*
X70985142Y-65984380D01*
X72223238Y-65317714D02*
X72223238Y-65984380D01*
X71985142Y-64936761D02*
X71747047Y-65651047D01*
X72366095Y-65651047D01*
X72747047Y-65984380D02*
X72747047Y-64984380D01*
X72747047Y-65460571D02*
X73318476Y-65460571D01*
X73318476Y-65984380D02*
X73318476Y-64984380D01*
X74366095Y-65889142D02*
X74318476Y-65936761D01*
X74175619Y-65984380D01*
X74080380Y-65984380D01*
X73937523Y-65936761D01*
X73842285Y-65841523D01*
X73794666Y-65746285D01*
X73747047Y-65555809D01*
X73747047Y-65412952D01*
X73794666Y-65222476D01*
X73842285Y-65127238D01*
X73937523Y-65032000D01*
X74080380Y-64984380D01*
X74175619Y-64984380D01*
X74318476Y-65032000D01*
X74366095Y-65079619D01*
X75270857Y-64984380D02*
X74794666Y-64984380D01*
X74747047Y-65460571D01*
X74794666Y-65412952D01*
X74889904Y-65365333D01*
X75128000Y-65365333D01*
X75223238Y-65412952D01*
X75270857Y-65460571D01*
X75318476Y-65555809D01*
X75318476Y-65793904D01*
X75270857Y-65889142D01*
X75223238Y-65936761D01*
X75128000Y-65984380D01*
X74889904Y-65984380D01*
X74794666Y-65936761D01*
X74747047Y-65889142D01*
X75794666Y-65984380D02*
X75985142Y-65984380D01*
X76080380Y-65936761D01*
X76128000Y-65889142D01*
X76223238Y-65746285D01*
X76270857Y-65555809D01*
X76270857Y-65174857D01*
X76223238Y-65079619D01*
X76175619Y-65032000D01*
X76080380Y-64984380D01*
X75889904Y-64984380D01*
X75794666Y-65032000D01*
X75747047Y-65079619D01*
X75699428Y-65174857D01*
X75699428Y-65412952D01*
X75747047Y-65508190D01*
X75794666Y-65555809D01*
X75889904Y-65603428D01*
X76080380Y-65603428D01*
X76175619Y-65555809D01*
X76223238Y-65508190D01*
X76270857Y-65412952D01*
X77175619Y-64984380D02*
X76699428Y-64984380D01*
X76651809Y-65460571D01*
X76699428Y-65412952D01*
X76794666Y-65365333D01*
X77032761Y-65365333D01*
X77128000Y-65412952D01*
X77175619Y-65460571D01*
X77223238Y-65555809D01*
X77223238Y-65793904D01*
X77175619Y-65889142D01*
X77128000Y-65936761D01*
X77032761Y-65984380D01*
X76794666Y-65984380D01*
X76699428Y-65936761D01*
X76651809Y-65889142D01*
G04 #@! TO.C,U3 - 74HC595*
X39918380Y-47966380D02*
X39918380Y-48775904D01*
X39966000Y-48871142D01*
X40013619Y-48918761D01*
X40108857Y-48966380D01*
X40299333Y-48966380D01*
X40394571Y-48918761D01*
X40442190Y-48871142D01*
X40489809Y-48775904D01*
X40489809Y-47966380D01*
X40870761Y-47966380D02*
X41489809Y-47966380D01*
X41156476Y-48347333D01*
X41299333Y-48347333D01*
X41394571Y-48394952D01*
X41442190Y-48442571D01*
X41489809Y-48537809D01*
X41489809Y-48775904D01*
X41442190Y-48871142D01*
X41394571Y-48918761D01*
X41299333Y-48966380D01*
X41013619Y-48966380D01*
X40918380Y-48918761D01*
X40870761Y-48871142D01*
X42680285Y-48585428D02*
X43442190Y-48585428D01*
X44585047Y-47966380D02*
X45251714Y-47966380D01*
X44823142Y-48966380D01*
X46061238Y-48299714D02*
X46061238Y-48966380D01*
X45823142Y-47918761D02*
X45585047Y-48633047D01*
X46204095Y-48633047D01*
X46585047Y-48966380D02*
X46585047Y-47966380D01*
X46585047Y-48442571D02*
X47156476Y-48442571D01*
X47156476Y-48966380D02*
X47156476Y-47966380D01*
X48204095Y-48871142D02*
X48156476Y-48918761D01*
X48013619Y-48966380D01*
X47918380Y-48966380D01*
X47775523Y-48918761D01*
X47680285Y-48823523D01*
X47632666Y-48728285D01*
X47585047Y-48537809D01*
X47585047Y-48394952D01*
X47632666Y-48204476D01*
X47680285Y-48109238D01*
X47775523Y-48014000D01*
X47918380Y-47966380D01*
X48013619Y-47966380D01*
X48156476Y-48014000D01*
X48204095Y-48061619D01*
X49108857Y-47966380D02*
X48632666Y-47966380D01*
X48585047Y-48442571D01*
X48632666Y-48394952D01*
X48727904Y-48347333D01*
X48966000Y-48347333D01*
X49061238Y-48394952D01*
X49108857Y-48442571D01*
X49156476Y-48537809D01*
X49156476Y-48775904D01*
X49108857Y-48871142D01*
X49061238Y-48918761D01*
X48966000Y-48966380D01*
X48727904Y-48966380D01*
X48632666Y-48918761D01*
X48585047Y-48871142D01*
X49632666Y-48966380D02*
X49823142Y-48966380D01*
X49918380Y-48918761D01*
X49966000Y-48871142D01*
X50061238Y-48728285D01*
X50108857Y-48537809D01*
X50108857Y-48156857D01*
X50061238Y-48061619D01*
X50013619Y-48014000D01*
X49918380Y-47966380D01*
X49727904Y-47966380D01*
X49632666Y-48014000D01*
X49585047Y-48061619D01*
X49537428Y-48156857D01*
X49537428Y-48394952D01*
X49585047Y-48490190D01*
X49632666Y-48537809D01*
X49727904Y-48585428D01*
X49918380Y-48585428D01*
X50013619Y-48537809D01*
X50061238Y-48490190D01*
X50108857Y-48394952D01*
X51013619Y-47966380D02*
X50537428Y-47966380D01*
X50489809Y-48442571D01*
X50537428Y-48394952D01*
X50632666Y-48347333D01*
X50870761Y-48347333D01*
X50966000Y-48394952D01*
X51013619Y-48442571D01*
X51061238Y-48537809D01*
X51061238Y-48775904D01*
X51013619Y-48871142D01*
X50966000Y-48918761D01*
X50870761Y-48966380D01*
X50632666Y-48966380D01*
X50537428Y-48918761D01*
X50489809Y-48871142D01*
G04 #@! TO.C,Temperature*
X99640000Y-22312380D02*
X100211428Y-22312380D01*
X99925714Y-23312380D02*
X99925714Y-22312380D01*
X100925714Y-23264761D02*
X100830476Y-23312380D01*
X100640000Y-23312380D01*
X100544761Y-23264761D01*
X100497142Y-23169523D01*
X100497142Y-22788571D01*
X100544761Y-22693333D01*
X100640000Y-22645714D01*
X100830476Y-22645714D01*
X100925714Y-22693333D01*
X100973333Y-22788571D01*
X100973333Y-22883809D01*
X100497142Y-22979047D01*
X101401904Y-23312380D02*
X101401904Y-22645714D01*
X101401904Y-22740952D02*
X101449523Y-22693333D01*
X101544761Y-22645714D01*
X101687619Y-22645714D01*
X101782857Y-22693333D01*
X101830476Y-22788571D01*
X101830476Y-23312380D01*
X101830476Y-22788571D02*
X101878095Y-22693333D01*
X101973333Y-22645714D01*
X102116190Y-22645714D01*
X102211428Y-22693333D01*
X102259047Y-22788571D01*
X102259047Y-23312380D01*
X102735238Y-22645714D02*
X102735238Y-23645714D01*
X102735238Y-22693333D02*
X102830476Y-22645714D01*
X103020952Y-22645714D01*
X103116190Y-22693333D01*
X103163809Y-22740952D01*
X103211428Y-22836190D01*
X103211428Y-23121904D01*
X103163809Y-23217142D01*
X103116190Y-23264761D01*
X103020952Y-23312380D01*
X102830476Y-23312380D01*
X102735238Y-23264761D01*
X104020952Y-23264761D02*
X103925714Y-23312380D01*
X103735238Y-23312380D01*
X103640000Y-23264761D01*
X103592380Y-23169523D01*
X103592380Y-22788571D01*
X103640000Y-22693333D01*
X103735238Y-22645714D01*
X103925714Y-22645714D01*
X104020952Y-22693333D01*
X104068571Y-22788571D01*
X104068571Y-22883809D01*
X103592380Y-22979047D01*
X104497142Y-23312380D02*
X104497142Y-22645714D01*
X104497142Y-22836190D02*
X104544761Y-22740952D01*
X104592380Y-22693333D01*
X104687619Y-22645714D01*
X104782857Y-22645714D01*
X105544761Y-23312380D02*
X105544761Y-22788571D01*
X105497142Y-22693333D01*
X105401904Y-22645714D01*
X105211428Y-22645714D01*
X105116190Y-22693333D01*
X105544761Y-23264761D02*
X105449523Y-23312380D01*
X105211428Y-23312380D01*
X105116190Y-23264761D01*
X105068571Y-23169523D01*
X105068571Y-23074285D01*
X105116190Y-22979047D01*
X105211428Y-22931428D01*
X105449523Y-22931428D01*
X105544761Y-22883809D01*
X105878095Y-22645714D02*
X106259047Y-22645714D01*
X106020952Y-22312380D02*
X106020952Y-23169523D01*
X106068571Y-23264761D01*
X106163809Y-23312380D01*
X106259047Y-23312380D01*
X107020952Y-22645714D02*
X107020952Y-23312380D01*
X106592380Y-22645714D02*
X106592380Y-23169523D01*
X106640000Y-23264761D01*
X106735238Y-23312380D01*
X106878095Y-23312380D01*
X106973333Y-23264761D01*
X107020952Y-23217142D01*
X107497142Y-23312380D02*
X107497142Y-22645714D01*
X107497142Y-22836190D02*
X107544761Y-22740952D01*
X107592380Y-22693333D01*
X107687619Y-22645714D01*
X107782857Y-22645714D01*
X108497142Y-23264761D02*
X108401904Y-23312380D01*
X108211428Y-23312380D01*
X108116190Y-23264761D01*
X108068571Y-23169523D01*
X108068571Y-22788571D01*
X108116190Y-22693333D01*
X108211428Y-22645714D01*
X108401904Y-22645714D01*
X108497142Y-22693333D01*
X108544761Y-22788571D01*
X108544761Y-22883809D01*
X108068571Y-22979047D01*
G04 #@! TO.C,U1 - 74HC14*
X69604571Y-79970380D02*
X69604571Y-80779904D01*
X69652190Y-80875142D01*
X69699809Y-80922761D01*
X69795047Y-80970380D01*
X69985523Y-80970380D01*
X70080761Y-80922761D01*
X70128380Y-80875142D01*
X70176000Y-80779904D01*
X70176000Y-79970380D01*
X71176000Y-80970380D02*
X70604571Y-80970380D01*
X70890285Y-80970380D02*
X70890285Y-79970380D01*
X70795047Y-80113238D01*
X70699809Y-80208476D01*
X70604571Y-80256095D01*
X72366476Y-80589428D02*
X73128380Y-80589428D01*
X74271238Y-79970380D02*
X74937904Y-79970380D01*
X74509333Y-80970380D01*
X75747428Y-80303714D02*
X75747428Y-80970380D01*
X75509333Y-79922761D02*
X75271238Y-80637047D01*
X75890285Y-80637047D01*
X76271238Y-80970380D02*
X76271238Y-79970380D01*
X76271238Y-80446571D02*
X76842666Y-80446571D01*
X76842666Y-80970380D02*
X76842666Y-79970380D01*
X77890285Y-80875142D02*
X77842666Y-80922761D01*
X77699809Y-80970380D01*
X77604571Y-80970380D01*
X77461714Y-80922761D01*
X77366476Y-80827523D01*
X77318857Y-80732285D01*
X77271238Y-80541809D01*
X77271238Y-80398952D01*
X77318857Y-80208476D01*
X77366476Y-80113238D01*
X77461714Y-80018000D01*
X77604571Y-79970380D01*
X77699809Y-79970380D01*
X77842666Y-80018000D01*
X77890285Y-80065619D01*
X78842666Y-80970380D02*
X78271238Y-80970380D01*
X78556952Y-80970380D02*
X78556952Y-79970380D01*
X78461714Y-80113238D01*
X78366476Y-80208476D01*
X78271238Y-80256095D01*
X79699809Y-80303714D02*
X79699809Y-80970380D01*
X79461714Y-79922761D02*
X79223619Y-80637047D01*
X79842666Y-80637047D01*
G04 #@! TO.C,SW4*
X105854666Y-112926761D02*
X105997523Y-112974380D01*
X106235619Y-112974380D01*
X106330857Y-112926761D01*
X106378476Y-112879142D01*
X106426095Y-112783904D01*
X106426095Y-112688666D01*
X106378476Y-112593428D01*
X106330857Y-112545809D01*
X106235619Y-112498190D01*
X106045142Y-112450571D01*
X105949904Y-112402952D01*
X105902285Y-112355333D01*
X105854666Y-112260095D01*
X105854666Y-112164857D01*
X105902285Y-112069619D01*
X105949904Y-112022000D01*
X106045142Y-111974380D01*
X106283238Y-111974380D01*
X106426095Y-112022000D01*
X106759428Y-111974380D02*
X106997523Y-112974380D01*
X107188000Y-112260095D01*
X107378476Y-112974380D01*
X107616571Y-111974380D01*
X108426095Y-112307714D02*
X108426095Y-112974380D01*
X108188000Y-111926761D02*
X107949904Y-112641047D01*
X108568952Y-112641047D01*
G04 #@! TO.C,SW3*
X99556666Y-100480761D02*
X99699523Y-100528380D01*
X99937619Y-100528380D01*
X100032857Y-100480761D01*
X100080476Y-100433142D01*
X100128095Y-100337904D01*
X100128095Y-100242666D01*
X100080476Y-100147428D01*
X100032857Y-100099809D01*
X99937619Y-100052190D01*
X99747142Y-100004571D01*
X99651904Y-99956952D01*
X99604285Y-99909333D01*
X99556666Y-99814095D01*
X99556666Y-99718857D01*
X99604285Y-99623619D01*
X99651904Y-99576000D01*
X99747142Y-99528380D01*
X99985238Y-99528380D01*
X100128095Y-99576000D01*
X100461428Y-99528380D02*
X100699523Y-100528380D01*
X100890000Y-99814095D01*
X101080476Y-100528380D01*
X101318571Y-99528380D01*
X101604285Y-99528380D02*
X102223333Y-99528380D01*
X101890000Y-99909333D01*
X102032857Y-99909333D01*
X102128095Y-99956952D01*
X102175714Y-100004571D01*
X102223333Y-100099809D01*
X102223333Y-100337904D01*
X102175714Y-100433142D01*
X102128095Y-100480761D01*
X102032857Y-100528380D01*
X101747142Y-100528380D01*
X101651904Y-100480761D01*
X101604285Y-100433142D01*
G04 #@! TO.C,SW2*
X109918666Y-109370761D02*
X110061523Y-109418380D01*
X110299619Y-109418380D01*
X110394857Y-109370761D01*
X110442476Y-109323142D01*
X110490095Y-109227904D01*
X110490095Y-109132666D01*
X110442476Y-109037428D01*
X110394857Y-108989809D01*
X110299619Y-108942190D01*
X110109142Y-108894571D01*
X110013904Y-108846952D01*
X109966285Y-108799333D01*
X109918666Y-108704095D01*
X109918666Y-108608857D01*
X109966285Y-108513619D01*
X110013904Y-108466000D01*
X110109142Y-108418380D01*
X110347238Y-108418380D01*
X110490095Y-108466000D01*
X110823428Y-108418380D02*
X111061523Y-109418380D01*
X111252000Y-108704095D01*
X111442476Y-109418380D01*
X111680571Y-108418380D01*
X112013904Y-108513619D02*
X112061523Y-108466000D01*
X112156761Y-108418380D01*
X112394857Y-108418380D01*
X112490095Y-108466000D01*
X112537714Y-108513619D01*
X112585333Y-108608857D01*
X112585333Y-108704095D01*
X112537714Y-108846952D01*
X111966285Y-109418380D01*
X112585333Y-109418380D01*
G04 #@! TO.C,SW1*
X84264666Y-104798761D02*
X84407523Y-104846380D01*
X84645619Y-104846380D01*
X84740857Y-104798761D01*
X84788476Y-104751142D01*
X84836095Y-104655904D01*
X84836095Y-104560666D01*
X84788476Y-104465428D01*
X84740857Y-104417809D01*
X84645619Y-104370190D01*
X84455142Y-104322571D01*
X84359904Y-104274952D01*
X84312285Y-104227333D01*
X84264666Y-104132095D01*
X84264666Y-104036857D01*
X84312285Y-103941619D01*
X84359904Y-103894000D01*
X84455142Y-103846380D01*
X84693238Y-103846380D01*
X84836095Y-103894000D01*
X85169428Y-103846380D02*
X85407523Y-104846380D01*
X85598000Y-104132095D01*
X85788476Y-104846380D01*
X86026571Y-103846380D01*
X86931333Y-104846380D02*
X86359904Y-104846380D01*
X86645619Y-104846380D02*
X86645619Y-103846380D01*
X86550380Y-103989238D01*
X86455142Y-104084476D01*
X86359904Y-104132095D01*
G04 #@! TO.C,RV3*
X57824761Y-107640380D02*
X57491428Y-107164190D01*
X57253333Y-107640380D02*
X57253333Y-106640380D01*
X57634285Y-106640380D01*
X57729523Y-106688000D01*
X57777142Y-106735619D01*
X57824761Y-106830857D01*
X57824761Y-106973714D01*
X57777142Y-107068952D01*
X57729523Y-107116571D01*
X57634285Y-107164190D01*
X57253333Y-107164190D01*
X58110476Y-106640380D02*
X58443809Y-107640380D01*
X58777142Y-106640380D01*
X59015238Y-106640380D02*
X59634285Y-106640380D01*
X59300952Y-107021333D01*
X59443809Y-107021333D01*
X59539047Y-107068952D01*
X59586666Y-107116571D01*
X59634285Y-107211809D01*
X59634285Y-107449904D01*
X59586666Y-107545142D01*
X59539047Y-107592761D01*
X59443809Y-107640380D01*
X59158095Y-107640380D01*
X59062857Y-107592761D01*
X59015238Y-107545142D01*
G04 #@! TO.C,RV2*
X50458761Y-107640380D02*
X50125428Y-107164190D01*
X49887333Y-107640380D02*
X49887333Y-106640380D01*
X50268285Y-106640380D01*
X50363523Y-106688000D01*
X50411142Y-106735619D01*
X50458761Y-106830857D01*
X50458761Y-106973714D01*
X50411142Y-107068952D01*
X50363523Y-107116571D01*
X50268285Y-107164190D01*
X49887333Y-107164190D01*
X50744476Y-106640380D02*
X51077809Y-107640380D01*
X51411142Y-106640380D01*
X51696857Y-106735619D02*
X51744476Y-106688000D01*
X51839714Y-106640380D01*
X52077809Y-106640380D01*
X52173047Y-106688000D01*
X52220666Y-106735619D01*
X52268285Y-106830857D01*
X52268285Y-106926095D01*
X52220666Y-107068952D01*
X51649238Y-107640380D01*
X52268285Y-107640380D01*
G04 #@! TO.C,RV1*
X42838761Y-107640380D02*
X42505428Y-107164190D01*
X42267333Y-107640380D02*
X42267333Y-106640380D01*
X42648285Y-106640380D01*
X42743523Y-106688000D01*
X42791142Y-106735619D01*
X42838761Y-106830857D01*
X42838761Y-106973714D01*
X42791142Y-107068952D01*
X42743523Y-107116571D01*
X42648285Y-107164190D01*
X42267333Y-107164190D01*
X43124476Y-106640380D02*
X43457809Y-107640380D01*
X43791142Y-106640380D01*
X44648285Y-107640380D02*
X44076857Y-107640380D01*
X44362571Y-107640380D02*
X44362571Y-106640380D01*
X44267333Y-106783238D01*
X44172095Y-106878476D01*
X44076857Y-106926095D01*
G04 #@! TO.C,Rot. Enc.*
X66468952Y-102560380D02*
X66135619Y-102084190D01*
X65897523Y-102560380D02*
X65897523Y-101560380D01*
X66278476Y-101560380D01*
X66373714Y-101608000D01*
X66421333Y-101655619D01*
X66468952Y-101750857D01*
X66468952Y-101893714D01*
X66421333Y-101988952D01*
X66373714Y-102036571D01*
X66278476Y-102084190D01*
X65897523Y-102084190D01*
X67040380Y-102560380D02*
X66945142Y-102512761D01*
X66897523Y-102465142D01*
X66849904Y-102369904D01*
X66849904Y-102084190D01*
X66897523Y-101988952D01*
X66945142Y-101941333D01*
X67040380Y-101893714D01*
X67183238Y-101893714D01*
X67278476Y-101941333D01*
X67326095Y-101988952D01*
X67373714Y-102084190D01*
X67373714Y-102369904D01*
X67326095Y-102465142D01*
X67278476Y-102512761D01*
X67183238Y-102560380D01*
X67040380Y-102560380D01*
X67659428Y-101893714D02*
X68040380Y-101893714D01*
X67802285Y-101560380D02*
X67802285Y-102417523D01*
X67849904Y-102512761D01*
X67945142Y-102560380D01*
X68040380Y-102560380D01*
X68373714Y-102465142D02*
X68421333Y-102512761D01*
X68373714Y-102560380D01*
X68326095Y-102512761D01*
X68373714Y-102465142D01*
X68373714Y-102560380D01*
X69611809Y-102036571D02*
X69945142Y-102036571D01*
X70088000Y-102560380D02*
X69611809Y-102560380D01*
X69611809Y-101560380D01*
X70088000Y-101560380D01*
X70516571Y-101893714D02*
X70516571Y-102560380D01*
X70516571Y-101988952D02*
X70564190Y-101941333D01*
X70659428Y-101893714D01*
X70802285Y-101893714D01*
X70897523Y-101941333D01*
X70945142Y-102036571D01*
X70945142Y-102560380D01*
X71849904Y-102512761D02*
X71754666Y-102560380D01*
X71564190Y-102560380D01*
X71468952Y-102512761D01*
X71421333Y-102465142D01*
X71373714Y-102369904D01*
X71373714Y-102084190D01*
X71421333Y-101988952D01*
X71468952Y-101941333D01*
X71564190Y-101893714D01*
X71754666Y-101893714D01*
X71849904Y-101941333D01*
X72278476Y-102465142D02*
X72326095Y-102512761D01*
X72278476Y-102560380D01*
X72230857Y-102512761D01*
X72278476Y-102465142D01*
X72278476Y-102560380D01*
G04 #@! TO.C,R42*
X53967142Y-89606380D02*
X53633809Y-89130190D01*
X53395714Y-89606380D02*
X53395714Y-88606380D01*
X53776666Y-88606380D01*
X53871904Y-88654000D01*
X53919523Y-88701619D01*
X53967142Y-88796857D01*
X53967142Y-88939714D01*
X53919523Y-89034952D01*
X53871904Y-89082571D01*
X53776666Y-89130190D01*
X53395714Y-89130190D01*
X54824285Y-88939714D02*
X54824285Y-89606380D01*
X54586190Y-88558761D02*
X54348095Y-89273047D01*
X54967142Y-89273047D01*
X55300476Y-88701619D02*
X55348095Y-88654000D01*
X55443333Y-88606380D01*
X55681428Y-88606380D01*
X55776666Y-88654000D01*
X55824285Y-88701619D01*
X55871904Y-88796857D01*
X55871904Y-88892095D01*
X55824285Y-89034952D01*
X55252857Y-89606380D01*
X55871904Y-89606380D01*
G04 #@! TO.C,R41*
X112212380Y-85478857D02*
X111736190Y-85812190D01*
X112212380Y-86050285D02*
X111212380Y-86050285D01*
X111212380Y-85669333D01*
X111260000Y-85574095D01*
X111307619Y-85526476D01*
X111402857Y-85478857D01*
X111545714Y-85478857D01*
X111640952Y-85526476D01*
X111688571Y-85574095D01*
X111736190Y-85669333D01*
X111736190Y-86050285D01*
X111545714Y-84621714D02*
X112212380Y-84621714D01*
X111164761Y-84859809D02*
X111879047Y-85097904D01*
X111879047Y-84478857D01*
X112212380Y-83574095D02*
X112212380Y-84145523D01*
X112212380Y-83859809D02*
X111212380Y-83859809D01*
X111355238Y-83955047D01*
X111450476Y-84050285D01*
X111498095Y-84145523D01*
G04 #@! TO.C,R40*
X107132380Y-85478857D02*
X106656190Y-85812190D01*
X107132380Y-86050285D02*
X106132380Y-86050285D01*
X106132380Y-85669333D01*
X106180000Y-85574095D01*
X106227619Y-85526476D01*
X106322857Y-85478857D01*
X106465714Y-85478857D01*
X106560952Y-85526476D01*
X106608571Y-85574095D01*
X106656190Y-85669333D01*
X106656190Y-86050285D01*
X106465714Y-84621714D02*
X107132380Y-84621714D01*
X106084761Y-84859809D02*
X106799047Y-85097904D01*
X106799047Y-84478857D01*
X106132380Y-83907428D02*
X106132380Y-83812190D01*
X106180000Y-83716952D01*
X106227619Y-83669333D01*
X106322857Y-83621714D01*
X106513333Y-83574095D01*
X106751428Y-83574095D01*
X106941904Y-83621714D01*
X107037142Y-83669333D01*
X107084761Y-83716952D01*
X107132380Y-83812190D01*
X107132380Y-83907428D01*
X107084761Y-84002666D01*
X107037142Y-84050285D01*
X106941904Y-84097904D01*
X106751428Y-84145523D01*
X106513333Y-84145523D01*
X106322857Y-84097904D01*
X106227619Y-84050285D01*
X106180000Y-84002666D01*
X106132380Y-83907428D01*
G04 #@! TO.C,R39*
X107132380Y-51950857D02*
X106656190Y-52284190D01*
X107132380Y-52522285D02*
X106132380Y-52522285D01*
X106132380Y-52141333D01*
X106180000Y-52046095D01*
X106227619Y-51998476D01*
X106322857Y-51950857D01*
X106465714Y-51950857D01*
X106560952Y-51998476D01*
X106608571Y-52046095D01*
X106656190Y-52141333D01*
X106656190Y-52522285D01*
X106132380Y-51617523D02*
X106132380Y-50998476D01*
X106513333Y-51331809D01*
X106513333Y-51188952D01*
X106560952Y-51093714D01*
X106608571Y-51046095D01*
X106703809Y-50998476D01*
X106941904Y-50998476D01*
X107037142Y-51046095D01*
X107084761Y-51093714D01*
X107132380Y-51188952D01*
X107132380Y-51474666D01*
X107084761Y-51569904D01*
X107037142Y-51617523D01*
X107132380Y-50522285D02*
X107132380Y-50331809D01*
X107084761Y-50236571D01*
X107037142Y-50188952D01*
X106894285Y-50093714D01*
X106703809Y-50046095D01*
X106322857Y-50046095D01*
X106227619Y-50093714D01*
X106180000Y-50141333D01*
X106132380Y-50236571D01*
X106132380Y-50427047D01*
X106180000Y-50522285D01*
X106227619Y-50569904D01*
X106322857Y-50617523D01*
X106560952Y-50617523D01*
X106656190Y-50569904D01*
X106703809Y-50522285D01*
X106751428Y-50427047D01*
X106751428Y-50236571D01*
X106703809Y-50141333D01*
X106656190Y-50093714D01*
X106560952Y-50046095D01*
G04 #@! TO.C,R38*
X102052380Y-85478857D02*
X101576190Y-85812190D01*
X102052380Y-86050285D02*
X101052380Y-86050285D01*
X101052380Y-85669333D01*
X101100000Y-85574095D01*
X101147619Y-85526476D01*
X101242857Y-85478857D01*
X101385714Y-85478857D01*
X101480952Y-85526476D01*
X101528571Y-85574095D01*
X101576190Y-85669333D01*
X101576190Y-86050285D01*
X101052380Y-85145523D02*
X101052380Y-84526476D01*
X101433333Y-84859809D01*
X101433333Y-84716952D01*
X101480952Y-84621714D01*
X101528571Y-84574095D01*
X101623809Y-84526476D01*
X101861904Y-84526476D01*
X101957142Y-84574095D01*
X102004761Y-84621714D01*
X102052380Y-84716952D01*
X102052380Y-85002666D01*
X102004761Y-85097904D01*
X101957142Y-85145523D01*
X101480952Y-83955047D02*
X101433333Y-84050285D01*
X101385714Y-84097904D01*
X101290476Y-84145523D01*
X101242857Y-84145523D01*
X101147619Y-84097904D01*
X101100000Y-84050285D01*
X101052380Y-83955047D01*
X101052380Y-83764571D01*
X101100000Y-83669333D01*
X101147619Y-83621714D01*
X101242857Y-83574095D01*
X101290476Y-83574095D01*
X101385714Y-83621714D01*
X101433333Y-83669333D01*
X101480952Y-83764571D01*
X101480952Y-83955047D01*
X101528571Y-84050285D01*
X101576190Y-84097904D01*
X101671428Y-84145523D01*
X101861904Y-84145523D01*
X101957142Y-84097904D01*
X102004761Y-84050285D01*
X102052380Y-83955047D01*
X102052380Y-83764571D01*
X102004761Y-83669333D01*
X101957142Y-83621714D01*
X101861904Y-83574095D01*
X101671428Y-83574095D01*
X101576190Y-83621714D01*
X101528571Y-83669333D01*
X101480952Y-83764571D01*
G04 #@! TO.C,R37*
X104592380Y-85478857D02*
X104116190Y-85812190D01*
X104592380Y-86050285D02*
X103592380Y-86050285D01*
X103592380Y-85669333D01*
X103640000Y-85574095D01*
X103687619Y-85526476D01*
X103782857Y-85478857D01*
X103925714Y-85478857D01*
X104020952Y-85526476D01*
X104068571Y-85574095D01*
X104116190Y-85669333D01*
X104116190Y-86050285D01*
X103592380Y-85145523D02*
X103592380Y-84526476D01*
X103973333Y-84859809D01*
X103973333Y-84716952D01*
X104020952Y-84621714D01*
X104068571Y-84574095D01*
X104163809Y-84526476D01*
X104401904Y-84526476D01*
X104497142Y-84574095D01*
X104544761Y-84621714D01*
X104592380Y-84716952D01*
X104592380Y-85002666D01*
X104544761Y-85097904D01*
X104497142Y-85145523D01*
X103592380Y-84193142D02*
X103592380Y-83526476D01*
X104592380Y-83955047D01*
G04 #@! TO.C,R36*
X109672380Y-85478857D02*
X109196190Y-85812190D01*
X109672380Y-86050285D02*
X108672380Y-86050285D01*
X108672380Y-85669333D01*
X108720000Y-85574095D01*
X108767619Y-85526476D01*
X108862857Y-85478857D01*
X109005714Y-85478857D01*
X109100952Y-85526476D01*
X109148571Y-85574095D01*
X109196190Y-85669333D01*
X109196190Y-86050285D01*
X108672380Y-85145523D02*
X108672380Y-84526476D01*
X109053333Y-84859809D01*
X109053333Y-84716952D01*
X109100952Y-84621714D01*
X109148571Y-84574095D01*
X109243809Y-84526476D01*
X109481904Y-84526476D01*
X109577142Y-84574095D01*
X109624761Y-84621714D01*
X109672380Y-84716952D01*
X109672380Y-85002666D01*
X109624761Y-85097904D01*
X109577142Y-85145523D01*
X108672380Y-83669333D02*
X108672380Y-83859809D01*
X108720000Y-83955047D01*
X108767619Y-84002666D01*
X108910476Y-84097904D01*
X109100952Y-84145523D01*
X109481904Y-84145523D01*
X109577142Y-84097904D01*
X109624761Y-84050285D01*
X109672380Y-83955047D01*
X109672380Y-83764571D01*
X109624761Y-83669333D01*
X109577142Y-83621714D01*
X109481904Y-83574095D01*
X109243809Y-83574095D01*
X109148571Y-83621714D01*
X109100952Y-83669333D01*
X109053333Y-83764571D01*
X109053333Y-83955047D01*
X109100952Y-84050285D01*
X109148571Y-84097904D01*
X109243809Y-84145523D01*
G04 #@! TO.C,R35*
X71493142Y-37790380D02*
X71159809Y-37314190D01*
X70921714Y-37790380D02*
X70921714Y-36790380D01*
X71302666Y-36790380D01*
X71397904Y-36838000D01*
X71445523Y-36885619D01*
X71493142Y-36980857D01*
X71493142Y-37123714D01*
X71445523Y-37218952D01*
X71397904Y-37266571D01*
X71302666Y-37314190D01*
X70921714Y-37314190D01*
X71826476Y-36790380D02*
X72445523Y-36790380D01*
X72112190Y-37171333D01*
X72255047Y-37171333D01*
X72350285Y-37218952D01*
X72397904Y-37266571D01*
X72445523Y-37361809D01*
X72445523Y-37599904D01*
X72397904Y-37695142D01*
X72350285Y-37742761D01*
X72255047Y-37790380D01*
X71969333Y-37790380D01*
X71874095Y-37742761D01*
X71826476Y-37695142D01*
X73350285Y-36790380D02*
X72874095Y-36790380D01*
X72826476Y-37266571D01*
X72874095Y-37218952D01*
X72969333Y-37171333D01*
X73207428Y-37171333D01*
X73302666Y-37218952D01*
X73350285Y-37266571D01*
X73397904Y-37361809D01*
X73397904Y-37599904D01*
X73350285Y-37695142D01*
X73302666Y-37742761D01*
X73207428Y-37790380D01*
X72969333Y-37790380D01*
X72874095Y-37742761D01*
X72826476Y-37695142D01*
G04 #@! TO.C,R34*
X112212380Y-51950857D02*
X111736190Y-52284190D01*
X112212380Y-52522285D02*
X111212380Y-52522285D01*
X111212380Y-52141333D01*
X111260000Y-52046095D01*
X111307619Y-51998476D01*
X111402857Y-51950857D01*
X111545714Y-51950857D01*
X111640952Y-51998476D01*
X111688571Y-52046095D01*
X111736190Y-52141333D01*
X111736190Y-52522285D01*
X111212380Y-51617523D02*
X111212380Y-50998476D01*
X111593333Y-51331809D01*
X111593333Y-51188952D01*
X111640952Y-51093714D01*
X111688571Y-51046095D01*
X111783809Y-50998476D01*
X112021904Y-50998476D01*
X112117142Y-51046095D01*
X112164761Y-51093714D01*
X112212380Y-51188952D01*
X112212380Y-51474666D01*
X112164761Y-51569904D01*
X112117142Y-51617523D01*
X111545714Y-50141333D02*
X112212380Y-50141333D01*
X111164761Y-50379428D02*
X111879047Y-50617523D01*
X111879047Y-49998476D01*
G04 #@! TO.C,R33*
X109672380Y-51950857D02*
X109196190Y-52284190D01*
X109672380Y-52522285D02*
X108672380Y-52522285D01*
X108672380Y-52141333D01*
X108720000Y-52046095D01*
X108767619Y-51998476D01*
X108862857Y-51950857D01*
X109005714Y-51950857D01*
X109100952Y-51998476D01*
X109148571Y-52046095D01*
X109196190Y-52141333D01*
X109196190Y-52522285D01*
X108672380Y-51617523D02*
X108672380Y-50998476D01*
X109053333Y-51331809D01*
X109053333Y-51188952D01*
X109100952Y-51093714D01*
X109148571Y-51046095D01*
X109243809Y-50998476D01*
X109481904Y-50998476D01*
X109577142Y-51046095D01*
X109624761Y-51093714D01*
X109672380Y-51188952D01*
X109672380Y-51474666D01*
X109624761Y-51569904D01*
X109577142Y-51617523D01*
X108672380Y-50665142D02*
X108672380Y-50046095D01*
X109053333Y-50379428D01*
X109053333Y-50236571D01*
X109100952Y-50141333D01*
X109148571Y-50093714D01*
X109243809Y-50046095D01*
X109481904Y-50046095D01*
X109577142Y-50093714D01*
X109624761Y-50141333D01*
X109672380Y-50236571D01*
X109672380Y-50522285D01*
X109624761Y-50617523D01*
X109577142Y-50665142D01*
G04 #@! TO.C,R32*
X53967142Y-91892380D02*
X53633809Y-91416190D01*
X53395714Y-91892380D02*
X53395714Y-90892380D01*
X53776666Y-90892380D01*
X53871904Y-90940000D01*
X53919523Y-90987619D01*
X53967142Y-91082857D01*
X53967142Y-91225714D01*
X53919523Y-91320952D01*
X53871904Y-91368571D01*
X53776666Y-91416190D01*
X53395714Y-91416190D01*
X54300476Y-90892380D02*
X54919523Y-90892380D01*
X54586190Y-91273333D01*
X54729047Y-91273333D01*
X54824285Y-91320952D01*
X54871904Y-91368571D01*
X54919523Y-91463809D01*
X54919523Y-91701904D01*
X54871904Y-91797142D01*
X54824285Y-91844761D01*
X54729047Y-91892380D01*
X54443333Y-91892380D01*
X54348095Y-91844761D01*
X54300476Y-91797142D01*
X55300476Y-90987619D02*
X55348095Y-90940000D01*
X55443333Y-90892380D01*
X55681428Y-90892380D01*
X55776666Y-90940000D01*
X55824285Y-90987619D01*
X55871904Y-91082857D01*
X55871904Y-91178095D01*
X55824285Y-91320952D01*
X55252857Y-91892380D01*
X55871904Y-91892380D01*
G04 #@! TO.C,Photocell*
X91710285Y-23312380D02*
X91710285Y-22312380D01*
X92091238Y-22312380D01*
X92186476Y-22360000D01*
X92234095Y-22407619D01*
X92281714Y-22502857D01*
X92281714Y-22645714D01*
X92234095Y-22740952D01*
X92186476Y-22788571D01*
X92091238Y-22836190D01*
X91710285Y-22836190D01*
X92710285Y-23312380D02*
X92710285Y-22312380D01*
X93138857Y-23312380D02*
X93138857Y-22788571D01*
X93091238Y-22693333D01*
X92996000Y-22645714D01*
X92853142Y-22645714D01*
X92757904Y-22693333D01*
X92710285Y-22740952D01*
X93757904Y-23312380D02*
X93662666Y-23264761D01*
X93615047Y-23217142D01*
X93567428Y-23121904D01*
X93567428Y-22836190D01*
X93615047Y-22740952D01*
X93662666Y-22693333D01*
X93757904Y-22645714D01*
X93900761Y-22645714D01*
X93996000Y-22693333D01*
X94043619Y-22740952D01*
X94091238Y-22836190D01*
X94091238Y-23121904D01*
X94043619Y-23217142D01*
X93996000Y-23264761D01*
X93900761Y-23312380D01*
X93757904Y-23312380D01*
X94376952Y-22645714D02*
X94757904Y-22645714D01*
X94519809Y-22312380D02*
X94519809Y-23169523D01*
X94567428Y-23264761D01*
X94662666Y-23312380D01*
X94757904Y-23312380D01*
X95234095Y-23312380D02*
X95138857Y-23264761D01*
X95091238Y-23217142D01*
X95043619Y-23121904D01*
X95043619Y-22836190D01*
X95091238Y-22740952D01*
X95138857Y-22693333D01*
X95234095Y-22645714D01*
X95376952Y-22645714D01*
X95472190Y-22693333D01*
X95519809Y-22740952D01*
X95567428Y-22836190D01*
X95567428Y-23121904D01*
X95519809Y-23217142D01*
X95472190Y-23264761D01*
X95376952Y-23312380D01*
X95234095Y-23312380D01*
X96424571Y-23264761D02*
X96329333Y-23312380D01*
X96138857Y-23312380D01*
X96043619Y-23264761D01*
X95996000Y-23217142D01*
X95948380Y-23121904D01*
X95948380Y-22836190D01*
X95996000Y-22740952D01*
X96043619Y-22693333D01*
X96138857Y-22645714D01*
X96329333Y-22645714D01*
X96424571Y-22693333D01*
X97234095Y-23264761D02*
X97138857Y-23312380D01*
X96948380Y-23312380D01*
X96853142Y-23264761D01*
X96805523Y-23169523D01*
X96805523Y-22788571D01*
X96853142Y-22693333D01*
X96948380Y-22645714D01*
X97138857Y-22645714D01*
X97234095Y-22693333D01*
X97281714Y-22788571D01*
X97281714Y-22883809D01*
X96805523Y-22979047D01*
X97853142Y-23312380D02*
X97757904Y-23264761D01*
X97710285Y-23169523D01*
X97710285Y-22312380D01*
X98376952Y-23312380D02*
X98281714Y-23264761D01*
X98234095Y-23169523D01*
X98234095Y-22312380D01*
G04 #@! TO.C,R30*
X64127142Y-37790380D02*
X63793809Y-37314190D01*
X63555714Y-37790380D02*
X63555714Y-36790380D01*
X63936666Y-36790380D01*
X64031904Y-36838000D01*
X64079523Y-36885619D01*
X64127142Y-36980857D01*
X64127142Y-37123714D01*
X64079523Y-37218952D01*
X64031904Y-37266571D01*
X63936666Y-37314190D01*
X63555714Y-37314190D01*
X64460476Y-36790380D02*
X65079523Y-36790380D01*
X64746190Y-37171333D01*
X64889047Y-37171333D01*
X64984285Y-37218952D01*
X65031904Y-37266571D01*
X65079523Y-37361809D01*
X65079523Y-37599904D01*
X65031904Y-37695142D01*
X64984285Y-37742761D01*
X64889047Y-37790380D01*
X64603333Y-37790380D01*
X64508095Y-37742761D01*
X64460476Y-37695142D01*
X65698571Y-36790380D02*
X65793809Y-36790380D01*
X65889047Y-36838000D01*
X65936666Y-36885619D01*
X65984285Y-36980857D01*
X66031904Y-37171333D01*
X66031904Y-37409428D01*
X65984285Y-37599904D01*
X65936666Y-37695142D01*
X65889047Y-37742761D01*
X65793809Y-37790380D01*
X65698571Y-37790380D01*
X65603333Y-37742761D01*
X65555714Y-37695142D01*
X65508095Y-37599904D01*
X65460476Y-37409428D01*
X65460476Y-37171333D01*
X65508095Y-36980857D01*
X65555714Y-36885619D01*
X65603333Y-36838000D01*
X65698571Y-36790380D01*
G04 #@! TO.C,R29*
X99512380Y-85478857D02*
X99036190Y-85812190D01*
X99512380Y-86050285D02*
X98512380Y-86050285D01*
X98512380Y-85669333D01*
X98560000Y-85574095D01*
X98607619Y-85526476D01*
X98702857Y-85478857D01*
X98845714Y-85478857D01*
X98940952Y-85526476D01*
X98988571Y-85574095D01*
X99036190Y-85669333D01*
X99036190Y-86050285D01*
X98607619Y-85097904D02*
X98560000Y-85050285D01*
X98512380Y-84955047D01*
X98512380Y-84716952D01*
X98560000Y-84621714D01*
X98607619Y-84574095D01*
X98702857Y-84526476D01*
X98798095Y-84526476D01*
X98940952Y-84574095D01*
X99512380Y-85145523D01*
X99512380Y-84526476D01*
X99512380Y-84050285D02*
X99512380Y-83859809D01*
X99464761Y-83764571D01*
X99417142Y-83716952D01*
X99274285Y-83621714D01*
X99083809Y-83574095D01*
X98702857Y-83574095D01*
X98607619Y-83621714D01*
X98560000Y-83669333D01*
X98512380Y-83764571D01*
X98512380Y-83955047D01*
X98560000Y-84050285D01*
X98607619Y-84097904D01*
X98702857Y-84145523D01*
X98940952Y-84145523D01*
X99036190Y-84097904D01*
X99083809Y-84050285D01*
X99131428Y-83955047D01*
X99131428Y-83764571D01*
X99083809Y-83669333D01*
X99036190Y-83621714D01*
X98940952Y-83574095D01*
G04 #@! TO.C,R28*
X57523142Y-37790380D02*
X57189809Y-37314190D01*
X56951714Y-37790380D02*
X56951714Y-36790380D01*
X57332666Y-36790380D01*
X57427904Y-36838000D01*
X57475523Y-36885619D01*
X57523142Y-36980857D01*
X57523142Y-37123714D01*
X57475523Y-37218952D01*
X57427904Y-37266571D01*
X57332666Y-37314190D01*
X56951714Y-37314190D01*
X57904095Y-36885619D02*
X57951714Y-36838000D01*
X58046952Y-36790380D01*
X58285047Y-36790380D01*
X58380285Y-36838000D01*
X58427904Y-36885619D01*
X58475523Y-36980857D01*
X58475523Y-37076095D01*
X58427904Y-37218952D01*
X57856476Y-37790380D01*
X58475523Y-37790380D01*
X59046952Y-37218952D02*
X58951714Y-37171333D01*
X58904095Y-37123714D01*
X58856476Y-37028476D01*
X58856476Y-36980857D01*
X58904095Y-36885619D01*
X58951714Y-36838000D01*
X59046952Y-36790380D01*
X59237428Y-36790380D01*
X59332666Y-36838000D01*
X59380285Y-36885619D01*
X59427904Y-36980857D01*
X59427904Y-37028476D01*
X59380285Y-37123714D01*
X59332666Y-37171333D01*
X59237428Y-37218952D01*
X59046952Y-37218952D01*
X58951714Y-37266571D01*
X58904095Y-37314190D01*
X58856476Y-37409428D01*
X58856476Y-37599904D01*
X58904095Y-37695142D01*
X58951714Y-37742761D01*
X59046952Y-37790380D01*
X59237428Y-37790380D01*
X59332666Y-37742761D01*
X59380285Y-37695142D01*
X59427904Y-37599904D01*
X59427904Y-37409428D01*
X59380285Y-37314190D01*
X59332666Y-37266571D01*
X59237428Y-37218952D01*
G04 #@! TO.C,R27*
X94432380Y-51950857D02*
X93956190Y-52284190D01*
X94432380Y-52522285D02*
X93432380Y-52522285D01*
X93432380Y-52141333D01*
X93480000Y-52046095D01*
X93527619Y-51998476D01*
X93622857Y-51950857D01*
X93765714Y-51950857D01*
X93860952Y-51998476D01*
X93908571Y-52046095D01*
X93956190Y-52141333D01*
X93956190Y-52522285D01*
X93527619Y-51569904D02*
X93480000Y-51522285D01*
X93432380Y-51427047D01*
X93432380Y-51188952D01*
X93480000Y-51093714D01*
X93527619Y-51046095D01*
X93622857Y-50998476D01*
X93718095Y-50998476D01*
X93860952Y-51046095D01*
X94432380Y-51617523D01*
X94432380Y-50998476D01*
X93432380Y-50665142D02*
X93432380Y-49998476D01*
X94432380Y-50427047D01*
G04 #@! TO.C,R26*
X91892380Y-51950857D02*
X91416190Y-52284190D01*
X91892380Y-52522285D02*
X90892380Y-52522285D01*
X90892380Y-52141333D01*
X90940000Y-52046095D01*
X90987619Y-51998476D01*
X91082857Y-51950857D01*
X91225714Y-51950857D01*
X91320952Y-51998476D01*
X91368571Y-52046095D01*
X91416190Y-52141333D01*
X91416190Y-52522285D01*
X90987619Y-51569904D02*
X90940000Y-51522285D01*
X90892380Y-51427047D01*
X90892380Y-51188952D01*
X90940000Y-51093714D01*
X90987619Y-51046095D01*
X91082857Y-50998476D01*
X91178095Y-50998476D01*
X91320952Y-51046095D01*
X91892380Y-51617523D01*
X91892380Y-50998476D01*
X90892380Y-50141333D02*
X90892380Y-50331809D01*
X90940000Y-50427047D01*
X90987619Y-50474666D01*
X91130476Y-50569904D01*
X91320952Y-50617523D01*
X91701904Y-50617523D01*
X91797142Y-50569904D01*
X91844761Y-50522285D01*
X91892380Y-50427047D01*
X91892380Y-50236571D01*
X91844761Y-50141333D01*
X91797142Y-50093714D01*
X91701904Y-50046095D01*
X91463809Y-50046095D01*
X91368571Y-50093714D01*
X91320952Y-50141333D01*
X91273333Y-50236571D01*
X91273333Y-50427047D01*
X91320952Y-50522285D01*
X91368571Y-50569904D01*
X91463809Y-50617523D01*
G04 #@! TO.C,R25*
X51935142Y-36012380D02*
X51601809Y-35536190D01*
X51363714Y-36012380D02*
X51363714Y-35012380D01*
X51744666Y-35012380D01*
X51839904Y-35060000D01*
X51887523Y-35107619D01*
X51935142Y-35202857D01*
X51935142Y-35345714D01*
X51887523Y-35440952D01*
X51839904Y-35488571D01*
X51744666Y-35536190D01*
X51363714Y-35536190D01*
X52316095Y-35107619D02*
X52363714Y-35060000D01*
X52458952Y-35012380D01*
X52697047Y-35012380D01*
X52792285Y-35060000D01*
X52839904Y-35107619D01*
X52887523Y-35202857D01*
X52887523Y-35298095D01*
X52839904Y-35440952D01*
X52268476Y-36012380D01*
X52887523Y-36012380D01*
X53792285Y-35012380D02*
X53316095Y-35012380D01*
X53268476Y-35488571D01*
X53316095Y-35440952D01*
X53411333Y-35393333D01*
X53649428Y-35393333D01*
X53744666Y-35440952D01*
X53792285Y-35488571D01*
X53839904Y-35583809D01*
X53839904Y-35821904D01*
X53792285Y-35917142D01*
X53744666Y-35964761D01*
X53649428Y-36012380D01*
X53411333Y-36012380D01*
X53316095Y-35964761D01*
X53268476Y-35917142D01*
G04 #@! TO.C,R24*
X91892380Y-85478857D02*
X91416190Y-85812190D01*
X91892380Y-86050285D02*
X90892380Y-86050285D01*
X90892380Y-85669333D01*
X90940000Y-85574095D01*
X90987619Y-85526476D01*
X91082857Y-85478857D01*
X91225714Y-85478857D01*
X91320952Y-85526476D01*
X91368571Y-85574095D01*
X91416190Y-85669333D01*
X91416190Y-86050285D01*
X90987619Y-85097904D02*
X90940000Y-85050285D01*
X90892380Y-84955047D01*
X90892380Y-84716952D01*
X90940000Y-84621714D01*
X90987619Y-84574095D01*
X91082857Y-84526476D01*
X91178095Y-84526476D01*
X91320952Y-84574095D01*
X91892380Y-85145523D01*
X91892380Y-84526476D01*
X91225714Y-83669333D02*
X91892380Y-83669333D01*
X90844761Y-83907428D02*
X91559047Y-84145523D01*
X91559047Y-83526476D01*
G04 #@! TO.C,R23*
X94432380Y-85478857D02*
X93956190Y-85812190D01*
X94432380Y-86050285D02*
X93432380Y-86050285D01*
X93432380Y-85669333D01*
X93480000Y-85574095D01*
X93527619Y-85526476D01*
X93622857Y-85478857D01*
X93765714Y-85478857D01*
X93860952Y-85526476D01*
X93908571Y-85574095D01*
X93956190Y-85669333D01*
X93956190Y-86050285D01*
X93527619Y-85097904D02*
X93480000Y-85050285D01*
X93432380Y-84955047D01*
X93432380Y-84716952D01*
X93480000Y-84621714D01*
X93527619Y-84574095D01*
X93622857Y-84526476D01*
X93718095Y-84526476D01*
X93860952Y-84574095D01*
X94432380Y-85145523D01*
X94432380Y-84526476D01*
X93432380Y-84193142D02*
X93432380Y-83574095D01*
X93813333Y-83907428D01*
X93813333Y-83764571D01*
X93860952Y-83669333D01*
X93908571Y-83621714D01*
X94003809Y-83574095D01*
X94241904Y-83574095D01*
X94337142Y-83621714D01*
X94384761Y-83669333D01*
X94432380Y-83764571D01*
X94432380Y-84050285D01*
X94384761Y-84145523D01*
X94337142Y-84193142D01*
G04 #@! TO.C,R22*
X44569142Y-36012380D02*
X44235809Y-35536190D01*
X43997714Y-36012380D02*
X43997714Y-35012380D01*
X44378666Y-35012380D01*
X44473904Y-35060000D01*
X44521523Y-35107619D01*
X44569142Y-35202857D01*
X44569142Y-35345714D01*
X44521523Y-35440952D01*
X44473904Y-35488571D01*
X44378666Y-35536190D01*
X43997714Y-35536190D01*
X44950095Y-35107619D02*
X44997714Y-35060000D01*
X45092952Y-35012380D01*
X45331047Y-35012380D01*
X45426285Y-35060000D01*
X45473904Y-35107619D01*
X45521523Y-35202857D01*
X45521523Y-35298095D01*
X45473904Y-35440952D01*
X44902476Y-36012380D01*
X45521523Y-36012380D01*
X45902476Y-35107619D02*
X45950095Y-35060000D01*
X46045333Y-35012380D01*
X46283428Y-35012380D01*
X46378666Y-35060000D01*
X46426285Y-35107619D01*
X46473904Y-35202857D01*
X46473904Y-35298095D01*
X46426285Y-35440952D01*
X45854857Y-36012380D01*
X46473904Y-36012380D01*
G04 #@! TO.C,R21*
X96972380Y-85478857D02*
X96496190Y-85812190D01*
X96972380Y-86050285D02*
X95972380Y-86050285D01*
X95972380Y-85669333D01*
X96020000Y-85574095D01*
X96067619Y-85526476D01*
X96162857Y-85478857D01*
X96305714Y-85478857D01*
X96400952Y-85526476D01*
X96448571Y-85574095D01*
X96496190Y-85669333D01*
X96496190Y-86050285D01*
X96067619Y-85097904D02*
X96020000Y-85050285D01*
X95972380Y-84955047D01*
X95972380Y-84716952D01*
X96020000Y-84621714D01*
X96067619Y-84574095D01*
X96162857Y-84526476D01*
X96258095Y-84526476D01*
X96400952Y-84574095D01*
X96972380Y-85145523D01*
X96972380Y-84526476D01*
X96972380Y-83574095D02*
X96972380Y-84145523D01*
X96972380Y-83859809D02*
X95972380Y-83859809D01*
X96115238Y-83955047D01*
X96210476Y-84050285D01*
X96258095Y-84145523D01*
G04 #@! TO.C,R20*
X99512380Y-51950857D02*
X99036190Y-52284190D01*
X99512380Y-52522285D02*
X98512380Y-52522285D01*
X98512380Y-52141333D01*
X98560000Y-52046095D01*
X98607619Y-51998476D01*
X98702857Y-51950857D01*
X98845714Y-51950857D01*
X98940952Y-51998476D01*
X98988571Y-52046095D01*
X99036190Y-52141333D01*
X99036190Y-52522285D01*
X98607619Y-51569904D02*
X98560000Y-51522285D01*
X98512380Y-51427047D01*
X98512380Y-51188952D01*
X98560000Y-51093714D01*
X98607619Y-51046095D01*
X98702857Y-50998476D01*
X98798095Y-50998476D01*
X98940952Y-51046095D01*
X99512380Y-51617523D01*
X99512380Y-50998476D01*
X98512380Y-50379428D02*
X98512380Y-50284190D01*
X98560000Y-50188952D01*
X98607619Y-50141333D01*
X98702857Y-50093714D01*
X98893333Y-50046095D01*
X99131428Y-50046095D01*
X99321904Y-50093714D01*
X99417142Y-50141333D01*
X99464761Y-50188952D01*
X99512380Y-50284190D01*
X99512380Y-50379428D01*
X99464761Y-50474666D01*
X99417142Y-50522285D01*
X99321904Y-50569904D01*
X99131428Y-50617523D01*
X98893333Y-50617523D01*
X98702857Y-50569904D01*
X98607619Y-50522285D01*
X98560000Y-50474666D01*
X98512380Y-50379428D01*
G04 #@! TO.C,R19*
X32885142Y-37790380D02*
X32551809Y-37314190D01*
X32313714Y-37790380D02*
X32313714Y-36790380D01*
X32694666Y-36790380D01*
X32789904Y-36838000D01*
X32837523Y-36885619D01*
X32885142Y-36980857D01*
X32885142Y-37123714D01*
X32837523Y-37218952D01*
X32789904Y-37266571D01*
X32694666Y-37314190D01*
X32313714Y-37314190D01*
X33837523Y-37790380D02*
X33266095Y-37790380D01*
X33551809Y-37790380D02*
X33551809Y-36790380D01*
X33456571Y-36933238D01*
X33361333Y-37028476D01*
X33266095Y-37076095D01*
X34313714Y-37790380D02*
X34504190Y-37790380D01*
X34599428Y-37742761D01*
X34647047Y-37695142D01*
X34742285Y-37552285D01*
X34789904Y-37361809D01*
X34789904Y-36980857D01*
X34742285Y-36885619D01*
X34694666Y-36838000D01*
X34599428Y-36790380D01*
X34408952Y-36790380D01*
X34313714Y-36838000D01*
X34266095Y-36885619D01*
X34218476Y-36980857D01*
X34218476Y-37218952D01*
X34266095Y-37314190D01*
X34313714Y-37361809D01*
X34408952Y-37409428D01*
X34599428Y-37409428D01*
X34694666Y-37361809D01*
X34742285Y-37314190D01*
X34789904Y-37218952D01*
G04 #@! TO.C,R18*
X96972380Y-51950857D02*
X96496190Y-52284190D01*
X96972380Y-52522285D02*
X95972380Y-52522285D01*
X95972380Y-52141333D01*
X96020000Y-52046095D01*
X96067619Y-51998476D01*
X96162857Y-51950857D01*
X96305714Y-51950857D01*
X96400952Y-51998476D01*
X96448571Y-52046095D01*
X96496190Y-52141333D01*
X96496190Y-52522285D01*
X96972380Y-50998476D02*
X96972380Y-51569904D01*
X96972380Y-51284190D02*
X95972380Y-51284190D01*
X96115238Y-51379428D01*
X96210476Y-51474666D01*
X96258095Y-51569904D01*
X96400952Y-50427047D02*
X96353333Y-50522285D01*
X96305714Y-50569904D01*
X96210476Y-50617523D01*
X96162857Y-50617523D01*
X96067619Y-50569904D01*
X96020000Y-50522285D01*
X95972380Y-50427047D01*
X95972380Y-50236571D01*
X96020000Y-50141333D01*
X96067619Y-50093714D01*
X96162857Y-50046095D01*
X96210476Y-50046095D01*
X96305714Y-50093714D01*
X96353333Y-50141333D01*
X96400952Y-50236571D01*
X96400952Y-50427047D01*
X96448571Y-50522285D01*
X96496190Y-50569904D01*
X96591428Y-50617523D01*
X96781904Y-50617523D01*
X96877142Y-50569904D01*
X96924761Y-50522285D01*
X96972380Y-50427047D01*
X96972380Y-50236571D01*
X96924761Y-50141333D01*
X96877142Y-50093714D01*
X96781904Y-50046095D01*
X96591428Y-50046095D01*
X96496190Y-50093714D01*
X96448571Y-50141333D01*
X96400952Y-50236571D01*
G04 #@! TO.C,R17*
X27043142Y-37790380D02*
X26709809Y-37314190D01*
X26471714Y-37790380D02*
X26471714Y-36790380D01*
X26852666Y-36790380D01*
X26947904Y-36838000D01*
X26995523Y-36885619D01*
X27043142Y-36980857D01*
X27043142Y-37123714D01*
X26995523Y-37218952D01*
X26947904Y-37266571D01*
X26852666Y-37314190D01*
X26471714Y-37314190D01*
X27995523Y-37790380D02*
X27424095Y-37790380D01*
X27709809Y-37790380D02*
X27709809Y-36790380D01*
X27614571Y-36933238D01*
X27519333Y-37028476D01*
X27424095Y-37076095D01*
X28328857Y-36790380D02*
X28995523Y-36790380D01*
X28566952Y-37790380D01*
G04 #@! TO.C,R16*
X19677142Y-37790380D02*
X19343809Y-37314190D01*
X19105714Y-37790380D02*
X19105714Y-36790380D01*
X19486666Y-36790380D01*
X19581904Y-36838000D01*
X19629523Y-36885619D01*
X19677142Y-36980857D01*
X19677142Y-37123714D01*
X19629523Y-37218952D01*
X19581904Y-37266571D01*
X19486666Y-37314190D01*
X19105714Y-37314190D01*
X20629523Y-37790380D02*
X20058095Y-37790380D01*
X20343809Y-37790380D02*
X20343809Y-36790380D01*
X20248571Y-36933238D01*
X20153333Y-37028476D01*
X20058095Y-37076095D01*
X21486666Y-36790380D02*
X21296190Y-36790380D01*
X21200952Y-36838000D01*
X21153333Y-36885619D01*
X21058095Y-37028476D01*
X21010476Y-37218952D01*
X21010476Y-37599904D01*
X21058095Y-37695142D01*
X21105714Y-37742761D01*
X21200952Y-37790380D01*
X21391428Y-37790380D01*
X21486666Y-37742761D01*
X21534285Y-37695142D01*
X21581904Y-37599904D01*
X21581904Y-37361809D01*
X21534285Y-37266571D01*
X21486666Y-37218952D01*
X21391428Y-37171333D01*
X21200952Y-37171333D01*
X21105714Y-37218952D01*
X21058095Y-37266571D01*
X21010476Y-37361809D01*
G04 #@! TO.C,R15*
X100195142Y-102560380D02*
X99861809Y-102084190D01*
X99623714Y-102560380D02*
X99623714Y-101560380D01*
X100004666Y-101560380D01*
X100099904Y-101608000D01*
X100147523Y-101655619D01*
X100195142Y-101750857D01*
X100195142Y-101893714D01*
X100147523Y-101988952D01*
X100099904Y-102036571D01*
X100004666Y-102084190D01*
X99623714Y-102084190D01*
X101147523Y-102560380D02*
X100576095Y-102560380D01*
X100861809Y-102560380D02*
X100861809Y-101560380D01*
X100766571Y-101703238D01*
X100671333Y-101798476D01*
X100576095Y-101846095D01*
X102052285Y-101560380D02*
X101576095Y-101560380D01*
X101528476Y-102036571D01*
X101576095Y-101988952D01*
X101671333Y-101941333D01*
X101909428Y-101941333D01*
X102004666Y-101988952D01*
X102052285Y-102036571D01*
X102099904Y-102131809D01*
X102099904Y-102369904D01*
X102052285Y-102465142D01*
X102004666Y-102512761D01*
X101909428Y-102560380D01*
X101671333Y-102560380D01*
X101576095Y-102512761D01*
X101528476Y-102465142D01*
G04 #@! TO.C,R14*
X100449142Y-92654380D02*
X100115809Y-92178190D01*
X99877714Y-92654380D02*
X99877714Y-91654380D01*
X100258666Y-91654380D01*
X100353904Y-91702000D01*
X100401523Y-91749619D01*
X100449142Y-91844857D01*
X100449142Y-91987714D01*
X100401523Y-92082952D01*
X100353904Y-92130571D01*
X100258666Y-92178190D01*
X99877714Y-92178190D01*
X101401523Y-92654380D02*
X100830095Y-92654380D01*
X101115809Y-92654380D02*
X101115809Y-91654380D01*
X101020571Y-91797238D01*
X100925333Y-91892476D01*
X100830095Y-91940095D01*
X102258666Y-91987714D02*
X102258666Y-92654380D01*
X102020571Y-91606761D02*
X101782476Y-92321047D01*
X102401523Y-92321047D01*
G04 #@! TO.C,R13*
X103751142Y-102560380D02*
X103417809Y-102084190D01*
X103179714Y-102560380D02*
X103179714Y-101560380D01*
X103560666Y-101560380D01*
X103655904Y-101608000D01*
X103703523Y-101655619D01*
X103751142Y-101750857D01*
X103751142Y-101893714D01*
X103703523Y-101988952D01*
X103655904Y-102036571D01*
X103560666Y-102084190D01*
X103179714Y-102084190D01*
X104703523Y-102560380D02*
X104132095Y-102560380D01*
X104417809Y-102560380D02*
X104417809Y-101560380D01*
X104322571Y-101703238D01*
X104227333Y-101798476D01*
X104132095Y-101846095D01*
X105036857Y-101560380D02*
X105655904Y-101560380D01*
X105322571Y-101941333D01*
X105465428Y-101941333D01*
X105560666Y-101988952D01*
X105608285Y-102036571D01*
X105655904Y-102131809D01*
X105655904Y-102369904D01*
X105608285Y-102465142D01*
X105560666Y-102512761D01*
X105465428Y-102560380D01*
X105179714Y-102560380D01*
X105084476Y-102512761D01*
X105036857Y-102465142D01*
G04 #@! TO.C,R12*
X106545142Y-91130380D02*
X106211809Y-90654190D01*
X105973714Y-91130380D02*
X105973714Y-90130380D01*
X106354666Y-90130380D01*
X106449904Y-90178000D01*
X106497523Y-90225619D01*
X106545142Y-90320857D01*
X106545142Y-90463714D01*
X106497523Y-90558952D01*
X106449904Y-90606571D01*
X106354666Y-90654190D01*
X105973714Y-90654190D01*
X107497523Y-91130380D02*
X106926095Y-91130380D01*
X107211809Y-91130380D02*
X107211809Y-90130380D01*
X107116571Y-90273238D01*
X107021333Y-90368476D01*
X106926095Y-90416095D01*
X107878476Y-90225619D02*
X107926095Y-90178000D01*
X108021333Y-90130380D01*
X108259428Y-90130380D01*
X108354666Y-90178000D01*
X108402285Y-90225619D01*
X108449904Y-90320857D01*
X108449904Y-90416095D01*
X108402285Y-90558952D01*
X107830857Y-91130380D01*
X108449904Y-91130380D01*
G04 #@! TO.C,R11*
X65143142Y-95702380D02*
X64809809Y-95226190D01*
X64571714Y-95702380D02*
X64571714Y-94702380D01*
X64952666Y-94702380D01*
X65047904Y-94750000D01*
X65095523Y-94797619D01*
X65143142Y-94892857D01*
X65143142Y-95035714D01*
X65095523Y-95130952D01*
X65047904Y-95178571D01*
X64952666Y-95226190D01*
X64571714Y-95226190D01*
X66095523Y-95702380D02*
X65524095Y-95702380D01*
X65809809Y-95702380D02*
X65809809Y-94702380D01*
X65714571Y-94845238D01*
X65619333Y-94940476D01*
X65524095Y-94988095D01*
X67047904Y-95702380D02*
X66476476Y-95702380D01*
X66762190Y-95702380D02*
X66762190Y-94702380D01*
X66666952Y-94845238D01*
X66571714Y-94940476D01*
X66476476Y-94988095D01*
G04 #@! TO.C,R10*
X68445142Y-95702380D02*
X68111809Y-95226190D01*
X67873714Y-95702380D02*
X67873714Y-94702380D01*
X68254666Y-94702380D01*
X68349904Y-94750000D01*
X68397523Y-94797619D01*
X68445142Y-94892857D01*
X68445142Y-95035714D01*
X68397523Y-95130952D01*
X68349904Y-95178571D01*
X68254666Y-95226190D01*
X67873714Y-95226190D01*
X69397523Y-95702380D02*
X68826095Y-95702380D01*
X69111809Y-95702380D02*
X69111809Y-94702380D01*
X69016571Y-94845238D01*
X68921333Y-94940476D01*
X68826095Y-94988095D01*
X70016571Y-94702380D02*
X70111809Y-94702380D01*
X70207047Y-94750000D01*
X70254666Y-94797619D01*
X70302285Y-94892857D01*
X70349904Y-95083333D01*
X70349904Y-95321428D01*
X70302285Y-95511904D01*
X70254666Y-95607142D01*
X70207047Y-95654761D01*
X70111809Y-95702380D01*
X70016571Y-95702380D01*
X69921333Y-95654761D01*
X69873714Y-95607142D01*
X69826095Y-95511904D01*
X69778476Y-95321428D01*
X69778476Y-95083333D01*
X69826095Y-94892857D01*
X69873714Y-94797619D01*
X69921333Y-94750000D01*
X70016571Y-94702380D01*
G04 #@! TO.C,R9*
X79081333Y-95702380D02*
X78748000Y-95226190D01*
X78509904Y-95702380D02*
X78509904Y-94702380D01*
X78890857Y-94702380D01*
X78986095Y-94750000D01*
X79033714Y-94797619D01*
X79081333Y-94892857D01*
X79081333Y-95035714D01*
X79033714Y-95130952D01*
X78986095Y-95178571D01*
X78890857Y-95226190D01*
X78509904Y-95226190D01*
X79557523Y-95702380D02*
X79748000Y-95702380D01*
X79843238Y-95654761D01*
X79890857Y-95607142D01*
X79986095Y-95464285D01*
X80033714Y-95273809D01*
X80033714Y-94892857D01*
X79986095Y-94797619D01*
X79938476Y-94750000D01*
X79843238Y-94702380D01*
X79652761Y-94702380D01*
X79557523Y-94750000D01*
X79509904Y-94797619D01*
X79462285Y-94892857D01*
X79462285Y-95130952D01*
X79509904Y-95226190D01*
X79557523Y-95273809D01*
X79652761Y-95321428D01*
X79843238Y-95321428D01*
X79938476Y-95273809D01*
X79986095Y-95226190D01*
X80033714Y-95130952D01*
G04 #@! TO.C,R8*
X88987333Y-110180380D02*
X88654000Y-109704190D01*
X88415904Y-110180380D02*
X88415904Y-109180380D01*
X88796857Y-109180380D01*
X88892095Y-109228000D01*
X88939714Y-109275619D01*
X88987333Y-109370857D01*
X88987333Y-109513714D01*
X88939714Y-109608952D01*
X88892095Y-109656571D01*
X88796857Y-109704190D01*
X88415904Y-109704190D01*
X89558761Y-109608952D02*
X89463523Y-109561333D01*
X89415904Y-109513714D01*
X89368285Y-109418476D01*
X89368285Y-109370857D01*
X89415904Y-109275619D01*
X89463523Y-109228000D01*
X89558761Y-109180380D01*
X89749238Y-109180380D01*
X89844476Y-109228000D01*
X89892095Y-109275619D01*
X89939714Y-109370857D01*
X89939714Y-109418476D01*
X89892095Y-109513714D01*
X89844476Y-109561333D01*
X89749238Y-109608952D01*
X89558761Y-109608952D01*
X89463523Y-109656571D01*
X89415904Y-109704190D01*
X89368285Y-109799428D01*
X89368285Y-109989904D01*
X89415904Y-110085142D01*
X89463523Y-110132761D01*
X89558761Y-110180380D01*
X89749238Y-110180380D01*
X89844476Y-110132761D01*
X89892095Y-110085142D01*
X89939714Y-109989904D01*
X89939714Y-109799428D01*
X89892095Y-109704190D01*
X89844476Y-109656571D01*
X89749238Y-109608952D01*
G04 #@! TO.C,R7*
X19137333Y-81986380D02*
X18804000Y-81510190D01*
X18565904Y-81986380D02*
X18565904Y-80986380D01*
X18946857Y-80986380D01*
X19042095Y-81034000D01*
X19089714Y-81081619D01*
X19137333Y-81176857D01*
X19137333Y-81319714D01*
X19089714Y-81414952D01*
X19042095Y-81462571D01*
X18946857Y-81510190D01*
X18565904Y-81510190D01*
X19470666Y-80986380D02*
X20137333Y-80986380D01*
X19708761Y-81986380D01*
G04 #@! TO.C,R6*
X110831333Y-94178380D02*
X110498000Y-93702190D01*
X110259904Y-94178380D02*
X110259904Y-93178380D01*
X110640857Y-93178380D01*
X110736095Y-93226000D01*
X110783714Y-93273619D01*
X110831333Y-93368857D01*
X110831333Y-93511714D01*
X110783714Y-93606952D01*
X110736095Y-93654571D01*
X110640857Y-93702190D01*
X110259904Y-93702190D01*
X111688476Y-93178380D02*
X111498000Y-93178380D01*
X111402761Y-93226000D01*
X111355142Y-93273619D01*
X111259904Y-93416476D01*
X111212285Y-93606952D01*
X111212285Y-93987904D01*
X111259904Y-94083142D01*
X111307523Y-94130761D01*
X111402761Y-94178380D01*
X111593238Y-94178380D01*
X111688476Y-94130761D01*
X111736095Y-94083142D01*
X111783714Y-93987904D01*
X111783714Y-93749809D01*
X111736095Y-93654571D01*
X111688476Y-93606952D01*
X111593238Y-93559333D01*
X111402761Y-93559333D01*
X111307523Y-93606952D01*
X111259904Y-93654571D01*
X111212285Y-93749809D01*
G04 #@! TO.C,R5*
X90511333Y-94686380D02*
X90178000Y-94210190D01*
X89939904Y-94686380D02*
X89939904Y-93686380D01*
X90320857Y-93686380D01*
X90416095Y-93734000D01*
X90463714Y-93781619D01*
X90511333Y-93876857D01*
X90511333Y-94019714D01*
X90463714Y-94114952D01*
X90416095Y-94162571D01*
X90320857Y-94210190D01*
X89939904Y-94210190D01*
X91416095Y-93686380D02*
X90939904Y-93686380D01*
X90892285Y-94162571D01*
X90939904Y-94114952D01*
X91035142Y-94067333D01*
X91273238Y-94067333D01*
X91368476Y-94114952D01*
X91416095Y-94162571D01*
X91463714Y-94257809D01*
X91463714Y-94495904D01*
X91416095Y-94591142D01*
X91368476Y-94638761D01*
X91273238Y-94686380D01*
X91035142Y-94686380D01*
X90939904Y-94638761D01*
X90892285Y-94591142D01*
G04 #@! TO.C,R4*
X76033333Y-95702380D02*
X75700000Y-95226190D01*
X75461904Y-95702380D02*
X75461904Y-94702380D01*
X75842857Y-94702380D01*
X75938095Y-94750000D01*
X75985714Y-94797619D01*
X76033333Y-94892857D01*
X76033333Y-95035714D01*
X75985714Y-95130952D01*
X75938095Y-95178571D01*
X75842857Y-95226190D01*
X75461904Y-95226190D01*
X76890476Y-95035714D02*
X76890476Y-95702380D01*
X76652380Y-94654761D02*
X76414285Y-95369047D01*
X77033333Y-95369047D01*
G04 #@! TO.C,R3*
X92035333Y-110180380D02*
X91702000Y-109704190D01*
X91463904Y-110180380D02*
X91463904Y-109180380D01*
X91844857Y-109180380D01*
X91940095Y-109228000D01*
X91987714Y-109275619D01*
X92035333Y-109370857D01*
X92035333Y-109513714D01*
X91987714Y-109608952D01*
X91940095Y-109656571D01*
X91844857Y-109704190D01*
X91463904Y-109704190D01*
X92368666Y-109180380D02*
X92987714Y-109180380D01*
X92654380Y-109561333D01*
X92797238Y-109561333D01*
X92892476Y-109608952D01*
X92940095Y-109656571D01*
X92987714Y-109751809D01*
X92987714Y-109989904D01*
X92940095Y-110085142D01*
X92892476Y-110132761D01*
X92797238Y-110180380D01*
X92511523Y-110180380D01*
X92416285Y-110132761D01*
X92368666Y-110085142D01*
G04 #@! TO.C,R2*
X114387333Y-94178380D02*
X114054000Y-93702190D01*
X113815904Y-94178380D02*
X113815904Y-93178380D01*
X114196857Y-93178380D01*
X114292095Y-93226000D01*
X114339714Y-93273619D01*
X114387333Y-93368857D01*
X114387333Y-93511714D01*
X114339714Y-93606952D01*
X114292095Y-93654571D01*
X114196857Y-93702190D01*
X113815904Y-93702190D01*
X114768285Y-93273619D02*
X114815904Y-93226000D01*
X114911142Y-93178380D01*
X115149238Y-93178380D01*
X115244476Y-93226000D01*
X115292095Y-93273619D01*
X115339714Y-93368857D01*
X115339714Y-93464095D01*
X115292095Y-93606952D01*
X114720666Y-94178380D01*
X115339714Y-94178380D01*
G04 #@! TO.C,R1*
X94067333Y-94686380D02*
X93734000Y-94210190D01*
X93495904Y-94686380D02*
X93495904Y-93686380D01*
X93876857Y-93686380D01*
X93972095Y-93734000D01*
X94019714Y-93781619D01*
X94067333Y-93876857D01*
X94067333Y-94019714D01*
X94019714Y-94114952D01*
X93972095Y-94162571D01*
X93876857Y-94210190D01*
X93495904Y-94210190D01*
X95019714Y-94686380D02*
X94448285Y-94686380D01*
X94734000Y-94686380D02*
X94734000Y-93686380D01*
X94638761Y-93829238D01*
X94543523Y-93924476D01*
X94448285Y-93972095D01*
G04 #@! TO.C,Analog*
X42648476Y-83986666D02*
X43124666Y-83986666D01*
X42553238Y-84272380D02*
X42886571Y-83272380D01*
X43219904Y-84272380D01*
X43553238Y-83605714D02*
X43553238Y-84272380D01*
X43553238Y-83700952D02*
X43600857Y-83653333D01*
X43696095Y-83605714D01*
X43838952Y-83605714D01*
X43934190Y-83653333D01*
X43981809Y-83748571D01*
X43981809Y-84272380D01*
X44886571Y-84272380D02*
X44886571Y-83748571D01*
X44838952Y-83653333D01*
X44743714Y-83605714D01*
X44553238Y-83605714D01*
X44458000Y-83653333D01*
X44886571Y-84224761D02*
X44791333Y-84272380D01*
X44553238Y-84272380D01*
X44458000Y-84224761D01*
X44410380Y-84129523D01*
X44410380Y-84034285D01*
X44458000Y-83939047D01*
X44553238Y-83891428D01*
X44791333Y-83891428D01*
X44886571Y-83843809D01*
X45505619Y-84272380D02*
X45410380Y-84224761D01*
X45362761Y-84129523D01*
X45362761Y-83272380D01*
X46029428Y-84272380D02*
X45934190Y-84224761D01*
X45886571Y-84177142D01*
X45838952Y-84081904D01*
X45838952Y-83796190D01*
X45886571Y-83700952D01*
X45934190Y-83653333D01*
X46029428Y-83605714D01*
X46172285Y-83605714D01*
X46267523Y-83653333D01*
X46315142Y-83700952D01*
X46362761Y-83796190D01*
X46362761Y-84081904D01*
X46315142Y-84177142D01*
X46267523Y-84224761D01*
X46172285Y-84272380D01*
X46029428Y-84272380D01*
X47219904Y-83605714D02*
X47219904Y-84415238D01*
X47172285Y-84510476D01*
X47124666Y-84558095D01*
X47029428Y-84605714D01*
X46886571Y-84605714D01*
X46791333Y-84558095D01*
X47219904Y-84224761D02*
X47124666Y-84272380D01*
X46934190Y-84272380D01*
X46838952Y-84224761D01*
X46791333Y-84177142D01*
X46743714Y-84081904D01*
X46743714Y-83796190D01*
X46791333Y-83700952D01*
X46838952Y-83653333D01*
X46934190Y-83605714D01*
X47124666Y-83605714D01*
X47219904Y-83653333D01*
G04 #@! TO.C,Digital*
X17367523Y-84272380D02*
X17367523Y-83272380D01*
X17605619Y-83272380D01*
X17748476Y-83320000D01*
X17843714Y-83415238D01*
X17891333Y-83510476D01*
X17938952Y-83700952D01*
X17938952Y-83843809D01*
X17891333Y-84034285D01*
X17843714Y-84129523D01*
X17748476Y-84224761D01*
X17605619Y-84272380D01*
X17367523Y-84272380D01*
X18367523Y-84272380D02*
X18367523Y-83605714D01*
X18367523Y-83272380D02*
X18319904Y-83320000D01*
X18367523Y-83367619D01*
X18415142Y-83320000D01*
X18367523Y-83272380D01*
X18367523Y-83367619D01*
X19272285Y-83605714D02*
X19272285Y-84415238D01*
X19224666Y-84510476D01*
X19177047Y-84558095D01*
X19081809Y-84605714D01*
X18938952Y-84605714D01*
X18843714Y-84558095D01*
X19272285Y-84224761D02*
X19177047Y-84272380D01*
X18986571Y-84272380D01*
X18891333Y-84224761D01*
X18843714Y-84177142D01*
X18796095Y-84081904D01*
X18796095Y-83796190D01*
X18843714Y-83700952D01*
X18891333Y-83653333D01*
X18986571Y-83605714D01*
X19177047Y-83605714D01*
X19272285Y-83653333D01*
X19748476Y-84272380D02*
X19748476Y-83605714D01*
X19748476Y-83272380D02*
X19700857Y-83320000D01*
X19748476Y-83367619D01*
X19796095Y-83320000D01*
X19748476Y-83272380D01*
X19748476Y-83367619D01*
X20081809Y-83605714D02*
X20462761Y-83605714D01*
X20224666Y-83272380D02*
X20224666Y-84129523D01*
X20272285Y-84224761D01*
X20367523Y-84272380D01*
X20462761Y-84272380D01*
X21224666Y-84272380D02*
X21224666Y-83748571D01*
X21177047Y-83653333D01*
X21081809Y-83605714D01*
X20891333Y-83605714D01*
X20796095Y-83653333D01*
X21224666Y-84224761D02*
X21129428Y-84272380D01*
X20891333Y-84272380D01*
X20796095Y-84224761D01*
X20748476Y-84129523D01*
X20748476Y-84034285D01*
X20796095Y-83939047D01*
X20891333Y-83891428D01*
X21129428Y-83891428D01*
X21224666Y-83843809D01*
X21843714Y-84272380D02*
X21748476Y-84224761D01*
X21700857Y-84129523D01*
X21700857Y-83272380D01*
G04 #@! TO.C,J4*
X61134666Y-93202380D02*
X61134666Y-93916666D01*
X61087047Y-94059523D01*
X60991809Y-94154761D01*
X60848952Y-94202380D01*
X60753714Y-94202380D01*
X62039428Y-93535714D02*
X62039428Y-94202380D01*
X61801333Y-93154761D02*
X61563238Y-93869047D01*
X62182285Y-93869047D01*
G04 #@! TO.C,J3*
X57578666Y-93202380D02*
X57578666Y-93916666D01*
X57531047Y-94059523D01*
X57435809Y-94154761D01*
X57292952Y-94202380D01*
X57197714Y-94202380D01*
X57959619Y-93202380D02*
X58578666Y-93202380D01*
X58245333Y-93583333D01*
X58388190Y-93583333D01*
X58483428Y-93630952D01*
X58531047Y-93678571D01*
X58578666Y-93773809D01*
X58578666Y-94011904D01*
X58531047Y-94107142D01*
X58483428Y-94154761D01*
X58388190Y-94202380D01*
X58102476Y-94202380D01*
X58007238Y-94154761D01*
X57959619Y-94107142D01*
G04 #@! TO.C,J2*
X54022666Y-93202380D02*
X54022666Y-93916666D01*
X53975047Y-94059523D01*
X53879809Y-94154761D01*
X53736952Y-94202380D01*
X53641714Y-94202380D01*
X54451238Y-93297619D02*
X54498857Y-93250000D01*
X54594095Y-93202380D01*
X54832190Y-93202380D01*
X54927428Y-93250000D01*
X54975047Y-93297619D01*
X55022666Y-93392857D01*
X55022666Y-93488095D01*
X54975047Y-93630952D01*
X54403619Y-94202380D01*
X55022666Y-94202380D01*
G04 #@! TO.C,J1*
X50466666Y-93202380D02*
X50466666Y-93916666D01*
X50419047Y-94059523D01*
X50323809Y-94154761D01*
X50180952Y-94202380D01*
X50085714Y-94202380D01*
X51466666Y-94202380D02*
X50895238Y-94202380D01*
X51180952Y-94202380D02*
X51180952Y-93202380D01*
X51085714Y-93345238D01*
X50990476Y-93440476D01*
X50895238Y-93488095D01*
G04 #@! TO.C,2 x 7 Segment *
X86923619Y-73952952D02*
X86876000Y-73905333D01*
X86828380Y-73810095D01*
X86828380Y-73572000D01*
X86876000Y-73476761D01*
X86923619Y-73429142D01*
X87018857Y-73381523D01*
X87114095Y-73381523D01*
X87256952Y-73429142D01*
X87828380Y-74000571D01*
X87828380Y-73381523D01*
X87828380Y-72286285D02*
X87161714Y-71762476D01*
X87161714Y-72286285D02*
X87828380Y-71762476D01*
X86828380Y-70714857D02*
X86828380Y-70048190D01*
X87828380Y-70476761D01*
X87780761Y-68952952D02*
X87828380Y-68810095D01*
X87828380Y-68572000D01*
X87780761Y-68476761D01*
X87733142Y-68429142D01*
X87637904Y-68381523D01*
X87542666Y-68381523D01*
X87447428Y-68429142D01*
X87399809Y-68476761D01*
X87352190Y-68572000D01*
X87304571Y-68762476D01*
X87256952Y-68857714D01*
X87209333Y-68905333D01*
X87114095Y-68952952D01*
X87018857Y-68952952D01*
X86923619Y-68905333D01*
X86876000Y-68857714D01*
X86828380Y-68762476D01*
X86828380Y-68524380D01*
X86876000Y-68381523D01*
X87780761Y-67572000D02*
X87828380Y-67667238D01*
X87828380Y-67857714D01*
X87780761Y-67952952D01*
X87685523Y-68000571D01*
X87304571Y-68000571D01*
X87209333Y-67952952D01*
X87161714Y-67857714D01*
X87161714Y-67667238D01*
X87209333Y-67572000D01*
X87304571Y-67524380D01*
X87399809Y-67524380D01*
X87495047Y-68000571D01*
X87161714Y-66667238D02*
X87971238Y-66667238D01*
X88066476Y-66714857D01*
X88114095Y-66762476D01*
X88161714Y-66857714D01*
X88161714Y-67000571D01*
X88114095Y-67095809D01*
X87780761Y-66667238D02*
X87828380Y-66762476D01*
X87828380Y-66952952D01*
X87780761Y-67048190D01*
X87733142Y-67095809D01*
X87637904Y-67143428D01*
X87352190Y-67143428D01*
X87256952Y-67095809D01*
X87209333Y-67048190D01*
X87161714Y-66952952D01*
X87161714Y-66762476D01*
X87209333Y-66667238D01*
X87828380Y-66191047D02*
X87161714Y-66191047D01*
X87256952Y-66191047D02*
X87209333Y-66143428D01*
X87161714Y-66048190D01*
X87161714Y-65905333D01*
X87209333Y-65810095D01*
X87304571Y-65762476D01*
X87828380Y-65762476D01*
X87304571Y-65762476D02*
X87209333Y-65714857D01*
X87161714Y-65619619D01*
X87161714Y-65476761D01*
X87209333Y-65381523D01*
X87304571Y-65333904D01*
X87828380Y-65333904D01*
X87780761Y-64476761D02*
X87828380Y-64572000D01*
X87828380Y-64762476D01*
X87780761Y-64857714D01*
X87685523Y-64905333D01*
X87304571Y-64905333D01*
X87209333Y-64857714D01*
X87161714Y-64762476D01*
X87161714Y-64572000D01*
X87209333Y-64476761D01*
X87304571Y-64429142D01*
X87399809Y-64429142D01*
X87495047Y-64905333D01*
X87161714Y-64000571D02*
X87828380Y-64000571D01*
X87256952Y-64000571D02*
X87209333Y-63952952D01*
X87161714Y-63857714D01*
X87161714Y-63714857D01*
X87209333Y-63619619D01*
X87304571Y-63572000D01*
X87828380Y-63572000D01*
X87161714Y-63238666D02*
X87161714Y-62857714D01*
X86828380Y-63095809D02*
X87685523Y-63095809D01*
X87780761Y-63048190D01*
X87828380Y-62952952D01*
X87828380Y-62857714D01*
G04 #@! TO.C,IR LED*
X110283904Y-25090380D02*
X110283904Y-24090380D01*
X111331523Y-25090380D02*
X110998190Y-24614190D01*
X110760095Y-25090380D02*
X110760095Y-24090380D01*
X111141047Y-24090380D01*
X111236285Y-24138000D01*
X111283904Y-24185619D01*
X111331523Y-24280857D01*
X111331523Y-24423714D01*
X111283904Y-24518952D01*
X111236285Y-24566571D01*
X111141047Y-24614190D01*
X110760095Y-24614190D01*
X112998190Y-25090380D02*
X112522000Y-25090380D01*
X112522000Y-24090380D01*
X113331523Y-24566571D02*
X113664857Y-24566571D01*
X113807714Y-25090380D02*
X113331523Y-25090380D01*
X113331523Y-24090380D01*
X113807714Y-24090380D01*
X114236285Y-25090380D02*
X114236285Y-24090380D01*
X114474380Y-24090380D01*
X114617238Y-24138000D01*
X114712476Y-24233238D01*
X114760095Y-24328476D01*
X114807714Y-24518952D01*
X114807714Y-24661809D01*
X114760095Y-24852285D01*
X114712476Y-24947523D01*
X114617238Y-25042761D01*
X114474380Y-25090380D01*
X114236285Y-25090380D01*
G04 #@! TO.C,D16*
X67873714Y-32202380D02*
X67873714Y-31202380D01*
X68111809Y-31202380D01*
X68254666Y-31250000D01*
X68349904Y-31345238D01*
X68397523Y-31440476D01*
X68445142Y-31630952D01*
X68445142Y-31773809D01*
X68397523Y-31964285D01*
X68349904Y-32059523D01*
X68254666Y-32154761D01*
X68111809Y-32202380D01*
X67873714Y-32202380D01*
X69397523Y-32202380D02*
X68826095Y-32202380D01*
X69111809Y-32202380D02*
X69111809Y-31202380D01*
X69016571Y-31345238D01*
X68921333Y-31440476D01*
X68826095Y-31488095D01*
X70254666Y-31202380D02*
X70064190Y-31202380D01*
X69968952Y-31250000D01*
X69921333Y-31297619D01*
X69826095Y-31440476D01*
X69778476Y-31630952D01*
X69778476Y-32011904D01*
X69826095Y-32107142D01*
X69873714Y-32154761D01*
X69968952Y-32202380D01*
X70159428Y-32202380D01*
X70254666Y-32154761D01*
X70302285Y-32107142D01*
X70349904Y-32011904D01*
X70349904Y-31773809D01*
X70302285Y-31678571D01*
X70254666Y-31630952D01*
X70159428Y-31583333D01*
X69968952Y-31583333D01*
X69873714Y-31630952D01*
X69826095Y-31678571D01*
X69778476Y-31773809D01*
G04 #@! TO.C,D15*
X60507714Y-32202380D02*
X60507714Y-31202380D01*
X60745809Y-31202380D01*
X60888666Y-31250000D01*
X60983904Y-31345238D01*
X61031523Y-31440476D01*
X61079142Y-31630952D01*
X61079142Y-31773809D01*
X61031523Y-31964285D01*
X60983904Y-32059523D01*
X60888666Y-32154761D01*
X60745809Y-32202380D01*
X60507714Y-32202380D01*
X62031523Y-32202380D02*
X61460095Y-32202380D01*
X61745809Y-32202380D02*
X61745809Y-31202380D01*
X61650571Y-31345238D01*
X61555333Y-31440476D01*
X61460095Y-31488095D01*
X62936285Y-31202380D02*
X62460095Y-31202380D01*
X62412476Y-31678571D01*
X62460095Y-31630952D01*
X62555333Y-31583333D01*
X62793428Y-31583333D01*
X62888666Y-31630952D01*
X62936285Y-31678571D01*
X62983904Y-31773809D01*
X62983904Y-32011904D01*
X62936285Y-32107142D01*
X62888666Y-32154761D01*
X62793428Y-32202380D01*
X62555333Y-32202380D01*
X62460095Y-32154761D01*
X62412476Y-32107142D01*
G04 #@! TO.C,D14*
X53141714Y-32202380D02*
X53141714Y-31202380D01*
X53379809Y-31202380D01*
X53522666Y-31250000D01*
X53617904Y-31345238D01*
X53665523Y-31440476D01*
X53713142Y-31630952D01*
X53713142Y-31773809D01*
X53665523Y-31964285D01*
X53617904Y-32059523D01*
X53522666Y-32154761D01*
X53379809Y-32202380D01*
X53141714Y-32202380D01*
X54665523Y-32202380D02*
X54094095Y-32202380D01*
X54379809Y-32202380D02*
X54379809Y-31202380D01*
X54284571Y-31345238D01*
X54189333Y-31440476D01*
X54094095Y-31488095D01*
X55522666Y-31535714D02*
X55522666Y-32202380D01*
X55284571Y-31154761D02*
X55046476Y-31869047D01*
X55665523Y-31869047D01*
G04 #@! TO.C,D13*
X45775714Y-32202380D02*
X45775714Y-31202380D01*
X46013809Y-31202380D01*
X46156666Y-31250000D01*
X46251904Y-31345238D01*
X46299523Y-31440476D01*
X46347142Y-31630952D01*
X46347142Y-31773809D01*
X46299523Y-31964285D01*
X46251904Y-32059523D01*
X46156666Y-32154761D01*
X46013809Y-32202380D01*
X45775714Y-32202380D01*
X47299523Y-32202380D02*
X46728095Y-32202380D01*
X47013809Y-32202380D02*
X47013809Y-31202380D01*
X46918571Y-31345238D01*
X46823333Y-31440476D01*
X46728095Y-31488095D01*
X47632857Y-31202380D02*
X48251904Y-31202380D01*
X47918571Y-31583333D01*
X48061428Y-31583333D01*
X48156666Y-31630952D01*
X48204285Y-31678571D01*
X48251904Y-31773809D01*
X48251904Y-32011904D01*
X48204285Y-32107142D01*
X48156666Y-32154761D01*
X48061428Y-32202380D01*
X47775714Y-32202380D01*
X47680476Y-32154761D01*
X47632857Y-32107142D01*
G04 #@! TO.C,D12*
X38409714Y-32202380D02*
X38409714Y-31202380D01*
X38647809Y-31202380D01*
X38790666Y-31250000D01*
X38885904Y-31345238D01*
X38933523Y-31440476D01*
X38981142Y-31630952D01*
X38981142Y-31773809D01*
X38933523Y-31964285D01*
X38885904Y-32059523D01*
X38790666Y-32154761D01*
X38647809Y-32202380D01*
X38409714Y-32202380D01*
X39933523Y-32202380D02*
X39362095Y-32202380D01*
X39647809Y-32202380D02*
X39647809Y-31202380D01*
X39552571Y-31345238D01*
X39457333Y-31440476D01*
X39362095Y-31488095D01*
X40314476Y-31297619D02*
X40362095Y-31250000D01*
X40457333Y-31202380D01*
X40695428Y-31202380D01*
X40790666Y-31250000D01*
X40838285Y-31297619D01*
X40885904Y-31392857D01*
X40885904Y-31488095D01*
X40838285Y-31630952D01*
X40266857Y-32202380D01*
X40885904Y-32202380D01*
G04 #@! TO.C,D11*
X31297714Y-32202380D02*
X31297714Y-31202380D01*
X31535809Y-31202380D01*
X31678666Y-31250000D01*
X31773904Y-31345238D01*
X31821523Y-31440476D01*
X31869142Y-31630952D01*
X31869142Y-31773809D01*
X31821523Y-31964285D01*
X31773904Y-32059523D01*
X31678666Y-32154761D01*
X31535809Y-32202380D01*
X31297714Y-32202380D01*
X32821523Y-32202380D02*
X32250095Y-32202380D01*
X32535809Y-32202380D02*
X32535809Y-31202380D01*
X32440571Y-31345238D01*
X32345333Y-31440476D01*
X32250095Y-31488095D01*
X33773904Y-32202380D02*
X33202476Y-32202380D01*
X33488190Y-32202380D02*
X33488190Y-31202380D01*
X33392952Y-31345238D01*
X33297714Y-31440476D01*
X33202476Y-31488095D01*
G04 #@! TO.C,D10*
X23677714Y-32202380D02*
X23677714Y-31202380D01*
X23915809Y-31202380D01*
X24058666Y-31250000D01*
X24153904Y-31345238D01*
X24201523Y-31440476D01*
X24249142Y-31630952D01*
X24249142Y-31773809D01*
X24201523Y-31964285D01*
X24153904Y-32059523D01*
X24058666Y-32154761D01*
X23915809Y-32202380D01*
X23677714Y-32202380D01*
X25201523Y-32202380D02*
X24630095Y-32202380D01*
X24915809Y-32202380D02*
X24915809Y-31202380D01*
X24820571Y-31345238D01*
X24725333Y-31440476D01*
X24630095Y-31488095D01*
X25820571Y-31202380D02*
X25915809Y-31202380D01*
X26011047Y-31250000D01*
X26058666Y-31297619D01*
X26106285Y-31392857D01*
X26153904Y-31583333D01*
X26153904Y-31821428D01*
X26106285Y-32011904D01*
X26058666Y-32107142D01*
X26011047Y-32154761D01*
X25915809Y-32202380D01*
X25820571Y-32202380D01*
X25725333Y-32154761D01*
X25677714Y-32107142D01*
X25630095Y-32011904D01*
X25582476Y-31821428D01*
X25582476Y-31583333D01*
X25630095Y-31392857D01*
X25677714Y-31297619D01*
X25725333Y-31250000D01*
X25820571Y-31202380D01*
G04 #@! TO.C,D9*
X17041904Y-32202380D02*
X17041904Y-31202380D01*
X17280000Y-31202380D01*
X17422857Y-31250000D01*
X17518095Y-31345238D01*
X17565714Y-31440476D01*
X17613333Y-31630952D01*
X17613333Y-31773809D01*
X17565714Y-31964285D01*
X17518095Y-32059523D01*
X17422857Y-32154761D01*
X17280000Y-32202380D01*
X17041904Y-32202380D01*
X18089523Y-32202380D02*
X18280000Y-32202380D01*
X18375238Y-32154761D01*
X18422857Y-32107142D01*
X18518095Y-31964285D01*
X18565714Y-31773809D01*
X18565714Y-31392857D01*
X18518095Y-31297619D01*
X18470476Y-31250000D01*
X18375238Y-31202380D01*
X18184761Y-31202380D01*
X18089523Y-31250000D01*
X18041904Y-31297619D01*
X17994285Y-31392857D01*
X17994285Y-31630952D01*
X18041904Y-31726190D01*
X18089523Y-31773809D01*
X18184761Y-31821428D01*
X18375238Y-31821428D01*
X18470476Y-31773809D01*
X18518095Y-31726190D01*
X18565714Y-31630952D01*
G04 #@! TO.C,C8*
X97115333Y-102465142D02*
X97067714Y-102512761D01*
X96924857Y-102560380D01*
X96829619Y-102560380D01*
X96686761Y-102512761D01*
X96591523Y-102417523D01*
X96543904Y-102322285D01*
X96496285Y-102131809D01*
X96496285Y-101988952D01*
X96543904Y-101798476D01*
X96591523Y-101703238D01*
X96686761Y-101608000D01*
X96829619Y-101560380D01*
X96924857Y-101560380D01*
X97067714Y-101608000D01*
X97115333Y-101655619D01*
X97686761Y-101988952D02*
X97591523Y-101941333D01*
X97543904Y-101893714D01*
X97496285Y-101798476D01*
X97496285Y-101750857D01*
X97543904Y-101655619D01*
X97591523Y-101608000D01*
X97686761Y-101560380D01*
X97877238Y-101560380D01*
X97972476Y-101608000D01*
X98020095Y-101655619D01*
X98067714Y-101750857D01*
X98067714Y-101798476D01*
X98020095Y-101893714D01*
X97972476Y-101941333D01*
X97877238Y-101988952D01*
X97686761Y-101988952D01*
X97591523Y-102036571D01*
X97543904Y-102084190D01*
X97496285Y-102179428D01*
X97496285Y-102369904D01*
X97543904Y-102465142D01*
X97591523Y-102512761D01*
X97686761Y-102560380D01*
X97877238Y-102560380D01*
X97972476Y-102512761D01*
X98020095Y-102465142D01*
X98067714Y-102369904D01*
X98067714Y-102179428D01*
X98020095Y-102084190D01*
X97972476Y-102036571D01*
X97877238Y-101988952D01*
G04 #@! TO.C,C7*
X94575333Y-90527142D02*
X94527714Y-90574761D01*
X94384857Y-90622380D01*
X94289619Y-90622380D01*
X94146761Y-90574761D01*
X94051523Y-90479523D01*
X94003904Y-90384285D01*
X93956285Y-90193809D01*
X93956285Y-90050952D01*
X94003904Y-89860476D01*
X94051523Y-89765238D01*
X94146761Y-89670000D01*
X94289619Y-89622380D01*
X94384857Y-89622380D01*
X94527714Y-89670000D01*
X94575333Y-89717619D01*
X94908666Y-89622380D02*
X95575333Y-89622380D01*
X95146761Y-90622380D01*
G04 #@! TO.C,C6*
X81113333Y-30583142D02*
X81065714Y-30630761D01*
X80922857Y-30678380D01*
X80827619Y-30678380D01*
X80684761Y-30630761D01*
X80589523Y-30535523D01*
X80541904Y-30440285D01*
X80494285Y-30249809D01*
X80494285Y-30106952D01*
X80541904Y-29916476D01*
X80589523Y-29821238D01*
X80684761Y-29726000D01*
X80827619Y-29678380D01*
X80922857Y-29678380D01*
X81065714Y-29726000D01*
X81113333Y-29773619D01*
X81970476Y-29678380D02*
X81780000Y-29678380D01*
X81684761Y-29726000D01*
X81637142Y-29773619D01*
X81541904Y-29916476D01*
X81494285Y-30106952D01*
X81494285Y-30487904D01*
X81541904Y-30583142D01*
X81589523Y-30630761D01*
X81684761Y-30678380D01*
X81875238Y-30678380D01*
X81970476Y-30630761D01*
X82018095Y-30583142D01*
X82065714Y-30487904D01*
X82065714Y-30249809D01*
X82018095Y-30154571D01*
X81970476Y-30106952D01*
X81875238Y-30059333D01*
X81684761Y-30059333D01*
X81589523Y-30106952D01*
X81541904Y-30154571D01*
X81494285Y-30249809D01*
G04 #@! TO.C,C5*
X71969333Y-95607142D02*
X71921714Y-95654761D01*
X71778857Y-95702380D01*
X71683619Y-95702380D01*
X71540761Y-95654761D01*
X71445523Y-95559523D01*
X71397904Y-95464285D01*
X71350285Y-95273809D01*
X71350285Y-95130952D01*
X71397904Y-94940476D01*
X71445523Y-94845238D01*
X71540761Y-94750000D01*
X71683619Y-94702380D01*
X71778857Y-94702380D01*
X71921714Y-94750000D01*
X71969333Y-94797619D01*
X72874095Y-94702380D02*
X72397904Y-94702380D01*
X72350285Y-95178571D01*
X72397904Y-95130952D01*
X72493142Y-95083333D01*
X72731238Y-95083333D01*
X72826476Y-95130952D01*
X72874095Y-95178571D01*
X72921714Y-95273809D01*
X72921714Y-95511904D01*
X72874095Y-95607142D01*
X72826476Y-95654761D01*
X72731238Y-95702380D01*
X72493142Y-95702380D01*
X72397904Y-95654761D01*
X72350285Y-95607142D01*
G04 #@! TO.C,C4*
X107275333Y-94083142D02*
X107227714Y-94130761D01*
X107084857Y-94178380D01*
X106989619Y-94178380D01*
X106846761Y-94130761D01*
X106751523Y-94035523D01*
X106703904Y-93940285D01*
X106656285Y-93749809D01*
X106656285Y-93606952D01*
X106703904Y-93416476D01*
X106751523Y-93321238D01*
X106846761Y-93226000D01*
X106989619Y-93178380D01*
X107084857Y-93178380D01*
X107227714Y-93226000D01*
X107275333Y-93273619D01*
X108132476Y-93511714D02*
X108132476Y-94178380D01*
X107894380Y-93130761D02*
X107656285Y-93845047D01*
X108275333Y-93845047D01*
G04 #@! TO.C,C3*
X86955333Y-94591142D02*
X86907714Y-94638761D01*
X86764857Y-94686380D01*
X86669619Y-94686380D01*
X86526761Y-94638761D01*
X86431523Y-94543523D01*
X86383904Y-94448285D01*
X86336285Y-94257809D01*
X86336285Y-94114952D01*
X86383904Y-93924476D01*
X86431523Y-93829238D01*
X86526761Y-93734000D01*
X86669619Y-93686380D01*
X86764857Y-93686380D01*
X86907714Y-93734000D01*
X86955333Y-93781619D01*
X87288666Y-93686380D02*
X87907714Y-93686380D01*
X87574380Y-94067333D01*
X87717238Y-94067333D01*
X87812476Y-94114952D01*
X87860095Y-94162571D01*
X87907714Y-94257809D01*
X87907714Y-94495904D01*
X87860095Y-94591142D01*
X87812476Y-94638761D01*
X87717238Y-94686380D01*
X87431523Y-94686380D01*
X87336285Y-94638761D01*
X87288666Y-94591142D01*
G04 #@! TO.C,C2*
X82129333Y-95607142D02*
X82081714Y-95654761D01*
X81938857Y-95702380D01*
X81843619Y-95702380D01*
X81700761Y-95654761D01*
X81605523Y-95559523D01*
X81557904Y-95464285D01*
X81510285Y-95273809D01*
X81510285Y-95130952D01*
X81557904Y-94940476D01*
X81605523Y-94845238D01*
X81700761Y-94750000D01*
X81843619Y-94702380D01*
X81938857Y-94702380D01*
X82081714Y-94750000D01*
X82129333Y-94797619D01*
X82510285Y-94797619D02*
X82557904Y-94750000D01*
X82653142Y-94702380D01*
X82891238Y-94702380D01*
X82986476Y-94750000D01*
X83034095Y-94797619D01*
X83081714Y-94892857D01*
X83081714Y-94988095D01*
X83034095Y-95130952D01*
X82462666Y-95702380D01*
X83081714Y-95702380D01*
G04 #@! TO.C,C1*
X85939333Y-110085142D02*
X85891714Y-110132761D01*
X85748857Y-110180380D01*
X85653619Y-110180380D01*
X85510761Y-110132761D01*
X85415523Y-110037523D01*
X85367904Y-109942285D01*
X85320285Y-109751809D01*
X85320285Y-109608952D01*
X85367904Y-109418476D01*
X85415523Y-109323238D01*
X85510761Y-109228000D01*
X85653619Y-109180380D01*
X85748857Y-109180380D01*
X85891714Y-109228000D01*
X85939333Y-109275619D01*
X86891714Y-110180380D02*
X86320285Y-110180380D01*
X86606000Y-110180380D02*
X86606000Y-109180380D01*
X86510761Y-109323238D01*
X86415523Y-109418476D01*
X86320285Y-109466095D01*
G04 #@! TO.C,Arduino Nano*
X27146857Y-71540666D02*
X27623047Y-71540666D01*
X27051619Y-71826380D02*
X27384952Y-70826380D01*
X27718285Y-71826380D01*
X28051619Y-71826380D02*
X28051619Y-71159714D01*
X28051619Y-71350190D02*
X28099238Y-71254952D01*
X28146857Y-71207333D01*
X28242095Y-71159714D01*
X28337333Y-71159714D01*
X29099238Y-71826380D02*
X29099238Y-70826380D01*
X29099238Y-71778761D02*
X29004000Y-71826380D01*
X28813523Y-71826380D01*
X28718285Y-71778761D01*
X28670666Y-71731142D01*
X28623047Y-71635904D01*
X28623047Y-71350190D01*
X28670666Y-71254952D01*
X28718285Y-71207333D01*
X28813523Y-71159714D01*
X29004000Y-71159714D01*
X29099238Y-71207333D01*
X30004000Y-71159714D02*
X30004000Y-71826380D01*
X29575428Y-71159714D02*
X29575428Y-71683523D01*
X29623047Y-71778761D01*
X29718285Y-71826380D01*
X29861142Y-71826380D01*
X29956380Y-71778761D01*
X30004000Y-71731142D01*
X30480190Y-71826380D02*
X30480190Y-71159714D01*
X30480190Y-70826380D02*
X30432571Y-70874000D01*
X30480190Y-70921619D01*
X30527809Y-70874000D01*
X30480190Y-70826380D01*
X30480190Y-70921619D01*
X30956380Y-71159714D02*
X30956380Y-71826380D01*
X30956380Y-71254952D02*
X31004000Y-71207333D01*
X31099238Y-71159714D01*
X31242095Y-71159714D01*
X31337333Y-71207333D01*
X31384952Y-71302571D01*
X31384952Y-71826380D01*
X32004000Y-71826380D02*
X31908761Y-71778761D01*
X31861142Y-71731142D01*
X31813523Y-71635904D01*
X31813523Y-71350190D01*
X31861142Y-71254952D01*
X31908761Y-71207333D01*
X32004000Y-71159714D01*
X32146857Y-71159714D01*
X32242095Y-71207333D01*
X32289714Y-71254952D01*
X32337333Y-71350190D01*
X32337333Y-71635904D01*
X32289714Y-71731142D01*
X32242095Y-71778761D01*
X32146857Y-71826380D01*
X32004000Y-71826380D01*
X33527809Y-71826380D02*
X33527809Y-70826380D01*
X34099238Y-71826380D01*
X34099238Y-70826380D01*
X35004000Y-71826380D02*
X35004000Y-71302571D01*
X34956380Y-71207333D01*
X34861142Y-71159714D01*
X34670666Y-71159714D01*
X34575428Y-71207333D01*
X35004000Y-71778761D02*
X34908761Y-71826380D01*
X34670666Y-71826380D01*
X34575428Y-71778761D01*
X34527809Y-71683523D01*
X34527809Y-71588285D01*
X34575428Y-71493047D01*
X34670666Y-71445428D01*
X34908761Y-71445428D01*
X35004000Y-71397809D01*
X35480190Y-71159714D02*
X35480190Y-71826380D01*
X35480190Y-71254952D02*
X35527809Y-71207333D01*
X35623047Y-71159714D01*
X35765904Y-71159714D01*
X35861142Y-71207333D01*
X35908761Y-71302571D01*
X35908761Y-71826380D01*
X36527809Y-71826380D02*
X36432571Y-71778761D01*
X36384952Y-71731142D01*
X36337333Y-71635904D01*
X36337333Y-71350190D01*
X36384952Y-71254952D01*
X36432571Y-71207333D01*
X36527809Y-71159714D01*
X36670666Y-71159714D01*
X36765904Y-71207333D01*
X36813523Y-71254952D01*
X36861142Y-71350190D01*
X36861142Y-71635904D01*
X36813523Y-71731142D01*
X36765904Y-71778761D01*
X36670666Y-71826380D01*
X36527809Y-71826380D01*
G04 #@! TD*
M02*
