G04 #@! TF.GenerationSoftware,KiCad,Pcbnew,(5.1.6)-1*
G04 #@! TF.CreationDate,2020-06-28T06:58:36-07:00*
G04 #@! TF.ProjectId,NanoDemo,4e616e6f-4465-46d6-9f2e-6b696361645f,rev?*
G04 #@! TF.SameCoordinates,Original*
G04 #@! TF.FileFunction,Soldermask,Top*
G04 #@! TF.FilePolarity,Negative*
%FSLAX46Y46*%
G04 Gerber Fmt 4.6, Leading zero omitted, Abs format (unit mm)*
G04 Created by KiCad (PCBNEW (5.1.6)-1) date 2020-06-28 06:58:36*
%MOMM*%
%LPD*%
G01*
G04 APERTURE LIST*
%ADD10R,1.600000X1.100000*%
%ADD11O,1.800000X1.800000*%
%ADD12R,1.800000X1.800000*%
%ADD13C,1.900000*%
%ADD14O,1.700000X1.700000*%
%ADD15R,1.700000X1.700000*%
%ADD16R,1.150000X1.600000*%
%ADD17O,1.150000X1.600000*%
%ADD18C,2.100000*%
%ADD19C,1.650000*%
%ADD20R,1.650000X1.650000*%
%ADD21R,2.100000X2.100000*%
%ADD22R,3.300000X2.100000*%
%ADD23C,1.600000*%
%ADD24C,1.700000*%
%ADD25R,1.600000X1.600000*%
%ADD26R,1.900000X1.900000*%
G04 APERTURE END LIST*
D10*
G04 #@! TO.C,D1*
X22770000Y-21412000D03*
X22770000Y-18212000D03*
X17870000Y-21412000D03*
X17870000Y-18212000D03*
G04 #@! TD*
G04 #@! TO.C,D8*
X77888000Y-21412000D03*
X77888000Y-18212000D03*
X72988000Y-21412000D03*
X72988000Y-18212000D03*
G04 #@! TD*
G04 #@! TO.C,D7*
X70014000Y-21412000D03*
X70014000Y-18212000D03*
X65114000Y-21412000D03*
X65114000Y-18212000D03*
G04 #@! TD*
G04 #@! TO.C,D6*
X62140000Y-21412000D03*
X62140000Y-18212000D03*
X57240000Y-21412000D03*
X57240000Y-18212000D03*
G04 #@! TD*
G04 #@! TO.C,D5*
X54266000Y-21412000D03*
X54266000Y-18212000D03*
X49366000Y-21412000D03*
X49366000Y-18212000D03*
G04 #@! TD*
G04 #@! TO.C,D4*
X46392000Y-21412000D03*
X46392000Y-18212000D03*
X41492000Y-21412000D03*
X41492000Y-18212000D03*
G04 #@! TD*
G04 #@! TO.C,D3*
X38518000Y-21412000D03*
X38518000Y-18212000D03*
X33618000Y-21412000D03*
X33618000Y-18212000D03*
G04 #@! TD*
G04 #@! TO.C,D2*
X30644000Y-21412000D03*
X30644000Y-18212000D03*
X25744000Y-21412000D03*
X25744000Y-18212000D03*
G04 #@! TD*
D11*
G04 #@! TO.C,Ext. Power*
X20066000Y-66040000D03*
D12*
X20066000Y-68580000D03*
G04 #@! TD*
D11*
G04 #@! TO.C,J5 - OLED Display*
X102870000Y-27051000D03*
D12*
X105410000Y-27051000D03*
D11*
X97790000Y-27051000D03*
X100330000Y-27051000D03*
G04 #@! TD*
D13*
G04 #@! TO.C,IR Rx*
X83820000Y-20320000D03*
X86360000Y-20320000D03*
G36*
G01*
X89850000Y-19634100D02*
X89850000Y-21005900D01*
G75*
G02*
X89585900Y-21270000I-264100J0D01*
G01*
X88214100Y-21270000D01*
G75*
G02*
X87950000Y-21005900I0J264100D01*
G01*
X87950000Y-19634100D01*
G75*
G02*
X88214100Y-19370000I264100J0D01*
G01*
X89585900Y-19370000D01*
G75*
G02*
X89850000Y-19634100I0J-264100D01*
G01*
G37*
G04 #@! TD*
D14*
G04 #@! TO.C,U5 - 74HC595*
X62484000Y-54102000D03*
X80264000Y-61722000D03*
X65024000Y-54102000D03*
X77724000Y-61722000D03*
X67564000Y-54102000D03*
X75184000Y-61722000D03*
X70104000Y-54102000D03*
X72644000Y-61722000D03*
X72644000Y-54102000D03*
X70104000Y-61722000D03*
X75184000Y-54102000D03*
X67564000Y-61722000D03*
X77724000Y-54102000D03*
X65024000Y-61722000D03*
X80264000Y-54102000D03*
D15*
X62484000Y-61722000D03*
G04 #@! TD*
D14*
G04 #@! TO.C,U4 - 74HC595*
X62484000Y-67564000D03*
X80264000Y-75184000D03*
X65024000Y-67564000D03*
X77724000Y-75184000D03*
X67564000Y-67564000D03*
X75184000Y-75184000D03*
X70104000Y-67564000D03*
X72644000Y-75184000D03*
X72644000Y-67564000D03*
X70104000Y-75184000D03*
X75184000Y-67564000D03*
X67564000Y-75184000D03*
X77724000Y-67564000D03*
X65024000Y-75184000D03*
X80264000Y-67564000D03*
D15*
X62484000Y-75184000D03*
G04 #@! TD*
D14*
G04 #@! TO.C,U3 - 74HC595*
X36576000Y-38862000D03*
X54356000Y-46482000D03*
X39116000Y-38862000D03*
X51816000Y-46482000D03*
X41656000Y-38862000D03*
X49276000Y-46482000D03*
X44196000Y-38862000D03*
X46736000Y-46482000D03*
X46736000Y-38862000D03*
X44196000Y-46482000D03*
X49276000Y-38862000D03*
X41656000Y-46482000D03*
X51816000Y-38862000D03*
X39116000Y-46482000D03*
X54356000Y-38862000D03*
D15*
X36576000Y-46482000D03*
G04 #@! TD*
D16*
G04 #@! TO.C,Temperature*
X102870000Y-20066000D03*
D17*
X105410000Y-20066000D03*
X104140000Y-20066000D03*
G04 #@! TD*
D14*
G04 #@! TO.C,U1 - 74HC14*
X67056000Y-82550000D03*
X82296000Y-90170000D03*
X69596000Y-82550000D03*
X79756000Y-90170000D03*
X72136000Y-82550000D03*
X77216000Y-90170000D03*
X74676000Y-82550000D03*
X74676000Y-90170000D03*
X77216000Y-82550000D03*
X72136000Y-90170000D03*
X79756000Y-82550000D03*
X69596000Y-90170000D03*
X82296000Y-82550000D03*
D15*
X67056000Y-90170000D03*
G04 #@! TD*
D18*
G04 #@! TO.C,SW4*
X97640000Y-114554000D03*
X97640000Y-110054000D03*
X104140000Y-114554000D03*
X104140000Y-110054000D03*
G04 #@! TD*
G04 #@! TO.C,SW3*
X97640000Y-98298000D03*
X97640000Y-93798000D03*
X104140000Y-98298000D03*
X104140000Y-93798000D03*
G04 #@! TD*
G04 #@! TO.C,SW2*
X107800000Y-106426000D03*
X107800000Y-101926000D03*
X114300000Y-106426000D03*
X114300000Y-101926000D03*
G04 #@! TD*
G04 #@! TO.C,SW1*
X87480000Y-106426000D03*
X87480000Y-101926000D03*
X93980000Y-106426000D03*
X93980000Y-101926000D03*
G04 #@! TD*
D19*
G04 #@! TO.C,RV3*
X60492000Y-108792000D03*
D20*
X62992000Y-113792000D03*
D19*
X57992000Y-113792000D03*
G04 #@! TD*
G04 #@! TO.C,RV2*
X53126000Y-108792000D03*
D20*
X55626000Y-113792000D03*
D19*
X50626000Y-113792000D03*
G04 #@! TD*
G04 #@! TO.C,RV1*
X45760000Y-108792000D03*
D20*
X48260000Y-113792000D03*
D19*
X43260000Y-113792000D03*
G04 #@! TD*
D21*
G04 #@! TO.C,Rot. Enc.*
X67564000Y-106680000D03*
D18*
X67564000Y-109180000D03*
X67564000Y-111680000D03*
D22*
X75064000Y-103580000D03*
X75064000Y-114780000D03*
D23*
X82064000Y-106680000D03*
X82064000Y-111680000D03*
G04 #@! TD*
G04 #@! TO.C,R42*
G36*
G01*
X49821000Y-88499000D02*
X49821000Y-89809000D01*
G75*
G02*
X49551000Y-90079000I-270000J0D01*
G01*
X48741000Y-90079000D01*
G75*
G02*
X48471000Y-89809000I0J270000D01*
G01*
X48471000Y-88499000D01*
G75*
G02*
X48741000Y-88229000I270000J0D01*
G01*
X49551000Y-88229000D01*
G75*
G02*
X49821000Y-88499000I0J-270000D01*
G01*
G37*
G36*
G01*
X52621000Y-88499000D02*
X52621000Y-89809000D01*
G75*
G02*
X52351000Y-90079000I-270000J0D01*
G01*
X51541000Y-90079000D01*
G75*
G02*
X51271000Y-89809000I0J270000D01*
G01*
X51271000Y-88499000D01*
G75*
G02*
X51541000Y-88229000I270000J0D01*
G01*
X52351000Y-88229000D01*
G75*
G02*
X52621000Y-88499000I0J-270000D01*
G01*
G37*
G04 #@! TD*
G04 #@! TO.C,R41*
G36*
G01*
X111105000Y-81497000D02*
X112415000Y-81497000D01*
G75*
G02*
X112685000Y-81767000I0J-270000D01*
G01*
X112685000Y-82577000D01*
G75*
G02*
X112415000Y-82847000I-270000J0D01*
G01*
X111105000Y-82847000D01*
G75*
G02*
X110835000Y-82577000I0J270000D01*
G01*
X110835000Y-81767000D01*
G75*
G02*
X111105000Y-81497000I270000J0D01*
G01*
G37*
G36*
G01*
X111105000Y-78697000D02*
X112415000Y-78697000D01*
G75*
G02*
X112685000Y-78967000I0J-270000D01*
G01*
X112685000Y-79777000D01*
G75*
G02*
X112415000Y-80047000I-270000J0D01*
G01*
X111105000Y-80047000D01*
G75*
G02*
X110835000Y-79777000I0J270000D01*
G01*
X110835000Y-78967000D01*
G75*
G02*
X111105000Y-78697000I270000J0D01*
G01*
G37*
G04 #@! TD*
G04 #@! TO.C,R40*
G36*
G01*
X106025000Y-81497000D02*
X107335000Y-81497000D01*
G75*
G02*
X107605000Y-81767000I0J-270000D01*
G01*
X107605000Y-82577000D01*
G75*
G02*
X107335000Y-82847000I-270000J0D01*
G01*
X106025000Y-82847000D01*
G75*
G02*
X105755000Y-82577000I0J270000D01*
G01*
X105755000Y-81767000D01*
G75*
G02*
X106025000Y-81497000I270000J0D01*
G01*
G37*
G36*
G01*
X106025000Y-78697000D02*
X107335000Y-78697000D01*
G75*
G02*
X107605000Y-78967000I0J-270000D01*
G01*
X107605000Y-79777000D01*
G75*
G02*
X107335000Y-80047000I-270000J0D01*
G01*
X106025000Y-80047000D01*
G75*
G02*
X105755000Y-79777000I0J270000D01*
G01*
X105755000Y-78967000D01*
G75*
G02*
X106025000Y-78697000I270000J0D01*
G01*
G37*
G04 #@! TD*
G04 #@! TO.C,R39*
G36*
G01*
X107335000Y-54393000D02*
X106025000Y-54393000D01*
G75*
G02*
X105755000Y-54123000I0J270000D01*
G01*
X105755000Y-53313000D01*
G75*
G02*
X106025000Y-53043000I270000J0D01*
G01*
X107335000Y-53043000D01*
G75*
G02*
X107605000Y-53313000I0J-270000D01*
G01*
X107605000Y-54123000D01*
G75*
G02*
X107335000Y-54393000I-270000J0D01*
G01*
G37*
G36*
G01*
X107335000Y-57193000D02*
X106025000Y-57193000D01*
G75*
G02*
X105755000Y-56923000I0J270000D01*
G01*
X105755000Y-56113000D01*
G75*
G02*
X106025000Y-55843000I270000J0D01*
G01*
X107335000Y-55843000D01*
G75*
G02*
X107605000Y-56113000I0J-270000D01*
G01*
X107605000Y-56923000D01*
G75*
G02*
X107335000Y-57193000I-270000J0D01*
G01*
G37*
G04 #@! TD*
G04 #@! TO.C,R38*
G36*
G01*
X100945000Y-81497000D02*
X102255000Y-81497000D01*
G75*
G02*
X102525000Y-81767000I0J-270000D01*
G01*
X102525000Y-82577000D01*
G75*
G02*
X102255000Y-82847000I-270000J0D01*
G01*
X100945000Y-82847000D01*
G75*
G02*
X100675000Y-82577000I0J270000D01*
G01*
X100675000Y-81767000D01*
G75*
G02*
X100945000Y-81497000I270000J0D01*
G01*
G37*
G36*
G01*
X100945000Y-78697000D02*
X102255000Y-78697000D01*
G75*
G02*
X102525000Y-78967000I0J-270000D01*
G01*
X102525000Y-79777000D01*
G75*
G02*
X102255000Y-80047000I-270000J0D01*
G01*
X100945000Y-80047000D01*
G75*
G02*
X100675000Y-79777000I0J270000D01*
G01*
X100675000Y-78967000D01*
G75*
G02*
X100945000Y-78697000I270000J0D01*
G01*
G37*
G04 #@! TD*
G04 #@! TO.C,R37*
G36*
G01*
X103485000Y-81497000D02*
X104795000Y-81497000D01*
G75*
G02*
X105065000Y-81767000I0J-270000D01*
G01*
X105065000Y-82577000D01*
G75*
G02*
X104795000Y-82847000I-270000J0D01*
G01*
X103485000Y-82847000D01*
G75*
G02*
X103215000Y-82577000I0J270000D01*
G01*
X103215000Y-81767000D01*
G75*
G02*
X103485000Y-81497000I270000J0D01*
G01*
G37*
G36*
G01*
X103485000Y-78697000D02*
X104795000Y-78697000D01*
G75*
G02*
X105065000Y-78967000I0J-270000D01*
G01*
X105065000Y-79777000D01*
G75*
G02*
X104795000Y-80047000I-270000J0D01*
G01*
X103485000Y-80047000D01*
G75*
G02*
X103215000Y-79777000I0J270000D01*
G01*
X103215000Y-78967000D01*
G75*
G02*
X103485000Y-78697000I270000J0D01*
G01*
G37*
G04 #@! TD*
G04 #@! TO.C,R36*
G36*
G01*
X108565000Y-81497000D02*
X109875000Y-81497000D01*
G75*
G02*
X110145000Y-81767000I0J-270000D01*
G01*
X110145000Y-82577000D01*
G75*
G02*
X109875000Y-82847000I-270000J0D01*
G01*
X108565000Y-82847000D01*
G75*
G02*
X108295000Y-82577000I0J270000D01*
G01*
X108295000Y-81767000D01*
G75*
G02*
X108565000Y-81497000I270000J0D01*
G01*
G37*
G36*
G01*
X108565000Y-78697000D02*
X109875000Y-78697000D01*
G75*
G02*
X110145000Y-78967000I0J-270000D01*
G01*
X110145000Y-79777000D01*
G75*
G02*
X109875000Y-80047000I-270000J0D01*
G01*
X108565000Y-80047000D01*
G75*
G02*
X108295000Y-79777000I0J270000D01*
G01*
X108295000Y-78967000D01*
G75*
G02*
X108565000Y-78697000I270000J0D01*
G01*
G37*
G04 #@! TD*
G04 #@! TO.C,R35*
G36*
G01*
X71227000Y-34761000D02*
X72537000Y-34761000D01*
G75*
G02*
X72807000Y-35031000I0J-270000D01*
G01*
X72807000Y-35841000D01*
G75*
G02*
X72537000Y-36111000I-270000J0D01*
G01*
X71227000Y-36111000D01*
G75*
G02*
X70957000Y-35841000I0J270000D01*
G01*
X70957000Y-35031000D01*
G75*
G02*
X71227000Y-34761000I270000J0D01*
G01*
G37*
G36*
G01*
X71227000Y-31961000D02*
X72537000Y-31961000D01*
G75*
G02*
X72807000Y-32231000I0J-270000D01*
G01*
X72807000Y-33041000D01*
G75*
G02*
X72537000Y-33311000I-270000J0D01*
G01*
X71227000Y-33311000D01*
G75*
G02*
X70957000Y-33041000I0J270000D01*
G01*
X70957000Y-32231000D01*
G75*
G02*
X71227000Y-31961000I270000J0D01*
G01*
G37*
G04 #@! TD*
G04 #@! TO.C,R34*
G36*
G01*
X112415000Y-54393000D02*
X111105000Y-54393000D01*
G75*
G02*
X110835000Y-54123000I0J270000D01*
G01*
X110835000Y-53313000D01*
G75*
G02*
X111105000Y-53043000I270000J0D01*
G01*
X112415000Y-53043000D01*
G75*
G02*
X112685000Y-53313000I0J-270000D01*
G01*
X112685000Y-54123000D01*
G75*
G02*
X112415000Y-54393000I-270000J0D01*
G01*
G37*
G36*
G01*
X112415000Y-57193000D02*
X111105000Y-57193000D01*
G75*
G02*
X110835000Y-56923000I0J270000D01*
G01*
X110835000Y-56113000D01*
G75*
G02*
X111105000Y-55843000I270000J0D01*
G01*
X112415000Y-55843000D01*
G75*
G02*
X112685000Y-56113000I0J-270000D01*
G01*
X112685000Y-56923000D01*
G75*
G02*
X112415000Y-57193000I-270000J0D01*
G01*
G37*
G04 #@! TD*
G04 #@! TO.C,R33*
G36*
G01*
X109875000Y-54393000D02*
X108565000Y-54393000D01*
G75*
G02*
X108295000Y-54123000I0J270000D01*
G01*
X108295000Y-53313000D01*
G75*
G02*
X108565000Y-53043000I270000J0D01*
G01*
X109875000Y-53043000D01*
G75*
G02*
X110145000Y-53313000I0J-270000D01*
G01*
X110145000Y-54123000D01*
G75*
G02*
X109875000Y-54393000I-270000J0D01*
G01*
G37*
G36*
G01*
X109875000Y-57193000D02*
X108565000Y-57193000D01*
G75*
G02*
X108295000Y-56923000I0J270000D01*
G01*
X108295000Y-56113000D01*
G75*
G02*
X108565000Y-55843000I270000J0D01*
G01*
X109875000Y-55843000D01*
G75*
G02*
X110145000Y-56113000I0J-270000D01*
G01*
X110145000Y-56923000D01*
G75*
G02*
X109875000Y-57193000I-270000J0D01*
G01*
G37*
G04 #@! TD*
G04 #@! TO.C,R32*
G36*
G01*
X49821000Y-91039000D02*
X49821000Y-92349000D01*
G75*
G02*
X49551000Y-92619000I-270000J0D01*
G01*
X48741000Y-92619000D01*
G75*
G02*
X48471000Y-92349000I0J270000D01*
G01*
X48471000Y-91039000D01*
G75*
G02*
X48741000Y-90769000I270000J0D01*
G01*
X49551000Y-90769000D01*
G75*
G02*
X49821000Y-91039000I0J-270000D01*
G01*
G37*
G36*
G01*
X52621000Y-91039000D02*
X52621000Y-92349000D01*
G75*
G02*
X52351000Y-92619000I-270000J0D01*
G01*
X51541000Y-92619000D01*
G75*
G02*
X51271000Y-92349000I0J270000D01*
G01*
X51271000Y-91039000D01*
G75*
G02*
X51541000Y-90769000I270000J0D01*
G01*
X52351000Y-90769000D01*
G75*
G02*
X52621000Y-91039000I0J-270000D01*
G01*
G37*
G04 #@! TD*
D24*
G04 #@! TO.C,Photocell*
X97028000Y-19812000D03*
X94488000Y-19812000D03*
G04 #@! TD*
G04 #@! TO.C,R30*
G36*
G01*
X63861000Y-34761000D02*
X65171000Y-34761000D01*
G75*
G02*
X65441000Y-35031000I0J-270000D01*
G01*
X65441000Y-35841000D01*
G75*
G02*
X65171000Y-36111000I-270000J0D01*
G01*
X63861000Y-36111000D01*
G75*
G02*
X63591000Y-35841000I0J270000D01*
G01*
X63591000Y-35031000D01*
G75*
G02*
X63861000Y-34761000I270000J0D01*
G01*
G37*
G36*
G01*
X63861000Y-31961000D02*
X65171000Y-31961000D01*
G75*
G02*
X65441000Y-32231000I0J-270000D01*
G01*
X65441000Y-33041000D01*
G75*
G02*
X65171000Y-33311000I-270000J0D01*
G01*
X63861000Y-33311000D01*
G75*
G02*
X63591000Y-33041000I0J270000D01*
G01*
X63591000Y-32231000D01*
G75*
G02*
X63861000Y-31961000I270000J0D01*
G01*
G37*
G04 #@! TD*
G04 #@! TO.C,R29*
G36*
G01*
X98405000Y-81497000D02*
X99715000Y-81497000D01*
G75*
G02*
X99985000Y-81767000I0J-270000D01*
G01*
X99985000Y-82577000D01*
G75*
G02*
X99715000Y-82847000I-270000J0D01*
G01*
X98405000Y-82847000D01*
G75*
G02*
X98135000Y-82577000I0J270000D01*
G01*
X98135000Y-81767000D01*
G75*
G02*
X98405000Y-81497000I270000J0D01*
G01*
G37*
G36*
G01*
X98405000Y-78697000D02*
X99715000Y-78697000D01*
G75*
G02*
X99985000Y-78967000I0J-270000D01*
G01*
X99985000Y-79777000D01*
G75*
G02*
X99715000Y-80047000I-270000J0D01*
G01*
X98405000Y-80047000D01*
G75*
G02*
X98135000Y-79777000I0J270000D01*
G01*
X98135000Y-78967000D01*
G75*
G02*
X98405000Y-78697000I270000J0D01*
G01*
G37*
G04 #@! TD*
G04 #@! TO.C,R28*
G36*
G01*
X56495000Y-34761000D02*
X57805000Y-34761000D01*
G75*
G02*
X58075000Y-35031000I0J-270000D01*
G01*
X58075000Y-35841000D01*
G75*
G02*
X57805000Y-36111000I-270000J0D01*
G01*
X56495000Y-36111000D01*
G75*
G02*
X56225000Y-35841000I0J270000D01*
G01*
X56225000Y-35031000D01*
G75*
G02*
X56495000Y-34761000I270000J0D01*
G01*
G37*
G36*
G01*
X56495000Y-31961000D02*
X57805000Y-31961000D01*
G75*
G02*
X58075000Y-32231000I0J-270000D01*
G01*
X58075000Y-33041000D01*
G75*
G02*
X57805000Y-33311000I-270000J0D01*
G01*
X56495000Y-33311000D01*
G75*
G02*
X56225000Y-33041000I0J270000D01*
G01*
X56225000Y-32231000D01*
G75*
G02*
X56495000Y-31961000I270000J0D01*
G01*
G37*
G04 #@! TD*
G04 #@! TO.C,R27*
G36*
G01*
X94635000Y-54393000D02*
X93325000Y-54393000D01*
G75*
G02*
X93055000Y-54123000I0J270000D01*
G01*
X93055000Y-53313000D01*
G75*
G02*
X93325000Y-53043000I270000J0D01*
G01*
X94635000Y-53043000D01*
G75*
G02*
X94905000Y-53313000I0J-270000D01*
G01*
X94905000Y-54123000D01*
G75*
G02*
X94635000Y-54393000I-270000J0D01*
G01*
G37*
G36*
G01*
X94635000Y-57193000D02*
X93325000Y-57193000D01*
G75*
G02*
X93055000Y-56923000I0J270000D01*
G01*
X93055000Y-56113000D01*
G75*
G02*
X93325000Y-55843000I270000J0D01*
G01*
X94635000Y-55843000D01*
G75*
G02*
X94905000Y-56113000I0J-270000D01*
G01*
X94905000Y-56923000D01*
G75*
G02*
X94635000Y-57193000I-270000J0D01*
G01*
G37*
G04 #@! TD*
G04 #@! TO.C,R26*
G36*
G01*
X92095000Y-54393000D02*
X90785000Y-54393000D01*
G75*
G02*
X90515000Y-54123000I0J270000D01*
G01*
X90515000Y-53313000D01*
G75*
G02*
X90785000Y-53043000I270000J0D01*
G01*
X92095000Y-53043000D01*
G75*
G02*
X92365000Y-53313000I0J-270000D01*
G01*
X92365000Y-54123000D01*
G75*
G02*
X92095000Y-54393000I-270000J0D01*
G01*
G37*
G36*
G01*
X92095000Y-57193000D02*
X90785000Y-57193000D01*
G75*
G02*
X90515000Y-56923000I0J270000D01*
G01*
X90515000Y-56113000D01*
G75*
G02*
X90785000Y-55843000I270000J0D01*
G01*
X92095000Y-55843000D01*
G75*
G02*
X92365000Y-56113000I0J-270000D01*
G01*
X92365000Y-56923000D01*
G75*
G02*
X92095000Y-57193000I-270000J0D01*
G01*
G37*
G04 #@! TD*
G04 #@! TO.C,R25*
G36*
G01*
X49129000Y-34761000D02*
X50439000Y-34761000D01*
G75*
G02*
X50709000Y-35031000I0J-270000D01*
G01*
X50709000Y-35841000D01*
G75*
G02*
X50439000Y-36111000I-270000J0D01*
G01*
X49129000Y-36111000D01*
G75*
G02*
X48859000Y-35841000I0J270000D01*
G01*
X48859000Y-35031000D01*
G75*
G02*
X49129000Y-34761000I270000J0D01*
G01*
G37*
G36*
G01*
X49129000Y-31961000D02*
X50439000Y-31961000D01*
G75*
G02*
X50709000Y-32231000I0J-270000D01*
G01*
X50709000Y-33041000D01*
G75*
G02*
X50439000Y-33311000I-270000J0D01*
G01*
X49129000Y-33311000D01*
G75*
G02*
X48859000Y-33041000I0J270000D01*
G01*
X48859000Y-32231000D01*
G75*
G02*
X49129000Y-31961000I270000J0D01*
G01*
G37*
G04 #@! TD*
G04 #@! TO.C,R24*
G36*
G01*
X90785000Y-81497000D02*
X92095000Y-81497000D01*
G75*
G02*
X92365000Y-81767000I0J-270000D01*
G01*
X92365000Y-82577000D01*
G75*
G02*
X92095000Y-82847000I-270000J0D01*
G01*
X90785000Y-82847000D01*
G75*
G02*
X90515000Y-82577000I0J270000D01*
G01*
X90515000Y-81767000D01*
G75*
G02*
X90785000Y-81497000I270000J0D01*
G01*
G37*
G36*
G01*
X90785000Y-78697000D02*
X92095000Y-78697000D01*
G75*
G02*
X92365000Y-78967000I0J-270000D01*
G01*
X92365000Y-79777000D01*
G75*
G02*
X92095000Y-80047000I-270000J0D01*
G01*
X90785000Y-80047000D01*
G75*
G02*
X90515000Y-79777000I0J270000D01*
G01*
X90515000Y-78967000D01*
G75*
G02*
X90785000Y-78697000I270000J0D01*
G01*
G37*
G04 #@! TD*
G04 #@! TO.C,R23*
G36*
G01*
X93325000Y-81497000D02*
X94635000Y-81497000D01*
G75*
G02*
X94905000Y-81767000I0J-270000D01*
G01*
X94905000Y-82577000D01*
G75*
G02*
X94635000Y-82847000I-270000J0D01*
G01*
X93325000Y-82847000D01*
G75*
G02*
X93055000Y-82577000I0J270000D01*
G01*
X93055000Y-81767000D01*
G75*
G02*
X93325000Y-81497000I270000J0D01*
G01*
G37*
G36*
G01*
X93325000Y-78697000D02*
X94635000Y-78697000D01*
G75*
G02*
X94905000Y-78967000I0J-270000D01*
G01*
X94905000Y-79777000D01*
G75*
G02*
X94635000Y-80047000I-270000J0D01*
G01*
X93325000Y-80047000D01*
G75*
G02*
X93055000Y-79777000I0J270000D01*
G01*
X93055000Y-78967000D01*
G75*
G02*
X93325000Y-78697000I270000J0D01*
G01*
G37*
G04 #@! TD*
G04 #@! TO.C,R22*
G36*
G01*
X41763000Y-34761000D02*
X43073000Y-34761000D01*
G75*
G02*
X43343000Y-35031000I0J-270000D01*
G01*
X43343000Y-35841000D01*
G75*
G02*
X43073000Y-36111000I-270000J0D01*
G01*
X41763000Y-36111000D01*
G75*
G02*
X41493000Y-35841000I0J270000D01*
G01*
X41493000Y-35031000D01*
G75*
G02*
X41763000Y-34761000I270000J0D01*
G01*
G37*
G36*
G01*
X41763000Y-31961000D02*
X43073000Y-31961000D01*
G75*
G02*
X43343000Y-32231000I0J-270000D01*
G01*
X43343000Y-33041000D01*
G75*
G02*
X43073000Y-33311000I-270000J0D01*
G01*
X41763000Y-33311000D01*
G75*
G02*
X41493000Y-33041000I0J270000D01*
G01*
X41493000Y-32231000D01*
G75*
G02*
X41763000Y-31961000I270000J0D01*
G01*
G37*
G04 #@! TD*
G04 #@! TO.C,R21*
G36*
G01*
X95865000Y-81497000D02*
X97175000Y-81497000D01*
G75*
G02*
X97445000Y-81767000I0J-270000D01*
G01*
X97445000Y-82577000D01*
G75*
G02*
X97175000Y-82847000I-270000J0D01*
G01*
X95865000Y-82847000D01*
G75*
G02*
X95595000Y-82577000I0J270000D01*
G01*
X95595000Y-81767000D01*
G75*
G02*
X95865000Y-81497000I270000J0D01*
G01*
G37*
G36*
G01*
X95865000Y-78697000D02*
X97175000Y-78697000D01*
G75*
G02*
X97445000Y-78967000I0J-270000D01*
G01*
X97445000Y-79777000D01*
G75*
G02*
X97175000Y-80047000I-270000J0D01*
G01*
X95865000Y-80047000D01*
G75*
G02*
X95595000Y-79777000I0J270000D01*
G01*
X95595000Y-78967000D01*
G75*
G02*
X95865000Y-78697000I270000J0D01*
G01*
G37*
G04 #@! TD*
G04 #@! TO.C,R20*
G36*
G01*
X99715000Y-54393000D02*
X98405000Y-54393000D01*
G75*
G02*
X98135000Y-54123000I0J270000D01*
G01*
X98135000Y-53313000D01*
G75*
G02*
X98405000Y-53043000I270000J0D01*
G01*
X99715000Y-53043000D01*
G75*
G02*
X99985000Y-53313000I0J-270000D01*
G01*
X99985000Y-54123000D01*
G75*
G02*
X99715000Y-54393000I-270000J0D01*
G01*
G37*
G36*
G01*
X99715000Y-57193000D02*
X98405000Y-57193000D01*
G75*
G02*
X98135000Y-56923000I0J270000D01*
G01*
X98135000Y-56113000D01*
G75*
G02*
X98405000Y-55843000I270000J0D01*
G01*
X99715000Y-55843000D01*
G75*
G02*
X99985000Y-56113000I0J-270000D01*
G01*
X99985000Y-56923000D01*
G75*
G02*
X99715000Y-57193000I-270000J0D01*
G01*
G37*
G04 #@! TD*
G04 #@! TO.C,R19*
G36*
G01*
X34397000Y-34761000D02*
X35707000Y-34761000D01*
G75*
G02*
X35977000Y-35031000I0J-270000D01*
G01*
X35977000Y-35841000D01*
G75*
G02*
X35707000Y-36111000I-270000J0D01*
G01*
X34397000Y-36111000D01*
G75*
G02*
X34127000Y-35841000I0J270000D01*
G01*
X34127000Y-35031000D01*
G75*
G02*
X34397000Y-34761000I270000J0D01*
G01*
G37*
G36*
G01*
X34397000Y-31961000D02*
X35707000Y-31961000D01*
G75*
G02*
X35977000Y-32231000I0J-270000D01*
G01*
X35977000Y-33041000D01*
G75*
G02*
X35707000Y-33311000I-270000J0D01*
G01*
X34397000Y-33311000D01*
G75*
G02*
X34127000Y-33041000I0J270000D01*
G01*
X34127000Y-32231000D01*
G75*
G02*
X34397000Y-31961000I270000J0D01*
G01*
G37*
G04 #@! TD*
G04 #@! TO.C,R18*
G36*
G01*
X97175000Y-54393000D02*
X95865000Y-54393000D01*
G75*
G02*
X95595000Y-54123000I0J270000D01*
G01*
X95595000Y-53313000D01*
G75*
G02*
X95865000Y-53043000I270000J0D01*
G01*
X97175000Y-53043000D01*
G75*
G02*
X97445000Y-53313000I0J-270000D01*
G01*
X97445000Y-54123000D01*
G75*
G02*
X97175000Y-54393000I-270000J0D01*
G01*
G37*
G36*
G01*
X97175000Y-57193000D02*
X95865000Y-57193000D01*
G75*
G02*
X95595000Y-56923000I0J270000D01*
G01*
X95595000Y-56113000D01*
G75*
G02*
X95865000Y-55843000I270000J0D01*
G01*
X97175000Y-55843000D01*
G75*
G02*
X97445000Y-56113000I0J-270000D01*
G01*
X97445000Y-56923000D01*
G75*
G02*
X97175000Y-57193000I-270000J0D01*
G01*
G37*
G04 #@! TD*
G04 #@! TO.C,R17*
G36*
G01*
X27031000Y-34761000D02*
X28341000Y-34761000D01*
G75*
G02*
X28611000Y-35031000I0J-270000D01*
G01*
X28611000Y-35841000D01*
G75*
G02*
X28341000Y-36111000I-270000J0D01*
G01*
X27031000Y-36111000D01*
G75*
G02*
X26761000Y-35841000I0J270000D01*
G01*
X26761000Y-35031000D01*
G75*
G02*
X27031000Y-34761000I270000J0D01*
G01*
G37*
G36*
G01*
X27031000Y-31961000D02*
X28341000Y-31961000D01*
G75*
G02*
X28611000Y-32231000I0J-270000D01*
G01*
X28611000Y-33041000D01*
G75*
G02*
X28341000Y-33311000I-270000J0D01*
G01*
X27031000Y-33311000D01*
G75*
G02*
X26761000Y-33041000I0J270000D01*
G01*
X26761000Y-32231000D01*
G75*
G02*
X27031000Y-31961000I270000J0D01*
G01*
G37*
G04 #@! TD*
G04 #@! TO.C,R16*
G36*
G01*
X19665000Y-34761000D02*
X20975000Y-34761000D01*
G75*
G02*
X21245000Y-35031000I0J-270000D01*
G01*
X21245000Y-35841000D01*
G75*
G02*
X20975000Y-36111000I-270000J0D01*
G01*
X19665000Y-36111000D01*
G75*
G02*
X19395000Y-35841000I0J270000D01*
G01*
X19395000Y-35031000D01*
G75*
G02*
X19665000Y-34761000I270000J0D01*
G01*
G37*
G36*
G01*
X19665000Y-31961000D02*
X20975000Y-31961000D01*
G75*
G02*
X21245000Y-32231000I0J-270000D01*
G01*
X21245000Y-33041000D01*
G75*
G02*
X20975000Y-33311000I-270000J0D01*
G01*
X19665000Y-33311000D01*
G75*
G02*
X19395000Y-33041000I0J270000D01*
G01*
X19395000Y-32231000D01*
G75*
G02*
X19665000Y-31961000I270000J0D01*
G01*
G37*
G04 #@! TD*
G04 #@! TO.C,R15*
G36*
G01*
X100183000Y-106135000D02*
X101493000Y-106135000D01*
G75*
G02*
X101763000Y-106405000I0J-270000D01*
G01*
X101763000Y-107215000D01*
G75*
G02*
X101493000Y-107485000I-270000J0D01*
G01*
X100183000Y-107485000D01*
G75*
G02*
X99913000Y-107215000I0J270000D01*
G01*
X99913000Y-106405000D01*
G75*
G02*
X100183000Y-106135000I270000J0D01*
G01*
G37*
G36*
G01*
X100183000Y-103335000D02*
X101493000Y-103335000D01*
G75*
G02*
X101763000Y-103605000I0J-270000D01*
G01*
X101763000Y-104415000D01*
G75*
G02*
X101493000Y-104685000I-270000J0D01*
G01*
X100183000Y-104685000D01*
G75*
G02*
X99913000Y-104415000I0J270000D01*
G01*
X99913000Y-103605000D01*
G75*
G02*
X100183000Y-103335000I270000J0D01*
G01*
G37*
G04 #@! TD*
G04 #@! TO.C,R14*
G36*
G01*
X100183000Y-89749000D02*
X101493000Y-89749000D01*
G75*
G02*
X101763000Y-90019000I0J-270000D01*
G01*
X101763000Y-90829000D01*
G75*
G02*
X101493000Y-91099000I-270000J0D01*
G01*
X100183000Y-91099000D01*
G75*
G02*
X99913000Y-90829000I0J270000D01*
G01*
X99913000Y-90019000D01*
G75*
G02*
X100183000Y-89749000I270000J0D01*
G01*
G37*
G36*
G01*
X100183000Y-86949000D02*
X101493000Y-86949000D01*
G75*
G02*
X101763000Y-87219000I0J-270000D01*
G01*
X101763000Y-88029000D01*
G75*
G02*
X101493000Y-88299000I-270000J0D01*
G01*
X100183000Y-88299000D01*
G75*
G02*
X99913000Y-88029000I0J270000D01*
G01*
X99913000Y-87219000D01*
G75*
G02*
X100183000Y-86949000I270000J0D01*
G01*
G37*
G04 #@! TD*
G04 #@! TO.C,R13*
G36*
G01*
X103739000Y-106135000D02*
X105049000Y-106135000D01*
G75*
G02*
X105319000Y-106405000I0J-270000D01*
G01*
X105319000Y-107215000D01*
G75*
G02*
X105049000Y-107485000I-270000J0D01*
G01*
X103739000Y-107485000D01*
G75*
G02*
X103469000Y-107215000I0J270000D01*
G01*
X103469000Y-106405000D01*
G75*
G02*
X103739000Y-106135000I270000J0D01*
G01*
G37*
G36*
G01*
X103739000Y-103335000D02*
X105049000Y-103335000D01*
G75*
G02*
X105319000Y-103605000I0J-270000D01*
G01*
X105319000Y-104415000D01*
G75*
G02*
X105049000Y-104685000I-270000J0D01*
G01*
X103739000Y-104685000D01*
G75*
G02*
X103469000Y-104415000I0J270000D01*
G01*
X103469000Y-103605000D01*
G75*
G02*
X103739000Y-103335000I270000J0D01*
G01*
G37*
G04 #@! TD*
G04 #@! TO.C,R12*
G36*
G01*
X103739000Y-89879000D02*
X105049000Y-89879000D01*
G75*
G02*
X105319000Y-90149000I0J-270000D01*
G01*
X105319000Y-90959000D01*
G75*
G02*
X105049000Y-91229000I-270000J0D01*
G01*
X103739000Y-91229000D01*
G75*
G02*
X103469000Y-90959000I0J270000D01*
G01*
X103469000Y-90149000D01*
G75*
G02*
X103739000Y-89879000I270000J0D01*
G01*
G37*
G36*
G01*
X103739000Y-87079000D02*
X105049000Y-87079000D01*
G75*
G02*
X105319000Y-87349000I0J-270000D01*
G01*
X105319000Y-88159000D01*
G75*
G02*
X105049000Y-88429000I-270000J0D01*
G01*
X103739000Y-88429000D01*
G75*
G02*
X103469000Y-88159000I0J270000D01*
G01*
X103469000Y-87349000D01*
G75*
G02*
X103739000Y-87079000I270000J0D01*
G01*
G37*
G04 #@! TD*
G04 #@! TO.C,R11*
G36*
G01*
X66695000Y-97827000D02*
X65385000Y-97827000D01*
G75*
G02*
X65115000Y-97557000I0J270000D01*
G01*
X65115000Y-96747000D01*
G75*
G02*
X65385000Y-96477000I270000J0D01*
G01*
X66695000Y-96477000D01*
G75*
G02*
X66965000Y-96747000I0J-270000D01*
G01*
X66965000Y-97557000D01*
G75*
G02*
X66695000Y-97827000I-270000J0D01*
G01*
G37*
G36*
G01*
X66695000Y-100627000D02*
X65385000Y-100627000D01*
G75*
G02*
X65115000Y-100357000I0J270000D01*
G01*
X65115000Y-99547000D01*
G75*
G02*
X65385000Y-99277000I270000J0D01*
G01*
X66695000Y-99277000D01*
G75*
G02*
X66965000Y-99547000I0J-270000D01*
G01*
X66965000Y-100357000D01*
G75*
G02*
X66695000Y-100627000I-270000J0D01*
G01*
G37*
G04 #@! TD*
G04 #@! TO.C,R10*
G36*
G01*
X68179000Y-99277000D02*
X69489000Y-99277000D01*
G75*
G02*
X69759000Y-99547000I0J-270000D01*
G01*
X69759000Y-100357000D01*
G75*
G02*
X69489000Y-100627000I-270000J0D01*
G01*
X68179000Y-100627000D01*
G75*
G02*
X67909000Y-100357000I0J270000D01*
G01*
X67909000Y-99547000D01*
G75*
G02*
X68179000Y-99277000I270000J0D01*
G01*
G37*
G36*
G01*
X68179000Y-96477000D02*
X69489000Y-96477000D01*
G75*
G02*
X69759000Y-96747000I0J-270000D01*
G01*
X69759000Y-97557000D01*
G75*
G02*
X69489000Y-97827000I-270000J0D01*
G01*
X68179000Y-97827000D01*
G75*
G02*
X67909000Y-97557000I0J270000D01*
G01*
X67909000Y-96747000D01*
G75*
G02*
X68179000Y-96477000I270000J0D01*
G01*
G37*
G04 #@! TD*
G04 #@! TO.C,R9*
G36*
G01*
X78593000Y-99277000D02*
X79903000Y-99277000D01*
G75*
G02*
X80173000Y-99547000I0J-270000D01*
G01*
X80173000Y-100357000D01*
G75*
G02*
X79903000Y-100627000I-270000J0D01*
G01*
X78593000Y-100627000D01*
G75*
G02*
X78323000Y-100357000I0J270000D01*
G01*
X78323000Y-99547000D01*
G75*
G02*
X78593000Y-99277000I270000J0D01*
G01*
G37*
G36*
G01*
X78593000Y-96477000D02*
X79903000Y-96477000D01*
G75*
G02*
X80173000Y-96747000I0J-270000D01*
G01*
X80173000Y-97557000D01*
G75*
G02*
X79903000Y-97827000I-270000J0D01*
G01*
X78593000Y-97827000D01*
G75*
G02*
X78323000Y-97557000I0J270000D01*
G01*
X78323000Y-96747000D01*
G75*
G02*
X78593000Y-96477000I270000J0D01*
G01*
G37*
G04 #@! TD*
G04 #@! TO.C,R8*
G36*
G01*
X88499000Y-113631000D02*
X89809000Y-113631000D01*
G75*
G02*
X90079000Y-113901000I0J-270000D01*
G01*
X90079000Y-114711000D01*
G75*
G02*
X89809000Y-114981000I-270000J0D01*
G01*
X88499000Y-114981000D01*
G75*
G02*
X88229000Y-114711000I0J270000D01*
G01*
X88229000Y-113901000D01*
G75*
G02*
X88499000Y-113631000I270000J0D01*
G01*
G37*
G36*
G01*
X88499000Y-110831000D02*
X89809000Y-110831000D01*
G75*
G02*
X90079000Y-111101000I0J-270000D01*
G01*
X90079000Y-111911000D01*
G75*
G02*
X89809000Y-112181000I-270000J0D01*
G01*
X88499000Y-112181000D01*
G75*
G02*
X88229000Y-111911000I0J270000D01*
G01*
X88229000Y-111101000D01*
G75*
G02*
X88499000Y-110831000I270000J0D01*
G01*
G37*
G04 #@! TD*
G04 #@! TO.C,R7*
G36*
G01*
X18649000Y-78957000D02*
X19959000Y-78957000D01*
G75*
G02*
X20229000Y-79227000I0J-270000D01*
G01*
X20229000Y-80037000D01*
G75*
G02*
X19959000Y-80307000I-270000J0D01*
G01*
X18649000Y-80307000D01*
G75*
G02*
X18379000Y-80037000I0J270000D01*
G01*
X18379000Y-79227000D01*
G75*
G02*
X18649000Y-78957000I270000J0D01*
G01*
G37*
G36*
G01*
X18649000Y-76157000D02*
X19959000Y-76157000D01*
G75*
G02*
X20229000Y-76427000I0J-270000D01*
G01*
X20229000Y-77237000D01*
G75*
G02*
X19959000Y-77507000I-270000J0D01*
G01*
X18649000Y-77507000D01*
G75*
G02*
X18379000Y-77237000I0J270000D01*
G01*
X18379000Y-76427000D01*
G75*
G02*
X18649000Y-76157000I270000J0D01*
G01*
G37*
G04 #@! TD*
G04 #@! TO.C,R6*
G36*
G01*
X110343000Y-98007000D02*
X111653000Y-98007000D01*
G75*
G02*
X111923000Y-98277000I0J-270000D01*
G01*
X111923000Y-99087000D01*
G75*
G02*
X111653000Y-99357000I-270000J0D01*
G01*
X110343000Y-99357000D01*
G75*
G02*
X110073000Y-99087000I0J270000D01*
G01*
X110073000Y-98277000D01*
G75*
G02*
X110343000Y-98007000I270000J0D01*
G01*
G37*
G36*
G01*
X110343000Y-95207000D02*
X111653000Y-95207000D01*
G75*
G02*
X111923000Y-95477000I0J-270000D01*
G01*
X111923000Y-96287000D01*
G75*
G02*
X111653000Y-96557000I-270000J0D01*
G01*
X110343000Y-96557000D01*
G75*
G02*
X110073000Y-96287000I0J270000D01*
G01*
X110073000Y-95477000D01*
G75*
G02*
X110343000Y-95207000I270000J0D01*
G01*
G37*
G04 #@! TD*
G04 #@! TO.C,R5*
G36*
G01*
X90023000Y-98007000D02*
X91333000Y-98007000D01*
G75*
G02*
X91603000Y-98277000I0J-270000D01*
G01*
X91603000Y-99087000D01*
G75*
G02*
X91333000Y-99357000I-270000J0D01*
G01*
X90023000Y-99357000D01*
G75*
G02*
X89753000Y-99087000I0J270000D01*
G01*
X89753000Y-98277000D01*
G75*
G02*
X90023000Y-98007000I270000J0D01*
G01*
G37*
G36*
G01*
X90023000Y-95207000D02*
X91333000Y-95207000D01*
G75*
G02*
X91603000Y-95477000I0J-270000D01*
G01*
X91603000Y-96287000D01*
G75*
G02*
X91333000Y-96557000I-270000J0D01*
G01*
X90023000Y-96557000D01*
G75*
G02*
X89753000Y-96287000I0J270000D01*
G01*
X89753000Y-95477000D01*
G75*
G02*
X90023000Y-95207000I270000J0D01*
G01*
G37*
G04 #@! TD*
G04 #@! TO.C,R4*
G36*
G01*
X75799000Y-99277000D02*
X77109000Y-99277000D01*
G75*
G02*
X77379000Y-99547000I0J-270000D01*
G01*
X77379000Y-100357000D01*
G75*
G02*
X77109000Y-100627000I-270000J0D01*
G01*
X75799000Y-100627000D01*
G75*
G02*
X75529000Y-100357000I0J270000D01*
G01*
X75529000Y-99547000D01*
G75*
G02*
X75799000Y-99277000I270000J0D01*
G01*
G37*
G36*
G01*
X75799000Y-96477000D02*
X77109000Y-96477000D01*
G75*
G02*
X77379000Y-96747000I0J-270000D01*
G01*
X77379000Y-97557000D01*
G75*
G02*
X77109000Y-97827000I-270000J0D01*
G01*
X75799000Y-97827000D01*
G75*
G02*
X75529000Y-97557000I0J270000D01*
G01*
X75529000Y-96747000D01*
G75*
G02*
X75799000Y-96477000I270000J0D01*
G01*
G37*
G04 #@! TD*
G04 #@! TO.C,R3*
G36*
G01*
X92857000Y-112051000D02*
X91547000Y-112051000D01*
G75*
G02*
X91277000Y-111781000I0J270000D01*
G01*
X91277000Y-110971000D01*
G75*
G02*
X91547000Y-110701000I270000J0D01*
G01*
X92857000Y-110701000D01*
G75*
G02*
X93127000Y-110971000I0J-270000D01*
G01*
X93127000Y-111781000D01*
G75*
G02*
X92857000Y-112051000I-270000J0D01*
G01*
G37*
G36*
G01*
X92857000Y-114851000D02*
X91547000Y-114851000D01*
G75*
G02*
X91277000Y-114581000I0J270000D01*
G01*
X91277000Y-113771000D01*
G75*
G02*
X91547000Y-113501000I270000J0D01*
G01*
X92857000Y-113501000D01*
G75*
G02*
X93127000Y-113771000I0J-270000D01*
G01*
X93127000Y-114581000D01*
G75*
G02*
X92857000Y-114851000I-270000J0D01*
G01*
G37*
G04 #@! TD*
G04 #@! TO.C,R2*
G36*
G01*
X113899000Y-98007000D02*
X115209000Y-98007000D01*
G75*
G02*
X115479000Y-98277000I0J-270000D01*
G01*
X115479000Y-99087000D01*
G75*
G02*
X115209000Y-99357000I-270000J0D01*
G01*
X113899000Y-99357000D01*
G75*
G02*
X113629000Y-99087000I0J270000D01*
G01*
X113629000Y-98277000D01*
G75*
G02*
X113899000Y-98007000I270000J0D01*
G01*
G37*
G36*
G01*
X113899000Y-95207000D02*
X115209000Y-95207000D01*
G75*
G02*
X115479000Y-95477000I0J-270000D01*
G01*
X115479000Y-96287000D01*
G75*
G02*
X115209000Y-96557000I-270000J0D01*
G01*
X113899000Y-96557000D01*
G75*
G02*
X113629000Y-96287000I0J270000D01*
G01*
X113629000Y-95477000D01*
G75*
G02*
X113899000Y-95207000I270000J0D01*
G01*
G37*
G04 #@! TD*
G04 #@! TO.C,R1*
G36*
G01*
X93579000Y-98007000D02*
X94889000Y-98007000D01*
G75*
G02*
X95159000Y-98277000I0J-270000D01*
G01*
X95159000Y-99087000D01*
G75*
G02*
X94889000Y-99357000I-270000J0D01*
G01*
X93579000Y-99357000D01*
G75*
G02*
X93309000Y-99087000I0J270000D01*
G01*
X93309000Y-98277000D01*
G75*
G02*
X93579000Y-98007000I270000J0D01*
G01*
G37*
G36*
G01*
X93579000Y-95207000D02*
X94889000Y-95207000D01*
G75*
G02*
X95159000Y-95477000I0J-270000D01*
G01*
X95159000Y-96287000D01*
G75*
G02*
X94889000Y-96557000I-270000J0D01*
G01*
X93579000Y-96557000D01*
G75*
G02*
X93309000Y-96287000I0J270000D01*
G01*
X93309000Y-95477000D01*
G75*
G02*
X93579000Y-95207000I270000J0D01*
G01*
G37*
G04 #@! TD*
D11*
G04 #@! TO.C,Analog*
X43434000Y-86614000D03*
X45974000Y-86614000D03*
X43434000Y-89154000D03*
X45974000Y-89154000D03*
X43434000Y-91694000D03*
X45974000Y-91694000D03*
X43434000Y-94234000D03*
X45974000Y-94234000D03*
X43434000Y-96774000D03*
X45974000Y-96774000D03*
X43434000Y-99314000D03*
X45974000Y-99314000D03*
X43434000Y-101854000D03*
X45974000Y-101854000D03*
X43434000Y-104394000D03*
D12*
X45974000Y-104394000D03*
G04 #@! TD*
D11*
G04 #@! TO.C,Digital*
X20828000Y-114554000D03*
X18288000Y-114554000D03*
X20828000Y-112014000D03*
X18288000Y-112014000D03*
X20828000Y-109474000D03*
X18288000Y-109474000D03*
X20828000Y-106934000D03*
X18288000Y-106934000D03*
X20828000Y-104394000D03*
X18288000Y-104394000D03*
X20828000Y-101854000D03*
X18288000Y-101854000D03*
X20828000Y-99314000D03*
X18288000Y-99314000D03*
X20828000Y-96774000D03*
X18288000Y-96774000D03*
X20828000Y-94234000D03*
X18288000Y-94234000D03*
X20828000Y-91694000D03*
X18288000Y-91694000D03*
X20828000Y-89154000D03*
X18288000Y-89154000D03*
X20828000Y-86614000D03*
D12*
X18288000Y-86614000D03*
G04 #@! TD*
D11*
G04 #@! TO.C,J4*
X61468000Y-104140000D03*
X61468000Y-101600000D03*
X61468000Y-99060000D03*
D12*
X61468000Y-96520000D03*
G04 #@! TD*
D11*
G04 #@! TO.C,J3*
X57912000Y-104140000D03*
X57912000Y-101600000D03*
X57912000Y-99060000D03*
D12*
X57912000Y-96520000D03*
G04 #@! TD*
D11*
G04 #@! TO.C,J2*
X54356000Y-104140000D03*
X54356000Y-101600000D03*
X54356000Y-99060000D03*
D12*
X54356000Y-96520000D03*
G04 #@! TD*
D11*
G04 #@! TO.C,J1*
X50800000Y-104140000D03*
X50800000Y-101600000D03*
X50800000Y-99060000D03*
D12*
X50800000Y-96520000D03*
G04 #@! TD*
D23*
G04 #@! TO.C,2 x 7 Segment *
X91440000Y-60198000D03*
X93980000Y-60198000D03*
X96520000Y-60198000D03*
X99060000Y-60198000D03*
X101600000Y-60198000D03*
X104140000Y-60198000D03*
X106680000Y-60198000D03*
X109220000Y-60198000D03*
X111760000Y-60198000D03*
X111760000Y-75438000D03*
X109220000Y-75438000D03*
X106680000Y-75438000D03*
X104140000Y-75438000D03*
X101600000Y-75438000D03*
X99060000Y-75438000D03*
X96520000Y-75438000D03*
X93980000Y-75438000D03*
D25*
X91440000Y-75438000D03*
G04 #@! TD*
D13*
G04 #@! TO.C,IR LED*
X113538000Y-20574000D03*
D26*
X110998000Y-20574000D03*
G04 #@! TD*
D13*
G04 #@! TO.C,D16*
X71882000Y-28956000D03*
D26*
X71882000Y-26416000D03*
G04 #@! TD*
D13*
G04 #@! TO.C,D15*
X64516000Y-28956000D03*
D26*
X64516000Y-26416000D03*
G04 #@! TD*
D13*
G04 #@! TO.C,D14*
X57150000Y-28956000D03*
D26*
X57150000Y-26416000D03*
G04 #@! TD*
D13*
G04 #@! TO.C,D13*
X49784000Y-28956000D03*
D26*
X49784000Y-26416000D03*
G04 #@! TD*
D13*
G04 #@! TO.C,D12*
X42418000Y-28956000D03*
D26*
X42418000Y-26416000D03*
G04 #@! TD*
D13*
G04 #@! TO.C,D11*
X35052000Y-28956000D03*
D26*
X35052000Y-26416000D03*
G04 #@! TD*
D13*
G04 #@! TO.C,D10*
X27686000Y-28956000D03*
D26*
X27686000Y-26416000D03*
G04 #@! TD*
D13*
G04 #@! TO.C,D9*
X20320000Y-28956000D03*
D26*
X20320000Y-26416000D03*
G04 #@! TD*
G04 #@! TO.C,C8*
G36*
G01*
X96627000Y-106135000D02*
X97937000Y-106135000D01*
G75*
G02*
X98207000Y-106405000I0J-270000D01*
G01*
X98207000Y-107215000D01*
G75*
G02*
X97937000Y-107485000I-270000J0D01*
G01*
X96627000Y-107485000D01*
G75*
G02*
X96357000Y-107215000I0J270000D01*
G01*
X96357000Y-106405000D01*
G75*
G02*
X96627000Y-106135000I270000J0D01*
G01*
G37*
G36*
G01*
X96627000Y-103335000D02*
X97937000Y-103335000D01*
G75*
G02*
X98207000Y-103605000I0J-270000D01*
G01*
X98207000Y-104415000D01*
G75*
G02*
X97937000Y-104685000I-270000J0D01*
G01*
X96627000Y-104685000D01*
G75*
G02*
X96357000Y-104415000I0J270000D01*
G01*
X96357000Y-103605000D01*
G75*
G02*
X96627000Y-103335000I270000J0D01*
G01*
G37*
G04 #@! TD*
G04 #@! TO.C,C7*
G36*
G01*
X96627000Y-89879000D02*
X97937000Y-89879000D01*
G75*
G02*
X98207000Y-90149000I0J-270000D01*
G01*
X98207000Y-90959000D01*
G75*
G02*
X97937000Y-91229000I-270000J0D01*
G01*
X96627000Y-91229000D01*
G75*
G02*
X96357000Y-90959000I0J270000D01*
G01*
X96357000Y-90149000D01*
G75*
G02*
X96627000Y-89879000I270000J0D01*
G01*
G37*
G36*
G01*
X96627000Y-87079000D02*
X97937000Y-87079000D01*
G75*
G02*
X98207000Y-87349000I0J-270000D01*
G01*
X98207000Y-88159000D01*
G75*
G02*
X97937000Y-88429000I-270000J0D01*
G01*
X96627000Y-88429000D01*
G75*
G02*
X96357000Y-88159000I0J270000D01*
G01*
X96357000Y-87349000D01*
G75*
G02*
X96627000Y-87079000I270000J0D01*
G01*
G37*
G04 #@! TD*
G04 #@! TO.C,C6*
G36*
G01*
X80625000Y-27649000D02*
X81935000Y-27649000D01*
G75*
G02*
X82205000Y-27919000I0J-270000D01*
G01*
X82205000Y-28729000D01*
G75*
G02*
X81935000Y-28999000I-270000J0D01*
G01*
X80625000Y-28999000D01*
G75*
G02*
X80355000Y-28729000I0J270000D01*
G01*
X80355000Y-27919000D01*
G75*
G02*
X80625000Y-27649000I270000J0D01*
G01*
G37*
G36*
G01*
X80625000Y-24849000D02*
X81935000Y-24849000D01*
G75*
G02*
X82205000Y-25119000I0J-270000D01*
G01*
X82205000Y-25929000D01*
G75*
G02*
X81935000Y-26199000I-270000J0D01*
G01*
X80625000Y-26199000D01*
G75*
G02*
X80355000Y-25929000I0J270000D01*
G01*
X80355000Y-25119000D01*
G75*
G02*
X80625000Y-24849000I270000J0D01*
G01*
G37*
G04 #@! TD*
G04 #@! TO.C,C5*
G36*
G01*
X70973000Y-99277000D02*
X72283000Y-99277000D01*
G75*
G02*
X72553000Y-99547000I0J-270000D01*
G01*
X72553000Y-100357000D01*
G75*
G02*
X72283000Y-100627000I-270000J0D01*
G01*
X70973000Y-100627000D01*
G75*
G02*
X70703000Y-100357000I0J270000D01*
G01*
X70703000Y-99547000D01*
G75*
G02*
X70973000Y-99277000I270000J0D01*
G01*
G37*
G36*
G01*
X70973000Y-96477000D02*
X72283000Y-96477000D01*
G75*
G02*
X72553000Y-96747000I0J-270000D01*
G01*
X72553000Y-97557000D01*
G75*
G02*
X72283000Y-97827000I-270000J0D01*
G01*
X70973000Y-97827000D01*
G75*
G02*
X70703000Y-97557000I0J270000D01*
G01*
X70703000Y-96747000D01*
G75*
G02*
X70973000Y-96477000I270000J0D01*
G01*
G37*
G04 #@! TD*
G04 #@! TO.C,C4*
G36*
G01*
X106787000Y-98007000D02*
X108097000Y-98007000D01*
G75*
G02*
X108367000Y-98277000I0J-270000D01*
G01*
X108367000Y-99087000D01*
G75*
G02*
X108097000Y-99357000I-270000J0D01*
G01*
X106787000Y-99357000D01*
G75*
G02*
X106517000Y-99087000I0J270000D01*
G01*
X106517000Y-98277000D01*
G75*
G02*
X106787000Y-98007000I270000J0D01*
G01*
G37*
G36*
G01*
X106787000Y-95207000D02*
X108097000Y-95207000D01*
G75*
G02*
X108367000Y-95477000I0J-270000D01*
G01*
X108367000Y-96287000D01*
G75*
G02*
X108097000Y-96557000I-270000J0D01*
G01*
X106787000Y-96557000D01*
G75*
G02*
X106517000Y-96287000I0J270000D01*
G01*
X106517000Y-95477000D01*
G75*
G02*
X106787000Y-95207000I270000J0D01*
G01*
G37*
G04 #@! TD*
G04 #@! TO.C,C3*
G36*
G01*
X86467000Y-98131000D02*
X87777000Y-98131000D01*
G75*
G02*
X88047000Y-98401000I0J-270000D01*
G01*
X88047000Y-99211000D01*
G75*
G02*
X87777000Y-99481000I-270000J0D01*
G01*
X86467000Y-99481000D01*
G75*
G02*
X86197000Y-99211000I0J270000D01*
G01*
X86197000Y-98401000D01*
G75*
G02*
X86467000Y-98131000I270000J0D01*
G01*
G37*
G36*
G01*
X86467000Y-95331000D02*
X87777000Y-95331000D01*
G75*
G02*
X88047000Y-95601000I0J-270000D01*
G01*
X88047000Y-96411000D01*
G75*
G02*
X87777000Y-96681000I-270000J0D01*
G01*
X86467000Y-96681000D01*
G75*
G02*
X86197000Y-96411000I0J270000D01*
G01*
X86197000Y-95601000D01*
G75*
G02*
X86467000Y-95331000I270000J0D01*
G01*
G37*
G04 #@! TD*
G04 #@! TO.C,C2*
G36*
G01*
X82697000Y-97827000D02*
X81387000Y-97827000D01*
G75*
G02*
X81117000Y-97557000I0J270000D01*
G01*
X81117000Y-96747000D01*
G75*
G02*
X81387000Y-96477000I270000J0D01*
G01*
X82697000Y-96477000D01*
G75*
G02*
X82967000Y-96747000I0J-270000D01*
G01*
X82967000Y-97557000D01*
G75*
G02*
X82697000Y-97827000I-270000J0D01*
G01*
G37*
G36*
G01*
X82697000Y-100627000D02*
X81387000Y-100627000D01*
G75*
G02*
X81117000Y-100357000I0J270000D01*
G01*
X81117000Y-99547000D01*
G75*
G02*
X81387000Y-99277000I270000J0D01*
G01*
X82697000Y-99277000D01*
G75*
G02*
X82967000Y-99547000I0J-270000D01*
G01*
X82967000Y-100357000D01*
G75*
G02*
X82697000Y-100627000I-270000J0D01*
G01*
G37*
G04 #@! TD*
G04 #@! TO.C,C1*
G36*
G01*
X85451000Y-113501000D02*
X86761000Y-113501000D01*
G75*
G02*
X87031000Y-113771000I0J-270000D01*
G01*
X87031000Y-114581000D01*
G75*
G02*
X86761000Y-114851000I-270000J0D01*
G01*
X85451000Y-114851000D01*
G75*
G02*
X85181000Y-114581000I0J270000D01*
G01*
X85181000Y-113771000D01*
G75*
G02*
X85451000Y-113501000I270000J0D01*
G01*
G37*
G36*
G01*
X85451000Y-110701000D02*
X86761000Y-110701000D01*
G75*
G02*
X87031000Y-110971000I0J-270000D01*
G01*
X87031000Y-111781000D01*
G75*
G02*
X86761000Y-112051000I-270000J0D01*
G01*
X85451000Y-112051000D01*
G75*
G02*
X85181000Y-111781000I0J270000D01*
G01*
X85181000Y-110971000D01*
G75*
G02*
X85451000Y-110701000I270000J0D01*
G01*
G37*
G04 #@! TD*
D14*
G04 #@! TO.C,Arduino Nano*
X39624000Y-112014000D03*
X24384000Y-112014000D03*
X39624000Y-76454000D03*
X24384000Y-109474000D03*
X39624000Y-78994000D03*
X24384000Y-106934000D03*
X39624000Y-81534000D03*
X24384000Y-104394000D03*
X39624000Y-84074000D03*
X24384000Y-101854000D03*
X39624000Y-86614000D03*
X24384000Y-99314000D03*
X39624000Y-89154000D03*
X24384000Y-96774000D03*
X39624000Y-91694000D03*
X24384000Y-94234000D03*
X39624000Y-94234000D03*
X24384000Y-91694000D03*
X39624000Y-96774000D03*
X24384000Y-89154000D03*
X39624000Y-99314000D03*
X24384000Y-86614000D03*
X39624000Y-101854000D03*
X24384000Y-84074000D03*
X39624000Y-104394000D03*
X24384000Y-81534000D03*
X39624000Y-106934000D03*
X24384000Y-78994000D03*
X39624000Y-109474000D03*
D15*
X24384000Y-76454000D03*
G04 #@! TD*
M02*
