G04 #@! TF.GenerationSoftware,KiCad,Pcbnew,(5.1.6)-1*
G04 #@! TF.CreationDate,2020-06-28T06:58:36-07:00*
G04 #@! TF.ProjectId,NanoDemo,4e616e6f-4465-46d6-9f2e-6b696361645f,rev?*
G04 #@! TF.SameCoordinates,Original*
G04 #@! TF.FileFunction,Paste,Top*
G04 #@! TF.FilePolarity,Positive*
%FSLAX46Y46*%
G04 Gerber Fmt 4.6, Leading zero omitted, Abs format (unit mm)*
G04 Created by KiCad (PCBNEW (5.1.6)-1) date 2020-06-28 06:58:36*
%MOMM*%
%LPD*%
G01*
G04 APERTURE LIST*
%ADD10R,1.500000X1.000000*%
G04 APERTURE END LIST*
D10*
G04 #@! TO.C,D1*
X22770000Y-21412000D03*
X22770000Y-18212000D03*
X17870000Y-21412000D03*
X17870000Y-18212000D03*
G04 #@! TD*
G04 #@! TO.C,D8*
X77888000Y-21412000D03*
X77888000Y-18212000D03*
X72988000Y-21412000D03*
X72988000Y-18212000D03*
G04 #@! TD*
G04 #@! TO.C,D7*
X70014000Y-21412000D03*
X70014000Y-18212000D03*
X65114000Y-21412000D03*
X65114000Y-18212000D03*
G04 #@! TD*
G04 #@! TO.C,D6*
X62140000Y-21412000D03*
X62140000Y-18212000D03*
X57240000Y-21412000D03*
X57240000Y-18212000D03*
G04 #@! TD*
G04 #@! TO.C,D5*
X54266000Y-21412000D03*
X54266000Y-18212000D03*
X49366000Y-21412000D03*
X49366000Y-18212000D03*
G04 #@! TD*
G04 #@! TO.C,D4*
X46392000Y-21412000D03*
X46392000Y-18212000D03*
X41492000Y-21412000D03*
X41492000Y-18212000D03*
G04 #@! TD*
G04 #@! TO.C,D3*
X38518000Y-21412000D03*
X38518000Y-18212000D03*
X33618000Y-21412000D03*
X33618000Y-18212000D03*
G04 #@! TD*
G04 #@! TO.C,D2*
X30644000Y-21412000D03*
X30644000Y-18212000D03*
X25744000Y-21412000D03*
X25744000Y-18212000D03*
G04 #@! TD*
G04 #@! TO.C,R42*
G36*
G01*
X49771000Y-88529000D02*
X49771000Y-89779000D01*
G75*
G02*
X49521000Y-90029000I-250000J0D01*
G01*
X48771000Y-90029000D01*
G75*
G02*
X48521000Y-89779000I0J250000D01*
G01*
X48521000Y-88529000D01*
G75*
G02*
X48771000Y-88279000I250000J0D01*
G01*
X49521000Y-88279000D01*
G75*
G02*
X49771000Y-88529000I0J-250000D01*
G01*
G37*
G36*
G01*
X52571000Y-88529000D02*
X52571000Y-89779000D01*
G75*
G02*
X52321000Y-90029000I-250000J0D01*
G01*
X51571000Y-90029000D01*
G75*
G02*
X51321000Y-89779000I0J250000D01*
G01*
X51321000Y-88529000D01*
G75*
G02*
X51571000Y-88279000I250000J0D01*
G01*
X52321000Y-88279000D01*
G75*
G02*
X52571000Y-88529000I0J-250000D01*
G01*
G37*
G04 #@! TD*
G04 #@! TO.C,R41*
G36*
G01*
X111135000Y-81547000D02*
X112385000Y-81547000D01*
G75*
G02*
X112635000Y-81797000I0J-250000D01*
G01*
X112635000Y-82547000D01*
G75*
G02*
X112385000Y-82797000I-250000J0D01*
G01*
X111135000Y-82797000D01*
G75*
G02*
X110885000Y-82547000I0J250000D01*
G01*
X110885000Y-81797000D01*
G75*
G02*
X111135000Y-81547000I250000J0D01*
G01*
G37*
G36*
G01*
X111135000Y-78747000D02*
X112385000Y-78747000D01*
G75*
G02*
X112635000Y-78997000I0J-250000D01*
G01*
X112635000Y-79747000D01*
G75*
G02*
X112385000Y-79997000I-250000J0D01*
G01*
X111135000Y-79997000D01*
G75*
G02*
X110885000Y-79747000I0J250000D01*
G01*
X110885000Y-78997000D01*
G75*
G02*
X111135000Y-78747000I250000J0D01*
G01*
G37*
G04 #@! TD*
G04 #@! TO.C,R40*
G36*
G01*
X106055000Y-81547000D02*
X107305000Y-81547000D01*
G75*
G02*
X107555000Y-81797000I0J-250000D01*
G01*
X107555000Y-82547000D01*
G75*
G02*
X107305000Y-82797000I-250000J0D01*
G01*
X106055000Y-82797000D01*
G75*
G02*
X105805000Y-82547000I0J250000D01*
G01*
X105805000Y-81797000D01*
G75*
G02*
X106055000Y-81547000I250000J0D01*
G01*
G37*
G36*
G01*
X106055000Y-78747000D02*
X107305000Y-78747000D01*
G75*
G02*
X107555000Y-78997000I0J-250000D01*
G01*
X107555000Y-79747000D01*
G75*
G02*
X107305000Y-79997000I-250000J0D01*
G01*
X106055000Y-79997000D01*
G75*
G02*
X105805000Y-79747000I0J250000D01*
G01*
X105805000Y-78997000D01*
G75*
G02*
X106055000Y-78747000I250000J0D01*
G01*
G37*
G04 #@! TD*
G04 #@! TO.C,R39*
G36*
G01*
X107305000Y-54343000D02*
X106055000Y-54343000D01*
G75*
G02*
X105805000Y-54093000I0J250000D01*
G01*
X105805000Y-53343000D01*
G75*
G02*
X106055000Y-53093000I250000J0D01*
G01*
X107305000Y-53093000D01*
G75*
G02*
X107555000Y-53343000I0J-250000D01*
G01*
X107555000Y-54093000D01*
G75*
G02*
X107305000Y-54343000I-250000J0D01*
G01*
G37*
G36*
G01*
X107305000Y-57143000D02*
X106055000Y-57143000D01*
G75*
G02*
X105805000Y-56893000I0J250000D01*
G01*
X105805000Y-56143000D01*
G75*
G02*
X106055000Y-55893000I250000J0D01*
G01*
X107305000Y-55893000D01*
G75*
G02*
X107555000Y-56143000I0J-250000D01*
G01*
X107555000Y-56893000D01*
G75*
G02*
X107305000Y-57143000I-250000J0D01*
G01*
G37*
G04 #@! TD*
G04 #@! TO.C,R38*
G36*
G01*
X100975000Y-81547000D02*
X102225000Y-81547000D01*
G75*
G02*
X102475000Y-81797000I0J-250000D01*
G01*
X102475000Y-82547000D01*
G75*
G02*
X102225000Y-82797000I-250000J0D01*
G01*
X100975000Y-82797000D01*
G75*
G02*
X100725000Y-82547000I0J250000D01*
G01*
X100725000Y-81797000D01*
G75*
G02*
X100975000Y-81547000I250000J0D01*
G01*
G37*
G36*
G01*
X100975000Y-78747000D02*
X102225000Y-78747000D01*
G75*
G02*
X102475000Y-78997000I0J-250000D01*
G01*
X102475000Y-79747000D01*
G75*
G02*
X102225000Y-79997000I-250000J0D01*
G01*
X100975000Y-79997000D01*
G75*
G02*
X100725000Y-79747000I0J250000D01*
G01*
X100725000Y-78997000D01*
G75*
G02*
X100975000Y-78747000I250000J0D01*
G01*
G37*
G04 #@! TD*
G04 #@! TO.C,R37*
G36*
G01*
X103515000Y-81547000D02*
X104765000Y-81547000D01*
G75*
G02*
X105015000Y-81797000I0J-250000D01*
G01*
X105015000Y-82547000D01*
G75*
G02*
X104765000Y-82797000I-250000J0D01*
G01*
X103515000Y-82797000D01*
G75*
G02*
X103265000Y-82547000I0J250000D01*
G01*
X103265000Y-81797000D01*
G75*
G02*
X103515000Y-81547000I250000J0D01*
G01*
G37*
G36*
G01*
X103515000Y-78747000D02*
X104765000Y-78747000D01*
G75*
G02*
X105015000Y-78997000I0J-250000D01*
G01*
X105015000Y-79747000D01*
G75*
G02*
X104765000Y-79997000I-250000J0D01*
G01*
X103515000Y-79997000D01*
G75*
G02*
X103265000Y-79747000I0J250000D01*
G01*
X103265000Y-78997000D01*
G75*
G02*
X103515000Y-78747000I250000J0D01*
G01*
G37*
G04 #@! TD*
G04 #@! TO.C,R36*
G36*
G01*
X108595000Y-81547000D02*
X109845000Y-81547000D01*
G75*
G02*
X110095000Y-81797000I0J-250000D01*
G01*
X110095000Y-82547000D01*
G75*
G02*
X109845000Y-82797000I-250000J0D01*
G01*
X108595000Y-82797000D01*
G75*
G02*
X108345000Y-82547000I0J250000D01*
G01*
X108345000Y-81797000D01*
G75*
G02*
X108595000Y-81547000I250000J0D01*
G01*
G37*
G36*
G01*
X108595000Y-78747000D02*
X109845000Y-78747000D01*
G75*
G02*
X110095000Y-78997000I0J-250000D01*
G01*
X110095000Y-79747000D01*
G75*
G02*
X109845000Y-79997000I-250000J0D01*
G01*
X108595000Y-79997000D01*
G75*
G02*
X108345000Y-79747000I0J250000D01*
G01*
X108345000Y-78997000D01*
G75*
G02*
X108595000Y-78747000I250000J0D01*
G01*
G37*
G04 #@! TD*
G04 #@! TO.C,R35*
G36*
G01*
X71257000Y-34811000D02*
X72507000Y-34811000D01*
G75*
G02*
X72757000Y-35061000I0J-250000D01*
G01*
X72757000Y-35811000D01*
G75*
G02*
X72507000Y-36061000I-250000J0D01*
G01*
X71257000Y-36061000D01*
G75*
G02*
X71007000Y-35811000I0J250000D01*
G01*
X71007000Y-35061000D01*
G75*
G02*
X71257000Y-34811000I250000J0D01*
G01*
G37*
G36*
G01*
X71257000Y-32011000D02*
X72507000Y-32011000D01*
G75*
G02*
X72757000Y-32261000I0J-250000D01*
G01*
X72757000Y-33011000D01*
G75*
G02*
X72507000Y-33261000I-250000J0D01*
G01*
X71257000Y-33261000D01*
G75*
G02*
X71007000Y-33011000I0J250000D01*
G01*
X71007000Y-32261000D01*
G75*
G02*
X71257000Y-32011000I250000J0D01*
G01*
G37*
G04 #@! TD*
G04 #@! TO.C,R34*
G36*
G01*
X112385000Y-54343000D02*
X111135000Y-54343000D01*
G75*
G02*
X110885000Y-54093000I0J250000D01*
G01*
X110885000Y-53343000D01*
G75*
G02*
X111135000Y-53093000I250000J0D01*
G01*
X112385000Y-53093000D01*
G75*
G02*
X112635000Y-53343000I0J-250000D01*
G01*
X112635000Y-54093000D01*
G75*
G02*
X112385000Y-54343000I-250000J0D01*
G01*
G37*
G36*
G01*
X112385000Y-57143000D02*
X111135000Y-57143000D01*
G75*
G02*
X110885000Y-56893000I0J250000D01*
G01*
X110885000Y-56143000D01*
G75*
G02*
X111135000Y-55893000I250000J0D01*
G01*
X112385000Y-55893000D01*
G75*
G02*
X112635000Y-56143000I0J-250000D01*
G01*
X112635000Y-56893000D01*
G75*
G02*
X112385000Y-57143000I-250000J0D01*
G01*
G37*
G04 #@! TD*
G04 #@! TO.C,R33*
G36*
G01*
X109845000Y-54343000D02*
X108595000Y-54343000D01*
G75*
G02*
X108345000Y-54093000I0J250000D01*
G01*
X108345000Y-53343000D01*
G75*
G02*
X108595000Y-53093000I250000J0D01*
G01*
X109845000Y-53093000D01*
G75*
G02*
X110095000Y-53343000I0J-250000D01*
G01*
X110095000Y-54093000D01*
G75*
G02*
X109845000Y-54343000I-250000J0D01*
G01*
G37*
G36*
G01*
X109845000Y-57143000D02*
X108595000Y-57143000D01*
G75*
G02*
X108345000Y-56893000I0J250000D01*
G01*
X108345000Y-56143000D01*
G75*
G02*
X108595000Y-55893000I250000J0D01*
G01*
X109845000Y-55893000D01*
G75*
G02*
X110095000Y-56143000I0J-250000D01*
G01*
X110095000Y-56893000D01*
G75*
G02*
X109845000Y-57143000I-250000J0D01*
G01*
G37*
G04 #@! TD*
G04 #@! TO.C,R32*
G36*
G01*
X49771000Y-91069000D02*
X49771000Y-92319000D01*
G75*
G02*
X49521000Y-92569000I-250000J0D01*
G01*
X48771000Y-92569000D01*
G75*
G02*
X48521000Y-92319000I0J250000D01*
G01*
X48521000Y-91069000D01*
G75*
G02*
X48771000Y-90819000I250000J0D01*
G01*
X49521000Y-90819000D01*
G75*
G02*
X49771000Y-91069000I0J-250000D01*
G01*
G37*
G36*
G01*
X52571000Y-91069000D02*
X52571000Y-92319000D01*
G75*
G02*
X52321000Y-92569000I-250000J0D01*
G01*
X51571000Y-92569000D01*
G75*
G02*
X51321000Y-92319000I0J250000D01*
G01*
X51321000Y-91069000D01*
G75*
G02*
X51571000Y-90819000I250000J0D01*
G01*
X52321000Y-90819000D01*
G75*
G02*
X52571000Y-91069000I0J-250000D01*
G01*
G37*
G04 #@! TD*
G04 #@! TO.C,R30*
G36*
G01*
X63891000Y-34811000D02*
X65141000Y-34811000D01*
G75*
G02*
X65391000Y-35061000I0J-250000D01*
G01*
X65391000Y-35811000D01*
G75*
G02*
X65141000Y-36061000I-250000J0D01*
G01*
X63891000Y-36061000D01*
G75*
G02*
X63641000Y-35811000I0J250000D01*
G01*
X63641000Y-35061000D01*
G75*
G02*
X63891000Y-34811000I250000J0D01*
G01*
G37*
G36*
G01*
X63891000Y-32011000D02*
X65141000Y-32011000D01*
G75*
G02*
X65391000Y-32261000I0J-250000D01*
G01*
X65391000Y-33011000D01*
G75*
G02*
X65141000Y-33261000I-250000J0D01*
G01*
X63891000Y-33261000D01*
G75*
G02*
X63641000Y-33011000I0J250000D01*
G01*
X63641000Y-32261000D01*
G75*
G02*
X63891000Y-32011000I250000J0D01*
G01*
G37*
G04 #@! TD*
G04 #@! TO.C,R29*
G36*
G01*
X98435000Y-81547000D02*
X99685000Y-81547000D01*
G75*
G02*
X99935000Y-81797000I0J-250000D01*
G01*
X99935000Y-82547000D01*
G75*
G02*
X99685000Y-82797000I-250000J0D01*
G01*
X98435000Y-82797000D01*
G75*
G02*
X98185000Y-82547000I0J250000D01*
G01*
X98185000Y-81797000D01*
G75*
G02*
X98435000Y-81547000I250000J0D01*
G01*
G37*
G36*
G01*
X98435000Y-78747000D02*
X99685000Y-78747000D01*
G75*
G02*
X99935000Y-78997000I0J-250000D01*
G01*
X99935000Y-79747000D01*
G75*
G02*
X99685000Y-79997000I-250000J0D01*
G01*
X98435000Y-79997000D01*
G75*
G02*
X98185000Y-79747000I0J250000D01*
G01*
X98185000Y-78997000D01*
G75*
G02*
X98435000Y-78747000I250000J0D01*
G01*
G37*
G04 #@! TD*
G04 #@! TO.C,R28*
G36*
G01*
X56525000Y-34811000D02*
X57775000Y-34811000D01*
G75*
G02*
X58025000Y-35061000I0J-250000D01*
G01*
X58025000Y-35811000D01*
G75*
G02*
X57775000Y-36061000I-250000J0D01*
G01*
X56525000Y-36061000D01*
G75*
G02*
X56275000Y-35811000I0J250000D01*
G01*
X56275000Y-35061000D01*
G75*
G02*
X56525000Y-34811000I250000J0D01*
G01*
G37*
G36*
G01*
X56525000Y-32011000D02*
X57775000Y-32011000D01*
G75*
G02*
X58025000Y-32261000I0J-250000D01*
G01*
X58025000Y-33011000D01*
G75*
G02*
X57775000Y-33261000I-250000J0D01*
G01*
X56525000Y-33261000D01*
G75*
G02*
X56275000Y-33011000I0J250000D01*
G01*
X56275000Y-32261000D01*
G75*
G02*
X56525000Y-32011000I250000J0D01*
G01*
G37*
G04 #@! TD*
G04 #@! TO.C,R27*
G36*
G01*
X94605000Y-54343000D02*
X93355000Y-54343000D01*
G75*
G02*
X93105000Y-54093000I0J250000D01*
G01*
X93105000Y-53343000D01*
G75*
G02*
X93355000Y-53093000I250000J0D01*
G01*
X94605000Y-53093000D01*
G75*
G02*
X94855000Y-53343000I0J-250000D01*
G01*
X94855000Y-54093000D01*
G75*
G02*
X94605000Y-54343000I-250000J0D01*
G01*
G37*
G36*
G01*
X94605000Y-57143000D02*
X93355000Y-57143000D01*
G75*
G02*
X93105000Y-56893000I0J250000D01*
G01*
X93105000Y-56143000D01*
G75*
G02*
X93355000Y-55893000I250000J0D01*
G01*
X94605000Y-55893000D01*
G75*
G02*
X94855000Y-56143000I0J-250000D01*
G01*
X94855000Y-56893000D01*
G75*
G02*
X94605000Y-57143000I-250000J0D01*
G01*
G37*
G04 #@! TD*
G04 #@! TO.C,R26*
G36*
G01*
X92065000Y-54343000D02*
X90815000Y-54343000D01*
G75*
G02*
X90565000Y-54093000I0J250000D01*
G01*
X90565000Y-53343000D01*
G75*
G02*
X90815000Y-53093000I250000J0D01*
G01*
X92065000Y-53093000D01*
G75*
G02*
X92315000Y-53343000I0J-250000D01*
G01*
X92315000Y-54093000D01*
G75*
G02*
X92065000Y-54343000I-250000J0D01*
G01*
G37*
G36*
G01*
X92065000Y-57143000D02*
X90815000Y-57143000D01*
G75*
G02*
X90565000Y-56893000I0J250000D01*
G01*
X90565000Y-56143000D01*
G75*
G02*
X90815000Y-55893000I250000J0D01*
G01*
X92065000Y-55893000D01*
G75*
G02*
X92315000Y-56143000I0J-250000D01*
G01*
X92315000Y-56893000D01*
G75*
G02*
X92065000Y-57143000I-250000J0D01*
G01*
G37*
G04 #@! TD*
G04 #@! TO.C,R25*
G36*
G01*
X49159000Y-34811000D02*
X50409000Y-34811000D01*
G75*
G02*
X50659000Y-35061000I0J-250000D01*
G01*
X50659000Y-35811000D01*
G75*
G02*
X50409000Y-36061000I-250000J0D01*
G01*
X49159000Y-36061000D01*
G75*
G02*
X48909000Y-35811000I0J250000D01*
G01*
X48909000Y-35061000D01*
G75*
G02*
X49159000Y-34811000I250000J0D01*
G01*
G37*
G36*
G01*
X49159000Y-32011000D02*
X50409000Y-32011000D01*
G75*
G02*
X50659000Y-32261000I0J-250000D01*
G01*
X50659000Y-33011000D01*
G75*
G02*
X50409000Y-33261000I-250000J0D01*
G01*
X49159000Y-33261000D01*
G75*
G02*
X48909000Y-33011000I0J250000D01*
G01*
X48909000Y-32261000D01*
G75*
G02*
X49159000Y-32011000I250000J0D01*
G01*
G37*
G04 #@! TD*
G04 #@! TO.C,R24*
G36*
G01*
X90815000Y-81547000D02*
X92065000Y-81547000D01*
G75*
G02*
X92315000Y-81797000I0J-250000D01*
G01*
X92315000Y-82547000D01*
G75*
G02*
X92065000Y-82797000I-250000J0D01*
G01*
X90815000Y-82797000D01*
G75*
G02*
X90565000Y-82547000I0J250000D01*
G01*
X90565000Y-81797000D01*
G75*
G02*
X90815000Y-81547000I250000J0D01*
G01*
G37*
G36*
G01*
X90815000Y-78747000D02*
X92065000Y-78747000D01*
G75*
G02*
X92315000Y-78997000I0J-250000D01*
G01*
X92315000Y-79747000D01*
G75*
G02*
X92065000Y-79997000I-250000J0D01*
G01*
X90815000Y-79997000D01*
G75*
G02*
X90565000Y-79747000I0J250000D01*
G01*
X90565000Y-78997000D01*
G75*
G02*
X90815000Y-78747000I250000J0D01*
G01*
G37*
G04 #@! TD*
G04 #@! TO.C,R23*
G36*
G01*
X93355000Y-81547000D02*
X94605000Y-81547000D01*
G75*
G02*
X94855000Y-81797000I0J-250000D01*
G01*
X94855000Y-82547000D01*
G75*
G02*
X94605000Y-82797000I-250000J0D01*
G01*
X93355000Y-82797000D01*
G75*
G02*
X93105000Y-82547000I0J250000D01*
G01*
X93105000Y-81797000D01*
G75*
G02*
X93355000Y-81547000I250000J0D01*
G01*
G37*
G36*
G01*
X93355000Y-78747000D02*
X94605000Y-78747000D01*
G75*
G02*
X94855000Y-78997000I0J-250000D01*
G01*
X94855000Y-79747000D01*
G75*
G02*
X94605000Y-79997000I-250000J0D01*
G01*
X93355000Y-79997000D01*
G75*
G02*
X93105000Y-79747000I0J250000D01*
G01*
X93105000Y-78997000D01*
G75*
G02*
X93355000Y-78747000I250000J0D01*
G01*
G37*
G04 #@! TD*
G04 #@! TO.C,R22*
G36*
G01*
X41793000Y-34811000D02*
X43043000Y-34811000D01*
G75*
G02*
X43293000Y-35061000I0J-250000D01*
G01*
X43293000Y-35811000D01*
G75*
G02*
X43043000Y-36061000I-250000J0D01*
G01*
X41793000Y-36061000D01*
G75*
G02*
X41543000Y-35811000I0J250000D01*
G01*
X41543000Y-35061000D01*
G75*
G02*
X41793000Y-34811000I250000J0D01*
G01*
G37*
G36*
G01*
X41793000Y-32011000D02*
X43043000Y-32011000D01*
G75*
G02*
X43293000Y-32261000I0J-250000D01*
G01*
X43293000Y-33011000D01*
G75*
G02*
X43043000Y-33261000I-250000J0D01*
G01*
X41793000Y-33261000D01*
G75*
G02*
X41543000Y-33011000I0J250000D01*
G01*
X41543000Y-32261000D01*
G75*
G02*
X41793000Y-32011000I250000J0D01*
G01*
G37*
G04 #@! TD*
G04 #@! TO.C,R21*
G36*
G01*
X95895000Y-81547000D02*
X97145000Y-81547000D01*
G75*
G02*
X97395000Y-81797000I0J-250000D01*
G01*
X97395000Y-82547000D01*
G75*
G02*
X97145000Y-82797000I-250000J0D01*
G01*
X95895000Y-82797000D01*
G75*
G02*
X95645000Y-82547000I0J250000D01*
G01*
X95645000Y-81797000D01*
G75*
G02*
X95895000Y-81547000I250000J0D01*
G01*
G37*
G36*
G01*
X95895000Y-78747000D02*
X97145000Y-78747000D01*
G75*
G02*
X97395000Y-78997000I0J-250000D01*
G01*
X97395000Y-79747000D01*
G75*
G02*
X97145000Y-79997000I-250000J0D01*
G01*
X95895000Y-79997000D01*
G75*
G02*
X95645000Y-79747000I0J250000D01*
G01*
X95645000Y-78997000D01*
G75*
G02*
X95895000Y-78747000I250000J0D01*
G01*
G37*
G04 #@! TD*
G04 #@! TO.C,R20*
G36*
G01*
X99685000Y-54343000D02*
X98435000Y-54343000D01*
G75*
G02*
X98185000Y-54093000I0J250000D01*
G01*
X98185000Y-53343000D01*
G75*
G02*
X98435000Y-53093000I250000J0D01*
G01*
X99685000Y-53093000D01*
G75*
G02*
X99935000Y-53343000I0J-250000D01*
G01*
X99935000Y-54093000D01*
G75*
G02*
X99685000Y-54343000I-250000J0D01*
G01*
G37*
G36*
G01*
X99685000Y-57143000D02*
X98435000Y-57143000D01*
G75*
G02*
X98185000Y-56893000I0J250000D01*
G01*
X98185000Y-56143000D01*
G75*
G02*
X98435000Y-55893000I250000J0D01*
G01*
X99685000Y-55893000D01*
G75*
G02*
X99935000Y-56143000I0J-250000D01*
G01*
X99935000Y-56893000D01*
G75*
G02*
X99685000Y-57143000I-250000J0D01*
G01*
G37*
G04 #@! TD*
G04 #@! TO.C,R19*
G36*
G01*
X34427000Y-34811000D02*
X35677000Y-34811000D01*
G75*
G02*
X35927000Y-35061000I0J-250000D01*
G01*
X35927000Y-35811000D01*
G75*
G02*
X35677000Y-36061000I-250000J0D01*
G01*
X34427000Y-36061000D01*
G75*
G02*
X34177000Y-35811000I0J250000D01*
G01*
X34177000Y-35061000D01*
G75*
G02*
X34427000Y-34811000I250000J0D01*
G01*
G37*
G36*
G01*
X34427000Y-32011000D02*
X35677000Y-32011000D01*
G75*
G02*
X35927000Y-32261000I0J-250000D01*
G01*
X35927000Y-33011000D01*
G75*
G02*
X35677000Y-33261000I-250000J0D01*
G01*
X34427000Y-33261000D01*
G75*
G02*
X34177000Y-33011000I0J250000D01*
G01*
X34177000Y-32261000D01*
G75*
G02*
X34427000Y-32011000I250000J0D01*
G01*
G37*
G04 #@! TD*
G04 #@! TO.C,R18*
G36*
G01*
X97145000Y-54343000D02*
X95895000Y-54343000D01*
G75*
G02*
X95645000Y-54093000I0J250000D01*
G01*
X95645000Y-53343000D01*
G75*
G02*
X95895000Y-53093000I250000J0D01*
G01*
X97145000Y-53093000D01*
G75*
G02*
X97395000Y-53343000I0J-250000D01*
G01*
X97395000Y-54093000D01*
G75*
G02*
X97145000Y-54343000I-250000J0D01*
G01*
G37*
G36*
G01*
X97145000Y-57143000D02*
X95895000Y-57143000D01*
G75*
G02*
X95645000Y-56893000I0J250000D01*
G01*
X95645000Y-56143000D01*
G75*
G02*
X95895000Y-55893000I250000J0D01*
G01*
X97145000Y-55893000D01*
G75*
G02*
X97395000Y-56143000I0J-250000D01*
G01*
X97395000Y-56893000D01*
G75*
G02*
X97145000Y-57143000I-250000J0D01*
G01*
G37*
G04 #@! TD*
G04 #@! TO.C,R17*
G36*
G01*
X27061000Y-34811000D02*
X28311000Y-34811000D01*
G75*
G02*
X28561000Y-35061000I0J-250000D01*
G01*
X28561000Y-35811000D01*
G75*
G02*
X28311000Y-36061000I-250000J0D01*
G01*
X27061000Y-36061000D01*
G75*
G02*
X26811000Y-35811000I0J250000D01*
G01*
X26811000Y-35061000D01*
G75*
G02*
X27061000Y-34811000I250000J0D01*
G01*
G37*
G36*
G01*
X27061000Y-32011000D02*
X28311000Y-32011000D01*
G75*
G02*
X28561000Y-32261000I0J-250000D01*
G01*
X28561000Y-33011000D01*
G75*
G02*
X28311000Y-33261000I-250000J0D01*
G01*
X27061000Y-33261000D01*
G75*
G02*
X26811000Y-33011000I0J250000D01*
G01*
X26811000Y-32261000D01*
G75*
G02*
X27061000Y-32011000I250000J0D01*
G01*
G37*
G04 #@! TD*
G04 #@! TO.C,R16*
G36*
G01*
X19695000Y-34811000D02*
X20945000Y-34811000D01*
G75*
G02*
X21195000Y-35061000I0J-250000D01*
G01*
X21195000Y-35811000D01*
G75*
G02*
X20945000Y-36061000I-250000J0D01*
G01*
X19695000Y-36061000D01*
G75*
G02*
X19445000Y-35811000I0J250000D01*
G01*
X19445000Y-35061000D01*
G75*
G02*
X19695000Y-34811000I250000J0D01*
G01*
G37*
G36*
G01*
X19695000Y-32011000D02*
X20945000Y-32011000D01*
G75*
G02*
X21195000Y-32261000I0J-250000D01*
G01*
X21195000Y-33011000D01*
G75*
G02*
X20945000Y-33261000I-250000J0D01*
G01*
X19695000Y-33261000D01*
G75*
G02*
X19445000Y-33011000I0J250000D01*
G01*
X19445000Y-32261000D01*
G75*
G02*
X19695000Y-32011000I250000J0D01*
G01*
G37*
G04 #@! TD*
G04 #@! TO.C,R15*
G36*
G01*
X100213000Y-106185000D02*
X101463000Y-106185000D01*
G75*
G02*
X101713000Y-106435000I0J-250000D01*
G01*
X101713000Y-107185000D01*
G75*
G02*
X101463000Y-107435000I-250000J0D01*
G01*
X100213000Y-107435000D01*
G75*
G02*
X99963000Y-107185000I0J250000D01*
G01*
X99963000Y-106435000D01*
G75*
G02*
X100213000Y-106185000I250000J0D01*
G01*
G37*
G36*
G01*
X100213000Y-103385000D02*
X101463000Y-103385000D01*
G75*
G02*
X101713000Y-103635000I0J-250000D01*
G01*
X101713000Y-104385000D01*
G75*
G02*
X101463000Y-104635000I-250000J0D01*
G01*
X100213000Y-104635000D01*
G75*
G02*
X99963000Y-104385000I0J250000D01*
G01*
X99963000Y-103635000D01*
G75*
G02*
X100213000Y-103385000I250000J0D01*
G01*
G37*
G04 #@! TD*
G04 #@! TO.C,R14*
G36*
G01*
X100213000Y-89799000D02*
X101463000Y-89799000D01*
G75*
G02*
X101713000Y-90049000I0J-250000D01*
G01*
X101713000Y-90799000D01*
G75*
G02*
X101463000Y-91049000I-250000J0D01*
G01*
X100213000Y-91049000D01*
G75*
G02*
X99963000Y-90799000I0J250000D01*
G01*
X99963000Y-90049000D01*
G75*
G02*
X100213000Y-89799000I250000J0D01*
G01*
G37*
G36*
G01*
X100213000Y-86999000D02*
X101463000Y-86999000D01*
G75*
G02*
X101713000Y-87249000I0J-250000D01*
G01*
X101713000Y-87999000D01*
G75*
G02*
X101463000Y-88249000I-250000J0D01*
G01*
X100213000Y-88249000D01*
G75*
G02*
X99963000Y-87999000I0J250000D01*
G01*
X99963000Y-87249000D01*
G75*
G02*
X100213000Y-86999000I250000J0D01*
G01*
G37*
G04 #@! TD*
G04 #@! TO.C,R13*
G36*
G01*
X103769000Y-106185000D02*
X105019000Y-106185000D01*
G75*
G02*
X105269000Y-106435000I0J-250000D01*
G01*
X105269000Y-107185000D01*
G75*
G02*
X105019000Y-107435000I-250000J0D01*
G01*
X103769000Y-107435000D01*
G75*
G02*
X103519000Y-107185000I0J250000D01*
G01*
X103519000Y-106435000D01*
G75*
G02*
X103769000Y-106185000I250000J0D01*
G01*
G37*
G36*
G01*
X103769000Y-103385000D02*
X105019000Y-103385000D01*
G75*
G02*
X105269000Y-103635000I0J-250000D01*
G01*
X105269000Y-104385000D01*
G75*
G02*
X105019000Y-104635000I-250000J0D01*
G01*
X103769000Y-104635000D01*
G75*
G02*
X103519000Y-104385000I0J250000D01*
G01*
X103519000Y-103635000D01*
G75*
G02*
X103769000Y-103385000I250000J0D01*
G01*
G37*
G04 #@! TD*
G04 #@! TO.C,R12*
G36*
G01*
X103769000Y-89929000D02*
X105019000Y-89929000D01*
G75*
G02*
X105269000Y-90179000I0J-250000D01*
G01*
X105269000Y-90929000D01*
G75*
G02*
X105019000Y-91179000I-250000J0D01*
G01*
X103769000Y-91179000D01*
G75*
G02*
X103519000Y-90929000I0J250000D01*
G01*
X103519000Y-90179000D01*
G75*
G02*
X103769000Y-89929000I250000J0D01*
G01*
G37*
G36*
G01*
X103769000Y-87129000D02*
X105019000Y-87129000D01*
G75*
G02*
X105269000Y-87379000I0J-250000D01*
G01*
X105269000Y-88129000D01*
G75*
G02*
X105019000Y-88379000I-250000J0D01*
G01*
X103769000Y-88379000D01*
G75*
G02*
X103519000Y-88129000I0J250000D01*
G01*
X103519000Y-87379000D01*
G75*
G02*
X103769000Y-87129000I250000J0D01*
G01*
G37*
G04 #@! TD*
G04 #@! TO.C,R11*
G36*
G01*
X66665000Y-97777000D02*
X65415000Y-97777000D01*
G75*
G02*
X65165000Y-97527000I0J250000D01*
G01*
X65165000Y-96777000D01*
G75*
G02*
X65415000Y-96527000I250000J0D01*
G01*
X66665000Y-96527000D01*
G75*
G02*
X66915000Y-96777000I0J-250000D01*
G01*
X66915000Y-97527000D01*
G75*
G02*
X66665000Y-97777000I-250000J0D01*
G01*
G37*
G36*
G01*
X66665000Y-100577000D02*
X65415000Y-100577000D01*
G75*
G02*
X65165000Y-100327000I0J250000D01*
G01*
X65165000Y-99577000D01*
G75*
G02*
X65415000Y-99327000I250000J0D01*
G01*
X66665000Y-99327000D01*
G75*
G02*
X66915000Y-99577000I0J-250000D01*
G01*
X66915000Y-100327000D01*
G75*
G02*
X66665000Y-100577000I-250000J0D01*
G01*
G37*
G04 #@! TD*
G04 #@! TO.C,R10*
G36*
G01*
X68209000Y-99327000D02*
X69459000Y-99327000D01*
G75*
G02*
X69709000Y-99577000I0J-250000D01*
G01*
X69709000Y-100327000D01*
G75*
G02*
X69459000Y-100577000I-250000J0D01*
G01*
X68209000Y-100577000D01*
G75*
G02*
X67959000Y-100327000I0J250000D01*
G01*
X67959000Y-99577000D01*
G75*
G02*
X68209000Y-99327000I250000J0D01*
G01*
G37*
G36*
G01*
X68209000Y-96527000D02*
X69459000Y-96527000D01*
G75*
G02*
X69709000Y-96777000I0J-250000D01*
G01*
X69709000Y-97527000D01*
G75*
G02*
X69459000Y-97777000I-250000J0D01*
G01*
X68209000Y-97777000D01*
G75*
G02*
X67959000Y-97527000I0J250000D01*
G01*
X67959000Y-96777000D01*
G75*
G02*
X68209000Y-96527000I250000J0D01*
G01*
G37*
G04 #@! TD*
G04 #@! TO.C,R9*
G36*
G01*
X78623000Y-99327000D02*
X79873000Y-99327000D01*
G75*
G02*
X80123000Y-99577000I0J-250000D01*
G01*
X80123000Y-100327000D01*
G75*
G02*
X79873000Y-100577000I-250000J0D01*
G01*
X78623000Y-100577000D01*
G75*
G02*
X78373000Y-100327000I0J250000D01*
G01*
X78373000Y-99577000D01*
G75*
G02*
X78623000Y-99327000I250000J0D01*
G01*
G37*
G36*
G01*
X78623000Y-96527000D02*
X79873000Y-96527000D01*
G75*
G02*
X80123000Y-96777000I0J-250000D01*
G01*
X80123000Y-97527000D01*
G75*
G02*
X79873000Y-97777000I-250000J0D01*
G01*
X78623000Y-97777000D01*
G75*
G02*
X78373000Y-97527000I0J250000D01*
G01*
X78373000Y-96777000D01*
G75*
G02*
X78623000Y-96527000I250000J0D01*
G01*
G37*
G04 #@! TD*
G04 #@! TO.C,R8*
G36*
G01*
X88529000Y-113681000D02*
X89779000Y-113681000D01*
G75*
G02*
X90029000Y-113931000I0J-250000D01*
G01*
X90029000Y-114681000D01*
G75*
G02*
X89779000Y-114931000I-250000J0D01*
G01*
X88529000Y-114931000D01*
G75*
G02*
X88279000Y-114681000I0J250000D01*
G01*
X88279000Y-113931000D01*
G75*
G02*
X88529000Y-113681000I250000J0D01*
G01*
G37*
G36*
G01*
X88529000Y-110881000D02*
X89779000Y-110881000D01*
G75*
G02*
X90029000Y-111131000I0J-250000D01*
G01*
X90029000Y-111881000D01*
G75*
G02*
X89779000Y-112131000I-250000J0D01*
G01*
X88529000Y-112131000D01*
G75*
G02*
X88279000Y-111881000I0J250000D01*
G01*
X88279000Y-111131000D01*
G75*
G02*
X88529000Y-110881000I250000J0D01*
G01*
G37*
G04 #@! TD*
G04 #@! TO.C,R7*
G36*
G01*
X18679000Y-79007000D02*
X19929000Y-79007000D01*
G75*
G02*
X20179000Y-79257000I0J-250000D01*
G01*
X20179000Y-80007000D01*
G75*
G02*
X19929000Y-80257000I-250000J0D01*
G01*
X18679000Y-80257000D01*
G75*
G02*
X18429000Y-80007000I0J250000D01*
G01*
X18429000Y-79257000D01*
G75*
G02*
X18679000Y-79007000I250000J0D01*
G01*
G37*
G36*
G01*
X18679000Y-76207000D02*
X19929000Y-76207000D01*
G75*
G02*
X20179000Y-76457000I0J-250000D01*
G01*
X20179000Y-77207000D01*
G75*
G02*
X19929000Y-77457000I-250000J0D01*
G01*
X18679000Y-77457000D01*
G75*
G02*
X18429000Y-77207000I0J250000D01*
G01*
X18429000Y-76457000D01*
G75*
G02*
X18679000Y-76207000I250000J0D01*
G01*
G37*
G04 #@! TD*
G04 #@! TO.C,R6*
G36*
G01*
X110373000Y-98057000D02*
X111623000Y-98057000D01*
G75*
G02*
X111873000Y-98307000I0J-250000D01*
G01*
X111873000Y-99057000D01*
G75*
G02*
X111623000Y-99307000I-250000J0D01*
G01*
X110373000Y-99307000D01*
G75*
G02*
X110123000Y-99057000I0J250000D01*
G01*
X110123000Y-98307000D01*
G75*
G02*
X110373000Y-98057000I250000J0D01*
G01*
G37*
G36*
G01*
X110373000Y-95257000D02*
X111623000Y-95257000D01*
G75*
G02*
X111873000Y-95507000I0J-250000D01*
G01*
X111873000Y-96257000D01*
G75*
G02*
X111623000Y-96507000I-250000J0D01*
G01*
X110373000Y-96507000D01*
G75*
G02*
X110123000Y-96257000I0J250000D01*
G01*
X110123000Y-95507000D01*
G75*
G02*
X110373000Y-95257000I250000J0D01*
G01*
G37*
G04 #@! TD*
G04 #@! TO.C,R5*
G36*
G01*
X90053000Y-98057000D02*
X91303000Y-98057000D01*
G75*
G02*
X91553000Y-98307000I0J-250000D01*
G01*
X91553000Y-99057000D01*
G75*
G02*
X91303000Y-99307000I-250000J0D01*
G01*
X90053000Y-99307000D01*
G75*
G02*
X89803000Y-99057000I0J250000D01*
G01*
X89803000Y-98307000D01*
G75*
G02*
X90053000Y-98057000I250000J0D01*
G01*
G37*
G36*
G01*
X90053000Y-95257000D02*
X91303000Y-95257000D01*
G75*
G02*
X91553000Y-95507000I0J-250000D01*
G01*
X91553000Y-96257000D01*
G75*
G02*
X91303000Y-96507000I-250000J0D01*
G01*
X90053000Y-96507000D01*
G75*
G02*
X89803000Y-96257000I0J250000D01*
G01*
X89803000Y-95507000D01*
G75*
G02*
X90053000Y-95257000I250000J0D01*
G01*
G37*
G04 #@! TD*
G04 #@! TO.C,R4*
G36*
G01*
X75829000Y-99327000D02*
X77079000Y-99327000D01*
G75*
G02*
X77329000Y-99577000I0J-250000D01*
G01*
X77329000Y-100327000D01*
G75*
G02*
X77079000Y-100577000I-250000J0D01*
G01*
X75829000Y-100577000D01*
G75*
G02*
X75579000Y-100327000I0J250000D01*
G01*
X75579000Y-99577000D01*
G75*
G02*
X75829000Y-99327000I250000J0D01*
G01*
G37*
G36*
G01*
X75829000Y-96527000D02*
X77079000Y-96527000D01*
G75*
G02*
X77329000Y-96777000I0J-250000D01*
G01*
X77329000Y-97527000D01*
G75*
G02*
X77079000Y-97777000I-250000J0D01*
G01*
X75829000Y-97777000D01*
G75*
G02*
X75579000Y-97527000I0J250000D01*
G01*
X75579000Y-96777000D01*
G75*
G02*
X75829000Y-96527000I250000J0D01*
G01*
G37*
G04 #@! TD*
G04 #@! TO.C,R3*
G36*
G01*
X92827000Y-112001000D02*
X91577000Y-112001000D01*
G75*
G02*
X91327000Y-111751000I0J250000D01*
G01*
X91327000Y-111001000D01*
G75*
G02*
X91577000Y-110751000I250000J0D01*
G01*
X92827000Y-110751000D01*
G75*
G02*
X93077000Y-111001000I0J-250000D01*
G01*
X93077000Y-111751000D01*
G75*
G02*
X92827000Y-112001000I-250000J0D01*
G01*
G37*
G36*
G01*
X92827000Y-114801000D02*
X91577000Y-114801000D01*
G75*
G02*
X91327000Y-114551000I0J250000D01*
G01*
X91327000Y-113801000D01*
G75*
G02*
X91577000Y-113551000I250000J0D01*
G01*
X92827000Y-113551000D01*
G75*
G02*
X93077000Y-113801000I0J-250000D01*
G01*
X93077000Y-114551000D01*
G75*
G02*
X92827000Y-114801000I-250000J0D01*
G01*
G37*
G04 #@! TD*
G04 #@! TO.C,R2*
G36*
G01*
X113929000Y-98057000D02*
X115179000Y-98057000D01*
G75*
G02*
X115429000Y-98307000I0J-250000D01*
G01*
X115429000Y-99057000D01*
G75*
G02*
X115179000Y-99307000I-250000J0D01*
G01*
X113929000Y-99307000D01*
G75*
G02*
X113679000Y-99057000I0J250000D01*
G01*
X113679000Y-98307000D01*
G75*
G02*
X113929000Y-98057000I250000J0D01*
G01*
G37*
G36*
G01*
X113929000Y-95257000D02*
X115179000Y-95257000D01*
G75*
G02*
X115429000Y-95507000I0J-250000D01*
G01*
X115429000Y-96257000D01*
G75*
G02*
X115179000Y-96507000I-250000J0D01*
G01*
X113929000Y-96507000D01*
G75*
G02*
X113679000Y-96257000I0J250000D01*
G01*
X113679000Y-95507000D01*
G75*
G02*
X113929000Y-95257000I250000J0D01*
G01*
G37*
G04 #@! TD*
G04 #@! TO.C,R1*
G36*
G01*
X93609000Y-98057000D02*
X94859000Y-98057000D01*
G75*
G02*
X95109000Y-98307000I0J-250000D01*
G01*
X95109000Y-99057000D01*
G75*
G02*
X94859000Y-99307000I-250000J0D01*
G01*
X93609000Y-99307000D01*
G75*
G02*
X93359000Y-99057000I0J250000D01*
G01*
X93359000Y-98307000D01*
G75*
G02*
X93609000Y-98057000I250000J0D01*
G01*
G37*
G36*
G01*
X93609000Y-95257000D02*
X94859000Y-95257000D01*
G75*
G02*
X95109000Y-95507000I0J-250000D01*
G01*
X95109000Y-96257000D01*
G75*
G02*
X94859000Y-96507000I-250000J0D01*
G01*
X93609000Y-96507000D01*
G75*
G02*
X93359000Y-96257000I0J250000D01*
G01*
X93359000Y-95507000D01*
G75*
G02*
X93609000Y-95257000I250000J0D01*
G01*
G37*
G04 #@! TD*
G04 #@! TO.C,C8*
G36*
G01*
X96657000Y-106185000D02*
X97907000Y-106185000D01*
G75*
G02*
X98157000Y-106435000I0J-250000D01*
G01*
X98157000Y-107185000D01*
G75*
G02*
X97907000Y-107435000I-250000J0D01*
G01*
X96657000Y-107435000D01*
G75*
G02*
X96407000Y-107185000I0J250000D01*
G01*
X96407000Y-106435000D01*
G75*
G02*
X96657000Y-106185000I250000J0D01*
G01*
G37*
G36*
G01*
X96657000Y-103385000D02*
X97907000Y-103385000D01*
G75*
G02*
X98157000Y-103635000I0J-250000D01*
G01*
X98157000Y-104385000D01*
G75*
G02*
X97907000Y-104635000I-250000J0D01*
G01*
X96657000Y-104635000D01*
G75*
G02*
X96407000Y-104385000I0J250000D01*
G01*
X96407000Y-103635000D01*
G75*
G02*
X96657000Y-103385000I250000J0D01*
G01*
G37*
G04 #@! TD*
G04 #@! TO.C,C7*
G36*
G01*
X96657000Y-89929000D02*
X97907000Y-89929000D01*
G75*
G02*
X98157000Y-90179000I0J-250000D01*
G01*
X98157000Y-90929000D01*
G75*
G02*
X97907000Y-91179000I-250000J0D01*
G01*
X96657000Y-91179000D01*
G75*
G02*
X96407000Y-90929000I0J250000D01*
G01*
X96407000Y-90179000D01*
G75*
G02*
X96657000Y-89929000I250000J0D01*
G01*
G37*
G36*
G01*
X96657000Y-87129000D02*
X97907000Y-87129000D01*
G75*
G02*
X98157000Y-87379000I0J-250000D01*
G01*
X98157000Y-88129000D01*
G75*
G02*
X97907000Y-88379000I-250000J0D01*
G01*
X96657000Y-88379000D01*
G75*
G02*
X96407000Y-88129000I0J250000D01*
G01*
X96407000Y-87379000D01*
G75*
G02*
X96657000Y-87129000I250000J0D01*
G01*
G37*
G04 #@! TD*
G04 #@! TO.C,C6*
G36*
G01*
X80655000Y-27699000D02*
X81905000Y-27699000D01*
G75*
G02*
X82155000Y-27949000I0J-250000D01*
G01*
X82155000Y-28699000D01*
G75*
G02*
X81905000Y-28949000I-250000J0D01*
G01*
X80655000Y-28949000D01*
G75*
G02*
X80405000Y-28699000I0J250000D01*
G01*
X80405000Y-27949000D01*
G75*
G02*
X80655000Y-27699000I250000J0D01*
G01*
G37*
G36*
G01*
X80655000Y-24899000D02*
X81905000Y-24899000D01*
G75*
G02*
X82155000Y-25149000I0J-250000D01*
G01*
X82155000Y-25899000D01*
G75*
G02*
X81905000Y-26149000I-250000J0D01*
G01*
X80655000Y-26149000D01*
G75*
G02*
X80405000Y-25899000I0J250000D01*
G01*
X80405000Y-25149000D01*
G75*
G02*
X80655000Y-24899000I250000J0D01*
G01*
G37*
G04 #@! TD*
G04 #@! TO.C,C5*
G36*
G01*
X71003000Y-99327000D02*
X72253000Y-99327000D01*
G75*
G02*
X72503000Y-99577000I0J-250000D01*
G01*
X72503000Y-100327000D01*
G75*
G02*
X72253000Y-100577000I-250000J0D01*
G01*
X71003000Y-100577000D01*
G75*
G02*
X70753000Y-100327000I0J250000D01*
G01*
X70753000Y-99577000D01*
G75*
G02*
X71003000Y-99327000I250000J0D01*
G01*
G37*
G36*
G01*
X71003000Y-96527000D02*
X72253000Y-96527000D01*
G75*
G02*
X72503000Y-96777000I0J-250000D01*
G01*
X72503000Y-97527000D01*
G75*
G02*
X72253000Y-97777000I-250000J0D01*
G01*
X71003000Y-97777000D01*
G75*
G02*
X70753000Y-97527000I0J250000D01*
G01*
X70753000Y-96777000D01*
G75*
G02*
X71003000Y-96527000I250000J0D01*
G01*
G37*
G04 #@! TD*
G04 #@! TO.C,C4*
G36*
G01*
X106817000Y-98057000D02*
X108067000Y-98057000D01*
G75*
G02*
X108317000Y-98307000I0J-250000D01*
G01*
X108317000Y-99057000D01*
G75*
G02*
X108067000Y-99307000I-250000J0D01*
G01*
X106817000Y-99307000D01*
G75*
G02*
X106567000Y-99057000I0J250000D01*
G01*
X106567000Y-98307000D01*
G75*
G02*
X106817000Y-98057000I250000J0D01*
G01*
G37*
G36*
G01*
X106817000Y-95257000D02*
X108067000Y-95257000D01*
G75*
G02*
X108317000Y-95507000I0J-250000D01*
G01*
X108317000Y-96257000D01*
G75*
G02*
X108067000Y-96507000I-250000J0D01*
G01*
X106817000Y-96507000D01*
G75*
G02*
X106567000Y-96257000I0J250000D01*
G01*
X106567000Y-95507000D01*
G75*
G02*
X106817000Y-95257000I250000J0D01*
G01*
G37*
G04 #@! TD*
G04 #@! TO.C,C3*
G36*
G01*
X86497000Y-98181000D02*
X87747000Y-98181000D01*
G75*
G02*
X87997000Y-98431000I0J-250000D01*
G01*
X87997000Y-99181000D01*
G75*
G02*
X87747000Y-99431000I-250000J0D01*
G01*
X86497000Y-99431000D01*
G75*
G02*
X86247000Y-99181000I0J250000D01*
G01*
X86247000Y-98431000D01*
G75*
G02*
X86497000Y-98181000I250000J0D01*
G01*
G37*
G36*
G01*
X86497000Y-95381000D02*
X87747000Y-95381000D01*
G75*
G02*
X87997000Y-95631000I0J-250000D01*
G01*
X87997000Y-96381000D01*
G75*
G02*
X87747000Y-96631000I-250000J0D01*
G01*
X86497000Y-96631000D01*
G75*
G02*
X86247000Y-96381000I0J250000D01*
G01*
X86247000Y-95631000D01*
G75*
G02*
X86497000Y-95381000I250000J0D01*
G01*
G37*
G04 #@! TD*
G04 #@! TO.C,C2*
G36*
G01*
X82667000Y-97777000D02*
X81417000Y-97777000D01*
G75*
G02*
X81167000Y-97527000I0J250000D01*
G01*
X81167000Y-96777000D01*
G75*
G02*
X81417000Y-96527000I250000J0D01*
G01*
X82667000Y-96527000D01*
G75*
G02*
X82917000Y-96777000I0J-250000D01*
G01*
X82917000Y-97527000D01*
G75*
G02*
X82667000Y-97777000I-250000J0D01*
G01*
G37*
G36*
G01*
X82667000Y-100577000D02*
X81417000Y-100577000D01*
G75*
G02*
X81167000Y-100327000I0J250000D01*
G01*
X81167000Y-99577000D01*
G75*
G02*
X81417000Y-99327000I250000J0D01*
G01*
X82667000Y-99327000D01*
G75*
G02*
X82917000Y-99577000I0J-250000D01*
G01*
X82917000Y-100327000D01*
G75*
G02*
X82667000Y-100577000I-250000J0D01*
G01*
G37*
G04 #@! TD*
G04 #@! TO.C,C1*
G36*
G01*
X85481000Y-113551000D02*
X86731000Y-113551000D01*
G75*
G02*
X86981000Y-113801000I0J-250000D01*
G01*
X86981000Y-114551000D01*
G75*
G02*
X86731000Y-114801000I-250000J0D01*
G01*
X85481000Y-114801000D01*
G75*
G02*
X85231000Y-114551000I0J250000D01*
G01*
X85231000Y-113801000D01*
G75*
G02*
X85481000Y-113551000I250000J0D01*
G01*
G37*
G36*
G01*
X85481000Y-110751000D02*
X86731000Y-110751000D01*
G75*
G02*
X86981000Y-111001000I0J-250000D01*
G01*
X86981000Y-111751000D01*
G75*
G02*
X86731000Y-112001000I-250000J0D01*
G01*
X85481000Y-112001000D01*
G75*
G02*
X85231000Y-111751000I0J250000D01*
G01*
X85231000Y-111001000D01*
G75*
G02*
X85481000Y-110751000I250000J0D01*
G01*
G37*
G04 #@! TD*
M02*
