G04 #@! TF.GenerationSoftware,KiCad,Pcbnew,(5.1.6)-1*
G04 #@! TF.CreationDate,2020-08-14T22:04:35-07:00*
G04 #@! TF.ProjectId,NanoDemo,4e616e6f-4465-46d6-9f2e-6b696361645f,rev?*
G04 #@! TF.SameCoordinates,Original*
G04 #@! TF.FileFunction,Legend,Top*
G04 #@! TF.FilePolarity,Positive*
%FSLAX46Y46*%
G04 Gerber Fmt 4.6, Leading zero omitted, Abs format (unit mm)*
G04 Created by KiCad (PCBNEW (5.1.6)-1) date 2020-08-14 22:04:35*
%MOMM*%
%LPD*%
G01*
G04 APERTURE LIST*
%ADD10C,0.120000*%
%ADD11C,0.150000*%
G04 APERTURE END LIST*
D10*
X36830000Y-67056000D02*
X38354000Y-67056000D01*
X36830000Y-56896000D02*
X36830000Y-67056000D01*
X38354000Y-56896000D02*
X36830000Y-56896000D01*
D11*
X37346000Y-62991904D02*
X37298380Y-63087142D01*
X37298380Y-63230000D01*
X37346000Y-63372857D01*
X37441238Y-63468095D01*
X37536476Y-63515714D01*
X37726952Y-63563333D01*
X37869809Y-63563333D01*
X38060285Y-63515714D01*
X38155523Y-63468095D01*
X38250761Y-63372857D01*
X38298380Y-63230000D01*
X38298380Y-63134761D01*
X38250761Y-62991904D01*
X38203142Y-62944285D01*
X37869809Y-62944285D01*
X37869809Y-63134761D01*
X38298380Y-62515714D02*
X37298380Y-62515714D01*
X38298380Y-61944285D01*
X37298380Y-61944285D01*
X38298380Y-61468095D02*
X37298380Y-61468095D01*
X37298380Y-61230000D01*
X37346000Y-61087142D01*
X37441238Y-60991904D01*
X37536476Y-60944285D01*
X37726952Y-60896666D01*
X37869809Y-60896666D01*
X38060285Y-60944285D01*
X38155523Y-60991904D01*
X38250761Y-61087142D01*
X38298380Y-61230000D01*
X38298380Y-61468095D01*
D10*
X55372000Y-65024000D02*
X57150000Y-65024000D01*
X54356000Y-62230000D02*
X56134000Y-62230000D01*
X49022000Y-59944000D02*
X50546000Y-59944000D01*
D11*
X46236571Y-66238380D02*
X45903238Y-65762190D01*
X45665142Y-66238380D02*
X45665142Y-65238380D01*
X46046095Y-65238380D01*
X46141333Y-65286000D01*
X46188952Y-65333619D01*
X46236571Y-65428857D01*
X46236571Y-65571714D01*
X46188952Y-65666952D01*
X46141333Y-65714571D01*
X46046095Y-65762190D01*
X45665142Y-65762190D01*
X46665142Y-66238380D02*
X46665142Y-65571714D01*
X46665142Y-65238380D02*
X46617523Y-65286000D01*
X46665142Y-65333619D01*
X46712761Y-65286000D01*
X46665142Y-65238380D01*
X46665142Y-65333619D01*
X47569904Y-65571714D02*
X47569904Y-66381238D01*
X47522285Y-66476476D01*
X47474666Y-66524095D01*
X47379428Y-66571714D01*
X47236571Y-66571714D01*
X47141333Y-66524095D01*
X47569904Y-66190761D02*
X47474666Y-66238380D01*
X47284190Y-66238380D01*
X47188952Y-66190761D01*
X47141333Y-66143142D01*
X47093714Y-66047904D01*
X47093714Y-65762190D01*
X47141333Y-65666952D01*
X47188952Y-65619333D01*
X47284190Y-65571714D01*
X47474666Y-65571714D01*
X47569904Y-65619333D01*
X48046095Y-66238380D02*
X48046095Y-65238380D01*
X48474666Y-66238380D02*
X48474666Y-65714571D01*
X48427047Y-65619333D01*
X48331809Y-65571714D01*
X48188952Y-65571714D01*
X48093714Y-65619333D01*
X48046095Y-65666952D01*
X48808000Y-65571714D02*
X49188952Y-65571714D01*
X48950857Y-65238380D02*
X48950857Y-66095523D01*
X48998476Y-66190761D01*
X49093714Y-66238380D01*
X49188952Y-66238380D01*
X50188952Y-65238380D02*
X50855619Y-65238380D01*
X50427047Y-66238380D01*
X51950857Y-66190761D02*
X52093714Y-66238380D01*
X52331809Y-66238380D01*
X52427047Y-66190761D01*
X52474666Y-66143142D01*
X52522285Y-66047904D01*
X52522285Y-65952666D01*
X52474666Y-65857428D01*
X52427047Y-65809809D01*
X52331809Y-65762190D01*
X52141333Y-65714571D01*
X52046095Y-65666952D01*
X51998476Y-65619333D01*
X51950857Y-65524095D01*
X51950857Y-65428857D01*
X51998476Y-65333619D01*
X52046095Y-65286000D01*
X52141333Y-65238380D01*
X52379428Y-65238380D01*
X52522285Y-65286000D01*
X53331809Y-66190761D02*
X53236571Y-66238380D01*
X53046095Y-66238380D01*
X52950857Y-66190761D01*
X52903238Y-66095523D01*
X52903238Y-65714571D01*
X52950857Y-65619333D01*
X53046095Y-65571714D01*
X53236571Y-65571714D01*
X53331809Y-65619333D01*
X53379428Y-65714571D01*
X53379428Y-65809809D01*
X52903238Y-65905047D01*
X54236571Y-65571714D02*
X54236571Y-66381238D01*
X54188952Y-66476476D01*
X54141333Y-66524095D01*
X54046095Y-66571714D01*
X53903238Y-66571714D01*
X53808000Y-66524095D01*
X54236571Y-66190761D02*
X54141333Y-66238380D01*
X53950857Y-66238380D01*
X53855619Y-66190761D01*
X53808000Y-66143142D01*
X53760380Y-66047904D01*
X53760380Y-65762190D01*
X53808000Y-65666952D01*
X53855619Y-65619333D01*
X53950857Y-65571714D01*
X54141333Y-65571714D01*
X54236571Y-65619333D01*
X55665142Y-65238380D02*
X55855619Y-65238380D01*
X55950857Y-65286000D01*
X56046095Y-65381238D01*
X56093714Y-65571714D01*
X56093714Y-65905047D01*
X56046095Y-66095523D01*
X55950857Y-66190761D01*
X55855619Y-66238380D01*
X55665142Y-66238380D01*
X55569904Y-66190761D01*
X55474666Y-66095523D01*
X55427047Y-65905047D01*
X55427047Y-65571714D01*
X55474666Y-65381238D01*
X55569904Y-65286000D01*
X55665142Y-65238380D01*
X56522285Y-65714571D02*
X56855619Y-65714571D01*
X56998476Y-66238380D02*
X56522285Y-66238380D01*
X56522285Y-65238380D01*
X56998476Y-65238380D01*
X46157142Y-63444380D02*
X45680952Y-63444380D01*
X45680952Y-62444380D01*
X46871428Y-63396761D02*
X46776190Y-63444380D01*
X46585714Y-63444380D01*
X46490476Y-63396761D01*
X46442857Y-63301523D01*
X46442857Y-62920571D01*
X46490476Y-62825333D01*
X46585714Y-62777714D01*
X46776190Y-62777714D01*
X46871428Y-62825333D01*
X46919047Y-62920571D01*
X46919047Y-63015809D01*
X46442857Y-63111047D01*
X47204761Y-62777714D02*
X47585714Y-62777714D01*
X47347619Y-63444380D02*
X47347619Y-62587238D01*
X47395238Y-62492000D01*
X47490476Y-62444380D01*
X47585714Y-62444380D01*
X47776190Y-62777714D02*
X48157142Y-62777714D01*
X47919047Y-62444380D02*
X47919047Y-63301523D01*
X47966666Y-63396761D01*
X48061904Y-63444380D01*
X48157142Y-63444380D01*
X49157142Y-62444380D02*
X49823809Y-62444380D01*
X49395238Y-63444380D01*
X50919047Y-63396761D02*
X51061904Y-63444380D01*
X51300000Y-63444380D01*
X51395238Y-63396761D01*
X51442857Y-63349142D01*
X51490476Y-63253904D01*
X51490476Y-63158666D01*
X51442857Y-63063428D01*
X51395238Y-63015809D01*
X51300000Y-62968190D01*
X51109523Y-62920571D01*
X51014285Y-62872952D01*
X50966666Y-62825333D01*
X50919047Y-62730095D01*
X50919047Y-62634857D01*
X50966666Y-62539619D01*
X51014285Y-62492000D01*
X51109523Y-62444380D01*
X51347619Y-62444380D01*
X51490476Y-62492000D01*
X52300000Y-63396761D02*
X52204761Y-63444380D01*
X52014285Y-63444380D01*
X51919047Y-63396761D01*
X51871428Y-63301523D01*
X51871428Y-62920571D01*
X51919047Y-62825333D01*
X52014285Y-62777714D01*
X52204761Y-62777714D01*
X52300000Y-62825333D01*
X52347619Y-62920571D01*
X52347619Y-63015809D01*
X51871428Y-63111047D01*
X53204761Y-62777714D02*
X53204761Y-63587238D01*
X53157142Y-63682476D01*
X53109523Y-63730095D01*
X53014285Y-63777714D01*
X52871428Y-63777714D01*
X52776190Y-63730095D01*
X53204761Y-63396761D02*
X53109523Y-63444380D01*
X52919047Y-63444380D01*
X52823809Y-63396761D01*
X52776190Y-63349142D01*
X52728571Y-63253904D01*
X52728571Y-62968190D01*
X52776190Y-62872952D01*
X52823809Y-62825333D01*
X52919047Y-62777714D01*
X53109523Y-62777714D01*
X53204761Y-62825333D01*
X54633333Y-62444380D02*
X54823809Y-62444380D01*
X54919047Y-62492000D01*
X55014285Y-62587238D01*
X55061904Y-62777714D01*
X55061904Y-63111047D01*
X55014285Y-63301523D01*
X54919047Y-63396761D01*
X54823809Y-63444380D01*
X54633333Y-63444380D01*
X54538095Y-63396761D01*
X54442857Y-63301523D01*
X54395238Y-63111047D01*
X54395238Y-62777714D01*
X54442857Y-62587238D01*
X54538095Y-62492000D01*
X54633333Y-62444380D01*
X55490476Y-62920571D02*
X55823809Y-62920571D01*
X55966666Y-63444380D02*
X55490476Y-63444380D01*
X55490476Y-62444380D01*
X55966666Y-62444380D01*
X46006000Y-61158380D02*
X45529809Y-61158380D01*
X45529809Y-60158380D01*
X46339333Y-60634571D02*
X46672666Y-60634571D01*
X46815523Y-61158380D02*
X46339333Y-61158380D01*
X46339333Y-60158380D01*
X46815523Y-60158380D01*
X47244095Y-61158380D02*
X47244095Y-60158380D01*
X47482190Y-60158380D01*
X47625047Y-60206000D01*
X47720285Y-60301238D01*
X47767904Y-60396476D01*
X47815523Y-60586952D01*
X47815523Y-60729809D01*
X47767904Y-60920285D01*
X47720285Y-61015523D01*
X47625047Y-61110761D01*
X47482190Y-61158380D01*
X47244095Y-61158380D01*
X49196476Y-60158380D02*
X49386952Y-60158380D01*
X49482190Y-60206000D01*
X49577428Y-60301238D01*
X49625047Y-60491714D01*
X49625047Y-60825047D01*
X49577428Y-61015523D01*
X49482190Y-61110761D01*
X49386952Y-61158380D01*
X49196476Y-61158380D01*
X49101238Y-61110761D01*
X49006000Y-61015523D01*
X48958380Y-60825047D01*
X48958380Y-60491714D01*
X49006000Y-60301238D01*
X49101238Y-60206000D01*
X49196476Y-60158380D01*
X50053619Y-60634571D02*
X50386952Y-60634571D01*
X50529809Y-61158380D02*
X50053619Y-61158380D01*
X50053619Y-60158380D01*
X50529809Y-60158380D01*
X45561619Y-58332666D02*
X46037809Y-58332666D01*
X45466380Y-58618380D02*
X45799714Y-57618380D01*
X46133047Y-58618380D01*
X46894952Y-58570761D02*
X46799714Y-58618380D01*
X46609238Y-58618380D01*
X46514000Y-58570761D01*
X46466380Y-58523142D01*
X46418761Y-58427904D01*
X46418761Y-58142190D01*
X46466380Y-58046952D01*
X46514000Y-57999333D01*
X46609238Y-57951714D01*
X46799714Y-57951714D01*
X46894952Y-57999333D01*
X47752095Y-58570761D02*
X47656857Y-58618380D01*
X47466380Y-58618380D01*
X47371142Y-58570761D01*
X47323523Y-58523142D01*
X47275904Y-58427904D01*
X47275904Y-58142190D01*
X47323523Y-58046952D01*
X47371142Y-57999333D01*
X47466380Y-57951714D01*
X47656857Y-57951714D01*
X47752095Y-57999333D01*
X48323523Y-58618380D02*
X48228285Y-58570761D01*
X48180666Y-58475523D01*
X48180666Y-57618380D01*
X48704476Y-58523142D02*
X48752095Y-58570761D01*
X48704476Y-58618380D01*
X48656857Y-58570761D01*
X48704476Y-58523142D01*
X48704476Y-58618380D01*
X49942571Y-58618380D02*
X49942571Y-57618380D01*
X50418761Y-57951714D02*
X50418761Y-58618380D01*
X50418761Y-58046952D02*
X50466380Y-57999333D01*
X50561619Y-57951714D01*
X50704476Y-57951714D01*
X50799714Y-57999333D01*
X50847333Y-58094571D01*
X50847333Y-58618380D01*
X51180666Y-57951714D02*
X51561619Y-57951714D01*
X51323523Y-57618380D02*
X51323523Y-58475523D01*
X51371142Y-58570761D01*
X51466380Y-58618380D01*
X51561619Y-58618380D01*
X19052166Y-57697714D02*
X19052166Y-58364380D01*
X18814071Y-57316761D02*
X18575976Y-58031047D01*
X19195023Y-58031047D01*
X19575976Y-58269142D02*
X19623595Y-58316761D01*
X19575976Y-58364380D01*
X19528357Y-58316761D01*
X19575976Y-58269142D01*
X19575976Y-58364380D01*
X19956928Y-57364380D02*
X20623595Y-57364380D01*
X20195023Y-58364380D01*
X21004547Y-58364380D02*
X21004547Y-57364380D01*
X21099785Y-57983428D02*
X21385500Y-58364380D01*
X21385500Y-57697714D02*
X21004547Y-58078666D01*
X22861690Y-58745333D02*
X22814071Y-58697714D01*
X22718833Y-58554857D01*
X22671214Y-58459619D01*
X22623595Y-58316761D01*
X22575976Y-58078666D01*
X22575976Y-57888190D01*
X22623595Y-57650095D01*
X22671214Y-57507238D01*
X22718833Y-57412000D01*
X22814071Y-57269142D01*
X22861690Y-57221523D01*
X23671214Y-57697714D02*
X23671214Y-58364380D01*
X23433119Y-57316761D02*
X23195023Y-58031047D01*
X23814071Y-58031047D01*
X24099785Y-57364380D02*
X24766452Y-57364380D01*
X24337880Y-58364380D01*
X25099785Y-57459619D02*
X25147404Y-57412000D01*
X25242642Y-57364380D01*
X25480738Y-57364380D01*
X25575976Y-57412000D01*
X25623595Y-57459619D01*
X25671214Y-57554857D01*
X25671214Y-57650095D01*
X25623595Y-57792952D01*
X25052166Y-58364380D01*
X25671214Y-58364380D01*
X26004547Y-58745333D02*
X26052166Y-58697714D01*
X26147404Y-58554857D01*
X26195023Y-58459619D01*
X26242642Y-58316761D01*
X26290261Y-58078666D01*
X26290261Y-57888190D01*
X26242642Y-57650095D01*
X26195023Y-57507238D01*
X26147404Y-57412000D01*
X26052166Y-57269142D01*
X26004547Y-57221523D01*
X27528357Y-57983428D02*
X28290261Y-57983428D01*
X30099785Y-58364380D02*
X29766452Y-57888190D01*
X29528357Y-58364380D02*
X29528357Y-57364380D01*
X29909309Y-57364380D01*
X30004547Y-57412000D01*
X30052166Y-57459619D01*
X30099785Y-57554857D01*
X30099785Y-57697714D01*
X30052166Y-57792952D01*
X30004547Y-57840571D01*
X29909309Y-57888190D01*
X29528357Y-57888190D01*
X30956928Y-57697714D02*
X30956928Y-58364380D01*
X30718833Y-57316761D02*
X30480738Y-58031047D01*
X31099785Y-58031047D01*
X31909309Y-57364380D02*
X31718833Y-57364380D01*
X31623595Y-57412000D01*
X31575976Y-57459619D01*
X31480738Y-57602476D01*
X31433119Y-57792952D01*
X31433119Y-58173904D01*
X31480738Y-58269142D01*
X31528357Y-58316761D01*
X31623595Y-58364380D01*
X31814071Y-58364380D01*
X31909309Y-58316761D01*
X31956928Y-58269142D01*
X32004547Y-58173904D01*
X32004547Y-57935809D01*
X31956928Y-57840571D01*
X31909309Y-57792952D01*
X31814071Y-57745333D01*
X31623595Y-57745333D01*
X31528357Y-57792952D01*
X31480738Y-57840571D01*
X31433119Y-57935809D01*
X26195976Y-62539619D02*
X26243595Y-62492000D01*
X26338833Y-62444380D01*
X26576928Y-62444380D01*
X26672166Y-62492000D01*
X26719785Y-62539619D01*
X26767404Y-62634857D01*
X26767404Y-62730095D01*
X26719785Y-62872952D01*
X26148357Y-63444380D01*
X26767404Y-63444380D01*
X27195976Y-63349142D02*
X27243595Y-63396761D01*
X27195976Y-63444380D01*
X27148357Y-63396761D01*
X27195976Y-63349142D01*
X27195976Y-63444380D01*
X27624547Y-62539619D02*
X27672166Y-62492000D01*
X27767404Y-62444380D01*
X28005500Y-62444380D01*
X28100738Y-62492000D01*
X28148357Y-62539619D01*
X28195976Y-62634857D01*
X28195976Y-62730095D01*
X28148357Y-62872952D01*
X27576928Y-63444380D01*
X28195976Y-63444380D01*
X28624547Y-62777714D02*
X28624547Y-63444380D01*
X28624547Y-62872952D02*
X28672166Y-62825333D01*
X28767404Y-62777714D01*
X28910261Y-62777714D01*
X29005500Y-62825333D01*
X29053119Y-62920571D01*
X29053119Y-63444380D01*
X29529309Y-63063428D02*
X30291214Y-63063428D01*
X31338833Y-63349142D02*
X31291214Y-63396761D01*
X31148357Y-63444380D01*
X31053119Y-63444380D01*
X30910261Y-63396761D01*
X30815023Y-63301523D01*
X30767404Y-63206285D01*
X30719785Y-63015809D01*
X30719785Y-62872952D01*
X30767404Y-62682476D01*
X30815023Y-62587238D01*
X30910261Y-62492000D01*
X31053119Y-62444380D01*
X31148357Y-62444380D01*
X31291214Y-62492000D01*
X31338833Y-62539619D01*
X32291214Y-63444380D02*
X31719785Y-63444380D01*
X32005500Y-63444380D02*
X32005500Y-62444380D01*
X31910261Y-62587238D01*
X31815023Y-62682476D01*
X31719785Y-62730095D01*
X33243595Y-63444380D02*
X32672166Y-63444380D01*
X32957880Y-63444380D02*
X32957880Y-62444380D01*
X32862642Y-62587238D01*
X32767404Y-62682476D01*
X32672166Y-62730095D01*
X27275404Y-65222380D02*
X26703976Y-65222380D01*
X26989690Y-65222380D02*
X26989690Y-64222380D01*
X26894452Y-64365238D01*
X26799214Y-64460476D01*
X26703976Y-64508095D01*
X27894452Y-64222380D02*
X27989690Y-64222380D01*
X28084928Y-64270000D01*
X28132547Y-64317619D01*
X28180166Y-64412857D01*
X28227785Y-64603333D01*
X28227785Y-64841428D01*
X28180166Y-65031904D01*
X28132547Y-65127142D01*
X28084928Y-65174761D01*
X27989690Y-65222380D01*
X27894452Y-65222380D01*
X27799214Y-65174761D01*
X27751595Y-65127142D01*
X27703976Y-65031904D01*
X27656357Y-64841428D01*
X27656357Y-64603333D01*
X27703976Y-64412857D01*
X27751595Y-64317619D01*
X27799214Y-64270000D01*
X27894452Y-64222380D01*
X28656357Y-64555714D02*
X28656357Y-65222380D01*
X28656357Y-64650952D02*
X28703976Y-64603333D01*
X28799214Y-64555714D01*
X28942071Y-64555714D01*
X29037309Y-64603333D01*
X29084928Y-64698571D01*
X29084928Y-65222380D01*
X29561119Y-64841428D02*
X30323023Y-64841428D01*
X31370642Y-65127142D02*
X31323023Y-65174761D01*
X31180166Y-65222380D01*
X31084928Y-65222380D01*
X30942071Y-65174761D01*
X30846833Y-65079523D01*
X30799214Y-64984285D01*
X30751595Y-64793809D01*
X30751595Y-64650952D01*
X30799214Y-64460476D01*
X30846833Y-64365238D01*
X30942071Y-64270000D01*
X31084928Y-64222380D01*
X31180166Y-64222380D01*
X31323023Y-64270000D01*
X31370642Y-64317619D01*
X32323023Y-65222380D02*
X31751595Y-65222380D01*
X32037309Y-65222380D02*
X32037309Y-64222380D01*
X31942071Y-64365238D01*
X31846833Y-64460476D01*
X31751595Y-64508095D01*
X32703976Y-64317619D02*
X32751595Y-64270000D01*
X32846833Y-64222380D01*
X33084928Y-64222380D01*
X33180166Y-64270000D01*
X33227785Y-64317619D01*
X33275404Y-64412857D01*
X33275404Y-64508095D01*
X33227785Y-64650952D01*
X32656357Y-65222380D01*
X33275404Y-65222380D01*
D10*
X63246000Y-91186000D02*
X63500000Y-94488000D01*
X56642000Y-91186000D02*
X56134000Y-94488000D01*
X55372000Y-91186000D02*
X55880000Y-94488000D01*
X49276000Y-91186000D02*
X49022000Y-94488000D01*
D11*
X56872571Y-91400380D02*
X57491619Y-91400380D01*
X57158285Y-91781333D01*
X57301142Y-91781333D01*
X57396380Y-91828952D01*
X57444000Y-91876571D01*
X57491619Y-91971809D01*
X57491619Y-92209904D01*
X57444000Y-92305142D01*
X57396380Y-92352761D01*
X57301142Y-92400380D01*
X57015428Y-92400380D01*
X56920190Y-92352761D01*
X56872571Y-92305142D01*
X57920190Y-92305142D02*
X57967809Y-92352761D01*
X57920190Y-92400380D01*
X57872571Y-92352761D01*
X57920190Y-92305142D01*
X57920190Y-92400380D01*
X58301142Y-91400380D02*
X58920190Y-91400380D01*
X58586857Y-91781333D01*
X58729714Y-91781333D01*
X58824952Y-91828952D01*
X58872571Y-91876571D01*
X58920190Y-91971809D01*
X58920190Y-92209904D01*
X58872571Y-92305142D01*
X58824952Y-92352761D01*
X58729714Y-92400380D01*
X58444000Y-92400380D01*
X58348761Y-92352761D01*
X58301142Y-92305142D01*
X59205904Y-91400380D02*
X59539238Y-92400380D01*
X59872571Y-91400380D01*
X60967809Y-92400380D02*
X60967809Y-91400380D01*
X61396380Y-91495619D02*
X61444000Y-91448000D01*
X61539238Y-91400380D01*
X61777333Y-91400380D01*
X61872571Y-91448000D01*
X61920190Y-91495619D01*
X61967809Y-91590857D01*
X61967809Y-91686095D01*
X61920190Y-91828952D01*
X61348761Y-92400380D01*
X61967809Y-92400380D01*
X62967809Y-92305142D02*
X62920190Y-92352761D01*
X62777333Y-92400380D01*
X62682095Y-92400380D01*
X62539238Y-92352761D01*
X62444000Y-92257523D01*
X62396380Y-92162285D01*
X62348761Y-91971809D01*
X62348761Y-91828952D01*
X62396380Y-91638476D01*
X62444000Y-91543238D01*
X62539238Y-91448000D01*
X62682095Y-91400380D01*
X62777333Y-91400380D01*
X62920190Y-91448000D01*
X62967809Y-91495619D01*
X51046285Y-91400380D02*
X50570095Y-91400380D01*
X50522476Y-91876571D01*
X50570095Y-91828952D01*
X50665333Y-91781333D01*
X50903428Y-91781333D01*
X50998666Y-91828952D01*
X51046285Y-91876571D01*
X51093904Y-91971809D01*
X51093904Y-92209904D01*
X51046285Y-92305142D01*
X50998666Y-92352761D01*
X50903428Y-92400380D01*
X50665333Y-92400380D01*
X50570095Y-92352761D01*
X50522476Y-92305142D01*
X51379619Y-91400380D02*
X51712952Y-92400380D01*
X52046285Y-91400380D01*
X53141523Y-92400380D02*
X53141523Y-91400380D01*
X53570095Y-91495619D02*
X53617714Y-91448000D01*
X53712952Y-91400380D01*
X53951047Y-91400380D01*
X54046285Y-91448000D01*
X54093904Y-91495619D01*
X54141523Y-91590857D01*
X54141523Y-91686095D01*
X54093904Y-91828952D01*
X53522476Y-92400380D01*
X54141523Y-92400380D01*
X55141523Y-92305142D02*
X55093904Y-92352761D01*
X54951047Y-92400380D01*
X54855809Y-92400380D01*
X54712952Y-92352761D01*
X54617714Y-92257523D01*
X54570095Y-92162285D01*
X54522476Y-91971809D01*
X54522476Y-91828952D01*
X54570095Y-91638476D01*
X54617714Y-91543238D01*
X54712952Y-91448000D01*
X54855809Y-91400380D01*
X54951047Y-91400380D01*
X55093904Y-91448000D01*
X55141523Y-91495619D01*
X26513404Y-68778380D02*
X25941976Y-68778380D01*
X26227690Y-68778380D02*
X26227690Y-67778380D01*
X26132452Y-67921238D01*
X26037214Y-68016476D01*
X25941976Y-68064095D01*
X27132452Y-67778380D02*
X27227690Y-67778380D01*
X27322928Y-67826000D01*
X27370547Y-67873619D01*
X27418166Y-67968857D01*
X27465785Y-68159333D01*
X27465785Y-68397428D01*
X27418166Y-68587904D01*
X27370547Y-68683142D01*
X27322928Y-68730761D01*
X27227690Y-68778380D01*
X27132452Y-68778380D01*
X27037214Y-68730761D01*
X26989595Y-68683142D01*
X26941976Y-68587904D01*
X26894357Y-68397428D01*
X26894357Y-68159333D01*
X26941976Y-67968857D01*
X26989595Y-67873619D01*
X27037214Y-67826000D01*
X27132452Y-67778380D01*
X28084833Y-67778380D02*
X28180071Y-67778380D01*
X28275309Y-67826000D01*
X28322928Y-67873619D01*
X28370547Y-67968857D01*
X28418166Y-68159333D01*
X28418166Y-68397428D01*
X28370547Y-68587904D01*
X28322928Y-68683142D01*
X28275309Y-68730761D01*
X28180071Y-68778380D01*
X28084833Y-68778380D01*
X27989595Y-68730761D01*
X27941976Y-68683142D01*
X27894357Y-68587904D01*
X27846738Y-68397428D01*
X27846738Y-68159333D01*
X27894357Y-67968857D01*
X27941976Y-67873619D01*
X27989595Y-67826000D01*
X28084833Y-67778380D01*
X29275309Y-68111714D02*
X29275309Y-68778380D01*
X28846738Y-68111714D02*
X28846738Y-68635523D01*
X28894357Y-68730761D01*
X28989595Y-68778380D01*
X29132452Y-68778380D01*
X29227690Y-68730761D01*
X29275309Y-68683142D01*
X29751500Y-68397428D02*
X30513404Y-68397428D01*
X31561023Y-68683142D02*
X31513404Y-68730761D01*
X31370547Y-68778380D01*
X31275309Y-68778380D01*
X31132452Y-68730761D01*
X31037214Y-68635523D01*
X30989595Y-68540285D01*
X30941976Y-68349809D01*
X30941976Y-68206952D01*
X30989595Y-68016476D01*
X31037214Y-67921238D01*
X31132452Y-67826000D01*
X31275309Y-67778380D01*
X31370547Y-67778380D01*
X31513404Y-67826000D01*
X31561023Y-67873619D01*
X32513404Y-68778380D02*
X31941976Y-68778380D01*
X32227690Y-68778380D02*
X32227690Y-67778380D01*
X32132452Y-67921238D01*
X32037214Y-68016476D01*
X31941976Y-68064095D01*
X20322166Y-52363714D02*
X20322166Y-53030380D01*
X20084071Y-51982761D02*
X19845976Y-52697047D01*
X20465023Y-52697047D01*
X20750738Y-52030380D02*
X21417404Y-52030380D01*
X20988833Y-53030380D01*
X22845976Y-53411333D02*
X22798357Y-53363714D01*
X22703119Y-53220857D01*
X22655500Y-53125619D01*
X22607880Y-52982761D01*
X22560261Y-52744666D01*
X22560261Y-52554190D01*
X22607880Y-52316095D01*
X22655500Y-52173238D01*
X22703119Y-52078000D01*
X22798357Y-51935142D01*
X22845976Y-51887523D01*
X23655500Y-52363714D02*
X23655500Y-53030380D01*
X23417404Y-51982761D02*
X23179309Y-52697047D01*
X23798357Y-52697047D01*
X24084071Y-52030380D02*
X24750738Y-52030380D01*
X24322166Y-53030380D01*
X25322166Y-52030380D02*
X25417404Y-52030380D01*
X25512642Y-52078000D01*
X25560261Y-52125619D01*
X25607880Y-52220857D01*
X25655500Y-52411333D01*
X25655500Y-52649428D01*
X25607880Y-52839904D01*
X25560261Y-52935142D01*
X25512642Y-52982761D01*
X25417404Y-53030380D01*
X25322166Y-53030380D01*
X25226928Y-52982761D01*
X25179309Y-52935142D01*
X25131690Y-52839904D01*
X25084071Y-52649428D01*
X25084071Y-52411333D01*
X25131690Y-52220857D01*
X25179309Y-52125619D01*
X25226928Y-52078000D01*
X25322166Y-52030380D01*
X25988833Y-53411333D02*
X26036452Y-53363714D01*
X26131690Y-53220857D01*
X26179309Y-53125619D01*
X26226928Y-52982761D01*
X26274547Y-52744666D01*
X26274547Y-52554190D01*
X26226928Y-52316095D01*
X26179309Y-52173238D01*
X26131690Y-52078000D01*
X26036452Y-51935142D01*
X25988833Y-51887523D01*
X27512642Y-52649428D02*
X28274547Y-52649428D01*
X30084071Y-53030380D02*
X29750738Y-52554190D01*
X29512642Y-53030380D02*
X29512642Y-52030380D01*
X29893595Y-52030380D01*
X29988833Y-52078000D01*
X30036452Y-52125619D01*
X30084071Y-52220857D01*
X30084071Y-52363714D01*
X30036452Y-52458952D01*
X29988833Y-52506571D01*
X29893595Y-52554190D01*
X29512642Y-52554190D01*
X30941214Y-52363714D02*
X30941214Y-53030380D01*
X30703119Y-51982761D02*
X30465023Y-52697047D01*
X31084071Y-52697047D01*
X31941214Y-52030380D02*
X31465023Y-52030380D01*
X31417404Y-52506571D01*
X31465023Y-52458952D01*
X31560261Y-52411333D01*
X31798357Y-52411333D01*
X31893595Y-52458952D01*
X31941214Y-52506571D01*
X31988833Y-52601809D01*
X31988833Y-52839904D01*
X31941214Y-52935142D01*
X31893595Y-52982761D01*
X31798357Y-53030380D01*
X31560261Y-53030380D01*
X31465023Y-52982761D01*
X31417404Y-52935142D01*
X18782357Y-55586380D02*
X19401404Y-55586380D01*
X19068071Y-55967333D01*
X19210928Y-55967333D01*
X19306166Y-56014952D01*
X19353785Y-56062571D01*
X19401404Y-56157809D01*
X19401404Y-56395904D01*
X19353785Y-56491142D01*
X19306166Y-56538761D01*
X19210928Y-56586380D01*
X18925214Y-56586380D01*
X18829976Y-56538761D01*
X18782357Y-56491142D01*
X19734738Y-55586380D02*
X20353785Y-55586380D01*
X20020452Y-55967333D01*
X20163309Y-55967333D01*
X20258547Y-56014952D01*
X20306166Y-56062571D01*
X20353785Y-56157809D01*
X20353785Y-56395904D01*
X20306166Y-56491142D01*
X20258547Y-56538761D01*
X20163309Y-56586380D01*
X19877595Y-56586380D01*
X19782357Y-56538761D01*
X19734738Y-56491142D01*
X20972833Y-55586380D02*
X21068071Y-55586380D01*
X21163309Y-55634000D01*
X21210928Y-55681619D01*
X21258547Y-55776857D01*
X21306166Y-55967333D01*
X21306166Y-56205428D01*
X21258547Y-56395904D01*
X21210928Y-56491142D01*
X21163309Y-56538761D01*
X21068071Y-56586380D01*
X20972833Y-56586380D01*
X20877595Y-56538761D01*
X20829976Y-56491142D01*
X20782357Y-56395904D01*
X20734738Y-56205428D01*
X20734738Y-55967333D01*
X20782357Y-55776857D01*
X20829976Y-55681619D01*
X20877595Y-55634000D01*
X20972833Y-55586380D01*
X22782357Y-56967333D02*
X22734738Y-56919714D01*
X22639500Y-56776857D01*
X22591880Y-56681619D01*
X22544261Y-56538761D01*
X22496642Y-56300666D01*
X22496642Y-56110190D01*
X22544261Y-55872095D01*
X22591880Y-55729238D01*
X22639500Y-55634000D01*
X22734738Y-55491142D01*
X22782357Y-55443523D01*
X23068071Y-55586380D02*
X23687119Y-55586380D01*
X23353785Y-55967333D01*
X23496642Y-55967333D01*
X23591880Y-56014952D01*
X23639500Y-56062571D01*
X23687119Y-56157809D01*
X23687119Y-56395904D01*
X23639500Y-56491142D01*
X23591880Y-56538761D01*
X23496642Y-56586380D01*
X23210928Y-56586380D01*
X23115690Y-56538761D01*
X23068071Y-56491142D01*
X24020452Y-55586380D02*
X24639500Y-55586380D01*
X24306166Y-55967333D01*
X24449023Y-55967333D01*
X24544261Y-56014952D01*
X24591880Y-56062571D01*
X24639500Y-56157809D01*
X24639500Y-56395904D01*
X24591880Y-56491142D01*
X24544261Y-56538761D01*
X24449023Y-56586380D01*
X24163309Y-56586380D01*
X24068071Y-56538761D01*
X24020452Y-56491142D01*
X25591880Y-56586380D02*
X25020452Y-56586380D01*
X25306166Y-56586380D02*
X25306166Y-55586380D01*
X25210928Y-55729238D01*
X25115690Y-55824476D01*
X25020452Y-55872095D01*
X25925214Y-56967333D02*
X25972833Y-56919714D01*
X26068071Y-56776857D01*
X26115690Y-56681619D01*
X26163309Y-56538761D01*
X26210928Y-56300666D01*
X26210928Y-56110190D01*
X26163309Y-55872095D01*
X26115690Y-55729238D01*
X26068071Y-55634000D01*
X25972833Y-55491142D01*
X25925214Y-55443523D01*
X27449023Y-56205428D02*
X28210928Y-56205428D01*
X30020452Y-56586380D02*
X29687119Y-56110190D01*
X29449023Y-56586380D02*
X29449023Y-55586380D01*
X29829976Y-55586380D01*
X29925214Y-55634000D01*
X29972833Y-55681619D01*
X30020452Y-55776857D01*
X30020452Y-55919714D01*
X29972833Y-56014952D01*
X29925214Y-56062571D01*
X29829976Y-56110190D01*
X29449023Y-56110190D01*
X30972833Y-56586380D02*
X30401404Y-56586380D01*
X30687119Y-56586380D02*
X30687119Y-55586380D01*
X30591880Y-55729238D01*
X30496642Y-55824476D01*
X30401404Y-55872095D01*
X27259595Y-66905142D02*
X27307214Y-66952761D01*
X27259595Y-67000380D01*
X27211976Y-66952761D01*
X27259595Y-66905142D01*
X27259595Y-67000380D01*
X28259595Y-67000380D02*
X27688166Y-67000380D01*
X27973880Y-67000380D02*
X27973880Y-66000380D01*
X27878642Y-66143238D01*
X27783404Y-66238476D01*
X27688166Y-66286095D01*
X29116738Y-66333714D02*
X29116738Y-67000380D01*
X28688166Y-66333714D02*
X28688166Y-66857523D01*
X28735785Y-66952761D01*
X28831023Y-67000380D01*
X28973880Y-67000380D01*
X29069119Y-66952761D01*
X29116738Y-66905142D01*
X29592928Y-66619428D02*
X30354833Y-66619428D01*
X31402452Y-66905142D02*
X31354833Y-66952761D01*
X31211976Y-67000380D01*
X31116738Y-67000380D01*
X30973880Y-66952761D01*
X30878642Y-66857523D01*
X30831023Y-66762285D01*
X30783404Y-66571809D01*
X30783404Y-66428952D01*
X30831023Y-66238476D01*
X30878642Y-66143238D01*
X30973880Y-66048000D01*
X31116738Y-66000380D01*
X31211976Y-66000380D01*
X31354833Y-66048000D01*
X31402452Y-66095619D01*
X31783404Y-66095619D02*
X31831023Y-66048000D01*
X31926261Y-66000380D01*
X32164357Y-66000380D01*
X32259595Y-66048000D01*
X32307214Y-66095619D01*
X32354833Y-66190857D01*
X32354833Y-66286095D01*
X32307214Y-66428952D01*
X31735785Y-67000380D01*
X32354833Y-67000380D01*
X32783404Y-66619428D02*
X33545309Y-66619428D01*
X34545309Y-67000380D02*
X33973880Y-67000380D01*
X34259595Y-67000380D02*
X34259595Y-66000380D01*
X34164357Y-66143238D01*
X34069119Y-66238476D01*
X33973880Y-66286095D01*
X35164357Y-66000380D02*
X35259595Y-66000380D01*
X35354833Y-66048000D01*
X35402452Y-66095619D01*
X35450071Y-66190857D01*
X35497690Y-66381333D01*
X35497690Y-66619428D01*
X35450071Y-66809904D01*
X35402452Y-66905142D01*
X35354833Y-66952761D01*
X35259595Y-67000380D01*
X35164357Y-67000380D01*
X35069119Y-66952761D01*
X35021500Y-66905142D01*
X34973880Y-66809904D01*
X34926261Y-66619428D01*
X34926261Y-66381333D01*
X34973880Y-66190857D01*
X35021500Y-66095619D01*
X35069119Y-66048000D01*
X35164357Y-66000380D01*
X19655404Y-60142380D02*
X19083976Y-60142380D01*
X19369690Y-60142380D02*
X19369690Y-59142380D01*
X19274452Y-59285238D01*
X19179214Y-59380476D01*
X19083976Y-59428095D01*
X20274452Y-59142380D02*
X20369690Y-59142380D01*
X20464928Y-59190000D01*
X20512547Y-59237619D01*
X20560166Y-59332857D01*
X20607785Y-59523333D01*
X20607785Y-59761428D01*
X20560166Y-59951904D01*
X20512547Y-60047142D01*
X20464928Y-60094761D01*
X20369690Y-60142380D01*
X20274452Y-60142380D01*
X20179214Y-60094761D01*
X20131595Y-60047142D01*
X20083976Y-59951904D01*
X20036357Y-59761428D01*
X20036357Y-59523333D01*
X20083976Y-59332857D01*
X20131595Y-59237619D01*
X20179214Y-59190000D01*
X20274452Y-59142380D01*
X21036357Y-60142380D02*
X21036357Y-59142380D01*
X21131595Y-59761428D02*
X21417309Y-60142380D01*
X21417309Y-59475714D02*
X21036357Y-59856666D01*
X22893500Y-60523333D02*
X22845880Y-60475714D01*
X22750642Y-60332857D01*
X22703023Y-60237619D01*
X22655404Y-60094761D01*
X22607785Y-59856666D01*
X22607785Y-59666190D01*
X22655404Y-59428095D01*
X22703023Y-59285238D01*
X22750642Y-59190000D01*
X22845880Y-59047142D01*
X22893500Y-58999523D01*
X23798261Y-60142380D02*
X23226833Y-60142380D01*
X23512547Y-60142380D02*
X23512547Y-59142380D01*
X23417309Y-59285238D01*
X23322071Y-59380476D01*
X23226833Y-59428095D01*
X24417309Y-59142380D02*
X24512547Y-59142380D01*
X24607785Y-59190000D01*
X24655404Y-59237619D01*
X24703023Y-59332857D01*
X24750642Y-59523333D01*
X24750642Y-59761428D01*
X24703023Y-59951904D01*
X24655404Y-60047142D01*
X24607785Y-60094761D01*
X24512547Y-60142380D01*
X24417309Y-60142380D01*
X24322071Y-60094761D01*
X24274452Y-60047142D01*
X24226833Y-59951904D01*
X24179214Y-59761428D01*
X24179214Y-59523333D01*
X24226833Y-59332857D01*
X24274452Y-59237619D01*
X24322071Y-59190000D01*
X24417309Y-59142380D01*
X25083976Y-59142380D02*
X25703023Y-59142380D01*
X25369690Y-59523333D01*
X25512547Y-59523333D01*
X25607785Y-59570952D01*
X25655404Y-59618571D01*
X25703023Y-59713809D01*
X25703023Y-59951904D01*
X25655404Y-60047142D01*
X25607785Y-60094761D01*
X25512547Y-60142380D01*
X25226833Y-60142380D01*
X25131595Y-60094761D01*
X25083976Y-60047142D01*
X26036357Y-60523333D02*
X26083976Y-60475714D01*
X26179214Y-60332857D01*
X26226833Y-60237619D01*
X26274452Y-60094761D01*
X26322071Y-59856666D01*
X26322071Y-59666190D01*
X26274452Y-59428095D01*
X26226833Y-59285238D01*
X26179214Y-59190000D01*
X26083976Y-59047142D01*
X26036357Y-58999523D01*
X27560166Y-59761428D02*
X28322071Y-59761428D01*
X30131595Y-60142380D02*
X29798261Y-59666190D01*
X29560166Y-60142380D02*
X29560166Y-59142380D01*
X29941119Y-59142380D01*
X30036357Y-59190000D01*
X30083976Y-59237619D01*
X30131595Y-59332857D01*
X30131595Y-59475714D01*
X30083976Y-59570952D01*
X30036357Y-59618571D01*
X29941119Y-59666190D01*
X29560166Y-59666190D01*
X30512547Y-59237619D02*
X30560166Y-59190000D01*
X30655404Y-59142380D01*
X30893500Y-59142380D01*
X30988738Y-59190000D01*
X31036357Y-59237619D01*
X31083976Y-59332857D01*
X31083976Y-59428095D01*
X31036357Y-59570952D01*
X30464928Y-60142380D01*
X31083976Y-60142380D01*
X31512547Y-59761428D02*
X32274452Y-59761428D01*
X32703023Y-59237619D02*
X32750642Y-59190000D01*
X32845880Y-59142380D01*
X33083976Y-59142380D01*
X33179214Y-59190000D01*
X33226833Y-59237619D01*
X33274452Y-59332857D01*
X33274452Y-59428095D01*
X33226833Y-59570952D01*
X32655404Y-60142380D01*
X33274452Y-60142380D01*
X33893500Y-59142380D02*
X33988738Y-59142380D01*
X34083976Y-59190000D01*
X34131595Y-59237619D01*
X34179214Y-59332857D01*
X34226833Y-59523333D01*
X34226833Y-59761428D01*
X34179214Y-59951904D01*
X34131595Y-60047142D01*
X34083976Y-60094761D01*
X33988738Y-60142380D01*
X33893500Y-60142380D01*
X33798261Y-60094761D01*
X33750642Y-60047142D01*
X33703023Y-59951904D01*
X33655404Y-59761428D01*
X33655404Y-59523333D01*
X33703023Y-59332857D01*
X33750642Y-59237619D01*
X33798261Y-59190000D01*
X33893500Y-59142380D01*
X18829976Y-53903619D02*
X18877595Y-53856000D01*
X18972833Y-53808380D01*
X19210928Y-53808380D01*
X19306166Y-53856000D01*
X19353785Y-53903619D01*
X19401404Y-53998857D01*
X19401404Y-54094095D01*
X19353785Y-54236952D01*
X18782357Y-54808380D01*
X19401404Y-54808380D01*
X19782357Y-53903619D02*
X19829976Y-53856000D01*
X19925214Y-53808380D01*
X20163309Y-53808380D01*
X20258547Y-53856000D01*
X20306166Y-53903619D01*
X20353785Y-53998857D01*
X20353785Y-54094095D01*
X20306166Y-54236952D01*
X19734738Y-54808380D01*
X20353785Y-54808380D01*
X20972833Y-53808380D02*
X21068071Y-53808380D01*
X21163309Y-53856000D01*
X21210928Y-53903619D01*
X21258547Y-53998857D01*
X21306166Y-54189333D01*
X21306166Y-54427428D01*
X21258547Y-54617904D01*
X21210928Y-54713142D01*
X21163309Y-54760761D01*
X21068071Y-54808380D01*
X20972833Y-54808380D01*
X20877595Y-54760761D01*
X20829976Y-54713142D01*
X20782357Y-54617904D01*
X20734738Y-54427428D01*
X20734738Y-54189333D01*
X20782357Y-53998857D01*
X20829976Y-53903619D01*
X20877595Y-53856000D01*
X20972833Y-53808380D01*
X22782357Y-55189333D02*
X22734738Y-55141714D01*
X22639500Y-54998857D01*
X22591880Y-54903619D01*
X22544261Y-54760761D01*
X22496642Y-54522666D01*
X22496642Y-54332190D01*
X22544261Y-54094095D01*
X22591880Y-53951238D01*
X22639500Y-53856000D01*
X22734738Y-53713142D01*
X22782357Y-53665523D01*
X23115690Y-53903619D02*
X23163309Y-53856000D01*
X23258547Y-53808380D01*
X23496642Y-53808380D01*
X23591880Y-53856000D01*
X23639500Y-53903619D01*
X23687119Y-53998857D01*
X23687119Y-54094095D01*
X23639500Y-54236952D01*
X23068071Y-54808380D01*
X23687119Y-54808380D01*
X24068071Y-53903619D02*
X24115690Y-53856000D01*
X24210928Y-53808380D01*
X24449023Y-53808380D01*
X24544261Y-53856000D01*
X24591880Y-53903619D01*
X24639500Y-53998857D01*
X24639500Y-54094095D01*
X24591880Y-54236952D01*
X24020452Y-54808380D01*
X24639500Y-54808380D01*
X25591880Y-54808380D02*
X25020452Y-54808380D01*
X25306166Y-54808380D02*
X25306166Y-53808380D01*
X25210928Y-53951238D01*
X25115690Y-54046476D01*
X25020452Y-54094095D01*
X25925214Y-55189333D02*
X25972833Y-55141714D01*
X26068071Y-54998857D01*
X26115690Y-54903619D01*
X26163309Y-54760761D01*
X26210928Y-54522666D01*
X26210928Y-54332190D01*
X26163309Y-54094095D01*
X26115690Y-53951238D01*
X26068071Y-53856000D01*
X25972833Y-53713142D01*
X25925214Y-53665523D01*
X27449023Y-54427428D02*
X28210928Y-54427428D01*
X30020452Y-54808380D02*
X29687119Y-54332190D01*
X29449023Y-54808380D02*
X29449023Y-53808380D01*
X29829976Y-53808380D01*
X29925214Y-53856000D01*
X29972833Y-53903619D01*
X30020452Y-53998857D01*
X30020452Y-54141714D01*
X29972833Y-54236952D01*
X29925214Y-54284571D01*
X29829976Y-54332190D01*
X29449023Y-54332190D01*
X30401404Y-53903619D02*
X30449023Y-53856000D01*
X30544261Y-53808380D01*
X30782357Y-53808380D01*
X30877595Y-53856000D01*
X30925214Y-53903619D01*
X30972833Y-53998857D01*
X30972833Y-54094095D01*
X30925214Y-54236952D01*
X30353785Y-54808380D01*
X30972833Y-54808380D01*
X31925214Y-54808380D02*
X31353785Y-54808380D01*
X31639500Y-54808380D02*
X31639500Y-53808380D01*
X31544261Y-53951238D01*
X31449023Y-54046476D01*
X31353785Y-54094095D01*
X32353785Y-54427428D02*
X33115690Y-54427428D01*
X34020452Y-54141714D02*
X34020452Y-54808380D01*
X33782357Y-53760761D02*
X33544261Y-54475047D01*
X34163309Y-54475047D01*
X34972833Y-54141714D02*
X34972833Y-54808380D01*
X34734738Y-53760761D02*
X34496642Y-54475047D01*
X35115690Y-54475047D01*
X20558666Y-43506380D02*
X20558666Y-42506380D01*
X21130095Y-43506380D01*
X21130095Y-42506380D01*
X22034857Y-43506380D02*
X22034857Y-42982571D01*
X21987238Y-42887333D01*
X21892000Y-42839714D01*
X21701523Y-42839714D01*
X21606285Y-42887333D01*
X22034857Y-43458761D02*
X21939619Y-43506380D01*
X21701523Y-43506380D01*
X21606285Y-43458761D01*
X21558666Y-43363523D01*
X21558666Y-43268285D01*
X21606285Y-43173047D01*
X21701523Y-43125428D01*
X21939619Y-43125428D01*
X22034857Y-43077809D01*
X22511047Y-42839714D02*
X22511047Y-43506380D01*
X22511047Y-42934952D02*
X22558666Y-42887333D01*
X22653904Y-42839714D01*
X22796761Y-42839714D01*
X22892000Y-42887333D01*
X22939619Y-42982571D01*
X22939619Y-43506380D01*
X23558666Y-43506380D02*
X23463428Y-43458761D01*
X23415809Y-43411142D01*
X23368190Y-43315904D01*
X23368190Y-43030190D01*
X23415809Y-42934952D01*
X23463428Y-42887333D01*
X23558666Y-42839714D01*
X23701523Y-42839714D01*
X23796761Y-42887333D01*
X23844380Y-42934952D01*
X23892000Y-43030190D01*
X23892000Y-43315904D01*
X23844380Y-43411142D01*
X23796761Y-43458761D01*
X23701523Y-43506380D01*
X23558666Y-43506380D01*
X25034857Y-43458761D02*
X25177714Y-43506380D01*
X25415809Y-43506380D01*
X25511047Y-43458761D01*
X25558666Y-43411142D01*
X25606285Y-43315904D01*
X25606285Y-43220666D01*
X25558666Y-43125428D01*
X25511047Y-43077809D01*
X25415809Y-43030190D01*
X25225333Y-42982571D01*
X25130095Y-42934952D01*
X25082476Y-42887333D01*
X25034857Y-42792095D01*
X25034857Y-42696857D01*
X25082476Y-42601619D01*
X25130095Y-42554000D01*
X25225333Y-42506380D01*
X25463428Y-42506380D01*
X25606285Y-42554000D01*
X26034857Y-43506380D02*
X26034857Y-42506380D01*
X26463428Y-43506380D02*
X26463428Y-42982571D01*
X26415809Y-42887333D01*
X26320571Y-42839714D01*
X26177714Y-42839714D01*
X26082476Y-42887333D01*
X26034857Y-42934952D01*
X26939619Y-43506380D02*
X26939619Y-42839714D01*
X26939619Y-42506380D02*
X26892000Y-42554000D01*
X26939619Y-42601619D01*
X26987238Y-42554000D01*
X26939619Y-42506380D01*
X26939619Y-42601619D01*
X27796761Y-43458761D02*
X27701523Y-43506380D01*
X27511047Y-43506380D01*
X27415809Y-43458761D01*
X27368190Y-43363523D01*
X27368190Y-42982571D01*
X27415809Y-42887333D01*
X27511047Y-42839714D01*
X27701523Y-42839714D01*
X27796761Y-42887333D01*
X27844380Y-42982571D01*
X27844380Y-43077809D01*
X27368190Y-43173047D01*
X28415809Y-43506380D02*
X28320571Y-43458761D01*
X28272952Y-43363523D01*
X28272952Y-42506380D01*
X29225333Y-43506380D02*
X29225333Y-42506380D01*
X29225333Y-43458761D02*
X29130095Y-43506380D01*
X28939619Y-43506380D01*
X28844380Y-43458761D01*
X28796761Y-43411142D01*
X28749142Y-43315904D01*
X28749142Y-43030190D01*
X28796761Y-42934952D01*
X28844380Y-42887333D01*
X28939619Y-42839714D01*
X29130095Y-42839714D01*
X29225333Y-42887333D01*
X22820571Y-45156380D02*
X22487238Y-44680190D01*
X22249142Y-45156380D02*
X22249142Y-44156380D01*
X22630095Y-44156380D01*
X22725333Y-44204000D01*
X22772952Y-44251619D01*
X22820571Y-44346857D01*
X22820571Y-44489714D01*
X22772952Y-44584952D01*
X22725333Y-44632571D01*
X22630095Y-44680190D01*
X22249142Y-44680190D01*
X23630095Y-45108761D02*
X23534857Y-45156380D01*
X23344380Y-45156380D01*
X23249142Y-45108761D01*
X23201523Y-45013523D01*
X23201523Y-44632571D01*
X23249142Y-44537333D01*
X23344380Y-44489714D01*
X23534857Y-44489714D01*
X23630095Y-44537333D01*
X23677714Y-44632571D01*
X23677714Y-44727809D01*
X23201523Y-44823047D01*
X24011047Y-44489714D02*
X24249142Y-45156380D01*
X24487238Y-44489714D01*
X24868190Y-45061142D02*
X24915809Y-45108761D01*
X24868190Y-45156380D01*
X24820571Y-45108761D01*
X24868190Y-45061142D01*
X24868190Y-45156380D01*
X26296761Y-44156380D02*
X26392000Y-44156380D01*
X26487238Y-44204000D01*
X26534857Y-44251619D01*
X26582476Y-44346857D01*
X26630095Y-44537333D01*
X26630095Y-44775428D01*
X26582476Y-44965904D01*
X26534857Y-45061142D01*
X26487238Y-45108761D01*
X26392000Y-45156380D01*
X26296761Y-45156380D01*
X26201523Y-45108761D01*
X26153904Y-45061142D01*
X26106285Y-44965904D01*
X26058666Y-44775428D01*
X26058666Y-44537333D01*
X26106285Y-44346857D01*
X26153904Y-44251619D01*
X26201523Y-44204000D01*
X26296761Y-44156380D01*
X26963428Y-44156380D02*
X27582476Y-44156380D01*
X27249142Y-44537333D01*
X27392000Y-44537333D01*
X27487238Y-44584952D01*
X27534857Y-44632571D01*
X27582476Y-44727809D01*
X27582476Y-44965904D01*
X27534857Y-45061142D01*
X27487238Y-45108761D01*
X27392000Y-45156380D01*
X27106285Y-45156380D01*
X27011047Y-45108761D01*
X26963428Y-45061142D01*
X20130095Y-45806380D02*
X20796761Y-45806380D01*
X20130095Y-46806380D01*
X20796761Y-46806380D01*
X21606285Y-46806380D02*
X21606285Y-46282571D01*
X21558666Y-46187333D01*
X21463428Y-46139714D01*
X21272952Y-46139714D01*
X21177714Y-46187333D01*
X21606285Y-46758761D02*
X21511047Y-46806380D01*
X21272952Y-46806380D01*
X21177714Y-46758761D01*
X21130095Y-46663523D01*
X21130095Y-46568285D01*
X21177714Y-46473047D01*
X21272952Y-46425428D01*
X21511047Y-46425428D01*
X21606285Y-46377809D01*
X22511047Y-46758761D02*
X22415809Y-46806380D01*
X22225333Y-46806380D01*
X22130095Y-46758761D01*
X22082476Y-46711142D01*
X22034857Y-46615904D01*
X22034857Y-46330190D01*
X22082476Y-46234952D01*
X22130095Y-46187333D01*
X22225333Y-46139714D01*
X22415809Y-46139714D01*
X22511047Y-46187333D01*
X22939619Y-46806380D02*
X22939619Y-45806380D01*
X23368190Y-46806380D02*
X23368190Y-46282571D01*
X23320571Y-46187333D01*
X23225333Y-46139714D01*
X23082476Y-46139714D01*
X22987238Y-46187333D01*
X22939619Y-46234952D01*
X24606285Y-46282571D02*
X24939619Y-46282571D01*
X25082476Y-46806380D02*
X24606285Y-46806380D01*
X24606285Y-45806380D01*
X25082476Y-45806380D01*
X25511047Y-46139714D02*
X25511047Y-46806380D01*
X25511047Y-46234952D02*
X25558666Y-46187333D01*
X25653904Y-46139714D01*
X25796761Y-46139714D01*
X25892000Y-46187333D01*
X25939619Y-46282571D01*
X25939619Y-46806380D01*
X26844380Y-46139714D02*
X26844380Y-46949238D01*
X26796761Y-47044476D01*
X26749142Y-47092095D01*
X26653904Y-47139714D01*
X26511047Y-47139714D01*
X26415809Y-47092095D01*
X26844380Y-46758761D02*
X26749142Y-46806380D01*
X26558666Y-46806380D01*
X26463428Y-46758761D01*
X26415809Y-46711142D01*
X26368190Y-46615904D01*
X26368190Y-46330190D01*
X26415809Y-46234952D01*
X26463428Y-46187333D01*
X26558666Y-46139714D01*
X26749142Y-46139714D01*
X26844380Y-46187333D01*
X27463428Y-46806380D02*
X27368190Y-46758761D01*
X27320571Y-46663523D01*
X27320571Y-45806380D01*
X27844380Y-46806380D02*
X27844380Y-46139714D01*
X27844380Y-45806380D02*
X27796761Y-45854000D01*
X27844380Y-45901619D01*
X27892000Y-45854000D01*
X27844380Y-45806380D01*
X27844380Y-45901619D01*
X28272952Y-46758761D02*
X28368190Y-46806380D01*
X28558666Y-46806380D01*
X28653904Y-46758761D01*
X28701523Y-46663523D01*
X28701523Y-46615904D01*
X28653904Y-46520666D01*
X28558666Y-46473047D01*
X28415809Y-46473047D01*
X28320571Y-46425428D01*
X28272952Y-46330190D01*
X28272952Y-46282571D01*
X28320571Y-46187333D01*
X28415809Y-46139714D01*
X28558666Y-46139714D01*
X28653904Y-46187333D01*
X29130095Y-46806380D02*
X29130095Y-45806380D01*
X29558666Y-46806380D02*
X29558666Y-46282571D01*
X29511047Y-46187333D01*
X29415809Y-46139714D01*
X29272952Y-46139714D01*
X29177714Y-46187333D01*
X29130095Y-46234952D01*
X33718761Y-104846380D02*
X33718761Y-103846380D01*
X34099714Y-103846380D01*
X34194952Y-103894000D01*
X34242571Y-103941619D01*
X34290190Y-104036857D01*
X34290190Y-104179714D01*
X34242571Y-104274952D01*
X34194952Y-104322571D01*
X34099714Y-104370190D01*
X33718761Y-104370190D01*
X34861619Y-104846380D02*
X34766380Y-104798761D01*
X34718761Y-104751142D01*
X34671142Y-104655904D01*
X34671142Y-104370190D01*
X34718761Y-104274952D01*
X34766380Y-104227333D01*
X34861619Y-104179714D01*
X35004476Y-104179714D01*
X35099714Y-104227333D01*
X35147333Y-104274952D01*
X35194952Y-104370190D01*
X35194952Y-104655904D01*
X35147333Y-104751142D01*
X35099714Y-104798761D01*
X35004476Y-104846380D01*
X34861619Y-104846380D01*
X35480666Y-104179714D02*
X35861619Y-104179714D01*
X35623523Y-103846380D02*
X35623523Y-104703523D01*
X35671142Y-104798761D01*
X35766380Y-104846380D01*
X35861619Y-104846380D01*
X36194952Y-104751142D02*
X36242571Y-104798761D01*
X36194952Y-104846380D01*
X36147333Y-104798761D01*
X36194952Y-104751142D01*
X36194952Y-104846380D01*
X37956857Y-104846380D02*
X37385428Y-104846380D01*
X37671142Y-104846380D02*
X37671142Y-103846380D01*
X37575904Y-103989238D01*
X37480666Y-104084476D01*
X37385428Y-104132095D01*
X33718761Y-102306380D02*
X33718761Y-101306380D01*
X34099714Y-101306380D01*
X34194952Y-101354000D01*
X34242571Y-101401619D01*
X34290190Y-101496857D01*
X34290190Y-101639714D01*
X34242571Y-101734952D01*
X34194952Y-101782571D01*
X34099714Y-101830190D01*
X33718761Y-101830190D01*
X34861619Y-102306380D02*
X34766380Y-102258761D01*
X34718761Y-102211142D01*
X34671142Y-102115904D01*
X34671142Y-101830190D01*
X34718761Y-101734952D01*
X34766380Y-101687333D01*
X34861619Y-101639714D01*
X35004476Y-101639714D01*
X35099714Y-101687333D01*
X35147333Y-101734952D01*
X35194952Y-101830190D01*
X35194952Y-102115904D01*
X35147333Y-102211142D01*
X35099714Y-102258761D01*
X35004476Y-102306380D01*
X34861619Y-102306380D01*
X35480666Y-101639714D02*
X35861619Y-101639714D01*
X35623523Y-101306380D02*
X35623523Y-102163523D01*
X35671142Y-102258761D01*
X35766380Y-102306380D01*
X35861619Y-102306380D01*
X36194952Y-102211142D02*
X36242571Y-102258761D01*
X36194952Y-102306380D01*
X36147333Y-102258761D01*
X36194952Y-102211142D01*
X36194952Y-102306380D01*
X37385428Y-101401619D02*
X37433047Y-101354000D01*
X37528285Y-101306380D01*
X37766380Y-101306380D01*
X37861619Y-101354000D01*
X37909238Y-101401619D01*
X37956857Y-101496857D01*
X37956857Y-101592095D01*
X37909238Y-101734952D01*
X37337809Y-102306380D01*
X37956857Y-102306380D01*
X33718761Y-89606380D02*
X33718761Y-88606380D01*
X34099714Y-88606380D01*
X34194952Y-88654000D01*
X34242571Y-88701619D01*
X34290190Y-88796857D01*
X34290190Y-88939714D01*
X34242571Y-89034952D01*
X34194952Y-89082571D01*
X34099714Y-89130190D01*
X33718761Y-89130190D01*
X34861619Y-89606380D02*
X34766380Y-89558761D01*
X34718761Y-89511142D01*
X34671142Y-89415904D01*
X34671142Y-89130190D01*
X34718761Y-89034952D01*
X34766380Y-88987333D01*
X34861619Y-88939714D01*
X35004476Y-88939714D01*
X35099714Y-88987333D01*
X35147333Y-89034952D01*
X35194952Y-89130190D01*
X35194952Y-89415904D01*
X35147333Y-89511142D01*
X35099714Y-89558761D01*
X35004476Y-89606380D01*
X34861619Y-89606380D01*
X35480666Y-88939714D02*
X35861619Y-88939714D01*
X35623523Y-88606380D02*
X35623523Y-89463523D01*
X35671142Y-89558761D01*
X35766380Y-89606380D01*
X35861619Y-89606380D01*
X36194952Y-89511142D02*
X36242571Y-89558761D01*
X36194952Y-89606380D01*
X36147333Y-89558761D01*
X36194952Y-89511142D01*
X36194952Y-89606380D01*
X37337809Y-88606380D02*
X37956857Y-88606380D01*
X37623523Y-88987333D01*
X37766380Y-88987333D01*
X37861619Y-89034952D01*
X37909238Y-89082571D01*
X37956857Y-89177809D01*
X37956857Y-89415904D01*
X37909238Y-89511142D01*
X37861619Y-89558761D01*
X37766380Y-89606380D01*
X37480666Y-89606380D01*
X37385428Y-89558761D01*
X37337809Y-89511142D01*
X34163238Y-87066380D02*
X34163238Y-86066380D01*
X34544190Y-86066380D01*
X34639428Y-86114000D01*
X34687047Y-86161619D01*
X34734666Y-86256857D01*
X34734666Y-86399714D01*
X34687047Y-86494952D01*
X34639428Y-86542571D01*
X34544190Y-86590190D01*
X34163238Y-86590190D01*
X35163238Y-87066380D02*
X35163238Y-86066380D01*
X35591809Y-87066380D02*
X35591809Y-86542571D01*
X35544190Y-86447333D01*
X35448952Y-86399714D01*
X35306095Y-86399714D01*
X35210857Y-86447333D01*
X35163238Y-86494952D01*
X36210857Y-87066380D02*
X36115619Y-87018761D01*
X36068000Y-86971142D01*
X36020380Y-86875904D01*
X36020380Y-86590190D01*
X36068000Y-86494952D01*
X36115619Y-86447333D01*
X36210857Y-86399714D01*
X36353714Y-86399714D01*
X36448952Y-86447333D01*
X36496571Y-86494952D01*
X36544190Y-86590190D01*
X36544190Y-86875904D01*
X36496571Y-86971142D01*
X36448952Y-87018761D01*
X36353714Y-87066380D01*
X36210857Y-87066380D01*
X36829904Y-86399714D02*
X37210857Y-86399714D01*
X36972761Y-86066380D02*
X36972761Y-86923523D01*
X37020380Y-87018761D01*
X37115619Y-87066380D01*
X37210857Y-87066380D01*
X37687047Y-87066380D02*
X37591809Y-87018761D01*
X37544190Y-86971142D01*
X37496571Y-86875904D01*
X37496571Y-86590190D01*
X37544190Y-86494952D01*
X37591809Y-86447333D01*
X37687047Y-86399714D01*
X37829904Y-86399714D01*
X37925142Y-86447333D01*
X37972761Y-86494952D01*
X38020380Y-86590190D01*
X38020380Y-86875904D01*
X37972761Y-86971142D01*
X37925142Y-87018761D01*
X37829904Y-87066380D01*
X37687047Y-87066380D01*
X34210857Y-94686380D02*
X34210857Y-93686380D01*
X34639428Y-93781619D02*
X34687047Y-93734000D01*
X34782285Y-93686380D01*
X35020380Y-93686380D01*
X35115619Y-93734000D01*
X35163238Y-93781619D01*
X35210857Y-93876857D01*
X35210857Y-93972095D01*
X35163238Y-94114952D01*
X34591809Y-94686380D01*
X35210857Y-94686380D01*
X36210857Y-94591142D02*
X36163238Y-94638761D01*
X36020380Y-94686380D01*
X35925142Y-94686380D01*
X35782285Y-94638761D01*
X35687047Y-94543523D01*
X35639428Y-94448285D01*
X35591809Y-94257809D01*
X35591809Y-94114952D01*
X35639428Y-93924476D01*
X35687047Y-93829238D01*
X35782285Y-93734000D01*
X35925142Y-93686380D01*
X36020380Y-93686380D01*
X36163238Y-93734000D01*
X36210857Y-93781619D01*
X37401333Y-94686380D02*
X37401333Y-93686380D01*
X37639428Y-93686380D01*
X37782285Y-93734000D01*
X37877523Y-93829238D01*
X37925142Y-93924476D01*
X37972761Y-94114952D01*
X37972761Y-94257809D01*
X37925142Y-94448285D01*
X37877523Y-94543523D01*
X37782285Y-94638761D01*
X37639428Y-94686380D01*
X37401333Y-94686380D01*
X34210857Y-92146380D02*
X34210857Y-91146380D01*
X34639428Y-91241619D02*
X34687047Y-91194000D01*
X34782285Y-91146380D01*
X35020380Y-91146380D01*
X35115619Y-91194000D01*
X35163238Y-91241619D01*
X35210857Y-91336857D01*
X35210857Y-91432095D01*
X35163238Y-91574952D01*
X34591809Y-92146380D01*
X35210857Y-92146380D01*
X36210857Y-92051142D02*
X36163238Y-92098761D01*
X36020380Y-92146380D01*
X35925142Y-92146380D01*
X35782285Y-92098761D01*
X35687047Y-92003523D01*
X35639428Y-91908285D01*
X35591809Y-91717809D01*
X35591809Y-91574952D01*
X35639428Y-91384476D01*
X35687047Y-91289238D01*
X35782285Y-91194000D01*
X35925142Y-91146380D01*
X36020380Y-91146380D01*
X36163238Y-91194000D01*
X36210857Y-91241619D01*
X37972761Y-92051142D02*
X37925142Y-92098761D01*
X37782285Y-92146380D01*
X37687047Y-92146380D01*
X37544190Y-92098761D01*
X37448952Y-92003523D01*
X37401333Y-91908285D01*
X37353714Y-91717809D01*
X37353714Y-91574952D01*
X37401333Y-91384476D01*
X37448952Y-91289238D01*
X37544190Y-91194000D01*
X37687047Y-91146380D01*
X37782285Y-91146380D01*
X37925142Y-91194000D01*
X37972761Y-91241619D01*
X26273333Y-104846380D02*
X26273333Y-103846380D01*
X27320952Y-104846380D02*
X26987619Y-104370190D01*
X26749523Y-104846380D02*
X26749523Y-103846380D01*
X27130476Y-103846380D01*
X27225714Y-103894000D01*
X27273333Y-103941619D01*
X27320952Y-104036857D01*
X27320952Y-104179714D01*
X27273333Y-104274952D01*
X27225714Y-104322571D01*
X27130476Y-104370190D01*
X26749523Y-104370190D01*
X28368571Y-103846380D02*
X28940000Y-103846380D01*
X28654285Y-104846380D02*
X28654285Y-103846380D01*
X29178095Y-104846380D02*
X29701904Y-104179714D01*
X29178095Y-104179714D02*
X29701904Y-104846380D01*
X34282285Y-97226380D02*
X34282285Y-96226380D01*
X35329904Y-97226380D02*
X34996571Y-96750190D01*
X34758476Y-97226380D02*
X34758476Y-96226380D01*
X35139428Y-96226380D01*
X35234666Y-96274000D01*
X35282285Y-96321619D01*
X35329904Y-96416857D01*
X35329904Y-96559714D01*
X35282285Y-96654952D01*
X35234666Y-96702571D01*
X35139428Y-96750190D01*
X34758476Y-96750190D01*
X37091809Y-97226380D02*
X36758476Y-96750190D01*
X36520380Y-97226380D02*
X36520380Y-96226380D01*
X36901333Y-96226380D01*
X36996571Y-96274000D01*
X37044190Y-96321619D01*
X37091809Y-96416857D01*
X37091809Y-96559714D01*
X37044190Y-96654952D01*
X36996571Y-96702571D01*
X36901333Y-96750190D01*
X36520380Y-96750190D01*
X37425142Y-97226380D02*
X37948952Y-96559714D01*
X37425142Y-96559714D02*
X37948952Y-97226380D01*
X25924380Y-114958761D02*
X26067238Y-115006380D01*
X26305333Y-115006380D01*
X26400571Y-114958761D01*
X26448190Y-114911142D01*
X26495809Y-114815904D01*
X26495809Y-114720666D01*
X26448190Y-114625428D01*
X26400571Y-114577809D01*
X26305333Y-114530190D01*
X26114857Y-114482571D01*
X26019619Y-114434952D01*
X25972000Y-114387333D01*
X25924380Y-114292095D01*
X25924380Y-114196857D01*
X25972000Y-114101619D01*
X26019619Y-114054000D01*
X26114857Y-114006380D01*
X26352952Y-114006380D01*
X26495809Y-114054000D01*
X27305333Y-114958761D02*
X27210095Y-115006380D01*
X27019619Y-115006380D01*
X26924380Y-114958761D01*
X26876761Y-114863523D01*
X26876761Y-114482571D01*
X26924380Y-114387333D01*
X27019619Y-114339714D01*
X27210095Y-114339714D01*
X27305333Y-114387333D01*
X27352952Y-114482571D01*
X27352952Y-114577809D01*
X26876761Y-114673047D01*
X27781523Y-115006380D02*
X27781523Y-114339714D01*
X27781523Y-114530190D02*
X27829142Y-114434952D01*
X27876761Y-114387333D01*
X27972000Y-114339714D01*
X28067238Y-114339714D01*
X28400571Y-115006380D02*
X28400571Y-114339714D01*
X28400571Y-114006380D02*
X28352952Y-114054000D01*
X28400571Y-114101619D01*
X28448190Y-114054000D01*
X28400571Y-114006380D01*
X28400571Y-114101619D01*
X29305333Y-115006380D02*
X29305333Y-114482571D01*
X29257714Y-114387333D01*
X29162476Y-114339714D01*
X28972000Y-114339714D01*
X28876761Y-114387333D01*
X29305333Y-114958761D02*
X29210095Y-115006380D01*
X28972000Y-115006380D01*
X28876761Y-114958761D01*
X28829142Y-114863523D01*
X28829142Y-114768285D01*
X28876761Y-114673047D01*
X28972000Y-114625428D01*
X29210095Y-114625428D01*
X29305333Y-114577809D01*
X29924380Y-115006380D02*
X29829142Y-114958761D01*
X29781523Y-114863523D01*
X29781523Y-114006380D01*
X31067238Y-115006380D02*
X31067238Y-114006380D01*
X31305333Y-114006380D01*
X31448190Y-114054000D01*
X31543428Y-114149238D01*
X31591047Y-114244476D01*
X31638666Y-114434952D01*
X31638666Y-114577809D01*
X31591047Y-114768285D01*
X31543428Y-114863523D01*
X31448190Y-114958761D01*
X31305333Y-115006380D01*
X31067238Y-115006380D01*
X32495809Y-115006380D02*
X32495809Y-114482571D01*
X32448190Y-114387333D01*
X32352952Y-114339714D01*
X32162476Y-114339714D01*
X32067238Y-114387333D01*
X32495809Y-114958761D02*
X32400571Y-115006380D01*
X32162476Y-115006380D01*
X32067238Y-114958761D01*
X32019619Y-114863523D01*
X32019619Y-114768285D01*
X32067238Y-114673047D01*
X32162476Y-114625428D01*
X32400571Y-114625428D01*
X32495809Y-114577809D01*
X32829142Y-114339714D02*
X33210095Y-114339714D01*
X32972000Y-114006380D02*
X32972000Y-114863523D01*
X33019619Y-114958761D01*
X33114857Y-115006380D01*
X33210095Y-115006380D01*
X33972000Y-115006380D02*
X33972000Y-114482571D01*
X33924380Y-114387333D01*
X33829142Y-114339714D01*
X33638666Y-114339714D01*
X33543428Y-114387333D01*
X33972000Y-114958761D02*
X33876761Y-115006380D01*
X33638666Y-115006380D01*
X33543428Y-114958761D01*
X33495809Y-114863523D01*
X33495809Y-114768285D01*
X33543428Y-114673047D01*
X33638666Y-114625428D01*
X33876761Y-114625428D01*
X33972000Y-114577809D01*
X26781428Y-112466380D02*
X26448095Y-111990190D01*
X26210000Y-112466380D02*
X26210000Y-111466380D01*
X26590952Y-111466380D01*
X26686190Y-111514000D01*
X26733809Y-111561619D01*
X26781428Y-111656857D01*
X26781428Y-111799714D01*
X26733809Y-111894952D01*
X26686190Y-111942571D01*
X26590952Y-111990190D01*
X26210000Y-111990190D01*
X27733809Y-111514000D02*
X27638571Y-111466380D01*
X27495714Y-111466380D01*
X27352857Y-111514000D01*
X27257619Y-111609238D01*
X27210000Y-111704476D01*
X27162380Y-111894952D01*
X27162380Y-112037809D01*
X27210000Y-112228285D01*
X27257619Y-112323523D01*
X27352857Y-112418761D01*
X27495714Y-112466380D01*
X27590952Y-112466380D01*
X27733809Y-112418761D01*
X27781428Y-112371142D01*
X27781428Y-112037809D01*
X27590952Y-112037809D01*
X28543333Y-111942571D02*
X28686190Y-111990190D01*
X28733809Y-112037809D01*
X28781428Y-112133047D01*
X28781428Y-112275904D01*
X28733809Y-112371142D01*
X28686190Y-112418761D01*
X28590952Y-112466380D01*
X28210000Y-112466380D01*
X28210000Y-111466380D01*
X28543333Y-111466380D01*
X28638571Y-111514000D01*
X28686190Y-111561619D01*
X28733809Y-111656857D01*
X28733809Y-111752095D01*
X28686190Y-111847333D01*
X28638571Y-111894952D01*
X28543333Y-111942571D01*
X28210000Y-111942571D01*
X30448095Y-112466380D02*
X29971904Y-112466380D01*
X29971904Y-111466380D01*
X30781428Y-111942571D02*
X31114761Y-111942571D01*
X31257619Y-112466380D02*
X30781428Y-112466380D01*
X30781428Y-111466380D01*
X31257619Y-111466380D01*
X31686190Y-112466380D02*
X31686190Y-111466380D01*
X31924285Y-111466380D01*
X32067142Y-111514000D01*
X32162380Y-111609238D01*
X32210000Y-111704476D01*
X32257619Y-111894952D01*
X32257619Y-112037809D01*
X32210000Y-112228285D01*
X32162380Y-112323523D01*
X32067142Y-112418761D01*
X31924285Y-112466380D01*
X31686190Y-112466380D01*
X26257523Y-109878761D02*
X26400380Y-109926380D01*
X26638476Y-109926380D01*
X26733714Y-109878761D01*
X26781333Y-109831142D01*
X26828952Y-109735904D01*
X26828952Y-109640666D01*
X26781333Y-109545428D01*
X26733714Y-109497809D01*
X26638476Y-109450190D01*
X26448000Y-109402571D01*
X26352761Y-109354952D01*
X26305142Y-109307333D01*
X26257523Y-109212095D01*
X26257523Y-109116857D01*
X26305142Y-109021619D01*
X26352761Y-108974000D01*
X26448000Y-108926380D01*
X26686095Y-108926380D01*
X26828952Y-108974000D01*
X27828952Y-109926380D02*
X27495619Y-109450190D01*
X27257523Y-109926380D02*
X27257523Y-108926380D01*
X27638476Y-108926380D01*
X27733714Y-108974000D01*
X27781333Y-109021619D01*
X27828952Y-109116857D01*
X27828952Y-109259714D01*
X27781333Y-109354952D01*
X27733714Y-109402571D01*
X27638476Y-109450190D01*
X27257523Y-109450190D01*
X28828952Y-109831142D02*
X28781333Y-109878761D01*
X28638476Y-109926380D01*
X28543238Y-109926380D01*
X28400380Y-109878761D01*
X28305142Y-109783523D01*
X28257523Y-109688285D01*
X28209904Y-109497809D01*
X28209904Y-109354952D01*
X28257523Y-109164476D01*
X28305142Y-109069238D01*
X28400380Y-108974000D01*
X28543238Y-108926380D01*
X28638476Y-108926380D01*
X28781333Y-108974000D01*
X28828952Y-109021619D01*
X29733714Y-109926380D02*
X29257523Y-109926380D01*
X29257523Y-108926380D01*
X30067047Y-109926380D02*
X30067047Y-108926380D01*
X30638476Y-109926380D02*
X30209904Y-109354952D01*
X30638476Y-108926380D02*
X30067047Y-109497809D01*
X26844761Y-107386380D02*
X26511428Y-106910190D01*
X26273333Y-107386380D02*
X26273333Y-106386380D01*
X26654285Y-106386380D01*
X26749523Y-106434000D01*
X26797142Y-106481619D01*
X26844761Y-106576857D01*
X26844761Y-106719714D01*
X26797142Y-106814952D01*
X26749523Y-106862571D01*
X26654285Y-106910190D01*
X26273333Y-106910190D01*
X27844761Y-107291142D02*
X27797142Y-107338761D01*
X27654285Y-107386380D01*
X27559047Y-107386380D01*
X27416190Y-107338761D01*
X27320952Y-107243523D01*
X27273333Y-107148285D01*
X27225714Y-106957809D01*
X27225714Y-106814952D01*
X27273333Y-106624476D01*
X27320952Y-106529238D01*
X27416190Y-106434000D01*
X27559047Y-106386380D01*
X27654285Y-106386380D01*
X27797142Y-106434000D01*
X27844761Y-106481619D01*
X28749523Y-107386380D02*
X28273333Y-107386380D01*
X28273333Y-106386380D01*
X29082857Y-107386380D02*
X29082857Y-106386380D01*
X29654285Y-107386380D02*
X29225714Y-106814952D01*
X29654285Y-106386380D02*
X29082857Y-106957809D01*
X33742571Y-98766380D02*
X34314000Y-98766380D01*
X34028285Y-99766380D02*
X34028285Y-98766380D01*
X35028285Y-99718761D02*
X34933047Y-99766380D01*
X34742571Y-99766380D01*
X34647333Y-99718761D01*
X34599714Y-99623523D01*
X34599714Y-99242571D01*
X34647333Y-99147333D01*
X34742571Y-99099714D01*
X34933047Y-99099714D01*
X35028285Y-99147333D01*
X35075904Y-99242571D01*
X35075904Y-99337809D01*
X34599714Y-99433047D01*
X35504476Y-99766380D02*
X35504476Y-99099714D01*
X35504476Y-99194952D02*
X35552095Y-99147333D01*
X35647333Y-99099714D01*
X35790190Y-99099714D01*
X35885428Y-99147333D01*
X35933047Y-99242571D01*
X35933047Y-99766380D01*
X35933047Y-99242571D02*
X35980666Y-99147333D01*
X36075904Y-99099714D01*
X36218761Y-99099714D01*
X36314000Y-99147333D01*
X36361619Y-99242571D01*
X36361619Y-99766380D01*
X36837809Y-99099714D02*
X36837809Y-100099714D01*
X36837809Y-99147333D02*
X36933047Y-99099714D01*
X37123523Y-99099714D01*
X37218761Y-99147333D01*
X37266380Y-99194952D01*
X37314000Y-99290190D01*
X37314000Y-99575904D01*
X37266380Y-99671142D01*
X37218761Y-99718761D01*
X37123523Y-99766380D01*
X36933047Y-99766380D01*
X36837809Y-99718761D01*
X37742571Y-99671142D02*
X37790190Y-99718761D01*
X37742571Y-99766380D01*
X37694952Y-99718761D01*
X37742571Y-99671142D01*
X37742571Y-99766380D01*
X26241714Y-101782571D02*
X26575047Y-101782571D01*
X26717904Y-102306380D02*
X26241714Y-102306380D01*
X26241714Y-101306380D01*
X26717904Y-101306380D01*
X27146476Y-101639714D02*
X27146476Y-102306380D01*
X27146476Y-101734952D02*
X27194095Y-101687333D01*
X27289333Y-101639714D01*
X27432190Y-101639714D01*
X27527428Y-101687333D01*
X27575047Y-101782571D01*
X27575047Y-102306380D01*
X28479809Y-102258761D02*
X28384571Y-102306380D01*
X28194095Y-102306380D01*
X28098857Y-102258761D01*
X28051238Y-102211142D01*
X28003619Y-102115904D01*
X28003619Y-101830190D01*
X28051238Y-101734952D01*
X28098857Y-101687333D01*
X28194095Y-101639714D01*
X28384571Y-101639714D01*
X28479809Y-101687333D01*
X28908380Y-102211142D02*
X28956000Y-102258761D01*
X28908380Y-102306380D01*
X28860761Y-102258761D01*
X28908380Y-102211142D01*
X28908380Y-102306380D01*
X30098857Y-102258761D02*
X30241714Y-102306380D01*
X30479809Y-102306380D01*
X30575047Y-102258761D01*
X30622666Y-102211142D01*
X30670285Y-102115904D01*
X30670285Y-102020666D01*
X30622666Y-101925428D01*
X30575047Y-101877809D01*
X30479809Y-101830190D01*
X30289333Y-101782571D01*
X30194095Y-101734952D01*
X30146476Y-101687333D01*
X30098857Y-101592095D01*
X30098857Y-101496857D01*
X30146476Y-101401619D01*
X30194095Y-101354000D01*
X30289333Y-101306380D01*
X30527428Y-101306380D01*
X30670285Y-101354000D01*
X31003619Y-101639714D02*
X31194095Y-102306380D01*
X31384571Y-101830190D01*
X31575047Y-102306380D01*
X31765523Y-101639714D01*
X26233714Y-99242571D02*
X26567047Y-99242571D01*
X26709904Y-99766380D02*
X26233714Y-99766380D01*
X26233714Y-98766380D01*
X26709904Y-98766380D01*
X27138476Y-99099714D02*
X27138476Y-99766380D01*
X27138476Y-99194952D02*
X27186095Y-99147333D01*
X27281333Y-99099714D01*
X27424190Y-99099714D01*
X27519428Y-99147333D01*
X27567047Y-99242571D01*
X27567047Y-99766380D01*
X28471809Y-99718761D02*
X28376571Y-99766380D01*
X28186095Y-99766380D01*
X28090857Y-99718761D01*
X28043238Y-99671142D01*
X27995619Y-99575904D01*
X27995619Y-99290190D01*
X28043238Y-99194952D01*
X28090857Y-99147333D01*
X28186095Y-99099714D01*
X28376571Y-99099714D01*
X28471809Y-99147333D01*
X28900380Y-99671142D02*
X28948000Y-99718761D01*
X28900380Y-99766380D01*
X28852761Y-99718761D01*
X28900380Y-99671142D01*
X28900380Y-99766380D01*
X30471809Y-99242571D02*
X30614666Y-99290190D01*
X30662285Y-99337809D01*
X30709904Y-99433047D01*
X30709904Y-99575904D01*
X30662285Y-99671142D01*
X30614666Y-99718761D01*
X30519428Y-99766380D01*
X30138476Y-99766380D01*
X30138476Y-98766380D01*
X30471809Y-98766380D01*
X30567047Y-98814000D01*
X30614666Y-98861619D01*
X30662285Y-98956857D01*
X30662285Y-99052095D01*
X30614666Y-99147333D01*
X30567047Y-99194952D01*
X30471809Y-99242571D01*
X30138476Y-99242571D01*
X26710000Y-97226380D02*
X26376666Y-96750190D01*
X26138571Y-97226380D02*
X26138571Y-96226380D01*
X26519523Y-96226380D01*
X26614761Y-96274000D01*
X26662380Y-96321619D01*
X26710000Y-96416857D01*
X26710000Y-96559714D01*
X26662380Y-96654952D01*
X26614761Y-96702571D01*
X26519523Y-96750190D01*
X26138571Y-96750190D01*
X27138571Y-97226380D02*
X27138571Y-96559714D01*
X27138571Y-96226380D02*
X27090952Y-96274000D01*
X27138571Y-96321619D01*
X27186190Y-96274000D01*
X27138571Y-96226380D01*
X27138571Y-96321619D01*
X28043333Y-96559714D02*
X28043333Y-97369238D01*
X27995714Y-97464476D01*
X27948095Y-97512095D01*
X27852857Y-97559714D01*
X27710000Y-97559714D01*
X27614761Y-97512095D01*
X28043333Y-97178761D02*
X27948095Y-97226380D01*
X27757619Y-97226380D01*
X27662380Y-97178761D01*
X27614761Y-97131142D01*
X27567142Y-97035904D01*
X27567142Y-96750190D01*
X27614761Y-96654952D01*
X27662380Y-96607333D01*
X27757619Y-96559714D01*
X27948095Y-96559714D01*
X28043333Y-96607333D01*
X28519523Y-97226380D02*
X28519523Y-96226380D01*
X28948095Y-97226380D02*
X28948095Y-96702571D01*
X28900476Y-96607333D01*
X28805238Y-96559714D01*
X28662380Y-96559714D01*
X28567142Y-96607333D01*
X28519523Y-96654952D01*
X29281428Y-96559714D02*
X29662380Y-96559714D01*
X29424285Y-96226380D02*
X29424285Y-97083523D01*
X29471904Y-97178761D01*
X29567142Y-97226380D01*
X29662380Y-97226380D01*
X30710000Y-97178761D02*
X30852857Y-97226380D01*
X31090952Y-97226380D01*
X31186190Y-97178761D01*
X31233809Y-97131142D01*
X31281428Y-97035904D01*
X31281428Y-96940666D01*
X31233809Y-96845428D01*
X31186190Y-96797809D01*
X31090952Y-96750190D01*
X30900476Y-96702571D01*
X30805238Y-96654952D01*
X30757619Y-96607333D01*
X30710000Y-96512095D01*
X30710000Y-96416857D01*
X30757619Y-96321619D01*
X30805238Y-96274000D01*
X30900476Y-96226380D01*
X31138571Y-96226380D01*
X31281428Y-96274000D01*
X31614761Y-96559714D02*
X31805238Y-97226380D01*
X31995714Y-96750190D01*
X32186190Y-97226380D01*
X32376666Y-96559714D01*
X26630571Y-94686380D02*
X26154380Y-94686380D01*
X26154380Y-93686380D01*
X27344857Y-94638761D02*
X27249619Y-94686380D01*
X27059142Y-94686380D01*
X26963904Y-94638761D01*
X26916285Y-94543523D01*
X26916285Y-94162571D01*
X26963904Y-94067333D01*
X27059142Y-94019714D01*
X27249619Y-94019714D01*
X27344857Y-94067333D01*
X27392476Y-94162571D01*
X27392476Y-94257809D01*
X26916285Y-94353047D01*
X27678190Y-94019714D02*
X28059142Y-94019714D01*
X27821047Y-94686380D02*
X27821047Y-93829238D01*
X27868666Y-93734000D01*
X27963904Y-93686380D01*
X28059142Y-93686380D01*
X28249619Y-94019714D02*
X28630571Y-94019714D01*
X28392476Y-93686380D02*
X28392476Y-94543523D01*
X28440095Y-94638761D01*
X28535333Y-94686380D01*
X28630571Y-94686380D01*
X29678190Y-94638761D02*
X29821047Y-94686380D01*
X30059142Y-94686380D01*
X30154380Y-94638761D01*
X30202000Y-94591142D01*
X30249619Y-94495904D01*
X30249619Y-94400666D01*
X30202000Y-94305428D01*
X30154380Y-94257809D01*
X30059142Y-94210190D01*
X29868666Y-94162571D01*
X29773428Y-94114952D01*
X29725809Y-94067333D01*
X29678190Y-93972095D01*
X29678190Y-93876857D01*
X29725809Y-93781619D01*
X29773428Y-93734000D01*
X29868666Y-93686380D01*
X30106761Y-93686380D01*
X30249619Y-93734000D01*
X30582952Y-94019714D02*
X30773428Y-94686380D01*
X30963904Y-94210190D01*
X31154380Y-94686380D01*
X31344857Y-94019714D01*
X26138571Y-92146380D02*
X26138571Y-91146380D01*
X26376666Y-91146380D01*
X26519523Y-91194000D01*
X26614761Y-91289238D01*
X26662380Y-91384476D01*
X26710000Y-91574952D01*
X26710000Y-91717809D01*
X26662380Y-91908285D01*
X26614761Y-92003523D01*
X26519523Y-92098761D01*
X26376666Y-92146380D01*
X26138571Y-92146380D01*
X27281428Y-92146380D02*
X27186190Y-92098761D01*
X27138571Y-92051142D01*
X27090952Y-91955904D01*
X27090952Y-91670190D01*
X27138571Y-91574952D01*
X27186190Y-91527333D01*
X27281428Y-91479714D01*
X27424285Y-91479714D01*
X27519523Y-91527333D01*
X27567142Y-91574952D01*
X27614761Y-91670190D01*
X27614761Y-91955904D01*
X27567142Y-92051142D01*
X27519523Y-92098761D01*
X27424285Y-92146380D01*
X27281428Y-92146380D01*
X27948095Y-91479714D02*
X28138571Y-92146380D01*
X28329047Y-91670190D01*
X28519523Y-92146380D01*
X28710000Y-91479714D01*
X29090952Y-91479714D02*
X29090952Y-92146380D01*
X29090952Y-91574952D02*
X29138571Y-91527333D01*
X29233809Y-91479714D01*
X29376666Y-91479714D01*
X29471904Y-91527333D01*
X29519523Y-91622571D01*
X29519523Y-92146380D01*
X30710000Y-92098761D02*
X30852857Y-92146380D01*
X31090952Y-92146380D01*
X31186190Y-92098761D01*
X31233809Y-92051142D01*
X31281428Y-91955904D01*
X31281428Y-91860666D01*
X31233809Y-91765428D01*
X31186190Y-91717809D01*
X31090952Y-91670190D01*
X30900476Y-91622571D01*
X30805238Y-91574952D01*
X30757619Y-91527333D01*
X30710000Y-91432095D01*
X30710000Y-91336857D01*
X30757619Y-91241619D01*
X30805238Y-91194000D01*
X30900476Y-91146380D01*
X31138571Y-91146380D01*
X31281428Y-91194000D01*
X31614761Y-91479714D02*
X31805238Y-92146380D01*
X31995714Y-91670190D01*
X32186190Y-92146380D01*
X32376666Y-91479714D01*
X26074952Y-88606380D02*
X26074952Y-89415904D01*
X26122571Y-89511142D01*
X26170190Y-89558761D01*
X26265428Y-89606380D01*
X26455904Y-89606380D01*
X26551142Y-89558761D01*
X26598761Y-89511142D01*
X26646380Y-89415904D01*
X26646380Y-88606380D01*
X27122571Y-88939714D02*
X27122571Y-89939714D01*
X27122571Y-88987333D02*
X27217809Y-88939714D01*
X27408285Y-88939714D01*
X27503523Y-88987333D01*
X27551142Y-89034952D01*
X27598761Y-89130190D01*
X27598761Y-89415904D01*
X27551142Y-89511142D01*
X27503523Y-89558761D01*
X27408285Y-89606380D01*
X27217809Y-89606380D01*
X27122571Y-89558761D01*
X28741619Y-89558761D02*
X28884476Y-89606380D01*
X29122571Y-89606380D01*
X29217809Y-89558761D01*
X29265428Y-89511142D01*
X29313047Y-89415904D01*
X29313047Y-89320666D01*
X29265428Y-89225428D01*
X29217809Y-89177809D01*
X29122571Y-89130190D01*
X28932095Y-89082571D01*
X28836857Y-89034952D01*
X28789238Y-88987333D01*
X28741619Y-88892095D01*
X28741619Y-88796857D01*
X28789238Y-88701619D01*
X28836857Y-88654000D01*
X28932095Y-88606380D01*
X29170190Y-88606380D01*
X29313047Y-88654000D01*
X29646380Y-88939714D02*
X29836857Y-89606380D01*
X30027333Y-89130190D01*
X30217809Y-89606380D01*
X30408285Y-88939714D01*
X26051142Y-86542571D02*
X26384476Y-86542571D01*
X26527333Y-87066380D02*
X26051142Y-87066380D01*
X26051142Y-86066380D01*
X26527333Y-86066380D01*
X26955904Y-86399714D02*
X26955904Y-87066380D01*
X26955904Y-86494952D02*
X27003523Y-86447333D01*
X27098761Y-86399714D01*
X27241619Y-86399714D01*
X27336857Y-86447333D01*
X27384476Y-86542571D01*
X27384476Y-87066380D01*
X28289238Y-87018761D02*
X28194000Y-87066380D01*
X28003523Y-87066380D01*
X27908285Y-87018761D01*
X27860666Y-86971142D01*
X27813047Y-86875904D01*
X27813047Y-86590190D01*
X27860666Y-86494952D01*
X27908285Y-86447333D01*
X28003523Y-86399714D01*
X28194000Y-86399714D01*
X28289238Y-86447333D01*
X28717809Y-86971142D02*
X28765428Y-87018761D01*
X28717809Y-87066380D01*
X28670190Y-87018761D01*
X28717809Y-86971142D01*
X28717809Y-87066380D01*
X29908285Y-86780666D02*
X30384476Y-86780666D01*
X29813047Y-87066380D02*
X30146380Y-86066380D01*
X30479714Y-87066380D01*
X19304095Y-62746000D02*
X19208857Y-62698380D01*
X19066000Y-62698380D01*
X18923142Y-62746000D01*
X18827904Y-62841238D01*
X18780285Y-62936476D01*
X18732666Y-63126952D01*
X18732666Y-63269809D01*
X18780285Y-63460285D01*
X18827904Y-63555523D01*
X18923142Y-63650761D01*
X19066000Y-63698380D01*
X19161238Y-63698380D01*
X19304095Y-63650761D01*
X19351714Y-63603142D01*
X19351714Y-63269809D01*
X19161238Y-63269809D01*
X19780285Y-63698380D02*
X19780285Y-62698380D01*
X20351714Y-63698380D01*
X20351714Y-62698380D01*
X20827904Y-63698380D02*
X20827904Y-62698380D01*
X21066000Y-62698380D01*
X21208857Y-62746000D01*
X21304095Y-62841238D01*
X21351714Y-62936476D01*
X21399333Y-63126952D01*
X21399333Y-63269809D01*
X21351714Y-63460285D01*
X21304095Y-63555523D01*
X21208857Y-63650761D01*
X21066000Y-63698380D01*
X20827904Y-63698380D01*
X19296190Y-70826380D02*
X19629523Y-71826380D01*
X19962857Y-70826380D01*
X20296190Y-71826380D02*
X20296190Y-71159714D01*
X20296190Y-70826380D02*
X20248571Y-70874000D01*
X20296190Y-70921619D01*
X20343809Y-70874000D01*
X20296190Y-70826380D01*
X20296190Y-70921619D01*
X20772380Y-71159714D02*
X20772380Y-71826380D01*
X20772380Y-71254952D02*
X20820000Y-71207333D01*
X20915238Y-71159714D01*
X21058095Y-71159714D01*
X21153333Y-71207333D01*
X21200952Y-71302571D01*
X21200952Y-71826380D01*
X63492095Y-96972380D02*
X63492095Y-95972380D01*
X63730190Y-95972380D01*
X63873047Y-96020000D01*
X63968285Y-96115238D01*
X64015904Y-96210476D01*
X64063523Y-96400952D01*
X64063523Y-96543809D01*
X64015904Y-96734285D01*
X63968285Y-96829523D01*
X63873047Y-96924761D01*
X63730190Y-96972380D01*
X63492095Y-96972380D01*
X64063523Y-99417142D02*
X64015904Y-99464761D01*
X63873047Y-99512380D01*
X63777809Y-99512380D01*
X63634952Y-99464761D01*
X63539714Y-99369523D01*
X63492095Y-99274285D01*
X63444476Y-99083809D01*
X63444476Y-98940952D01*
X63492095Y-98750476D01*
X63539714Y-98655238D01*
X63634952Y-98560000D01*
X63777809Y-98512380D01*
X63873047Y-98512380D01*
X64015904Y-98560000D01*
X64063523Y-98607619D01*
X63420666Y-101052380D02*
X63754000Y-102052380D01*
X64087333Y-101052380D01*
X64015904Y-103640000D02*
X63920666Y-103592380D01*
X63777809Y-103592380D01*
X63634952Y-103640000D01*
X63539714Y-103735238D01*
X63492095Y-103830476D01*
X63444476Y-104020952D01*
X63444476Y-104163809D01*
X63492095Y-104354285D01*
X63539714Y-104449523D01*
X63634952Y-104544761D01*
X63777809Y-104592380D01*
X63873047Y-104592380D01*
X64015904Y-104544761D01*
X64063523Y-104497142D01*
X64063523Y-104163809D01*
X63873047Y-104163809D01*
D10*
G04 #@! TO.C,J9*
X39310000Y-56836000D02*
X40640000Y-56836000D01*
X39310000Y-58166000D02*
X39310000Y-56836000D01*
X41910000Y-56836000D02*
X44510000Y-56836000D01*
X41910000Y-59436000D02*
X41910000Y-56836000D01*
X39310000Y-59436000D02*
X41910000Y-59436000D01*
X44510000Y-56836000D02*
X44510000Y-67116000D01*
X39310000Y-59436000D02*
X39310000Y-67116000D01*
X39310000Y-67116000D02*
X44510000Y-67116000D01*
G04 #@! TO.C,J8 - OLED*
X106740000Y-27178000D02*
X106740000Y-28508000D01*
X106740000Y-28508000D02*
X105410000Y-28508000D01*
X104140000Y-28508000D02*
X96460000Y-28508000D01*
X96460000Y-25848000D02*
X96460000Y-28508000D01*
X104140000Y-25848000D02*
X96460000Y-25848000D01*
X104140000Y-25848000D02*
X104140000Y-28508000D01*
G04 #@! TO.C,R46*
X105061936Y-24786000D02*
X106266064Y-24786000D01*
X105061936Y-22966000D02*
X106266064Y-22966000D01*
G04 #@! TO.C,Accl. Orientation*
X64897001Y-45846999D02*
X64897000Y-45847000D01*
X64897000Y-45847000D02*
X64897001Y-45846999D01*
X64897001Y-45846999D02*
X64897000Y-45847000D01*
X65278000Y-45974000D02*
X64897001Y-45846999D01*
X64897000Y-46355000D02*
X65278000Y-45974000D01*
X64897000Y-45847000D02*
X64897000Y-46355000D01*
X65659000Y-45974000D02*
X66421000Y-44958000D01*
X65532000Y-45212000D02*
X66548000Y-45720000D01*
X66675000Y-45466000D02*
G75*
G03*
X66675000Y-45466000I-635000J0D01*
G01*
X65278000Y-43815000D02*
X65278000Y-43307000D01*
X65024000Y-43561000D02*
X65278000Y-43815000D01*
X66040000Y-42799000D02*
X66167001Y-42545001D01*
X66167001Y-42545001D02*
X65786000Y-42545000D01*
X66675000Y-43561000D02*
X65024000Y-43561000D01*
X65278000Y-43307000D02*
X65024000Y-43561000D01*
X65786000Y-42545000D02*
X66040000Y-42799000D01*
X66675000Y-41656000D02*
X66928999Y-41783001D01*
X66929000Y-41402000D02*
X66675000Y-41656000D01*
X66928999Y-41783001D02*
X66929000Y-41402000D01*
X66167000Y-40894000D02*
X65913000Y-40640000D01*
X65659000Y-40894000D02*
X66167000Y-40894000D01*
X65913000Y-40640000D02*
X65659000Y-40894000D01*
X65913000Y-42291000D02*
X65913000Y-40640000D01*
X67168114Y-45889044D02*
G75*
G02*
X64897001Y-45846999I-1128114J423044D01*
G01*
X66167000Y-44576998D02*
G75*
G02*
X66167001Y-42545001I508000J1015998D01*
G01*
X64897002Y-41783000D02*
G75*
G02*
X66928999Y-41783001I1015998J-508000D01*
G01*
G04 #@! TO.C,Mech. Support*
X106740000Y-47752000D02*
X106740000Y-49082000D01*
X106740000Y-49082000D02*
X105410000Y-49082000D01*
X104140000Y-49082000D02*
X96460000Y-49082000D01*
X96460000Y-46422000D02*
X96460000Y-49082000D01*
X104140000Y-46422000D02*
X96460000Y-46422000D01*
X104140000Y-46422000D02*
X104140000Y-49082000D01*
D11*
G04 #@! TO.C,U1*
X74558000Y-41538000D02*
X75083000Y-41538000D01*
X78858000Y-45838000D02*
X78333000Y-45838000D01*
X78858000Y-41538000D02*
X78333000Y-41538000D01*
X74558000Y-45838000D02*
X74558000Y-45313000D01*
X78858000Y-45838000D02*
X78858000Y-45313000D01*
X78858000Y-41538000D02*
X78858000Y-42063000D01*
X74558000Y-41538000D02*
X74558000Y-42063000D01*
D10*
G04 #@! TO.C,R20*
X55986000Y-81882064D02*
X55986000Y-80677936D01*
X57806000Y-81882064D02*
X57806000Y-80677936D01*
G04 #@! TO.C,R19*
X50694000Y-79661936D02*
X50694000Y-80866064D01*
X48874000Y-79661936D02*
X48874000Y-80866064D01*
G04 #@! TO.C,R18*
X48408000Y-73057936D02*
X48408000Y-74262064D01*
X46588000Y-73057936D02*
X46588000Y-74262064D01*
G04 #@! TO.C,R17*
X53954000Y-75278064D02*
X53954000Y-74073936D01*
X55774000Y-75278064D02*
X55774000Y-74073936D01*
G04 #@! TO.C,Q2*
X54100000Y-81336000D02*
X54100000Y-80406000D01*
X54100000Y-78176000D02*
X54100000Y-79106000D01*
X54100000Y-78176000D02*
X51940000Y-78176000D01*
X54100000Y-81336000D02*
X52640000Y-81336000D01*
G04 #@! TO.C,Q1*
X50548000Y-73604000D02*
X50548000Y-74534000D01*
X50548000Y-76764000D02*
X50548000Y-75834000D01*
X50548000Y-76764000D02*
X52708000Y-76764000D01*
X50548000Y-73604000D02*
X52008000Y-73604000D01*
G04 #@! TO.C,C10*
X81947936Y-41762000D02*
X83152064Y-41762000D01*
X81947936Y-43582000D02*
X83152064Y-43582000D01*
G04 #@! TO.C,C11*
X70263936Y-42016000D02*
X71468064Y-42016000D01*
X70263936Y-43836000D02*
X71468064Y-43836000D01*
G04 #@! TO.C,C9*
X78888000Y-37497936D02*
X78888000Y-38702064D01*
X77068000Y-37497936D02*
X77068000Y-38702064D01*
G04 #@! TO.C,C12*
X83152064Y-45868000D02*
X81947936Y-45868000D01*
X83152064Y-44048000D02*
X81947936Y-44048000D01*
G04 #@! TO.C,D1*
X16670000Y-17062000D02*
X16670000Y-18212000D01*
X23970000Y-17062000D02*
X16670000Y-17062000D01*
X23970000Y-22562000D02*
X16670000Y-22562000D01*
G04 #@! TO.C,D8*
X71788000Y-17062000D02*
X71788000Y-18212000D01*
X79088000Y-17062000D02*
X71788000Y-17062000D01*
X79088000Y-22562000D02*
X71788000Y-22562000D01*
G04 #@! TO.C,D7*
X63914000Y-17062000D02*
X63914000Y-18212000D01*
X71214000Y-17062000D02*
X63914000Y-17062000D01*
X71214000Y-22562000D02*
X63914000Y-22562000D01*
G04 #@! TO.C,D6*
X56040000Y-17062000D02*
X56040000Y-18212000D01*
X63340000Y-17062000D02*
X56040000Y-17062000D01*
X63340000Y-22562000D02*
X56040000Y-22562000D01*
G04 #@! TO.C,D5*
X48166000Y-17062000D02*
X48166000Y-18212000D01*
X55466000Y-17062000D02*
X48166000Y-17062000D01*
X55466000Y-22562000D02*
X48166000Y-22562000D01*
G04 #@! TO.C,D4*
X40292000Y-17062000D02*
X40292000Y-18212000D01*
X47592000Y-17062000D02*
X40292000Y-17062000D01*
X47592000Y-22562000D02*
X40292000Y-22562000D01*
G04 #@! TO.C,D3*
X32418000Y-17062000D02*
X32418000Y-18212000D01*
X39718000Y-17062000D02*
X32418000Y-17062000D01*
X39718000Y-22562000D02*
X32418000Y-22562000D01*
G04 #@! TO.C,D2*
X24544000Y-17062000D02*
X24544000Y-18212000D01*
X31844000Y-17062000D02*
X24544000Y-17062000D01*
X31844000Y-22562000D02*
X24544000Y-22562000D01*
G04 #@! TO.C,J7*
X20066000Y-69910000D02*
X18736000Y-69910000D01*
X18736000Y-69910000D02*
X18736000Y-68580000D01*
X18736000Y-67310000D02*
X18736000Y-64710000D01*
X21396000Y-64710000D02*
X18736000Y-64710000D01*
X21396000Y-67310000D02*
X21396000Y-64710000D01*
X21396000Y-67310000D02*
X18736000Y-67310000D01*
G04 #@! TO.C,U8*
X83760000Y-21480000D02*
X83760000Y-21830000D01*
X83760000Y-21830000D02*
X86360000Y-21830000D01*
X83760000Y-19160000D02*
X83760000Y-18820000D01*
X83760000Y-18820000D02*
X88850000Y-18820000D01*
X88459917Y-18818264D02*
G75*
G03*
X84260000Y-18820000I-2099917J-101736D01*
G01*
G04 #@! TO.C,U4*
X61154000Y-58912000D02*
X61154000Y-60562000D01*
X61154000Y-60562000D02*
X81594000Y-60562000D01*
X81594000Y-60562000D02*
X81594000Y-55262000D01*
X81594000Y-55262000D02*
X61154000Y-55262000D01*
X61154000Y-55262000D02*
X61154000Y-56912000D01*
X61154000Y-56912000D02*
G75*
G02*
X61154000Y-58912000I0J-1000000D01*
G01*
G04 #@! TO.C,U3*
X61154000Y-72374000D02*
X61154000Y-74024000D01*
X61154000Y-74024000D02*
X81594000Y-74024000D01*
X81594000Y-74024000D02*
X81594000Y-68724000D01*
X81594000Y-68724000D02*
X61154000Y-68724000D01*
X61154000Y-68724000D02*
X61154000Y-70374000D01*
X61154000Y-70374000D02*
G75*
G02*
X61154000Y-72374000I0J-1000000D01*
G01*
G04 #@! TO.C,U2*
X35246000Y-43672000D02*
X35246000Y-45322000D01*
X35246000Y-45322000D02*
X55686000Y-45322000D01*
X55686000Y-45322000D02*
X55686000Y-40022000D01*
X55686000Y-40022000D02*
X35246000Y-40022000D01*
X35246000Y-40022000D02*
X35246000Y-41672000D01*
X35246000Y-41672000D02*
G75*
G02*
X35246000Y-43672000I0J-1000000D01*
G01*
G04 #@! TO.C,U6*
X102340000Y-21916000D02*
X105940000Y-21916000D01*
X105978478Y-21904478D02*
G75*
G03*
X104140000Y-17466000I-1838478J1838478D01*
G01*
X102301522Y-21904478D02*
G75*
G02*
X104140000Y-17466000I1838478J1838478D01*
G01*
G04 #@! TO.C,U5*
X65726000Y-87360000D02*
X65726000Y-89010000D01*
X65726000Y-89010000D02*
X83626000Y-89010000D01*
X83626000Y-89010000D02*
X83626000Y-83710000D01*
X83626000Y-83710000D02*
X65726000Y-83710000D01*
X65726000Y-83710000D02*
X65726000Y-85360000D01*
X65726000Y-85360000D02*
G75*
G02*
X65726000Y-87360000I0J-1000000D01*
G01*
G04 #@! TO.C,SW4*
X103140000Y-109054000D02*
X98640000Y-109054000D01*
X104390000Y-113054000D02*
X104390000Y-111554000D01*
X98640000Y-115554000D02*
X103140000Y-115554000D01*
X97390000Y-111554000D02*
X97390000Y-113054000D01*
G04 #@! TO.C,SW3*
X103140000Y-92798000D02*
X98640000Y-92798000D01*
X104390000Y-96798000D02*
X104390000Y-95298000D01*
X98640000Y-99298000D02*
X103140000Y-99298000D01*
X97390000Y-95298000D02*
X97390000Y-96798000D01*
G04 #@! TO.C,SW2*
X113300000Y-100926000D02*
X108800000Y-100926000D01*
X114550000Y-104926000D02*
X114550000Y-103426000D01*
X108800000Y-107426000D02*
X113300000Y-107426000D01*
X107550000Y-103426000D02*
X107550000Y-104926000D01*
G04 #@! TO.C,SW1*
X92980000Y-100926000D02*
X88480000Y-100926000D01*
X94230000Y-104926000D02*
X94230000Y-103426000D01*
X88480000Y-107426000D02*
X92980000Y-107426000D01*
X87230000Y-103426000D02*
X87230000Y-104926000D01*
G04 #@! TO.C,RV3*
X57182000Y-115002000D02*
X57182000Y-114312000D01*
X57282000Y-115002000D02*
X57182000Y-115002000D01*
X63802000Y-115002000D02*
X63802000Y-114752000D01*
X63702000Y-115002000D02*
X63802000Y-115002000D01*
X63702000Y-115202000D02*
X63702000Y-115002000D01*
X62282000Y-115002000D02*
X62282000Y-115202000D01*
X58492000Y-107982000D02*
X59982000Y-107982000D01*
X57182000Y-113272000D02*
X57182000Y-109292000D01*
X63802000Y-109292000D02*
X63802000Y-112832000D01*
X61002000Y-107982000D02*
X62492000Y-107982000D01*
X57282000Y-115202000D02*
X57282000Y-115002000D01*
X58702000Y-115202000D02*
X57282000Y-115202000D01*
X58702000Y-115002000D02*
X58702000Y-115202000D01*
X62282000Y-115002000D02*
X58702000Y-115002000D01*
X63702000Y-115202000D02*
X62282000Y-115202000D01*
X62492000Y-107982000D02*
G75*
G02*
X63802000Y-109292000I0J-1310000D01*
G01*
X57182000Y-109292000D02*
G75*
G02*
X58492000Y-107982000I1310000J0D01*
G01*
G04 #@! TO.C,RV2*
X49816000Y-115002000D02*
X49816000Y-114312000D01*
X49916000Y-115002000D02*
X49816000Y-115002000D01*
X56436000Y-115002000D02*
X56436000Y-114752000D01*
X56336000Y-115002000D02*
X56436000Y-115002000D01*
X56336000Y-115202000D02*
X56336000Y-115002000D01*
X54916000Y-115002000D02*
X54916000Y-115202000D01*
X51126000Y-107982000D02*
X52616000Y-107982000D01*
X49816000Y-113272000D02*
X49816000Y-109292000D01*
X56436000Y-109292000D02*
X56436000Y-112832000D01*
X53636000Y-107982000D02*
X55126000Y-107982000D01*
X49916000Y-115202000D02*
X49916000Y-115002000D01*
X51336000Y-115202000D02*
X49916000Y-115202000D01*
X51336000Y-115002000D02*
X51336000Y-115202000D01*
X54916000Y-115002000D02*
X51336000Y-115002000D01*
X56336000Y-115202000D02*
X54916000Y-115202000D01*
X55126000Y-107982000D02*
G75*
G02*
X56436000Y-109292000I0J-1310000D01*
G01*
X49816000Y-109292000D02*
G75*
G02*
X51126000Y-107982000I1310000J0D01*
G01*
G04 #@! TO.C,RV1*
X42450000Y-115002000D02*
X42450000Y-114312000D01*
X42550000Y-115002000D02*
X42450000Y-115002000D01*
X49070000Y-115002000D02*
X49070000Y-114752000D01*
X48970000Y-115002000D02*
X49070000Y-115002000D01*
X48970000Y-115202000D02*
X48970000Y-115002000D01*
X47550000Y-115002000D02*
X47550000Y-115202000D01*
X43760000Y-107982000D02*
X45250000Y-107982000D01*
X42450000Y-113272000D02*
X42450000Y-109292000D01*
X49070000Y-109292000D02*
X49070000Y-112832000D01*
X46270000Y-107982000D02*
X47760000Y-107982000D01*
X42550000Y-115202000D02*
X42550000Y-115002000D01*
X43970000Y-115202000D02*
X42550000Y-115202000D01*
X43970000Y-115002000D02*
X43970000Y-115202000D01*
X47550000Y-115002000D02*
X43970000Y-115002000D01*
X48970000Y-115202000D02*
X47550000Y-115202000D01*
X47760000Y-107982000D02*
G75*
G02*
X49070000Y-109292000I0J-1310000D01*
G01*
X42450000Y-109292000D02*
G75*
G02*
X43760000Y-107982000I1310000J0D01*
G01*
G04 #@! TO.C,Rot_Enc1*
X74564000Y-109180000D02*
X75564000Y-109180000D01*
X75064000Y-108680000D02*
X75064000Y-109680000D01*
X81164000Y-112480000D02*
X81164000Y-115080000D01*
X81164000Y-107880000D02*
X81164000Y-110480000D01*
X81164000Y-103280000D02*
X81164000Y-105880000D01*
X67864000Y-105080000D02*
X67564000Y-105380000D01*
X67264000Y-105080000D02*
X67864000Y-105080000D01*
X67564000Y-105380000D02*
X67264000Y-105080000D01*
X68964000Y-103380000D02*
X68964000Y-115080000D01*
X73064000Y-103380000D02*
X68964000Y-103380000D01*
X73064000Y-115080000D02*
X68964000Y-115080000D01*
X81164000Y-115080000D02*
X77064000Y-115080000D01*
X77064000Y-103280000D02*
X81164000Y-103280000D01*
X78064000Y-109180000D02*
G75*
G03*
X78064000Y-109180000I-3000000J0D01*
G01*
G04 #@! TO.C,R45*
X50894064Y-87778000D02*
X49689936Y-87778000D01*
X50894064Y-85958000D02*
X49689936Y-85958000D01*
G04 #@! TO.C,R44*
X112670000Y-80169936D02*
X112670000Y-81374064D01*
X110850000Y-80169936D02*
X110850000Y-81374064D01*
G04 #@! TO.C,R43*
X107590000Y-80169936D02*
X107590000Y-81374064D01*
X105770000Y-80169936D02*
X105770000Y-81374064D01*
G04 #@! TO.C,R42*
X105770000Y-55720064D02*
X105770000Y-54515936D01*
X107590000Y-55720064D02*
X107590000Y-54515936D01*
G04 #@! TO.C,R41*
X102510000Y-80169936D02*
X102510000Y-81374064D01*
X100690000Y-80169936D02*
X100690000Y-81374064D01*
G04 #@! TO.C,R40*
X105050000Y-80169936D02*
X105050000Y-81374064D01*
X103230000Y-80169936D02*
X103230000Y-81374064D01*
G04 #@! TO.C,R39*
X110130000Y-80169936D02*
X110130000Y-81374064D01*
X108310000Y-80169936D02*
X108310000Y-81374064D01*
G04 #@! TO.C,R28*
X72792000Y-33433936D02*
X72792000Y-34638064D01*
X70972000Y-33433936D02*
X70972000Y-34638064D01*
G04 #@! TO.C,R38*
X110850000Y-55720064D02*
X110850000Y-54515936D01*
X112670000Y-55720064D02*
X112670000Y-54515936D01*
G04 #@! TO.C,R37*
X108310000Y-55720064D02*
X108310000Y-54515936D01*
X110130000Y-55720064D02*
X110130000Y-54515936D01*
G04 #@! TO.C,R16*
X50894064Y-90064000D02*
X49689936Y-90064000D01*
X50894064Y-88244000D02*
X49689936Y-88244000D01*
G04 #@! TO.C,R47*
X94438000Y-21962000D02*
X97088000Y-21962000D01*
X94438000Y-17662000D02*
X97088000Y-17662000D01*
X97116027Y-21944144D02*
G75*
G03*
X97088000Y-17662000I-1378027J2132144D01*
G01*
X94412524Y-17677612D02*
G75*
G03*
X94438000Y-21962000I1325476J-2134388D01*
G01*
G04 #@! TO.C,R27*
X65426000Y-33433936D02*
X65426000Y-34638064D01*
X63606000Y-33433936D02*
X63606000Y-34638064D01*
G04 #@! TO.C,R36*
X99970000Y-80169936D02*
X99970000Y-81374064D01*
X98150000Y-80169936D02*
X98150000Y-81374064D01*
G04 #@! TO.C,R26*
X58060000Y-33433936D02*
X58060000Y-34638064D01*
X56240000Y-33433936D02*
X56240000Y-34638064D01*
G04 #@! TO.C,R35*
X93070000Y-55720064D02*
X93070000Y-54515936D01*
X94890000Y-55720064D02*
X94890000Y-54515936D01*
G04 #@! TO.C,R34*
X90530000Y-55720064D02*
X90530000Y-54515936D01*
X92350000Y-55720064D02*
X92350000Y-54515936D01*
G04 #@! TO.C,R25*
X50694000Y-33433936D02*
X50694000Y-34638064D01*
X48874000Y-33433936D02*
X48874000Y-34638064D01*
G04 #@! TO.C,R33*
X92350000Y-80169936D02*
X92350000Y-81374064D01*
X90530000Y-80169936D02*
X90530000Y-81374064D01*
G04 #@! TO.C,R32*
X94890000Y-80169936D02*
X94890000Y-81374064D01*
X93070000Y-80169936D02*
X93070000Y-81374064D01*
G04 #@! TO.C,R24*
X43328000Y-33433936D02*
X43328000Y-34638064D01*
X41508000Y-33433936D02*
X41508000Y-34638064D01*
G04 #@! TO.C,R31*
X97430000Y-80169936D02*
X97430000Y-81374064D01*
X95610000Y-80169936D02*
X95610000Y-81374064D01*
G04 #@! TO.C,R30*
X98150000Y-55720064D02*
X98150000Y-54515936D01*
X99970000Y-55720064D02*
X99970000Y-54515936D01*
G04 #@! TO.C,R23*
X35962000Y-33433936D02*
X35962000Y-34638064D01*
X34142000Y-33433936D02*
X34142000Y-34638064D01*
G04 #@! TO.C,R29*
X95610000Y-55720064D02*
X95610000Y-54515936D01*
X97430000Y-55720064D02*
X97430000Y-54515936D01*
G04 #@! TO.C,R22*
X28596000Y-33433936D02*
X28596000Y-34638064D01*
X26776000Y-33433936D02*
X26776000Y-34638064D01*
G04 #@! TO.C,R21*
X21230000Y-33433936D02*
X21230000Y-34638064D01*
X19410000Y-33433936D02*
X19410000Y-34638064D01*
G04 #@! TO.C,R9*
X101748000Y-104807936D02*
X101748000Y-106012064D01*
X99928000Y-104807936D02*
X99928000Y-106012064D01*
G04 #@! TO.C,R5*
X101748000Y-88421936D02*
X101748000Y-89626064D01*
X99928000Y-88421936D02*
X99928000Y-89626064D01*
G04 #@! TO.C,R8*
X105304000Y-104807936D02*
X105304000Y-106012064D01*
X103484000Y-104807936D02*
X103484000Y-106012064D01*
G04 #@! TO.C,R4*
X105304000Y-88551936D02*
X105304000Y-89756064D01*
X103484000Y-88551936D02*
X103484000Y-89756064D01*
G04 #@! TO.C,R14*
X65130000Y-99154064D02*
X65130000Y-97949936D01*
X66950000Y-99154064D02*
X66950000Y-97949936D01*
G04 #@! TO.C,R15*
X69744000Y-97949936D02*
X69744000Y-99154064D01*
X67924000Y-97949936D02*
X67924000Y-99154064D01*
G04 #@! TO.C,R13*
X80158000Y-97949936D02*
X80158000Y-99154064D01*
X78338000Y-97949936D02*
X78338000Y-99154064D01*
G04 #@! TO.C,R10*
X90064000Y-112303936D02*
X90064000Y-113508064D01*
X88244000Y-112303936D02*
X88244000Y-113508064D01*
G04 #@! TO.C,R1*
X20214000Y-77629936D02*
X20214000Y-78834064D01*
X18394000Y-77629936D02*
X18394000Y-78834064D01*
G04 #@! TO.C,R7*
X111908000Y-96679936D02*
X111908000Y-97884064D01*
X110088000Y-96679936D02*
X110088000Y-97884064D01*
G04 #@! TO.C,R3*
X91588000Y-96679936D02*
X91588000Y-97884064D01*
X89768000Y-96679936D02*
X89768000Y-97884064D01*
G04 #@! TO.C,R12*
X77364000Y-97949936D02*
X77364000Y-99154064D01*
X75544000Y-97949936D02*
X75544000Y-99154064D01*
G04 #@! TO.C,R11*
X91292000Y-113378064D02*
X91292000Y-112173936D01*
X93112000Y-113378064D02*
X93112000Y-112173936D01*
G04 #@! TO.C,R6*
X115464000Y-96679936D02*
X115464000Y-97884064D01*
X113644000Y-96679936D02*
X113644000Y-97884064D01*
G04 #@! TO.C,R2*
X95144000Y-96679936D02*
X95144000Y-97884064D01*
X93324000Y-96679936D02*
X93324000Y-97884064D01*
G04 #@! TO.C,J2*
X47304000Y-85284000D02*
X42104000Y-85284000D01*
X47304000Y-103124000D02*
X47304000Y-85284000D01*
X42104000Y-105724000D02*
X42104000Y-85284000D01*
X47304000Y-103124000D02*
X44704000Y-103124000D01*
X44704000Y-103124000D02*
X44704000Y-105724000D01*
X44704000Y-105724000D02*
X42104000Y-105724000D01*
X47304000Y-104394000D02*
X47304000Y-105724000D01*
X47304000Y-105724000D02*
X45974000Y-105724000D01*
G04 #@! TO.C,J1*
X16958000Y-115884000D02*
X22158000Y-115884000D01*
X16958000Y-87884000D02*
X16958000Y-115884000D01*
X22158000Y-85284000D02*
X22158000Y-115884000D01*
X16958000Y-87884000D02*
X19558000Y-87884000D01*
X19558000Y-87884000D02*
X19558000Y-85284000D01*
X19558000Y-85284000D02*
X22158000Y-85284000D01*
X16958000Y-86614000D02*
X16958000Y-85284000D01*
X16958000Y-85284000D02*
X18288000Y-85284000D01*
G04 #@! TO.C,J6*
X60138000Y-97790000D02*
X62798000Y-97790000D01*
X60138000Y-97790000D02*
X60138000Y-105470000D01*
X60138000Y-105470000D02*
X62798000Y-105470000D01*
X62798000Y-97790000D02*
X62798000Y-105470000D01*
X62798000Y-95190000D02*
X62798000Y-96520000D01*
X61468000Y-95190000D02*
X62798000Y-95190000D01*
G04 #@! TO.C,J5*
X56582000Y-97790000D02*
X59242000Y-97790000D01*
X56582000Y-97790000D02*
X56582000Y-105470000D01*
X56582000Y-105470000D02*
X59242000Y-105470000D01*
X59242000Y-97790000D02*
X59242000Y-105470000D01*
X59242000Y-95190000D02*
X59242000Y-96520000D01*
X57912000Y-95190000D02*
X59242000Y-95190000D01*
G04 #@! TO.C,J4*
X53026000Y-97790000D02*
X55686000Y-97790000D01*
X53026000Y-97790000D02*
X53026000Y-105470000D01*
X53026000Y-105470000D02*
X55686000Y-105470000D01*
X55686000Y-97790000D02*
X55686000Y-105470000D01*
X55686000Y-95190000D02*
X55686000Y-96520000D01*
X54356000Y-95190000D02*
X55686000Y-95190000D01*
G04 #@! TO.C,J3*
X49470000Y-97790000D02*
X52130000Y-97790000D01*
X49470000Y-97790000D02*
X49470000Y-105470000D01*
X49470000Y-105470000D02*
X52130000Y-105470000D01*
X52130000Y-97790000D02*
X52130000Y-105470000D01*
X52130000Y-95190000D02*
X52130000Y-96520000D01*
X50800000Y-95190000D02*
X52130000Y-95190000D01*
G04 #@! TO.C,DS1*
X88730000Y-77718000D02*
X88730000Y-75438000D01*
X88730000Y-77718000D02*
X91440000Y-77718000D01*
X88980000Y-77463000D02*
X88980000Y-58173000D01*
X88980000Y-58173000D02*
X114230000Y-58173000D01*
X114230000Y-58173000D02*
X114230000Y-77463000D01*
X114230000Y-77463000D02*
X88980000Y-77463000D01*
G04 #@! TO.C,D17*
X109708000Y-19029000D02*
X109708000Y-22119000D01*
X114768000Y-20574000D02*
G75*
G03*
X114768000Y-20574000I-2500000J0D01*
G01*
X115258000Y-20574462D02*
G75*
G03*
X109708000Y-19029170I-2990000J462D01*
G01*
X115258000Y-20573538D02*
G75*
G02*
X109708000Y-22118830I-2990000J-462D01*
G01*
G04 #@! TO.C,D16*
X74382000Y-27686000D02*
G75*
G03*
X74382000Y-27686000I-2500000J0D01*
G01*
X73427000Y-25126000D02*
X70337000Y-25126000D01*
X71882462Y-30676000D02*
G75*
G02*
X70337170Y-25126000I-462J2990000D01*
G01*
X71881538Y-30676000D02*
G75*
G03*
X73426830Y-25126000I462J2990000D01*
G01*
G04 #@! TO.C,D15*
X67016000Y-27686000D02*
G75*
G03*
X67016000Y-27686000I-2500000J0D01*
G01*
X66061000Y-25126000D02*
X62971000Y-25126000D01*
X64516462Y-30676000D02*
G75*
G02*
X62971170Y-25126000I-462J2990000D01*
G01*
X64515538Y-30676000D02*
G75*
G03*
X66060830Y-25126000I462J2990000D01*
G01*
G04 #@! TO.C,D14*
X59650000Y-27686000D02*
G75*
G03*
X59650000Y-27686000I-2500000J0D01*
G01*
X58695000Y-25126000D02*
X55605000Y-25126000D01*
X57150462Y-30676000D02*
G75*
G02*
X55605170Y-25126000I-462J2990000D01*
G01*
X57149538Y-30676000D02*
G75*
G03*
X58694830Y-25126000I462J2990000D01*
G01*
G04 #@! TO.C,D13*
X52284000Y-27686000D02*
G75*
G03*
X52284000Y-27686000I-2500000J0D01*
G01*
X51329000Y-25126000D02*
X48239000Y-25126000D01*
X49784462Y-30676000D02*
G75*
G02*
X48239170Y-25126000I-462J2990000D01*
G01*
X49783538Y-30676000D02*
G75*
G03*
X51328830Y-25126000I462J2990000D01*
G01*
G04 #@! TO.C,D12*
X44918000Y-27686000D02*
G75*
G03*
X44918000Y-27686000I-2500000J0D01*
G01*
X43963000Y-25126000D02*
X40873000Y-25126000D01*
X42418462Y-30676000D02*
G75*
G02*
X40873170Y-25126000I-462J2990000D01*
G01*
X42417538Y-30676000D02*
G75*
G03*
X43962830Y-25126000I462J2990000D01*
G01*
G04 #@! TO.C,D11*
X37552000Y-27686000D02*
G75*
G03*
X37552000Y-27686000I-2500000J0D01*
G01*
X36597000Y-25126000D02*
X33507000Y-25126000D01*
X35052462Y-30676000D02*
G75*
G02*
X33507170Y-25126000I-462J2990000D01*
G01*
X35051538Y-30676000D02*
G75*
G03*
X36596830Y-25126000I462J2990000D01*
G01*
G04 #@! TO.C,D10*
X30186000Y-27686000D02*
G75*
G03*
X30186000Y-27686000I-2500000J0D01*
G01*
X29231000Y-25126000D02*
X26141000Y-25126000D01*
X27686462Y-30676000D02*
G75*
G02*
X26141170Y-25126000I-462J2990000D01*
G01*
X27685538Y-30676000D02*
G75*
G03*
X29230830Y-25126000I462J2990000D01*
G01*
G04 #@! TO.C,D9*
X22820000Y-27686000D02*
G75*
G03*
X22820000Y-27686000I-2500000J0D01*
G01*
X21865000Y-25126000D02*
X18775000Y-25126000D01*
X20320462Y-30676000D02*
G75*
G02*
X18775170Y-25126000I-462J2990000D01*
G01*
X20319538Y-30676000D02*
G75*
G03*
X21864830Y-25126000I462J2990000D01*
G01*
G04 #@! TO.C,C5*
X98192000Y-104807936D02*
X98192000Y-106012064D01*
X96372000Y-104807936D02*
X96372000Y-106012064D01*
G04 #@! TO.C,C3*
X98192000Y-88551936D02*
X98192000Y-89756064D01*
X96372000Y-88551936D02*
X96372000Y-89756064D01*
G04 #@! TO.C,C1*
X82190000Y-26321936D02*
X82190000Y-27526064D01*
X80370000Y-26321936D02*
X80370000Y-27526064D01*
G04 #@! TO.C,C8*
X72538000Y-97949936D02*
X72538000Y-99154064D01*
X70718000Y-97949936D02*
X70718000Y-99154064D01*
G04 #@! TO.C,C4*
X108352000Y-96679936D02*
X108352000Y-97884064D01*
X106532000Y-96679936D02*
X106532000Y-97884064D01*
G04 #@! TO.C,C2*
X88032000Y-96803936D02*
X88032000Y-98008064D01*
X86212000Y-96803936D02*
X86212000Y-98008064D01*
G04 #@! TO.C,C7*
X81132000Y-99154064D02*
X81132000Y-97949936D01*
X82952000Y-99154064D02*
X82952000Y-97949936D01*
G04 #@! TO.C,C6*
X87016000Y-112173936D02*
X87016000Y-113378064D01*
X85196000Y-112173936D02*
X85196000Y-113378064D01*
G04 #@! TO.C,A1*
X25654000Y-77724000D02*
X25654000Y-75184000D01*
X25654000Y-75184000D02*
X22984000Y-75184000D01*
X22984000Y-77724000D02*
X22984000Y-115954000D01*
X22984000Y-72514000D02*
X22984000Y-75184000D01*
X38354000Y-75184000D02*
X41024000Y-75184000D01*
X38354000Y-75184000D02*
X38354000Y-113284000D01*
X38354000Y-113284000D02*
X41024000Y-113284000D01*
X25654000Y-77724000D02*
X22984000Y-77724000D01*
X25654000Y-77724000D02*
X25654000Y-113284000D01*
X25654000Y-113284000D02*
X22984000Y-113284000D01*
X22984000Y-115954000D02*
X41024000Y-115954000D01*
X41024000Y-115954000D02*
X41024000Y-72514000D01*
X41024000Y-72514000D02*
X22984000Y-72514000D01*
G04 #@! TO.C,J9*
D11*
X41576666Y-55288380D02*
X41576666Y-56002666D01*
X41529047Y-56145523D01*
X41433809Y-56240761D01*
X41290952Y-56288380D01*
X41195714Y-56288380D01*
X42100476Y-56288380D02*
X42290952Y-56288380D01*
X42386190Y-56240761D01*
X42433809Y-56193142D01*
X42529047Y-56050285D01*
X42576666Y-55859809D01*
X42576666Y-55478857D01*
X42529047Y-55383619D01*
X42481428Y-55336000D01*
X42386190Y-55288380D01*
X42195714Y-55288380D01*
X42100476Y-55336000D01*
X42052857Y-55383619D01*
X42005238Y-55478857D01*
X42005238Y-55716952D01*
X42052857Y-55812190D01*
X42100476Y-55859809D01*
X42195714Y-55907428D01*
X42386190Y-55907428D01*
X42481428Y-55859809D01*
X42529047Y-55812190D01*
X42576666Y-55716952D01*
G04 #@! TO.C,J8 - OLED*
X98004761Y-29424380D02*
X98004761Y-30138666D01*
X97957142Y-30281523D01*
X97861904Y-30376761D01*
X97719047Y-30424380D01*
X97623809Y-30424380D01*
X98623809Y-29852952D02*
X98528571Y-29805333D01*
X98480952Y-29757714D01*
X98433333Y-29662476D01*
X98433333Y-29614857D01*
X98480952Y-29519619D01*
X98528571Y-29472000D01*
X98623809Y-29424380D01*
X98814285Y-29424380D01*
X98909523Y-29472000D01*
X98957142Y-29519619D01*
X99004761Y-29614857D01*
X99004761Y-29662476D01*
X98957142Y-29757714D01*
X98909523Y-29805333D01*
X98814285Y-29852952D01*
X98623809Y-29852952D01*
X98528571Y-29900571D01*
X98480952Y-29948190D01*
X98433333Y-30043428D01*
X98433333Y-30233904D01*
X98480952Y-30329142D01*
X98528571Y-30376761D01*
X98623809Y-30424380D01*
X98814285Y-30424380D01*
X98909523Y-30376761D01*
X98957142Y-30329142D01*
X99004761Y-30233904D01*
X99004761Y-30043428D01*
X98957142Y-29948190D01*
X98909523Y-29900571D01*
X98814285Y-29852952D01*
X100195238Y-30043428D02*
X100957142Y-30043428D01*
X102385714Y-29424380D02*
X102576190Y-29424380D01*
X102671428Y-29472000D01*
X102766666Y-29567238D01*
X102814285Y-29757714D01*
X102814285Y-30091047D01*
X102766666Y-30281523D01*
X102671428Y-30376761D01*
X102576190Y-30424380D01*
X102385714Y-30424380D01*
X102290476Y-30376761D01*
X102195238Y-30281523D01*
X102147619Y-30091047D01*
X102147619Y-29757714D01*
X102195238Y-29567238D01*
X102290476Y-29472000D01*
X102385714Y-29424380D01*
X103719047Y-30424380D02*
X103242857Y-30424380D01*
X103242857Y-29424380D01*
X104052380Y-29900571D02*
X104385714Y-29900571D01*
X104528571Y-30424380D02*
X104052380Y-30424380D01*
X104052380Y-29424380D01*
X104528571Y-29424380D01*
X104957142Y-30424380D02*
X104957142Y-29424380D01*
X105195238Y-29424380D01*
X105338095Y-29472000D01*
X105433333Y-29567238D01*
X105480952Y-29662476D01*
X105528571Y-29852952D01*
X105528571Y-29995809D01*
X105480952Y-30186285D01*
X105433333Y-30281523D01*
X105338095Y-30376761D01*
X105195238Y-30424380D01*
X104957142Y-30424380D01*
G04 #@! TO.C,R46*
X100957142Y-24582380D02*
X100623809Y-24106190D01*
X100385714Y-24582380D02*
X100385714Y-23582380D01*
X100766666Y-23582380D01*
X100861904Y-23630000D01*
X100909523Y-23677619D01*
X100957142Y-23772857D01*
X100957142Y-23915714D01*
X100909523Y-24010952D01*
X100861904Y-24058571D01*
X100766666Y-24106190D01*
X100385714Y-24106190D01*
X101814285Y-23915714D02*
X101814285Y-24582380D01*
X101576190Y-23534761D02*
X101338095Y-24249047D01*
X101957142Y-24249047D01*
X102766666Y-23582380D02*
X102576190Y-23582380D01*
X102480952Y-23630000D01*
X102433333Y-23677619D01*
X102338095Y-23820476D01*
X102290476Y-24010952D01*
X102290476Y-24391904D01*
X102338095Y-24487142D01*
X102385714Y-24534761D01*
X102480952Y-24582380D01*
X102671428Y-24582380D01*
X102766666Y-24534761D01*
X102814285Y-24487142D01*
X102861904Y-24391904D01*
X102861904Y-24153809D01*
X102814285Y-24058571D01*
X102766666Y-24010952D01*
X102671428Y-23963333D01*
X102480952Y-23963333D01*
X102385714Y-24010952D01*
X102338095Y-24058571D01*
X102290476Y-24153809D01*
G04 #@! TO.C,Accl. Orientation*
X59690761Y-47918666D02*
X60166952Y-47918666D01*
X59595523Y-48204380D02*
X59928857Y-47204380D01*
X60262190Y-48204380D01*
X61024095Y-48156761D02*
X60928857Y-48204380D01*
X60738380Y-48204380D01*
X60643142Y-48156761D01*
X60595523Y-48109142D01*
X60547904Y-48013904D01*
X60547904Y-47728190D01*
X60595523Y-47632952D01*
X60643142Y-47585333D01*
X60738380Y-47537714D01*
X60928857Y-47537714D01*
X61024095Y-47585333D01*
X61881238Y-48156761D02*
X61786000Y-48204380D01*
X61595523Y-48204380D01*
X61500285Y-48156761D01*
X61452666Y-48109142D01*
X61405047Y-48013904D01*
X61405047Y-47728190D01*
X61452666Y-47632952D01*
X61500285Y-47585333D01*
X61595523Y-47537714D01*
X61786000Y-47537714D01*
X61881238Y-47585333D01*
X62452666Y-48204380D02*
X62357428Y-48156761D01*
X62309809Y-48061523D01*
X62309809Y-47204380D01*
X62833619Y-48109142D02*
X62881238Y-48156761D01*
X62833619Y-48204380D01*
X62786000Y-48156761D01*
X62833619Y-48109142D01*
X62833619Y-48204380D01*
X64262190Y-47204380D02*
X64452666Y-47204380D01*
X64547904Y-47252000D01*
X64643142Y-47347238D01*
X64690761Y-47537714D01*
X64690761Y-47871047D01*
X64643142Y-48061523D01*
X64547904Y-48156761D01*
X64452666Y-48204380D01*
X64262190Y-48204380D01*
X64166952Y-48156761D01*
X64071714Y-48061523D01*
X64024095Y-47871047D01*
X64024095Y-47537714D01*
X64071714Y-47347238D01*
X64166952Y-47252000D01*
X64262190Y-47204380D01*
X65119333Y-48204380D02*
X65119333Y-47537714D01*
X65119333Y-47728190D02*
X65166952Y-47632952D01*
X65214571Y-47585333D01*
X65309809Y-47537714D01*
X65405047Y-47537714D01*
X65738380Y-48204380D02*
X65738380Y-47537714D01*
X65738380Y-47204380D02*
X65690761Y-47252000D01*
X65738380Y-47299619D01*
X65786000Y-47252000D01*
X65738380Y-47204380D01*
X65738380Y-47299619D01*
X66595523Y-48156761D02*
X66500285Y-48204380D01*
X66309809Y-48204380D01*
X66214571Y-48156761D01*
X66166952Y-48061523D01*
X66166952Y-47680571D01*
X66214571Y-47585333D01*
X66309809Y-47537714D01*
X66500285Y-47537714D01*
X66595523Y-47585333D01*
X66643142Y-47680571D01*
X66643142Y-47775809D01*
X66166952Y-47871047D01*
X67071714Y-47537714D02*
X67071714Y-48204380D01*
X67071714Y-47632952D02*
X67119333Y-47585333D01*
X67214571Y-47537714D01*
X67357428Y-47537714D01*
X67452666Y-47585333D01*
X67500285Y-47680571D01*
X67500285Y-48204380D01*
X67833619Y-47537714D02*
X68214571Y-47537714D01*
X67976476Y-47204380D02*
X67976476Y-48061523D01*
X68024095Y-48156761D01*
X68119333Y-48204380D01*
X68214571Y-48204380D01*
X68976476Y-48204380D02*
X68976476Y-47680571D01*
X68928857Y-47585333D01*
X68833619Y-47537714D01*
X68643142Y-47537714D01*
X68547904Y-47585333D01*
X68976476Y-48156761D02*
X68881238Y-48204380D01*
X68643142Y-48204380D01*
X68547904Y-48156761D01*
X68500285Y-48061523D01*
X68500285Y-47966285D01*
X68547904Y-47871047D01*
X68643142Y-47823428D01*
X68881238Y-47823428D01*
X68976476Y-47775809D01*
X69309809Y-47537714D02*
X69690761Y-47537714D01*
X69452666Y-47204380D02*
X69452666Y-48061523D01*
X69500285Y-48156761D01*
X69595523Y-48204380D01*
X69690761Y-48204380D01*
X70024095Y-48204380D02*
X70024095Y-47537714D01*
X70024095Y-47204380D02*
X69976476Y-47252000D01*
X70024095Y-47299619D01*
X70071714Y-47252000D01*
X70024095Y-47204380D01*
X70024095Y-47299619D01*
X70643142Y-48204380D02*
X70547904Y-48156761D01*
X70500285Y-48109142D01*
X70452666Y-48013904D01*
X70452666Y-47728190D01*
X70500285Y-47632952D01*
X70547904Y-47585333D01*
X70643142Y-47537714D01*
X70786000Y-47537714D01*
X70881238Y-47585333D01*
X70928857Y-47632952D01*
X70976476Y-47728190D01*
X70976476Y-48013904D01*
X70928857Y-48109142D01*
X70881238Y-48156761D01*
X70786000Y-48204380D01*
X70643142Y-48204380D01*
X71405047Y-47537714D02*
X71405047Y-48204380D01*
X71405047Y-47632952D02*
X71452666Y-47585333D01*
X71547904Y-47537714D01*
X71690761Y-47537714D01*
X71786000Y-47585333D01*
X71833619Y-47680571D01*
X71833619Y-48204380D01*
X63293666Y-45045380D02*
X63960333Y-45045380D01*
X63293666Y-46045380D01*
X63960333Y-46045380D01*
X63627000Y-43664190D02*
X63627000Y-44140380D01*
X63293666Y-43140380D02*
X63627000Y-43664190D01*
X63960333Y-43140380D01*
X63293666Y-41235380D02*
X63960333Y-42235380D01*
X63960333Y-41235380D02*
X63293666Y-42235380D01*
G04 #@! TO.C,Mech. Support*
X96203142Y-45410380D02*
X96203142Y-44410380D01*
X96536476Y-45124666D01*
X96869809Y-44410380D01*
X96869809Y-45410380D01*
X97726952Y-45362761D02*
X97631714Y-45410380D01*
X97441238Y-45410380D01*
X97346000Y-45362761D01*
X97298380Y-45267523D01*
X97298380Y-44886571D01*
X97346000Y-44791333D01*
X97441238Y-44743714D01*
X97631714Y-44743714D01*
X97726952Y-44791333D01*
X97774571Y-44886571D01*
X97774571Y-44981809D01*
X97298380Y-45077047D01*
X98631714Y-45362761D02*
X98536476Y-45410380D01*
X98346000Y-45410380D01*
X98250761Y-45362761D01*
X98203142Y-45315142D01*
X98155523Y-45219904D01*
X98155523Y-44934190D01*
X98203142Y-44838952D01*
X98250761Y-44791333D01*
X98346000Y-44743714D01*
X98536476Y-44743714D01*
X98631714Y-44791333D01*
X99060285Y-45410380D02*
X99060285Y-44410380D01*
X99488857Y-45410380D02*
X99488857Y-44886571D01*
X99441238Y-44791333D01*
X99346000Y-44743714D01*
X99203142Y-44743714D01*
X99107904Y-44791333D01*
X99060285Y-44838952D01*
X99965047Y-45315142D02*
X100012666Y-45362761D01*
X99965047Y-45410380D01*
X99917428Y-45362761D01*
X99965047Y-45315142D01*
X99965047Y-45410380D01*
X101155523Y-45362761D02*
X101298380Y-45410380D01*
X101536476Y-45410380D01*
X101631714Y-45362761D01*
X101679333Y-45315142D01*
X101726952Y-45219904D01*
X101726952Y-45124666D01*
X101679333Y-45029428D01*
X101631714Y-44981809D01*
X101536476Y-44934190D01*
X101345999Y-44886571D01*
X101250761Y-44838952D01*
X101203142Y-44791333D01*
X101155523Y-44696095D01*
X101155523Y-44600857D01*
X101203142Y-44505619D01*
X101250761Y-44458000D01*
X101345999Y-44410380D01*
X101584095Y-44410380D01*
X101726952Y-44458000D01*
X102584095Y-44743714D02*
X102584095Y-45410380D01*
X102155523Y-44743714D02*
X102155523Y-45267523D01*
X102203142Y-45362761D01*
X102298380Y-45410380D01*
X102441238Y-45410380D01*
X102536476Y-45362761D01*
X102584095Y-45315142D01*
X103060285Y-44743714D02*
X103060285Y-45743714D01*
X103060285Y-44791333D02*
X103155523Y-44743714D01*
X103345999Y-44743714D01*
X103441238Y-44791333D01*
X103488857Y-44838952D01*
X103536476Y-44934190D01*
X103536476Y-45219904D01*
X103488857Y-45315142D01*
X103441238Y-45362761D01*
X103345999Y-45410380D01*
X103155523Y-45410380D01*
X103060285Y-45362761D01*
X103965047Y-44743714D02*
X103965047Y-45743714D01*
X103965047Y-44791333D02*
X104060285Y-44743714D01*
X104250761Y-44743714D01*
X104346000Y-44791333D01*
X104393619Y-44838952D01*
X104441238Y-44934190D01*
X104441238Y-45219904D01*
X104393619Y-45315142D01*
X104346000Y-45362761D01*
X104250761Y-45410380D01*
X104060285Y-45410380D01*
X103965047Y-45362761D01*
X105012666Y-45410380D02*
X104917428Y-45362761D01*
X104869809Y-45315142D01*
X104822190Y-45219904D01*
X104822190Y-44934190D01*
X104869809Y-44838952D01*
X104917428Y-44791333D01*
X105012666Y-44743714D01*
X105155523Y-44743714D01*
X105250761Y-44791333D01*
X105298380Y-44838952D01*
X105346000Y-44934190D01*
X105346000Y-45219904D01*
X105298380Y-45315142D01*
X105250761Y-45362761D01*
X105155523Y-45410380D01*
X105012666Y-45410380D01*
X105774571Y-45410380D02*
X105774571Y-44743714D01*
X105774571Y-44934190D02*
X105822190Y-44838952D01*
X105869809Y-44791333D01*
X105965047Y-44743714D01*
X106060285Y-44743714D01*
X106250761Y-44743714D02*
X106631714Y-44743714D01*
X106393619Y-44410380D02*
X106393619Y-45267523D01*
X106441238Y-45362761D01*
X106536476Y-45410380D01*
X106631714Y-45410380D01*
G04 #@! TO.C,U1*
X75946095Y-46696380D02*
X75946095Y-47505904D01*
X75993714Y-47601142D01*
X76041333Y-47648761D01*
X76136571Y-47696380D01*
X76327047Y-47696380D01*
X76422285Y-47648761D01*
X76469904Y-47601142D01*
X76517523Y-47505904D01*
X76517523Y-46696380D01*
X77517523Y-47696380D02*
X76946095Y-47696380D01*
X77231809Y-47696380D02*
X77231809Y-46696380D01*
X77136571Y-46839238D01*
X77041333Y-46934476D01*
X76946095Y-46982095D01*
G04 #@! TO.C,R20*
X56253142Y-78684380D02*
X55919809Y-78208190D01*
X55681714Y-78684380D02*
X55681714Y-77684380D01*
X56062666Y-77684380D01*
X56157904Y-77732000D01*
X56205523Y-77779619D01*
X56253142Y-77874857D01*
X56253142Y-78017714D01*
X56205523Y-78112952D01*
X56157904Y-78160571D01*
X56062666Y-78208190D01*
X55681714Y-78208190D01*
X56634095Y-77779619D02*
X56681714Y-77732000D01*
X56776952Y-77684380D01*
X57015047Y-77684380D01*
X57110285Y-77732000D01*
X57157904Y-77779619D01*
X57205523Y-77874857D01*
X57205523Y-77970095D01*
X57157904Y-78112952D01*
X56586476Y-78684380D01*
X57205523Y-78684380D01*
X57824571Y-77684380D02*
X57919809Y-77684380D01*
X58015047Y-77732000D01*
X58062666Y-77779619D01*
X58110285Y-77874857D01*
X58157904Y-78065333D01*
X58157904Y-78303428D01*
X58110285Y-78493904D01*
X58062666Y-78589142D01*
X58015047Y-78636761D01*
X57919809Y-78684380D01*
X57824571Y-78684380D01*
X57729333Y-78636761D01*
X57681714Y-78589142D01*
X57634095Y-78493904D01*
X57586476Y-78303428D01*
X57586476Y-78065333D01*
X57634095Y-77874857D01*
X57681714Y-77779619D01*
X57729333Y-77732000D01*
X57824571Y-77684380D01*
G04 #@! TO.C,R19*
X49141142Y-84018380D02*
X48807809Y-83542190D01*
X48569714Y-84018380D02*
X48569714Y-83018380D01*
X48950666Y-83018380D01*
X49045904Y-83066000D01*
X49093523Y-83113619D01*
X49141142Y-83208857D01*
X49141142Y-83351714D01*
X49093523Y-83446952D01*
X49045904Y-83494571D01*
X48950666Y-83542190D01*
X48569714Y-83542190D01*
X50093523Y-84018380D02*
X49522095Y-84018380D01*
X49807809Y-84018380D02*
X49807809Y-83018380D01*
X49712571Y-83161238D01*
X49617333Y-83256476D01*
X49522095Y-83304095D01*
X50569714Y-84018380D02*
X50760190Y-84018380D01*
X50855428Y-83970761D01*
X50903047Y-83923142D01*
X50998285Y-83780285D01*
X51045904Y-83589809D01*
X51045904Y-83208857D01*
X50998285Y-83113619D01*
X50950666Y-83066000D01*
X50855428Y-83018380D01*
X50664952Y-83018380D01*
X50569714Y-83066000D01*
X50522095Y-83113619D01*
X50474476Y-83208857D01*
X50474476Y-83446952D01*
X50522095Y-83542190D01*
X50569714Y-83589809D01*
X50664952Y-83637428D01*
X50855428Y-83637428D01*
X50950666Y-83589809D01*
X50998285Y-83542190D01*
X51045904Y-83446952D01*
G04 #@! TO.C,R18*
X46855142Y-71064380D02*
X46521809Y-70588190D01*
X46283714Y-71064380D02*
X46283714Y-70064380D01*
X46664666Y-70064380D01*
X46759904Y-70112000D01*
X46807523Y-70159619D01*
X46855142Y-70254857D01*
X46855142Y-70397714D01*
X46807523Y-70492952D01*
X46759904Y-70540571D01*
X46664666Y-70588190D01*
X46283714Y-70588190D01*
X47807523Y-71064380D02*
X47236095Y-71064380D01*
X47521809Y-71064380D02*
X47521809Y-70064380D01*
X47426571Y-70207238D01*
X47331333Y-70302476D01*
X47236095Y-70350095D01*
X48378952Y-70492952D02*
X48283714Y-70445333D01*
X48236095Y-70397714D01*
X48188476Y-70302476D01*
X48188476Y-70254857D01*
X48236095Y-70159619D01*
X48283714Y-70112000D01*
X48378952Y-70064380D01*
X48569428Y-70064380D01*
X48664666Y-70112000D01*
X48712285Y-70159619D01*
X48759904Y-70254857D01*
X48759904Y-70302476D01*
X48712285Y-70397714D01*
X48664666Y-70445333D01*
X48569428Y-70492952D01*
X48378952Y-70492952D01*
X48283714Y-70540571D01*
X48236095Y-70588190D01*
X48188476Y-70683428D01*
X48188476Y-70873904D01*
X48236095Y-70969142D01*
X48283714Y-71016761D01*
X48378952Y-71064380D01*
X48569428Y-71064380D01*
X48664666Y-71016761D01*
X48712285Y-70969142D01*
X48759904Y-70873904D01*
X48759904Y-70683428D01*
X48712285Y-70588190D01*
X48664666Y-70540571D01*
X48569428Y-70492952D01*
G04 #@! TO.C,R17*
X54221142Y-72080380D02*
X53887809Y-71604190D01*
X53649714Y-72080380D02*
X53649714Y-71080380D01*
X54030666Y-71080380D01*
X54125904Y-71128000D01*
X54173523Y-71175619D01*
X54221142Y-71270857D01*
X54221142Y-71413714D01*
X54173523Y-71508952D01*
X54125904Y-71556571D01*
X54030666Y-71604190D01*
X53649714Y-71604190D01*
X55173523Y-72080380D02*
X54602095Y-72080380D01*
X54887809Y-72080380D02*
X54887809Y-71080380D01*
X54792571Y-71223238D01*
X54697333Y-71318476D01*
X54602095Y-71366095D01*
X55506857Y-71080380D02*
X56173523Y-71080380D01*
X55744952Y-72080380D01*
G04 #@! TO.C,Q2*
X52990761Y-83097619D02*
X52895523Y-83050000D01*
X52800285Y-82954761D01*
X52657428Y-82811904D01*
X52562190Y-82764285D01*
X52466952Y-82764285D01*
X52514571Y-83002380D02*
X52419333Y-82954761D01*
X52324095Y-82859523D01*
X52276476Y-82669047D01*
X52276476Y-82335714D01*
X52324095Y-82145238D01*
X52419333Y-82050000D01*
X52514571Y-82002380D01*
X52705047Y-82002380D01*
X52800285Y-82050000D01*
X52895523Y-82145238D01*
X52943142Y-82335714D01*
X52943142Y-82669047D01*
X52895523Y-82859523D01*
X52800285Y-82954761D01*
X52705047Y-83002380D01*
X52514571Y-83002380D01*
X53324095Y-82097619D02*
X53371714Y-82050000D01*
X53466952Y-82002380D01*
X53705047Y-82002380D01*
X53800285Y-82050000D01*
X53847904Y-82097619D01*
X53895523Y-82192857D01*
X53895523Y-82288095D01*
X53847904Y-82430952D01*
X53276476Y-83002380D01*
X53895523Y-83002380D01*
G04 #@! TO.C,Q1*
X51212761Y-72937619D02*
X51117523Y-72890000D01*
X51022285Y-72794761D01*
X50879428Y-72651904D01*
X50784190Y-72604285D01*
X50688952Y-72604285D01*
X50736571Y-72842380D02*
X50641333Y-72794761D01*
X50546095Y-72699523D01*
X50498476Y-72509047D01*
X50498476Y-72175714D01*
X50546095Y-71985238D01*
X50641333Y-71890000D01*
X50736571Y-71842380D01*
X50927047Y-71842380D01*
X51022285Y-71890000D01*
X51117523Y-71985238D01*
X51165142Y-72175714D01*
X51165142Y-72509047D01*
X51117523Y-72699523D01*
X51022285Y-72794761D01*
X50927047Y-72842380D01*
X50736571Y-72842380D01*
X52117523Y-72842380D02*
X51546095Y-72842380D01*
X51831809Y-72842380D02*
X51831809Y-71842380D01*
X51736571Y-71985238D01*
X51641333Y-72080476D01*
X51546095Y-72128095D01*
G04 #@! TO.C,C10*
X81907142Y-41209142D02*
X81859523Y-41256761D01*
X81716666Y-41304380D01*
X81621428Y-41304380D01*
X81478571Y-41256761D01*
X81383333Y-41161523D01*
X81335714Y-41066285D01*
X81288095Y-40875809D01*
X81288095Y-40732952D01*
X81335714Y-40542476D01*
X81383333Y-40447238D01*
X81478571Y-40352000D01*
X81621428Y-40304380D01*
X81716666Y-40304380D01*
X81859523Y-40352000D01*
X81907142Y-40399619D01*
X82859523Y-41304380D02*
X82288095Y-41304380D01*
X82573809Y-41304380D02*
X82573809Y-40304380D01*
X82478571Y-40447238D01*
X82383333Y-40542476D01*
X82288095Y-40590095D01*
X83478571Y-40304380D02*
X83573809Y-40304380D01*
X83669047Y-40352000D01*
X83716666Y-40399619D01*
X83764285Y-40494857D01*
X83811904Y-40685333D01*
X83811904Y-40923428D01*
X83764285Y-41113904D01*
X83716666Y-41209142D01*
X83669047Y-41256761D01*
X83573809Y-41304380D01*
X83478571Y-41304380D01*
X83383333Y-41256761D01*
X83335714Y-41209142D01*
X83288095Y-41113904D01*
X83240476Y-40923428D01*
X83240476Y-40685333D01*
X83288095Y-40494857D01*
X83335714Y-40399619D01*
X83383333Y-40352000D01*
X83478571Y-40304380D01*
G04 #@! TO.C,C11*
X70223142Y-41463142D02*
X70175523Y-41510761D01*
X70032666Y-41558380D01*
X69937428Y-41558380D01*
X69794571Y-41510761D01*
X69699333Y-41415523D01*
X69651714Y-41320285D01*
X69604095Y-41129809D01*
X69604095Y-40986952D01*
X69651714Y-40796476D01*
X69699333Y-40701238D01*
X69794571Y-40606000D01*
X69937428Y-40558380D01*
X70032666Y-40558380D01*
X70175523Y-40606000D01*
X70223142Y-40653619D01*
X71175523Y-41558380D02*
X70604095Y-41558380D01*
X70889809Y-41558380D02*
X70889809Y-40558380D01*
X70794571Y-40701238D01*
X70699333Y-40796476D01*
X70604095Y-40844095D01*
X72127904Y-41558380D02*
X71556476Y-41558380D01*
X71842190Y-41558380D02*
X71842190Y-40558380D01*
X71746952Y-40701238D01*
X71651714Y-40796476D01*
X71556476Y-40844095D01*
G04 #@! TO.C,C9*
X77811333Y-35409142D02*
X77763714Y-35456761D01*
X77620857Y-35504380D01*
X77525619Y-35504380D01*
X77382761Y-35456761D01*
X77287523Y-35361523D01*
X77239904Y-35266285D01*
X77192285Y-35075809D01*
X77192285Y-34932952D01*
X77239904Y-34742476D01*
X77287523Y-34647238D01*
X77382761Y-34552000D01*
X77525619Y-34504380D01*
X77620857Y-34504380D01*
X77763714Y-34552000D01*
X77811333Y-34599619D01*
X78287523Y-35504380D02*
X78478000Y-35504380D01*
X78573238Y-35456761D01*
X78620857Y-35409142D01*
X78716095Y-35266285D01*
X78763714Y-35075809D01*
X78763714Y-34694857D01*
X78716095Y-34599619D01*
X78668476Y-34552000D01*
X78573238Y-34504380D01*
X78382761Y-34504380D01*
X78287523Y-34552000D01*
X78239904Y-34599619D01*
X78192285Y-34694857D01*
X78192285Y-34932952D01*
X78239904Y-35028190D01*
X78287523Y-35075809D01*
X78382761Y-35123428D01*
X78573238Y-35123428D01*
X78668476Y-35075809D01*
X78716095Y-35028190D01*
X78763714Y-34932952D01*
G04 #@! TO.C,C12*
X81907142Y-47135142D02*
X81859523Y-47182761D01*
X81716666Y-47230380D01*
X81621428Y-47230380D01*
X81478571Y-47182761D01*
X81383333Y-47087523D01*
X81335714Y-46992285D01*
X81288095Y-46801809D01*
X81288095Y-46658952D01*
X81335714Y-46468476D01*
X81383333Y-46373238D01*
X81478571Y-46278000D01*
X81621428Y-46230380D01*
X81716666Y-46230380D01*
X81859523Y-46278000D01*
X81907142Y-46325619D01*
X82859523Y-47230380D02*
X82288095Y-47230380D01*
X82573809Y-47230380D02*
X82573809Y-46230380D01*
X82478571Y-46373238D01*
X82383333Y-46468476D01*
X82288095Y-46516095D01*
X83240476Y-46325619D02*
X83288095Y-46278000D01*
X83383333Y-46230380D01*
X83621428Y-46230380D01*
X83716666Y-46278000D01*
X83764285Y-46325619D01*
X83811904Y-46420857D01*
X83811904Y-46516095D01*
X83764285Y-46658952D01*
X83192857Y-47230380D01*
X83811904Y-47230380D01*
G04 #@! TO.C,D1*
X17295904Y-23820380D02*
X17295904Y-22820380D01*
X17534000Y-22820380D01*
X17676857Y-22868000D01*
X17772095Y-22963238D01*
X17819714Y-23058476D01*
X17867333Y-23248952D01*
X17867333Y-23391809D01*
X17819714Y-23582285D01*
X17772095Y-23677523D01*
X17676857Y-23772761D01*
X17534000Y-23820380D01*
X17295904Y-23820380D01*
X18819714Y-23820380D02*
X18248285Y-23820380D01*
X18534000Y-23820380D02*
X18534000Y-22820380D01*
X18438761Y-22963238D01*
X18343523Y-23058476D01*
X18248285Y-23106095D01*
G04 #@! TO.C,D8*
X72413904Y-23764380D02*
X72413904Y-22764380D01*
X72652000Y-22764380D01*
X72794857Y-22812000D01*
X72890095Y-22907238D01*
X72937714Y-23002476D01*
X72985333Y-23192952D01*
X72985333Y-23335809D01*
X72937714Y-23526285D01*
X72890095Y-23621523D01*
X72794857Y-23716761D01*
X72652000Y-23764380D01*
X72413904Y-23764380D01*
X73556761Y-23192952D02*
X73461523Y-23145333D01*
X73413904Y-23097714D01*
X73366285Y-23002476D01*
X73366285Y-22954857D01*
X73413904Y-22859619D01*
X73461523Y-22812000D01*
X73556761Y-22764380D01*
X73747238Y-22764380D01*
X73842476Y-22812000D01*
X73890095Y-22859619D01*
X73937714Y-22954857D01*
X73937714Y-23002476D01*
X73890095Y-23097714D01*
X73842476Y-23145333D01*
X73747238Y-23192952D01*
X73556761Y-23192952D01*
X73461523Y-23240571D01*
X73413904Y-23288190D01*
X73366285Y-23383428D01*
X73366285Y-23573904D01*
X73413904Y-23669142D01*
X73461523Y-23716761D01*
X73556761Y-23764380D01*
X73747238Y-23764380D01*
X73842476Y-23716761D01*
X73890095Y-23669142D01*
X73937714Y-23573904D01*
X73937714Y-23383428D01*
X73890095Y-23288190D01*
X73842476Y-23240571D01*
X73747238Y-23192952D01*
G04 #@! TO.C,D7*
X64539904Y-23820380D02*
X64539904Y-22820380D01*
X64778000Y-22820380D01*
X64920857Y-22868000D01*
X65016095Y-22963238D01*
X65063714Y-23058476D01*
X65111333Y-23248952D01*
X65111333Y-23391809D01*
X65063714Y-23582285D01*
X65016095Y-23677523D01*
X64920857Y-23772761D01*
X64778000Y-23820380D01*
X64539904Y-23820380D01*
X65444666Y-22820380D02*
X66111333Y-22820380D01*
X65682761Y-23820380D01*
G04 #@! TO.C,D6*
X56665904Y-23764380D02*
X56665904Y-22764380D01*
X56904000Y-22764380D01*
X57046857Y-22812000D01*
X57142095Y-22907238D01*
X57189714Y-23002476D01*
X57237333Y-23192952D01*
X57237333Y-23335809D01*
X57189714Y-23526285D01*
X57142095Y-23621523D01*
X57046857Y-23716761D01*
X56904000Y-23764380D01*
X56665904Y-23764380D01*
X58094476Y-22764380D02*
X57904000Y-22764380D01*
X57808761Y-22812000D01*
X57761142Y-22859619D01*
X57665904Y-23002476D01*
X57618285Y-23192952D01*
X57618285Y-23573904D01*
X57665904Y-23669142D01*
X57713523Y-23716761D01*
X57808761Y-23764380D01*
X57999238Y-23764380D01*
X58094476Y-23716761D01*
X58142095Y-23669142D01*
X58189714Y-23573904D01*
X58189714Y-23335809D01*
X58142095Y-23240571D01*
X58094476Y-23192952D01*
X57999238Y-23145333D01*
X57808761Y-23145333D01*
X57713523Y-23192952D01*
X57665904Y-23240571D01*
X57618285Y-23335809D01*
G04 #@! TO.C,D5*
X48791904Y-23764380D02*
X48791904Y-22764380D01*
X49030000Y-22764380D01*
X49172857Y-22812000D01*
X49268095Y-22907238D01*
X49315714Y-23002476D01*
X49363333Y-23192952D01*
X49363333Y-23335809D01*
X49315714Y-23526285D01*
X49268095Y-23621523D01*
X49172857Y-23716761D01*
X49030000Y-23764380D01*
X48791904Y-23764380D01*
X50268095Y-22764380D02*
X49791904Y-22764380D01*
X49744285Y-23240571D01*
X49791904Y-23192952D01*
X49887142Y-23145333D01*
X50125238Y-23145333D01*
X50220476Y-23192952D01*
X50268095Y-23240571D01*
X50315714Y-23335809D01*
X50315714Y-23573904D01*
X50268095Y-23669142D01*
X50220476Y-23716761D01*
X50125238Y-23764380D01*
X49887142Y-23764380D01*
X49791904Y-23716761D01*
X49744285Y-23669142D01*
G04 #@! TO.C,D4*
X40917904Y-23764380D02*
X40917904Y-22764380D01*
X41156000Y-22764380D01*
X41298857Y-22812000D01*
X41394095Y-22907238D01*
X41441714Y-23002476D01*
X41489333Y-23192952D01*
X41489333Y-23335809D01*
X41441714Y-23526285D01*
X41394095Y-23621523D01*
X41298857Y-23716761D01*
X41156000Y-23764380D01*
X40917904Y-23764380D01*
X42346476Y-23097714D02*
X42346476Y-23764380D01*
X42108380Y-22716761D02*
X41870285Y-23431047D01*
X42489333Y-23431047D01*
G04 #@! TO.C,D3*
X33043904Y-23820380D02*
X33043904Y-22820380D01*
X33282000Y-22820380D01*
X33424857Y-22868000D01*
X33520095Y-22963238D01*
X33567714Y-23058476D01*
X33615333Y-23248952D01*
X33615333Y-23391809D01*
X33567714Y-23582285D01*
X33520095Y-23677523D01*
X33424857Y-23772761D01*
X33282000Y-23820380D01*
X33043904Y-23820380D01*
X33948666Y-22820380D02*
X34567714Y-22820380D01*
X34234380Y-23201333D01*
X34377238Y-23201333D01*
X34472476Y-23248952D01*
X34520095Y-23296571D01*
X34567714Y-23391809D01*
X34567714Y-23629904D01*
X34520095Y-23725142D01*
X34472476Y-23772761D01*
X34377238Y-23820380D01*
X34091523Y-23820380D01*
X33996285Y-23772761D01*
X33948666Y-23725142D01*
G04 #@! TO.C,D2*
X25169904Y-23764380D02*
X25169904Y-22764380D01*
X25408000Y-22764380D01*
X25550857Y-22812000D01*
X25646095Y-22907238D01*
X25693714Y-23002476D01*
X25741333Y-23192952D01*
X25741333Y-23335809D01*
X25693714Y-23526285D01*
X25646095Y-23621523D01*
X25550857Y-23716761D01*
X25408000Y-23764380D01*
X25169904Y-23764380D01*
X26122285Y-22859619D02*
X26169904Y-22812000D01*
X26265142Y-22764380D01*
X26503238Y-22764380D01*
X26598476Y-22812000D01*
X26646095Y-22859619D01*
X26693714Y-22954857D01*
X26693714Y-23050095D01*
X26646095Y-23192952D01*
X26074666Y-23764380D01*
X26693714Y-23764380D01*
G04 #@! TO.C,J7*
X22780666Y-69302380D02*
X22780666Y-70016666D01*
X22733047Y-70159523D01*
X22637809Y-70254761D01*
X22494952Y-70302380D01*
X22399714Y-70302380D01*
X23161619Y-69302380D02*
X23828285Y-69302380D01*
X23399714Y-70302380D01*
G04 #@! TO.C,U8*
X85638095Y-22172380D02*
X85638095Y-22981904D01*
X85685714Y-23077142D01*
X85733333Y-23124761D01*
X85828571Y-23172380D01*
X86019047Y-23172380D01*
X86114285Y-23124761D01*
X86161904Y-23077142D01*
X86209523Y-22981904D01*
X86209523Y-22172380D01*
X86828571Y-22600952D02*
X86733333Y-22553333D01*
X86685714Y-22505714D01*
X86638095Y-22410476D01*
X86638095Y-22362857D01*
X86685714Y-22267619D01*
X86733333Y-22220000D01*
X86828571Y-22172380D01*
X87019047Y-22172380D01*
X87114285Y-22220000D01*
X87161904Y-22267619D01*
X87209523Y-22362857D01*
X87209523Y-22410476D01*
X87161904Y-22505714D01*
X87114285Y-22553333D01*
X87019047Y-22600952D01*
X86828571Y-22600952D01*
X86733333Y-22648571D01*
X86685714Y-22696190D01*
X86638095Y-22791428D01*
X86638095Y-22981904D01*
X86685714Y-23077142D01*
X86733333Y-23124761D01*
X86828571Y-23172380D01*
X87019047Y-23172380D01*
X87114285Y-23124761D01*
X87161904Y-23077142D01*
X87209523Y-22981904D01*
X87209523Y-22791428D01*
X87161904Y-22696190D01*
X87114285Y-22648571D01*
X87019047Y-22600952D01*
G04 #@! TO.C,U4*
X70104095Y-51776380D02*
X70104095Y-52585904D01*
X70151714Y-52681142D01*
X70199333Y-52728761D01*
X70294571Y-52776380D01*
X70485047Y-52776380D01*
X70580285Y-52728761D01*
X70627904Y-52681142D01*
X70675523Y-52585904D01*
X70675523Y-51776380D01*
X71580285Y-52109714D02*
X71580285Y-52776380D01*
X71342190Y-51728761D02*
X71104095Y-52443047D01*
X71723142Y-52443047D01*
G04 #@! TO.C,U3*
X70866095Y-64984380D02*
X70866095Y-65793904D01*
X70913714Y-65889142D01*
X70961333Y-65936761D01*
X71056571Y-65984380D01*
X71247047Y-65984380D01*
X71342285Y-65936761D01*
X71389904Y-65889142D01*
X71437523Y-65793904D01*
X71437523Y-64984380D01*
X71818476Y-64984380D02*
X72437523Y-64984380D01*
X72104190Y-65365333D01*
X72247047Y-65365333D01*
X72342285Y-65412952D01*
X72389904Y-65460571D01*
X72437523Y-65555809D01*
X72437523Y-65793904D01*
X72389904Y-65889142D01*
X72342285Y-65936761D01*
X72247047Y-65984380D01*
X71961333Y-65984380D01*
X71866095Y-65936761D01*
X71818476Y-65889142D01*
G04 #@! TO.C,U2*
X44704095Y-47966380D02*
X44704095Y-48775904D01*
X44751714Y-48871142D01*
X44799333Y-48918761D01*
X44894571Y-48966380D01*
X45085047Y-48966380D01*
X45180285Y-48918761D01*
X45227904Y-48871142D01*
X45275523Y-48775904D01*
X45275523Y-47966380D01*
X45704095Y-48061619D02*
X45751714Y-48014000D01*
X45846952Y-47966380D01*
X46085047Y-47966380D01*
X46180285Y-48014000D01*
X46227904Y-48061619D01*
X46275523Y-48156857D01*
X46275523Y-48252095D01*
X46227904Y-48394952D01*
X45656476Y-48966380D01*
X46275523Y-48966380D01*
G04 #@! TO.C,U6*
X99568095Y-21042380D02*
X99568095Y-21851904D01*
X99615714Y-21947142D01*
X99663333Y-21994761D01*
X99758571Y-22042380D01*
X99949047Y-22042380D01*
X100044285Y-21994761D01*
X100091904Y-21947142D01*
X100139523Y-21851904D01*
X100139523Y-21042380D01*
X101044285Y-21042380D02*
X100853809Y-21042380D01*
X100758571Y-21090000D01*
X100710952Y-21137619D01*
X100615714Y-21280476D01*
X100568095Y-21470952D01*
X100568095Y-21851904D01*
X100615714Y-21947142D01*
X100663333Y-21994761D01*
X100758571Y-22042380D01*
X100949047Y-22042380D01*
X101044285Y-21994761D01*
X101091904Y-21947142D01*
X101139523Y-21851904D01*
X101139523Y-21613809D01*
X101091904Y-21518571D01*
X101044285Y-21470952D01*
X100949047Y-21423333D01*
X100758571Y-21423333D01*
X100663333Y-21470952D01*
X100615714Y-21518571D01*
X100568095Y-21613809D01*
G04 #@! TO.C,U5*
X73914095Y-79970380D02*
X73914095Y-80779904D01*
X73961714Y-80875142D01*
X74009333Y-80922761D01*
X74104571Y-80970380D01*
X74295047Y-80970380D01*
X74390285Y-80922761D01*
X74437904Y-80875142D01*
X74485523Y-80779904D01*
X74485523Y-79970380D01*
X75437904Y-79970380D02*
X74961714Y-79970380D01*
X74914095Y-80446571D01*
X74961714Y-80398952D01*
X75056952Y-80351333D01*
X75295047Y-80351333D01*
X75390285Y-80398952D01*
X75437904Y-80446571D01*
X75485523Y-80541809D01*
X75485523Y-80779904D01*
X75437904Y-80875142D01*
X75390285Y-80922761D01*
X75295047Y-80970380D01*
X75056952Y-80970380D01*
X74961714Y-80922761D01*
X74914095Y-80875142D01*
G04 #@! TO.C,SW4*
X105854666Y-112926761D02*
X105997523Y-112974380D01*
X106235619Y-112974380D01*
X106330857Y-112926761D01*
X106378476Y-112879142D01*
X106426095Y-112783904D01*
X106426095Y-112688666D01*
X106378476Y-112593428D01*
X106330857Y-112545809D01*
X106235619Y-112498190D01*
X106045142Y-112450571D01*
X105949904Y-112402952D01*
X105902285Y-112355333D01*
X105854666Y-112260095D01*
X105854666Y-112164857D01*
X105902285Y-112069619D01*
X105949904Y-112022000D01*
X106045142Y-111974380D01*
X106283238Y-111974380D01*
X106426095Y-112022000D01*
X106759428Y-111974380D02*
X106997523Y-112974380D01*
X107188000Y-112260095D01*
X107378476Y-112974380D01*
X107616571Y-111974380D01*
X108426095Y-112307714D02*
X108426095Y-112974380D01*
X108188000Y-111926761D02*
X107949904Y-112641047D01*
X108568952Y-112641047D01*
G04 #@! TO.C,SW3*
X99556666Y-100480761D02*
X99699523Y-100528380D01*
X99937619Y-100528380D01*
X100032857Y-100480761D01*
X100080476Y-100433142D01*
X100128095Y-100337904D01*
X100128095Y-100242666D01*
X100080476Y-100147428D01*
X100032857Y-100099809D01*
X99937619Y-100052190D01*
X99747142Y-100004571D01*
X99651904Y-99956952D01*
X99604285Y-99909333D01*
X99556666Y-99814095D01*
X99556666Y-99718857D01*
X99604285Y-99623619D01*
X99651904Y-99576000D01*
X99747142Y-99528380D01*
X99985238Y-99528380D01*
X100128095Y-99576000D01*
X100461428Y-99528380D02*
X100699523Y-100528380D01*
X100890000Y-99814095D01*
X101080476Y-100528380D01*
X101318571Y-99528380D01*
X101604285Y-99528380D02*
X102223333Y-99528380D01*
X101890000Y-99909333D01*
X102032857Y-99909333D01*
X102128095Y-99956952D01*
X102175714Y-100004571D01*
X102223333Y-100099809D01*
X102223333Y-100337904D01*
X102175714Y-100433142D01*
X102128095Y-100480761D01*
X102032857Y-100528380D01*
X101747142Y-100528380D01*
X101651904Y-100480761D01*
X101604285Y-100433142D01*
G04 #@! TO.C,SW2*
X109918666Y-109370761D02*
X110061523Y-109418380D01*
X110299619Y-109418380D01*
X110394857Y-109370761D01*
X110442476Y-109323142D01*
X110490095Y-109227904D01*
X110490095Y-109132666D01*
X110442476Y-109037428D01*
X110394857Y-108989809D01*
X110299619Y-108942190D01*
X110109142Y-108894571D01*
X110013904Y-108846952D01*
X109966285Y-108799333D01*
X109918666Y-108704095D01*
X109918666Y-108608857D01*
X109966285Y-108513619D01*
X110013904Y-108466000D01*
X110109142Y-108418380D01*
X110347238Y-108418380D01*
X110490095Y-108466000D01*
X110823428Y-108418380D02*
X111061523Y-109418380D01*
X111252000Y-108704095D01*
X111442476Y-109418380D01*
X111680571Y-108418380D01*
X112013904Y-108513619D02*
X112061523Y-108466000D01*
X112156761Y-108418380D01*
X112394857Y-108418380D01*
X112490095Y-108466000D01*
X112537714Y-108513619D01*
X112585333Y-108608857D01*
X112585333Y-108704095D01*
X112537714Y-108846952D01*
X111966285Y-109418380D01*
X112585333Y-109418380D01*
G04 #@! TO.C,SW1*
X84264666Y-104798761D02*
X84407523Y-104846380D01*
X84645619Y-104846380D01*
X84740857Y-104798761D01*
X84788476Y-104751142D01*
X84836095Y-104655904D01*
X84836095Y-104560666D01*
X84788476Y-104465428D01*
X84740857Y-104417809D01*
X84645619Y-104370190D01*
X84455142Y-104322571D01*
X84359904Y-104274952D01*
X84312285Y-104227333D01*
X84264666Y-104132095D01*
X84264666Y-104036857D01*
X84312285Y-103941619D01*
X84359904Y-103894000D01*
X84455142Y-103846380D01*
X84693238Y-103846380D01*
X84836095Y-103894000D01*
X85169428Y-103846380D02*
X85407523Y-104846380D01*
X85598000Y-104132095D01*
X85788476Y-104846380D01*
X86026571Y-103846380D01*
X86931333Y-104846380D02*
X86359904Y-104846380D01*
X86645619Y-104846380D02*
X86645619Y-103846380D01*
X86550380Y-103989238D01*
X86455142Y-104084476D01*
X86359904Y-104132095D01*
G04 #@! TO.C,RV3*
X57824761Y-107640380D02*
X57491428Y-107164190D01*
X57253333Y-107640380D02*
X57253333Y-106640380D01*
X57634285Y-106640380D01*
X57729523Y-106688000D01*
X57777142Y-106735619D01*
X57824761Y-106830857D01*
X57824761Y-106973714D01*
X57777142Y-107068952D01*
X57729523Y-107116571D01*
X57634285Y-107164190D01*
X57253333Y-107164190D01*
X58110476Y-106640380D02*
X58443809Y-107640380D01*
X58777142Y-106640380D01*
X59015238Y-106640380D02*
X59634285Y-106640380D01*
X59300952Y-107021333D01*
X59443809Y-107021333D01*
X59539047Y-107068952D01*
X59586666Y-107116571D01*
X59634285Y-107211809D01*
X59634285Y-107449904D01*
X59586666Y-107545142D01*
X59539047Y-107592761D01*
X59443809Y-107640380D01*
X59158095Y-107640380D01*
X59062857Y-107592761D01*
X59015238Y-107545142D01*
G04 #@! TO.C,RV2*
X50458761Y-107640380D02*
X50125428Y-107164190D01*
X49887333Y-107640380D02*
X49887333Y-106640380D01*
X50268285Y-106640380D01*
X50363523Y-106688000D01*
X50411142Y-106735619D01*
X50458761Y-106830857D01*
X50458761Y-106973714D01*
X50411142Y-107068952D01*
X50363523Y-107116571D01*
X50268285Y-107164190D01*
X49887333Y-107164190D01*
X50744476Y-106640380D02*
X51077809Y-107640380D01*
X51411142Y-106640380D01*
X51696857Y-106735619D02*
X51744476Y-106688000D01*
X51839714Y-106640380D01*
X52077809Y-106640380D01*
X52173047Y-106688000D01*
X52220666Y-106735619D01*
X52268285Y-106830857D01*
X52268285Y-106926095D01*
X52220666Y-107068952D01*
X51649238Y-107640380D01*
X52268285Y-107640380D01*
G04 #@! TO.C,RV1*
X42838761Y-107640380D02*
X42505428Y-107164190D01*
X42267333Y-107640380D02*
X42267333Y-106640380D01*
X42648285Y-106640380D01*
X42743523Y-106688000D01*
X42791142Y-106735619D01*
X42838761Y-106830857D01*
X42838761Y-106973714D01*
X42791142Y-107068952D01*
X42743523Y-107116571D01*
X42648285Y-107164190D01*
X42267333Y-107164190D01*
X43124476Y-106640380D02*
X43457809Y-107640380D01*
X43791142Y-106640380D01*
X44648285Y-107640380D02*
X44076857Y-107640380D01*
X44362571Y-107640380D02*
X44362571Y-106640380D01*
X44267333Y-106783238D01*
X44172095Y-106878476D01*
X44076857Y-106926095D01*
G04 #@! TO.C,Rot_Enc1*
X66468952Y-102560380D02*
X66135619Y-102084190D01*
X65897523Y-102560380D02*
X65897523Y-101560380D01*
X66278476Y-101560380D01*
X66373714Y-101608000D01*
X66421333Y-101655619D01*
X66468952Y-101750857D01*
X66468952Y-101893714D01*
X66421333Y-101988952D01*
X66373714Y-102036571D01*
X66278476Y-102084190D01*
X65897523Y-102084190D01*
X67040380Y-102560380D02*
X66945142Y-102512761D01*
X66897523Y-102465142D01*
X66849904Y-102369904D01*
X66849904Y-102084190D01*
X66897523Y-101988952D01*
X66945142Y-101941333D01*
X67040380Y-101893714D01*
X67183238Y-101893714D01*
X67278476Y-101941333D01*
X67326095Y-101988952D01*
X67373714Y-102084190D01*
X67373714Y-102369904D01*
X67326095Y-102465142D01*
X67278476Y-102512761D01*
X67183238Y-102560380D01*
X67040380Y-102560380D01*
X67659428Y-101893714D02*
X68040380Y-101893714D01*
X67802285Y-101560380D02*
X67802285Y-102417523D01*
X67849904Y-102512761D01*
X67945142Y-102560380D01*
X68040380Y-102560380D01*
X68135619Y-102655619D02*
X68897523Y-102655619D01*
X69135619Y-102036571D02*
X69468952Y-102036571D01*
X69611809Y-102560380D02*
X69135619Y-102560380D01*
X69135619Y-101560380D01*
X69611809Y-101560380D01*
X70040380Y-101893714D02*
X70040380Y-102560380D01*
X70040380Y-101988952D02*
X70088000Y-101941333D01*
X70183238Y-101893714D01*
X70326095Y-101893714D01*
X70421333Y-101941333D01*
X70468952Y-102036571D01*
X70468952Y-102560380D01*
X71373714Y-102512761D02*
X71278476Y-102560380D01*
X71088000Y-102560380D01*
X70992761Y-102512761D01*
X70945142Y-102465142D01*
X70897523Y-102369904D01*
X70897523Y-102084190D01*
X70945142Y-101988952D01*
X70992761Y-101941333D01*
X71088000Y-101893714D01*
X71278476Y-101893714D01*
X71373714Y-101941333D01*
X72326095Y-102560380D02*
X71754666Y-102560380D01*
X72040380Y-102560380D02*
X72040380Y-101560380D01*
X71945142Y-101703238D01*
X71849904Y-101798476D01*
X71754666Y-101846095D01*
G04 #@! TO.C,R45*
X53713142Y-87320380D02*
X53379809Y-86844190D01*
X53141714Y-87320380D02*
X53141714Y-86320380D01*
X53522666Y-86320380D01*
X53617904Y-86368000D01*
X53665523Y-86415619D01*
X53713142Y-86510857D01*
X53713142Y-86653714D01*
X53665523Y-86748952D01*
X53617904Y-86796571D01*
X53522666Y-86844190D01*
X53141714Y-86844190D01*
X54570285Y-86653714D02*
X54570285Y-87320380D01*
X54332190Y-86272761D02*
X54094095Y-86987047D01*
X54713142Y-86987047D01*
X55570285Y-86320380D02*
X55094095Y-86320380D01*
X55046476Y-86796571D01*
X55094095Y-86748952D01*
X55189333Y-86701333D01*
X55427428Y-86701333D01*
X55522666Y-86748952D01*
X55570285Y-86796571D01*
X55617904Y-86891809D01*
X55617904Y-87129904D01*
X55570285Y-87225142D01*
X55522666Y-87272761D01*
X55427428Y-87320380D01*
X55189333Y-87320380D01*
X55094095Y-87272761D01*
X55046476Y-87225142D01*
G04 #@! TO.C,R44*
X112212380Y-85478857D02*
X111736190Y-85812190D01*
X112212380Y-86050285D02*
X111212380Y-86050285D01*
X111212380Y-85669333D01*
X111260000Y-85574095D01*
X111307619Y-85526476D01*
X111402857Y-85478857D01*
X111545714Y-85478857D01*
X111640952Y-85526476D01*
X111688571Y-85574095D01*
X111736190Y-85669333D01*
X111736190Y-86050285D01*
X111545714Y-84621714D02*
X112212380Y-84621714D01*
X111164761Y-84859809D02*
X111879047Y-85097904D01*
X111879047Y-84478857D01*
X111545714Y-83669333D02*
X112212380Y-83669333D01*
X111164761Y-83907428D02*
X111879047Y-84145523D01*
X111879047Y-83526476D01*
G04 #@! TO.C,R43*
X107132380Y-85478857D02*
X106656190Y-85812190D01*
X107132380Y-86050285D02*
X106132380Y-86050285D01*
X106132380Y-85669333D01*
X106180000Y-85574095D01*
X106227619Y-85526476D01*
X106322857Y-85478857D01*
X106465714Y-85478857D01*
X106560952Y-85526476D01*
X106608571Y-85574095D01*
X106656190Y-85669333D01*
X106656190Y-86050285D01*
X106465714Y-84621714D02*
X107132380Y-84621714D01*
X106084761Y-84859809D02*
X106799047Y-85097904D01*
X106799047Y-84478857D01*
X106132380Y-84193142D02*
X106132380Y-83574095D01*
X106513333Y-83907428D01*
X106513333Y-83764571D01*
X106560952Y-83669333D01*
X106608571Y-83621714D01*
X106703809Y-83574095D01*
X106941904Y-83574095D01*
X107037142Y-83621714D01*
X107084761Y-83669333D01*
X107132380Y-83764571D01*
X107132380Y-84050285D01*
X107084761Y-84145523D01*
X107037142Y-84193142D01*
G04 #@! TO.C,R42*
X107132380Y-51950857D02*
X106656190Y-52284190D01*
X107132380Y-52522285D02*
X106132380Y-52522285D01*
X106132380Y-52141333D01*
X106180000Y-52046095D01*
X106227619Y-51998476D01*
X106322857Y-51950857D01*
X106465714Y-51950857D01*
X106560952Y-51998476D01*
X106608571Y-52046095D01*
X106656190Y-52141333D01*
X106656190Y-52522285D01*
X106465714Y-51093714D02*
X107132380Y-51093714D01*
X106084761Y-51331809D02*
X106799047Y-51569904D01*
X106799047Y-50950857D01*
X106227619Y-50617523D02*
X106180000Y-50569904D01*
X106132380Y-50474666D01*
X106132380Y-50236571D01*
X106180000Y-50141333D01*
X106227619Y-50093714D01*
X106322857Y-50046095D01*
X106418095Y-50046095D01*
X106560952Y-50093714D01*
X107132380Y-50665142D01*
X107132380Y-50046095D01*
G04 #@! TO.C,R41*
X102052380Y-85478857D02*
X101576190Y-85812190D01*
X102052380Y-86050285D02*
X101052380Y-86050285D01*
X101052380Y-85669333D01*
X101100000Y-85574095D01*
X101147619Y-85526476D01*
X101242857Y-85478857D01*
X101385714Y-85478857D01*
X101480952Y-85526476D01*
X101528571Y-85574095D01*
X101576190Y-85669333D01*
X101576190Y-86050285D01*
X101385714Y-84621714D02*
X102052380Y-84621714D01*
X101004761Y-84859809D02*
X101719047Y-85097904D01*
X101719047Y-84478857D01*
X102052380Y-83574095D02*
X102052380Y-84145523D01*
X102052380Y-83859809D02*
X101052380Y-83859809D01*
X101195238Y-83955047D01*
X101290476Y-84050285D01*
X101338095Y-84145523D01*
G04 #@! TO.C,R40*
X104592380Y-85478857D02*
X104116190Y-85812190D01*
X104592380Y-86050285D02*
X103592380Y-86050285D01*
X103592380Y-85669333D01*
X103640000Y-85574095D01*
X103687619Y-85526476D01*
X103782857Y-85478857D01*
X103925714Y-85478857D01*
X104020952Y-85526476D01*
X104068571Y-85574095D01*
X104116190Y-85669333D01*
X104116190Y-86050285D01*
X103925714Y-84621714D02*
X104592380Y-84621714D01*
X103544761Y-84859809D02*
X104259047Y-85097904D01*
X104259047Y-84478857D01*
X103592380Y-83907428D02*
X103592380Y-83812190D01*
X103640000Y-83716952D01*
X103687619Y-83669333D01*
X103782857Y-83621714D01*
X103973333Y-83574095D01*
X104211428Y-83574095D01*
X104401904Y-83621714D01*
X104497142Y-83669333D01*
X104544761Y-83716952D01*
X104592380Y-83812190D01*
X104592380Y-83907428D01*
X104544761Y-84002666D01*
X104497142Y-84050285D01*
X104401904Y-84097904D01*
X104211428Y-84145523D01*
X103973333Y-84145523D01*
X103782857Y-84097904D01*
X103687619Y-84050285D01*
X103640000Y-84002666D01*
X103592380Y-83907428D01*
G04 #@! TO.C,R39*
X109672380Y-85478857D02*
X109196190Y-85812190D01*
X109672380Y-86050285D02*
X108672380Y-86050285D01*
X108672380Y-85669333D01*
X108720000Y-85574095D01*
X108767619Y-85526476D01*
X108862857Y-85478857D01*
X109005714Y-85478857D01*
X109100952Y-85526476D01*
X109148571Y-85574095D01*
X109196190Y-85669333D01*
X109196190Y-86050285D01*
X108672380Y-85145523D02*
X108672380Y-84526476D01*
X109053333Y-84859809D01*
X109053333Y-84716952D01*
X109100952Y-84621714D01*
X109148571Y-84574095D01*
X109243809Y-84526476D01*
X109481904Y-84526476D01*
X109577142Y-84574095D01*
X109624761Y-84621714D01*
X109672380Y-84716952D01*
X109672380Y-85002666D01*
X109624761Y-85097904D01*
X109577142Y-85145523D01*
X109672380Y-84050285D02*
X109672380Y-83859809D01*
X109624761Y-83764571D01*
X109577142Y-83716952D01*
X109434285Y-83621714D01*
X109243809Y-83574095D01*
X108862857Y-83574095D01*
X108767619Y-83621714D01*
X108720000Y-83669333D01*
X108672380Y-83764571D01*
X108672380Y-83955047D01*
X108720000Y-84050285D01*
X108767619Y-84097904D01*
X108862857Y-84145523D01*
X109100952Y-84145523D01*
X109196190Y-84097904D01*
X109243809Y-84050285D01*
X109291428Y-83955047D01*
X109291428Y-83764571D01*
X109243809Y-83669333D01*
X109196190Y-83621714D01*
X109100952Y-83574095D01*
G04 #@! TO.C,R28*
X71493142Y-37790380D02*
X71159809Y-37314190D01*
X70921714Y-37790380D02*
X70921714Y-36790380D01*
X71302666Y-36790380D01*
X71397904Y-36838000D01*
X71445523Y-36885619D01*
X71493142Y-36980857D01*
X71493142Y-37123714D01*
X71445523Y-37218952D01*
X71397904Y-37266571D01*
X71302666Y-37314190D01*
X70921714Y-37314190D01*
X71874095Y-36885619D02*
X71921714Y-36838000D01*
X72016952Y-36790380D01*
X72255047Y-36790380D01*
X72350285Y-36838000D01*
X72397904Y-36885619D01*
X72445523Y-36980857D01*
X72445523Y-37076095D01*
X72397904Y-37218952D01*
X71826476Y-37790380D01*
X72445523Y-37790380D01*
X73016952Y-37218952D02*
X72921714Y-37171333D01*
X72874095Y-37123714D01*
X72826476Y-37028476D01*
X72826476Y-36980857D01*
X72874095Y-36885619D01*
X72921714Y-36838000D01*
X73016952Y-36790380D01*
X73207428Y-36790380D01*
X73302666Y-36838000D01*
X73350285Y-36885619D01*
X73397904Y-36980857D01*
X73397904Y-37028476D01*
X73350285Y-37123714D01*
X73302666Y-37171333D01*
X73207428Y-37218952D01*
X73016952Y-37218952D01*
X72921714Y-37266571D01*
X72874095Y-37314190D01*
X72826476Y-37409428D01*
X72826476Y-37599904D01*
X72874095Y-37695142D01*
X72921714Y-37742761D01*
X73016952Y-37790380D01*
X73207428Y-37790380D01*
X73302666Y-37742761D01*
X73350285Y-37695142D01*
X73397904Y-37599904D01*
X73397904Y-37409428D01*
X73350285Y-37314190D01*
X73302666Y-37266571D01*
X73207428Y-37218952D01*
G04 #@! TO.C,R38*
X112212380Y-51950857D02*
X111736190Y-52284190D01*
X112212380Y-52522285D02*
X111212380Y-52522285D01*
X111212380Y-52141333D01*
X111260000Y-52046095D01*
X111307619Y-51998476D01*
X111402857Y-51950857D01*
X111545714Y-51950857D01*
X111640952Y-51998476D01*
X111688571Y-52046095D01*
X111736190Y-52141333D01*
X111736190Y-52522285D01*
X111212380Y-51617523D02*
X111212380Y-50998476D01*
X111593333Y-51331809D01*
X111593333Y-51188952D01*
X111640952Y-51093714D01*
X111688571Y-51046095D01*
X111783809Y-50998476D01*
X112021904Y-50998476D01*
X112117142Y-51046095D01*
X112164761Y-51093714D01*
X112212380Y-51188952D01*
X112212380Y-51474666D01*
X112164761Y-51569904D01*
X112117142Y-51617523D01*
X111640952Y-50427047D02*
X111593333Y-50522285D01*
X111545714Y-50569904D01*
X111450476Y-50617523D01*
X111402857Y-50617523D01*
X111307619Y-50569904D01*
X111260000Y-50522285D01*
X111212380Y-50427047D01*
X111212380Y-50236571D01*
X111260000Y-50141333D01*
X111307619Y-50093714D01*
X111402857Y-50046095D01*
X111450476Y-50046095D01*
X111545714Y-50093714D01*
X111593333Y-50141333D01*
X111640952Y-50236571D01*
X111640952Y-50427047D01*
X111688571Y-50522285D01*
X111736190Y-50569904D01*
X111831428Y-50617523D01*
X112021904Y-50617523D01*
X112117142Y-50569904D01*
X112164761Y-50522285D01*
X112212380Y-50427047D01*
X112212380Y-50236571D01*
X112164761Y-50141333D01*
X112117142Y-50093714D01*
X112021904Y-50046095D01*
X111831428Y-50046095D01*
X111736190Y-50093714D01*
X111688571Y-50141333D01*
X111640952Y-50236571D01*
G04 #@! TO.C,R37*
X109672380Y-51950857D02*
X109196190Y-52284190D01*
X109672380Y-52522285D02*
X108672380Y-52522285D01*
X108672380Y-52141333D01*
X108720000Y-52046095D01*
X108767619Y-51998476D01*
X108862857Y-51950857D01*
X109005714Y-51950857D01*
X109100952Y-51998476D01*
X109148571Y-52046095D01*
X109196190Y-52141333D01*
X109196190Y-52522285D01*
X108672380Y-51617523D02*
X108672380Y-50998476D01*
X109053333Y-51331809D01*
X109053333Y-51188952D01*
X109100952Y-51093714D01*
X109148571Y-51046095D01*
X109243809Y-50998476D01*
X109481904Y-50998476D01*
X109577142Y-51046095D01*
X109624761Y-51093714D01*
X109672380Y-51188952D01*
X109672380Y-51474666D01*
X109624761Y-51569904D01*
X109577142Y-51617523D01*
X108672380Y-50665142D02*
X108672380Y-49998476D01*
X109672380Y-50427047D01*
G04 #@! TO.C,R16*
X53713142Y-89352380D02*
X53379809Y-88876190D01*
X53141714Y-89352380D02*
X53141714Y-88352380D01*
X53522666Y-88352380D01*
X53617904Y-88400000D01*
X53665523Y-88447619D01*
X53713142Y-88542857D01*
X53713142Y-88685714D01*
X53665523Y-88780952D01*
X53617904Y-88828571D01*
X53522666Y-88876190D01*
X53141714Y-88876190D01*
X54665523Y-89352380D02*
X54094095Y-89352380D01*
X54379809Y-89352380D02*
X54379809Y-88352380D01*
X54284571Y-88495238D01*
X54189333Y-88590476D01*
X54094095Y-88638095D01*
X55522666Y-88352380D02*
X55332190Y-88352380D01*
X55236952Y-88400000D01*
X55189333Y-88447619D01*
X55094095Y-88590476D01*
X55046476Y-88780952D01*
X55046476Y-89161904D01*
X55094095Y-89257142D01*
X55141714Y-89304761D01*
X55236952Y-89352380D01*
X55427428Y-89352380D01*
X55522666Y-89304761D01*
X55570285Y-89257142D01*
X55617904Y-89161904D01*
X55617904Y-88923809D01*
X55570285Y-88828571D01*
X55522666Y-88780952D01*
X55427428Y-88733333D01*
X55236952Y-88733333D01*
X55141714Y-88780952D01*
X55094095Y-88828571D01*
X55046476Y-88923809D01*
G04 #@! TO.C,R47*
X92829142Y-23566380D02*
X92495809Y-23090190D01*
X92257714Y-23566380D02*
X92257714Y-22566380D01*
X92638666Y-22566380D01*
X92733904Y-22614000D01*
X92781523Y-22661619D01*
X92829142Y-22756857D01*
X92829142Y-22899714D01*
X92781523Y-22994952D01*
X92733904Y-23042571D01*
X92638666Y-23090190D01*
X92257714Y-23090190D01*
X93686285Y-22899714D02*
X93686285Y-23566380D01*
X93448190Y-22518761D02*
X93210095Y-23233047D01*
X93829142Y-23233047D01*
X94114857Y-22566380D02*
X94781523Y-22566380D01*
X94352952Y-23566380D01*
G04 #@! TO.C,R27*
X64127142Y-37790380D02*
X63793809Y-37314190D01*
X63555714Y-37790380D02*
X63555714Y-36790380D01*
X63936666Y-36790380D01*
X64031904Y-36838000D01*
X64079523Y-36885619D01*
X64127142Y-36980857D01*
X64127142Y-37123714D01*
X64079523Y-37218952D01*
X64031904Y-37266571D01*
X63936666Y-37314190D01*
X63555714Y-37314190D01*
X64508095Y-36885619D02*
X64555714Y-36838000D01*
X64650952Y-36790380D01*
X64889047Y-36790380D01*
X64984285Y-36838000D01*
X65031904Y-36885619D01*
X65079523Y-36980857D01*
X65079523Y-37076095D01*
X65031904Y-37218952D01*
X64460476Y-37790380D01*
X65079523Y-37790380D01*
X65412857Y-36790380D02*
X66079523Y-36790380D01*
X65650952Y-37790380D01*
G04 #@! TO.C,R36*
X99512380Y-85478857D02*
X99036190Y-85812190D01*
X99512380Y-86050285D02*
X98512380Y-86050285D01*
X98512380Y-85669333D01*
X98560000Y-85574095D01*
X98607619Y-85526476D01*
X98702857Y-85478857D01*
X98845714Y-85478857D01*
X98940952Y-85526476D01*
X98988571Y-85574095D01*
X99036190Y-85669333D01*
X99036190Y-86050285D01*
X98512380Y-85145523D02*
X98512380Y-84526476D01*
X98893333Y-84859809D01*
X98893333Y-84716952D01*
X98940952Y-84621714D01*
X98988571Y-84574095D01*
X99083809Y-84526476D01*
X99321904Y-84526476D01*
X99417142Y-84574095D01*
X99464761Y-84621714D01*
X99512380Y-84716952D01*
X99512380Y-85002666D01*
X99464761Y-85097904D01*
X99417142Y-85145523D01*
X98512380Y-83669333D02*
X98512380Y-83859809D01*
X98560000Y-83955047D01*
X98607619Y-84002666D01*
X98750476Y-84097904D01*
X98940952Y-84145523D01*
X99321904Y-84145523D01*
X99417142Y-84097904D01*
X99464761Y-84050285D01*
X99512380Y-83955047D01*
X99512380Y-83764571D01*
X99464761Y-83669333D01*
X99417142Y-83621714D01*
X99321904Y-83574095D01*
X99083809Y-83574095D01*
X98988571Y-83621714D01*
X98940952Y-83669333D01*
X98893333Y-83764571D01*
X98893333Y-83955047D01*
X98940952Y-84050285D01*
X98988571Y-84097904D01*
X99083809Y-84145523D01*
G04 #@! TO.C,R26*
X57523142Y-37790380D02*
X57189809Y-37314190D01*
X56951714Y-37790380D02*
X56951714Y-36790380D01*
X57332666Y-36790380D01*
X57427904Y-36838000D01*
X57475523Y-36885619D01*
X57523142Y-36980857D01*
X57523142Y-37123714D01*
X57475523Y-37218952D01*
X57427904Y-37266571D01*
X57332666Y-37314190D01*
X56951714Y-37314190D01*
X57904095Y-36885619D02*
X57951714Y-36838000D01*
X58046952Y-36790380D01*
X58285047Y-36790380D01*
X58380285Y-36838000D01*
X58427904Y-36885619D01*
X58475523Y-36980857D01*
X58475523Y-37076095D01*
X58427904Y-37218952D01*
X57856476Y-37790380D01*
X58475523Y-37790380D01*
X59332666Y-36790380D02*
X59142190Y-36790380D01*
X59046952Y-36838000D01*
X58999333Y-36885619D01*
X58904095Y-37028476D01*
X58856476Y-37218952D01*
X58856476Y-37599904D01*
X58904095Y-37695142D01*
X58951714Y-37742761D01*
X59046952Y-37790380D01*
X59237428Y-37790380D01*
X59332666Y-37742761D01*
X59380285Y-37695142D01*
X59427904Y-37599904D01*
X59427904Y-37361809D01*
X59380285Y-37266571D01*
X59332666Y-37218952D01*
X59237428Y-37171333D01*
X59046952Y-37171333D01*
X58951714Y-37218952D01*
X58904095Y-37266571D01*
X58856476Y-37361809D01*
G04 #@! TO.C,R35*
X94432380Y-51950857D02*
X93956190Y-52284190D01*
X94432380Y-52522285D02*
X93432380Y-52522285D01*
X93432380Y-52141333D01*
X93480000Y-52046095D01*
X93527619Y-51998476D01*
X93622857Y-51950857D01*
X93765714Y-51950857D01*
X93860952Y-51998476D01*
X93908571Y-52046095D01*
X93956190Y-52141333D01*
X93956190Y-52522285D01*
X93432380Y-51617523D02*
X93432380Y-50998476D01*
X93813333Y-51331809D01*
X93813333Y-51188952D01*
X93860952Y-51093714D01*
X93908571Y-51046095D01*
X94003809Y-50998476D01*
X94241904Y-50998476D01*
X94337142Y-51046095D01*
X94384761Y-51093714D01*
X94432380Y-51188952D01*
X94432380Y-51474666D01*
X94384761Y-51569904D01*
X94337142Y-51617523D01*
X93432380Y-50093714D02*
X93432380Y-50569904D01*
X93908571Y-50617523D01*
X93860952Y-50569904D01*
X93813333Y-50474666D01*
X93813333Y-50236571D01*
X93860952Y-50141333D01*
X93908571Y-50093714D01*
X94003809Y-50046095D01*
X94241904Y-50046095D01*
X94337142Y-50093714D01*
X94384761Y-50141333D01*
X94432380Y-50236571D01*
X94432380Y-50474666D01*
X94384761Y-50569904D01*
X94337142Y-50617523D01*
G04 #@! TO.C,R34*
X91892380Y-51950857D02*
X91416190Y-52284190D01*
X91892380Y-52522285D02*
X90892380Y-52522285D01*
X90892380Y-52141333D01*
X90940000Y-52046095D01*
X90987619Y-51998476D01*
X91082857Y-51950857D01*
X91225714Y-51950857D01*
X91320952Y-51998476D01*
X91368571Y-52046095D01*
X91416190Y-52141333D01*
X91416190Y-52522285D01*
X90892380Y-51617523D02*
X90892380Y-50998476D01*
X91273333Y-51331809D01*
X91273333Y-51188952D01*
X91320952Y-51093714D01*
X91368571Y-51046095D01*
X91463809Y-50998476D01*
X91701904Y-50998476D01*
X91797142Y-51046095D01*
X91844761Y-51093714D01*
X91892380Y-51188952D01*
X91892380Y-51474666D01*
X91844761Y-51569904D01*
X91797142Y-51617523D01*
X91225714Y-50141333D02*
X91892380Y-50141333D01*
X90844761Y-50379428D02*
X91559047Y-50617523D01*
X91559047Y-49998476D01*
G04 #@! TO.C,R25*
X51935142Y-36012380D02*
X51601809Y-35536190D01*
X51363714Y-36012380D02*
X51363714Y-35012380D01*
X51744666Y-35012380D01*
X51839904Y-35060000D01*
X51887523Y-35107619D01*
X51935142Y-35202857D01*
X51935142Y-35345714D01*
X51887523Y-35440952D01*
X51839904Y-35488571D01*
X51744666Y-35536190D01*
X51363714Y-35536190D01*
X52316095Y-35107619D02*
X52363714Y-35060000D01*
X52458952Y-35012380D01*
X52697047Y-35012380D01*
X52792285Y-35060000D01*
X52839904Y-35107619D01*
X52887523Y-35202857D01*
X52887523Y-35298095D01*
X52839904Y-35440952D01*
X52268476Y-36012380D01*
X52887523Y-36012380D01*
X53792285Y-35012380D02*
X53316095Y-35012380D01*
X53268476Y-35488571D01*
X53316095Y-35440952D01*
X53411333Y-35393333D01*
X53649428Y-35393333D01*
X53744666Y-35440952D01*
X53792285Y-35488571D01*
X53839904Y-35583809D01*
X53839904Y-35821904D01*
X53792285Y-35917142D01*
X53744666Y-35964761D01*
X53649428Y-36012380D01*
X53411333Y-36012380D01*
X53316095Y-35964761D01*
X53268476Y-35917142D01*
G04 #@! TO.C,R33*
X91892380Y-85478857D02*
X91416190Y-85812190D01*
X91892380Y-86050285D02*
X90892380Y-86050285D01*
X90892380Y-85669333D01*
X90940000Y-85574095D01*
X90987619Y-85526476D01*
X91082857Y-85478857D01*
X91225714Y-85478857D01*
X91320952Y-85526476D01*
X91368571Y-85574095D01*
X91416190Y-85669333D01*
X91416190Y-86050285D01*
X90892380Y-85145523D02*
X90892380Y-84526476D01*
X91273333Y-84859809D01*
X91273333Y-84716952D01*
X91320952Y-84621714D01*
X91368571Y-84574095D01*
X91463809Y-84526476D01*
X91701904Y-84526476D01*
X91797142Y-84574095D01*
X91844761Y-84621714D01*
X91892380Y-84716952D01*
X91892380Y-85002666D01*
X91844761Y-85097904D01*
X91797142Y-85145523D01*
X90892380Y-84193142D02*
X90892380Y-83574095D01*
X91273333Y-83907428D01*
X91273333Y-83764571D01*
X91320952Y-83669333D01*
X91368571Y-83621714D01*
X91463809Y-83574095D01*
X91701904Y-83574095D01*
X91797142Y-83621714D01*
X91844761Y-83669333D01*
X91892380Y-83764571D01*
X91892380Y-84050285D01*
X91844761Y-84145523D01*
X91797142Y-84193142D01*
G04 #@! TO.C,R32*
X94432380Y-85478857D02*
X93956190Y-85812190D01*
X94432380Y-86050285D02*
X93432380Y-86050285D01*
X93432380Y-85669333D01*
X93480000Y-85574095D01*
X93527619Y-85526476D01*
X93622857Y-85478857D01*
X93765714Y-85478857D01*
X93860952Y-85526476D01*
X93908571Y-85574095D01*
X93956190Y-85669333D01*
X93956190Y-86050285D01*
X93432380Y-85145523D02*
X93432380Y-84526476D01*
X93813333Y-84859809D01*
X93813333Y-84716952D01*
X93860952Y-84621714D01*
X93908571Y-84574095D01*
X94003809Y-84526476D01*
X94241904Y-84526476D01*
X94337142Y-84574095D01*
X94384761Y-84621714D01*
X94432380Y-84716952D01*
X94432380Y-85002666D01*
X94384761Y-85097904D01*
X94337142Y-85145523D01*
X93527619Y-84145523D02*
X93480000Y-84097904D01*
X93432380Y-84002666D01*
X93432380Y-83764571D01*
X93480000Y-83669333D01*
X93527619Y-83621714D01*
X93622857Y-83574095D01*
X93718095Y-83574095D01*
X93860952Y-83621714D01*
X94432380Y-84193142D01*
X94432380Y-83574095D01*
G04 #@! TO.C,R24*
X44569142Y-36012380D02*
X44235809Y-35536190D01*
X43997714Y-36012380D02*
X43997714Y-35012380D01*
X44378666Y-35012380D01*
X44473904Y-35060000D01*
X44521523Y-35107619D01*
X44569142Y-35202857D01*
X44569142Y-35345714D01*
X44521523Y-35440952D01*
X44473904Y-35488571D01*
X44378666Y-35536190D01*
X43997714Y-35536190D01*
X44950095Y-35107619D02*
X44997714Y-35060000D01*
X45092952Y-35012380D01*
X45331047Y-35012380D01*
X45426285Y-35060000D01*
X45473904Y-35107619D01*
X45521523Y-35202857D01*
X45521523Y-35298095D01*
X45473904Y-35440952D01*
X44902476Y-36012380D01*
X45521523Y-36012380D01*
X46378666Y-35345714D02*
X46378666Y-36012380D01*
X46140571Y-34964761D02*
X45902476Y-35679047D01*
X46521523Y-35679047D01*
G04 #@! TO.C,R31*
X96972380Y-85478857D02*
X96496190Y-85812190D01*
X96972380Y-86050285D02*
X95972380Y-86050285D01*
X95972380Y-85669333D01*
X96020000Y-85574095D01*
X96067619Y-85526476D01*
X96162857Y-85478857D01*
X96305714Y-85478857D01*
X96400952Y-85526476D01*
X96448571Y-85574095D01*
X96496190Y-85669333D01*
X96496190Y-86050285D01*
X95972380Y-85145523D02*
X95972380Y-84526476D01*
X96353333Y-84859809D01*
X96353333Y-84716952D01*
X96400952Y-84621714D01*
X96448571Y-84574095D01*
X96543809Y-84526476D01*
X96781904Y-84526476D01*
X96877142Y-84574095D01*
X96924761Y-84621714D01*
X96972380Y-84716952D01*
X96972380Y-85002666D01*
X96924761Y-85097904D01*
X96877142Y-85145523D01*
X96972380Y-83574095D02*
X96972380Y-84145523D01*
X96972380Y-83859809D02*
X95972380Y-83859809D01*
X96115238Y-83955047D01*
X96210476Y-84050285D01*
X96258095Y-84145523D01*
G04 #@! TO.C,R30*
X99512380Y-51950857D02*
X99036190Y-52284190D01*
X99512380Y-52522285D02*
X98512380Y-52522285D01*
X98512380Y-52141333D01*
X98560000Y-52046095D01*
X98607619Y-51998476D01*
X98702857Y-51950857D01*
X98845714Y-51950857D01*
X98940952Y-51998476D01*
X98988571Y-52046095D01*
X99036190Y-52141333D01*
X99036190Y-52522285D01*
X98512380Y-51617523D02*
X98512380Y-50998476D01*
X98893333Y-51331809D01*
X98893333Y-51188952D01*
X98940952Y-51093714D01*
X98988571Y-51046095D01*
X99083809Y-50998476D01*
X99321904Y-50998476D01*
X99417142Y-51046095D01*
X99464761Y-51093714D01*
X99512380Y-51188952D01*
X99512380Y-51474666D01*
X99464761Y-51569904D01*
X99417142Y-51617523D01*
X98512380Y-50379428D02*
X98512380Y-50284190D01*
X98560000Y-50188952D01*
X98607619Y-50141333D01*
X98702857Y-50093714D01*
X98893333Y-50046095D01*
X99131428Y-50046095D01*
X99321904Y-50093714D01*
X99417142Y-50141333D01*
X99464761Y-50188952D01*
X99512380Y-50284190D01*
X99512380Y-50379428D01*
X99464761Y-50474666D01*
X99417142Y-50522285D01*
X99321904Y-50569904D01*
X99131428Y-50617523D01*
X98893333Y-50617523D01*
X98702857Y-50569904D01*
X98607619Y-50522285D01*
X98560000Y-50474666D01*
X98512380Y-50379428D01*
G04 #@! TO.C,R23*
X32885142Y-37790380D02*
X32551809Y-37314190D01*
X32313714Y-37790380D02*
X32313714Y-36790380D01*
X32694666Y-36790380D01*
X32789904Y-36838000D01*
X32837523Y-36885619D01*
X32885142Y-36980857D01*
X32885142Y-37123714D01*
X32837523Y-37218952D01*
X32789904Y-37266571D01*
X32694666Y-37314190D01*
X32313714Y-37314190D01*
X33266095Y-36885619D02*
X33313714Y-36838000D01*
X33408952Y-36790380D01*
X33647047Y-36790380D01*
X33742285Y-36838000D01*
X33789904Y-36885619D01*
X33837523Y-36980857D01*
X33837523Y-37076095D01*
X33789904Y-37218952D01*
X33218476Y-37790380D01*
X33837523Y-37790380D01*
X34170857Y-36790380D02*
X34789904Y-36790380D01*
X34456571Y-37171333D01*
X34599428Y-37171333D01*
X34694666Y-37218952D01*
X34742285Y-37266571D01*
X34789904Y-37361809D01*
X34789904Y-37599904D01*
X34742285Y-37695142D01*
X34694666Y-37742761D01*
X34599428Y-37790380D01*
X34313714Y-37790380D01*
X34218476Y-37742761D01*
X34170857Y-37695142D01*
G04 #@! TO.C,R29*
X96972380Y-51950857D02*
X96496190Y-52284190D01*
X96972380Y-52522285D02*
X95972380Y-52522285D01*
X95972380Y-52141333D01*
X96020000Y-52046095D01*
X96067619Y-51998476D01*
X96162857Y-51950857D01*
X96305714Y-51950857D01*
X96400952Y-51998476D01*
X96448571Y-52046095D01*
X96496190Y-52141333D01*
X96496190Y-52522285D01*
X96067619Y-51569904D02*
X96020000Y-51522285D01*
X95972380Y-51427047D01*
X95972380Y-51188952D01*
X96020000Y-51093714D01*
X96067619Y-51046095D01*
X96162857Y-50998476D01*
X96258095Y-50998476D01*
X96400952Y-51046095D01*
X96972380Y-51617523D01*
X96972380Y-50998476D01*
X96972380Y-50522285D02*
X96972380Y-50331809D01*
X96924761Y-50236571D01*
X96877142Y-50188952D01*
X96734285Y-50093714D01*
X96543809Y-50046095D01*
X96162857Y-50046095D01*
X96067619Y-50093714D01*
X96020000Y-50141333D01*
X95972380Y-50236571D01*
X95972380Y-50427047D01*
X96020000Y-50522285D01*
X96067619Y-50569904D01*
X96162857Y-50617523D01*
X96400952Y-50617523D01*
X96496190Y-50569904D01*
X96543809Y-50522285D01*
X96591428Y-50427047D01*
X96591428Y-50236571D01*
X96543809Y-50141333D01*
X96496190Y-50093714D01*
X96400952Y-50046095D01*
G04 #@! TO.C,R22*
X27043142Y-37790380D02*
X26709809Y-37314190D01*
X26471714Y-37790380D02*
X26471714Y-36790380D01*
X26852666Y-36790380D01*
X26947904Y-36838000D01*
X26995523Y-36885619D01*
X27043142Y-36980857D01*
X27043142Y-37123714D01*
X26995523Y-37218952D01*
X26947904Y-37266571D01*
X26852666Y-37314190D01*
X26471714Y-37314190D01*
X27424095Y-36885619D02*
X27471714Y-36838000D01*
X27566952Y-36790380D01*
X27805047Y-36790380D01*
X27900285Y-36838000D01*
X27947904Y-36885619D01*
X27995523Y-36980857D01*
X27995523Y-37076095D01*
X27947904Y-37218952D01*
X27376476Y-37790380D01*
X27995523Y-37790380D01*
X28376476Y-36885619D02*
X28424095Y-36838000D01*
X28519333Y-36790380D01*
X28757428Y-36790380D01*
X28852666Y-36838000D01*
X28900285Y-36885619D01*
X28947904Y-36980857D01*
X28947904Y-37076095D01*
X28900285Y-37218952D01*
X28328857Y-37790380D01*
X28947904Y-37790380D01*
G04 #@! TO.C,R21*
X19677142Y-37790380D02*
X19343809Y-37314190D01*
X19105714Y-37790380D02*
X19105714Y-36790380D01*
X19486666Y-36790380D01*
X19581904Y-36838000D01*
X19629523Y-36885619D01*
X19677142Y-36980857D01*
X19677142Y-37123714D01*
X19629523Y-37218952D01*
X19581904Y-37266571D01*
X19486666Y-37314190D01*
X19105714Y-37314190D01*
X20058095Y-36885619D02*
X20105714Y-36838000D01*
X20200952Y-36790380D01*
X20439047Y-36790380D01*
X20534285Y-36838000D01*
X20581904Y-36885619D01*
X20629523Y-36980857D01*
X20629523Y-37076095D01*
X20581904Y-37218952D01*
X20010476Y-37790380D01*
X20629523Y-37790380D01*
X21581904Y-37790380D02*
X21010476Y-37790380D01*
X21296190Y-37790380D02*
X21296190Y-36790380D01*
X21200952Y-36933238D01*
X21105714Y-37028476D01*
X21010476Y-37076095D01*
G04 #@! TO.C,R9*
X100671333Y-102560380D02*
X100338000Y-102084190D01*
X100099904Y-102560380D02*
X100099904Y-101560380D01*
X100480857Y-101560380D01*
X100576095Y-101608000D01*
X100623714Y-101655619D01*
X100671333Y-101750857D01*
X100671333Y-101893714D01*
X100623714Y-101988952D01*
X100576095Y-102036571D01*
X100480857Y-102084190D01*
X100099904Y-102084190D01*
X101147523Y-102560380D02*
X101338000Y-102560380D01*
X101433238Y-102512761D01*
X101480857Y-102465142D01*
X101576095Y-102322285D01*
X101623714Y-102131809D01*
X101623714Y-101750857D01*
X101576095Y-101655619D01*
X101528476Y-101608000D01*
X101433238Y-101560380D01*
X101242761Y-101560380D01*
X101147523Y-101608000D01*
X101099904Y-101655619D01*
X101052285Y-101750857D01*
X101052285Y-101988952D01*
X101099904Y-102084190D01*
X101147523Y-102131809D01*
X101242761Y-102179428D01*
X101433238Y-102179428D01*
X101528476Y-102131809D01*
X101576095Y-102084190D01*
X101623714Y-101988952D01*
G04 #@! TO.C,R5*
X100925333Y-92654380D02*
X100592000Y-92178190D01*
X100353904Y-92654380D02*
X100353904Y-91654380D01*
X100734857Y-91654380D01*
X100830095Y-91702000D01*
X100877714Y-91749619D01*
X100925333Y-91844857D01*
X100925333Y-91987714D01*
X100877714Y-92082952D01*
X100830095Y-92130571D01*
X100734857Y-92178190D01*
X100353904Y-92178190D01*
X101830095Y-91654380D02*
X101353904Y-91654380D01*
X101306285Y-92130571D01*
X101353904Y-92082952D01*
X101449142Y-92035333D01*
X101687238Y-92035333D01*
X101782476Y-92082952D01*
X101830095Y-92130571D01*
X101877714Y-92225809D01*
X101877714Y-92463904D01*
X101830095Y-92559142D01*
X101782476Y-92606761D01*
X101687238Y-92654380D01*
X101449142Y-92654380D01*
X101353904Y-92606761D01*
X101306285Y-92559142D01*
G04 #@! TO.C,R8*
X104227333Y-102560380D02*
X103894000Y-102084190D01*
X103655904Y-102560380D02*
X103655904Y-101560380D01*
X104036857Y-101560380D01*
X104132095Y-101608000D01*
X104179714Y-101655619D01*
X104227333Y-101750857D01*
X104227333Y-101893714D01*
X104179714Y-101988952D01*
X104132095Y-102036571D01*
X104036857Y-102084190D01*
X103655904Y-102084190D01*
X104798761Y-101988952D02*
X104703523Y-101941333D01*
X104655904Y-101893714D01*
X104608285Y-101798476D01*
X104608285Y-101750857D01*
X104655904Y-101655619D01*
X104703523Y-101608000D01*
X104798761Y-101560380D01*
X104989238Y-101560380D01*
X105084476Y-101608000D01*
X105132095Y-101655619D01*
X105179714Y-101750857D01*
X105179714Y-101798476D01*
X105132095Y-101893714D01*
X105084476Y-101941333D01*
X104989238Y-101988952D01*
X104798761Y-101988952D01*
X104703523Y-102036571D01*
X104655904Y-102084190D01*
X104608285Y-102179428D01*
X104608285Y-102369904D01*
X104655904Y-102465142D01*
X104703523Y-102512761D01*
X104798761Y-102560380D01*
X104989238Y-102560380D01*
X105084476Y-102512761D01*
X105132095Y-102465142D01*
X105179714Y-102369904D01*
X105179714Y-102179428D01*
X105132095Y-102084190D01*
X105084476Y-102036571D01*
X104989238Y-101988952D01*
G04 #@! TO.C,R4*
X107021333Y-91130380D02*
X106688000Y-90654190D01*
X106449904Y-91130380D02*
X106449904Y-90130380D01*
X106830857Y-90130380D01*
X106926095Y-90178000D01*
X106973714Y-90225619D01*
X107021333Y-90320857D01*
X107021333Y-90463714D01*
X106973714Y-90558952D01*
X106926095Y-90606571D01*
X106830857Y-90654190D01*
X106449904Y-90654190D01*
X107878476Y-90463714D02*
X107878476Y-91130380D01*
X107640380Y-90082761D02*
X107402285Y-90797047D01*
X108021333Y-90797047D01*
G04 #@! TO.C,R14*
X65143142Y-95702380D02*
X64809809Y-95226190D01*
X64571714Y-95702380D02*
X64571714Y-94702380D01*
X64952666Y-94702380D01*
X65047904Y-94750000D01*
X65095523Y-94797619D01*
X65143142Y-94892857D01*
X65143142Y-95035714D01*
X65095523Y-95130952D01*
X65047904Y-95178571D01*
X64952666Y-95226190D01*
X64571714Y-95226190D01*
X66095523Y-95702380D02*
X65524095Y-95702380D01*
X65809809Y-95702380D02*
X65809809Y-94702380D01*
X65714571Y-94845238D01*
X65619333Y-94940476D01*
X65524095Y-94988095D01*
X66952666Y-95035714D02*
X66952666Y-95702380D01*
X66714571Y-94654761D02*
X66476476Y-95369047D01*
X67095523Y-95369047D01*
G04 #@! TO.C,R15*
X68445142Y-95702380D02*
X68111809Y-95226190D01*
X67873714Y-95702380D02*
X67873714Y-94702380D01*
X68254666Y-94702380D01*
X68349904Y-94750000D01*
X68397523Y-94797619D01*
X68445142Y-94892857D01*
X68445142Y-95035714D01*
X68397523Y-95130952D01*
X68349904Y-95178571D01*
X68254666Y-95226190D01*
X67873714Y-95226190D01*
X69397523Y-95702380D02*
X68826095Y-95702380D01*
X69111809Y-95702380D02*
X69111809Y-94702380D01*
X69016571Y-94845238D01*
X68921333Y-94940476D01*
X68826095Y-94988095D01*
X70302285Y-94702380D02*
X69826095Y-94702380D01*
X69778476Y-95178571D01*
X69826095Y-95130952D01*
X69921333Y-95083333D01*
X70159428Y-95083333D01*
X70254666Y-95130952D01*
X70302285Y-95178571D01*
X70349904Y-95273809D01*
X70349904Y-95511904D01*
X70302285Y-95607142D01*
X70254666Y-95654761D01*
X70159428Y-95702380D01*
X69921333Y-95702380D01*
X69826095Y-95654761D01*
X69778476Y-95607142D01*
G04 #@! TO.C,R13*
X78605142Y-95702380D02*
X78271809Y-95226190D01*
X78033714Y-95702380D02*
X78033714Y-94702380D01*
X78414666Y-94702380D01*
X78509904Y-94750000D01*
X78557523Y-94797619D01*
X78605142Y-94892857D01*
X78605142Y-95035714D01*
X78557523Y-95130952D01*
X78509904Y-95178571D01*
X78414666Y-95226190D01*
X78033714Y-95226190D01*
X79557523Y-95702380D02*
X78986095Y-95702380D01*
X79271809Y-95702380D02*
X79271809Y-94702380D01*
X79176571Y-94845238D01*
X79081333Y-94940476D01*
X78986095Y-94988095D01*
X79890857Y-94702380D02*
X80509904Y-94702380D01*
X80176571Y-95083333D01*
X80319428Y-95083333D01*
X80414666Y-95130952D01*
X80462285Y-95178571D01*
X80509904Y-95273809D01*
X80509904Y-95511904D01*
X80462285Y-95607142D01*
X80414666Y-95654761D01*
X80319428Y-95702380D01*
X80033714Y-95702380D01*
X79938476Y-95654761D01*
X79890857Y-95607142D01*
G04 #@! TO.C,R10*
X88511142Y-110180380D02*
X88177809Y-109704190D01*
X87939714Y-110180380D02*
X87939714Y-109180380D01*
X88320666Y-109180380D01*
X88415904Y-109228000D01*
X88463523Y-109275619D01*
X88511142Y-109370857D01*
X88511142Y-109513714D01*
X88463523Y-109608952D01*
X88415904Y-109656571D01*
X88320666Y-109704190D01*
X87939714Y-109704190D01*
X89463523Y-110180380D02*
X88892095Y-110180380D01*
X89177809Y-110180380D02*
X89177809Y-109180380D01*
X89082571Y-109323238D01*
X88987333Y-109418476D01*
X88892095Y-109466095D01*
X90082571Y-109180380D02*
X90177809Y-109180380D01*
X90273047Y-109228000D01*
X90320666Y-109275619D01*
X90368285Y-109370857D01*
X90415904Y-109561333D01*
X90415904Y-109799428D01*
X90368285Y-109989904D01*
X90320666Y-110085142D01*
X90273047Y-110132761D01*
X90177809Y-110180380D01*
X90082571Y-110180380D01*
X89987333Y-110132761D01*
X89939714Y-110085142D01*
X89892095Y-109989904D01*
X89844476Y-109799428D01*
X89844476Y-109561333D01*
X89892095Y-109370857D01*
X89939714Y-109275619D01*
X89987333Y-109228000D01*
X90082571Y-109180380D01*
G04 #@! TO.C,R1*
X19137333Y-81986380D02*
X18804000Y-81510190D01*
X18565904Y-81986380D02*
X18565904Y-80986380D01*
X18946857Y-80986380D01*
X19042095Y-81034000D01*
X19089714Y-81081619D01*
X19137333Y-81176857D01*
X19137333Y-81319714D01*
X19089714Y-81414952D01*
X19042095Y-81462571D01*
X18946857Y-81510190D01*
X18565904Y-81510190D01*
X20089714Y-81986380D02*
X19518285Y-81986380D01*
X19804000Y-81986380D02*
X19804000Y-80986380D01*
X19708761Y-81129238D01*
X19613523Y-81224476D01*
X19518285Y-81272095D01*
G04 #@! TO.C,R7*
X110831333Y-94178380D02*
X110498000Y-93702190D01*
X110259904Y-94178380D02*
X110259904Y-93178380D01*
X110640857Y-93178380D01*
X110736095Y-93226000D01*
X110783714Y-93273619D01*
X110831333Y-93368857D01*
X110831333Y-93511714D01*
X110783714Y-93606952D01*
X110736095Y-93654571D01*
X110640857Y-93702190D01*
X110259904Y-93702190D01*
X111164666Y-93178380D02*
X111831333Y-93178380D01*
X111402761Y-94178380D01*
G04 #@! TO.C,R3*
X90511333Y-94686380D02*
X90178000Y-94210190D01*
X89939904Y-94686380D02*
X89939904Y-93686380D01*
X90320857Y-93686380D01*
X90416095Y-93734000D01*
X90463714Y-93781619D01*
X90511333Y-93876857D01*
X90511333Y-94019714D01*
X90463714Y-94114952D01*
X90416095Y-94162571D01*
X90320857Y-94210190D01*
X89939904Y-94210190D01*
X90844666Y-93686380D02*
X91463714Y-93686380D01*
X91130380Y-94067333D01*
X91273238Y-94067333D01*
X91368476Y-94114952D01*
X91416095Y-94162571D01*
X91463714Y-94257809D01*
X91463714Y-94495904D01*
X91416095Y-94591142D01*
X91368476Y-94638761D01*
X91273238Y-94686380D01*
X90987523Y-94686380D01*
X90892285Y-94638761D01*
X90844666Y-94591142D01*
G04 #@! TO.C,R12*
X75557142Y-95702380D02*
X75223809Y-95226190D01*
X74985714Y-95702380D02*
X74985714Y-94702380D01*
X75366666Y-94702380D01*
X75461904Y-94750000D01*
X75509523Y-94797619D01*
X75557142Y-94892857D01*
X75557142Y-95035714D01*
X75509523Y-95130952D01*
X75461904Y-95178571D01*
X75366666Y-95226190D01*
X74985714Y-95226190D01*
X76509523Y-95702380D02*
X75938095Y-95702380D01*
X76223809Y-95702380D02*
X76223809Y-94702380D01*
X76128571Y-94845238D01*
X76033333Y-94940476D01*
X75938095Y-94988095D01*
X76890476Y-94797619D02*
X76938095Y-94750000D01*
X77033333Y-94702380D01*
X77271428Y-94702380D01*
X77366666Y-94750000D01*
X77414285Y-94797619D01*
X77461904Y-94892857D01*
X77461904Y-94988095D01*
X77414285Y-95130952D01*
X76842857Y-95702380D01*
X77461904Y-95702380D01*
G04 #@! TO.C,R11*
X91559142Y-110180380D02*
X91225809Y-109704190D01*
X90987714Y-110180380D02*
X90987714Y-109180380D01*
X91368666Y-109180380D01*
X91463904Y-109228000D01*
X91511523Y-109275619D01*
X91559142Y-109370857D01*
X91559142Y-109513714D01*
X91511523Y-109608952D01*
X91463904Y-109656571D01*
X91368666Y-109704190D01*
X90987714Y-109704190D01*
X92511523Y-110180380D02*
X91940095Y-110180380D01*
X92225809Y-110180380D02*
X92225809Y-109180380D01*
X92130571Y-109323238D01*
X92035333Y-109418476D01*
X91940095Y-109466095D01*
X93463904Y-110180380D02*
X92892476Y-110180380D01*
X93178190Y-110180380D02*
X93178190Y-109180380D01*
X93082952Y-109323238D01*
X92987714Y-109418476D01*
X92892476Y-109466095D01*
G04 #@! TO.C,R6*
X114387333Y-94178380D02*
X114054000Y-93702190D01*
X113815904Y-94178380D02*
X113815904Y-93178380D01*
X114196857Y-93178380D01*
X114292095Y-93226000D01*
X114339714Y-93273619D01*
X114387333Y-93368857D01*
X114387333Y-93511714D01*
X114339714Y-93606952D01*
X114292095Y-93654571D01*
X114196857Y-93702190D01*
X113815904Y-93702190D01*
X115244476Y-93178380D02*
X115054000Y-93178380D01*
X114958761Y-93226000D01*
X114911142Y-93273619D01*
X114815904Y-93416476D01*
X114768285Y-93606952D01*
X114768285Y-93987904D01*
X114815904Y-94083142D01*
X114863523Y-94130761D01*
X114958761Y-94178380D01*
X115149238Y-94178380D01*
X115244476Y-94130761D01*
X115292095Y-94083142D01*
X115339714Y-93987904D01*
X115339714Y-93749809D01*
X115292095Y-93654571D01*
X115244476Y-93606952D01*
X115149238Y-93559333D01*
X114958761Y-93559333D01*
X114863523Y-93606952D01*
X114815904Y-93654571D01*
X114768285Y-93749809D01*
G04 #@! TO.C,R2*
X94067333Y-94686380D02*
X93734000Y-94210190D01*
X93495904Y-94686380D02*
X93495904Y-93686380D01*
X93876857Y-93686380D01*
X93972095Y-93734000D01*
X94019714Y-93781619D01*
X94067333Y-93876857D01*
X94067333Y-94019714D01*
X94019714Y-94114952D01*
X93972095Y-94162571D01*
X93876857Y-94210190D01*
X93495904Y-94210190D01*
X94448285Y-93781619D02*
X94495904Y-93734000D01*
X94591142Y-93686380D01*
X94829238Y-93686380D01*
X94924476Y-93734000D01*
X94972095Y-93781619D01*
X95019714Y-93876857D01*
X95019714Y-93972095D01*
X94972095Y-94114952D01*
X94400666Y-94686380D01*
X95019714Y-94686380D01*
G04 #@! TO.C,J2*
X44624666Y-83272380D02*
X44624666Y-83986666D01*
X44577047Y-84129523D01*
X44481809Y-84224761D01*
X44338952Y-84272380D01*
X44243714Y-84272380D01*
X45053238Y-83367619D02*
X45100857Y-83320000D01*
X45196095Y-83272380D01*
X45434190Y-83272380D01*
X45529428Y-83320000D01*
X45577047Y-83367619D01*
X45624666Y-83462857D01*
X45624666Y-83558095D01*
X45577047Y-83700952D01*
X45005619Y-84272380D01*
X45624666Y-84272380D01*
G04 #@! TO.C,J1*
X19224666Y-83272380D02*
X19224666Y-83986666D01*
X19177047Y-84129523D01*
X19081809Y-84224761D01*
X18938952Y-84272380D01*
X18843714Y-84272380D01*
X20224666Y-84272380D02*
X19653238Y-84272380D01*
X19938952Y-84272380D02*
X19938952Y-83272380D01*
X19843714Y-83415238D01*
X19748476Y-83510476D01*
X19653238Y-83558095D01*
G04 #@! TO.C,J6*
X61134666Y-93202380D02*
X61134666Y-93916666D01*
X61087047Y-94059523D01*
X60991809Y-94154761D01*
X60848952Y-94202380D01*
X60753714Y-94202380D01*
X62039428Y-93202380D02*
X61848952Y-93202380D01*
X61753714Y-93250000D01*
X61706095Y-93297619D01*
X61610857Y-93440476D01*
X61563238Y-93630952D01*
X61563238Y-94011904D01*
X61610857Y-94107142D01*
X61658476Y-94154761D01*
X61753714Y-94202380D01*
X61944190Y-94202380D01*
X62039428Y-94154761D01*
X62087047Y-94107142D01*
X62134666Y-94011904D01*
X62134666Y-93773809D01*
X62087047Y-93678571D01*
X62039428Y-93630952D01*
X61944190Y-93583333D01*
X61753714Y-93583333D01*
X61658476Y-93630952D01*
X61610857Y-93678571D01*
X61563238Y-93773809D01*
G04 #@! TO.C,J5*
X57578666Y-93202380D02*
X57578666Y-93916666D01*
X57531047Y-94059523D01*
X57435809Y-94154761D01*
X57292952Y-94202380D01*
X57197714Y-94202380D01*
X58531047Y-93202380D02*
X58054857Y-93202380D01*
X58007238Y-93678571D01*
X58054857Y-93630952D01*
X58150095Y-93583333D01*
X58388190Y-93583333D01*
X58483428Y-93630952D01*
X58531047Y-93678571D01*
X58578666Y-93773809D01*
X58578666Y-94011904D01*
X58531047Y-94107142D01*
X58483428Y-94154761D01*
X58388190Y-94202380D01*
X58150095Y-94202380D01*
X58054857Y-94154761D01*
X58007238Y-94107142D01*
G04 #@! TO.C,J4*
X54022666Y-93202380D02*
X54022666Y-93916666D01*
X53975047Y-94059523D01*
X53879809Y-94154761D01*
X53736952Y-94202380D01*
X53641714Y-94202380D01*
X54927428Y-93535714D02*
X54927428Y-94202380D01*
X54689333Y-93154761D02*
X54451238Y-93869047D01*
X55070285Y-93869047D01*
G04 #@! TO.C,J3*
X50466666Y-93202380D02*
X50466666Y-93916666D01*
X50419047Y-94059523D01*
X50323809Y-94154761D01*
X50180952Y-94202380D01*
X50085714Y-94202380D01*
X50847619Y-93202380D02*
X51466666Y-93202380D01*
X51133333Y-93583333D01*
X51276190Y-93583333D01*
X51371428Y-93630952D01*
X51419047Y-93678571D01*
X51466666Y-93773809D01*
X51466666Y-94011904D01*
X51419047Y-94107142D01*
X51371428Y-94154761D01*
X51276190Y-94202380D01*
X50990476Y-94202380D01*
X50895238Y-94154761D01*
X50847619Y-94107142D01*
G04 #@! TO.C,DS1*
X87828380Y-69286285D02*
X86828380Y-69286285D01*
X86828380Y-69048190D01*
X86876000Y-68905333D01*
X86971238Y-68810095D01*
X87066476Y-68762476D01*
X87256952Y-68714857D01*
X87399809Y-68714857D01*
X87590285Y-68762476D01*
X87685523Y-68810095D01*
X87780761Y-68905333D01*
X87828380Y-69048190D01*
X87828380Y-69286285D01*
X87780761Y-68333904D02*
X87828380Y-68191047D01*
X87828380Y-67952952D01*
X87780761Y-67857714D01*
X87733142Y-67810095D01*
X87637904Y-67762476D01*
X87542666Y-67762476D01*
X87447428Y-67810095D01*
X87399809Y-67857714D01*
X87352190Y-67952952D01*
X87304571Y-68143428D01*
X87256952Y-68238666D01*
X87209333Y-68286285D01*
X87114095Y-68333904D01*
X87018857Y-68333904D01*
X86923619Y-68286285D01*
X86876000Y-68238666D01*
X86828380Y-68143428D01*
X86828380Y-67905333D01*
X86876000Y-67762476D01*
X87828380Y-66810095D02*
X87828380Y-67381523D01*
X87828380Y-67095809D02*
X86828380Y-67095809D01*
X86971238Y-67191047D01*
X87066476Y-67286285D01*
X87114095Y-67381523D01*
G04 #@! TO.C,D17*
X111307714Y-25090380D02*
X111307714Y-24090380D01*
X111545809Y-24090380D01*
X111688666Y-24138000D01*
X111783904Y-24233238D01*
X111831523Y-24328476D01*
X111879142Y-24518952D01*
X111879142Y-24661809D01*
X111831523Y-24852285D01*
X111783904Y-24947523D01*
X111688666Y-25042761D01*
X111545809Y-25090380D01*
X111307714Y-25090380D01*
X112831523Y-25090380D02*
X112260095Y-25090380D01*
X112545809Y-25090380D02*
X112545809Y-24090380D01*
X112450571Y-24233238D01*
X112355333Y-24328476D01*
X112260095Y-24376095D01*
X113164857Y-24090380D02*
X113831523Y-24090380D01*
X113402952Y-25090380D01*
G04 #@! TO.C,D16*
X67873714Y-32202380D02*
X67873714Y-31202380D01*
X68111809Y-31202380D01*
X68254666Y-31250000D01*
X68349904Y-31345238D01*
X68397523Y-31440476D01*
X68445142Y-31630952D01*
X68445142Y-31773809D01*
X68397523Y-31964285D01*
X68349904Y-32059523D01*
X68254666Y-32154761D01*
X68111809Y-32202380D01*
X67873714Y-32202380D01*
X69397523Y-32202380D02*
X68826095Y-32202380D01*
X69111809Y-32202380D02*
X69111809Y-31202380D01*
X69016571Y-31345238D01*
X68921333Y-31440476D01*
X68826095Y-31488095D01*
X70254666Y-31202380D02*
X70064190Y-31202380D01*
X69968952Y-31250000D01*
X69921333Y-31297619D01*
X69826095Y-31440476D01*
X69778476Y-31630952D01*
X69778476Y-32011904D01*
X69826095Y-32107142D01*
X69873714Y-32154761D01*
X69968952Y-32202380D01*
X70159428Y-32202380D01*
X70254666Y-32154761D01*
X70302285Y-32107142D01*
X70349904Y-32011904D01*
X70349904Y-31773809D01*
X70302285Y-31678571D01*
X70254666Y-31630952D01*
X70159428Y-31583333D01*
X69968952Y-31583333D01*
X69873714Y-31630952D01*
X69826095Y-31678571D01*
X69778476Y-31773809D01*
G04 #@! TO.C,D15*
X60507714Y-32202380D02*
X60507714Y-31202380D01*
X60745809Y-31202380D01*
X60888666Y-31250000D01*
X60983904Y-31345238D01*
X61031523Y-31440476D01*
X61079142Y-31630952D01*
X61079142Y-31773809D01*
X61031523Y-31964285D01*
X60983904Y-32059523D01*
X60888666Y-32154761D01*
X60745809Y-32202380D01*
X60507714Y-32202380D01*
X62031523Y-32202380D02*
X61460095Y-32202380D01*
X61745809Y-32202380D02*
X61745809Y-31202380D01*
X61650571Y-31345238D01*
X61555333Y-31440476D01*
X61460095Y-31488095D01*
X62936285Y-31202380D02*
X62460095Y-31202380D01*
X62412476Y-31678571D01*
X62460095Y-31630952D01*
X62555333Y-31583333D01*
X62793428Y-31583333D01*
X62888666Y-31630952D01*
X62936285Y-31678571D01*
X62983904Y-31773809D01*
X62983904Y-32011904D01*
X62936285Y-32107142D01*
X62888666Y-32154761D01*
X62793428Y-32202380D01*
X62555333Y-32202380D01*
X62460095Y-32154761D01*
X62412476Y-32107142D01*
G04 #@! TO.C,D14*
X53141714Y-32202380D02*
X53141714Y-31202380D01*
X53379809Y-31202380D01*
X53522666Y-31250000D01*
X53617904Y-31345238D01*
X53665523Y-31440476D01*
X53713142Y-31630952D01*
X53713142Y-31773809D01*
X53665523Y-31964285D01*
X53617904Y-32059523D01*
X53522666Y-32154761D01*
X53379809Y-32202380D01*
X53141714Y-32202380D01*
X54665523Y-32202380D02*
X54094095Y-32202380D01*
X54379809Y-32202380D02*
X54379809Y-31202380D01*
X54284571Y-31345238D01*
X54189333Y-31440476D01*
X54094095Y-31488095D01*
X55522666Y-31535714D02*
X55522666Y-32202380D01*
X55284571Y-31154761D02*
X55046476Y-31869047D01*
X55665523Y-31869047D01*
G04 #@! TO.C,D13*
X45775714Y-32202380D02*
X45775714Y-31202380D01*
X46013809Y-31202380D01*
X46156666Y-31250000D01*
X46251904Y-31345238D01*
X46299523Y-31440476D01*
X46347142Y-31630952D01*
X46347142Y-31773809D01*
X46299523Y-31964285D01*
X46251904Y-32059523D01*
X46156666Y-32154761D01*
X46013809Y-32202380D01*
X45775714Y-32202380D01*
X47299523Y-32202380D02*
X46728095Y-32202380D01*
X47013809Y-32202380D02*
X47013809Y-31202380D01*
X46918571Y-31345238D01*
X46823333Y-31440476D01*
X46728095Y-31488095D01*
X47632857Y-31202380D02*
X48251904Y-31202380D01*
X47918571Y-31583333D01*
X48061428Y-31583333D01*
X48156666Y-31630952D01*
X48204285Y-31678571D01*
X48251904Y-31773809D01*
X48251904Y-32011904D01*
X48204285Y-32107142D01*
X48156666Y-32154761D01*
X48061428Y-32202380D01*
X47775714Y-32202380D01*
X47680476Y-32154761D01*
X47632857Y-32107142D01*
G04 #@! TO.C,D12*
X38409714Y-32202380D02*
X38409714Y-31202380D01*
X38647809Y-31202380D01*
X38790666Y-31250000D01*
X38885904Y-31345238D01*
X38933523Y-31440476D01*
X38981142Y-31630952D01*
X38981142Y-31773809D01*
X38933523Y-31964285D01*
X38885904Y-32059523D01*
X38790666Y-32154761D01*
X38647809Y-32202380D01*
X38409714Y-32202380D01*
X39933523Y-32202380D02*
X39362095Y-32202380D01*
X39647809Y-32202380D02*
X39647809Y-31202380D01*
X39552571Y-31345238D01*
X39457333Y-31440476D01*
X39362095Y-31488095D01*
X40314476Y-31297619D02*
X40362095Y-31250000D01*
X40457333Y-31202380D01*
X40695428Y-31202380D01*
X40790666Y-31250000D01*
X40838285Y-31297619D01*
X40885904Y-31392857D01*
X40885904Y-31488095D01*
X40838285Y-31630952D01*
X40266857Y-32202380D01*
X40885904Y-32202380D01*
G04 #@! TO.C,D11*
X31297714Y-32202380D02*
X31297714Y-31202380D01*
X31535809Y-31202380D01*
X31678666Y-31250000D01*
X31773904Y-31345238D01*
X31821523Y-31440476D01*
X31869142Y-31630952D01*
X31869142Y-31773809D01*
X31821523Y-31964285D01*
X31773904Y-32059523D01*
X31678666Y-32154761D01*
X31535809Y-32202380D01*
X31297714Y-32202380D01*
X32821523Y-32202380D02*
X32250095Y-32202380D01*
X32535809Y-32202380D02*
X32535809Y-31202380D01*
X32440571Y-31345238D01*
X32345333Y-31440476D01*
X32250095Y-31488095D01*
X33773904Y-32202380D02*
X33202476Y-32202380D01*
X33488190Y-32202380D02*
X33488190Y-31202380D01*
X33392952Y-31345238D01*
X33297714Y-31440476D01*
X33202476Y-31488095D01*
G04 #@! TO.C,D10*
X23677714Y-32202380D02*
X23677714Y-31202380D01*
X23915809Y-31202380D01*
X24058666Y-31250000D01*
X24153904Y-31345238D01*
X24201523Y-31440476D01*
X24249142Y-31630952D01*
X24249142Y-31773809D01*
X24201523Y-31964285D01*
X24153904Y-32059523D01*
X24058666Y-32154761D01*
X23915809Y-32202380D01*
X23677714Y-32202380D01*
X25201523Y-32202380D02*
X24630095Y-32202380D01*
X24915809Y-32202380D02*
X24915809Y-31202380D01*
X24820571Y-31345238D01*
X24725333Y-31440476D01*
X24630095Y-31488095D01*
X25820571Y-31202380D02*
X25915809Y-31202380D01*
X26011047Y-31250000D01*
X26058666Y-31297619D01*
X26106285Y-31392857D01*
X26153904Y-31583333D01*
X26153904Y-31821428D01*
X26106285Y-32011904D01*
X26058666Y-32107142D01*
X26011047Y-32154761D01*
X25915809Y-32202380D01*
X25820571Y-32202380D01*
X25725333Y-32154761D01*
X25677714Y-32107142D01*
X25630095Y-32011904D01*
X25582476Y-31821428D01*
X25582476Y-31583333D01*
X25630095Y-31392857D01*
X25677714Y-31297619D01*
X25725333Y-31250000D01*
X25820571Y-31202380D01*
G04 #@! TO.C,D9*
X17041904Y-32202380D02*
X17041904Y-31202380D01*
X17280000Y-31202380D01*
X17422857Y-31250000D01*
X17518095Y-31345238D01*
X17565714Y-31440476D01*
X17613333Y-31630952D01*
X17613333Y-31773809D01*
X17565714Y-31964285D01*
X17518095Y-32059523D01*
X17422857Y-32154761D01*
X17280000Y-32202380D01*
X17041904Y-32202380D01*
X18089523Y-32202380D02*
X18280000Y-32202380D01*
X18375238Y-32154761D01*
X18422857Y-32107142D01*
X18518095Y-31964285D01*
X18565714Y-31773809D01*
X18565714Y-31392857D01*
X18518095Y-31297619D01*
X18470476Y-31250000D01*
X18375238Y-31202380D01*
X18184761Y-31202380D01*
X18089523Y-31250000D01*
X18041904Y-31297619D01*
X17994285Y-31392857D01*
X17994285Y-31630952D01*
X18041904Y-31726190D01*
X18089523Y-31773809D01*
X18184761Y-31821428D01*
X18375238Y-31821428D01*
X18470476Y-31773809D01*
X18518095Y-31726190D01*
X18565714Y-31630952D01*
G04 #@! TO.C,C5*
X97115333Y-102465142D02*
X97067714Y-102512761D01*
X96924857Y-102560380D01*
X96829619Y-102560380D01*
X96686761Y-102512761D01*
X96591523Y-102417523D01*
X96543904Y-102322285D01*
X96496285Y-102131809D01*
X96496285Y-101988952D01*
X96543904Y-101798476D01*
X96591523Y-101703238D01*
X96686761Y-101608000D01*
X96829619Y-101560380D01*
X96924857Y-101560380D01*
X97067714Y-101608000D01*
X97115333Y-101655619D01*
X98020095Y-101560380D02*
X97543904Y-101560380D01*
X97496285Y-102036571D01*
X97543904Y-101988952D01*
X97639142Y-101941333D01*
X97877238Y-101941333D01*
X97972476Y-101988952D01*
X98020095Y-102036571D01*
X98067714Y-102131809D01*
X98067714Y-102369904D01*
X98020095Y-102465142D01*
X97972476Y-102512761D01*
X97877238Y-102560380D01*
X97639142Y-102560380D01*
X97543904Y-102512761D01*
X97496285Y-102465142D01*
G04 #@! TO.C,C3*
X94575333Y-90527142D02*
X94527714Y-90574761D01*
X94384857Y-90622380D01*
X94289619Y-90622380D01*
X94146761Y-90574761D01*
X94051523Y-90479523D01*
X94003904Y-90384285D01*
X93956285Y-90193809D01*
X93956285Y-90050952D01*
X94003904Y-89860476D01*
X94051523Y-89765238D01*
X94146761Y-89670000D01*
X94289619Y-89622380D01*
X94384857Y-89622380D01*
X94527714Y-89670000D01*
X94575333Y-89717619D01*
X94908666Y-89622380D02*
X95527714Y-89622380D01*
X95194380Y-90003333D01*
X95337238Y-90003333D01*
X95432476Y-90050952D01*
X95480095Y-90098571D01*
X95527714Y-90193809D01*
X95527714Y-90431904D01*
X95480095Y-90527142D01*
X95432476Y-90574761D01*
X95337238Y-90622380D01*
X95051523Y-90622380D01*
X94956285Y-90574761D01*
X94908666Y-90527142D01*
G04 #@! TO.C,C1*
X81113333Y-30583142D02*
X81065714Y-30630761D01*
X80922857Y-30678380D01*
X80827619Y-30678380D01*
X80684761Y-30630761D01*
X80589523Y-30535523D01*
X80541904Y-30440285D01*
X80494285Y-30249809D01*
X80494285Y-30106952D01*
X80541904Y-29916476D01*
X80589523Y-29821238D01*
X80684761Y-29726000D01*
X80827619Y-29678380D01*
X80922857Y-29678380D01*
X81065714Y-29726000D01*
X81113333Y-29773619D01*
X82065714Y-30678380D02*
X81494285Y-30678380D01*
X81780000Y-30678380D02*
X81780000Y-29678380D01*
X81684761Y-29821238D01*
X81589523Y-29916476D01*
X81494285Y-29964095D01*
G04 #@! TO.C,C8*
X71969333Y-95607142D02*
X71921714Y-95654761D01*
X71778857Y-95702380D01*
X71683619Y-95702380D01*
X71540761Y-95654761D01*
X71445523Y-95559523D01*
X71397904Y-95464285D01*
X71350285Y-95273809D01*
X71350285Y-95130952D01*
X71397904Y-94940476D01*
X71445523Y-94845238D01*
X71540761Y-94750000D01*
X71683619Y-94702380D01*
X71778857Y-94702380D01*
X71921714Y-94750000D01*
X71969333Y-94797619D01*
X72540761Y-95130952D02*
X72445523Y-95083333D01*
X72397904Y-95035714D01*
X72350285Y-94940476D01*
X72350285Y-94892857D01*
X72397904Y-94797619D01*
X72445523Y-94750000D01*
X72540761Y-94702380D01*
X72731238Y-94702380D01*
X72826476Y-94750000D01*
X72874095Y-94797619D01*
X72921714Y-94892857D01*
X72921714Y-94940476D01*
X72874095Y-95035714D01*
X72826476Y-95083333D01*
X72731238Y-95130952D01*
X72540761Y-95130952D01*
X72445523Y-95178571D01*
X72397904Y-95226190D01*
X72350285Y-95321428D01*
X72350285Y-95511904D01*
X72397904Y-95607142D01*
X72445523Y-95654761D01*
X72540761Y-95702380D01*
X72731238Y-95702380D01*
X72826476Y-95654761D01*
X72874095Y-95607142D01*
X72921714Y-95511904D01*
X72921714Y-95321428D01*
X72874095Y-95226190D01*
X72826476Y-95178571D01*
X72731238Y-95130952D01*
G04 #@! TO.C,C4*
X107275333Y-94083142D02*
X107227714Y-94130761D01*
X107084857Y-94178380D01*
X106989619Y-94178380D01*
X106846761Y-94130761D01*
X106751523Y-94035523D01*
X106703904Y-93940285D01*
X106656285Y-93749809D01*
X106656285Y-93606952D01*
X106703904Y-93416476D01*
X106751523Y-93321238D01*
X106846761Y-93226000D01*
X106989619Y-93178380D01*
X107084857Y-93178380D01*
X107227714Y-93226000D01*
X107275333Y-93273619D01*
X108132476Y-93511714D02*
X108132476Y-94178380D01*
X107894380Y-93130761D02*
X107656285Y-93845047D01*
X108275333Y-93845047D01*
G04 #@! TO.C,C2*
X86955333Y-94591142D02*
X86907714Y-94638761D01*
X86764857Y-94686380D01*
X86669619Y-94686380D01*
X86526761Y-94638761D01*
X86431523Y-94543523D01*
X86383904Y-94448285D01*
X86336285Y-94257809D01*
X86336285Y-94114952D01*
X86383904Y-93924476D01*
X86431523Y-93829238D01*
X86526761Y-93734000D01*
X86669619Y-93686380D01*
X86764857Y-93686380D01*
X86907714Y-93734000D01*
X86955333Y-93781619D01*
X87336285Y-93781619D02*
X87383904Y-93734000D01*
X87479142Y-93686380D01*
X87717238Y-93686380D01*
X87812476Y-93734000D01*
X87860095Y-93781619D01*
X87907714Y-93876857D01*
X87907714Y-93972095D01*
X87860095Y-94114952D01*
X87288666Y-94686380D01*
X87907714Y-94686380D01*
G04 #@! TO.C,C7*
X82129333Y-95607142D02*
X82081714Y-95654761D01*
X81938857Y-95702380D01*
X81843619Y-95702380D01*
X81700761Y-95654761D01*
X81605523Y-95559523D01*
X81557904Y-95464285D01*
X81510285Y-95273809D01*
X81510285Y-95130952D01*
X81557904Y-94940476D01*
X81605523Y-94845238D01*
X81700761Y-94750000D01*
X81843619Y-94702380D01*
X81938857Y-94702380D01*
X82081714Y-94750000D01*
X82129333Y-94797619D01*
X82462666Y-94702380D02*
X83129333Y-94702380D01*
X82700761Y-95702380D01*
G04 #@! TO.C,C6*
X85939333Y-110085142D02*
X85891714Y-110132761D01*
X85748857Y-110180380D01*
X85653619Y-110180380D01*
X85510761Y-110132761D01*
X85415523Y-110037523D01*
X85367904Y-109942285D01*
X85320285Y-109751809D01*
X85320285Y-109608952D01*
X85367904Y-109418476D01*
X85415523Y-109323238D01*
X85510761Y-109228000D01*
X85653619Y-109180380D01*
X85748857Y-109180380D01*
X85891714Y-109228000D01*
X85939333Y-109275619D01*
X86796476Y-109180380D02*
X86606000Y-109180380D01*
X86510761Y-109228000D01*
X86463142Y-109275619D01*
X86367904Y-109418476D01*
X86320285Y-109608952D01*
X86320285Y-109989904D01*
X86367904Y-110085142D01*
X86415523Y-110132761D01*
X86510761Y-110180380D01*
X86701238Y-110180380D01*
X86796476Y-110132761D01*
X86844095Y-110085142D01*
X86891714Y-109989904D01*
X86891714Y-109751809D01*
X86844095Y-109656571D01*
X86796476Y-109608952D01*
X86701238Y-109561333D01*
X86510761Y-109561333D01*
X86415523Y-109608952D01*
X86367904Y-109656571D01*
X86320285Y-109751809D01*
G04 #@! TO.C,A1*
X31289714Y-71540666D02*
X31765904Y-71540666D01*
X31194476Y-71826380D02*
X31527809Y-70826380D01*
X31861142Y-71826380D01*
X32718285Y-71826380D02*
X32146857Y-71826380D01*
X32432571Y-71826380D02*
X32432571Y-70826380D01*
X32337333Y-70969238D01*
X32242095Y-71064476D01*
X32146857Y-71112095D01*
G04 #@! TD*
M02*
