M48
; DRILL file {KiCad (5.1.6)-1} date 08/14/20 22:04:50
; FORMAT={3:3/ absolute / metric / suppress leading zeros}
; #@! TF.CreationDate,2020-08-14T22:04:50-07:00
; #@! TF.GenerationSoftware,Kicad,Pcbnew,(5.1.6)-1
FMAT,2
METRIC,TZ
T1C0.400
T2C0.750
T3C0.800
T4C0.900
T5C1.000
T6C1.100
T7C1.500
%
G90
G05
T1
X19304Y-110744
X19812Y-85090
X22352Y-23622
X22860Y-21336
X24130Y-35560
X26162Y-101854
X26924Y-50292
X30734Y-21336
X37084Y-52070
X38100Y-101854
X38608Y-21336
X39624Y-52070
X40894Y-72390
X41910Y-95504
X43434Y-52070
X45249Y-50435
X45249Y-52832
X46482Y-21336
X46990Y-49276
X47432Y-55061
X47498Y-72390
X48768Y-94234
X49836Y-56402
X50308Y-75184
X51692Y-89154
X52324Y-67564
X53086Y-48514
X54102Y-91694
X54139Y-66040
X54340Y-79756
X54356Y-21336
X54864Y-73276
X54864Y-76076
X55118Y-84074
X56896Y-45212
X58674Y-77978
X59944Y-89662
X60198Y-64770
X60464Y-44438
X62230Y-21336
X66040Y-97028
X66040Y-99952
X67056Y-94742
X67564Y-77034
X68834Y-97152
X68834Y-101854
X68844Y-65714
X70104Y-21336
X70104Y-77724
X70916Y-92551
X71882Y-106426
X72136Y-88138
X76454Y-97028
X77978Y-21336
X78232Y-39370
X78740Y-41656
X78740Y-51054
X79248Y-97152
X79756Y-42418
X79769Y-43961
X81026Y-103886
X81150Y-44958
X81280Y-25400
X83820Y-78994
X83820Y-113538
X86106Y-28956
X86106Y-80010
X88646Y-76200
X88900Y-50292
X90562Y-73206
X91186Y-91948
X91440Y-53718
X92202Y-114046
X92710Y-73660
X93980Y-53718
X94234Y-95758
X94488Y-48985
X95250Y-69342
X96520Y-53718
X97282Y-87754
X97790Y-73152
X99060Y-53718
X99060Y-82172
X100330Y-64022
X101600Y-82172
X102870Y-64516
X104140Y-82172
X104394Y-87630
X104394Y-103886
X105410Y-44196
X106321Y-63572
X106680Y-53718
X106680Y-82172
X107950Y-62992
X109220Y-82172
X110490Y-65278
X113030Y-62484
X113030Y-77470
X114046Y-86106
X114554Y-95758
T2
X102870Y-20066
X104140Y-20066
X105410Y-20066
T3
X20320Y-40132
X24638Y-40132
X25654Y-66040
X39624Y-68580
X56388Y-106680
X64770Y-64516
X78994Y-69342
X80264Y-57912
X67056Y-82550
X67056Y-90170
X69596Y-82550
X69596Y-90170
X72136Y-82550
X72136Y-90170
X74676Y-82550
X74676Y-90170
X77216Y-82550
X77216Y-90170
X79756Y-82550
X79756Y-90170
X82296Y-82550
X82296Y-90170
X62484Y-54102
X62484Y-61722
X65024Y-54102
X65024Y-61722
X67564Y-54102
X67564Y-61722
X70104Y-54102
X70104Y-61722
X72644Y-54102
X72644Y-61722
X75184Y-54102
X75184Y-61722
X77724Y-54102
X77724Y-61722
X80264Y-54102
X80264Y-61722
X36576Y-38862
X36576Y-46482
X39116Y-38862
X39116Y-46482
X41656Y-38862
X41656Y-46482
X44196Y-38862
X44196Y-46482
X46736Y-38862
X46736Y-46482
X49276Y-38862
X49276Y-46482
X51816Y-38862
X51816Y-46482
X54356Y-38862
X54356Y-46482
X62484Y-67564
X62484Y-75184
X65024Y-67564
X65024Y-75184
X67564Y-67564
X67564Y-75184
X70104Y-67564
X70104Y-75184
X72644Y-67564
X72644Y-75184
X75184Y-67564
X75184Y-75184
X77724Y-67564
X77724Y-75184
X80264Y-67564
X80264Y-75184
X94488Y-19812
X97028Y-19812
T4
X64516Y-26416
X64516Y-28956
X42418Y-26416
X42418Y-28956
X49784Y-26416
X49784Y-28956
X83820Y-20320
X86360Y-20320
X88900Y-20320
X57150Y-26416
X57150Y-28956
X110998Y-20574
X113538Y-20574
X20320Y-26416
X20320Y-28956
X27686Y-26416
X27686Y-28956
X71882Y-26416
X71882Y-28956
X35052Y-26416
X35052Y-28956
T5
X43260Y-113792
X45760Y-108792
X48260Y-113792
X50626Y-113792
X53126Y-108792
X55626Y-113792
X97790Y-47752
X100330Y-47752
X102870Y-47752
X105410Y-47752
X40640Y-58166
X40640Y-60706
X40640Y-63246
X40640Y-65786
X43180Y-58166
X43180Y-60706
X43180Y-63246
X43180Y-65786
X91440Y-60198
X91440Y-75438
X93980Y-60198
X93980Y-75438
X96520Y-60198
X96520Y-75438
X99060Y-60198
X99060Y-75438
X101600Y-60198
X101600Y-75438
X104140Y-60198
X104140Y-75438
X106680Y-60198
X106680Y-75438
X109220Y-60198
X109220Y-75438
X111760Y-60198
X111760Y-75438
X18288Y-86614
X18288Y-89154
X18288Y-91694
X18288Y-94234
X18288Y-96774
X18288Y-99314
X18288Y-101854
X18288Y-104394
X18288Y-106934
X18288Y-109474
X18288Y-112014
X18288Y-114554
X20828Y-86614
X20828Y-89154
X20828Y-91694
X20828Y-94234
X20828Y-96774
X20828Y-99314
X20828Y-101854
X20828Y-104394
X20828Y-106934
X20828Y-109474
X20828Y-112014
X20828Y-114554
X57912Y-96520
X57912Y-99060
X57912Y-101600
X57912Y-104140
X24384Y-76454
X24384Y-78994
X24384Y-81534
X24384Y-84074
X24384Y-86614
X24384Y-89154
X24384Y-91694
X24384Y-94234
X24384Y-96774
X24384Y-99314
X24384Y-101854
X24384Y-104394
X24384Y-106934
X24384Y-109474
X24384Y-112014
X39624Y-76454
X39624Y-78994
X39624Y-81534
X39624Y-84074
X39624Y-86614
X39624Y-89154
X39624Y-91694
X39624Y-94234
X39624Y-96774
X39624Y-99314
X39624Y-101854
X39624Y-104394
X39624Y-106934
X39624Y-109474
X39624Y-112014
X97790Y-27178
X100330Y-27178
X102870Y-27178
X105410Y-27178
X61468Y-96520
X61468Y-99060
X61468Y-101600
X61468Y-104140
X57992Y-113792
X60492Y-108792
X62992Y-113792
X43434Y-86614
X43434Y-89154
X43434Y-91694
X43434Y-94234
X43434Y-96774
X43434Y-99314
X43434Y-101854
X43434Y-104394
X45974Y-86614
X45974Y-89154
X45974Y-91694
X45974Y-94234
X45974Y-96774
X45974Y-99314
X45974Y-101854
X45974Y-104394
X54356Y-96520
X54356Y-99060
X54356Y-101600
X54356Y-104140
X20066Y-66040
X20066Y-68580
X67564Y-106680
X67564Y-109180
X67564Y-111680
X82064Y-106680
X82064Y-111680
X50800Y-96520
X50800Y-99060
X50800Y-101600
X50800Y-104140
T6
X107800Y-101926
X107800Y-106426
X114300Y-101926
X114300Y-106426
X87480Y-101926
X87480Y-106426
X93980Y-101926
X93980Y-106426
X97640Y-93798
X97640Y-98298
X104140Y-93798
X104140Y-98298
X97640Y-110054
X97640Y-114554
X104140Y-110054
X104140Y-114554
T7
G00X74414Y-103580
M15
G01X75714Y-103580
M16
G05
G00X74414Y-114780
M15
G01X75714Y-114780
M16
G05
T0
M30
